<svg width="40" height="40" fill="none" xmlns="http://www.w3.org/2000/svg"><path d="M30.156 20a.781.781 0 1 1-1.562 0 .781.781 0 0 1 1.562 0Zm-7.812-4.687a.781.781 0 1 1-1.563 0 .781.781 0 0 1 1.563 0Zm-1.563 16.406a.781.781 0 1 1-1.562 0 .781.781 0 0 1 1.562 0ZM9.063 17.656a.781.781 0 1 1-1.563 0 .781.781 0 0 1 1.563 0Z" fill="#00003F"/><path d="M11.406 30.938a3.129 3.129 0 0 0 3.125-3.125 3.129 3.129 0 0 0-3.125-3.125 3.129 3.129 0 0 0-3.125 3.125 3.129 3.129 0 0 0 3.125 3.125Zm0-4.688c.862 0 1.563.701 1.563 1.563 0 .861-.701 1.562-1.563 1.562a1.564 1.564 0 0 1-1.562-1.563c0-.861.7-1.562 1.562-1.562Zm7.032-16.406a3.129 3.129 0 0 0-3.125-3.125 3.129 3.129 0 0 0-3.126 3.125 3.129 3.129 0 0 0 3.126 3.125 3.129 3.129 0 0 0 3.124-3.125Zm-4.688 0c0-.862.701-1.563 1.563-1.563.861 0 1.562.701 1.562 1.563a1.563 1.563 0 0 1-3.125 0Zm10.156 17.187a3.129 3.129 0 0 0 3.125 3.125 3.129 3.129 0 0 0 3.125-3.125 3.129 3.129 0 0 0-3.125-3.125 3.129 3.129 0 0 0-3.125 3.125Zm4.688 0c0 .862-.701 1.563-1.563 1.563a1.564 1.564 0 0 1-1.562-1.563 1.563 1.563 0 0 1 3.125 0Zm-10.156-3.125a2.346 2.346 0 0 0 2.343-2.343 2.346 2.346 0 0 0-2.343-2.344 2.346 2.346 0 0 0-2.344 2.343 2.346 2.346 0 0 0 2.343 2.344Zm0-3.125a.782.782 0 1 1-.002 1.564.782.782 0 0 1 .002-1.564Z" fill="#ECB000"/><path d="M20.781 39.219a.781.781 0 1 1-1.562 0 .781.781 0 0 1 1.562 0Z" fill="#00003F"/><path d="M38.625 16.44c-.507.256-1.323.435-1.984.435-1.553 0-3.083-.897-3.72-2.182a.782.782 0 0 0-.924-.401c-.546.163-1.007.24-1.45.24a5.084 5.084 0 0 1-5.078-5.079c0-.443.076-.904.239-1.45a.78.78 0 0 0-.401-.924c-1.285-.637-2.182-2.167-2.182-3.72 0-.66.18-1.477.436-1.984a.781.781 0 0 0-.58-1.124C21.87.08 20.922 0 20 0 9.22 0 0 9.203 0 20c0 9.377 7.03 17.822 16.35 19.646a.781.781 0 0 0 .3-1.534C8.05 36.43 1.564 28.643 1.564 20c0-9.994 8.443-18.438 18.437-18.438.57 0 1.155.035 1.795.106a6.695 6.695 0 0 0-.233 1.691c0 1.896 1 3.778 2.493 4.793-.1.456-.149.88-.149 1.301 0 3.662 2.98 6.64 6.64 6.64a5.96 5.96 0 0 0 1.302-.148c1.015 1.493 2.897 2.492 4.793 2.492a6.7 6.7 0 0 0 1.69-.232c.072.64.106 1.225.106 1.795 0 8.643-6.486 16.43-15.088 18.112a.781.781 0 1 0 .3 1.534C32.971 37.822 40 29.376 40 20c0-.922-.08-1.87-.25-2.982a.781.781 0 0 0-1.125-.579Z" fill="#00003F"/></svg>