<svg width="22" height="22" fill="none" xmlns="http://www.w3.org/2000/svg"><path d="M3.146 21.474h7.004V13.84H7.633v-2.517h2.517V8.178a3.149 3.149 0 0 1 3.145-3.145h3.146v2.516h-2.517a1.26 1.26 0 0 0-1.258 1.259v2.516h3.661l-.42 2.517h-3.24v7.633h5.661a3.15 3.15 0 0 0 3.146-3.146V3.146A3.15 3.15 0 0 0 18.328 0H3.146A3.15 3.15 0 0 0 0 3.146v15.182a3.15 3.15 0 0 0 3.146 3.146ZM1.258 3.146a1.89 1.89 0 0 1 1.888-1.888h15.182a1.89 1.89 0 0 1 1.887 1.888v15.182a1.89 1.89 0 0 1-1.887 1.887h-4.404V15.1h3.05l.838-5.033h-3.888V8.808H17.7V3.775h-4.404a4.409 4.409 0 0 0-4.404 4.403v1.888H6.375v5.033h2.516v5.116H3.146a1.89 1.89 0 0 1-1.888-1.887V3.146Z" fill="#00003F"/></svg>