<svg width="22" height="22" viewBox="0 0 22 22" fill="none" xmlns="http://www.w3.org/2000/svg">
<path d="M3.14556 21.4737H10.1497V13.8405H7.63322V11.324H10.1497V8.17845C10.1497 6.44397 11.5607 5.03289 13.2952 5.03289H16.4408V7.54934H13.9243C13.2305 7.54934 12.6661 8.11374 12.6661 8.80756V11.324H16.3273L15.9078 13.8405H12.6661V21.4737H18.3281C20.0626 21.4737 21.4737 20.0626 21.4737 18.3281V3.14556C21.4737 1.41108 20.0626 0 18.3281 0H3.14556C1.41108 0 0 1.41108 0 3.14556V18.3281C0 20.0626 1.41108 21.4737 3.14556 21.4737ZM1.25822 3.14556C1.25822 2.1049 2.1049 1.25822 3.14556 1.25822H18.3281C19.3688 1.25822 20.2155 2.1049 20.2155 3.14556V18.3281C20.2155 19.3688 19.3688 20.2155 18.3281 20.2155H13.9243V15.0987H16.9737L17.8125 10.0658H13.9243V8.80756H17.699V3.77467H13.2952C10.8669 3.77467 8.89145 5.75015 8.89145 8.17845V10.0658H6.375V15.0987H8.89145V20.2155H3.14556C2.1049 20.2155 1.25822 19.3688 1.25822 18.3281V3.14556Z" fill="#00003F"/>
</svg>
