<svg width="20" height="20" fill="none" xmlns="http://www.w3.org/2000/svg"><path d="M2.883 19.684h13.918a2.887 2.887 0 0 0 2.883-2.883V2.883A2.887 2.887 0 0 0 16.801 0H2.883A2.887 2.887 0 0 0 0 2.883v13.918a2.887 2.887 0 0 0 2.883 2.883Zm-1.73-16.8c0-.955.776-1.73 1.73-1.73h13.918c.954 0 1.73.775 1.73 1.73V16.8c0 .954-.776 1.73-1.73 1.73H2.883c-.954 0-1.73-.776-1.73-1.73V2.883Z" fill="#00003F"/><path d="M9.843 15.032a5.196 5.196 0 0 0 5.19-5.19 5.196 5.196 0 0 0-5.19-5.19 5.196 5.196 0 0 0-5.19 5.19 5.196 5.196 0 0 0 5.19 5.19Zm0-9.227a4.041 4.041 0 0 1 4.036 4.037 4.041 4.041 0 0 1-4.036 4.037 4.041 4.041 0 0 1-4.037-4.037 4.041 4.041 0 0 1 4.037-4.037Zm5.766 0c.954 0 1.73-.776 1.73-1.73s-.776-1.73-1.73-1.73-1.73.776-1.73 1.73.776 1.73 1.73 1.73Zm0-2.306a.577.577 0 1 1-.002 1.154.577.577 0 0 1 .002-1.154Z" fill="#00003F"/></svg>