<svg width="21" height="21" fill="none" xmlns="http://www.w3.org/2000/svg"><g clip-path="url(#a)" fill="#12133C" stroke="#12133C" stroke-width=".5" stroke-miterlimit="10"><path d="M18.99 20.861H2.008c-.97 0-1.802-.831-1.802-1.802V1.942C.206.972 1.038.14 2.008.14h17.05a1.79 1.79 0 0 1 1.802 1.8v17.118c0 .97-.831 1.802-1.87 1.802ZM2.008.901C1.385.901.9 1.386.9 1.941v17.118c0 .624.485 1.11 1.109 1.11h17.05c.623 0 1.108-.486 1.108-1.11V1.942c0-.624-.485-1.11-1.109-1.11H2.01v.07Z"/><path d="M6.791 17.881H3.118V7.693h3.673v10.188Zm-2.98-.693h2.287V8.386H3.811v8.802ZM4.99 7.07a2.085 2.085 0 0 1-2.08-2.08c0-1.178.901-2.079 2.08-2.079 1.108 0 2.079.901 2.079 2.08 0 1.178-.97 2.079-2.08 2.079Zm0-3.466A1.39 1.39 0 0 0 3.603 4.99 1.39 1.39 0 0 0 4.99 6.376 1.39 1.39 0 0 0 6.375 4.99 1.39 1.39 0 0 0 4.99 3.604Zm12.89 14.277h-3.673v-4.99c0-1.455-.208-2.148-1.178-2.148-1.04 0-1.455.623-1.455 2.079v5.06H7.9V7.692h3.535v.693c.554-.554 1.386-.97 2.495-.97 3.465 0 3.881 2.495 3.881 4.92v5.545h.07Zm-2.98-.693h2.287v-4.851c0-2.565-.554-4.228-3.188-4.228-1.316 0-2.148.762-2.495 1.386l-.069.208h-.554l-.07-.346v-.97H8.663v8.87h2.287v-4.366c0-.762 0-2.772 2.148-2.772 1.872 0 1.872 1.871 1.872 2.842v4.227h-.07Z"/></g><defs><clipPath id="a"><path fill="#fff" d="M0 0h21v21H0z"/></clipPath></defs></svg>