<svg width="16" height="22" fill="none" xmlns="http://www.w3.org/2000/svg"><path d="M8.047 11.666a4.082 4.082 0 0 1-2.859-1.16.292.292 0 0 1 0-.419.309.309 0 0 1 .43 0c1.331 1.302 3.485 1.316 4.8.031 1.314-1.284 1.3-3.387-.033-4.689-1.332-1.301-3.485-1.316-4.8-.031a3.258 3.258 0 0 0-.87 3.139.296.296 0 0 1-.22.36.304.304 0 0 1-.37-.215A3.843 3.843 0 0 1 5.158 4.98 3.973 3.973 0 0 1 7.98 3.852a4.066 4.066 0 0 1 2.834 1.159 3.884 3.884 0 0 1 1.187 2.768 3.793 3.793 0 0 1-1.154 2.76 3.996 3.996 0 0 1-2.801 1.127Z" fill="#00003F" stroke="#00003F" stroke-width=".3"/><path d="M8 21a.306.306 0 0 1-.261-.145l-5.771-9.47A6.582 6.582 0 0 1 1 7.957v-.199C1 4.032 4.14 1 8 1s7 3.032 7 6.759v.199a6.58 6.58 0 0 1-.968 3.428L8.26 20.855A.304.304 0 0 1 8 21ZM8 1.593c-3.525 0-6.393 2.766-6.393 6.166v.199a6 6 0 0 0 .882 3.124L8 20.124l5.51-9.041a6 6 0 0 0 .883-3.125v-.199c0-3.4-2.868-6.166-6.393-6.166Z" fill="#00003F" stroke="#00003F" stroke-width=".3"/></svg>