<svg width="25" height="19" fill="none" xmlns="http://www.w3.org/2000/svg"><path d="m15.796 8.77-5.337-2.92a.972.972 0 0 0-.97.017.972.972 0 0 0-.481.844v5.79a.97.97 0 0 0 .477.841.978.978 0 0 0 .967.022l5.338-2.87a.98.98 0 0 0 .006-1.723Zm-5.372 3.003V7.445l3.988 2.182-3.989 2.146Z" fill="#00003F"/><path d="m23.98 5.021-.001-.01c-.02-.195-.224-1.925-1.065-2.805-.972-1.034-2.074-1.16-2.604-1.22a6.4 6.4 0 0 1-.12-.015l-.042-.004C16.955.735 12.131.703 12.083.703h-.008c-.049 0-4.872.032-8.094.264L3.938.97c-.034.005-.072.01-.113.014-.524.06-1.614.186-2.588 1.258C.436 3.113.204 4.806.18 4.996l-.002.025A49.645 49.645 0 0 0 0 8.962v1.808c0 1.934.17 3.86.178 3.94l.001.013c.02.191.224 1.89 1.06 2.77.915 1 2.07 1.132 2.692 1.203.098.011.182.02.24.03l.056.009c1.844.175 7.625.261 7.87.265h.015c.049 0 4.872-.032 8.065-.264l.043-.005.135-.015c.52-.055 1.605-.17 2.566-1.228.801-.87 1.033-2.563 1.056-2.753l.003-.024c.007-.081.178-2.008.178-3.941V8.962c0-1.934-.17-3.86-.178-3.94Zm-1.238 5.749c0 1.79-.156 3.633-.171 3.802-.06.466-.304 1.537-.695 1.961-.601.662-1.22.728-1.67.775a6.989 6.989 0 0 0-.151.017c-3.089.224-7.73.258-7.944.26-.24-.004-5.937-.091-7.724-.258a6.128 6.128 0 0 0-.295-.038c-.53-.06-1.254-.143-1.81-.756l-.014-.014c-.383-.4-.62-1.4-.68-1.941a49.466 49.466 0 0 1-.172-3.808V8.962c0-1.788.156-3.629.17-3.802.072-.549.321-1.555.695-1.961.62-.682 1.274-.758 1.706-.808l.116-.014c3.134-.224 7.808-.257 7.976-.259.168.001 4.84.035 7.947.26l.124.014c.445.05 1.117.128 1.734.786l.006.006c.383.399.62 1.418.68 1.97.011.12.172 1.99.172 3.808v1.808Z" fill="#00003F"/></svg>