<svg width="676" height="384" fill="none" xmlns="http://www.w3.org/2000/svg"><text xmlns="http://www.w3.org/2000/svg" x="50%" y="99%" text-anchor="middle" fill="#E0E0E0" font-weight="bold" font-size="365" font-family="'Raleway',sans-serif" display="none">404</text><path d="M100.135 380.603v-48.244H0v-66.12l123.537-157.121h50.628v157.131h34.272v66.12h-34.272v48.244h-74.03v-.01ZM72.859 266.239h35.864v-46.685l-35.864 46.685Zm372.502-48.993c0 17.097-2.603 32.855-7.798 47.254-5.205 14.369-12.401 26.81-21.62 37.322-9.219 10.512-20.139 18.676-32.721 24.501-12.622 5.856-26.315 8.764-41.129 8.764-14.814 0-28.507-2.908-41.089-8.764-12.592-5.825-23.492-13.989-32.721-24.501-9.229-10.512-16.425-22.953-21.62-37.322-5.205-14.399-7.798-30.167-7.798-47.254 0-17.127 2.603-32.885 7.798-47.255 5.205-14.399 12.401-26.839 21.62-37.351 9.219-10.512 20.139-18.736 32.721-24.692 12.592-5.985 26.285-8.953 41.089-8.953 14.804 0 28.507 2.978 41.129 8.953 12.592 5.956 23.492 14.18 32.721 24.692 9.229 10.512 16.425 22.952 21.62 37.351 5.195 14.36 7.798 30.128 7.798 47.255Zm-74.831 0c0-15.039-2.663-27.25-7.958-36.563-5.325-9.333-12.171-14.019-20.479-14.019-8.818 0-15.885 4.686-21.21 14.019-5.325 9.303-7.988 21.524-7.988 36.563 0 15.038 2.663 27.159 7.988 36.372 5.325 9.183 12.402 13.8 21.21 13.8 8.308 0 15.154-4.617 20.479-13.8 5.295-9.213 7.958-21.344 7.958-36.372Zm197.157 163.357v-48.244H467.562v-66.12l123.527-157.121h50.638v157.131H676v66.12h-34.273v48.244h-74.04v-.01Zm-27.266-114.364h35.864v-46.685l-35.864 46.685Z" fill="#E0E0E0"/><path d="M367.827 189.547c0-.03.14 0 .28-.15.15-.13.15-.46-.16-.65-.27-.17-.791-.13-1.231.04-.221.09-.411.25-.461.46-.06.21.02.46.17.699.691.98 1.432 1.839 2.152 2.129.711.33 1.232.19 1.232.26.03.04-.511.289-1.342 0-.4-.14-.841-.42-1.241-.81-.4-.4-.771-.829-1.141-1.379-.17-.28-.31-.639-.2-1.009.1-.37.42-.58.69-.689.281-.11.551-.14.811-.14s.521.05.721.199c.19.14.31.35.31.55a.5.5 0 0 1-.21.43c-.24.19-.4.08-.38.06Z" fill="#02000D"/><path d="M306.78 275.811c-.121.3-.351.52-.621.63-.24.1-.51.12-.771.04l-.4-.12a1.133 1.133 0 0 1-.721-1.499l34.143-88.893 2.782 1.109-34.412 88.733Z" fill="#ECB000"/><path opacity=".5" d="m305.699 275.812 34.413-88.743-1.852-.74.14-.37 2.783 1.11-34.413 88.743c-.12.299-.35.519-.621.629-.24.1-.51.12-.77.04l-.231-.07c.251-.12.451-.33.551-.599Z" fill="#ECB000"/><path d="m354.014 154.104-.09.13c5.756 5.816 3.353 12.73.16 19.915-3.383 7.584-10.88 11.301-10.96 11.341l-.2.1.22.05c.11.03 11.451 2.608 19.528-2.728 1.662-.859 3.964-.629 6.186-.419 3.324.319 6.767.659 8.068-2.668 1.461-4.417-2.272-6.026-5.886-7.585-1.671-.719-3.403-1.469-4.574-2.478-2.112-1.828-3.743-4.576-5.315-7.234-2.002-3.378-4.074-6.875-7.137-8.424Zm.381.4c2.772 1.638 4.724 4.926 6.616 8.114 1.581 2.668 3.223 5.435 5.355 7.274 1.191 1.029 2.933 1.779 4.614 2.508 2.062.89 4.064 1.749 5.185 3.078.891 1.059 1.231 2.408.601 4.297-1.261 3.207-4.484 2.897-7.908 2.568-2.252-.22-4.574-.44-6.286.439-7.407 4.897-17.576 3.088-19.188 2.758 1.231-.649 7.748-4.376 10.831-11.321 1.571-3.528 3.052-7.275 3.293-10.812.25-3.457-.771-6.375-3.113-8.903Z" fill="#494949"/><path d="m370.21 171.89-.07-.03-.04.07c-1.482 2.778-3.113 4.087-4.835 5.486-1.962 1.589-3.994 3.228-6.126 7.155l-.1.19.21-.08c.941-.37 1.832-.8 2.653-1.279l.01-.01.01-.01c1.491-1.809 2.953-2.958 4.364-4.067 2.092-1.639 4.074-3.188 5.545-6.625l.03-.07-.07-.03c-.25-.11-.5-.22-.751-.32-.27-.14-.55-.26-.83-.38Zm.01.18c.25.11.51.22.76.33.231.1.451.19.681.29-1.451 3.347-3.403 4.866-5.465 6.485-1.422 1.109-2.893 2.258-4.384 4.087-.751.439-1.562.839-2.413 1.179 2.072-3.757 4.054-5.356 5.976-6.905 1.722-1.399 3.353-2.708 4.845-5.466Zm-3.423-2.039-.07-.05-.05.07c-1.282 1.759-2.553 2.898-3.894 4.087-2.552 2.279-5.195 4.627-7.877 11.612l-.051.129.141-.03c.77-.139 1.541-.309 2.272-.519l.04-.01.01-.04c1.842-5.026 3.994-6.965 6.276-9.023 1.521-1.369 3.093-2.788 4.684-5.196l.05-.07-.08-.04c-.57-.31-1.051-.61-1.451-.92Zm-.03.18c.38.28.81.56 1.331.84-1.561 2.348-3.113 3.747-4.604 5.096-2.293 2.058-4.455 4.007-6.306 9.043-.671.19-1.362.35-2.072.48 2.652-6.845 5.265-9.163 7.787-11.412 1.271-1.139 2.593-2.308 3.864-4.047Zm10.099 6.046-.07-.15-.07.15c-.831 1.729-2.503 4.227-5.756 6.265l-.22.14.26.01c2.453.12 4.865-.14 5.926-2.848.45-1.379.43-2.538-.07-3.567Zm-.08.23c.41.949.4 2.028-.01 3.287-.981 2.508-3.213 2.838-5.505 2.748 3.042-1.968 4.674-4.337 5.515-6.035Zm-3.033-2.988-.08-.04-.03.09c-.76 1.978-2.953 5.746-9.188 8.693l-.461.22.511-.07c1.071-.14 2.272-.07 3.293.02h.02l.02-.01c4.874-2.368 6.966-5.775 7.777-7.604l.02-.06-.05-.04c-.48-.41-1.081-.799-1.832-1.199Zm0 .18c.681.37 1.232.729 1.682 1.099-.821 1.819-2.893 5.136-7.657 7.454-.891-.08-1.892-.14-2.853-.06 5.896-2.897 8.058-6.515 8.828-8.493Zm-30.629 11.811-.2.1.22.05s.46.11 1.221.23l.07.01.02-.07c.11-.37.22-.74.351-1.129l.07-.21-.191.12c-.94.599-1.551.899-1.561.899Zm.27.04c.23-.12.651-.35 1.191-.69-.09.29-.18.57-.26.86-.42-.07-.741-.13-.931-.17Z" fill="#494949"/><path d="m364.195 167.264-.07-.09-.06.09c-1.201 1.698-2.593 2.988-4.054 4.346-3.123 2.888-6.666 6.176-9.319 14.579l-.03.11h.11c.681-.02 1.362-.06 2.022-.13h.05l.02-.049c2.593-7.575 5.956-10.692 8.929-13.44 1.311-1.209 2.552-2.359 3.663-3.807l.04-.05-.05-.05c-.43-.46-.831-.95-1.251-1.509Zm-.07.18c.39.509.761.959 1.141 1.379-1.091 1.409-2.312 2.538-3.603 3.727-2.973 2.758-6.346 5.875-8.949 13.45-.6.06-1.221.1-1.852.12 2.633-8.284 6.146-11.532 9.239-14.4 1.461-1.339 2.833-2.608 4.024-4.276Zm-4.355-7.205-.07-.11-.07.11a19.76 19.76 0 0 1-2.242 2.968l-.02.02v.03c-.07 1.239-.3 2.548-.691 3.997l-.07.279.211-.19c1.711-1.598 3.093-3.037 4.274-4.846l.03-.04-.03-.04c-.471-.789-.881-1.489-1.322-2.178Zm-.07.19c.401.649.791 1.299 1.211 2.018-1.111 1.699-2.422 3.078-4.013 4.577.35-1.349.56-2.568.62-3.727.871-.96 1.582-1.889 2.182-2.868Z" fill="#494949"/><path d="m362.062 164.056-.071-.11-.07.11c-1.481 2.219-3.213 3.807-5.044 5.486-.461.42-.931.849-1.402 1.299l-.02.03c-.38.979-.83 2.058-1.381 3.288l.07.03-.07-.03c-1.772 3.977-4.674 6.854-6.796 8.573l-.02.01-.01.02a50.077 50.077 0 0 0-1.232 3.248l-.03.1.1.01c.671.069 1.362.129 2.042.159h.06l.02-.06c3.203-8.963 7.117-12.55 10.57-15.718 1.572-1.439 3.063-2.808 4.395-4.566l.03-.05-.03-.05c-.331-.53-.691-1.089-1.111-1.779Zm-10.47 14.529c-1.222 2.009-2.403 4.447-3.504 7.515-.62-.03-1.251-.08-1.871-.14.38-1.089.78-2.139 1.191-3.118a26.944 26.944 0 0 0 4.184-4.257Zm10.399-14.339c.381.62.711 1.149 1.031 1.629-1.311 1.729-2.782 3.068-4.334 4.496-1.741 1.599-3.593 3.298-5.415 5.736.351-.599.671-1.229.961-1.888a69.867 69.867 0 0 0 1.381-3.278c.471-.44.931-.869 1.392-1.289 1.791-1.659 3.503-3.228 4.984-5.406Z" fill="#494949"/><path d="m355.846 155.333-.11-.09-.02.14c-.05.289-.081.589-.111.879v.03l.01.02c1.652 2.538 2.143 5.486 1.502 9.013v.02l.01.02c.871 2.438 2.112 5.076 3.693 7.854 1.742 3.078 3.063 6.135 3.914 9.063l.02.06.07-.01a13.76 13.76 0 0 1 1.952-.02l.11.01-.03-.11c-.851-3.067-2.212-6.265-4.044-9.493-3.453-6.065-5.215-11.311-5.235-15.588v-.03l-.02-.02a15.838 15.838 0 0 0-1.711-1.748Zm0 .219c.53.46 1.041.99 1.561 1.619.03 4.297 1.792 9.563 5.255 15.638 1.802 3.178 3.143 6.326 3.994 9.353-.681-.03-1.271-.03-1.802.02-.861-2.927-2.172-5.965-3.913-9.033-1.572-2.758-2.803-5.386-3.674-7.804.641-3.547.15-6.525-1.511-9.083l.09-.71Zm11.2 14.669-.28-.2.16.3c.27.5.53.97.801 1.449 2.102 3.717 3.573 7.375 4.384 10.862l.02.06h.07c.5-.01.951-.06 1.361-.13l.08-.01-.02-.08c-.701-3.487-2.082-7.135-4.094-10.862l-.01-.02-.02-.01c-1.071-.509-1.822-.919-2.452-1.359Zm.19.32c.571.38 1.261.74 2.162 1.159 1.982 3.667 3.343 7.275 4.044 10.712-.36.06-.751.1-1.191.12-.811-3.487-2.292-7.135-4.384-10.842a92.81 92.81 0 0 1-.631-1.149Z" fill="#494949"/><path d="m358.98 159.01-.21-.31.06.36c.61 3.707 2.292 7.994 4.994 12.76 2.042 3.608 3.484 7.155 4.304 10.552l.01.06.061.01.64.06c.451.04.911.09 1.361.12l.111.01-.031-.11c-.83-3.357-2.272-6.865-4.284-10.422-1.451-2.558-2.622-4.996-3.473-7.264-.47-.76-.941-1.549-1.381-2.299-.681-1.179-1.412-2.408-2.162-3.527Zm.08.41c.68 1.029 1.331 2.128 1.962 3.197.45.76.911 1.539 1.381 2.288.851 2.259 2.022 4.717 3.483 7.275 1.982 3.507 3.414 6.965 4.244 10.272-.41-.03-.84-.07-1.251-.11l-.59-.06c-.831-3.397-2.283-6.934-4.315-10.532-2.612-4.586-4.264-8.723-4.914-12.33Zm12.851 13.209-.21-.089.11.199c1.602 3.078 2.773 6.126 3.464 9.054l.03.109.1-.069c.66-.45 1.151-1.08 1.491-1.919l.01-.03-.01-.03a38.718 38.718 0 0 0-2.202-5.796l-.01-.02-.02-.01c-.851-.549-1.872-1.019-2.753-1.399Zm.15.24c.811.36 1.722.79 2.503 1.279a40.135 40.135 0 0 1 2.172 5.726c-.31.759-.751 1.329-1.331 1.759-.691-2.838-1.812-5.786-3.344-8.764Z" fill="#494949"/><path d="m354.014 154.104-.09.13c.66.659 1.231 1.369 1.691 2.088l.131.2.02-.23c.02-.289.06-.579.1-.869l.01-.04-.03-.03a9.023 9.023 0 0 0-1.832-1.249Zm.38.4c.441.26.871.569 1.312.929-.031.2-.061.41-.081.61-.36-.53-.77-1.05-1.231-1.539Z" fill="#300078"/><path d="m353.303 175.967-.07-.13-.07.13a20.41 20.41 0 0 1-1.141 1.778l-.03.04.02.04c1.331 2.708 2.332 5.386 2.953 7.954l.02.07.07-.01c.631-.12 1.261-.259 1.862-.409l.08-.02-.02-.08c-.731-3.018-1.972-6.166-3.674-9.363Zm-.08.2c1.652 3.117 2.853 6.185 3.574 9.123-.551.14-1.121.27-1.692.379-.63-2.548-1.611-5.196-2.933-7.874.381-.529.731-1.079 1.051-1.628Zm-2.242 3.108-.05-.12-.08.1c-.34.399-.7.799-1.071 1.189l-.04.04.02.05c.821 1.908 1.482 3.807 1.942 5.645l.02.07h.07c.461-.03.921-.07 1.371-.119l.091-.01-.02-.09c-.491-2.189-1.252-4.467-2.253-6.755Zm-.1.18c.961 2.208 1.692 4.396 2.162 6.515-.4.04-.8.08-1.211.1a37.229 37.229 0 0 0-1.912-5.556c.341-.34.661-.7.961-1.059Zm-4.003 3.587-.05.04.02.05c.36 1.029.671 2.058.931 3.047l.01.06h.06c.661.04 1.331.06 1.972.05h.1l-.03-.1a35.535 35.535 0 0 0-1.451-4.336l-.04-.11-.09.08c-.441.429-.931.839-1.432 1.219Zm.15.09c.451-.35.901-.73 1.332-1.11a36.773 36.773 0 0 1 1.371 4.117c-.591 0-1.201-.02-1.802-.05-.25-.969-.55-1.958-.901-2.957Zm9.518-14.929-.09-.19-.06.2c-.19.63-.421 1.299-.681 1.999l-.01.029.02.03a61.874 61.874 0 0 0 1.882 3.578c1.842 3.257 3.203 6.475 4.054 9.573l.03.099.09-.049c.31-.18.61-.37.891-.55.1-.05.21-.1.33-.15l.07-.03-.02-.07c-.851-3.187-2.242-6.515-4.144-9.882a55.896 55.896 0 0 1-2.362-4.587Zm-.06.26a59.62 59.62 0 0 0 2.272 4.407c1.882 3.327 3.263 6.615 4.114 9.772-.1.04-.2.09-.29.14-.261.17-.521.34-.801.5-.851-3.068-2.212-6.266-4.044-9.503a57.49 57.49 0 0 1-1.862-3.538c.23-.619.431-1.219.611-1.778Zm-1.54 4.016-.08-.149-.07.159c-.221.53-.461 1.09-.721 1.659-.02.05-.05.11-.07.16l-.04.09.02.04c1.992 3.617 3.383 7.165 4.144 10.552l.02.09.08-.03c.61-.2 1.221-.44 1.802-.699l.06-.03-.02-.07c-.841-3.248-2.252-6.635-4.194-10.073-.311-.549-.621-1.129-.931-1.699Zm-.06.23c.28.53.57 1.049.861 1.559 1.921 3.398 3.323 6.745 4.164 9.963a18.37 18.37 0 0 1-1.642.629c-.761-3.367-2.152-6.885-4.114-10.472l.01-.02c.02-.05.05-.11.07-.16.23-.519.451-1.019.651-1.499Zm-2.843-16.807c-.071.02-6.557 2.219-10.621 13.43-2.112 5.846-1.941 9.303-1.411 11.172.561 2.018 1.642 2.668 1.652 2.678l-.08.14c-.02-.01-.291-.17-.631-.57-.36-.42-.791-1.109-1.091-2.178-.541-1.899-.721-5.386 1.411-11.292 4.084-11.291 10.65-13.51 10.72-13.53l.051.15Z" fill="#494949"/><path d="M354.866 157.811c-3.924-.3-8.238 4.796-11.551 13.629-1.722 4.587-1.251 7.485-.551 9.113.751 1.759 1.932 2.459 1.942 2.459l-.08.139c-.03-.02-.49-.289-1.021-.909a6.11 6.11 0 0 1-.981-1.619c-.711-1.658-1.201-4.606.541-9.253 3.333-8.903 7.717-14.039 11.711-13.729l-.01.17Z" fill="#494949"/><path d="M355.736 159.659c-4.965.75-8.358 8.594-9.589 11.921-1.632 4.427-1.371 7.824.791 10.382l-.121.1c-2.172-2.568-2.442-6.115-.82-10.542 1.241-3.357 4.664-11.261 9.709-12.031l.03.17Z" fill="#494949"/><path d="M356.146 161.658c-2.702 1.149-5.945 5.536-7.377 9.992-1.101 3.418-1.001 6.455.28 8.564l-.14.08c-1.301-2.139-1.411-5.226-.29-8.694 1.441-4.486 4.725-8.923 7.467-10.092l.06.15Z" fill="#494949"/><path d="M351.832 171.73c-1.832 4.297-1.131 6.505-1.131 6.525l-.15.05c-.03-.09-.721-2.278 1.131-6.645 1.852-4.347 4.294-6.475 4.314-6.495l.11.12c-.02.03-2.442 2.128-4.274 6.445Z" fill="#494949"/><path d="m352.273 175.737.12.11c-.07.08-7.477 8.234-12.922 5.946l.06-.15c5.335 2.248 12.662-5.826 12.742-5.906Z" fill="#494949"/><path d="m353.203 174.059.1.13c-.08.069-8.448 6.485-14.844 5.345l.03-.159c6.316 1.129 14.634-5.246 14.714-5.316Zm.472-.65c-.08.04-7.888 3.727-15.595 3.078l.01-.16c7.667.649 15.435-3.028 15.515-3.068l.07.15Zm.27-.829.02.16c-.11.02-10.741 1.66-15.545-.09l.06-.15c4.764 1.73 15.354.09 15.465.08Zm.759-1.919.03.16c-.07.01-6.806 1.039-15.394-1.659l.05-.15c8.538 2.688 15.254 1.659 15.314 1.649Zm-14.383-4.111-.028.158 14.882 2.639.028-.158-14.882-2.639Zm15.305 1.083c-.101-.04-10.25-3.667-13.653-3.997l.02-.159c3.423.329 13.593 3.977 13.693 4.007l-.06.149Zm.27-1.498c-.08-.05-8.098-4.877-11.751-5.686l.03-.16c3.683.809 11.721 5.656 11.801 5.706l-.08.14Zm.22-2.249c-.06-.05-6.266-5.296-9.559-5.835l.03-.16c3.333.539 9.379 5.655 9.639 5.865l-.11.13Zm-.101-2.568c-.04-.04-4.013-4.426-7.286-4.676l.01-.16c3.333.25 7.226 4.547 7.397 4.726l-.121.11Z" fill="#494949"/><path d="M338.419 165.805c-3.293 7.454-3.083 14.978.22 18.186l-1.071 2.838 3.714 1.429.94-2.688c4.605.28 10.33-4.627 13.633-12.091 3.784-8.544 2.943-17.187-1.861-19.305-4.825-2.119-11.792 3.087-15.575 11.631Zm14.664-9.603c3.763 1.659 4.154 9.023.871 16.458-3.284 7.424-9.009 12.1-12.773 10.442-3.763-1.659-4.153-9.024-.87-16.458 3.293-7.434 9.008-12.101 12.772-10.442Z" fill="#ECB000"/><g opacity=".5" fill="#9A641A"><path opacity=".5" d="M340.811 182.902c-.15-.05-.3-.1-.44-.16-3.764-1.659-4.154-9.023-.871-16.458 3.283-7.424 8.998-12.101 12.772-10.442.13.06.25.12.37.19-3.763-1.139-9.169 3.457-12.332 10.602-3.173 7.184-2.912 14.299.501 16.268Z"/><path opacity=".5" d="m340.47 187.908 1.151-3.037c4.604.279 10.109-4.267 13.412-11.732 3.684-8.323 2.983-16.757-1.511-19.135.15.05.3.11.45.18 4.815 2.118 5.646 10.772 1.862 19.305-3.303 7.455-9.028 12.371-13.633 12.091l-.941 2.688-3.713-1.429.01-.03 2.913 1.099Z"/></g><path d="M365.437 227.049c-3.273-1.639-4.404-5.746-2.433-8.834a569.558 569.558 0 0 1 1.952-3.037s-4.024-2.858-1.892-7.245c2.133-4.377 7.908-13.999 7.908-13.999a16.956 16.956 0 0 1 14.274 9.532l.4.82-12.132 20.394a6.18 6.18 0 0 1-8.077 2.369Z" fill="#FFBE9D"/><path d="M368.06 202.758c.38-.11.601-.5.491-.869a.705.705 0 0 0-.872-.49c-.38.11-.601.5-.49.869.1.37.49.59.871.49Zm-.302-2.419c.03.11.62-.01 1.221.29.611.29.881.83.991.78.05-.02.05-.19-.07-.43-.11-.24-.371-.54-.741-.72-.38-.18-.771-.2-1.021-.14-.26.07-.4.17-.38.22Zm5.996 4.816a.7.7 0 0 0-.641.769c.03.39.381.68.771.64a.7.7 0 0 0 .641-.769.707.707 0 0 0-.771-.64Zm.111-1.209c.03.11.621-.01 1.221.29.611.29.881.829.991.779.05-.02.05-.19-.07-.429-.11-.24-.37-.54-.741-.72-.38-.18-.77-.2-1.02-.14-.261.06-.401.17-.381.22Zm-4.835 3.997c.03-.04-.311-.31-.871-.69-.15-.099-.25-.189-.22-.279.02-.11.16-.25.34-.39.35-.32.711-.64 1.091-.979 1.532-1.409 2.713-2.608 2.633-2.688-.071-.08-1.372.999-2.893 2.408-.371.35-.721.679-1.071.999-.15.15-.361.31-.411.61-.02.15.051.309.141.389.09.08.18.13.25.17.6.32.981.5 1.011.45Z" fill="#02000D"/><path d="M364.977 215.127s2.643 1.599 6.496 1.23c0 0-2.913 2.458-7.077-.11l.581-1.12Z" fill="#EB996E"/><path d="M382.822 208.643c.1.02 3.664 1.618 1.231 4.546-2.102 2.528-4.614-.1-4.554-.19.06-.09 3.323-4.356 3.323-4.356Z" fill="#FFBE9D"/><path d="M381.4 212.46c.02 0 .02.059.08.149.05.09.171.2.341.25.35.09.901-.19 1.241-.659.17-.24.28-.5.33-.75.05-.25.02-.469-.1-.599a.288.288 0 0 0-.36-.06c-.09.05-.11.11-.12.11-.01 0-.03-.08.07-.18a.3.3 0 0 1 .22-.09c.1-.01.21.03.3.11.19.16.25.469.2.749-.04.28-.16.59-.35.85-.39.519-1.011.829-1.471.679a.59.59 0 0 1-.371-.36c-.05-.13-.03-.199-.01-.199Z" fill="#EB996E"/><path d="M380.41 211.141c-.881.01-1.482-.99-1.412-1.869.061-.879.571-1.649.991-2.418a13.256 13.256 0 0 0 1.262-3.348c.17-.749.27-1.578-.121-2.238-.44-.759-1.371-1.069-2.232-1.229-.86-.16-1.781-.24-2.502-.739-.941-.67-1.301-1.939-2.212-2.648-.841-.66-1.992-.74-3.023-1.01-1.041-.269-2.062-.789-2.693-1.658-.63-.87-.79-2.139-.18-3.018.611-.889 2.052-1.139 2.803-.37-.481-.769.09-1.888.961-2.148.871-.26 1.832.17 2.442.849.611.68.921 1.559 1.201 2.428.491-.659 1.502-.749 2.232-.379.731.369 1.222 1.089 1.582 1.828.35.74.601 1.529 1.021 2.239.841 1.408 2.262 2.348 3.503 3.417s2.392 2.498 2.332 4.137c-.05 1.439-1.221 2.518-2.001 3.737-.811 1.259-.981 1.549-1.762 2.728-.01-.02-.921 1.719-2.192 1.709Z" fill="#02000D"/><path d="M369.94 211.241c.02-.03-.11-.21-.401-.41-.28-.19-.73-.38-1.211-.37a1.6 1.6 0 0 0-1.061.41c-.21.2-.27.39-.23.42.07.08.531-.46 1.361-.48.831-.01 1.502.51 1.542.43Z" fill="#fff"/><path d="M384.303 200.459c.07.07.561-.34 1.291-.41.741-.09 1.301.2 1.351.11.02-.04-.09-.17-.34-.29-.25-.12-.63-.21-1.061-.17-.42.05-.781.22-.991.4-.2.17-.28.33-.25.36Z" fill="#02000D"/><path d="M386.387 197.461c-.1-.02-.29.699-.781 1.449-.48.759-1.061 1.229-1.011 1.309.04.08.771-.29 1.302-1.119.531-.82.581-1.629.49-1.639Zm-5.966 16.467c-.02-.04-.29.17-.26.65.02.23.12.509.38.709.26.21.671.24 1.001.09.33-.14.59-.46.61-.799.03-.33-.11-.6-.27-.76-.33-.349-.67-.289-.65-.25-.01.05.25.1.46.4.1.15.17.36.14.57-.03.21-.19.409-.43.519-.24.1-.501.09-.671-.03a.81.81 0 0 1-.32-.489c-.09-.36.06-.58.01-.61Z" fill="#02000D"/><path d="M382.913 237.67s15.094 8.983 14.463 10.662c-.63 1.689-16.815 11.551-16.815 11.551l3.783 7.934s28.017-9.213 26.485-20.924c-1.231-9.453-20.109-19.325-20.109-19.325l-7.807 10.102Zm-14.995 52.341s10.82 32.475 26.025 41.079c15.204 8.603 45.152 20.644 45.152 20.644l4.605-10.122s-40.439-20.105-42.491-26.18l-6.876-17.527" fill="#FFBE9D"/><path d="M355.256 290.011c-.55.909-14.424 22.852-15.164 31.926-.741 9.063 13.823 56.977 13.823 56.977l10.7-3.278s-10.37-48.303-8.948-50.232c1.421-1.939 20.419-28.429 20.419-28.429l-20.83-6.964Zm-6.396-58.856s-7.427 15.898-9.179 15.439c-1.431-.38-9.389-10.572-12.211-14.24a54.96 54.96 0 0 1 .03-2.737c.08-2.668-1.802-1.459-1.802-1.459s-1.872-2.528-4.194-2.468c-2.322.069-4.965 4.826-5.215 7.124l4.584 6.725c3.844 7.354 12.863 22.323 21.591 20.285 9.289-2.169 17.236-21.924 17.236-21.924l-10.84-6.745Z" fill="#FFBE9D"/><path d="m351.262 370.9 3.493 10.502 10.67-3.088-3.053-13.08-11.11 5.666Z" fill="#EBEBEB"/><path d="m353.574 379.443-.081-.979 11.251-3.108.991 4.337-.701.2c-3.123.879-15.935 4.267-18.187 4.097-2.512-.18 6.727-4.547 6.727-4.547Z" fill="#ECB000"/><path opacity=".5" d="M361.551 380.313c-.05-.989.08-2.138.71-2.908.631-.769 1.712-1.149 2.693-1.289l.721 3.198-4.124.999Z" fill="#fff"/><path opacity=".4" d="M349.11 381.721s-3.273 1.859-2.643 2.209c.981.539 13.623-2.468 19.279-4.267l-.12-.45-15.295 3.638s-.54-1.249-1.221-1.13Z" fill="#fff"/><path d="M365.825 379.183s-.06.03-.19.07c-.17.05-.351.1-.561.16-.56.15-1.251.34-2.062.56a191.37 191.37 0 0 1-6.846 1.659 208.324 208.324 0 0 1-6.897 1.429c-.831.149-1.531.279-2.102.379-.21.03-.4.07-.57.09-.13.02-.201.03-.201.02 0 0 .071-.02.201-.05.17-.04.36-.08.57-.12.571-.12 1.271-.26 2.092-.429 1.762-.36 4.204-.87 6.887-1.469 2.682-.6 5.105-1.189 6.846-1.619.821-.2 1.512-.37 2.072-.51.21-.05.39-.09.561-.14.13-.03.2-.04.2-.03Z" fill="#02000D"/><path d="M350.471 382.951c-.04.01-.19-.47-.611-.909-.42-.44-.901-.6-.891-.64 0-.04.541.07.991.54.461.469.551 1.009.511 1.009Zm2.994-2.468c-.03.03-.23-.13-.46-.36-.231-.23-.391-.43-.361-.46.03-.03.231.13.461.36.23.23.391.43.36.46Zm.82-.699c-.021.03-.231-.05-.461-.18-.241-.13-.411-.27-.391-.3.02-.03.231.05.461.18s.411.27.391.3Z" fill="#02000D"/><path d="M352.852 379.574c0 .02-.27.11-.74.16-.23.02-.511.03-.821 0-.15-.02-.31-.02-.49-.08-.081-.03-.181-.08-.231-.19-.06-.1-.02-.24.05-.32.621-.52 1.412-.28 1.762.02.19.15.29.32.35.44s.07.19.06.19c-.02.02-.11-.28-.48-.55-.18-.13-.43-.25-.721-.27-.28-.02-.65.04-.861.26-.1.11-.02.24.131.29.14.05.31.06.45.08.3.03.571.04.801.03.45-.02.73-.08.74-.06Z" fill="#02000D"/><path d="M352.674 379.653c-.01.01-.16-.15-.2-.49-.02-.169 0-.369.08-.579.09-.19.21-.45.531-.51.18-.02.3.16.3.29.02.13-.02.26-.05.36-.07.21-.16.38-.25.519-.18.28-.341.4-.351.39-.02-.02.121-.16.271-.44.07-.139.15-.309.21-.509.07-.18.07-.47-.12-.46-.19.02-.331.25-.411.42-.08.19-.11.37-.1.519 0 .3.11.48.09.49Zm12.211-3.547c0 .03-.331.04-.841.22-.501.17-1.161.54-1.672 1.169a3.76 3.76 0 0 0-.791 1.889c-.06.53-.01.859-.03.869-.01 0-.03-.08-.05-.23a3.275 3.275 0 0 1-.01-.649c.04-.54.251-1.309.781-1.969a3.609 3.609 0 0 1 2.382-1.309c.151-.01.231 0 .231.01Zm-5.024 3.417c.01.03-.701.32-1.632.54-.931.22-1.702.28-1.702.24-.01-.04.751-.16 1.672-.38.911-.21 1.652-.44 1.662-.4Z" fill="#02000D"/><path d="M362.102 379.014c.03.02-.03.17-.06.36-.04.19-.05.35-.09.36-.04.01-.1-.17-.05-.38.04-.22.17-.36.2-.34Zm.611-1.239c.03.02-.01.16-.11.3-.09.15-.19.25-.23.23-.03-.02.01-.16.11-.3.1-.15.2-.25.23-.23Zm1.1-.75c0 .04-.15.07-.31.17-.16.09-.26.21-.29.19-.04-.01.02-.2.22-.32.19-.11.39-.08.38-.04Zm.812-.418c.02.03-.03.11-.12.16-.09.06-.17.08-.2.05-.02-.03.03-.11.12-.16.09-.06.18-.08.2-.05Z" fill="#02000D"/><path d="m433.27 349.366 10.259 4.187 4.595-10.102-11.932-6.196-2.922 12.111Z" fill="#EBEBEB"/><path d="m441.267 353.163-.801-.579 4.955-10.552 3.943 2.068-.3.66c-1.361 2.937-7.127 14.848-8.718 16.447-1.772 1.799.921-8.044.921-8.044Z" fill="#ECB000"/><path opacity=".5" d="M447.123 347.688c-.791-.61-1.582-1.459-1.752-2.439-.17-.979.24-2.038.771-2.877l2.892 1.538-1.911 3.778Z" fill="#fff"/><path opacity=".4" d="M440.096 358.03s-.711 3.687-.04 3.437c1.051-.39 6.996-11.931 9.308-17.387l-.42-.2-7.187 13.96c-.01 0-1.321-.4-1.661.19Z" fill="#fff"/><path d="M449.044 343.71s-.02.07-.08.19c-.07.16-.151.33-.241.53-.25.52-.56 1.169-.92 1.928a208.713 208.713 0 0 1-6.597 12.421c-.42.73-.78 1.339-1.081 1.839-.11.18-.21.349-.3.499l-.11.17s.03-.07.09-.18c.08-.15.18-.319.28-.509.28-.51.631-1.129 1.041-1.859a321.202 321.202 0 0 0 3.363-6.175 308.826 308.826 0 0 0 3.223-6.246c.381-.749.701-1.388.961-1.898.1-.19.181-.36.261-.52.07-.13.1-.19.11-.19Z" fill="#02000D"/><path d="M441.917 357.8c-.02.04-.48-.17-1.091-.12-.61.03-1.041.3-1.061.26-.03-.02.401-.36 1.051-.4.651-.05 1.121.24 1.101.26Zm.073-3.867c0 .04-.251.09-.571.12-.321.02-.581.01-.581-.03s.25-.09.571-.12c.32-.03.581-.01.581.03Zm-.002-1.079c.01.04-.18.14-.44.24-.261.09-.471.14-.491.1-.01-.04.18-.14.441-.24.26-.09.48-.14.49-.1Z" fill="#02000D"/><path d="M440.897 353.803c.01.01-.09.28-.361.66a4.6 4.6 0 0 1-.53.629c-.11.11-.22.22-.381.32-.08.04-.18.08-.29.06a.302.302 0 0 1-.21-.24c.01-.809.701-1.259 1.161-1.319.24-.04.431-.01.561.02.13.03.19.07.19.08 0 .03-.29-.09-.731 0-.22.05-.47.16-.671.37-.19.199-.39.519-.37.819.02.15.17.17.3.09.131-.07.251-.19.361-.29.22-.21.4-.41.54-.589.281-.37.411-.62.431-.61Z" fill="#02000D"/><path d="M440.838 353.993c0 .01-.22.02-.5-.17a1.21 1.21 0 0 1-.391-.44c-.09-.2-.21-.449-.05-.729.1-.14.32-.13.421-.04.11.07.18.18.24.27.11.19.19.369.24.529.09.32.08.52.07.52-.02 0-.05-.2-.16-.49-.06-.15-.14-.319-.25-.489-.09-.17-.311-.36-.431-.21-.1.16-.03.42.05.589.09.18.21.32.331.42.23.18.44.21.43.24Zm5.255-11.571c.02.01-.19.28-.381.779-.19.49-.35 1.239-.2 2.029.15.799.561 1.439.921 1.828.361.39.651.57.641.59 0 .01-.08-.03-.21-.11s-.3-.22-.501-.41a3.64 3.64 0 0 1-.991-1.868c-.16-.83.02-1.599.24-2.099.11-.249.23-.439.321-.559.1-.13.16-.19.16-.18Zm-.671 6.035c.03.01-.211.749-.651 1.588-.441.85-.892 1.469-.922 1.449-.03-.02.371-.679.801-1.519.431-.829.731-1.528.772-1.518Z" fill="#02000D"/><path d="M446.503 346.428c.04-.01.11.13.23.28.12.15.24.26.21.3-.02.03-.19-.03-.33-.21-.13-.18-.15-.36-.11-.37Zm-.551-1.269c.04-.01.11.11.16.28.05.16.06.31.03.32-.04.01-.11-.11-.16-.28-.06-.17-.07-.31-.03-.32Zm.15-1.329c.03.03-.04.16-.07.34-.03.18 0 .33-.04.35-.03.02-.13-.15-.1-.37s.18-.34.21-.32Zm.2-.878c.04 0 .06.09.05.2-.01.1-.05.18-.09.18-.04 0-.06-.09-.05-.2.01-.11.05-.19.09-.18Zm-87.503-60.275s12.261 27.009 14.574 27.179c0 0 24.513-9.423 24.183-10.422-.331-.989-5.966-11.411-6.126-14.059-.17-2.648-4.665-9.683-4.665-9.683l-27.966 6.985Z" fill="#02000D"/><path d="m358.799 282.677-12.752 20.065 21.871 11.251 8.778-12.74-17.897-18.576Z" fill="#02000D"/><path d="M373.263 310.046c-.1.04-2.572-5.166-5.515-11.631-2.953-6.465-5.265-11.751-5.165-11.791.1-.04 2.573 5.166 5.515 11.631 2.943 6.465 5.265 11.751 5.165 11.791Zm24.353-10.872c.01.02-.301.22-.891.54-.581.33-1.441.789-2.502 1.339a144.048 144.048 0 0 1-8.458 3.997 146.804 146.804 0 0 1-8.689 3.457c-1.131.4-2.042.72-2.682.92-.641.199-.991.299-1.001.279-.01-.03.33-.17.951-.419.69-.27 1.581-.62 2.632-1.03a259.867 259.867 0 0 0 8.638-3.547 251.293 251.293 0 0 0 8.488-3.887c1.031-.49 1.882-.899 2.553-1.219.61-.31.951-.45.961-.43Zm-.501-1.389c.01.02-.3.23-.871.57-.57.35-1.411.829-2.472 1.399a86.463 86.463 0 0 1-8.478 3.967 89.028 89.028 0 0 1-8.849 3.048 57.004 57.004 0 0 1-2.742.719c-.651.15-1.021.22-1.021.19-.01-.03.34-.15.981-.34.71-.22 1.621-.499 2.702-.829 2.283-.72 5.405-1.779 8.789-3.138a117.51 117.51 0 0 0 8.498-3.857c1.011-.52 1.861-.949 2.522-1.289.591-.3.931-.46.941-.44Zm-18.827-11.112c.02.04-.61.53-1.771 1.08-1.151.539-2.943 1.129-4.945.809-.991-.16-1.892-.54-2.592-1.069a5.032 5.032 0 0 1-1.482-1.749c-.29-.589-.41-1.109-.44-1.479-.03-.359.01-.559.03-.559.08-.01.03.819.65 1.908.311.53.791 1.119 1.452 1.589.66.48 1.511.819 2.442.969 1.892.31 3.613-.21 4.775-.679 1.161-.47 1.841-.87 1.881-.82Z" fill="#00002F"/><path d="M365.436 293.178c0 .03-.161.09-.481.16-.31.06-.791.16-1.391.04-.3-.07-.621-.22-.881-.479-.26-.25-.46-.58-.641-.92-.34-.689-.67-1.449-.981-2.268a24.555 24.555 0 0 1-1.161-4.327c-.19-1.129-.21-1.838-.16-1.848.06-.01.18.689.431 1.798.25 1.11.65 2.628 1.251 4.247.3.81.62 1.569.931 2.248.3.68.74 1.16 1.271 1.29.52.149.981.099 1.301.079.32-.04.501-.05.511-.02Z" fill="#00002F"/><path d="M379.23 258.734c2.532.33 3.974.39 3.974.39l2.352.28 2.893 6.895-7.157 3.877c-2.272-.48-6.747-3.588-6.576-5.896.17-2.308 2.882-3.917 2.882-3.917s-1.011-1.978 1.632-1.629Z" fill="#FFBE9D"/><path d="M374.324 221.123c6.236-.28 11.241 2.028 22.842 9.203l-6.697 13.22-8.978-5.026-7.167-17.397Z" fill="#171751"/><path d="m356.577 241.347-.61 18.776 1.581 22.553s26.856-3.337 30.979-8.373l-5.315-13.58.901-28.099c0-3.208-.891-5.776-2.272-7.594-1.872-2.458-6.026-3.727-8.548-4.187h-14.324s-9.779-.26-11.651 9.783l9.259 10.721Z" fill="#171751"/><path opacity=".3" d="M356.587 244.425h6.806v18.416l-7.126 1.589c0 .01-1.161-13.17.32-20.005Z" fill="#fff"/><path d="M383.352 256.196c-.11 0-.02-6.085.2-13.59.21-7.504.471-13.589.581-13.589.11 0 .02 6.085-.2 13.599-.211 7.505-.471 13.58-.581 13.58Z" fill="#02000D"/><path d="M350.662 224.08s-1.772.24-8.959 17.937l13.523 8.393s6.156-17.107 5.906-20.594c-.261-3.498-5.546-10.502-10.47-5.736Z" fill="#171751"/><path d="M352.934 222.303c0-.01.11-.05.34-.11.22-.07.56-.12 1.011-.15.881-.04 2.202.12 3.613.869.701.37 1.422.889 2.052 1.599.321.35.581.769.801 1.229.21.47.33.969.42 1.489.371 2.098-.06 4.417-.63 6.725-1.181 4.646-2.783 8.673-3.744 11.641-.5 1.479-.871 2.688-1.141 3.517-.12.38-.22.7-.3.96-.07.219-.12.329-.13.329-.01 0 .01-.12.06-.349.06-.27.14-.59.23-.98.22-.849.561-2.068 1.021-3.567.901-2.998 2.452-7.045 3.623-11.651.581-2.298 1.001-4.557.661-6.565-.22-2.069-1.742-3.398-3.053-4.137-1.351-.75-2.622-.959-3.483-.959-.871.01-1.341.16-1.351.11Z" fill="#02000D"/><path opacity=".4" d="M383.662 239.848c2.032 1.1 4.054 2.199 6.086 3.288.12.07.26.14.4.11.23-.03.351-.31.311-.53-.04-.23-.191-.409-.331-.589a37.97 37.97 0 0 1-6.126-10.742l-.34 8.463Zm-26.344 4.407c4.214-4.227 5.776-10.881 3.884-16.537 0 0-.2 4.586-1.181 7.524-.981 2.938-2.703 9.013-2.703 9.013Z" fill="#000"/><path d="M656.591 381.252s-.461.02-1.361.03c-.911.01-2.253.01-4.014.03-3.544.01-8.758.03-15.485.05-13.483.02-43.041.05-67.354.08h-.27l.1-.25c.05-.12.1-.26.15-.4l-.01.03c.541-3.187 1.141-6.715 1.762-10.332l.3.19c-2.442 1.729-5.175 3.667-7.957 5.636l-.321.23v-.39c-.01-8.324-.01-17.107-.02-26.27l.431.06c-2.663 9.333-5.475 19.175-8.388 29.397l-.15.51-.281-.45c-2.342-3.737-4.914-7.834-7.517-12.001l.451-.159c.54 4.376 1.121 9.173 1.721 14.029l.03.28h-.29c-24.143-.11-100.425-.02-127.621-.05-28.717 0-56.353-.01-82.107-.01-12.883-.01-25.284-.01-37.126-.02-5.915 0-11.701-.01-17.316-.01-2.813 0-5.585 0-8.318-.01h-6.076c-.67-.04-1.331-.07-2.001-.11l-.171-.01-.03-.17c-.52-3.198-1.001-6.195-1.481-9.133l.37.09a1251.458 1251.458 0 0 1-3.723 5.136l-.2.28-.141-.31c-2.162-4.876-4.194-9.473-6.155-13.879l.35-.07c-.14 5.236-.26 10.082-.38 14.688l-.01.31-.261-.17a4402.211 4402.211 0 0 1-8.668-5.895l.23-.19c1.492 3.447 2.773 6.405 3.994 9.233l.09.2h-.22c-13.553-.13-184.385-.07-191.671-.12-3.634-.02-6.427-.03-8.328-.04-.941-.01-1.652-.01-2.132-.02-.48-.01-.721-.02-.721-.02s.24-.01.72-.02c.491 0 1.202-.01 2.133-.02 1.891-.01 4.684-.02 8.327-.04 7.287 0 178.119-.1 191.692-.01l-.14.2c-1.231-2.818-2.513-5.776-4.014-9.223l-.21-.49.45.3c2.693 1.819 5.506 3.717 8.689 5.876l-.261.139c.11-4.606.22-9.442.351-14.688l.02-.82.33.75c1.962 4.406 4.004 8.993 6.176 13.859l-.341-.03c1.192-1.649 2.403-3.327 3.714-5.146l.29-.4.08.48c.481 2.938.971 5.936 1.492 9.133l-.2-.18c.66.03 1.321.07 1.991.11h6.076c2.733 0 5.505 0 8.318-.01 5.625 0 11.401-.01 17.316-.01 11.842-.01 24.243-.01 37.126-.02 25.754 0 53.39-.01 82.107-.01 27.196.03 103.478-.05 127.621.07l-.25.28c-.591-4.856-1.171-9.653-1.712-14.029l-.13-1.09.581.93c2.602 4.167 5.175 8.263 7.507 12.001l-.431.06c2.923-10.213 5.746-20.065 8.418-29.388l.441-1.519v1.589c-.01 9.163-.01 17.946-.02 26.27l-.32-.17c2.782-1.969 5.515-3.897 7.967-5.626l.38-.27-.08.46c-.62 3.617-1.231 7.145-1.781 10.332v.02l-.01.02c-.05.14-.11.28-.15.4l-.171-.25c24.313.04 53.871.06 67.354.08 6.727.02 11.941.04 15.485.05 1.761.01 3.103.02 4.014.03.89 0 1.351.02 1.351.02Z" fill="#263238"/><path d="M209.549 380.243c20.419-7.494 30.058-28.628 34.502-48.723.741-3.358 2.012-6.765 1.162-10.093-.851-3.327-4.084-6.275-7.467-5.655-2.803.519-4.635 3.107-6.647 5.126a20.324 20.324 0 0 1-9.829 5.416c-2.432.549-5.265.539-7.087-1.159-2.502-2.329-1.822-6.376-.951-9.673 1.632-6.146 3.253-12.301 4.885-18.446.871-3.298 1.752-6.675 1.521-10.073-.23-3.407-1.791-6.904-4.754-8.613-2.963-1.699-7.377-.899-8.889 2.168-.63 1.279-.71 2.748-1.151 4.087-.45 1.349-1.491 2.698-2.912 2.748-1.442.04-2.543-1.239-3.294-2.458-2.602-4.227-3.843-9.123-4.934-13.97-1.091-4.836-2.102-9.762-4.304-14.209-2.202-4.446-5.806-8.443-10.54-9.942-4.735-1.499-10.61.11-13.023 4.446-2.422 4.347-.88 9.783 1.152 14.33a76.519 76.519 0 0 0 11.821 18.635c.871 1.01 1.811 2.109 1.902 3.428.16 2.388-2.523 4.037-4.915 4.197-2.713.18-5.365-.77-8.058-1.139-2.692-.37-5.825.04-7.437 2.228-2.242 3.028-.29 7.304 1.932 10.342a66.276 66.276 0 0 0 16.205 15.668c2.242 1.519 4.635 2.968 6.186 5.186 1.552 2.219 1.982 5.496.18 7.515-1.801 2.018-5.084 1.978-7.547.839-2.462-1.139-4.424-3.108-6.646-4.656-4.174-2.898-10.21-4.107-14.173-.94-2.603 2.079-3.704 5.636-3.514 8.963.19 3.328 1.492 6.486 2.983 9.473 5.185 10.432 12.882 19.735 22.631 26.131 9.74 6.395 19.389 9.922 31.01 8.823Z" stroke="#02000D" stroke-width=".75" stroke-miterlimit="10"/><path d="M208.078 380.293c-.39-10.812-2.392-36.493-4.304-48.813-.49-3.078-.971-6.116-1.451-9.114-.481-2.987-.961-5.955-1.612-8.823-1.271-5.746-2.942-11.181-4.684-16.298-1.742-5.116-3.594-9.902-5.345-14.379-1.762-4.466-3.493-8.603-5.225-12.3a122.353 122.353 0 0 0-9.489-16.868 119.38 119.38 0 0 0-3.023-4.306c-.35-.47-.621-.83-.821-1.1-.19-.249-.29-.359-.29-.359s.08.14.25.389c.19.27.451.65.781 1.129.681.99 1.692 2.449 2.933 4.357a128.24 128.24 0 0 1 9.319 16.907c1.711 3.708 3.413 7.834 5.164 12.311 1.742 4.477 3.564 9.263 5.295 14.379 1.732 5.106 3.384 10.532 4.645 16.258.64 2.858 1.111 5.806 1.591 8.803.481 2.998.961 6.036 1.452 9.113 1.912 12.311 3.923 37.972 4.334 48.754" fill="#02000D"/><path d="M200.601 313.463c.03.01.27-.459.671-1.339.4-.869.951-2.148 1.611-3.737 1.311-3.177 2.983-7.614 4.805-12.52 1.832-4.907 3.573-9.303 4.944-12.441a138.05 138.05 0 0 1 1.662-3.707c.4-.869.611-1.359.581-1.379-.03-.02-.301.44-.761 1.289-.461.839-1.081 2.088-1.812 3.647-1.471 3.108-3.273 7.505-5.105 12.411a5010.065 5010.065 0 0 1-4.664 12.56 418.466 418.466 0 0 0-1.452 3.798c-.34.899-.51 1.399-.48 1.418Z" fill="#02000D"/><path d="M159.512 294.468c0 .02.14.08.43.19.34.12.751.259 1.251.439 1.081.37 2.653.91 4.575 1.639 3.843 1.419 9.088 3.577 14.774 6.215 5.675 2.648 10.71 5.256 14.283 7.265 1.802.989 3.233 1.829 4.224 2.408.451.26.831.48 1.151.66.26.149.411.219.421.199.01-.02-.12-.109-.361-.289-.3-.2-.66-.45-1.101-.74a92.072 92.072 0 0 0-4.144-2.548c-3.543-2.088-8.558-4.756-14.253-7.414-5.696-2.638-10.971-4.747-14.864-6.086a90.373 90.373 0 0 0-4.635-1.488c-.51-.14-.931-.25-1.281-.35-.31-.09-.47-.12-.47-.1Zm47.715 71.036c.01.01.16-.14.42-.449.29-.35.671-.8 1.131-1.359.971-1.18 2.342-2.918 4.004-5.097 3.323-4.336 7.737-10.482 12.522-17.307 4.784-6.834 9.139-13 12.392-17.386 1.601-2.149 2.912-3.907 3.863-5.186.431-.58.781-1.05 1.051-1.409.241-.33.351-.5.341-.52-.01-.01-.161.14-.421.45-.29.349-.66.799-1.121 1.359a184.295 184.295 0 0 0-4.004 5.096c-3.333 4.337-7.737 10.472-12.522 17.317-4.784 6.835-9.138 12.99-12.391 17.387a4856.847 4856.847 0 0 0-3.864 5.186c-.43.579-.781 1.049-1.051 1.419-.25.309-.37.489-.35.499Z" fill="#02000D"/><path d="M154.588 332.609c-.01.01.17.14.511.37.4.25.901.569 1.531.969 1.392.869 3.303 2.059 5.646 3.517 4.764 2.978 11.29 7.165 18.487 11.812 7.207 4.646 13.763 8.793 18.578 11.691 2.402 1.449 4.364 2.608 5.735 3.377.651.36 1.171.66 1.582.879.36.2.56.29.57.28.01-.02-.17-.14-.52-.369-.391-.25-.901-.57-1.532-.97-1.391-.869-3.303-2.058-5.645-3.517-4.765-2.978-11.291-7.165-18.488-11.811-7.196-4.647-13.763-8.794-18.577-11.691-2.403-1.449-4.364-2.608-5.736-3.378-.65-.36-1.171-.659-1.581-.879-.361-.19-.551-.29-.561-.28Z" fill="#02000D"/><path d="M53.23 133.789h82.979s-7.337-13.33-28.697-11.391c-20.4 1.848-21.43-6.555-31.81-7.595-10.37-1.029-19.018 6.905-22.471 18.986Zm403.762-95.478h79.465s-7.026-12.77-27.476-10.912c-19.538 1.779-20.529-6.275-30.458-7.274-9.94-.99-18.218 6.615-21.531 18.186Z" fill="#EBEBEB"/><path d="M496.73 81.129h51.98s-4.595-8.354-17.977-7.135c-12.782 1.159-13.433-4.107-19.929-4.757-6.496-.649-11.911 4.327-14.074 11.892Z" fill="#E0E0E0"/><path d="M201.15 11.95h51.98s-4.595-8.353-17.977-7.134C222.37 5.976 221.72.71 215.224.06c-6.496-.65-11.912 4.317-14.074 11.89Z" fill="#F5F5F5"/><path d="M24.414 96.157h51.98s-4.595-8.353-17.978-7.134c-12.782 1.159-13.432-4.107-19.929-4.757-6.496-.65-11.9 4.317-14.073 11.891Z" fill="#E0E0E0"/><path d="M498.662 360.108c-.761-3.017 1.231-6.035 3.463-8.204 2.233-2.178 4.895-4.116 6.066-7.004 1.902-4.677-.58-10.752 2.633-14.639 1.891-2.288 5.265-3.038 6.946-5.486.881-1.279 1.171-2.868 1.522-4.377 1.791-7.734 5.715-14.958 11.22-20.684a38.627 38.627 0 0 1-4.474 19.975c-1.311 2.448-2.903 4.836-3.353 7.574-.721 4.447 1.742 9.053.62 13.42-1.281 4.996-6.926 8.304-7.226 13.45-.251 4.346 3.523 8.194 3.223 12.54-.13 1.849-1.001 3.568-1.972 5.146-3.403 5.576-8.378 9.403-15.885 9.233l-9.199.27 6.416-21.214Z" fill="#ECB000"/><path opacity=".3" d="M498.662 360.108c-.761-3.017 1.231-6.035 3.463-8.204 2.233-2.178 4.895-4.116 6.066-7.004 1.902-4.677-.58-10.752 2.633-14.639 1.891-2.288 5.265-3.038 6.946-5.486.881-1.279 1.171-2.868 1.522-4.377 1.791-7.734 5.715-14.958 11.22-20.684a38.627 38.627 0 0 1-4.474 19.975c-1.311 2.448-2.903 4.836-3.353 7.574-.721 4.447 1.742 9.053.62 13.42-1.281 4.996-6.926 8.304-7.226 13.45-.251 4.346 3.523 8.194 3.223 12.54-.13 1.849-1.001 3.568-1.972 5.146-3.403 5.576-8.378 9.403-15.885 9.233l-9.199.27 6.416-21.214Z" fill="#000"/><path d="M490.404 381.542s-.881.2-2.533-.07c-.821-.12-1.831-.35-2.983-.77-1.141-.419-2.442-1.029-3.673-2.038-.591-.53-1.191-1.169-1.501-2.028-.311-.85-.361-1.789-.421-2.748-.04-.96-.04-1.959-.2-2.968-.15-1.009-.541-2.009-1.111-2.958-1.071-1.908-2.863-3.717-3.433-6.305-.611-2.538-.15-5.286.3-8.044.44-2.748.871-5.746-.17-8.624-.971-2.877-2.973-5.475-3.964-8.723-.981-3.277-.5-6.785-.691-10.252-.09-1.739-.41-3.488-1.171-5.106-.73-1.629-1.761-3.168-2.552-4.877-1.612-3.467-1.882-7.384-2.302-11.231-.211-1.939-.411-3.897-.631-5.866-.21-1.988-.37-3.957-.991-5.875-.56-1.929-1.361-3.787-2.162-5.696-.39-.959-.811-1.909-1.051-2.968-.17-1.079-.22-2.098-.28-3.157-.09-2.109.01-4.237.28-6.356.26-2.118.661-4.216.901-6.335.01-.13.03-.25.04-.369l.05-.42.38.19c1.962.999 3.644 2.468 4.925 4.197 1.311 1.718 2.252 3.647 3.013 5.605 1.511 3.947 2.042 8.084 2.793 12.031.73 3.947 1.711 7.834 3.713 11.122 1.001 1.639 2.212 3.137 3.263 4.736 1.051 1.589 1.982 3.338 2.252 5.246.521 3.887-1.641 7.285-1.211 10.722.15 1.709.821 3.308 1.652 4.777.83 1.468 1.801 2.837 2.722 4.206.921 1.369 1.802 2.758 2.443 4.247a13.437 13.437 0 0 1 1.101 4.607c.21 3.097-.251 6.025-.04 8.803.17 2.778 1.131 5.296 2.222 7.554 1.101 2.269 2.322 4.317 3.353 6.296.52.989.991 1.958 1.381 2.927.411.97.611 1.959.791 2.908.29 1.909.25 3.677.04 5.236-.42 3.138-1.602 5.396-2.673 6.665-.24.34-.53.58-.75.8-.22.229-.431.389-.611.509-.32.29-.51.4-.51.4-.04-.05.76-.46 1.791-1.749 1.021-1.269 2.152-3.517 2.533-6.625.19-1.539.21-3.297-.09-5.166-.19-.929-.391-1.898-.801-2.838-.39-.949-.871-1.908-1.381-2.898-1.031-1.968-2.273-4.007-3.394-6.285-1.111-2.268-2.112-4.836-2.302-7.684-.23-2.828.22-5.776 0-8.803a13.03 13.03 0 0 0-1.081-4.457c-.63-1.439-1.491-2.798-2.412-4.167-.921-1.359-1.912-2.738-2.753-4.237-.851-1.489-1.561-3.157-1.721-4.966-.421-3.667 1.721-7.085 1.191-10.692-.26-1.788-1.131-3.457-2.172-5.016-1.041-1.569-2.262-3.068-3.283-4.756-2.072-3.388-3.063-7.345-3.804-11.302-.761-3.967-1.291-8.064-2.773-11.931-.74-1.928-1.671-3.807-2.932-5.466-1.242-1.669-2.843-3.077-4.715-4.027l.421-.23c-.01.12-.03.24-.04.37-.241 2.149-.641 4.247-.901 6.335a36.36 36.36 0 0 0-.281 6.256c.05 1.019.111 2.098.261 3.067.22.97.63 1.919 1.011 2.868.8 1.889 1.621 3.787 2.182 5.756.63 1.958.8 4.007 1.001 5.975.21 1.979.41 3.937.62 5.876.421 3.857.681 7.714 2.232 11.062.771 1.668 1.792 3.207 2.543 4.886.78 1.679 1.121 3.517 1.201 5.286.18 3.547-.3 7.005.64 10.142.931 3.128 2.923 5.746 3.924 8.714 1.071 2.997.601 6.095.15 8.833-.46 2.758-.921 5.446-.34 7.894.521 2.468 2.252 4.257 3.353 6.225.571.97.981 2.029 1.121 3.078.15 1.049.14 2.058.18 3.008.04.949.091 1.868.381 2.668.28.789.841 1.419 1.411 1.938 1.191.999 2.472 1.609 3.594 2.049a16.9 16.9 0 0 0 2.942.819c.811.15 1.442.18 1.872.19.4-.01.621 0 .621 0Z" fill="#263238"/><path d="M461.976 273.264c.01 0 .04.09.09.279.05.22.12.49.2.83.181.719.391 1.818.721 3.177.35 1.359 1.181 2.908 1.882 4.807a69.435 69.435 0 0 1 2.152 6.525c.691 2.448 1.291 5.176 1.922 8.084.65 2.908 1.301 6.035 2.892 8.983.741 1.499 1.582 3.008 2.253 4.666.68 1.659 1.041 3.458 1.291 5.276.42 3.638 1.071 7.335 1.922 11.112l5.074 21.234c1.602 6.505 3.043 12.371 4.254 17.317 1.182 4.896 2.142 8.883 2.823 11.691.31 1.349.561 2.408.741 3.188.07.339.13.609.18.829.04.19.05.29.04.29-.01 0-.04-.09-.1-.27-.06-.22-.14-.49-.23-.819-.211-.77-.491-1.819-.841-3.158-.721-2.798-1.742-6.765-3.003-11.641-1.251-4.936-2.733-10.792-4.384-17.287-1.582-6.535-3.303-13.71-5.125-21.244-.851-3.777-1.501-7.534-1.912-11.162-.24-1.798-.59-3.537-1.241-5.146-.641-1.608-1.471-3.117-2.212-4.626-1.601-3.008-2.252-6.216-2.883-9.113-.61-2.918-1.191-5.636-1.851-8.084a75.494 75.494 0 0 0-2.052-6.515c-.671-1.889-1.462-3.458-1.792-4.867-.31-1.399-.481-2.478-.621-3.217-.06-.34-.1-.62-.14-.84-.05-.199-.06-.299-.05-.299Z" fill="#263238"/><path d="M488.782 381.562c-5.986-3.597-7.647-14.419-5.105-20.914 2.543-6.495 6.957-12.421 7.678-19.356.55-5.336-1.172-10.821.11-16.028 1.721-7.024 8.628-12.44 8.598-19.675-.02-4.057-2.312-7.894-2.102-11.941.25-4.976 4.104-8.893 6.496-13.26 3.663-6.685 3.944-14.609 5.225-22.123 1.281-7.514 4.194-15.548 10.9-19.205.951 6.385 2.613 10.771 2.032 19.415-.21 3.108-3.853 9.033-4.384 15.838-.32 4.067-.541 8.144-.821 12.211-.26 3.957-.54 7.994-1.992 11.691-1.111 2.838-2.872 5.406-3.703 8.334-1.552 5.505.41 11.491-.851 17.077-1.071 4.726-4.374 8.783-5.075 13.589-.981 6.745 3.353 13.78 1.081 20.205-1.131 3.188-3.773 5.736-4.544 9.033-.591 2.558.02 5.266-.521 7.834-.86 4.117-8.798 7.555-13.022 7.275Z" fill="#ECB000"/><path d="M518.88 245.375c.01 0 0 .12-.03.36-.04.27-.08.609-.14 1.049-.14.919-.31 2.278-.631 4.027-.35 1.759-1.261 3.737-2.001 6.125a89.018 89.018 0 0 0-2.253 8.194c-.7 3.068-1.291 6.475-1.921 10.132-.641 3.638-1.302 7.645-3.143 11.452-.851 1.908-1.812 3.827-2.533 5.865-.741 2.029-1.081 4.217-1.301 6.475-.34 4.517-.961 9.223-1.842 13.95-1.892 9.453-3.693 18.446-5.335 26.64-1.731 8.154-3.283 15.508-4.594 21.693l-3.143 14.619c-.381 1.689-.671 3.018-.881 3.967l-.24 1.03c-.06.229-.09.349-.1.349-.01 0 .01-.12.04-.359.05-.27.11-.61.19-1.04.18-.949.44-2.288.781-3.987.71-3.497 1.721-8.493 2.962-14.659 1.272-6.195 2.793-13.549 4.465-21.723 1.621-8.194 3.413-17.187 5.285-26.63.87-4.736 1.501-9.373 1.841-13.91.221-2.258.581-4.516 1.352-6.595.74-2.078 1.711-4.006 2.562-5.895 1.832-3.747 2.492-7.664 3.153-11.312.641-3.657 1.261-7.064 1.992-10.142a86.917 86.917 0 0 1 2.342-8.204c.781-2.398 1.722-4.356 2.092-6.065.35-1.719.551-3.088.731-3.997.08-.43.15-.769.2-1.039.06-.25.09-.37.1-.37Z" fill="#263238"/><path d="M208.015 340.163c1.932 2.688 5.616 1.758 7.307.09 1.702-1.669 2.402-4.077 3.033-6.365 1.451-5.237 2.923-10.732 1.752-16.048-.351-1.589-.961-3.168-2.092-4.337-1.131-1.169-2.863-1.859-4.434-1.429-1.862.51-3.003 2.338-3.814 4.087a38.028 38.028 0 0 0-3.623 16.427c.02 2.648.36 5.416 1.871 7.575Zm7.259 13.659c3.093-1.629 6.756-1.878 10.21-1.339 1.861.29 3.793.82 5.074 2.199 1.272 1.379 1.542 3.827.1 5.036-.85.719-2.061.839-3.173.839-2.702-.01-5.705-.45-7.847 1.189-1.221.94-2.032 2.488-3.493 2.958-1.432.46-3.073-.37-3.844-1.669-.781-1.289-.821-2.918-.48-4.376-.01 0 .34-3.188 3.453-4.837Zm-12.443-9.712c2.042-2.468 2.402-6.036 1.452-9.093-.951-3.058-3.053-5.646-5.456-7.744a29.027 29.027 0 0 0-9.699-5.586c-1.401-.48-2.873-.85-4.344-.69-1.471.15-2.943.92-3.613 2.239-1.001 1.938 0 4.276 1.071 6.175a72.273 72.273 0 0 0 6.426 9.563c1.922 2.428 4.124 4.816 7.026 5.885 2.903 1.079 5.906.92 7.417-1.099" fill="#ECB000"/><path d="M208.286 381.052c.04 0 .09-.44.16-1.229l.3-3.368c.14-1.419.33-3.097.711-4.936.37-1.829.971-3.817 1.741-5.836.801-2.008 1.772-3.827 2.923-5.296 1.141-1.469 2.472-2.538 3.734-3.157 1.251-.63 2.382-.9 3.163-1.02.79-.089 1.231-.149 1.231-.189 0-.04-.441-.04-1.251-.01-.801.06-1.972.279-3.294.889-1.321.6-2.742 1.689-3.943 3.188-1.211 1.498-2.222 3.357-3.033 5.405-.781 2.049-1.371 4.057-1.722 5.936-.36 1.869-.51 3.567-.61 4.996a67.312 67.312 0 0 0-.13 3.388c-.031.799-.021 1.239.02 1.239Z" fill="#263238"/><path d="M208.486 378.464c.02 0 .03-.2.03-.57-.01-.43-.01-.969-.02-1.639-.02-1.419-.04-3.467.01-6.005.08-5.066.45-12.071 1.221-19.775.781-7.704 1.842-14.629 2.813-19.605.23-1.249.46-2.369.68-3.348.211-.989.391-1.838.561-2.518.15-.649.27-1.169.37-1.589.08-.369.11-.559.09-.569-.02 0-.08.18-.19.539-.12.41-.27.93-.46 1.569-.2.68-.411 1.529-.651 2.508-.25.979-.51 2.099-.761 3.348-1.071 4.966-2.192 11.911-2.972 19.625-.771 7.714-1.081 14.739-1.071 19.815-.01 2.538.07 4.596.15 6.015.05.66.09 1.199.12 1.629.04.38.07.57.08.57Z" fill="#263238"/><path d="M208.397 364.934c.03 0 .02-.609-.03-1.709-.07-1.099-.241-2.678-.571-4.616a62.684 62.684 0 0 0-1.571-6.725 60.116 60.116 0 0 0-2.903-7.944c-2.392-5.526-5.615-10.022-8.418-12.81-.661-.74-1.381-1.269-1.972-1.789-.3-.25-.571-.5-.841-.699-.27-.18-.53-.35-.76-.51-.921-.61-1.432-.939-1.452-.909-.08.109 2.052 1.339 4.765 4.156 2.692 2.818 5.835 7.285 8.207 12.761a63.863 63.863 0 0 1 2.913 7.874c.761 2.468 1.281 4.746 1.672 6.655.37 1.918.59 3.487.72 4.576.121 1.09.201 1.689.241 1.689Z" fill="#263238"/><path d="M438.455 102.163c-1.271-1.339-4.864-2.219-6.075-2.298-1.222-.08-4.535.429-5.796.829-1.251.4-2.082.899-2.082.899s.451-.649 1.592-1.199c1.141-.56 3.073-1.05 4.714-1.519 1.642-.47 1.992-1.369 2.082-1.888.09-.52-.57-1.55-1.171-2.159-.601-.61-1.952-1.968-2.302-2.588-.351-.62-.11-1.768.17-2.808.28-1.039.08-2.208-.18-2.877-.26-.67-1.241-1.38-2.212-1.62-.981-.24-3.404.09-5.255.98-1.852.88-3.434 2.038-5.225 3.807-1.792 1.769-3.213 3.368-4.244 5.536a38.268 38.268 0 0 0-1.892 4.836c-.12.39-.24 1.409-.3 1.999-.821-.25-1.582-.5-.901-.33.02-.3-.17-1.279-.09-1.849.14-.959.851-3.117 2.442-6.185 1.592-3.068 4.034-4.996 4.034-4.996s-.03-.45-.771-1.529c-.741-1.08-1.321-3.347-1.551-5.566-.231-2.218-2.022-3.137-3.053-3.417-1.041-.28-3.093 1.828-3.704 4.207-.61 2.388-.73 7.644-.3 10.752.37 2.647 1.892 6.754 2.332 7.914-.06-.03-.13-.06-.21-.08-.14-.04-.28-.04-.41-.03-.111-.3-.491-.07-.411.13-.04.02-.08.05-.12.079-.08-.139-.35.26-.31.35-.04.07-.08.15-.1.24a1.1 1.1 0 0 0 .77 1.349c.331.09.671.01.931-.18.15.44.381 1.039.881 1.459.641.55 2.473 1.389 3.063 1.799.591.409 1.662 1.389 2.502 2.318l1.232.05c1.311.669 3.493 1.669 5.815 2.288 3.704.979 9.479 1.489 11.861 1.139 2.383-.349 4.535-1.768 5.395-3.837.861-2.068.121-4.666-1.151-6.005Z" fill="#B7B7C9"/><path opacity=".3" d="m409.248 101.753.2.16c-.06-.01-.12-.01-.16-.01a.541.541 0 0 0-.04-.15Z" fill="#171751"/><path fill-rule="evenodd" clip-rule="evenodd" d="M407.435 101.064c.211-.21.441-.38.701-.53.06-.04.1-.03.17.02.621.51 1.251 1.009 1.872 1.519.571.459 1.141.929 1.722 1.399.63.509 1.271 1.029 1.911 1.539.611.489 1.212.989 1.822 1.478.451.37.911.74 1.361 1.1.411.339.831.669 1.242 1.009l1.541 1.239c.27.22.541.43.811.649.04.04.05.08.05.13l.24 2.259.21 1.948c.02.17.02.17-.14.15l-1.651-.21c-.651-.08-1.312-.16-1.962-.25-.21-.03-.421-.05-.621-.08a.178.178 0 0 1-.13-.089 280.44 280.44 0 0 0-1.662-2.129l-1.621-2.068-1.562-2.009c-.45-.579-.9-1.149-1.351-1.729-.41-.529-.831-1.059-1.241-1.588-.43-.56-.871-1.119-1.301-1.669l-.951-1.219c-.04-.06-.05-.1-.01-.16.14-.26.32-.5.55-.709Zm-3.753-1.349c-.11-.57-.13-1.12.03-1.65.14-.469.481-.709.951-.799.48-.09.981-.06 1.481.05.221.42.451.84.671 1.26.14.27.29.539.44.809.041.06.041.09-.03.13-.56.32-1 .759-1.341 1.309-.04.07-.07.07-.14.03-.52-.29-1.041-.58-1.571-.87-.171-.08-.331-.18-.491-.27Z" fill="#171751"/><path d="M236.223 166.235c-.321-.77-.871-.98-1.792-2.299-.931-1.319-.721-2.818-.641-4.266.071-1.449 2.193-2.579 3.684-3.708s4.054-1.109 4.054-1.109-.591-.3-1.622-.489c-1.031-.2-1.591-.03-3.493.229-1.902.26-3.664-.369-5.585-1.658-1.922-1.289-1.842-3.588-2.543-5.576-.7-1.989-2.542-2.668-3.323-4.397-.771-1.729-.41-3.727.941-5.346 1.351-1.619 7.127-1.079 10.77.75 3.634 1.828 9.719 6.545 11.871 9.133 1.272 1.529 2.523 3.317 3.324 4.536.1-.2.2-.369.29-.499-.07-.05-.14-.1-.21-.16a1.008 1.008 0 0 1 .05-1.429c.03-.03 1.761 1.119 1.381 1.479-.04.03-.07.06-.11.09.16.16.34.369.48.589.201-.929.461-2.068.551-2.508.16-.779 1.271-3.647 2.282-5.396 1.001-1.738 2.262-4.796 2.723-6.875.46-2.088 2.312-6.355 4.003-8.563 1.692-2.208 4.264-3.088 5.315-2.159 1.051.93.931 3.418.271 5.726-.651 2.308-.941 3.917-.691 6.365.24 2.449-.671 6.875-1.211 8.054-.551 1.179-3.774 3.128-4.635 3.358-.86.23-1.771.499-1.771.499s.25.26 1.131.11c.881-.16 1.952-.399 2.712-.3.761.09 1.882 1.24 2.213 2.838.34 1.599-.931 3.778-1.482 5.007-.55 1.229.19 1.828-.66 4.017-.861 2.188-1.812 3.027-1.812 3.027s-.601-.02-.931.29c-.33.31-.31 1.009-.31 1.009s-.431-.359-.711-.28c-.28.08-.46.56-.46.56s-.311-.33-.681-.3c-.37.03-.39.59-.39.59s-.291-.45-.441-.57c-.16-.12-.52.26-.52.26s-.351.24-1.161-.569c-.801-.81-1.362-2.838-1.852-4.887-.27-1.129-.731-2.098-1.081-2.738-.05.31-.11.56-.17.74-.211.689.06 1.549.14 2.058.08.51.53 1.429.56 2.558.03 1.129-.41 1.949-.871 1.979-.46.03-.79-.7-.88-1.319-.09-.63.07-2.169.22-3.248.11-.769-.16-1.768-.481-2.558a18.874 18.874 0 0 0-1.551 3.827c-.791 2.838-1.181 4.227-2.502 5.916-1.332 1.688-2.283 1.149-2.283 1.149s-.58-.48-1.451-.12c-.871.36-.821.989-.821.989s-.49-.569-.951-.629c-.46-.06-.851.479-.851.479s-.49-.519-.99-.629c-.501-.11-.771.27-.771.27s-.28-.54-.871-.93c-.591-.389-.941-.19-.941-.19s-.17.29-1.181-.689c-1.011-.999-.961-1.319-1.281-2.088Z" fill="#B7B7C9"/><path fill-rule="evenodd" clip-rule="evenodd" d="M251.718 146.43a4.83 4.83 0 0 1 1.201-.02c.1.01.141.05.171.16.27 1.069.55 2.128.83 3.197l.751 2.938.841 3.247c.27 1.04.53 2.069.791 3.108l.6 2.328c.18.71.36 1.409.541 2.119.23.869.45 1.748.68 2.618.12.459.241.919.361 1.369.02.08-.01.12-.05.18a228.4 228.4 0 0 0-1.582 2.688c-.45.769-.911 1.548-1.361 2.318-.12.2-.12.21-.28.05-.551-.52-1.102-1.049-1.642-1.569-.651-.62-1.301-1.249-1.962-1.869-.21-.199-.41-.399-.62-.589-.061-.06-.071-.12-.081-.21-.03-1.229-.05-2.458-.09-3.697-.03-1.199-.07-2.398-.09-3.607-.03-1.16-.05-2.319-.07-3.478-.02-.999-.05-1.998-.08-3.008-.02-.919-.04-1.838-.07-2.757-.02-.97-.04-1.939-.07-2.908l-.06-2.119c0-.1.03-.15.11-.18.41-.149.811-.259 1.231-.309Zm-3.034-4.537c.34-.709.77-1.339 1.381-1.799.54-.399 1.111-.389 1.692-.11.61.29 1.131.73 1.581 1.259-.1.64-.19 1.29-.29 1.929l-.18 1.249c-.01.1-.04.13-.141.12-.88-.1-1.731.02-2.552.35-.1.04-.13.01-.17-.08-.34-.75-.681-1.489-1.011-2.239-.11-.219-.21-.449-.31-.679Z" fill="#171751"/><path d="M155.167 187.289c-.3-.22-2.192.309-3.984 1.419-1.792 1.109-5.295 4.026-6.496 5.266-1.201 1.239-3.023 3.187-4.244 4.366-1.211 1.179-1.922 2.139-2.352 2.428-.02.01-.04.03-.07.05-.01-.12-.01-.199-.01-.199s.33-.12.41-.35c.04-.12.06-.3.03-.46-.45 0-.761-.21-.951-.49-.03.01-.06.01-.08.03-.17.08-.34.35-.36.52-.02.17.08.38.08.38s-.15.05-.29.12c.05-.53.12-1.429.13-2.408.02-1.559.08-5.037-.391-7.395-.47-2.358-2.052-5.796-2.782-6.785-.731-.989-1.201-1.429-1.572-1.399-.38.03-1.061 1.04-1.371 1.919-.32.879-.541 2.328-1.271 3.357-.721 1.03-1.832 2.039-2.122 2.518-.291.48-.211 1.229.17 1.649.38.42 1.321.86 1.952 1.549.63.689.78 1.329.78 1.329s-1.551-1.049-2.482-.969c-.931.09-1.932.25-2.732.719-.801.46-.791.63-.791.63s.22.339-.22.849c-.451.51-.881.819-.941 1.229-.07.41.12 1.019 0 1.289s-.511.55-.451 1.299c.06.75.25 1.679.441 2.368.2.68.43 1.419.43 1.419s.17.02.22.25c.05.22 0 .51 0 .51s.291.02.471.419c.18.4.11.86.11.86s.34-.16.51.1c.17.25.18.679.18.679s.291-.28.521-.14c.24.14.37.64.37.64s.231-.22.401-.12c.17.11.27.549.27.549s.5-.299.771-.239c.27.05.4.499.4.499s.831.08 1.672-.659c.84-.74 2.292-1.789 3.012-2.069.471-.19 1.392-.489 1.972-.679-.1.23-.18.43-.25.559-.21.42-.841.92-1.041 1.03-.2.12-.51.499-.771.989-.25.49-.49.889-.57 1.059 0 0-.08.15-.08.23 0 .08.11.25.11.25.27.22.971-.43 1.241-.85.26-.419.741-.569.941-1.149.2-.579.55-.889.691-1.139.06-.11.29-.31.59-.579-.13.599-.39 1.648-.801 2.508-.62 1.279-1.191 2.748-1.191 2.748s.13.08.15.189c.02.11-.04.36-.04.36s.1-.07.241-.02c.14.04.17.32.17.32s.23-.2.3-.17c.07.04.13.29.13.29s.15-.27.421-.37c.27-.09.64.04.64.04s.09-.35.31-.43c.221-.09.831-.1.831-.1s2.132-1.648 2.843-2.208c.701-.559 1.862-1.679 2.763-2.688.89-1.009 1.901-2.218 2.362-2.988.45-.769.741-1.908.62-2.278-.13-.36-.88-.629-.88-.629s.61-.43 1.441-.44c.831 0 1.822-.25 2.272-1.109.461-.85 1.542-2.538 2.442-3.717.901-1.179 2.933-3.718 3.704-4.477.741-.769 1.371-1.869 1.071-2.078Z" fill="#B7B7C9"/><path fill-rule="evenodd" clip-rule="evenodd" d="M138.02 199.13c.21.14.4.31.571.499.04.05.04.08.01.14-.331.62-.651 1.229-.981 1.849-.301.57-.601 1.129-.901 1.699-.331.629-.661 1.249-.991 1.878-.32.6-.641 1.199-.961 1.789-.24.45-.471.899-.711 1.349-.22.41-.43.819-.65 1.229-.271.51-.531 1.009-.801 1.519-.14.27-.28.529-.421.799-.02.04-.06.05-.1.06-.63.19-1.261.39-1.891.58-.541.17-1.081.339-1.632.509-.14.04-.14.05-.16-.09-.03-.479-.07-.959-.1-1.438l-.12-1.709c-.01-.18-.02-.36-.04-.54 0-.05.02-.09.05-.13.51-.589 1.031-1.179 1.541-1.768l1.492-1.729c.48-.56.97-1.109 1.451-1.659.42-.479.831-.959 1.251-1.439.38-.439.771-.879 1.151-1.319l1.211-1.389c.291-.339.591-.679.881-1.019.04-.05.08-.06.13-.04.261.09.501.21.721.37Zm.511-3.418c.46-.19.931-.299 1.411-.259.421.039.691.289.841.669.16.4.22.819.2 1.269l-.961.779c-.21.17-.41.34-.62.51-.05.04-.07.05-.12 0a3.264 3.264 0 0 0-1.342-.919c-.06-.02-.07-.05-.05-.11l.481-1.479c.06-.16.11-.31.16-.46Z" fill="#171751"/><path d="M467.674 216.147c-.11-.55-.41-1.089-.41-1.089s.49-.73.6-1.27c.12-.529.06-1.249.06-1.249s.631-.799.851-1.448c.22-.65.14-1.02.14-1.02s.641-.449 1.372-.939c.73-.5 1.421-1.499 2.222-2.228.81-.74 2.582-1.219 3.683-1.159 1.091.07 2.352 1.848 2.352 1.848s-.73-1.409-1.011-2.498c-.28-1.089 0-2.228.641-3.118.651-.889 2.342-1.968 3.183-2.837.841-.87 1.642-2.908 2.572-4.267.931-1.369 3.324-2.448 3.904-2.728.581-.28 1.472.37 1.572 1.778.09 1.409-.14 5.436-.991 8.304-.851 2.878-3.063 5.766-4.194 7.904-.641 1.209-.831 2.049-.881 2.558.15-.17.29-.299.43-.389-.13.569-.04 1.249.06 1.878-.52.37-1.111.75-1.491 1.089-.601.54-.941 1.209-1.632 1.609-.69.4-1.341.83-1.781 1.529l-.15.24c-.641-.01-1.262-.01-1.892.11.1-.13.22-.26.35-.39-.11 0-.23-.01-.36-.01-.641-.03-1.932.2-3.293.859-1.362.66-2.823 1.14-3.874 1.16-1.051.02-1.341-.81-1.341-.81s.24-.559-.11-1.189a5.086 5.086 0 0 0-.751-1.029s.28-.65.17-1.199Z" fill="#B7B7C9"/><path d="M481.427 197.771c-.31.459-.71.849-1.101 1.199-.38.35-1.011.809-1.541 1.249-.531.44-.841.759-1.191 1.209-.351.45-.691 1.309-.751 1.919-.05.609.04 1.029.19 1.558.14.53.371 1.04.371 1.04s-.451-.47-1.011-.78c-.561-.31-1.352-.24-2.152-.08-.791.16-1.222.41-1.222.41s-.33-.06-1.051-.769c-.72-.71-1.041-1.509-.81-2.568.23-1.06 1.711-1.939 3.203-3.188 1.501-1.259 1.171-2.238 1.891-3.248.721-1.009 2.263-1.249 2.943-1.678.681-.42 1.652-.05 2.072.659.431.71.471 2.318.471 2.318s-.01.29-.311.75Zm-16.866 18.106c-.23-.63-.921-1.189-.921-1.189s.29-.09.27-.84c-.03-.739-.32-1.089-.32-1.089s.29-.269.41-.799-.32-1.049-.32-1.049.47-.46.671-.9c.21-.439.01-.909.01-.909s.12-.44.45-1.049c.33-.61 1.231-.72 1.762-1.139.53-.42.62-1 1.161-1.319.55-.32 1.781-.06 2.622-.08.831-.01 1.722.649 1.722.649s-.11.15-.39.37c-.271.22-.631.66-.961 1.089-.331.43-1.021.84-1.452 1.149-.43.32-.951.68-.951.68s.01.669-.29 1.409c-.3.739-.711 1.059-.711 1.059s.08.629-.1 1.409c-.18.779-.61 1.229-.61 1.229s.32.589.43 1.179c.11.59-.18 1.139-.18 1.139s.2.24.32.36c.11.12.381.49.541.839.16.36.01.96.01.96s-.731-.57-1.061-.78c-.331-.21-.891-.15-1.432-.41-.54-.259-.52-.779-.52-.779s.07-.56-.16-1.189Z" fill="#B7B7C9"/><path fill-rule="evenodd" clip-rule="evenodd" d="M486.512 209.232c-.21-.21-.45-.39-.711-.54-.06-.04-.11-.03-.17.02l-1.902 1.539c-.58.47-1.161.949-1.741 1.419-.641.52-1.291 1.039-1.932 1.559-.611.499-1.231.999-1.842 1.499-.46.369-.921.749-1.381 1.119l-1.261 1.019-1.562 1.259c-.27.22-.54.44-.821.66-.05.039-.05.079-.05.129l-.24 2.289c-.07.659-.14 1.319-.22 1.978-.02.17-.02.18.14.16l1.672-.21c.66-.08 1.321-.17 1.992-.25.21-.03.42-.05.63-.08.06-.01.1-.039.14-.089l1.682-2.159 1.652-2.098c.53-.68 1.05-1.359 1.581-2.039.46-.589.921-1.169 1.371-1.748l1.261-1.619c.441-.57.881-1.129 1.322-1.699.32-.41.64-.819.971-1.229.04-.06.05-.1.01-.16a3.494 3.494 0 0 0-.591-.729Zm3.814-1.369c.11-.57.14-1.139-.03-1.679-.14-.48-.49-.719-.961-.809-.49-.09-.991-.06-1.501.05-.231.429-.451.849-.681 1.279-.15.279-.29.549-.44.819-.04.07-.04.1.03.14a3.77 3.77 0 0 1 1.361 1.329c.04.07.07.07.14.03.531-.3 1.061-.59 1.592-.879.16-.09.32-.18.49-.28Z" fill="#171751"/></svg>
