<svg width="676" height="384" viewBox="0 0 676 384" fill="none" xmlns="http://www.w3.org/2000/svg">
<path d="M100.135 380.603V332.359H0V266.239L123.537 109.118H174.165V266.249H208.437V332.369H174.165V380.613H100.135V380.603ZM72.859 266.239H108.723V219.554L72.859 266.239Z" fill="#E0E0E0"/>
<path d="M445.361 217.246C445.361 234.343 442.758 250.101 437.563 264.5C432.358 278.869 425.162 291.31 415.943 301.822C406.724 312.334 395.804 320.498 383.222 326.323C370.6 332.179 356.907 335.087 342.093 335.087C327.279 335.087 313.586 332.179 301.004 326.323C288.412 320.498 277.512 312.334 268.283 301.822C259.054 291.31 251.858 278.869 246.663 264.5C241.458 250.101 238.865 234.333 238.865 217.246C238.865 200.119 241.468 184.361 246.663 169.991C251.868 155.592 259.064 143.152 268.283 132.64C277.502 122.128 288.422 113.904 301.004 107.948C313.596 101.963 327.289 98.9951 342.093 98.9951C356.897 98.9951 370.6 101.973 383.222 107.948C395.814 113.904 406.714 122.128 415.943 132.64C425.172 143.152 432.368 155.592 437.563 169.991C442.758 184.351 445.361 200.119 445.361 217.246ZM370.53 217.246C370.53 202.207 367.867 189.996 362.572 180.683C357.247 171.35 350.401 166.664 342.093 166.664C333.275 166.664 326.208 171.35 320.883 180.683C315.558 189.986 312.895 202.207 312.895 217.246C312.895 232.284 315.558 244.405 320.883 253.618C326.208 262.801 333.285 267.418 342.093 267.418C350.401 267.418 357.247 262.801 362.572 253.618C367.867 244.405 370.53 232.274 370.53 217.246Z" fill="#E0E0E0"/>
<path d="M567.687 380.603V332.359H467.562V266.239L591.089 109.118H641.727V266.249H676V332.369H641.727V380.613H567.687V380.603ZM540.421 266.239H576.285V219.554L540.421 266.239Z" fill="#E0E0E0"/>
<path d="M367.827 189.547C367.827 189.517 367.967 189.547 368.107 189.397C368.257 189.267 368.257 188.937 367.947 188.747C367.677 188.577 367.156 188.617 366.716 188.787C366.495 188.877 366.305 189.037 366.255 189.247C366.195 189.457 366.275 189.707 366.425 189.946C367.116 190.926 367.857 191.785 368.577 192.075C369.288 192.405 369.809 192.265 369.809 192.335C369.839 192.375 369.298 192.624 368.467 192.335C368.067 192.195 367.626 191.915 367.226 191.525C366.826 191.125 366.455 190.696 366.085 190.146C365.915 189.866 365.775 189.507 365.885 189.137C365.985 188.767 366.305 188.557 366.575 188.448C366.856 188.338 367.126 188.308 367.386 188.308C367.646 188.308 367.907 188.358 368.107 188.507C368.297 188.647 368.417 188.857 368.417 189.057C368.427 189.267 368.307 189.417 368.207 189.487C367.967 189.677 367.807 189.567 367.827 189.547Z" fill="#02000D"/>
<path d="M306.78 275.811C306.659 276.111 306.429 276.331 306.159 276.441C305.919 276.541 305.649 276.561 305.388 276.481L304.988 276.361C304.658 276.261 304.407 276.021 304.277 275.721C304.167 275.462 304.147 275.152 304.267 274.862L338.41 185.969L341.192 187.078L306.78 275.811Z" fill="#ECB000"/>
<path opacity="0.5" d="M305.699 275.812L340.112 187.069L338.26 186.329L338.4 185.959L341.183 187.069L306.77 275.812C306.65 276.111 306.42 276.331 306.149 276.441C305.909 276.541 305.639 276.561 305.379 276.481L305.148 276.411C305.399 276.291 305.599 276.081 305.699 275.812Z" fill="#ECB000"/>
<path d="M354.014 154.104L353.924 154.234C359.68 160.05 357.277 166.964 354.084 174.149C350.701 181.733 343.204 185.45 343.124 185.49L342.924 185.59L343.144 185.64C343.254 185.67 354.595 188.248 362.672 182.912C364.334 182.053 366.636 182.283 368.858 182.493C372.182 182.812 375.625 183.152 376.926 179.825C378.387 175.408 374.654 173.799 371.04 172.24C369.369 171.521 367.637 170.771 366.466 169.762C364.354 167.934 362.723 165.186 361.151 162.528C359.149 159.15 357.077 155.653 354.014 154.104ZM354.395 154.504C357.167 156.142 359.119 159.43 361.011 162.618C362.592 165.286 364.234 168.053 366.366 169.892C367.557 170.921 369.299 171.671 370.98 172.4C373.042 173.29 375.044 174.149 376.165 175.478C377.056 176.537 377.396 177.886 376.766 179.775C375.505 182.982 372.282 182.672 368.858 182.343C366.606 182.123 364.284 181.903 362.572 182.782C355.165 187.679 344.996 185.87 343.384 185.54C344.615 184.891 351.132 181.164 354.215 174.219C355.786 170.691 357.267 166.944 357.508 163.407C357.758 159.95 356.737 157.032 354.395 154.504Z" fill="#494949"/>
<path d="M370.21 171.89L370.14 171.86L370.1 171.93C368.618 174.708 366.987 176.017 365.265 177.416C363.303 179.005 361.271 180.644 359.139 184.571L359.039 184.761L359.249 184.681C360.19 184.311 361.081 183.881 361.902 183.402L361.912 183.392L361.922 183.382C363.413 181.573 364.875 180.424 366.286 179.315C368.378 177.676 370.36 176.127 371.831 172.69L371.861 172.62L371.791 172.59C371.541 172.48 371.291 172.37 371.04 172.27C370.77 172.13 370.49 172.01 370.21 171.89ZM370.22 172.07C370.47 172.18 370.73 172.29 370.98 172.4C371.211 172.5 371.431 172.59 371.661 172.69C370.21 176.037 368.258 177.556 366.196 179.175C364.774 180.284 363.303 181.433 361.812 183.262C361.061 183.701 360.25 184.101 359.399 184.441C361.471 180.684 363.453 179.085 365.375 177.536C367.097 176.137 368.728 174.828 370.22 172.07Z" fill="#494949"/>
<path d="M366.797 170.031L366.727 169.981L366.677 170.051C365.395 171.81 364.124 172.949 362.783 174.138C360.231 176.417 357.588 178.765 354.906 185.75L354.855 185.879L354.996 185.849C355.766 185.71 356.537 185.54 357.268 185.33L357.308 185.32L357.318 185.28C359.16 180.254 361.312 178.315 363.594 176.257C365.115 174.888 366.687 173.469 368.278 171.061L368.328 170.991L368.248 170.951C367.678 170.641 367.197 170.341 366.797 170.031ZM366.767 170.211C367.147 170.491 367.577 170.771 368.098 171.051C366.537 173.399 364.985 174.798 363.494 176.147C361.201 178.205 359.039 180.154 357.188 185.19C356.517 185.38 355.826 185.54 355.116 185.67C357.768 178.825 360.381 176.507 362.903 174.258C364.174 173.119 365.496 171.95 366.767 170.211Z" fill="#494949"/>
<path d="M376.866 176.257L376.796 176.107L376.726 176.257C375.895 177.986 374.223 180.484 370.97 182.522L370.75 182.662L371.01 182.672C373.463 182.792 375.875 182.532 376.936 179.824C377.386 178.445 377.366 177.286 376.866 176.257ZM376.786 176.487C377.196 177.436 377.186 178.515 376.776 179.774C375.795 182.282 373.563 182.612 371.271 182.522C374.313 180.554 375.945 178.185 376.786 176.487Z" fill="#494949"/>
<path d="M373.753 173.499L373.673 173.459L373.643 173.549C372.883 175.527 370.69 179.295 364.455 182.242L363.994 182.462L364.505 182.392C365.576 182.252 366.777 182.322 367.798 182.412H367.818L367.838 182.402C372.712 180.034 374.804 176.627 375.615 174.798L375.635 174.738L375.585 174.698C375.105 174.288 374.504 173.899 373.753 173.499ZM373.753 173.679C374.434 174.049 374.985 174.408 375.435 174.778C374.614 176.597 372.542 179.914 367.778 182.232C366.887 182.152 365.886 182.092 364.925 182.172C370.821 179.275 372.983 175.657 373.753 173.679Z" fill="#494949"/>
<path d="M343.124 185.49L342.924 185.59L343.144 185.64C343.144 185.64 343.604 185.75 344.365 185.87L344.435 185.88L344.455 185.81C344.565 185.44 344.675 185.07 344.806 184.681L344.876 184.471L344.685 184.591C343.745 185.19 343.134 185.49 343.124 185.49ZM343.394 185.53C343.624 185.41 344.045 185.18 344.585 184.84C344.495 185.13 344.405 185.41 344.325 185.7C343.905 185.63 343.584 185.57 343.394 185.53Z" fill="#494949"/>
<path d="M364.195 167.264L364.125 167.174L364.065 167.264C362.864 168.962 361.472 170.252 360.011 171.61C356.888 174.498 353.345 177.786 350.692 186.189L350.662 186.299H350.772C351.453 186.279 352.134 186.239 352.794 186.169H352.844L352.864 186.12C355.457 178.545 358.82 175.428 361.793 172.68C363.104 171.471 364.345 170.321 365.456 168.873L365.496 168.823L365.446 168.773C365.016 168.313 364.615 167.823 364.195 167.264ZM364.125 167.444C364.515 167.953 364.886 168.403 365.266 168.823C364.175 170.232 362.954 171.361 361.663 172.55C358.69 175.308 355.317 178.425 352.714 186C352.114 186.06 351.493 186.1 350.862 186.12C353.495 177.836 357.008 174.588 360.101 171.72C361.562 170.381 362.934 169.112 364.125 167.444Z" fill="#494949"/>
<path d="M359.77 160.239L359.7 160.129L359.63 160.239C359.01 161.248 358.279 162.227 357.388 163.207L357.368 163.227V163.257C357.298 164.496 357.068 165.805 356.677 167.254L356.607 167.533L356.818 167.343C358.529 165.745 359.911 164.306 361.092 162.497L361.122 162.457L361.092 162.417C360.621 161.628 360.211 160.928 359.77 160.239ZM359.7 160.429C360.101 161.078 360.491 161.728 360.911 162.447C359.8 164.146 358.489 165.525 356.898 167.024C357.248 165.675 357.458 164.456 357.518 163.297C358.389 162.337 359.1 161.408 359.7 160.429Z" fill="#494949"/>
<path d="M362.062 164.056L361.991 163.946L361.921 164.056C360.44 166.275 358.708 167.863 356.877 169.542C356.416 169.962 355.946 170.391 355.475 170.841L355.455 170.871C355.075 171.85 354.625 172.929 354.074 174.159L354.144 174.189L354.074 174.159C352.302 178.136 349.4 181.013 347.278 182.732L347.258 182.742L347.248 182.762C346.817 183.781 346.407 184.87 346.016 186.01L345.986 186.11L346.086 186.12C346.757 186.189 347.448 186.249 348.128 186.279H348.188L348.208 186.219C351.411 177.256 355.325 173.669 358.778 170.501C360.35 169.062 361.841 167.693 363.173 165.935L363.203 165.885L363.173 165.835C362.842 165.305 362.482 164.746 362.062 164.056ZM351.592 178.585C350.37 180.594 349.189 183.032 348.088 186.1C347.468 186.07 346.837 186.02 346.217 185.96C346.597 184.871 346.997 183.821 347.408 182.842C348.659 181.823 350.18 180.394 351.592 178.585ZM361.991 164.246C362.372 164.866 362.702 165.395 363.022 165.875C361.711 167.604 360.24 168.943 358.688 170.371C356.947 171.97 355.095 173.669 353.273 176.107C353.624 175.508 353.944 174.878 354.234 174.219C354.785 172.989 355.235 171.92 355.615 170.941C356.086 170.501 356.546 170.072 357.007 169.652C358.798 167.993 360.51 166.424 361.991 164.246Z" fill="#494949"/>
<path d="M355.846 155.333L355.736 155.243L355.716 155.383C355.666 155.672 355.635 155.972 355.605 156.262V156.292L355.615 156.312C357.267 158.85 357.758 161.798 357.117 165.325V165.345L357.127 165.365C357.998 167.803 359.239 170.441 360.82 173.219C362.562 176.297 363.883 179.354 364.734 182.282L364.754 182.342L364.824 182.332C365.385 182.282 366.025 182.272 366.776 182.312L366.886 182.322L366.856 182.212C366.005 179.145 364.644 175.947 362.812 172.719C359.359 166.654 357.597 161.408 357.577 157.131V157.101L357.557 157.081C356.977 156.402 356.426 155.832 355.846 155.333ZM355.846 155.552C356.376 156.012 356.887 156.542 357.407 157.171C357.437 161.468 359.199 166.734 362.662 172.809C364.464 175.987 365.805 179.135 366.656 182.162C365.975 182.132 365.385 182.132 364.854 182.182C363.993 179.255 362.682 176.217 360.941 173.149C359.369 170.391 358.138 167.763 357.267 165.345C357.908 161.798 357.417 158.82 355.756 156.262C355.786 156.022 355.816 155.792 355.846 155.552Z" fill="#494949"/>
<path d="M367.046 170.221L366.766 170.021L366.926 170.321C367.196 170.821 367.456 171.291 367.727 171.77C369.829 175.487 371.3 179.145 372.111 182.632L372.131 182.692H372.201C372.701 182.682 373.152 182.632 373.562 182.562L373.642 182.552L373.622 182.472C372.921 178.985 371.54 175.337 369.528 171.61L369.518 171.59L369.498 171.58C368.427 171.071 367.676 170.661 367.046 170.221ZM367.236 170.541C367.807 170.921 368.497 171.281 369.398 171.7C371.38 175.367 372.741 178.975 373.442 182.412C373.082 182.472 372.691 182.512 372.251 182.532C371.44 179.045 369.959 175.397 367.867 171.69C367.656 171.311 367.446 170.931 367.236 170.541Z" fill="#494949"/>
<path d="M358.98 159.01L358.77 158.7L358.83 159.06C359.44 162.767 361.122 167.054 363.824 171.82C365.866 175.428 367.308 178.975 368.128 182.372L368.138 182.432L368.199 182.442C368.409 182.462 368.629 182.482 368.839 182.502C369.29 182.542 369.75 182.592 370.2 182.622L370.311 182.632L370.28 182.522C369.45 179.165 368.008 175.657 365.996 172.1C364.545 169.542 363.374 167.104 362.523 164.836C362.053 164.076 361.582 163.287 361.142 162.537C360.461 161.358 359.73 160.129 358.98 159.01ZM359.06 159.42C359.74 160.449 360.391 161.548 361.022 162.617C361.472 163.377 361.933 164.156 362.403 164.905C363.254 167.164 364.425 169.622 365.886 172.18C367.868 175.687 369.3 179.145 370.13 182.452C369.72 182.422 369.29 182.382 368.879 182.342C368.679 182.322 368.489 182.302 368.289 182.282C367.458 178.885 366.006 175.348 363.974 171.75C361.362 167.164 359.71 163.027 359.06 159.42Z" fill="#494949"/>
<path d="M371.911 172.629L371.701 172.54L371.811 172.739C373.413 175.817 374.584 178.865 375.275 181.793L375.305 181.902L375.405 181.833C376.065 181.383 376.556 180.753 376.896 179.914L376.906 179.884L376.896 179.854C376.356 177.965 375.615 176.017 374.694 174.058L374.684 174.038L374.664 174.028C373.813 173.479 372.792 173.009 371.911 172.629ZM372.061 172.869C372.872 173.229 373.783 173.659 374.564 174.148C375.465 176.087 376.195 178.005 376.736 179.874C376.426 180.633 375.985 181.203 375.405 181.633C374.714 178.795 373.593 175.847 372.061 172.869Z" fill="#494949"/>
<path d="M354.014 154.104L353.924 154.234C354.584 154.893 355.155 155.603 355.615 156.322L355.746 156.522L355.766 156.292C355.786 156.003 355.826 155.713 355.866 155.423L355.876 155.383L355.846 155.353C355.245 154.833 354.645 154.424 354.014 154.104ZM354.394 154.504C354.835 154.764 355.265 155.073 355.706 155.433C355.675 155.633 355.645 155.843 355.625 156.043C355.265 155.513 354.855 154.993 354.394 154.504Z" fill="#300078"/>
<path d="M353.303 175.967L353.233 175.837L353.163 175.967C352.813 176.576 352.433 177.176 352.022 177.745L351.992 177.785L352.012 177.825C353.343 180.533 354.344 183.211 354.965 185.779L354.985 185.849L355.055 185.839C355.686 185.719 356.316 185.58 356.917 185.43L356.997 185.41L356.977 185.33C356.246 182.312 355.005 179.164 353.303 175.967ZM353.223 176.167C354.875 179.284 356.076 182.352 356.797 185.29C356.246 185.43 355.676 185.56 355.105 185.669C354.475 183.121 353.494 180.473 352.172 177.795C352.553 177.266 352.903 176.716 353.223 176.167Z" fill="#494949"/>
<path d="M350.981 179.275L350.931 179.155L350.851 179.255C350.511 179.654 350.151 180.054 349.78 180.444L349.74 180.484L349.76 180.534C350.581 182.442 351.242 184.341 351.702 186.179L351.722 186.249H351.792C352.253 186.219 352.713 186.179 353.163 186.13L353.254 186.12L353.234 186.03C352.743 183.841 351.982 181.563 350.981 179.275ZM350.881 179.455C351.842 181.663 352.573 183.851 353.043 185.97C352.643 186.01 352.243 186.05 351.832 186.07C351.372 184.261 350.731 182.392 349.92 180.514C350.261 180.174 350.581 179.814 350.881 179.455Z" fill="#494949"/>
<path d="M346.878 183.042L346.828 183.082L346.848 183.132C347.208 184.161 347.519 185.19 347.779 186.179L347.789 186.239H347.849C348.51 186.279 349.18 186.299 349.821 186.289H349.921L349.891 186.189C349.521 184.77 349.03 183.311 348.44 181.853L348.4 181.743L348.31 181.823C347.869 182.252 347.379 182.662 346.878 183.042ZM347.028 183.132C347.479 182.782 347.929 182.402 348.36 182.022C348.91 183.401 349.371 184.79 349.731 186.139C349.14 186.139 348.53 186.119 347.929 186.089C347.679 185.12 347.379 184.131 347.028 183.132Z" fill="#494949"/>
<path d="M356.546 168.203L356.456 168.013L356.396 168.213C356.206 168.843 355.975 169.512 355.715 170.212L355.705 170.241L355.725 170.271C356.286 171.441 356.926 172.64 357.607 173.849C359.449 177.106 360.81 180.324 361.661 183.422L361.691 183.521L361.781 183.472C362.091 183.292 362.391 183.102 362.672 182.922C362.772 182.872 362.882 182.822 363.002 182.772L363.072 182.742L363.052 182.672C362.201 179.485 360.81 176.157 358.908 172.79C358.007 171.221 357.217 169.672 356.546 168.203ZM356.486 168.463C357.136 169.882 357.907 171.361 358.758 172.87C360.64 176.197 362.021 179.485 362.872 182.642C362.772 182.682 362.672 182.732 362.582 182.782C362.321 182.952 362.061 183.122 361.781 183.282C360.93 180.214 359.569 177.016 357.737 173.779C357.056 172.59 356.436 171.401 355.875 170.241C356.105 169.622 356.306 169.022 356.486 168.463Z" fill="#494949"/>
<path d="M354.946 172.479L354.866 172.33L354.796 172.489C354.575 173.019 354.335 173.579 354.075 174.148C354.055 174.198 354.025 174.258 354.005 174.308L353.965 174.398L353.985 174.438C355.977 178.055 357.368 181.603 358.129 184.99L358.149 185.08L358.229 185.05C358.839 184.85 359.45 184.61 360.031 184.351L360.091 184.321L360.071 184.251C359.23 181.003 357.819 177.616 355.877 174.178C355.566 173.629 355.256 173.049 354.946 172.479ZM354.886 172.709C355.166 173.239 355.456 173.758 355.747 174.268C357.668 177.666 359.07 181.013 359.911 184.231C359.38 184.46 358.829 184.68 358.269 184.86C357.508 181.493 356.117 177.975 354.155 174.388L354.165 174.368C354.185 174.318 354.215 174.258 354.235 174.208C354.465 173.689 354.686 173.189 354.886 172.709Z" fill="#494949"/>
<path d="M352.043 155.902C351.972 155.922 345.486 158.121 341.422 169.332C339.31 175.178 339.481 178.635 340.011 180.504C340.572 182.522 341.653 183.172 341.663 183.182L341.583 183.322C341.563 183.312 341.292 183.152 340.952 182.752C340.592 182.332 340.161 181.643 339.861 180.574C339.32 178.675 339.14 175.188 341.272 169.282C345.356 157.991 351.922 155.772 351.992 155.752L352.043 155.902Z" fill="#494949"/>
<path d="M354.866 157.811C350.942 157.511 346.628 162.607 343.315 171.44C341.593 176.027 342.064 178.925 342.764 180.553C343.515 182.312 344.696 183.012 344.706 183.012L344.626 183.151C344.596 183.131 344.136 182.862 343.605 182.242C343.275 181.852 342.914 181.323 342.624 180.623C341.913 178.965 341.423 176.017 343.165 171.37C346.498 162.467 350.882 157.331 354.876 157.641L354.866 157.811Z" fill="#494949"/>
<path d="M355.736 159.659C350.771 160.409 347.378 168.253 346.147 171.58C344.515 176.007 344.776 179.404 346.938 181.962L346.817 182.062C344.645 179.494 344.375 175.947 345.997 171.52C347.238 168.163 350.661 160.259 355.706 159.489L355.736 159.659Z" fill="#494949"/>
<path d="M356.146 161.658C353.444 162.807 350.201 167.194 348.769 171.65C347.668 175.068 347.768 178.105 349.049 180.214L348.909 180.294C347.608 178.155 347.498 175.068 348.619 171.6C350.06 167.114 353.344 162.677 356.086 161.508L356.146 161.658Z" fill="#494949"/>
<path d="M351.832 171.73C350 176.027 350.701 178.235 350.701 178.255L350.551 178.305C350.521 178.215 349.83 176.027 351.682 171.66C353.534 167.313 355.976 165.185 355.996 165.165L356.106 165.285C356.086 165.315 353.664 167.413 351.832 171.73Z" fill="#494949"/>
<path d="M352.273 175.737L352.393 175.847C352.323 175.927 344.916 184.081 339.471 181.793L339.531 181.643C344.866 183.891 352.193 175.817 352.273 175.737Z" fill="#494949"/>
<path d="M353.203 174.059L353.303 174.189C353.223 174.258 344.855 180.674 338.459 179.534L338.489 179.375C344.805 180.504 353.123 174.129 353.203 174.059Z" fill="#494949"/>
<path d="M353.675 173.409C353.595 173.449 345.787 177.136 338.08 176.487L338.09 176.327C345.757 176.976 353.525 173.299 353.605 173.259L353.675 173.409Z" fill="#494949"/>
<path d="M353.945 172.58L353.965 172.74C353.855 172.76 343.224 174.4 338.42 172.65L338.48 172.5C343.244 174.23 353.834 172.59 353.945 172.58Z" fill="#494949"/>
<path d="M354.704 170.661L354.734 170.821C354.664 170.831 347.928 171.86 339.34 169.162L339.39 169.012C347.928 171.7 354.644 170.671 354.704 170.661Z" fill="#494949"/>
<path d="M340.321 166.55L340.293 166.708L355.175 169.347L355.203 169.189L340.321 166.55Z" fill="#494949"/>
<path d="M355.626 167.633C355.525 167.593 345.376 163.966 341.973 163.636L341.993 163.477C345.416 163.806 355.586 167.454 355.686 167.484L355.626 167.633Z" fill="#494949"/>
<path d="M355.896 166.135C355.816 166.085 347.798 161.258 344.145 160.449L344.175 160.289C347.858 161.098 355.896 165.945 355.976 165.995L355.896 166.135Z" fill="#494949"/>
<path d="M356.116 163.886C356.056 163.836 349.85 158.59 346.557 158.051L346.587 157.891C349.92 158.43 355.966 163.546 356.226 163.756L356.116 163.886Z" fill="#494949"/>
<path d="M356.015 161.318C355.975 161.278 352.002 156.892 348.729 156.642L348.739 156.482C352.072 156.732 355.965 161.029 356.136 161.208L356.015 161.318Z" fill="#494949"/>
<path d="M338.419 165.805C335.126 173.259 335.336 180.783 338.639 183.991L337.568 186.829L341.282 188.258L342.222 185.57C346.827 185.85 352.552 180.943 355.855 173.479C359.639 164.935 358.798 156.292 353.994 154.174C349.169 152.055 342.202 157.261 338.419 165.805ZM353.083 156.202C356.846 157.861 357.237 165.225 353.954 172.66C350.67 180.084 344.945 184.76 341.181 183.102C337.418 181.443 337.028 174.078 340.311 166.644C343.604 159.21 349.319 154.543 353.083 156.202Z" fill="#ECB000"/>
<g opacity="0.5">
<path opacity="0.5" d="M340.811 182.902C340.661 182.852 340.511 182.802 340.371 182.742C336.607 181.083 336.217 173.719 339.5 166.284C342.783 158.86 348.498 154.183 352.272 155.842C352.402 155.902 352.522 155.962 352.642 156.032C348.879 154.893 343.473 159.489 340.31 166.634C337.137 173.818 337.398 180.933 340.811 182.902Z" fill="#9A641A"/>
<path opacity="0.5" d="M340.47 187.908L341.621 184.871C346.225 185.15 351.73 180.604 355.033 173.139C358.717 164.816 358.016 156.382 353.522 154.004C353.672 154.054 353.822 154.114 353.972 154.184C358.787 156.302 359.618 164.956 355.834 173.489C352.531 180.944 346.806 185.86 342.201 185.58L341.26 188.268L337.547 186.839L337.557 186.809L340.47 187.908Z" fill="#9A641A"/>
</g>
<path d="M365.437 227.049C362.164 225.41 361.033 221.303 363.004 218.215C364.075 216.537 364.956 215.178 364.956 215.178C364.956 215.178 360.932 212.32 363.064 207.933C365.197 203.556 370.972 193.934 370.972 193.934C377.108 194.293 382.573 197.941 385.246 203.466L385.646 204.286L373.514 224.68C371.853 227.468 368.329 228.497 365.437 227.049Z" fill="#FFBE9D"/>
<path d="M368.06 202.758C368.44 202.648 368.661 202.258 368.551 201.889C368.44 201.509 368.05 201.289 367.679 201.399C367.299 201.509 367.078 201.899 367.189 202.268C367.289 202.638 367.679 202.858 368.06 202.758Z" fill="#02000D"/>
<path d="M367.758 200.339C367.788 200.449 368.378 200.329 368.979 200.629C369.59 200.919 369.86 201.459 369.97 201.409C370.02 201.389 370.02 201.219 369.9 200.979C369.79 200.739 369.529 200.439 369.159 200.259C368.779 200.079 368.388 200.059 368.138 200.119C367.878 200.189 367.738 200.289 367.758 200.339Z" fill="#02000D"/>
<path d="M373.754 205.155C373.363 205.185 373.073 205.535 373.113 205.924C373.143 206.314 373.494 206.604 373.884 206.564C374.275 206.534 374.565 206.184 374.525 205.795C374.485 205.405 374.145 205.115 373.754 205.155Z" fill="#02000D"/>
<path d="M373.865 203.946C373.895 204.056 374.486 203.936 375.086 204.236C375.697 204.526 375.967 205.065 376.077 205.015C376.127 204.995 376.127 204.825 376.007 204.586C375.897 204.346 375.637 204.046 375.266 203.866C374.886 203.686 374.496 203.666 374.246 203.726C373.985 203.786 373.845 203.896 373.865 203.946Z" fill="#02000D"/>
<path d="M369.03 207.943C369.06 207.903 368.719 207.633 368.159 207.253C368.009 207.154 367.909 207.064 367.939 206.974C367.959 206.864 368.099 206.724 368.279 206.584C368.629 206.264 368.99 205.944 369.37 205.605C370.902 204.196 372.083 202.997 372.003 202.917C371.932 202.837 370.631 203.916 369.11 205.325C368.739 205.675 368.389 206.004 368.039 206.324C367.889 206.474 367.678 206.634 367.628 206.934C367.608 207.084 367.679 207.243 367.769 207.323C367.859 207.403 367.949 207.453 368.019 207.493C368.619 207.813 369 207.993 369.03 207.943Z" fill="#02000D"/>
<path d="M364.977 215.127C364.977 215.127 367.62 216.726 371.473 216.357C371.473 216.357 368.56 218.815 364.396 216.247L364.977 215.127Z" fill="#EB996E"/>
<path d="M382.822 208.643C382.922 208.663 386.486 210.261 384.053 213.189C381.951 215.717 379.439 213.089 379.499 212.999C379.559 212.909 382.822 208.643 382.822 208.643Z" fill="#FFBE9D"/>
<path d="M381.4 212.46C381.42 212.46 381.42 212.519 381.48 212.609C381.53 212.699 381.651 212.809 381.821 212.859C382.171 212.949 382.722 212.669 383.062 212.2C383.232 211.96 383.342 211.7 383.392 211.45C383.442 211.2 383.412 210.981 383.292 210.851C383.172 210.721 383.012 210.741 382.932 210.791C382.842 210.841 382.822 210.901 382.812 210.901C382.802 210.901 382.782 210.821 382.882 210.721C382.932 210.671 383.002 210.631 383.102 210.631C383.202 210.621 383.312 210.661 383.402 210.741C383.592 210.901 383.652 211.21 383.602 211.49C383.562 211.77 383.442 212.08 383.252 212.34C382.862 212.859 382.241 213.169 381.781 213.019C381.56 212.939 381.44 212.769 381.41 212.659C381.36 212.529 381.38 212.46 381.4 212.46Z" fill="#EB996E"/>
<path d="M380.41 211.141C379.529 211.151 378.928 210.151 378.998 209.272C379.059 208.393 379.569 207.623 379.989 206.854C380.56 205.805 380.98 204.676 381.251 203.506C381.421 202.757 381.521 201.928 381.13 201.268C380.69 200.509 379.759 200.199 378.898 200.039C378.038 199.879 377.117 199.799 376.396 199.3C375.455 198.63 375.095 197.361 374.184 196.652C373.343 195.992 372.192 195.912 371.161 195.642C370.12 195.373 369.099 194.853 368.468 193.984C367.838 193.114 367.678 191.845 368.288 190.966C368.899 190.077 370.34 189.827 371.091 190.596C370.61 189.827 371.181 188.708 372.052 188.448C372.923 188.188 373.884 188.618 374.494 189.297C375.105 189.977 375.415 190.856 375.695 191.725C376.186 191.066 377.197 190.976 377.927 191.346C378.658 191.715 379.149 192.435 379.509 193.174C379.859 193.914 380.11 194.703 380.53 195.413C381.371 196.821 382.792 197.761 384.033 198.83C385.274 199.899 386.425 201.328 386.365 202.967C386.315 204.406 385.144 205.485 384.364 206.704C383.553 207.963 383.383 208.253 382.602 209.432C382.592 209.412 381.681 211.151 380.41 211.141Z" fill="#02000D"/>
<path d="M369.94 211.241C369.96 211.211 369.83 211.031 369.539 210.831C369.259 210.641 368.809 210.451 368.328 210.461C367.848 210.471 367.477 210.671 367.267 210.871C367.057 211.071 366.997 211.261 367.037 211.291C367.107 211.371 367.568 210.831 368.398 210.811C369.229 210.801 369.9 211.321 369.94 211.241Z" fill="white"/>
<path d="M384.303 200.459C384.373 200.529 384.864 200.119 385.594 200.049C386.335 199.959 386.895 200.249 386.945 200.159C386.965 200.119 386.855 199.989 386.605 199.869C386.355 199.749 385.975 199.659 385.544 199.699C385.124 199.749 384.763 199.919 384.553 200.099C384.353 200.269 384.273 200.429 384.303 200.459Z" fill="#02000D"/>
<path d="M386.387 197.461C386.287 197.441 386.097 198.16 385.606 198.91C385.126 199.669 384.545 200.139 384.595 200.219C384.635 200.299 385.366 199.929 385.897 199.1C386.428 198.28 386.478 197.471 386.387 197.461Z" fill="#02000D"/>
<path d="M380.421 213.928C380.401 213.888 380.131 214.098 380.161 214.578C380.181 214.808 380.281 215.087 380.541 215.287C380.801 215.497 381.212 215.527 381.542 215.377C381.872 215.237 382.132 214.917 382.152 214.578C382.182 214.248 382.042 213.978 381.882 213.818C381.552 213.469 381.212 213.529 381.232 213.568C381.222 213.618 381.482 213.668 381.692 213.968C381.792 214.118 381.862 214.328 381.832 214.538C381.802 214.748 381.642 214.947 381.402 215.057C381.162 215.157 380.901 215.147 380.731 215.027C380.551 214.908 380.451 214.708 380.411 214.538C380.321 214.178 380.471 213.958 380.421 213.928Z" fill="#02000D"/>
<path d="M382.913 237.67C382.913 237.67 398.007 246.653 397.376 248.332C396.746 250.021 380.561 259.883 380.561 259.883L384.344 267.817C384.344 267.817 412.361 258.604 410.829 246.893C409.598 237.44 390.72 227.568 390.72 227.568L382.913 237.67Z" fill="#FFBE9D"/>
<path d="M367.918 290.011C367.918 290.011 378.738 322.486 393.943 331.09C409.147 339.693 439.095 351.734 439.095 351.734L443.7 341.612C443.7 341.612 403.261 321.507 401.209 315.432L394.333 297.905" fill="#FFBE9D"/>
<path d="M355.256 290.011C354.706 290.92 340.832 312.863 340.092 321.937C339.351 331 353.915 378.914 353.915 378.914L364.615 375.636C364.615 375.636 354.245 327.333 355.667 325.404C357.088 323.465 376.086 296.975 376.086 296.975L355.256 290.011Z" fill="#FFBE9D"/>
<path d="M348.86 231.155C348.86 231.155 341.433 247.053 339.681 246.594C338.25 246.214 330.292 236.022 327.47 232.354C327.46 231.685 327.46 230.776 327.5 229.617C327.58 226.949 325.698 228.158 325.698 228.158C325.698 228.158 323.826 225.63 321.504 225.69C319.182 225.759 316.539 230.516 316.289 232.814L320.873 239.539C324.717 246.893 333.736 261.862 342.464 259.824C351.753 257.655 359.7 237.9 359.7 237.9L348.86 231.155Z" fill="#FFBE9D"/>
<path d="M351.262 370.9L354.755 381.402L365.425 378.314L362.372 365.234L351.262 370.9Z" fill="#EBEBEB"/>
<path d="M353.574 379.443L353.493 378.464L364.744 375.356L365.735 379.693L365.034 379.893C361.911 380.772 349.099 384.16 346.847 383.99C344.335 383.81 353.574 379.443 353.574 379.443Z" fill="#ECB000"/>
<g opacity="0.5">
<g opacity="0.5">
<path opacity="0.5" d="M361.551 380.313C361.501 379.324 361.631 378.175 362.261 377.405C362.892 376.636 363.973 376.256 364.954 376.116L365.675 379.314L361.551 380.313Z" fill="white"/>
</g>
</g>
<g opacity="0.4">
<g opacity="0.4">
<path opacity="0.4" d="M349.11 381.721C349.11 381.721 345.837 383.58 346.467 383.93C347.448 384.469 360.09 381.462 365.746 379.663L365.626 379.213L350.331 382.851C350.331 382.851 349.791 381.602 349.11 381.721Z" fill="white"/>
</g>
</g>
<path d="M365.825 379.183C365.825 379.183 365.765 379.213 365.635 379.253C365.465 379.303 365.284 379.353 365.074 379.413C364.514 379.563 363.823 379.753 363.012 379.973C361.271 380.433 358.848 381.032 356.166 381.632C353.483 382.231 351.041 382.731 349.269 383.061C348.438 383.21 347.738 383.34 347.167 383.44C346.957 383.47 346.767 383.51 346.597 383.53C346.467 383.55 346.396 383.56 346.396 383.55C346.396 383.55 346.467 383.53 346.597 383.5C346.767 383.46 346.957 383.42 347.167 383.38C347.738 383.26 348.438 383.12 349.259 382.951C351.021 382.591 353.463 382.081 356.146 381.482C358.828 380.882 361.251 380.293 362.992 379.863C363.813 379.663 364.504 379.493 365.064 379.353C365.274 379.303 365.454 379.263 365.625 379.213C365.755 379.183 365.825 379.173 365.825 379.183Z" fill="#02000D"/>
<path d="M350.471 382.951C350.431 382.961 350.281 382.481 349.86 382.042C349.44 381.602 348.959 381.442 348.969 381.402C348.969 381.362 349.51 381.472 349.96 381.942C350.421 382.411 350.511 382.951 350.471 382.951Z" fill="#02000D"/>
<path d="M353.465 380.483C353.435 380.513 353.235 380.353 353.005 380.123C352.774 379.893 352.614 379.693 352.644 379.663C352.674 379.633 352.875 379.793 353.105 380.023C353.335 380.253 353.496 380.453 353.465 380.483Z" fill="#02000D"/>
<path d="M354.285 379.784C354.264 379.814 354.054 379.734 353.824 379.604C353.583 379.474 353.413 379.334 353.433 379.304C353.453 379.274 353.664 379.354 353.894 379.484C354.124 379.614 354.305 379.754 354.285 379.784Z" fill="#02000D"/>
<path d="M352.852 379.574C352.852 379.594 352.582 379.684 352.112 379.734C351.882 379.754 351.601 379.764 351.291 379.734C351.141 379.714 350.981 379.714 350.801 379.654C350.72 379.624 350.62 379.574 350.57 379.464C350.51 379.364 350.55 379.224 350.62 379.144C351.241 378.624 352.032 378.864 352.382 379.164C352.572 379.314 352.672 379.484 352.732 379.604C352.792 379.724 352.802 379.794 352.792 379.794C352.772 379.814 352.682 379.514 352.312 379.244C352.132 379.114 351.882 378.994 351.591 378.974C351.311 378.954 350.941 379.014 350.73 379.234C350.63 379.344 350.71 379.474 350.861 379.524C351.001 379.574 351.171 379.584 351.311 379.604C351.611 379.634 351.882 379.644 352.112 379.634C352.562 379.614 352.842 379.554 352.852 379.574Z" fill="#02000D"/>
<path d="M352.674 379.653C352.664 379.663 352.514 379.503 352.474 379.163C352.454 378.994 352.474 378.794 352.554 378.584C352.644 378.394 352.764 378.134 353.085 378.074C353.265 378.054 353.385 378.234 353.385 378.364C353.405 378.494 353.365 378.624 353.335 378.724C353.265 378.934 353.175 379.104 353.085 379.243C352.905 379.523 352.744 379.643 352.734 379.633C352.714 379.613 352.855 379.473 353.005 379.193C353.075 379.054 353.155 378.884 353.215 378.684C353.285 378.504 353.285 378.214 353.095 378.224C352.905 378.244 352.764 378.474 352.684 378.644C352.604 378.834 352.574 379.014 352.584 379.163C352.584 379.463 352.694 379.643 352.674 379.653Z" fill="#02000D"/>
<path d="M364.885 376.106C364.885 376.136 364.554 376.146 364.044 376.326C363.543 376.496 362.883 376.866 362.372 377.495C361.862 378.125 361.642 378.854 361.581 379.384C361.521 379.914 361.571 380.243 361.551 380.253C361.541 380.253 361.521 380.173 361.501 380.023C361.481 379.874 361.471 379.654 361.491 379.374C361.531 378.834 361.742 378.065 362.272 377.405C362.803 376.746 363.503 376.376 364.024 376.226C364.284 376.146 364.504 376.116 364.654 376.096C364.805 376.086 364.885 376.096 364.885 376.106Z" fill="#02000D"/>
<path d="M359.861 379.523C359.871 379.553 359.16 379.843 358.229 380.063C357.298 380.283 356.527 380.343 356.527 380.303C356.517 380.263 357.278 380.143 358.199 379.923C359.11 379.713 359.851 379.483 359.861 379.523Z" fill="#02000D"/>
<path d="M362.102 379.014C362.132 379.034 362.072 379.184 362.042 379.374C362.002 379.564 361.992 379.724 361.952 379.734C361.912 379.744 361.852 379.564 361.902 379.354C361.942 379.134 362.072 378.994 362.102 379.014Z" fill="#02000D"/>
<path d="M362.713 377.775C362.743 377.795 362.703 377.935 362.603 378.075C362.513 378.225 362.413 378.325 362.373 378.305C362.343 378.285 362.383 378.145 362.483 378.005C362.583 377.855 362.683 377.755 362.713 377.775Z" fill="#02000D"/>
<path d="M363.813 377.025C363.813 377.065 363.663 377.095 363.503 377.195C363.343 377.285 363.243 377.405 363.213 377.385C363.173 377.375 363.233 377.185 363.433 377.065C363.623 376.955 363.823 376.985 363.813 377.025Z" fill="#02000D"/>
<path d="M364.625 376.607C364.645 376.637 364.595 376.717 364.505 376.767C364.415 376.827 364.335 376.847 364.305 376.817C364.285 376.787 364.335 376.707 364.425 376.657C364.515 376.597 364.605 376.577 364.625 376.607Z" fill="#02000D"/>
<path d="M433.27 349.366L443.529 353.553L448.124 343.451L436.192 337.255L433.27 349.366Z" fill="#EBEBEB"/>
<path d="M441.267 353.163L440.466 352.584L445.421 342.032L449.364 344.1L449.064 344.76C447.703 347.697 441.937 359.608 440.346 361.207C438.574 363.006 441.267 353.163 441.267 353.163Z" fill="#ECB000"/>
<g opacity="0.5">
<g opacity="0.5">
<path opacity="0.5" d="M447.123 347.688C446.332 347.078 445.541 346.229 445.371 345.249C445.201 344.27 445.611 343.211 446.142 342.372L449.034 343.91L447.123 347.688Z" fill="white"/>
</g>
</g>
<g opacity="0.4">
<g opacity="0.4">
<path opacity="0.4" d="M440.096 358.03C440.096 358.03 439.385 361.717 440.056 361.467C441.107 361.077 447.052 349.536 449.364 344.08L448.944 343.88L441.757 357.84C441.747 357.84 440.436 357.44 440.096 358.03Z" fill="white"/>
</g>
</g>
<path d="M449.044 343.71C449.044 343.71 449.024 343.78 448.964 343.9C448.894 344.06 448.813 344.23 448.723 344.43C448.473 344.95 448.163 345.599 447.803 346.358C447.012 347.977 445.901 350.196 444.61 352.624C443.318 355.052 442.107 357.22 441.206 358.779C440.786 359.509 440.426 360.118 440.125 360.618C440.015 360.798 439.915 360.967 439.825 361.117C439.755 361.227 439.715 361.287 439.715 361.287C439.715 361.287 439.745 361.217 439.805 361.107C439.885 360.957 439.985 360.788 440.085 360.598C440.365 360.088 440.716 359.469 441.126 358.739C442.007 357.17 443.198 354.992 444.489 352.564C445.781 350.136 446.902 347.927 447.712 346.318C448.093 345.569 448.413 344.93 448.673 344.42C448.773 344.23 448.854 344.06 448.934 343.9C449.004 343.77 449.034 343.71 449.044 343.71Z" fill="#02000D"/>
<path d="M441.917 357.8C441.897 357.84 441.437 357.63 440.826 357.68C440.216 357.71 439.785 357.98 439.765 357.94C439.735 357.92 440.166 357.58 440.816 357.54C441.467 357.49 441.937 357.78 441.917 357.8Z" fill="#02000D"/>
<path d="M441.99 353.933C441.99 353.973 441.739 354.023 441.419 354.053C441.098 354.073 440.838 354.063 440.838 354.023C440.838 353.983 441.088 353.933 441.409 353.903C441.729 353.873 441.99 353.893 441.99 353.933Z" fill="#02000D"/>
<path d="M441.988 352.854C441.998 352.894 441.808 352.994 441.548 353.094C441.287 353.184 441.077 353.234 441.057 353.194C441.047 353.154 441.237 353.054 441.498 352.954C441.758 352.864 441.978 352.814 441.988 352.854Z" fill="#02000D"/>
<path d="M440.897 353.803C440.907 353.813 440.807 354.083 440.536 354.463C440.406 354.652 440.226 354.872 440.006 355.092C439.896 355.202 439.786 355.312 439.625 355.412C439.545 355.452 439.445 355.492 439.335 355.472C439.225 355.442 439.135 355.332 439.125 355.232C439.135 354.423 439.826 353.973 440.286 353.913C440.526 353.873 440.717 353.903 440.847 353.933C440.977 353.963 441.037 354.003 441.037 354.013C441.037 354.043 440.747 353.923 440.306 354.013C440.086 354.063 439.836 354.173 439.635 354.383C439.445 354.582 439.245 354.902 439.265 355.202C439.285 355.352 439.435 355.372 439.565 355.292C439.696 355.222 439.816 355.102 439.926 355.002C440.146 354.792 440.326 354.592 440.466 354.413C440.747 354.043 440.877 353.793 440.897 353.803Z" fill="#02000D"/>
<path d="M440.838 353.993C440.838 354.003 440.618 354.013 440.338 353.823C440.197 353.733 440.057 353.583 439.947 353.383C439.857 353.183 439.737 352.934 439.897 352.654C439.997 352.514 440.217 352.524 440.318 352.614C440.428 352.684 440.498 352.794 440.558 352.884C440.668 353.074 440.748 353.253 440.798 353.413C440.888 353.733 440.878 353.933 440.868 353.933C440.848 353.933 440.818 353.733 440.708 353.443C440.648 353.293 440.568 353.124 440.458 352.954C440.368 352.784 440.147 352.594 440.027 352.744C439.927 352.904 439.997 353.164 440.077 353.333C440.167 353.513 440.287 353.653 440.408 353.753C440.638 353.933 440.848 353.963 440.838 353.993Z" fill="#02000D"/>
<path d="M446.093 342.422C446.113 342.432 445.903 342.702 445.712 343.201C445.522 343.691 445.362 344.44 445.512 345.23C445.662 346.029 446.073 346.669 446.433 347.058C446.794 347.448 447.084 347.628 447.074 347.648C447.074 347.658 446.994 347.618 446.864 347.538C446.734 347.458 446.564 347.318 446.363 347.128C445.973 346.749 445.532 346.089 445.372 345.26C445.212 344.43 445.392 343.661 445.612 343.161C445.722 342.912 445.842 342.722 445.933 342.602C446.033 342.472 446.093 342.412 446.093 342.422Z" fill="#02000D"/>
<path d="M445.422 348.457C445.452 348.467 445.211 349.206 444.771 350.045C444.33 350.895 443.879 351.514 443.849 351.494C443.819 351.474 444.22 350.815 444.65 349.975C445.081 349.146 445.381 348.447 445.422 348.457Z" fill="#02000D"/>
<path d="M446.503 346.428C446.543 346.418 446.613 346.558 446.733 346.708C446.853 346.858 446.973 346.968 446.943 347.008C446.923 347.038 446.753 346.978 446.613 346.798C446.483 346.618 446.463 346.438 446.503 346.428Z" fill="#02000D"/>
<path d="M445.952 345.159C445.992 345.149 446.062 345.269 446.112 345.439C446.162 345.599 446.172 345.749 446.142 345.759C446.102 345.769 446.032 345.649 445.982 345.479C445.922 345.309 445.912 345.169 445.952 345.159Z" fill="#02000D"/>
<path d="M446.102 343.83C446.132 343.86 446.062 343.99 446.032 344.17C446.002 344.35 446.032 344.5 445.992 344.52C445.962 344.54 445.862 344.37 445.892 344.15C445.922 343.93 446.072 343.81 446.102 343.83Z" fill="#02000D"/>
<path d="M446.302 342.952C446.342 342.952 446.362 343.042 446.352 343.152C446.342 343.252 446.302 343.332 446.262 343.332C446.222 343.332 446.202 343.242 446.212 343.132C446.222 343.022 446.262 342.942 446.302 342.952Z" fill="#02000D"/>
<path d="M358.799 282.677C358.799 282.677 371.06 309.686 373.373 309.856C373.373 309.856 397.886 300.433 397.556 299.434C397.225 298.445 391.59 288.023 391.43 285.375C391.26 282.727 386.765 275.692 386.765 275.692L358.799 282.677Z" fill="#02000D"/>
<path d="M358.799 282.677L346.047 302.742L367.918 313.993L376.696 301.253L358.799 282.677Z" fill="#02000D"/>
<path d="M373.263 310.046C373.163 310.086 370.691 304.88 367.748 298.415C364.795 291.95 362.483 286.664 362.583 286.624C362.683 286.584 365.156 291.79 368.098 298.255C371.041 304.72 373.363 310.006 373.263 310.046Z" fill="#00002F"/>
<path d="M397.616 299.174C397.626 299.194 397.315 299.394 396.725 299.714C396.144 300.044 395.284 300.503 394.223 301.053C392.101 302.152 389.118 303.591 385.765 305.05C382.411 306.509 379.328 307.698 377.076 308.507C375.945 308.907 375.034 309.227 374.394 309.427C373.753 309.626 373.403 309.726 373.393 309.706C373.383 309.676 373.723 309.536 374.344 309.287C375.034 309.017 375.925 308.667 376.976 308.257C379.198 307.388 382.271 306.159 385.614 304.71C388.958 303.261 391.95 301.852 394.102 300.823C395.133 300.333 395.984 299.924 396.655 299.604C397.265 299.294 397.606 299.154 397.616 299.174Z" fill="#00002F"/>
<path d="M397.115 297.785C397.125 297.805 396.815 298.015 396.244 298.355C395.674 298.705 394.833 299.184 393.772 299.754C391.66 300.893 388.687 302.352 385.294 303.721C381.901 305.09 378.748 306.119 376.445 306.769C375.294 307.098 374.353 307.338 373.703 307.488C373.052 307.638 372.682 307.708 372.682 307.678C372.672 307.648 373.022 307.528 373.663 307.338C374.373 307.118 375.284 306.839 376.365 306.509C378.648 305.789 381.77 304.73 385.154 303.371C388.527 302.002 391.51 300.593 393.652 299.514C394.663 298.994 395.513 298.565 396.174 298.225C396.765 297.925 397.105 297.765 397.115 297.785Z" fill="#00002F"/>
<path d="M378.288 286.673C378.308 286.713 377.678 287.203 376.517 287.753C375.366 288.292 373.574 288.882 371.572 288.562C370.581 288.402 369.68 288.022 368.98 287.493C368.279 286.973 367.798 286.334 367.498 285.744C367.208 285.155 367.088 284.635 367.058 284.265C367.028 283.906 367.068 283.706 367.088 283.706C367.168 283.696 367.118 284.525 367.738 285.614C368.049 286.144 368.529 286.733 369.19 287.203C369.85 287.683 370.701 288.022 371.632 288.172C373.524 288.482 375.245 287.962 376.407 287.493C377.568 287.023 378.248 286.623 378.288 286.673Z" fill="#00002F"/>
<path d="M365.436 293.178C365.436 293.208 365.275 293.268 364.955 293.338C364.645 293.398 364.164 293.498 363.564 293.378C363.264 293.308 362.943 293.158 362.683 292.899C362.423 292.649 362.223 292.319 362.042 291.979C361.702 291.29 361.372 290.53 361.061 289.711C360.451 288.062 360.091 286.514 359.9 285.384C359.71 284.255 359.69 283.546 359.74 283.536C359.8 283.526 359.92 284.225 360.171 285.334C360.421 286.444 360.821 287.962 361.422 289.581C361.722 290.391 362.042 291.15 362.353 291.829C362.653 292.509 363.093 292.989 363.624 293.119C364.144 293.268 364.605 293.218 364.925 293.198C365.245 293.158 365.426 293.148 365.436 293.178Z" fill="#00002F"/>
<path d="M379.23 258.734C381.762 259.064 383.204 259.124 383.204 259.124L385.556 259.404L388.449 266.299L381.292 270.176C379.02 269.696 374.545 266.588 374.716 264.28C374.886 261.972 377.598 260.363 377.598 260.363C377.598 260.363 376.587 258.385 379.23 258.734Z" fill="#FFBE9D"/>
<path d="M374.324 221.123C380.56 220.843 385.565 223.151 397.166 230.326L390.469 243.546L381.491 238.52L374.324 221.123Z" fill="#171751"/>
<path d="M356.577 241.347L355.967 260.123L357.548 282.676C357.548 282.676 384.404 279.339 388.527 274.303L383.212 260.723L384.113 232.624C384.113 229.416 383.222 226.848 381.841 225.03C379.969 222.572 375.815 221.303 373.293 220.843H358.969C358.969 220.843 349.19 220.583 347.318 230.626L356.577 241.347Z" fill="#171751"/>
<path opacity="0.3" d="M356.587 244.425H363.393V262.841L356.267 264.43C356.267 264.44 355.106 251.26 356.587 244.425Z" fill="white"/>
<path d="M383.352 256.196C383.242 256.196 383.332 250.111 383.552 242.606C383.762 235.102 384.023 229.017 384.133 229.017C384.243 229.017 384.153 235.102 383.933 242.616C383.722 250.121 383.462 256.196 383.352 256.196Z" fill="#02000D"/>
<path d="M350.662 224.08C350.662 224.08 348.89 224.32 341.703 242.017L355.226 250.41C355.226 250.41 361.382 233.303 361.132 229.816C360.871 226.318 355.586 219.314 350.662 224.08Z" fill="#171751"/>
<path d="M352.934 222.303C352.934 222.293 353.044 222.253 353.274 222.193C353.494 222.123 353.834 222.073 354.285 222.043C355.166 222.003 356.487 222.163 357.898 222.912C358.599 223.282 359.32 223.801 359.95 224.511C360.271 224.861 360.531 225.28 360.751 225.74C360.961 226.21 361.081 226.709 361.171 227.229C361.542 229.327 361.111 231.646 360.541 233.954C359.36 238.6 357.758 242.627 356.797 245.595C356.297 247.074 355.926 248.283 355.656 249.112C355.536 249.492 355.436 249.812 355.356 250.072C355.286 250.291 355.236 250.401 355.226 250.401C355.216 250.401 355.236 250.281 355.286 250.052C355.346 249.782 355.426 249.462 355.516 249.072C355.736 248.223 356.077 247.004 356.537 245.505C357.438 242.507 358.989 238.46 360.16 233.854C360.741 231.556 361.161 229.297 360.821 227.289C360.601 225.22 359.079 223.891 357.768 223.152C356.417 222.402 355.146 222.193 354.285 222.193C353.414 222.203 352.944 222.353 352.934 222.303Z" fill="#02000D"/>
<g opacity="0.4">
<path opacity="0.4" d="M383.662 239.848C385.694 240.948 387.716 242.047 389.748 243.136C389.868 243.206 390.008 243.276 390.148 243.246C390.378 243.216 390.499 242.936 390.459 242.716C390.419 242.486 390.268 242.307 390.128 242.127C387.516 238.909 385.434 235.262 384.002 231.385L383.662 239.848Z" fill="black"/>
</g>
<g opacity="0.4">
<path opacity="0.4" d="M357.318 244.255C361.532 240.028 363.094 233.374 361.202 227.718C361.202 227.718 361.002 232.304 360.021 235.242C359.04 238.18 357.318 244.255 357.318 244.255Z" fill="black"/>
</g>
<path d="M656.591 381.252C656.591 381.252 656.13 381.272 655.23 381.282C654.319 381.292 652.977 381.292 651.216 381.312C647.672 381.322 642.458 381.342 635.731 381.362C622.248 381.382 592.69 381.412 568.377 381.442H568.107L568.207 381.192C568.257 381.072 568.307 380.932 568.357 380.792L568.347 380.822C568.888 377.635 569.488 374.107 570.109 370.49L570.409 370.68C567.967 372.409 565.234 374.347 562.452 376.316L562.131 376.546V376.156C562.121 367.832 562.121 359.049 562.111 349.886L562.542 349.946C559.879 359.279 557.067 369.121 554.154 379.343L554.004 379.853L553.723 379.403C551.381 375.666 548.809 371.569 546.206 367.402L546.657 367.243C547.197 371.619 547.778 376.416 548.378 381.272L548.408 381.552H548.118C523.975 381.442 447.693 381.532 420.497 381.502C391.78 381.502 364.144 381.492 338.39 381.492C325.507 381.482 313.106 381.482 301.264 381.472C295.349 381.472 289.563 381.462 283.948 381.462C281.135 381.462 278.363 381.462 275.63 381.452C274.269 381.452 272.908 381.452 271.566 381.452C270.896 381.452 270.225 381.452 269.554 381.452C268.884 381.412 268.223 381.382 267.553 381.342L267.382 381.332L267.352 381.162C266.832 377.964 266.351 374.967 265.871 372.029L266.241 372.119C264.93 373.938 263.719 375.606 262.518 377.255L262.318 377.535L262.177 377.225C260.015 372.349 257.983 367.752 256.022 363.346L256.372 363.276C256.232 368.512 256.112 373.358 255.992 377.964L255.982 378.274L255.721 378.104C252.538 375.946 249.736 374.037 247.053 372.209L247.283 372.019C248.775 375.466 250.056 378.424 251.277 381.252L251.367 381.452H251.147C237.594 381.322 66.7624 381.382 59.4755 381.332C55.8421 381.312 53.0494 381.302 51.1476 381.292C50.2067 381.282 49.4961 381.282 49.0156 381.272C48.5352 381.262 48.2949 381.252 48.2949 381.252C48.2949 381.252 48.5352 381.242 49.0156 381.232C49.5061 381.232 50.2167 381.222 51.1476 381.212C53.0394 381.202 55.8321 381.192 59.4755 381.172C66.7624 381.172 237.594 381.072 251.167 381.162L251.027 381.362C249.796 378.544 248.514 375.586 247.013 372.139L246.803 371.649L247.253 371.949C249.946 373.768 252.759 375.666 255.942 377.825L255.681 377.964C255.791 373.358 255.901 368.522 256.032 363.276L256.052 362.456L256.382 363.206C258.344 367.612 260.386 372.199 262.558 377.065L262.217 377.035C263.409 375.386 264.62 373.708 265.931 371.889L266.221 371.489L266.301 371.969C266.782 374.907 267.272 377.905 267.793 381.102L267.593 380.922C268.253 380.952 268.914 380.992 269.584 381.032C270.255 381.032 270.926 381.032 271.596 381.032C272.938 381.032 274.299 381.032 275.66 381.032C278.393 381.032 281.165 381.032 283.978 381.022C289.603 381.022 295.379 381.012 301.294 381.012C313.136 381.002 325.537 381.002 338.42 380.992C364.174 380.992 391.81 380.982 420.527 380.982C447.723 381.012 524.005 380.932 548.148 381.052L547.898 381.332C547.307 376.476 546.727 371.679 546.186 367.303L546.056 366.213L546.637 367.143C549.239 371.31 551.812 375.406 554.144 379.144L553.713 379.204C556.636 368.991 559.459 359.139 562.131 349.816L562.572 348.297V349.886C562.562 359.049 562.562 367.832 562.552 376.156L562.232 375.986C565.014 374.017 567.747 372.089 570.199 370.36L570.579 370.09L570.499 370.55C569.879 374.167 569.268 377.695 568.718 380.882V380.902L568.708 380.922C568.658 381.062 568.598 381.202 568.558 381.322L568.387 381.072C592.7 381.112 622.258 381.132 635.741 381.152C642.468 381.172 647.682 381.192 651.226 381.202C652.987 381.212 654.329 381.222 655.24 381.232C656.13 381.232 656.591 381.252 656.591 381.252Z" fill="#263238"/>
<path d="M209.549 380.243C229.968 372.749 239.607 351.615 244.051 331.52C244.792 328.162 246.063 324.755 245.213 321.427C244.362 318.1 241.129 315.152 237.746 315.772C234.943 316.291 233.111 318.879 231.099 320.898C228.417 323.576 224.963 325.484 221.27 326.314C218.838 326.863 216.005 326.853 214.183 325.155C211.681 322.826 212.361 318.779 213.232 315.482C214.864 309.336 216.485 303.181 218.117 297.036C218.988 293.738 219.869 290.361 219.638 286.963C219.408 283.556 217.847 280.059 214.884 278.35C211.921 276.651 207.507 277.451 205.995 280.518C205.365 281.797 205.285 283.266 204.844 284.605C204.394 285.954 203.353 287.303 201.932 287.353C200.49 287.393 199.389 286.114 198.638 284.895C196.036 280.668 194.795 275.772 193.704 270.925C192.613 266.089 191.602 261.163 189.4 256.716C187.198 252.27 183.594 248.273 178.86 246.774C174.125 245.275 168.25 246.884 165.837 251.22C163.415 255.567 164.957 261.003 166.989 265.55C170.001 272.284 173.995 278.59 178.81 284.185C179.681 285.195 180.621 286.294 180.712 287.613C180.872 290.001 178.189 291.65 175.797 291.81C173.084 291.99 170.432 291.04 167.739 290.671C165.047 290.301 161.914 290.711 160.302 292.899C158.06 295.927 160.012 300.203 162.234 303.241C166.688 309.336 172.193 314.662 178.439 318.909C180.681 320.428 183.074 321.877 184.625 324.095C186.177 326.314 186.607 329.591 184.805 331.61C183.004 333.628 179.721 333.588 177.258 332.449C174.796 331.31 172.834 329.341 170.612 327.793C166.438 324.895 160.402 323.686 156.439 326.853C153.836 328.932 152.735 332.489 152.925 335.816C153.115 339.144 154.417 342.302 155.908 345.289C161.093 355.721 168.79 365.024 178.539 371.42C188.279 377.815 197.928 381.342 209.549 380.243Z" stroke="#02000D" stroke-width="0.75" stroke-miterlimit="10"/>
<path d="M208.078 380.293C207.688 369.481 205.686 343.8 203.774 331.48C203.284 328.402 202.803 325.364 202.323 322.366C201.842 319.379 201.362 316.411 200.711 313.543C199.44 307.797 197.769 302.362 196.027 297.245C194.285 292.129 192.433 287.343 190.682 282.866C188.92 278.4 187.189 274.263 185.457 270.566C182.014 263.141 178.52 257.495 175.968 253.698C174.697 251.8 173.656 250.361 172.945 249.392C172.595 248.922 172.324 248.562 172.124 248.292C171.934 248.043 171.834 247.933 171.834 247.933C171.834 247.933 171.914 248.073 172.084 248.322C172.274 248.592 172.535 248.972 172.865 249.451C173.546 250.441 174.557 251.9 175.798 253.808C178.29 257.625 181.723 263.291 185.117 270.715C186.828 274.423 188.53 278.549 190.281 283.026C192.023 287.503 193.845 292.289 195.576 297.405C197.308 302.511 198.96 307.937 200.221 313.663C200.861 316.521 201.332 319.469 201.812 322.466C202.293 325.464 202.773 328.502 203.264 331.579C205.176 343.89 207.187 369.551 207.598 380.333" fill="#02000D"/>
<path d="M200.601 313.463C200.631 313.473 200.871 313.004 201.272 312.124C201.672 311.255 202.223 309.976 202.883 308.387C204.194 305.21 205.866 300.773 207.688 295.867C209.52 290.96 211.261 286.564 212.632 283.426C213.313 281.857 213.884 280.588 214.294 279.719C214.694 278.85 214.905 278.36 214.875 278.34C214.845 278.32 214.574 278.78 214.114 279.629C213.653 280.468 213.033 281.717 212.302 283.276C210.831 286.384 209.029 290.781 207.197 295.687C205.396 300.553 203.764 304.95 202.533 308.247C201.942 309.776 201.452 311.055 201.081 312.045C200.741 312.944 200.571 313.444 200.601 313.463Z" fill="#02000D"/>
<path d="M159.512 294.468C159.512 294.488 159.652 294.548 159.942 294.658C160.282 294.778 160.693 294.917 161.193 295.097C162.274 295.467 163.846 296.007 165.768 296.736C169.611 298.155 174.856 300.313 180.542 302.951C186.217 305.599 191.252 308.207 194.825 310.216C196.627 311.205 198.058 312.045 199.049 312.624C199.5 312.884 199.88 313.104 200.2 313.284C200.46 313.433 200.611 313.503 200.621 313.483C200.631 313.463 200.501 313.374 200.26 313.194C199.96 312.994 199.6 312.744 199.159 312.454C198.198 311.825 196.787 310.935 195.015 309.906C191.472 307.818 186.457 305.15 180.762 302.492C175.066 299.854 169.791 297.745 165.898 296.406C163.956 295.727 162.364 295.237 161.263 294.918C160.753 294.778 160.332 294.668 159.982 294.568C159.672 294.478 159.512 294.448 159.512 294.468Z" fill="#02000D"/>
<path d="M207.227 365.504C207.237 365.514 207.387 365.364 207.647 365.055C207.937 364.705 208.318 364.255 208.778 363.696C209.749 362.516 211.12 360.778 212.782 358.599C216.105 354.263 220.519 348.117 225.304 341.292C230.088 334.458 234.443 328.292 237.696 323.906C239.297 321.757 240.608 319.999 241.559 318.72C241.99 318.14 242.34 317.67 242.61 317.311C242.851 316.981 242.961 316.811 242.951 316.791C242.941 316.781 242.79 316.931 242.53 317.241C242.24 317.59 241.87 318.04 241.409 318.6C240.438 319.779 239.067 321.517 237.405 323.696C234.072 328.033 229.668 334.168 224.883 341.013C220.099 347.848 215.745 354.003 212.492 358.4C210.89 360.548 209.579 362.307 208.628 363.586C208.198 364.165 207.847 364.635 207.577 365.005C207.327 365.314 207.207 365.494 207.227 365.504Z" fill="#02000D"/>
<path d="M154.588 332.609C154.578 332.619 154.758 332.749 155.099 332.979C155.499 333.229 156 333.548 156.63 333.948C158.022 334.817 159.933 336.007 162.276 337.465C167.04 340.443 173.566 344.63 180.763 349.277C187.97 353.923 194.526 358.07 199.341 360.968C201.743 362.417 203.705 363.576 205.076 364.345C205.727 364.705 206.247 365.005 206.658 365.224C207.018 365.424 207.218 365.514 207.228 365.504C207.238 365.484 207.058 365.364 206.708 365.135C206.317 364.885 205.807 364.565 205.176 364.165C203.785 363.296 201.873 362.107 199.531 360.648C194.766 357.67 188.24 353.483 181.043 348.837C173.847 344.19 167.28 340.043 162.466 337.146C160.063 335.697 158.102 334.538 156.73 333.768C156.08 333.408 155.559 333.109 155.149 332.889C154.788 332.699 154.598 332.599 154.588 332.609Z" fill="#02000D"/>
<path d="M53.2305 133.789H136.209C136.209 133.789 128.872 120.459 107.512 122.398C87.1125 124.246 86.0816 115.843 75.7017 114.803C65.3319 113.774 56.6837 121.708 53.2305 133.789Z" fill="#EBEBEB"/>
<path d="M456.992 38.3112H536.457C536.457 38.3112 529.431 25.5408 508.981 27.3994C489.443 29.178 488.452 21.1241 478.523 20.1249C468.583 19.1356 460.305 26.7399 456.992 38.3112Z" fill="#EBEBEB"/>
<path d="M496.73 81.1285H548.71C548.71 81.1285 544.115 72.7748 530.733 73.9939C517.951 75.153 517.3 69.887 510.804 69.2375C504.308 68.588 498.893 73.5642 496.73 81.1285Z" fill="#E0E0E0"/>
<path d="M201.15 11.9509H253.13C253.13 11.9509 248.535 3.5972 235.153 4.81627C222.37 5.9754 221.72 0.709376 215.224 0.0598662C208.728 -0.589643 203.312 4.37661 201.15 11.9509Z" fill="#F5F5F5"/>
<path d="M24.4141 96.1574H76.3933C76.3933 96.1574 71.7989 87.8037 58.4163 89.0228C45.6342 90.1819 44.9835 84.9159 38.4874 84.2664C31.9912 83.6169 26.5861 88.5831 24.4141 96.1574Z" fill="#E0E0E0"/>
<path d="M498.662 360.108C497.901 357.091 499.893 354.073 502.125 351.904C504.358 349.726 507.02 347.788 508.191 344.9C510.093 340.223 507.611 334.148 510.824 330.261C512.715 327.973 516.089 327.223 517.77 324.775C518.651 323.496 518.941 321.907 519.292 320.398C521.083 312.664 525.007 305.44 530.512 299.714C530.853 306.609 529.291 313.593 526.038 319.689C524.727 322.137 523.135 324.525 522.685 327.263C521.964 331.71 524.427 336.316 523.305 340.683C522.024 345.679 516.379 348.987 516.079 354.133C515.828 358.479 519.602 362.327 519.302 366.673C519.172 368.522 518.301 370.241 517.33 371.819C513.927 377.395 508.952 381.222 501.445 381.052L492.246 381.322L498.662 360.108Z" fill="#ECB000"/>
<g opacity="0.3">
<g opacity="0.3">
<g opacity="0.3">
<path opacity="0.3" d="M498.662 360.108C497.901 357.091 499.893 354.073 502.125 351.904C504.358 349.726 507.02 347.788 508.191 344.9C510.093 340.223 507.611 334.148 510.824 330.261C512.715 327.973 516.089 327.223 517.77 324.775C518.651 323.496 518.941 321.907 519.292 320.398C521.083 312.664 525.007 305.44 530.512 299.714C530.853 306.609 529.291 313.593 526.038 319.689C524.727 322.137 523.135 324.525 522.685 327.263C521.964 331.71 524.427 336.316 523.305 340.683C522.024 345.679 516.379 348.987 516.079 354.133C515.828 358.479 519.602 362.327 519.302 366.673C519.172 368.522 518.301 370.241 517.33 371.819C513.927 377.395 508.952 381.222 501.445 381.052L492.246 381.322L498.662 360.108Z" fill="black"/>
</g>
</g>
</g>
<path d="M490.404 381.542C490.404 381.542 489.523 381.742 487.871 381.472C487.05 381.352 486.04 381.122 484.888 380.702C483.747 380.283 482.446 379.673 481.215 378.664C480.624 378.134 480.024 377.495 479.714 376.636C479.403 375.786 479.353 374.847 479.293 373.888C479.253 372.928 479.253 371.929 479.093 370.92C478.943 369.911 478.552 368.911 477.982 367.962C476.911 366.054 475.119 364.245 474.549 361.657C473.938 359.119 474.399 356.371 474.849 353.613C475.289 350.865 475.72 347.867 474.679 344.989C473.708 342.112 471.706 339.514 470.715 336.266C469.734 332.989 470.215 329.481 470.024 326.014C469.934 324.275 469.614 322.526 468.853 320.908C468.123 319.279 467.092 317.74 466.301 316.031C464.689 312.564 464.419 308.647 463.999 304.8C463.788 302.861 463.588 300.903 463.368 298.934C463.158 296.946 462.998 294.977 462.377 293.059C461.817 291.13 461.016 289.272 460.215 287.363C459.825 286.404 459.404 285.454 459.164 284.395C458.994 283.316 458.944 282.297 458.884 281.238C458.794 279.129 458.894 277.001 459.164 274.882C459.424 272.764 459.825 270.666 460.065 268.547C460.075 268.417 460.095 268.297 460.105 268.178L460.155 267.758L460.535 267.948C462.497 268.947 464.179 270.416 465.46 272.145C466.771 273.863 467.712 275.792 468.473 277.75C469.984 281.697 470.515 285.834 471.266 289.781C471.996 293.728 472.977 297.615 474.979 300.903C475.98 302.542 477.191 304.04 478.242 305.639C479.293 307.228 480.224 308.977 480.494 310.885C481.015 314.772 478.853 318.17 479.283 321.607C479.433 323.316 480.104 324.915 480.935 326.384C481.765 327.852 482.736 329.221 483.657 330.59C484.578 331.959 485.459 333.348 486.1 334.837C486.75 336.316 487.111 337.895 487.201 339.444C487.411 342.541 486.95 345.469 487.161 348.247C487.331 351.025 488.292 353.543 489.383 355.801C490.484 358.07 491.705 360.118 492.736 362.097C493.256 363.086 493.727 364.055 494.117 365.024C494.528 365.994 494.728 366.983 494.908 367.932C495.198 369.841 495.158 371.609 494.948 373.168C494.528 376.306 493.346 378.564 492.275 379.833C492.035 380.173 491.745 380.413 491.525 380.633C491.305 380.862 491.094 381.022 490.914 381.142C490.594 381.432 490.404 381.542 490.404 381.542C490.364 381.492 491.164 381.082 492.195 379.793C493.216 378.524 494.347 376.276 494.728 373.168C494.918 371.629 494.938 369.871 494.638 368.002C494.448 367.073 494.247 366.104 493.837 365.164C493.447 364.215 492.966 363.256 492.456 362.266C491.425 360.298 490.183 358.259 489.062 355.981C487.951 353.713 486.95 351.145 486.76 348.297C486.53 345.469 486.98 342.521 486.76 339.494C486.66 337.985 486.32 336.476 485.679 335.037C485.049 333.598 484.188 332.239 483.267 330.87C482.346 329.511 481.355 328.132 480.514 326.633C479.663 325.144 478.953 323.476 478.793 321.667C478.372 318 480.514 314.582 479.984 310.975C479.724 309.187 478.853 307.518 477.812 305.959C476.771 304.39 475.55 302.891 474.529 301.203C472.457 297.815 471.466 293.858 470.725 289.901C469.964 285.934 469.434 281.837 467.952 277.97C467.212 276.042 466.281 274.163 465.02 272.504C463.778 270.835 462.177 269.427 460.305 268.477L460.726 268.247C460.716 268.367 460.696 268.487 460.686 268.617C460.445 270.766 460.045 272.864 459.785 274.952C459.514 277.041 459.414 279.129 459.504 281.208C459.554 282.227 459.615 283.306 459.765 284.275C459.985 285.245 460.395 286.194 460.776 287.143C461.576 289.032 462.397 290.93 462.958 292.899C463.588 294.857 463.758 296.906 463.959 298.874C464.169 300.853 464.369 302.811 464.579 304.75C465 308.607 465.26 312.464 466.811 315.812C467.582 317.48 468.603 319.019 469.354 320.698C470.134 322.377 470.475 324.215 470.555 325.984C470.735 329.531 470.255 332.989 471.195 336.126C472.126 339.254 474.118 341.872 475.119 344.84C476.19 347.837 475.72 350.935 475.269 353.673C474.809 356.431 474.348 359.119 474.929 361.567C475.45 364.035 477.181 365.824 478.282 367.792C478.853 368.762 479.263 369.821 479.403 370.87C479.553 371.919 479.543 372.928 479.583 373.878C479.623 374.827 479.674 375.746 479.964 376.546C480.244 377.335 480.805 377.965 481.375 378.484C482.566 379.483 483.847 380.093 484.969 380.533C486.1 380.962 487.101 381.202 487.911 381.352C488.722 381.502 489.353 381.532 489.783 381.542C490.183 381.532 490.404 381.542 490.404 381.542Z" fill="#263238"/>
<path d="M461.976 273.264C461.986 273.264 462.016 273.354 462.066 273.543C462.116 273.763 462.186 274.033 462.266 274.373C462.447 275.092 462.657 276.191 462.987 277.55C463.337 278.909 464.168 280.458 464.869 282.357C465.6 284.245 466.34 286.424 467.021 288.882C467.712 291.33 468.312 294.058 468.943 296.966C469.593 299.874 470.244 303.001 471.835 305.949C472.576 307.448 473.417 308.957 474.088 310.615C474.768 312.274 475.129 314.073 475.379 315.891C475.799 319.529 476.45 323.226 477.301 327.003C479.102 334.537 480.814 341.702 482.375 348.237C483.977 354.742 485.418 360.608 486.629 365.554C487.811 370.45 488.771 374.437 489.452 377.245C489.762 378.594 490.013 379.653 490.193 380.433C490.263 380.772 490.323 381.042 490.373 381.262C490.413 381.452 490.423 381.552 490.413 381.552C490.403 381.552 490.373 381.462 490.313 381.282C490.253 381.062 490.173 380.792 490.083 380.463C489.872 379.693 489.592 378.644 489.242 377.305C488.521 374.507 487.5 370.54 486.239 365.664C484.988 360.728 483.506 354.872 481.855 348.377C480.273 341.842 478.552 334.667 476.73 327.133C475.879 323.356 475.229 319.599 474.818 315.971C474.578 314.173 474.228 312.434 473.577 310.825C472.936 309.217 472.106 307.708 471.365 306.199C469.764 303.191 469.113 299.983 468.482 297.086C467.872 294.168 467.291 291.45 466.631 289.002C465.98 286.554 465.269 284.375 464.579 282.487C463.908 280.598 463.117 279.029 462.787 277.62C462.477 276.221 462.306 275.142 462.166 274.403C462.106 274.063 462.066 273.783 462.026 273.563C461.976 273.364 461.966 273.264 461.976 273.264Z" fill="#263238"/>
<path d="M488.782 381.562C482.796 377.965 481.135 367.143 483.677 360.648C486.22 354.153 490.634 348.227 491.355 341.292C491.905 335.956 490.183 330.471 491.465 325.264C493.186 318.24 500.093 312.824 500.063 305.589C500.043 301.532 497.751 297.695 497.961 293.648C498.211 288.672 502.065 284.755 504.457 280.388C508.12 273.703 508.401 265.779 509.682 258.265C510.963 250.751 513.876 242.717 520.582 239.06C521.533 245.445 523.195 249.831 522.614 258.475C522.404 261.583 518.761 267.508 518.23 274.313C517.91 278.38 517.689 282.457 517.409 286.524C517.149 290.481 516.869 294.518 515.417 298.215C514.306 301.053 512.545 303.621 511.714 306.549C510.162 312.054 512.124 318.04 510.863 323.626C509.792 328.352 506.489 332.409 505.788 337.215C504.807 343.96 509.141 350.995 506.869 357.42C505.738 360.608 503.096 363.156 502.325 366.453C501.734 369.011 502.345 371.719 501.804 374.287C500.944 378.404 493.006 381.842 488.782 381.562Z" fill="#ECB000"/>
<path d="M518.88 245.375C518.89 245.375 518.88 245.495 518.85 245.735C518.81 246.005 518.77 246.344 518.71 246.784C518.57 247.703 518.4 249.062 518.079 250.811C517.729 252.57 516.818 254.548 516.078 256.936C515.297 259.314 514.516 262.062 513.825 265.13C513.125 268.198 512.534 271.605 511.904 275.262C511.263 278.9 510.602 282.907 508.761 286.714C507.91 288.622 506.949 290.541 506.228 292.579C505.487 294.608 505.147 296.796 504.927 299.054C504.587 303.571 503.966 308.277 503.085 313.004C501.193 322.457 499.392 331.45 497.75 339.644C496.019 347.798 494.467 355.152 493.156 361.337C491.835 367.483 490.764 372.459 490.013 375.956C489.632 377.645 489.342 378.974 489.132 379.923C489.032 380.353 488.952 380.693 488.892 380.953C488.832 381.182 488.802 381.302 488.792 381.302C488.782 381.302 488.802 381.182 488.832 380.943C488.882 380.673 488.942 380.333 489.022 379.903C489.202 378.954 489.462 377.615 489.803 375.916C490.513 372.419 491.524 367.423 492.765 361.257C494.037 355.062 495.558 347.708 497.23 339.534C498.851 331.34 500.643 322.347 502.515 312.904C503.385 308.168 504.016 303.531 504.356 298.994C504.577 296.736 504.937 294.478 505.708 292.399C506.448 290.321 507.419 288.393 508.27 286.504C510.102 282.757 510.762 278.84 511.423 275.192C512.064 271.535 512.684 268.128 513.415 265.05C514.136 261.972 514.946 259.225 515.757 256.846C516.538 254.448 517.479 252.49 517.849 250.781C518.199 249.062 518.4 247.693 518.58 246.784C518.66 246.354 518.73 246.015 518.78 245.745C518.84 245.495 518.87 245.375 518.88 245.375Z" fill="#263238"/>
<path d="M208.015 340.163C209.947 342.851 213.631 341.921 215.322 340.253C217.024 338.584 217.724 336.176 218.355 333.888C219.806 328.651 221.278 323.156 220.107 317.84C219.756 316.251 219.146 314.672 218.015 313.503C216.884 312.334 215.152 311.644 213.581 312.074C211.719 312.584 210.578 314.412 209.767 316.161C207.355 321.277 206.103 326.933 206.144 332.588C206.164 335.236 206.504 338.004 208.015 340.163Z" fill="#ECB000"/>
<path d="M215.274 353.822C218.367 352.193 222.03 351.944 225.484 352.483C227.345 352.773 229.277 353.303 230.558 354.682C231.83 356.061 232.1 358.509 230.658 359.718C229.808 360.437 228.597 360.557 227.485 360.557C224.783 360.547 221.78 360.107 219.638 361.746C218.417 362.686 217.606 364.234 216.145 364.704C214.713 365.164 213.072 364.334 212.301 363.035C211.52 361.746 211.48 360.117 211.821 358.659C211.811 358.659 212.161 355.471 215.274 353.822Z" fill="#ECB000"/>
<path d="M202.831 344.11C204.873 341.642 205.233 338.074 204.283 335.017C203.332 331.959 201.23 329.371 198.827 327.273C195.995 324.804 192.682 322.896 189.128 321.687C187.727 321.207 186.255 320.837 184.784 320.997C183.313 321.147 181.841 321.917 181.171 323.236C180.17 325.174 181.171 327.512 182.242 329.411C184.123 332.758 186.276 335.966 188.668 338.974C190.59 341.402 192.792 343.79 195.694 344.859C198.597 345.938 201.6 345.779 203.111 343.76" fill="#ECB000"/>
<path d="M208.286 381.052C208.326 381.052 208.376 380.612 208.446 379.823C208.526 378.923 208.626 377.794 208.746 376.455C208.886 375.036 209.076 373.358 209.457 371.519C209.827 369.69 210.428 367.702 211.198 365.683C211.999 363.675 212.97 361.856 214.121 360.387C215.262 358.918 216.593 357.849 217.855 357.23C219.106 356.6 220.237 356.33 221.018 356.21C221.808 356.121 222.249 356.061 222.249 356.021C222.249 355.981 221.808 355.981 220.998 356.011C220.197 356.071 219.026 356.29 217.704 356.9C216.383 357.5 214.962 358.589 213.761 360.088C212.55 361.586 211.539 363.445 210.728 365.493C209.947 367.542 209.357 369.55 209.006 371.429C208.646 373.298 208.496 374.996 208.396 376.425C208.306 377.854 208.276 379.013 208.266 379.813C208.235 380.612 208.245 381.052 208.286 381.052Z" fill="#263238"/>
<path d="M208.486 378.464C208.506 378.464 208.516 378.264 208.516 377.894C208.506 377.464 208.506 376.925 208.496 376.255C208.476 374.836 208.456 372.788 208.506 370.25C208.586 365.184 208.956 358.179 209.727 350.475C210.508 342.771 211.569 335.846 212.54 330.87C212.77 329.621 213 328.501 213.22 327.522C213.431 326.533 213.611 325.684 213.781 325.004C213.931 324.355 214.051 323.835 214.151 323.415C214.231 323.046 214.261 322.856 214.241 322.846C214.221 322.846 214.161 323.026 214.051 323.385C213.931 323.795 213.781 324.315 213.591 324.954C213.391 325.634 213.18 326.483 212.94 327.462C212.69 328.441 212.43 329.561 212.179 330.81C211.108 335.776 209.987 342.721 209.207 350.435C208.436 358.149 208.126 365.174 208.136 370.25C208.126 372.788 208.206 374.846 208.286 376.265C208.336 376.925 208.376 377.464 208.406 377.894C208.446 378.274 208.476 378.464 208.486 378.464Z" fill="#263238"/>
<path d="M208.397 364.934C208.427 364.934 208.417 364.325 208.367 363.225C208.297 362.126 208.126 360.547 207.796 358.609C207.446 356.67 206.965 354.382 206.225 351.884C205.514 349.386 204.543 346.678 203.322 343.94C200.93 338.414 197.707 333.918 194.904 331.13C194.243 330.39 193.523 329.861 192.932 329.341C192.632 329.091 192.361 328.841 192.091 328.642C191.821 328.462 191.561 328.292 191.331 328.132C190.41 327.522 189.899 327.193 189.879 327.223C189.799 327.332 191.931 328.562 194.644 331.379C197.336 334.197 200.479 338.664 202.851 344.14C204.063 346.858 205.033 349.536 205.764 352.014C206.525 354.482 207.045 356.76 207.436 358.669C207.806 360.587 208.026 362.156 208.156 363.245C208.277 364.335 208.357 364.934 208.397 364.934Z" fill="#263238"/>
<path d="M438.455 102.163C437.184 100.824 433.591 99.9444 432.38 99.8645C431.158 99.7845 427.845 100.294 426.584 100.694C425.333 101.094 424.502 101.593 424.502 101.593C424.502 101.593 424.953 100.944 426.094 100.394C427.235 99.8345 429.167 99.3449 430.808 98.8752C432.45 98.4056 432.8 97.5063 432.89 96.9867C432.98 96.467 432.32 95.4378 431.719 94.8283C431.118 94.2188 429.767 92.8598 429.417 92.2402C429.066 91.6207 429.307 90.4716 429.587 89.4324C429.867 88.3931 429.667 87.224 429.407 86.5545C429.147 85.885 428.166 85.1756 427.195 84.9358C426.214 84.6959 423.791 85.0257 421.94 85.915C420.088 86.7944 418.506 87.9535 416.715 89.7221C414.923 91.4908 413.502 93.0896 412.471 95.258C411.44 97.4263 410.749 99.5247 410.579 100.094C410.459 100.484 410.339 101.503 410.279 102.093C409.458 101.843 408.697 101.593 409.378 101.763C409.398 101.463 409.208 100.484 409.288 99.9144C409.428 98.9552 410.139 96.7968 411.73 93.7291C413.322 90.6614 415.764 88.7329 415.764 88.7329C415.764 88.7329 415.734 88.2832 414.993 87.204C414.252 86.1249 413.672 83.8566 413.442 81.6382C413.211 79.4199 411.42 78.5006 410.389 78.2208C409.348 77.941 407.296 80.0494 406.685 82.4277C406.075 84.8158 405.955 90.0719 406.385 93.1795C406.755 95.8275 408.277 99.9344 408.717 101.094C408.657 101.064 408.587 101.034 408.507 101.014C408.367 100.974 408.227 100.974 408.097 100.984C407.986 100.684 407.606 100.914 407.686 101.114C407.646 101.134 407.606 101.164 407.566 101.193C407.486 101.054 407.216 101.453 407.256 101.543C407.216 101.613 407.176 101.693 407.156 101.783C406.996 102.373 407.346 102.972 407.926 103.132C408.257 103.222 408.597 103.142 408.857 102.952C409.007 103.392 409.238 103.991 409.738 104.411C410.379 104.961 412.211 105.8 412.801 106.21C413.392 106.619 414.463 107.599 415.303 108.528L416.535 108.578C417.846 109.247 420.028 110.247 422.35 110.866C426.054 111.845 431.829 112.355 434.211 112.005C436.594 111.656 438.746 110.237 439.606 108.168C440.467 106.1 439.727 103.502 438.455 102.163Z" fill="#B7B7C9"/>
<path opacity="0.3" d="M409.248 101.753L409.448 101.913C409.388 101.903 409.328 101.903 409.288 101.903C409.278 101.843 409.268 101.793 409.248 101.753Z" fill="#171751"/>
<path fill-rule="evenodd" clip-rule="evenodd" d="M407.435 101.064C407.646 100.854 407.876 100.684 408.136 100.534C408.196 100.494 408.236 100.504 408.306 100.554C408.927 101.064 409.557 101.563 410.178 102.073C410.749 102.532 411.319 103.002 411.9 103.472C412.53 103.981 413.171 104.501 413.811 105.011C414.422 105.5 415.023 106 415.633 106.489C416.084 106.859 416.544 107.229 416.994 107.589C417.405 107.928 417.825 108.258 418.236 108.598C418.746 109.008 419.267 109.427 419.777 109.837C420.047 110.057 420.318 110.267 420.588 110.486C420.628 110.526 420.638 110.566 420.638 110.616C420.718 111.366 420.798 112.125 420.878 112.875C420.948 113.524 421.018 114.174 421.088 114.823C421.108 114.993 421.108 114.993 420.948 114.973C420.398 114.903 419.847 114.833 419.297 114.763C418.646 114.683 417.985 114.603 417.335 114.513C417.125 114.483 416.914 114.463 416.714 114.433C416.654 114.423 416.614 114.393 416.584 114.344C416.034 113.634 415.483 112.925 414.922 112.215C414.382 111.526 413.841 110.836 413.301 110.147C412.78 109.477 412.26 108.808 411.739 108.138C411.289 107.559 410.839 106.989 410.388 106.409C409.978 105.88 409.557 105.35 409.147 104.821C408.717 104.261 408.276 103.702 407.846 103.152C407.525 102.742 407.215 102.343 406.895 101.933C406.855 101.873 406.845 101.833 406.885 101.773C407.025 101.513 407.205 101.273 407.435 101.064Z" fill="#171751"/>
<path fill-rule="evenodd" clip-rule="evenodd" d="M403.682 99.7145C403.572 99.1449 403.552 98.5953 403.712 98.0657C403.852 97.5961 404.193 97.3562 404.663 97.2663C405.143 97.1764 405.644 97.2063 406.144 97.3163C406.365 97.7359 406.595 98.1556 406.815 98.5753C406.955 98.8451 407.105 99.1149 407.255 99.3847C407.296 99.4447 407.296 99.4746 407.225 99.5146C406.665 99.8344 406.225 100.274 405.884 100.824C405.844 100.894 405.814 100.894 405.744 100.854C405.224 100.564 404.703 100.274 404.173 99.9842C404.002 99.9043 403.842 99.8044 403.682 99.7145Z" fill="#171751"/>
<path d="M236.223 166.235C235.902 165.465 235.352 165.255 234.431 163.936C233.5 162.617 233.71 161.118 233.79 159.67C233.861 158.221 235.983 157.091 237.474 155.962C238.965 154.833 241.528 154.853 241.528 154.853C241.528 154.853 240.937 154.553 239.906 154.364C238.875 154.164 238.315 154.334 236.413 154.593C234.511 154.853 232.749 154.224 230.828 152.935C228.906 151.646 228.986 149.347 228.285 147.359C227.585 145.37 225.743 144.691 224.962 142.962C224.191 141.233 224.552 139.235 225.903 137.616C227.254 135.997 233.03 136.537 236.673 138.366C240.307 140.194 246.392 144.911 248.544 147.499C249.816 149.028 251.067 150.816 251.868 152.035C251.968 151.835 252.068 151.666 252.158 151.536C252.088 151.486 252.018 151.436 251.948 151.376C251.567 150.966 251.587 150.327 251.998 149.947C252.028 149.917 253.759 151.066 253.379 151.426C253.339 151.456 253.309 151.486 253.269 151.516C253.429 151.676 253.609 151.885 253.749 152.105C253.95 151.176 254.21 150.037 254.3 149.597C254.46 148.818 255.571 145.95 256.582 144.201C257.583 142.463 258.844 139.405 259.305 137.326C259.765 135.238 261.617 130.971 263.308 128.763C265 126.555 267.572 125.675 268.623 126.604C269.674 127.534 269.554 130.022 268.894 132.33C268.243 134.638 267.953 136.247 268.203 138.695C268.443 141.144 267.532 145.57 266.992 146.749C266.441 147.928 263.218 149.877 262.357 150.107C261.497 150.337 260.586 150.606 260.586 150.606C260.586 150.606 260.836 150.866 261.717 150.716C262.598 150.556 263.669 150.317 264.429 150.416C265.19 150.506 266.311 151.656 266.642 153.254C266.982 154.853 265.711 157.032 265.16 158.261C264.61 159.49 265.35 160.089 264.5 162.278C263.639 164.466 262.688 165.305 262.688 165.305C262.688 165.305 262.087 165.285 261.757 165.595C261.427 165.905 261.447 166.604 261.447 166.604C261.447 166.604 261.016 166.245 260.736 166.324C260.456 166.404 260.276 166.884 260.276 166.884C260.276 166.884 259.965 166.554 259.595 166.584C259.225 166.614 259.205 167.174 259.205 167.174C259.205 167.174 258.914 166.724 258.764 166.604C258.604 166.484 258.244 166.864 258.244 166.864C258.244 166.864 257.893 167.104 257.083 166.295C256.282 165.485 255.721 163.457 255.231 161.408C254.961 160.279 254.5 159.31 254.15 158.67C254.1 158.98 254.04 159.23 253.98 159.41C253.769 160.099 254.04 160.959 254.12 161.468C254.2 161.978 254.65 162.897 254.68 164.026C254.71 165.155 254.27 165.975 253.809 166.005C253.349 166.035 253.019 165.305 252.929 164.686C252.839 164.056 252.999 162.517 253.149 161.438C253.259 160.669 252.989 159.67 252.668 158.88C252.208 159.729 251.577 161.068 251.117 162.707C250.326 165.545 249.936 166.934 248.615 168.623C247.283 170.311 246.332 169.772 246.332 169.772C246.332 169.772 245.752 169.292 244.881 169.652C244.01 170.012 244.06 170.641 244.06 170.641C244.06 170.641 243.57 170.072 243.109 170.012C242.649 169.952 242.258 170.491 242.258 170.491C242.258 170.491 241.768 169.972 241.268 169.862C240.767 169.752 240.497 170.132 240.497 170.132C240.497 170.132 240.217 169.592 239.626 169.202C239.035 168.813 238.685 169.012 238.685 169.012C238.685 169.012 238.515 169.302 237.504 168.323C236.493 167.324 236.543 167.004 236.223 166.235Z" fill="#B7B7C9"/>
<path fill-rule="evenodd" clip-rule="evenodd" d="M251.718 146.43C252.119 146.37 252.519 146.37 252.919 146.41C253.019 146.42 253.06 146.46 253.09 146.57C253.36 147.639 253.64 148.698 253.92 149.767C254.171 150.746 254.421 151.726 254.671 152.705C254.951 153.784 255.232 154.873 255.512 155.952C255.782 156.992 256.042 158.021 256.303 159.06C256.503 159.84 256.703 160.609 256.903 161.388C257.083 162.098 257.263 162.797 257.444 163.507C257.674 164.376 257.894 165.255 258.124 166.125C258.244 166.584 258.365 167.044 258.485 167.494C258.505 167.574 258.475 167.614 258.435 167.674C257.904 168.563 257.374 169.462 256.853 170.362C256.403 171.131 255.942 171.91 255.492 172.68C255.372 172.88 255.372 172.89 255.212 172.73C254.661 172.21 254.11 171.681 253.57 171.161C252.919 170.541 252.269 169.912 251.608 169.292C251.398 169.093 251.198 168.893 250.988 168.703C250.927 168.643 250.917 168.583 250.907 168.493C250.877 167.264 250.857 166.035 250.817 164.796C250.787 163.597 250.747 162.398 250.727 161.189C250.697 160.029 250.677 158.87 250.657 157.711C250.637 156.712 250.607 155.713 250.577 154.703C250.557 153.784 250.537 152.865 250.507 151.946C250.487 150.976 250.467 150.007 250.437 149.038C250.417 148.328 250.397 147.629 250.377 146.919C250.377 146.819 250.407 146.769 250.487 146.739C250.897 146.59 251.298 146.48 251.718 146.43Z" fill="#171751"/>
<path fill-rule="evenodd" clip-rule="evenodd" d="M248.684 141.893C249.024 141.184 249.454 140.554 250.065 140.094C250.605 139.695 251.176 139.705 251.757 139.984C252.367 140.274 252.888 140.714 253.338 141.243C253.238 141.883 253.148 142.533 253.048 143.172C252.988 143.592 252.928 144.001 252.868 144.421C252.858 144.521 252.828 144.551 252.727 144.541C251.847 144.441 250.996 144.561 250.175 144.891C250.075 144.931 250.045 144.901 250.005 144.811C249.665 144.061 249.324 143.322 248.994 142.572C248.884 142.353 248.784 142.123 248.684 141.893Z" fill="#171751"/>
<path d="M155.167 187.289C154.867 187.069 152.975 187.598 151.183 188.708C149.391 189.817 145.888 192.734 144.687 193.974C143.486 195.213 141.664 197.161 140.443 198.34C139.232 199.519 138.521 200.479 138.091 200.768C138.071 200.778 138.051 200.798 138.021 200.818C138.011 200.698 138.011 200.619 138.011 200.619C138.011 200.619 138.341 200.499 138.421 200.269C138.461 200.149 138.481 199.969 138.451 199.809C138.001 199.809 137.69 199.599 137.5 199.319C137.47 199.329 137.44 199.329 137.42 199.349C137.25 199.429 137.08 199.699 137.06 199.869C137.04 200.039 137.14 200.249 137.14 200.249C137.14 200.249 136.99 200.299 136.85 200.369C136.9 199.839 136.97 198.94 136.98 197.961C137 196.402 137.06 192.924 136.589 190.566C136.119 188.208 134.537 184.77 133.807 183.781C133.076 182.792 132.606 182.352 132.235 182.382C131.855 182.412 131.174 183.422 130.864 184.301C130.544 185.18 130.323 186.629 129.593 187.658C128.872 188.688 127.761 189.697 127.471 190.176C127.18 190.656 127.26 191.405 127.641 191.825C128.021 192.245 128.962 192.685 129.593 193.374C130.223 194.063 130.373 194.703 130.373 194.703C130.373 194.703 128.822 193.654 127.891 193.734C126.96 193.824 125.959 193.984 125.159 194.453C124.358 194.913 124.368 195.083 124.368 195.083C124.368 195.083 124.588 195.422 124.148 195.932C123.697 196.442 123.267 196.751 123.207 197.161C123.137 197.571 123.327 198.18 123.207 198.45C123.087 198.72 122.696 199 122.756 199.749C122.816 200.499 123.006 201.428 123.197 202.117C123.397 202.797 123.627 203.536 123.627 203.536C123.627 203.536 123.797 203.556 123.847 203.786C123.897 204.006 123.847 204.296 123.847 204.296C123.847 204.296 124.138 204.316 124.318 204.715C124.498 205.115 124.428 205.575 124.428 205.575C124.428 205.575 124.768 205.415 124.938 205.675C125.108 205.925 125.118 206.354 125.118 206.354C125.118 206.354 125.409 206.074 125.639 206.214C125.879 206.354 126.009 206.854 126.009 206.854C126.009 206.854 126.24 206.634 126.41 206.734C126.58 206.844 126.68 207.283 126.68 207.283C126.68 207.283 127.18 206.984 127.451 207.044C127.721 207.094 127.851 207.543 127.851 207.543C127.851 207.543 128.682 207.623 129.523 206.884C130.363 206.144 131.815 205.095 132.535 204.815C133.006 204.625 133.927 204.326 134.507 204.136C134.407 204.366 134.327 204.566 134.257 204.695C134.047 205.115 133.416 205.615 133.216 205.725C133.016 205.845 132.706 206.224 132.445 206.714C132.195 207.204 131.955 207.603 131.875 207.773C131.875 207.773 131.795 207.923 131.795 208.003C131.795 208.083 131.905 208.253 131.905 208.253C132.175 208.473 132.876 207.823 133.146 207.403C133.406 206.984 133.887 206.834 134.087 206.254C134.287 205.675 134.637 205.365 134.778 205.115C134.838 205.005 135.068 204.805 135.368 204.536C135.238 205.135 134.978 206.184 134.567 207.044C133.947 208.323 133.376 209.792 133.376 209.792C133.376 209.792 133.506 209.872 133.526 209.981C133.546 210.091 133.486 210.341 133.486 210.341C133.486 210.341 133.586 210.271 133.727 210.321C133.867 210.361 133.897 210.641 133.897 210.641C133.897 210.641 134.127 210.441 134.197 210.471C134.267 210.511 134.327 210.761 134.327 210.761C134.327 210.761 134.477 210.491 134.748 210.391C135.018 210.301 135.388 210.431 135.388 210.431C135.388 210.431 135.478 210.081 135.698 210.001C135.919 209.911 136.529 209.901 136.529 209.901C136.529 209.901 138.661 208.253 139.372 207.693C140.073 207.134 141.234 206.014 142.135 205.005C143.025 203.996 144.036 202.787 144.497 202.017C144.947 201.248 145.238 200.109 145.117 199.739C144.987 199.379 144.237 199.11 144.237 199.11C144.237 199.11 144.847 198.68 145.678 198.67C146.509 198.67 147.5 198.42 147.95 197.561C148.411 196.711 149.492 195.023 150.392 193.844C151.293 192.665 153.325 190.126 154.096 189.367C154.837 188.598 155.467 187.498 155.167 187.289Z" fill="#B7B7C9"/>
<path fill-rule="evenodd" clip-rule="evenodd" d="M138.02 199.13C138.23 199.27 138.42 199.44 138.591 199.629C138.631 199.679 138.631 199.709 138.601 199.769C138.27 200.389 137.95 200.998 137.62 201.618C137.319 202.188 137.019 202.747 136.719 203.317C136.388 203.946 136.058 204.566 135.728 205.195C135.408 205.795 135.087 206.394 134.767 206.984C134.527 207.434 134.296 207.883 134.056 208.333C133.836 208.743 133.626 209.152 133.406 209.562C133.135 210.072 132.875 210.571 132.605 211.081C132.465 211.351 132.325 211.61 132.184 211.88C132.164 211.92 132.124 211.93 132.084 211.94C131.454 212.13 130.823 212.33 130.193 212.52C129.652 212.69 129.112 212.859 128.561 213.029C128.421 213.069 128.421 213.079 128.401 212.939C128.371 212.46 128.331 211.98 128.301 211.501C128.261 210.931 128.221 210.361 128.181 209.792C128.171 209.612 128.161 209.432 128.141 209.252C128.141 209.202 128.161 209.162 128.191 209.122C128.701 208.533 129.222 207.943 129.732 207.354C130.233 206.774 130.723 206.205 131.224 205.625C131.704 205.065 132.194 204.516 132.675 203.966C133.095 203.487 133.506 203.007 133.926 202.527C134.306 202.088 134.697 201.648 135.077 201.208C135.478 200.749 135.888 200.279 136.288 199.819C136.579 199.48 136.879 199.14 137.169 198.8C137.209 198.75 137.249 198.74 137.299 198.76C137.56 198.85 137.8 198.97 138.02 199.13Z" fill="#171751"/>
<path fill-rule="evenodd" clip-rule="evenodd" d="M138.531 195.712C138.991 195.522 139.462 195.413 139.942 195.453C140.363 195.492 140.633 195.742 140.783 196.122C140.943 196.522 141.003 196.941 140.983 197.391C140.663 197.651 140.343 197.911 140.022 198.17C139.812 198.34 139.612 198.51 139.402 198.68C139.352 198.72 139.332 198.73 139.282 198.68C138.911 198.26 138.461 197.951 137.94 197.761C137.88 197.741 137.87 197.711 137.89 197.651C138.05 197.161 138.211 196.662 138.371 196.172C138.431 196.012 138.481 195.862 138.531 195.712Z" fill="#171751"/>
<path d="M467.674 216.147C467.564 215.597 467.264 215.058 467.264 215.058C467.264 215.058 467.754 214.328 467.864 213.788C467.984 213.259 467.924 212.539 467.924 212.539C467.924 212.539 468.555 211.74 468.775 211.091C468.995 210.441 468.915 210.071 468.915 210.071C468.915 210.071 469.556 209.622 470.287 209.132C471.017 208.632 471.708 207.633 472.509 206.904C473.319 206.164 475.091 205.685 476.192 205.745C477.283 205.815 478.544 207.593 478.544 207.593C478.544 207.593 477.814 206.184 477.533 205.095C477.253 204.006 477.533 202.867 478.174 201.977C478.825 201.088 480.516 200.009 481.357 199.14C482.198 198.27 482.999 196.232 483.929 194.873C484.86 193.504 487.253 192.425 487.833 192.145C488.414 191.865 489.305 192.515 489.405 193.923C489.495 195.332 489.265 199.359 488.414 202.227C487.563 205.105 485.351 207.993 484.22 210.131C483.579 211.34 483.389 212.18 483.339 212.689C483.489 212.519 483.629 212.39 483.769 212.3C483.639 212.869 483.729 213.549 483.829 214.178C483.309 214.548 482.718 214.928 482.338 215.267C481.737 215.807 481.397 216.476 480.706 216.876C480.016 217.276 479.365 217.706 478.925 218.405C478.875 218.485 478.825 218.565 478.775 218.645C478.134 218.635 477.513 218.635 476.883 218.755C476.983 218.625 477.103 218.495 477.233 218.365C477.123 218.365 477.003 218.355 476.873 218.355C476.232 218.325 474.941 218.555 473.58 219.214C472.218 219.874 470.757 220.354 469.706 220.374C468.655 220.394 468.365 219.564 468.365 219.564C468.365 219.564 468.605 219.005 468.255 218.375C467.904 217.745 467.504 217.346 467.504 217.346C467.504 217.346 467.784 216.696 467.674 216.147Z" fill="#B7B7C9"/>
<path d="M481.427 197.771C481.117 198.23 480.717 198.62 480.326 198.97C479.946 199.32 479.315 199.779 478.785 200.219C478.254 200.659 477.944 200.978 477.594 201.428C477.243 201.878 476.903 202.737 476.843 203.347C476.793 203.956 476.883 204.376 477.033 204.905C477.173 205.435 477.404 205.945 477.404 205.945C477.404 205.945 476.953 205.475 476.393 205.165C475.832 204.855 475.041 204.925 474.241 205.085C473.45 205.245 473.019 205.495 473.019 205.495C473.019 205.495 472.689 205.435 471.968 204.726C471.248 204.016 470.927 203.217 471.158 202.158C471.388 201.098 472.869 200.219 474.361 198.97C475.862 197.711 475.532 196.732 476.252 195.722C476.973 194.713 478.515 194.473 479.195 194.044C479.876 193.624 480.847 193.994 481.267 194.703C481.698 195.413 481.738 197.021 481.738 197.021C481.738 197.021 481.728 197.311 481.427 197.771Z" fill="#B7B7C9"/>
<path d="M464.561 215.877C464.331 215.247 463.64 214.688 463.64 214.688C463.64 214.688 463.93 214.598 463.91 213.848C463.88 213.109 463.59 212.759 463.59 212.759C463.59 212.759 463.88 212.49 464 211.96C464.12 211.43 463.68 210.911 463.68 210.911C463.68 210.911 464.15 210.451 464.351 210.011C464.561 209.572 464.361 209.102 464.361 209.102C464.361 209.102 464.481 208.662 464.811 208.053C465.141 207.443 466.042 207.333 466.573 206.914C467.103 206.494 467.193 205.914 467.734 205.595C468.284 205.275 469.515 205.535 470.356 205.515C471.187 205.505 472.078 206.164 472.078 206.164C472.078 206.164 471.968 206.314 471.688 206.534C471.417 206.754 471.057 207.194 470.727 207.623C470.396 208.053 469.706 208.463 469.275 208.772C468.845 209.092 468.324 209.452 468.324 209.452C468.324 209.452 468.334 210.121 468.034 210.861C467.734 211.6 467.323 211.92 467.323 211.92C467.323 211.92 467.403 212.549 467.223 213.329C467.043 214.108 466.613 214.558 466.613 214.558C466.613 214.558 466.933 215.147 467.043 215.737C467.153 216.327 466.863 216.876 466.863 216.876C466.863 216.876 467.063 217.116 467.183 217.236C467.293 217.356 467.564 217.726 467.724 218.075C467.884 218.435 467.734 219.035 467.734 219.035C467.734 219.035 467.003 218.465 466.673 218.255C466.342 218.045 465.782 218.105 465.241 217.845C464.701 217.586 464.721 217.066 464.721 217.066C464.721 217.066 464.791 216.506 464.561 215.877Z" fill="#B7B7C9"/>
<path fill-rule="evenodd" clip-rule="evenodd" d="M486.512 209.232C486.302 209.022 486.062 208.842 485.801 208.692C485.741 208.652 485.691 208.662 485.631 208.712C485.001 209.222 484.36 209.741 483.729 210.251C483.149 210.721 482.568 211.2 481.988 211.67C481.347 212.19 480.697 212.709 480.056 213.229C479.445 213.728 478.825 214.228 478.214 214.728C477.754 215.097 477.293 215.477 476.833 215.847C476.413 216.186 475.992 216.526 475.572 216.866C475.051 217.286 474.531 217.705 474.01 218.125C473.74 218.345 473.47 218.565 473.189 218.785C473.139 218.824 473.139 218.864 473.139 218.914C473.059 219.674 472.979 220.443 472.899 221.203C472.829 221.862 472.759 222.522 472.679 223.181C472.659 223.351 472.659 223.361 472.819 223.341C473.38 223.271 473.93 223.201 474.491 223.131C475.151 223.051 475.812 222.961 476.483 222.881C476.693 222.851 476.903 222.831 477.113 222.801C477.173 222.791 477.213 222.762 477.253 222.712C477.814 221.992 478.374 221.273 478.935 220.553C479.485 219.854 480.036 219.154 480.587 218.455C481.117 217.775 481.637 217.096 482.168 216.416C482.628 215.827 483.089 215.247 483.539 214.668C483.96 214.128 484.38 213.588 484.8 213.049C485.241 212.479 485.681 211.92 486.122 211.35C486.442 210.94 486.762 210.531 487.093 210.121C487.133 210.061 487.143 210.021 487.103 209.961C486.933 209.691 486.742 209.442 486.512 209.232Z" fill="#171751"/>
<path fill-rule="evenodd" clip-rule="evenodd" d="M490.326 207.863C490.436 207.293 490.466 206.724 490.296 206.184C490.156 205.704 489.806 205.465 489.335 205.375C488.845 205.285 488.344 205.315 487.834 205.425C487.603 205.854 487.383 206.274 487.153 206.704C487.003 206.983 486.863 207.253 486.713 207.523C486.673 207.593 486.673 207.623 486.743 207.663C487.313 207.993 487.764 208.432 488.104 208.992C488.144 209.062 488.174 209.062 488.244 209.022C488.775 208.722 489.305 208.432 489.836 208.143C489.996 208.053 490.156 207.963 490.326 207.863Z" fill="#171751"/>
</svg>
