<svg width="451" height="389" viewBox="0 0 451 389" fill="none" xmlns="http://www.w3.org/2000/svg">
<path d="M53.5105 364.01C54.3805 360.57 52.1005 357.13 49.5605 354.65C47.0205 352.17 43.9905 349.95 42.6505 346.66C40.4905 341.33 43.3105 334.4 39.6505 329.96C37.5005 327.35 33.6605 326.49 31.7505 323.7C30.7505 322.24 30.4105 320.43 30.0105 318.7C27.9705 309.88 23.5005 301.64 17.2305 295.11C16.8405 302.97 18.6205 310.94 22.3205 317.89C23.8105 320.68 25.6305 323.41 26.1405 326.53C26.9605 331.6 24.1605 336.85 25.4305 341.83C26.8905 347.52 33.3205 351.31 33.6505 357.17C33.9305 362.13 29.6305 366.51 29.9805 371.47C30.1305 373.58 31.1205 375.54 32.2205 377.34C36.0905 383.7 41.7605 388.06 50.3005 387.87L60.7705 388.18L53.5105 364.01Z" fill="#F5F5F5"/>
<path d="M62.9109 388.45C62.9109 388.45 63.9109 388.68 65.7909 388.37C66.7309 388.23 67.8809 387.97 69.1909 387.49C70.4909 387.01 71.9709 386.32 73.3809 385.17C74.0609 384.57 74.7309 383.83 75.0909 382.86C75.4509 381.89 75.5009 380.82 75.5709 379.73C75.6209 378.64 75.6109 377.5 75.7909 376.34C75.9609 375.19 76.4109 374.05 77.0509 372.97C78.2709 370.8 80.3109 368.73 80.9509 365.78C81.6509 362.88 81.1209 359.75 80.6109 356.61C80.1109 353.47 79.6209 350.05 80.8009 346.78C81.9009 343.5 84.1809 340.53 85.3109 336.84C86.4309 333.11 85.8809 329.1 86.1009 325.15C86.2009 323.16 86.5709 321.18 87.4309 319.33C88.2709 317.47 89.4309 315.72 90.3409 313.76C92.1809 309.81 92.4809 305.34 92.9609 300.95C93.2009 298.74 93.4309 296.51 93.6709 294.26C93.9109 292 94.0909 289.74 94.7909 287.56C95.4209 285.36 96.3409 283.24 97.2609 281.07C97.7109 279.98 98.1809 278.89 98.4609 277.68C98.6609 276.45 98.7109 275.29 98.7809 274.08C98.8809 271.68 98.7709 269.25 98.4609 266.84C98.1609 264.43 97.7109 262.03 97.4409 259.62C97.4209 259.48 97.4109 259.33 97.3909 259.2L97.3309 258.72L96.9009 258.94C94.6709 260.07 92.7609 261.76 91.2909 263.73C89.8009 265.69 88.7209 267.89 87.8609 270.13C86.1409 274.64 85.5309 279.35 84.6809 283.85C83.8509 288.35 82.7409 292.78 80.4509 296.53C79.3109 298.4 77.9409 300.11 76.7309 301.93C75.5309 303.74 74.4709 305.73 74.1709 307.91C73.5809 312.34 76.0409 316.22 75.5509 320.14C75.3809 322.09 74.6209 323.91 73.6709 325.58C72.7309 327.26 71.6209 328.81 70.5709 330.38C69.5209 331.94 68.5209 333.53 67.7909 335.22C67.0409 336.91 66.6409 338.71 66.5309 340.47C66.2909 344 66.8109 347.35 66.5709 350.51C66.3809 353.68 65.2809 356.55 64.0409 359.13C62.7909 361.71 61.3909 364.05 60.2309 366.31C59.6409 367.44 59.1009 368.55 58.6609 369.65C58.1909 370.76 57.9709 371.89 57.7609 372.96C57.4309 375.13 57.4709 377.15 57.7209 378.93C58.2009 382.51 59.5509 385.09 60.7609 386.53C61.0409 386.92 61.3609 387.19 61.6109 387.44C61.8609 387.7 62.1009 387.88 62.3009 388.02C62.7009 388.32 62.9109 388.45 62.9109 388.45C62.9609 388.4 62.0509 387.92 60.8709 386.46C59.7109 385.01 58.4209 382.45 57.9909 378.91C57.7709 377.15 57.7509 375.15 58.0909 373.02C58.3009 371.97 58.5309 370.86 59.0009 369.78C59.4409 368.7 59.9909 367.6 60.5809 366.48C61.7609 364.24 63.1709 361.91 64.4409 359.31C65.7109 356.72 66.8509 353.79 67.0609 350.54C67.3209 347.31 66.8109 343.95 67.0609 340.51C67.1709 338.79 67.5709 337.07 68.2909 335.43C69.0109 333.79 69.9909 332.23 71.0409 330.68C72.0909 329.13 73.2109 327.56 74.1809 325.85C75.1509 324.15 75.9609 322.25 76.1509 320.18C76.6309 316 74.1909 312.1 74.7909 307.98C75.0809 305.94 76.0809 304.04 77.2709 302.26C78.4509 300.47 79.8409 298.76 81.0109 296.84C83.3709 292.98 84.4909 288.47 85.3409 283.95C86.2009 279.42 86.8109 274.75 88.5009 270.34C89.3409 268.15 90.4009 266 91.8409 264.11C93.2509 262.21 95.0809 260.6 97.2109 259.52L96.7309 259.26C96.7509 259.39 96.7609 259.54 96.7809 259.68C97.0609 262.13 97.5109 264.52 97.8009 266.91C98.1109 269.29 98.2209 271.68 98.1209 274.04C98.0609 275.21 97.9909 276.43 97.8209 277.53C97.5709 278.63 97.1109 279.72 96.6609 280.8C95.7509 282.96 94.8209 285.12 94.1709 287.36C93.4609 289.59 93.2609 291.93 93.0309 294.17C92.7909 296.42 92.5609 298.66 92.3309 300.87C91.8509 305.27 91.5509 309.67 89.7809 313.49C88.9109 315.39 87.7409 317.15 86.8809 319.07C85.9909 320.98 85.6009 323.08 85.5109 325.1C85.3009 329.14 85.8509 333.09 84.7809 336.67C83.7209 340.24 81.4509 343.22 80.3109 346.6C79.0909 350.02 79.6309 353.55 80.1409 356.68C80.6609 359.83 81.1909 362.89 80.5309 365.68C79.9409 368.49 77.9609 370.54 76.7209 372.78C76.0709 373.89 75.6109 375.09 75.4409 376.29C75.2609 377.48 75.2809 378.63 75.2409 379.72C75.1909 380.8 75.1409 381.86 74.8109 382.76C74.4909 383.67 73.8509 384.38 73.2009 384.97C71.8409 386.11 70.3909 386.81 69.1109 387.31C67.8309 387.8 66.6909 388.08 65.7609 388.24C64.8309 388.41 64.1109 388.44 63.6309 388.46C63.1609 388.44 62.9109 388.45 62.9109 388.45Z" fill="#E0E0E0"/>
<path d="M95.271 264.97C95.261 264.97 95.231 265.08 95.171 265.29C95.111 265.54 95.041 265.85 94.941 266.23C94.741 267.06 94.501 268.3 94.111 269.86C93.711 271.41 92.771 273.17 91.971 275.34C91.141 277.49 90.301 279.98 89.521 282.78C88.741 285.57 88.051 288.68 87.331 292C86.591 295.32 85.851 298.88 84.041 302.24C83.191 303.94 82.241 305.67 81.481 307.56C80.701 309.45 80.291 311.51 80.011 313.57C79.531 317.72 78.791 321.93 77.831 326.24C75.781 334.83 73.831 343.01 72.051 350.46C70.231 357.88 68.591 364.57 67.201 370.21C65.851 375.8 64.761 380.34 63.991 383.54C63.631 385.08 63.351 386.29 63.151 387.17C63.071 387.55 63.001 387.87 62.951 388.12C62.911 388.33 62.891 388.45 62.901 388.45C62.911 388.45 62.951 388.35 63.011 388.14C63.081 387.89 63.171 387.59 63.281 387.21C63.511 386.33 63.841 385.13 64.241 383.61C65.061 380.42 66.231 375.9 67.661 370.33C69.081 364.7 70.771 358.02 72.651 350.61C74.451 343.16 76.421 334.98 78.491 326.39C79.461 322.08 80.201 317.79 80.671 313.66C80.951 311.61 81.341 309.62 82.091 307.79C82.821 305.95 83.761 304.23 84.611 302.51C86.431 299.08 87.181 295.42 87.891 292.11C88.591 288.78 89.251 285.68 90.001 282.89C90.741 280.1 91.541 277.61 92.341 275.46C93.101 273.3 94.011 271.52 94.381 269.92C94.731 268.33 94.931 267.09 95.091 266.25C95.151 265.86 95.211 265.55 95.251 265.29C95.271 265.08 95.291 264.97 95.271 264.97Z" fill="#E0E0E0"/>
<path d="M64.7506 388.47C71.5606 384.37 73.4506 372.02 70.5606 364.62C67.6706 357.21 62.6406 350.46 61.8206 342.55C61.1906 336.47 63.1506 330.21 61.7006 324.27C59.7406 316.26 51.8706 310.08 51.9106 301.83C51.9306 297.2 54.5406 292.83 54.3106 288.21C54.0206 282.54 49.6406 278.06 46.9206 273.08C42.7506 265.46 42.4306 256.41 40.9706 247.85C39.5106 239.28 36.1906 230.12 28.5706 225.95C27.4906 233.24 25.6006 238.23 26.2606 248.09C26.5006 251.63 30.6506 258.39 31.2506 266.15C31.6106 270.79 31.8706 275.43 32.1806 280.08C32.4806 284.6 32.8006 289.2 34.4406 293.41C35.7006 296.64 37.7106 299.57 38.6506 302.91C40.4206 309.19 38.1806 316.02 39.6206 322.39C40.8406 327.78 44.6006 332.41 45.4006 337.88C46.5206 345.57 41.5806 353.59 44.1706 360.92C45.4606 364.56 48.4706 367.46 49.3406 371.22C50.0206 374.13 49.3106 377.23 49.9306 380.16C50.9206 384.88 59.9506 388.49 64.7606 388.17" fill="#E0E0E0"/>
<path d="M30.4901 233.16C30.4801 233.16 30.4901 233.3 30.5201 233.57C30.5601 233.88 30.6101 234.27 30.6801 234.77C30.8401 235.82 31.0301 237.36 31.3901 239.36C31.7801 241.37 32.8301 243.62 33.6701 246.34C34.5601 249.05 35.4401 252.18 36.2301 255.69C37.0301 259.19 37.7001 263.07 38.4101 267.25C39.1401 271.39 39.8901 275.97 41.9901 280.31C42.9601 282.49 44.0501 284.67 44.8701 287C45.7101 289.32 46.1101 291.81 46.3501 294.38C46.7301 299.54 47.4501 304.89 48.4501 310.29C50.6101 321.07 52.6601 331.33 54.5301 340.67C56.5001 349.97 58.2701 358.36 59.7601 365.41C61.2701 372.42 62.4901 378.1 63.3401 382.08C63.7701 384.01 64.1101 385.53 64.3501 386.61C64.4701 387.1 64.5601 387.48 64.6301 387.78C64.7001 388.04 64.7401 388.18 64.7501 388.18C64.7601 388.18 64.7401 388.04 64.7001 387.77C64.6501 387.47 64.5801 387.08 64.4901 386.58C64.2801 385.5 63.9801 383.97 63.6101 382.03C62.8001 378.04 61.6501 372.34 60.2401 365.32C58.7901 358.25 57.0701 349.86 55.1501 340.55C53.3001 331.21 51.2601 320.95 49.1301 310.18C48.1301 304.78 47.4201 299.49 47.0301 294.32C46.7801 291.74 46.3701 289.17 45.5001 286.79C44.6501 284.41 43.5501 282.23 42.5801 280.06C40.5001 275.79 39.7501 271.32 38.9901 267.16C38.2601 262.99 37.5501 259.1 36.7201 255.59C35.9001 252.08 34.9801 248.94 34.0501 246.23C33.1701 243.5 32.0901 241.27 31.6701 239.31C31.2701 237.35 31.0401 235.79 30.8301 234.76C30.7401 234.27 30.6601 233.88 30.6001 233.58C30.5401 233.29 30.5001 233.16 30.4901 233.16Z" fill="#EBEBEB"/>
<path d="M16.4199 39.0999L93.5499 37.3599C93.5499 37.3599 86.4499 25.0999 66.6399 27.3599C47.7199 29.5099 46.5799 21.6999 36.9199 20.9599C27.2499 20.2099 19.3799 27.7799 16.4199 39.0999Z" fill="#F5F5F5"/>
<path d="M377.01 80.81H449.67C449.67 80.81 443.24 69.12 424.54 70.82C406.68 72.45 405.77 65.07 396.69 64.16C387.61 63.25 380.04 70.21 377.01 80.81Z" fill="#F5F5F5"/>
<path d="M377.08 117.47H413.34C413.34 117.47 410.13 111.64 400.8 112.48C391.89 113.29 391.43 109.61 386.9 109.16C382.37 108.71 378.59 112.18 377.08 117.47Z" fill="#F5F5F5"/>
<path d="M358.95 17.11H395.21C395.21 17.11 392 11.28 382.67 12.12C373.76 12.93 373.3 9.25001 368.77 8.80001C364.24 8.35001 360.46 11.82 358.95 17.11Z" fill="#FAFAFA"/>
<path d="M450.87 388.53C450.87 388.67 349.93 388.79 225.45 388.79C100.92 388.79 0 388.68 0 388.53C0 388.38 100.92 388.27 225.45 388.27C349.93 388.27 450.87 388.39 450.87 388.53Z" fill="#263238"/>
<path d="M280.16 351.86L276.59 372.44C276.59 372.44 254.47 375.72 253.44 379.46L293.1 387.82L299.98 355.98L280.16 351.86Z" fill="#ECB000"/>
<g opacity="0.6">
<path opacity="0.6" d="M289.211 373.31C289.931 373.68 290.281 374.66 289.941 375.39C289.601 376.13 288.611 376.49 287.881 376.13C287.151 375.77 286.701 374.61 287.121 373.92C287.541 373.22 288.731 372.86 289.351 373.39" fill="white"/>
</g>
<path opacity="0.6" d="M293.1 387.82L293.79 384.64L255.43 377.78C255.43 377.78 253.5 378.18 253.44 379.46L293.1 387.82Z" fill="white"/>
<path d="M275.99 372.11C275.96 372.31 276.91 372.6 277.73 373.42C278.57 374.22 278.89 375.16 279.08 375.13C279.27 375.13 279.22 373.91 278.21 372.93C277.2 371.94 275.98 371.92 275.99 372.11Z" fill="#263238"/>
<path d="M271.471 372.95C271.391 373.13 272.161 373.63 272.641 374.59C273.151 375.53 273.131 376.45 273.331 376.49C273.511 376.56 273.881 375.45 273.251 374.27C272.631 373.09 271.511 372.77 271.471 372.95Z" fill="#263238"/>
<path d="M268.05 377.43C268.22 377.51 268.69 376.6 268.42 375.43C268.15 374.26 267.33 373.65 267.21 373.8C267.07 373.94 267.54 374.63 267.75 375.59C267.98 376.55 267.87 377.37 268.05 377.43Z" fill="#263238"/>
<path d="M277.321 367.51C277.361 367.7 278.311 367.62 279.391 367.93C280.481 368.21 281.251 368.76 281.391 368.62C281.531 368.5 280.851 367.61 279.581 367.27C278.301 366.91 277.261 367.34 277.321 367.51Z" fill="#263238"/>
<path opacity="0.3" d="M279.461 355.94L278.811 359.61L298.341 363.54L299.061 360.26L279.461 355.94Z" fill="black"/>
<path d="M278.121 363.37C278.101 363.45 278.841 363.73 280.111 363.78C280.741 363.8 281.501 363.75 282.321 363.58C282.731 363.49 283.161 363.37 283.591 363.22C283.801 363.14 284.041 363.07 284.291 362.88C284.551 362.72 284.781 362.24 284.601 361.87C284.461 361.52 284.131 361.32 283.841 361.25C283.551 361.18 283.301 361.19 283.071 361.2C282.611 361.21 282.161 361.27 281.751 361.36C280.921 361.54 280.211 361.85 279.671 362.18C278.571 362.84 278.101 363.5 278.161 363.55C278.231 363.63 278.811 363.12 279.891 362.61C280.431 362.36 281.101 362.12 281.871 361.99C282.251 361.92 282.661 361.88 283.081 361.88C283.521 361.86 283.881 361.93 283.951 362.14C283.971 362.22 283.971 362.25 283.861 362.35C283.751 362.44 283.551 362.52 283.351 362.6C282.951 362.75 282.561 362.88 282.171 362.98C281.411 363.18 280.691 363.27 280.091 363.31C278.901 363.37 278.141 363.26 278.121 363.37Z" fill="#263238"/>
<path d="M278.31 363.7C278.37 363.74 278.9 363.13 279.24 361.89C279.4 361.27 279.5 360.51 279.43 359.66C279.39 359.24 279.31 358.79 279.18 358.35C279.03 357.91 278.86 357.32 278.12 357.08C277.73 356.98 277.34 357.22 277.17 357.46C276.98 357.7 276.91 357.93 276.81 358.15C276.64 358.6 276.55 359.05 276.53 359.49C276.48 360.36 276.67 361.14 276.95 361.72C277.51 362.91 278.27 363.31 278.3 363.25C278.39 363.17 277.79 362.65 277.4 361.54C277.21 360.99 277.09 360.29 277.16 359.54C277.2 359.16 277.29 358.78 277.44 358.4C277.59 357.99 277.82 357.68 277.97 357.76C278.17 357.8 278.44 358.19 278.53 358.56C278.66 358.96 278.74 359.36 278.8 359.74C278.9 360.51 278.86 361.22 278.77 361.8C278.57 362.97 278.21 363.65 278.31 363.7Z" fill="#263238"/>
<path d="M410.481 353.12L401.901 341.92L401.451 341.34L386.841 352.21L400.371 367.07L399.881 382.11C392.341 384.06 391.211 387.82 391.211 387.82L406.871 387.8L421.101 360.39L410.481 353.12Z" fill="#ECB000"/>
<path opacity="0.6" d="M421.101 360.4L406.881 387.81L391.211 387.82L392.971 385.47L405.711 384.75L418.841 358.85L421.101 360.4Z" fill="white"/>
<path d="M399.981 375.22C400.101 375.38 401.001 374.87 402.211 374.9C403.421 374.9 404.311 375.44 404.431 375.28C404.581 375.16 403.691 374.22 402.221 374.21C400.741 374.18 399.831 375.09 399.981 375.22Z" fill="#263238"/>
<path d="M400.231 371.49C400.391 371.6 401.081 370.68 402.331 370.43C403.581 370.17 404.581 370.76 404.681 370.59C404.731 370.52 404.551 370.26 404.111 370.02C403.681 369.78 402.971 369.6 402.191 369.75C401.421 369.91 400.831 370.35 400.521 370.74C400.211 371.13 400.151 371.44 400.231 371.49Z" fill="#263238"/>
<path d="M400.121 366.69C400.291 366.78 400.821 365.87 401.921 365.49C403.011 365.1 403.991 365.47 404.071 365.29C404.111 365.21 403.911 364.99 403.481 364.83C403.051 364.67 402.381 364.6 401.691 364.84C401.001 365.08 400.521 365.56 400.291 365.96C400.061 366.36 400.041 366.66 400.121 366.69Z" fill="#263238"/>
<path d="M395.93 362.98C396.12 363.05 396.56 362.15 397.53 361.52C398.48 360.86 399.48 360.8 399.49 360.6C399.54 360.42 398.33 360.15 397.15 360.95C395.96 361.74 395.74 362.96 395.93 362.98Z" fill="#263238"/>
<path d="M393.881 359.77C393.961 359.82 394.481 359.19 395.251 358.13C395.691 357.51 396.121 356.89 396.571 356.25C396.801 355.88 397.111 355.56 397.301 354.98C397.381 354.69 397.381 354.34 397.201 354.03C397.041 353.7 396.601 353.49 396.251 353.54C395.571 353.64 395.191 353.99 394.791 354.3C394.411 354.63 394.091 355 393.841 355.39C393.341 356.16 393.101 356.97 393.021 357.65C392.871 359.04 393.321 359.82 393.381 359.79C393.501 359.76 393.241 358.96 393.501 357.73C393.631 357.12 393.891 356.41 394.361 355.75C394.601 355.42 394.881 355.1 395.221 354.82C395.551 354.55 395.981 354.26 396.301 354.23C396.451 354.22 396.531 354.26 396.601 354.37C396.671 354.49 396.691 354.65 396.641 354.81C396.561 355.14 396.251 355.53 396.041 355.9C395.631 356.57 395.231 357.22 394.841 357.87C394.171 358.99 393.801 359.71 393.881 359.77Z" fill="#263238"/>
<path d="M393.321 360.23C393.391 360.22 393.331 359.4 392.481 358.46C391.651 357.57 389.841 356.62 387.841 357.62C387.701 357.74 387.581 357.97 387.601 358.18C387.611 358.4 387.701 358.56 387.791 358.68C387.981 358.92 388.181 359.04 388.351 359.17C388.711 359.42 389.091 359.63 389.461 359.8C390.201 360.14 390.921 360.31 391.521 360.37C392.741 360.5 393.471 360.26 393.461 360.19C393.451 360.08 392.721 360.13 391.601 359.89C391.051 359.77 390.401 359.56 389.741 359.22C389.411 359.05 389.081 358.85 388.751 358.61C388.591 358.48 388.421 358.37 388.341 358.26C388.261 358.12 388.281 358.16 388.311 358.12C388.361 358.06 388.571 358 388.761 357.95C388.951 357.9 389.151 357.87 389.341 357.86C389.731 357.83 390.101 357.86 390.451 357.94C391.151 358.09 391.721 358.43 392.141 358.8C392.981 359.55 393.221 360.28 393.321 360.23Z" fill="#263238"/>
<path opacity="0.6" d="M408.61 359.93C408.61 360.96 409.44 361.79 410.47 361.79C411.5 361.79 412.33 360.96 412.33 359.93C412.33 358.9 411.5 358.07 410.47 358.07C409.44 358.08 408.61 358.91 408.61 359.93Z" fill="white"/>
<path opacity="0.3" d="M388.201 353.7L391.211 357L403.861 344.47L402.101 342.18L388.201 353.7Z" fill="black"/>
<path d="M371.91 180.3C371.91 180.3 375.76 182.57 377.14 185.03C381.37 192.58 383.08 210.67 367.12 226.82C346.49 247.69 322.35 281.82 322.35 281.82L303.39 361.98L274.75 355.78L289.51 272.46L329.98 197.39L371.91 180.3Z" fill="#080014"/>
<path d="M406.81 337.37L362.69 269.85L349.3 211.56L315.23 228.31L332.32 287.47L386.84 355.39L406.81 337.37Z" fill="#080014"/>
<path d="M303.4 361.97C303.39 361.97 303.41 361.83 303.47 361.57C303.53 361.29 303.61 360.91 303.72 360.42C303.95 359.38 304.29 357.91 304.71 356.01C305.6 352.16 306.88 346.64 308.45 339.83C311.67 326.15 316.1 307.3 320.99 286.48C321.37 284.86 321.76 283.25 322.11 281.74L322.12 281.68L322.15 281.64C334.66 265.65 346.04 251.5 354.43 241.45C358.63 236.43 362.05 232.42 364.49 229.71C365.69 228.34 366.66 227.32 367.31 226.61C367.62 226.28 367.87 226.02 368.06 225.82C368.23 225.64 368.32 225.56 368.33 225.56C368.34 225.57 368.26 225.66 368.1 225.85C367.92 226.05 367.69 226.33 367.39 226.67C366.77 227.4 365.82 228.44 364.64 229.83C362.26 232.58 358.87 236.62 354.71 241.67C346.4 251.78 335.07 265.96 322.57 281.96L322.62 281.86C322.26 283.36 321.88 284.97 321.5 286.6C316.55 307.41 312.06 326.24 308.81 339.91C307.17 346.71 305.83 352.22 304.91 356.06C304.44 357.94 304.08 359.41 303.82 360.44C303.7 360.92 303.6 361.3 303.52 361.58C303.44 361.84 303.4 361.97 303.4 361.97Z" fill="#8F9296"/>
<path d="M355.13 203.54C355.14 203.57 354.9 203.72 354.44 203.92C353.98 204.13 353.28 204.37 352.39 204.58C350.62 205 348.02 205.16 345.31 204.38C342.61 203.59 340.49 202.06 339.23 200.75C338.59 200.1 338.14 199.51 337.86 199.09C337.58 198.67 337.45 198.41 337.48 198.4C337.55 198.35 338.18 199.28 339.49 200.49C340.79 201.7 342.86 203.13 345.46 203.88C348.06 204.64 350.58 204.54 352.32 204.22C354.07 203.9 355.1 203.45 355.13 203.54Z" fill="#8F9296"/>
<path d="M131.74 35.21C129.14 28.93 129.01 18 132.98 12.25C136.95 6.5 144.39 2.71 151.22 1.23999C152.36 0.989995 153.59 0.829995 154.67 1.27999C155.75 1.72999 156.55 3.01999 156.09 4.08999C157.46 3.22999 158.87 2.36 160.44 1.99999C162.02 1.63999 163.83 1.86999 164.98 2.99999C166.14 4.12999 166.32 6.25999 165.09 7.30999C167 6.60999 169.29 7.16 170.68 8.62999C172.08 10.1 172.49 12.42 171.69 14.29C170.93 16.08 169.31 18.07 167.87 19.38C166.44 20.69 166.2 22.05 166.44 23.98" fill="#263238"/>
<path d="M133.38 23.68L131.57 62.16C131.26 68.7 136.49 74.17 143.04 74.16C149.15 74.15 154.18 69.33 154.46 63.22C154.59 60.32 154.71 57.91 154.74 57.61C154.74 57.61 164.58 57.15 165.74 47.49C166.3 42.82 166.68 33.11 166.91 24.32C167.16 14.88 160.12 6.83001 150.73 5.82001L149.8 5.72001C139.68 5.22001 133.6 13.55 133.38 23.68Z" fill="#FFBE9D"/>
<path d="M154.78 57.47C154.78 57.47 148.61 57.31 142.55 52.53C142.55 52.53 144.48 58.58 154.23 58.75L154.78 57.47Z" fill="#EB996E"/>
<path d="M163.4 30.5C163.35 31.23 162.68 31.79 161.92 31.75C161.16 31.71 160.58 31.08 160.63 30.35C160.68 29.62 161.35 29.06 162.11 29.1C162.88 29.14 163.46 29.76 163.4 30.5Z" fill="#263238"/>
<path d="M164.33 28.8401C164.14 29.0001 163.18 28.1101 161.69 27.9601C160.21 27.7801 159.03 28.4301 158.89 28.2301C158.82 28.1401 159.03 27.8301 159.54 27.5401C160.04 27.2501 160.88 27.0001 161.8 27.1001C162.73 27.2001 163.47 27.6301 163.88 28.0301C164.3 28.4301 164.42 28.7701 164.33 28.8401Z" fill="#263238"/>
<path d="M148.77 29.43C148.72 30.16 148.05 30.72 147.29 30.68C146.53 30.64 145.95 30.01 146 29.28C146.05 28.55 146.72 27.99 147.48 28.03C148.24 28.07 148.82 28.7 148.77 29.43Z" fill="#263238"/>
<path d="M149.69 27.54C149.5 27.7 148.53 26.81 147.05 26.66C145.57 26.48 144.39 27.13 144.25 26.93C144.18 26.84 144.39 26.53 144.9 26.24C145.4 25.95 146.24 25.7 147.16 25.8C148.09 25.91 148.83 26.33 149.24 26.73C149.66 27.13 149.78 27.47 149.69 27.54Z" fill="#263238"/>
<path d="M153.891 39.15C153.891 39.06 154.831 39 156.351 38.97C156.731 38.97 157.101 38.94 157.191 38.68C157.311 38.42 157.191 37.99 157.061 37.53C156.801 36.57 156.531 35.57 156.251 34.52C155.131 30.24 154.371 26.73 154.541 26.69C154.711 26.65 155.761 30.08 156.871 34.37C157.141 35.43 157.391 36.43 157.631 37.39C157.731 37.84 157.921 38.35 157.671 38.9C157.541 39.17 157.241 39.35 156.991 39.39C156.741 39.44 156.521 39.42 156.341 39.41C154.821 39.33 153.891 39.24 153.891 39.15Z" fill="#263238"/>
<path d="M149.411 39.71C149.651 39.72 149.481 41.34 150.741 42.63C151.991 43.93 153.731 43.93 153.721 44.16C153.731 44.26 153.301 44.43 152.571 44.37C151.861 44.32 150.841 43.98 150.071 43.19C149.301 42.4 149.041 41.42 149.061 40.75C149.071 40.07 149.301 39.69 149.411 39.71Z" fill="#263238"/>
<path d="M150.7 21.76C150.51 22.15 149.05 21.8 147.28 21.82C145.51 21.81 144.05 22.1701 143.86 21.7801C143.78 21.6001 144.06 21.24 144.67 20.91C145.28 20.58 146.22 20.31 147.27 20.3C148.33 20.3 149.27 20.57 149.88 20.9C150.49 21.22 150.78 21.57 150.7 21.76Z" fill="#263238"/>
<path d="M164.25 24.4801C163.95 24.7901 162.97 24.3301 161.74 24.1801C160.52 23.9901 159.44 24.1601 159.24 23.7801C159.15 23.6001 159.35 23.2801 159.84 23.0101C160.32 22.7401 161.1 22.5601 161.95 22.6801C162.79 22.8001 163.49 23.1801 163.88 23.5801C164.27 23.9701 164.38 24.3301 164.25 24.4801Z" fill="#263238"/>
<path d="M133.4 30.93C133.24 30.84 126.97 28.25 126.46 34.88C125.96 41.52 132.72 40.65 132.75 40.46C132.78 40.28 133.4 30.93 133.4 30.93Z" fill="#FFBE9D"/>
<path d="M130.91 37.8C130.88 37.78 130.79 37.87 130.59 37.95C130.39 38.02 130.06 38.06 129.72 37.9C129.04 37.59 128.53 36.43 128.59 35.23C128.62 34.62 128.79 34.06 129.04 33.6C129.28 33.13 129.62 32.81 129.98 32.78C130.34 32.73 130.57 32.96 130.64 33.15C130.71 33.34 130.66 33.47 130.7 33.49C130.72 33.51 130.85 33.39 130.82 33.11C130.8 32.98 130.74 32.81 130.59 32.67C130.44 32.53 130.21 32.44 129.96 32.45C129.45 32.45 128.95 32.88 128.67 33.39C128.37 33.9 128.16 34.53 128.13 35.21C128.07 36.55 128.66 37.85 129.6 38.2C130.06 38.36 130.46 38.25 130.67 38.1C130.89 37.96 130.93 37.81 130.91 37.8Z" fill="#EB996E"/>
<path d="M172.11 12.12C172.23 20.78 161.36 23.56 157.07 18.4C155.09 16.01 153.43 13.09 150.57 11.86C148.65 11.03 146.4 11.23 144.47 12.03C144.45 12.04 144.43 12.05 144.41 12.05C141.57 13.26 139.71 16.3 139.05 19.32C138.13 23.53 138.53 27.33 137.13 31.15C136.93 31.7 136.69 32.29 136.2 32.59C135.35 33.11 134.23 32.51 133.63 31.72C132.66 30.46 132.41 28.8 132.3 27.21C132.05 23.6 132.35 19.92 133.52 16.49C134.69 13.06 136.75 9.90004 139.62 7.69004C143.21 4.93004 147.94 3.81004 152.43 4.37004C156.92 4.92004 161.15 7.09004 164.45 10.19C165.98 11.63 167.35 13.31 168.01 15.31" fill="#263238"/>
<path d="M165.45 6.85004C165.45 6.83004 165.79 6.80004 166.36 6.96004C166.93 7.12004 167.74 7.54004 168.46 8.35004C169.17 9.15004 169.79 10.37 169.85 11.82C169.91 13.27 169.31 14.84 168.25 16.1C167.18 17.36 165.79 18.2 164.44 18.63C163.09 19.07 161.81 19.17 160.76 19.16C159.7 19.14 158.86 19.01 158.28 18.89C157.7 18.77 157.39 18.67 157.4 18.64C157.41 18.55 158.69 18.83 160.76 18.8C161.79 18.77 163.02 18.63 164.29 18.19C165.56 17.76 166.85 16.96 167.86 15.78C168.85 14.61 169.42 13.17 169.38 11.85C169.35 10.53 168.81 9.38004 168.18 8.60004C167.54 7.82004 166.82 7.37004 166.29 7.17004C165.76 6.93004 165.44 6.90004 165.45 6.85004Z" fill="#8F9296"/>
<path d="M161.24 3.47C161.24 3.44 161.49 3.41 161.86 3.63C162.22 3.84 162.67 4.35 162.79 5.13C162.91 5.91 162.6 6.81 162.09 7.63C161.58 8.45 160.91 9.29 160.08 10.03C158.42 11.53 156.51 12.35 155.1 12.67C153.68 13.02 152.77 12.93 152.78 12.88C152.77 12.79 153.66 12.74 155.01 12.32C156.35 11.92 158.15 11.08 159.74 9.64C160.54 8.93 161.18 8.13 161.7 7.37C162.21 6.61 162.5 5.82 162.44 5.16C162.38 4.5 162.04 4.02 161.76 3.79C161.45 3.56 161.23 3.51 161.24 3.47Z" fill="#8F9296"/>
<path d="M133.11 97.96L136.23 75.22L91.5299 84.19L50.8599 70.1L39.8799 81.38L83.1599 103.67C87.0199 105.51 91.3699 106.07 95.5699 105.25L133.11 97.96Z" fill="#FFBE9D"/>
<path d="M50.86 70.1C50.86 70.1 35.31 62.66 34.31 62.41C33.54 62.22 21.8 61.59 16.45 61.32C14.33 61.21 14.01 64.36 16.12 64.65C16.19 64.66 16.25 64.67 16.32 64.67C19.31 64.92 25.88 66.41 25.88 66.41L22.9 73.4C22.59 74.12 22.82 74.95 23.45 75.41L32.5 82.1C34.91 83.19 37.73 82.9199 39.88 81.3799L43.87 82.1999L50.86 70.1Z" fill="#FFBE9D"/>
<path d="M22.8506 73.8099C23.1406 75.1199 26.2506 77.7899 28.6206 77.7899C29.1406 77.7899 29.6706 77.6399 30.0506 77.2799C30.4206 76.9199 30.6006 76.3299 30.3806 75.8599C30.2406 75.5499 29.9606 75.3299 29.6906 75.1199C27.9206 73.7499 26.1606 72.3799 24.3906 71.0099" fill="#FFBE9D"/>
<path d="M24.4003 71.0099C24.4403 70.9499 25.2903 71.5199 26.6103 72.4899C27.3203 73.0199 28.0903 73.5899 28.9203 74.2099C29.3603 74.5499 29.8003 74.8399 30.2803 75.2799C30.5203 75.4999 30.7303 75.8699 30.7303 76.2499C30.7403 76.6199 30.6103 76.9899 30.3803 77.2799C29.9003 77.8699 29.1603 78.0499 28.5303 78.0299C27.8903 78.0099 27.3103 77.8399 26.7903 77.6199C25.7603 77.1799 24.9403 76.5799 24.3203 76.0199C23.7003 75.4599 23.2803 74.9199 23.0503 74.4999C22.8203 74.0799 22.8103 73.7999 22.8403 73.7999C22.8803 73.7899 22.9603 74.0299 23.2203 74.3899C23.4803 74.7499 23.9303 75.2299 24.5603 75.7399C25.1803 76.2499 26.0003 76.7799 26.9703 77.1699C27.4503 77.3599 27.9903 77.5099 28.5403 77.5199C29.0703 77.5399 29.6503 77.3699 29.9703 76.9599C30.2903 76.5399 30.3003 75.9799 29.9203 75.6399C29.5403 75.2799 29.0303 74.9199 28.6303 74.5899C27.8203 73.9399 27.0703 73.3299 26.3903 72.7799C25.1203 71.7399 24.3603 71.0699 24.4003 71.0099Z" fill="#EB996E"/>
<path d="M35.42 77.85C35.37 77.89 35.07 77.67 34.74 77.17C34.41 76.68 34.1 75.88 34.06 74.96C34.02 74.04 34.26 73.22 34.54 72.7C34.82 72.17 35.1 71.93 35.15 71.96C35.28 72.04 34.48 73.25 34.58 74.93C34.64 76.63 35.54 77.76 35.42 77.85Z" fill="#EB996E"/>
<path d="M29.2005 74.26C29.6705 74.99 30.6505 75.36 31.4905 75.11C32.3305 74.87 32.9505 74.03 32.9605 73.16C32.9605 72.02 32.0505 71.11 31.2005 70.35C29.9005 69.18 28.6005 68.01 27.3105 66.84" fill="#FFBE9D"/>
<path d="M27.3001 66.8299C27.3501 66.7799 27.9701 67.2499 28.9301 68.0499C29.4601 68.4999 30.0201 68.9799 30.6001 69.4899C31.2101 70.0499 31.9501 70.5999 32.5601 71.4099C32.8601 71.8199 33.1001 72.2899 33.1701 72.7899C33.2501 73.2899 33.1401 73.7999 32.9101 74.1999C32.4601 75.0199 31.5901 75.4199 30.9101 75.3599C30.2201 75.3199 29.7401 74.9999 29.4901 74.7299C29.2301 74.4599 29.1701 74.2599 29.2001 74.2399C29.2401 74.2199 29.3501 74.3799 29.6201 74.5699C29.8901 74.7599 30.3401 74.9899 30.9201 74.9799C31.4901 74.9799 32.1501 74.6299 32.5001 73.9599C32.8701 73.2999 32.7101 72.4199 32.1501 71.6999C31.6101 70.9799 30.8801 70.3999 30.2901 69.8299C29.7301 69.2999 29.2001 68.7899 28.6901 68.3099C27.7901 67.4599 27.2501 66.8899 27.3001 66.8299Z" fill="#EB996E"/>
<path d="M35.8592 66.2399C32.7292 66.9799 29.7192 68.2399 26.9892 69.9499C26.8292 70.0499 26.6492 70.1699 26.5992 70.3599C26.5292 70.6199 26.7292 70.8699 26.9392 71.0399C27.7392 71.6799 28.8492 71.7899 29.8692 71.7099C30.8892 71.6199 31.9092 71.3699 32.9292 71.3999C34.7092 71.4399 36.3492 72.2899 38.0692 72.7599C39.7792 73.2299 41.8692 73.2199 43.0492 71.8899" fill="#FFBE9D"/>
<path d="M43.0496 71.8799C43.0596 71.8899 43.0096 71.9699 42.8896 72.1199C42.7596 72.2599 42.5597 72.4599 42.2397 72.6399C41.6197 73.0299 40.5496 73.2999 39.2596 73.1699C37.9496 73.0699 36.5396 72.4499 34.9697 71.9899C34.1797 71.7599 33.3497 71.5999 32.4697 71.6499C31.5897 71.6899 30.6796 71.9099 29.6896 71.9799C28.7096 72.0399 27.6496 71.9099 26.8396 71.2999C26.6396 71.1499 26.4296 70.9599 26.3396 70.6299C26.2996 70.4699 26.3296 70.2699 26.4196 70.1199C26.5096 69.9799 26.6196 69.8899 26.7296 69.8199C27.1196 69.5699 27.4796 69.3599 27.8496 69.1499C29.3096 68.3199 30.7096 67.7199 31.8896 67.2799C33.0796 66.8399 34.0696 66.5699 34.7596 66.4099C35.4496 66.2499 35.8396 66.1999 35.8496 66.2299C35.8696 66.3199 34.3496 66.6699 32.0296 67.6199C30.8696 68.0999 29.5196 68.7299 28.0896 69.5599C27.7396 69.7699 27.3596 69.9899 27.0196 70.2199C26.8596 70.3399 26.8096 70.4099 26.8396 70.5099C26.8696 70.6199 26.9896 70.7699 27.1496 70.8799C27.8096 71.3799 28.7396 71.5099 29.6596 71.4499C30.5896 71.3899 31.5096 71.1799 32.4496 71.1299C33.3996 71.0799 34.2996 71.2699 35.1096 71.5199C36.7196 72.0299 38.0797 72.6599 39.3097 72.7999C40.5297 72.9699 41.5397 72.7699 42.1497 72.4599C42.7697 72.1699 43.0196 71.8399 43.0496 71.8799Z" fill="#EB996E"/>
<path d="M92.2296 92.0599C92.0996 92.0899 91.5696 90.3199 91.5096 88.0599C91.4396 85.7899 91.8696 83.9899 91.9996 84.0199C92.1496 84.0399 91.9596 85.8399 92.0296 88.0499C92.0796 90.2499 92.3796 92.0299 92.2296 92.0599Z" fill="#EB996E"/>
<path d="M131.34 64.67L118.66 78.96C118.66 78.96 111.89 128.32 111.4 132.19C110.92 136.06 109.63 148.46 109.63 151.85C109.63 155.24 106.82 179.47 106.82 179.47C106.82 179.47 160.64 190.64 169.64 179.47L166.84 158.72L169.28 107.24C169.28 107.24 173.32 71.51 154.47 63.22C154.46 63.22 142.55 70.4 131.34 64.67Z" fill="#ECB000"/>
<path d="M131.34 64.6699L120.37 67.6899L95.71 82.7899L102.73 105.09L117.21 103.5L131.34 64.6699Z" fill="#ECB000"/>
<path d="M117.07 80.1499C117.21 80.1599 116.59 88.1399 115.68 97.9499C114.77 107.77 113.91 115.72 113.77 115.71C113.63 115.7 114.25 107.73 115.16 97.8999C116.07 88.0899 116.93 80.1399 117.07 80.1499Z" fill="#263238"/>
<path opacity="0.3" d="M116.57 85.51L106.81 104.64L114.87 103.76L116.57 85.51Z" fill="black"/>
<g opacity="0.3">
<path opacity="0.3" d="M112.09 136.3C119.24 144.1 127.76 150.64 137.14 155.53C141.08 157.59 145.42 159.4 149.82 158.83C154.66 158.21 158.8 154.7 161.09 150.4C163.38 146.09 163.05 144.01 163.59 139.17C164.19 133.83 164.19 126.7 164.47 121.84C164.52 120.98 164.54 119.98 164.54 119.03C164.54 116.92 165.92 115.05 167.95 114.44C167.95 114.44 165 113.05 163.02 113.33C161.04 113.61 159.55 115.26 158.51 116.97C153.02 126.02 155.41 139.28 144.94 144.92C141.52 146.76 137.54 147.19 133.71 146.57C125.14 145.17 118.58 139.54 112.26 134.05" fill="black"/>
</g>
<path d="M123.93 117.57C126.553 117.57 128.68 111.177 128.68 103.29C128.68 95.4034 126.553 89.01 123.93 89.01C121.306 89.01 119.18 95.4034 119.18 103.29C119.18 111.177 121.306 117.57 123.93 117.57Z" fill="#FAFAFA"/>
<path d="M126.47 351.65L127.56 375.16C127.56 375.16 104.03 384.16 103.81 388.53L149.47 388.06L149.28 351.36L126.47 351.65Z" fill="#ECB000"/>
<g opacity="0.6">
<path opacity="0.6" d="M141.66 373.04C142.55 373.27 143.17 374.26 142.97 375.15C142.77 376.04 141.78 376.69 140.89 376.47C140 376.25 139.22 375.09 139.51 374.22C139.8 373.35 141.02 372.66 141.83 373.09" fill="white"/>
</g>
<path opacity="0.6" d="M149.47 388.06L149.45 384.4L105.59 386.2C105.59 386.2 103.57 387.11 103.81 388.53L149.47 388.06Z" fill="white"/>
<path d="M126.82 374.94C126.83 375.16 127.95 375.25 129.05 375.96C130.17 376.64 130.75 377.6 130.95 377.51C131.16 377.46 130.81 376.14 129.46 375.3C128.11 374.46 126.77 374.74 126.82 374.94Z" fill="#263238"/>
<path d="M122.05 376.97C122 377.19 122.97 377.56 123.74 378.49C124.53 379.4 124.74 380.42 124.96 380.41C125.17 380.44 125.31 379.14 124.33 377.99C123.37 376.84 122.05 376.76 122.05 376.97Z" fill="#263238"/>
<path d="M119.389 382.73C119.589 382.78 119.889 381.66 119.309 380.44C118.729 379.22 117.679 378.75 117.579 378.94C117.459 379.12 118.139 379.77 118.599 380.78C119.089 381.77 119.169 382.71 119.389 382.73Z" fill="#263238"/>
<path d="M127.17 369.55C127.27 369.75 128.29 369.43 129.55 369.51C130.81 369.56 131.8 369.97 131.91 369.78C132.04 369.62 131.07 368.8 129.58 368.74C128.09 368.66 127.05 369.38 127.17 369.55Z" fill="#263238"/>
<path opacity="0.3" d="M126.689 356.31L126.879 360.5L149.319 360.06L149.309 356.29L126.689 356.31Z" fill="black"/>
<path d="M127.03 364.81C127.03 364.9 127.91 365.03 129.32 364.77C130.02 364.64 130.84 364.4 131.7 364.01C132.13 363.81 132.57 363.58 133.01 363.3C133.22 363.16 133.47 363.02 133.69 362.76C133.93 362.52 134.07 361.93 133.78 361.57C133.54 361.22 133.13 361.07 132.8 361.07C132.46 361.06 132.19 361.13 131.94 361.2C131.43 361.33 130.96 361.5 130.52 361.7C129.65 362.11 128.95 362.62 128.43 363.11C127.38 364.1 127.03 364.94 127.1 364.98C127.2 365.05 127.71 364.35 128.78 363.53C129.31 363.12 130 362.7 130.81 362.36C131.22 362.19 131.66 362.05 132.12 361.94C132.6 361.81 133.01 361.8 133.14 362.01C133.19 362.09 133.19 362.12 133.09 362.27C132.99 362.4 132.79 362.53 132.59 362.67C132.19 362.94 131.78 363.17 131.39 363.37C130.6 363.77 129.84 364.05 129.19 364.24C127.89 364.62 127.03 364.69 127.03 364.81Z" fill="#263238"/>
<path d="M127.329 365.12C127.409 365.15 127.839 364.35 127.909 362.9C127.939 362.18 127.859 361.32 127.569 360.4C127.419 359.94 127.229 359.48 126.969 359.02C126.699 358.57 126.369 357.97 125.499 357.88C125.049 357.87 124.679 358.22 124.549 358.53C124.399 358.84 124.379 359.11 124.319 359.37C124.239 359.9 124.259 360.43 124.329 360.91C124.479 361.88 124.889 362.68 125.329 363.26C126.229 364.43 127.169 364.69 127.189 364.62C127.259 364.51 126.479 364.08 125.789 362.95C125.449 362.39 125.139 361.66 125.039 360.81C124.989 360.39 124.989 359.94 125.069 359.49C125.139 359 125.309 358.61 125.499 358.66C125.729 358.65 126.119 359.02 126.309 359.4C126.549 359.81 126.739 360.22 126.889 360.63C127.179 361.45 127.319 362.24 127.359 362.91C127.429 364.25 127.209 365.09 127.329 365.12Z" fill="#263238"/>
<path d="M170.71 337.38L189.17 351.98C189.17 351.98 180.53 375.65 183.68 378.68L213.27 343.9L185.44 319.98L170.71 337.38Z" fill="#ECB000"/>
<g opacity="0.6">
<path opacity="0.6" d="M196.82 339.94C197.58 339.42 198.73 339.6 199.28 340.34C199.83 341.07 199.66 342.25 198.91 342.78C198.16 343.31 196.77 343.14 196.31 342.35C195.85 341.56 196.13 340.19 196.98 339.86" fill="white"/>
</g>
<path opacity="0.6" d="M213.28 343.89L210.5 341.5L183.09 375.79C183.09 375.79 182.45 377.91 183.69 378.66L213.28 343.89Z" fill="white"/>
<path d="M188.52 352.39C188.69 352.53 189.49 351.75 190.75 351.37C192 350.97 193.1 351.16 193.17 350.95C193.27 350.77 192.04 350.15 190.53 350.63C189 351.09 188.33 352.29 188.52 352.39Z" fill="#263238"/>
<path d="M186.93 357.32C187.06 357.5 187.98 357.01 189.19 357.04C190.4 357.04 191.3 357.55 191.44 357.38C191.6 357.24 190.71 356.28 189.2 356.27C187.69 356.24 186.77 357.18 186.93 357.32Z" fill="#263238"/>
<path d="M189.53 363.11C189.7 362.99 189.05 362.03 187.75 361.67C186.45 361.31 185.4 361.79 185.48 361.99C185.54 362.2 186.48 362.11 187.54 362.42C188.61 362.7 189.37 363.26 189.53 363.11Z" fill="#263238"/>
<path d="M184.68 348.6C184.9 348.66 185.32 347.68 186.21 346.78C187.07 345.86 188.03 345.38 187.96 345.17C187.92 344.97 186.67 345.16 185.65 346.24C184.61 347.31 184.48 348.57 184.68 348.6Z" fill="#263238"/>
<path opacity="0.3" d="M174.37 340.27L177.66 342.87L192.05 325.64L189.19 323.18L174.37 340.27Z" fill="black"/>
<path d="M181.01 345.58C181.08 345.64 181.75 345.06 182.48 343.83C182.84 343.22 183.2 342.44 183.47 341.53C183.6 341.08 183.71 340.59 183.79 340.08C183.82 339.83 183.88 339.55 183.83 339.21C183.81 338.87 183.45 338.38 182.99 338.36C182.57 338.31 182.19 338.53 181.97 338.77C181.74 339.02 181.62 339.27 181.5 339.5C181.26 339.97 181.08 340.44 180.95 340.9C180.69 341.82 180.61 342.69 180.64 343.4C180.7 344.84 181.1 345.66 181.18 345.63C181.3 345.6 181.1 344.76 181.19 343.41C181.23 342.74 181.36 341.95 181.64 341.11C181.78 340.69 181.96 340.27 182.18 339.85C182.4 339.4 182.66 339.08 182.91 339.13C183 339.15 183.03 339.17 183.07 339.33C183.1 339.49 183.07 339.73 183.04 339.97C182.98 340.45 182.89 340.91 182.78 341.34C182.57 342.2 182.28 342.96 181.99 343.57C181.43 344.81 180.92 345.51 181.01 345.58Z" fill="#263238"/>
<path d="M181.44 345.57C181.52 345.53 181.2 344.68 180.15 343.68C179.63 343.19 178.92 342.68 178.04 342.3C177.6 342.11 177.12 341.95 176.61 341.84C176.09 341.75 175.42 341.61 174.79 342.2C174.48 342.53 174.51 343.05 174.66 343.34C174.8 343.66 174.98 343.85 175.15 344.06C175.5 344.47 175.91 344.8 176.32 345.06C177.15 345.58 178.03 345.8 178.75 345.85C180.23 345.94 181.04 345.4 180.99 345.34C180.95 345.21 180.12 345.52 178.81 345.31C178.17 345.2 177.41 344.95 176.7 344.47C176.35 344.23 176.01 343.93 175.72 343.58C175.4 343.21 175.22 342.82 175.37 342.71C175.51 342.53 176.04 342.48 176.46 342.59C176.92 342.68 177.36 342.81 177.77 342.96C178.58 343.28 179.27 343.69 179.8 344.1C180.86 344.92 181.34 345.64 181.44 345.57Z" fill="#263238"/>
<path d="M119.52 252.19C119.52 252.19 120.74 196.04 119.52 196.04C118.3 196.04 109.64 191.1 109.64 191.1L98.8197 274.55C98.8197 274.55 97.8497 283.92 109.44 290.52C121.03 297.12 172.87 343.21 172.87 343.21L190.41 321.85C190.41 321.85 156.3 286.3 142.37 274.55C131.47 265.35 119.52 252.19 119.52 252.19Z" fill="#080014"/>
<path d="M151.3 239.11L152.48 230.22C152.48 230.22 161.02 212.25 162.25 204.55C163.47 196.85 162.66 180.3 162.66 180.3H108.71C108.71 180.3 108.94 241.21 115.45 258.29C115.45 258.29 118.76 290.99 119.24 293.73C120.27 299.55 123.87 359.09 123.87 359.09L151.07 358.1C151.07 358.1 153.43 303.36 151.54 287.82C150.61 280.13 150.16 271.93 149.96 265.14C149.71 256.44 150.15 247.74 151.3 239.11Z" fill="#080014"/>
<path d="M110.19 198.06C110.2 198.06 110.21 198.15 110.22 198.33C110.23 198.54 110.25 198.8 110.27 199.12C110.3 199.85 110.35 200.87 110.41 202.15C110.51 204.78 110.71 208.59 110.98 213.29C111.52 222.69 112.53 235.66 114.01 249.95C115.49 264.24 117.09 277.16 118.24 286.5C118.81 291.14 119.27 294.92 119.59 297.57C119.74 298.85 119.85 299.85 119.94 300.58C119.97 300.9 120 301.16 120.02 301.37C120.03 301.55 120.04 301.64 120.03 301.64C120.02 301.64 120 301.55 119.97 301.38C119.94 301.17 119.89 300.92 119.84 300.6C119.73 299.87 119.58 298.87 119.4 297.6C119.04 294.95 118.52 291.19 117.88 286.55C116.63 277.21 114.98 264.3 113.5 250C112.01 235.7 111.06 222.72 110.62 213.31C110.4 208.6 110.26 204.79 110.22 202.16C110.2 200.87 110.19 199.86 110.17 199.13C110.17 198.81 110.17 198.55 110.17 198.34C110.17 198.15 110.18 198.06 110.19 198.06Z" fill="#8F9296"/>
<path d="M149.91 270.15C149.93 270.15 149.98 270.45 150.07 271.03C150.16 271.66 150.27 272.5 150.42 273.57C150.69 275.78 151.03 278.99 151.34 282.97C151.98 290.92 152.47 301.93 152.65 314.09C152.79 326.26 152.6 337.28 152.17 345.24C151.97 349.22 151.71 352.44 151.5 354.66C151.38 355.73 151.28 356.58 151.21 357.21C151.14 357.79 151.09 358.1 151.08 358.1C151.06 358.1 151.07 357.79 151.11 357.2C151.16 356.57 151.22 355.72 151.3 354.64C151.45 352.42 151.65 349.2 151.81 345.22C152.15 337.26 152.28 326.25 152.14 314.09C151.96 301.94 151.53 290.94 150.99 282.99C150.73 279.02 150.45 275.8 150.24 273.59C150.13 272.52 150.05 271.67 149.99 271.04C149.91 270.46 149.9 270.15 149.91 270.15Z" fill="#8F9296"/>
<path d="M100.37 110.01L54.7803 109.12L55.3103 111.33L100.14 111.99L100.37 110.01Z" fill="#263238"/>
<path d="M155.631 71.16C153.931 70.71 152.131 70.93 150.521 71.61C146.821 73.17 140.071 77.64 139.591 90.25C138.811 110.62 138.811 110.62 138.811 110.62L167.961 114.43C167.961 114.44 170.431 75.1 155.631 71.16Z" fill="#ECB000"/>
<path d="M101.99 114.33L138.95 125.44L139.5 110.56L161.63 113.78L160.4 137.98C160.14 145.08 155.17 151.13 148.25 152.75C144.38 153.66 140.31 153.07 136.86 151.11L97.5801 128.78L101.99 114.33Z" fill="#FFBE9D"/>
<path d="M167.96 114.44C167.95 114.43 167.95 114.32 167.93 114.09C167.92 113.84 167.91 113.52 167.89 113.11C167.86 112.22 167.81 110.97 167.76 109.38C167.66 106.13 167.51 101.49 167.33 95.76C167.25 92.89 167.16 89.76 167.06 86.4C167.04 85.56 167.01 84.7 166.99 83.83C166.95 83.4 166.9 82.97 166.86 82.54C166.77 82.11 166.7 81.68 166.59 81.25C166.15 79.53 165.33 77.87 164.18 76.39C161.88 73.48 158.18 71.26 154.09 71.19C152.06 71.14 150.02 71.76 148.24 72.86C146.45 73.95 144.93 75.53 143.72 77.32C141.95 79.9 140.96 82.87 140.39 85.82C139.81 88.78 139.63 91.73 139.49 94.6C139.33 100.34 139.17 105.74 139.03 110.65L138.84 110.43C147.56 111.62 154.81 112.61 159.91 113.31C162.44 113.66 164.43 113.95 165.83 114.14C166.49 114.24 167.02 114.31 167.4 114.37C167.76 114.4 167.95 114.43 167.96 114.44C167.97 114.45 167.79 114.43 167.45 114.4C167.07 114.36 166.56 114.3 165.92 114.22C164.53 114.05 162.55 113.81 160.03 113.51C154.88 112.87 147.57 111.95 138.78 110.85L138.58 110.83V110.63C138.7 105.72 138.79 100.32 138.98 94.57C139.12 91.7 139.3 88.72 139.88 85.72C140.46 82.73 141.47 79.68 143.29 77.03C144.54 75.19 146.1 73.56 147.97 72.42C149.82 71.27 151.97 70.62 154.1 70.68C158.37 70.77 162.18 73.08 164.56 76.1C165.74 77.63 166.59 79.36 167.04 81.14C167.15 81.58 167.22 82.04 167.31 82.48C167.35 82.93 167.4 83.38 167.44 83.82C167.46 84.7 167.48 85.56 167.5 86.42C167.57 89.82 167.63 92.99 167.69 95.88C167.79 101.61 167.87 106.27 167.93 109.52C167.95 111.09 167.97 112.32 167.98 113.2C167.98 113.59 167.98 113.91 167.99 114.15C167.97 114.34 167.96 114.44 167.96 114.44Z" fill="#263238"/>
<path d="M102.73 114.76L93.8501 108.19C92.2301 106.99 89.7101 107.24 87.7001 107.06C83.7201 106.7 77.1601 109.11 76.9101 109.52L79.5901 111.66L62.3301 111.13C62.3301 111.13 63.8101 114.73 68.6401 115.1C68.6401 115.1 69.2001 119 74.2101 119.74C74.2101 119.74 75.5101 122.89 78.2901 123.82C78.2901 123.82 78.8501 127.35 83.3001 127.16L98.4101 128.87L102.73 114.76Z" fill="#FFBE9D"/>
<path d="M79.4506 115.75C79.4406 115.89 76.9906 115.87 73.9906 115.69C70.9806 115.51 68.5506 115.25 68.5606 115.11C68.5706 114.97 71.0106 114.99 74.0306 115.17C77.0306 115.34 79.4606 115.6 79.4506 115.75Z" fill="#EB996E"/>
<path d="M83.81 119.9C83.81 120.04 81.67 120.16 79.03 120.16C76.39 120.16 74.25 120.04 74.25 119.9C74.25 119.76 76.39 119.64 79.03 119.64C81.67 119.64 83.81 119.75 83.81 119.9Z" fill="#EB996E"/>
<path d="M88.5102 123.82C88.5102 123.96 86.3702 124.08 83.7302 124.08C81.0902 124.08 78.9502 123.96 78.9502 123.82C78.9502 123.68 81.0902 123.56 83.7302 123.56C86.3702 123.56 88.5102 123.68 88.5102 123.82Z" fill="#EB996E"/>
<path d="M141.39 132.99C141.26 133.04 140.47 131.44 139.75 129.36C139.03 127.28 138.66 125.53 138.79 125.5C138.93 125.46 139.52 127.13 140.24 129.19C140.95 131.25 141.52 132.93 141.39 132.99Z" fill="#EB996E"/>
<path d="M144.06 131.55C143.94 131.64 142.75 130.19 141.27 128.42C139.8 126.65 138.59 125.21 138.7 125.11C138.8 125.01 140.19 126.3 141.67 128.09C143.16 129.88 144.18 131.47 144.06 131.55Z" fill="#EB996E"/>
<path d="M240.3 122.6C241.95 121.67 248.64 128.74 248.3 126.57C247.96 124.4 238.86 118.67 240.63 117.76C242.94 116.57 249.78 124.07 250.42 124.67C251.04 125.25 252.16 124.57 251.55 124.05C250.67 123.3 241.68 115.29 243.93 114.11C245.18 113.45 246.49 115.37 246.49 115.37C246.49 115.37 254.22 123.35 255.26 122.76C256.32 122.16 251.97 117.36 250.37 115.82C248.78 114.3 249.04 113.09 250.46 113.1C251.43 113.11 256.49 117.73 258.03 119.28C259.57 120.83 263.72 125.14 263.82 121.72C263.93 118.3 265.63 115.72 266.71 115.28C267.79 114.84 268.96 115.89 268.37 116.83C267.89 117.6 267.6 119.07 267.44 120.19C267.32 121 267.36 121.82 267.55 122.62C271.41 125.81 299.11 148.54 302.33 147.58C305.79 146.54 319.07 103.25 319.07 103.25L332.65 142.69C332.65 142.69 323.13 171.17 305.5 171.47C284.34 171.83 254.28 133.74 254.27 133.74C250.28 131.32 246.01 128.61 243.86 126.91C239.29 123.28 239.69 122.95 240.3 122.6Z" fill="#FFBE9D"/>
<path d="M325.19 144.46L306.32 132.19C306.32 132.19 316.46 93.82 331.96 92.59L332.65 106.61L325.19 144.46Z" fill="#263238"/>
<path d="M359.26 87.62C359.26 87.62 383.41 85.01 376.95 119.54C376.95 119.54 379.2 166.97 382.41 186.69C385.02 202.74 318.43 198.39 318.43 198.39C318.43 198.39 319.35 127.29 317.87 120.52C314.99 107.27 320.29 100.94 320.29 100.94C322.9 96.51 326.91 93.88 331.96 92.58L359.26 87.62Z" fill="#171751"/>
<path d="M325.52 109.15C325.39 109.16 326.25 111.11 325.49 114.23C325.14 115.77 324.39 117.51 323.37 119.37C322.38 121.23 321.11 123.24 320.29 125.6C318.6 130.35 319.12 135.08 320.13 138.13C320.63 139.68 321.22 140.86 321.68 141.64C322.15 142.42 322.46 142.81 322.49 142.79C322.61 142.73 321.45 141.06 320.57 138C319.69 134.98 319.27 130.4 320.9 125.82C321.69 123.54 322.93 121.55 323.9 119.65C324.9 117.76 325.63 115.94 325.94 114.33C326.26 112.72 326.19 111.37 325.99 110.48C325.8 109.58 325.55 109.14 325.52 109.15Z" fill="#8F9296"/>
<path d="M332.39 38.97C331.16 41.36 330.64 44.12 330.93 46.8C331.12 48.56 331.61 50.5 330.63 51.97C329.44 53.76 326.66 53.91 325.49 55.71C323.81 58.31 326.77 61.97 325.42 64.76C324.53 66.6 322.19 67.15 320.61 68.45C318.39 70.26 317.82 73.7 319.13 76.24C320.28 78.47 322.53 79.88 324.68 81.17C326.32 82.16 327.96 83.15 329.6 84.14C330.48 84.67 331.45 85.22 332.46 85.08C334.27 84.83 335.11 82.62 336.75 81.81C338.77 80.8 341.13 82.21 343.38 82.35C345.05 82.46 346.76 81.81 347.94 80.63C349.12 79.45 349.76 77.74 349.66 76.07" fill="#080014"/>
<path d="M337.93 90.64C338.47 84.97 338.94 78.99 338.94 78.99C338.94 78.99 331.76 77.06 331.18 67.38C330.63 58.15 334.19 37.32 334.19 37.32C345.12 34.07 357.29 38.15 363.96 47.3L358.81 93.28C358.21 98.62 353.15 102.35 347.44 101.67C341.67 100.98 337.41 96.04 337.93 90.64Z" fill="#FFBE9D"/>
<path d="M333.43 53.7599C333.34 54.3999 333.82 55.0099 334.49 55.1099C335.16 55.2099 335.77 54.7799 335.86 54.1299C335.95 53.4899 335.47 52.8799 334.8 52.7799C334.13 52.6799 333.52 53.1099 333.43 53.7599Z" fill="#263238"/>
<path d="M333.43 52.41C333.57 52.58 334.56 51.99 335.87 52.12C337.18 52.23 338.08 53.01 338.24 52.86C338.32 52.8 338.19 52.49 337.8 52.15C337.42 51.8 336.74 51.44 335.92 51.36C335.1 51.28 334.38 51.52 333.96 51.79C333.53 52.06 333.37 52.33 333.43 52.41Z" fill="#263238"/>
<path d="M347.1 55.5299C347.01 56.1699 347.49 56.7799 348.16 56.8799C348.83 56.9799 349.44 56.5499 349.53 55.8999C349.62 55.2599 349.14 54.6499 348.47 54.5499C347.8 54.4499 347.19 54.8899 347.1 55.5299Z" fill="#263238"/>
<path d="M347.11 54.2399C347.25 54.4099 348.24 53.8199 349.55 53.9499C350.86 54.0599 351.76 54.8399 351.92 54.6899C352 54.6299 351.87 54.3199 351.48 53.9799C351.1 53.6299 350.42 53.2699 349.6 53.1899C348.78 53.1099 348.06 53.3499 347.64 53.6199C347.2 53.8899 347.04 54.1599 347.11 54.2399Z" fill="#263238"/>
<path d="M341.37 63.5199C341.38 63.4499 340.58 63.2199 339.27 62.9199C338.94 62.8499 338.63 62.7499 338.59 62.5199C338.53 62.2699 338.71 61.9199 338.91 61.5499C339.31 60.7699 339.72 59.9499 340.15 59.0899C341.89 55.5899 343.18 52.6899 343.04 52.6199C342.9 52.5499 341.38 55.3399 339.64 58.8399C339.22 59.6999 338.82 60.5299 338.44 61.3199C338.28 61.6899 338.01 62.0999 338.14 62.6199C338.21 62.8799 338.43 63.0899 338.64 63.1699C338.85 63.2599 339.04 63.2799 339.2 63.3099C340.54 63.5099 341.36 63.5999 341.37 63.5199Z" fill="#263238"/>
<path d="M338.93 78.99C338.93 78.99 345.3 80.03 352.02 76.84C352.02 76.84 348.28 83.08 338.83 81.25L338.93 78.99Z" fill="#EB996E"/>
<path d="M341.62 66.74C342.15 66.16 343.02 65.9 343.83 66.07C344.39 66.19 344.94 66.52 345.24 67.02C345.54 67.52 345.55 68.19 345.19 68.6C344.79 69.06 344.03 69.11 343.42 68.87C342.81 68.63 342.31 68.16 341.84 67.7C341.71 67.57 341.58 67.44 341.5 67.27C341.43 67.11 341.43 66.9 341.55 66.78" fill="#ECB000"/>
<path d="M345.15 64.81C344.94 64.78 344.79 66.2 343.47 67.1C342.15 68 340.64 67.69 340.61 67.88C340.58 67.97 340.92 68.19 341.56 68.27C342.19 68.35 343.13 68.24 343.94 67.7C344.75 67.15 345.15 66.35 345.25 65.77C345.38 65.18 345.25 64.81 345.15 64.81Z" fill="#263238"/>
<path d="M336.68 34.97C335.56 37.75 336.57 41.23 339.01 42.98C341.46 44.74 344.71 44.66 347.68 45.18C350.65 45.7 353.96 47.47 354.16 50.48C354.28 52.3 353.19 54.19 353.85 55.89C354.62 57.88 357.34 58.47 358.3 60.38C359.84 63.45 355.81 66.81 356.39 70.19C356.73 72.2 358.62 73.65 359.04 75.65C359.63 78.49 357.16 81.84 358.99 84.09C360.4 85.81 363.16 85.24 365.13 84.2C367.1 83.16 369.2 81.77 371.35 82.35C372.64 82.7 373.64 83.7 374.82 84.32C376.96 85.44 379.77 85.15 381.63 83.6C383.49 82.05 384.3 79.35 383.59 77.03C383.06 75.32 381.84 73.93 380.81 72.46C379.78 70.99 378.9 69.24 379.23 67.48C379.48 66.13 380.4 65.02 381.09 63.83C381.78 62.64 382.26 61.13 381.6 59.93C380.43 57.82 376.93 58.4 375.42 56.52C373.35 53.93 377.03 49.94 375.64 46.94C374.07 43.54 367.87 44.86 366.28 41.47C365.7 40.23 366 38.77 365.71 37.43C365.06 34.38 361.6 32.76 358.49 32.57C355.38 32.38 352.23 33.13 349.15 32.67C347.46 32.42 345.84 31.81 344.17 31.46C342.5 31.11 340.68 31.03 339.15 31.8C337.62 32.57 336.53 34.38 337.03 36.01" fill="#080014"/>
<path d="M338.791 41.4C337.381 44.66 334.381 47.19 330.931 48.02C330.731 45.67 330.591 43.29 330.971 40.96C331.351 38.63 332.301 36.33 334.001 34.69C335.701 33.05 338.221 32.17 340.501 32.78" fill="#080014"/>
<g opacity="0.3">
<g opacity="0.3">
<path opacity="0.3" d="M377.43 83.9499C377.41 83.9299 377.69 83.8299 377.91 83.3799C378.13 82.9499 378.2 82.1499 377.74 81.3399C377.52 80.9299 377.11 80.5899 376.62 80.3099C376.13 80.0199 375.54 79.8099 374.91 79.5999C374.28 79.3899 373.58 79.1699 372.91 78.7799C372.25 78.3999 371.59 77.7799 371.39 76.9099C371.17 76.0399 371.48 75.1099 371.9 74.2999C372.31 73.4699 372.87 72.6699 373.23 71.7699C373.97 69.9699 373.75 67.6599 372.58 65.8099C372.01 64.8799 371.16 64.0799 370.15 63.5599C369.12 63.0499 367.95 62.7799 366.82 62.2799C366.26 62.0299 365.7 61.7099 365.26 61.2399C364.8 60.7799 364.51 60.1599 364.4 59.5199C364.19 58.2199 364.59 56.9499 364.74 55.6999C364.91 54.4399 364.73 53.1699 364.25 52.0299C363.78 50.8899 363.07 49.8699 362.24 49.0099C360.56 47.2799 358.38 46.2799 356.27 45.6099C354.15 44.9499 352.05 44.5999 350.1 44.2399C348.15 43.8899 346.33 43.4999 344.72 42.9699C343.11 42.4399 341.72 41.7499 340.61 40.9799C339.5 40.2099 338.68 39.3699 338.1 38.6199C337.52 37.8699 337.19 37.1999 337.01 36.7399C336.82 36.2799 336.76 36.0199 336.76 36.0199C336.77 36.0099 336.86 36.2599 337.06 36.7199C337.26 37.1699 337.6 37.8199 338.19 38.5599C339.33 40.0399 341.55 41.7999 344.78 42.7999C346.38 43.3199 348.19 43.6799 350.15 44.0299C352.1 44.3799 354.21 44.7199 356.35 45.3799C358.48 46.0399 360.71 47.0599 362.44 48.8299C363.3 49.7099 364.03 50.7499 364.51 51.9399C365 53.1199 365.19 54.4499 365.02 55.7499C364.86 57.0299 364.47 58.2799 364.67 59.4899C364.77 60.0799 365.03 60.6399 365.45 61.0599C365.86 61.4899 366.38 61.7999 366.93 62.0399C368.02 62.5299 369.2 62.7999 370.27 63.3299C371.33 63.8799 372.21 64.7099 372.8 65.6799C374.01 67.5999 374.23 69.9899 373.45 71.8599C373.07 72.7999 372.51 73.5899 372.1 74.3999C371.69 75.1999 371.4 76.0699 371.59 76.8699C371.77 77.6699 372.38 78.2599 373.02 78.6299C373.66 79.0199 374.34 79.2399 374.98 79.4599C375.61 79.6799 376.21 79.8999 376.71 80.1999C377.21 80.4999 377.62 80.8599 377.85 81.2899C378.32 82.1399 378.23 82.9799 377.98 83.4099C377.71 83.8599 377.42 83.9499 377.43 83.9499Z" fill="white"/>
</g>
</g>
<g opacity="0.3">
<g opacity="0.3">
<path opacity="0.3" d="M375.17 54.47C375.17 54.47 375.13 54.49 375.05 54.5C374.95 54.52 374.84 54.54 374.7 54.57C374.39 54.63 373.93 54.71 373.34 54.76C372.75 54.81 372 54.85 371.16 54.68C370.32 54.51 369.39 54.04 368.69 53.2C367.98 52.37 367.48 51.27 367.13 50.06C366.77 48.85 366.53 47.53 365.99 46.24C365.46 44.95 364.54 43.77 363.38 42.81C362.21 41.85 360.8 41.1 359.28 40.56C356.22 39.49 353.09 39.36 350.29 39.1C348.89 38.98 347.55 38.84 346.31 38.63C345.07 38.42 343.93 38.13 342.92 37.78C340.88 37.1 339.41 36.12 338.51 35.33C337.62 34.53 337.26 33.97 337.26 33.97C337.26 33.97 337.29 34 337.35 34.05C337.42 34.12 337.5 34.21 337.59 34.31C337.8 34.54 338.13 34.87 338.58 35.25C339.48 36.01 340.96 36.95 342.98 37.6C343.99 37.93 345.12 38.21 346.35 38.41C347.58 38.61 348.91 38.74 350.31 38.85C353.1 39.1 356.25 39.22 359.37 40.3C360.91 40.85 362.35 41.61 363.55 42.6C364.74 43.59 365.69 44.81 366.23 46.14C366.77 47.46 367 48.8 367.35 49.99C367.69 51.18 368.16 52.26 368.84 53.07C369.5 53.89 370.38 54.35 371.19 54.53C372.01 54.71 372.74 54.69 373.33 54.66C373.92 54.62 374.38 54.56 374.69 54.52C375.01 54.48 375.17 54.46 375.17 54.47Z" fill="white"/>
</g>
</g>
<g opacity="0.3">
<g opacity="0.3">
<path opacity="0.3" d="M324.931 79.93C324.931 79.94 324.861 79.92 324.741 79.86C324.621 79.81 324.451 79.73 324.231 79.6C323.811 79.34 323.231 78.89 322.711 78.16C322.201 77.44 321.741 76.43 321.681 75.23C321.611 74.04 322.021 72.71 322.881 71.64C323.741 70.57 324.941 69.87 326.111 69.66C327.281 69.47 328.331 69.54 329.141 69.23C329.941 68.93 330.411 68.34 330.561 67.9C330.711 67.44 330.601 67.17 330.631 67.16C330.641 67.16 330.661 67.22 330.691 67.35C330.711 67.48 330.721 67.68 330.661 67.93C330.531 68.42 330.061 69.07 329.211 69.41C328.361 69.76 327.271 69.7 326.161 69.91C325.051 70.13 323.921 70.8 323.101 71.82C322.281 72.84 321.881 74.09 321.931 75.22C321.971 76.36 322.401 77.33 322.871 78.05C323.351 78.77 323.891 79.23 324.291 79.51C324.691 79.8 324.941 79.9 324.931 79.93Z" fill="white"/>
</g>
</g>
<path d="M362.66 37.48C361.83 33.55 364.31 29.2 368.12 27.91C369.57 27.42 371.27 27.37 372.56 28.2C373.58 28.86 374.23 29.99 374.55 31.16C375.22 33.67 374.43 36.52 372.57 38.33C370.7 40.14 367.83 40.84 365.34 40.08C363.98 39.67 362.65 38.72 362.33 37.34" fill="#080014"/>
<path d="M362.24 34.72C362.07 34.69 361.96 36.28 363.04 37.79C364.11 39.32 365.64 39.75 365.67 39.57C365.75 39.39 364.51 38.76 363.58 37.41C362.62 36.08 362.43 34.7 362.24 34.72Z" fill="#8F9296"/>
<path d="M323.57 106.872L191.058 141.716L218.916 247.662L351.428 212.817L323.57 106.872Z" fill="#F5F5F5"/>
<path d="M191.06 141.71C191.06 141.71 191.28 141.66 191.7 141.56C192.13 141.45 192.75 141.29 193.56 141.09C195.21 140.67 197.62 140.04 200.76 139.23C207.06 137.59 216.25 135.2 227.9 132.17C251.18 126.08 284.29 117.43 323.64 107.15L323.28 106.94C331.56 138.47 341.06 174.63 351.1 212.88V212.89L351.33 212.49C302.27 225.41 256.69 237.42 218.83 247.39L219.16 247.58C210.71 215.68 203.71 189.24 198.81 170.76C196.35 161.52 194.42 154.27 193.1 149.31C192.44 146.84 191.93 144.95 191.58 143.66C191.26 142.38 191.06 141.71 191.06 141.71C191.06 141.71 191.21 142.35 191.53 143.62C191.86 144.91 192.34 146.79 192.98 149.24C194.27 154.19 196.15 161.43 198.54 170.67C203.38 189.21 210.3 215.73 218.66 247.73L218.73 247.99L218.99 247.92C256.86 237.98 302.46 226.01 351.52 213.13L351.84 213.05L351.76 212.73V212.72C341.69 174.47 332.17 138.33 323.87 106.8L323.8 106.52L323.52 106.6C284.12 117.02 250.98 125.79 227.67 131.96C216.06 135.05 206.9 137.48 200.63 139.15C197.52 139.98 195.13 140.62 193.5 141.06C192.71 141.28 192.1 141.44 191.68 141.56C191.26 141.65 191.06 141.71 191.06 141.71Z" fill="#263238"/>
<path opacity="0.2" d="M320.76 114.737L197.552 147.135L221.901 239.735L345.11 207.337L320.76 114.737Z" fill="#ECB000"/>
<path d="M377.67 152.6C365.72 164.87 348.19 172.43 341.87 174.9C340.9 174.77 339.77 174.59 338.45 174.31C337.31 174.07 336.23 173.63 335.24 173.03C334.04 172.3 332.48 171.26 331.81 170.42C330.97 169.39 329.32 169.91 329.38 171.11C329.44 172.31 331.67 175.21 335.51 177.11C339.34 179 332.78 180.5 330.4 181.09C328.02 181.68 320.74 183.85 320.34 184.72C319.76 186 321.02 186.87 323.39 186.22C325.78 185.57 332.98 184.15 333.23 185.42C333.48 186.67 321.32 189.5 321.32 189.5C321.32 189.5 318.62 189.68 318.86 191.16C319.29 193.83 332 189.87 333.2 189.46C334.03 189.18 334.36 190.55 333.44 190.81C332.5 191.07 321.24 193.35 321.66 196.07C321.98 198.16 332.14 192.91 334.74 193.73C337.34 194.55 326.63 196.93 327.01 198.91C327.15 199.65 327.36 200.18 333.32 197.93C336.21 196.84 341.21 194.26 345.67 191.84L345.69 191.9C345.69 191.9 408.52 173.34 401.56 145.36C394.17 115.68 392.7 112.96 392.7 112.96L369.44 118.26C369.44 118.27 379.83 150.39 377.67 152.6Z" fill="#FFBE9D"/>
<path d="M396.13 120.63C396.13 120.63 386.17 88.38 360.46 88.04V91.97L371.02 128.55L396.13 120.63Z" fill="#171751"/>
<path d="M365.779 112.98C365.739 112.99 365.8 113.43 365.97 114.21C366.14 115 366.429 116.14 366.839 117.55C367.659 120.37 368.979 124.28 370.709 128.67L370.82 128.95L371.109 128.85C372.579 128.36 374.119 127.84 375.709 127.31C381.279 125.43 386.32 123.7 389.95 122.42C391.67 121.8 393.109 121.28 394.239 120.87C395.249 120.49 395.8 120.26 395.79 120.21C395.78 120.17 395.2 120.32 394.16 120.62C393.01 120.98 391.549 121.43 389.799 121.98C386.129 123.15 381.069 124.81 375.5 126.69C373.91 127.23 372.37 127.75 370.91 128.24L371.309 128.43C369.549 124.06 368.159 120.2 367.239 117.42C366.819 116.12 366.47 115.03 366.19 114.15C365.95 113.39 365.819 112.97 365.779 112.98Z" fill="#8F9296"/>
<path d="M363.46 105.48C363.56 105.47 363.45 104.36 363.4 102.59C363.37 100.84 363.41 98.3401 364.46 95.9001C365.52 93.4801 367.54 91.8901 369.14 91.3101C370.77 90.7001 371.91 90.9601 371.91 90.8201C371.92 90.7801 371.65 90.6901 371.14 90.6301C370.63 90.5701 369.87 90.6001 368.99 90.8701C367.22 91.3701 365 93.0201 363.85 95.6401C362.74 98.2501 362.78 100.85 362.93 102.62C363.1 104.42 363.38 105.49 363.46 105.48Z" fill="#8F9296"/>
<g opacity="0.3">
<path d="M271.878 178.418C272.351 178.292 272.631 177.806 272.505 177.333C272.378 176.861 271.892 176.581 271.42 176.707C270.948 176.834 270.667 177.32 270.794 177.792C270.92 178.264 271.406 178.545 271.878 178.418Z" fill="#00003F"/>
<path d="M253.058 183.461C253.53 183.335 253.811 182.849 253.684 182.377C253.558 181.904 253.072 181.624 252.6 181.75C252.127 181.877 251.847 182.363 251.973 182.835C252.1 183.307 252.586 183.588 253.058 183.461Z" fill="#00003F"/>
<path d="M243.744 171.286C244.216 171.16 244.497 170.674 244.37 170.202L242.169 161.989L250.382 159.789C250.855 159.662 251.135 159.176 251.008 158.704C250.882 158.231 250.396 157.951 249.924 158.078L240.855 160.507C240.383 160.634 240.103 161.12 240.229 161.592L242.659 170.66C242.786 171.133 243.271 171.413 243.744 171.286Z" fill="#00003F"/>
<path d="M262.287 200.794C262.16 200.321 261.675 200.041 261.202 200.167L252.989 202.368L250.789 194.155C250.662 193.683 250.177 193.402 249.704 193.529C249.232 193.656 248.951 194.141 249.078 194.614L251.508 203.682C251.634 204.154 252.12 204.435 252.592 204.308L261.661 201.878C262.133 201.752 262.413 201.266 262.287 200.794Z" fill="#00003F"/>
<path d="M291.794 182.251C291.321 182.378 291.041 182.863 291.167 183.336L293.368 191.548L285.155 193.749C284.683 193.876 284.403 194.361 284.529 194.834C284.656 195.306 285.141 195.587 285.614 195.46L294.682 193.03C295.155 192.904 295.435 192.418 295.308 191.945L292.878 182.877C292.752 182.405 292.266 182.124 291.794 182.251Z" fill="#00003F"/>
<path d="M282.946 149.229L273.878 151.659C273.405 151.786 273.125 152.271 273.252 152.744C273.378 153.216 273.864 153.497 274.336 153.37L282.549 151.169L284.75 159.382C284.876 159.855 285.362 160.135 285.834 160.008C286.307 159.882 286.587 159.396 286.461 158.924L284.031 149.856C283.904 149.383 283.419 149.103 282.946 149.229Z" fill="#00003F"/>
<path d="M255.642 196.523C255.768 196.995 256.254 197.276 256.726 197.149L265.281 194.857C265.754 194.73 266.034 194.244 265.907 193.772L263.615 185.217C263.489 184.745 263.003 184.464 262.53 184.591L253.976 186.883C253.503 187.01 253.223 187.495 253.349 187.968L255.642 196.523ZM255.29 188.365L262.133 186.531L263.967 193.375L257.123 195.209L255.29 188.365Z" fill="#00003F"/>
<path d="M256.57 162.348L248.015 164.641C247.542 164.767 247.262 165.253 247.388 165.725L249.681 174.28C249.807 174.753 250.293 175.033 250.765 174.906L259.32 172.614C259.793 172.487 260.073 172.002 259.947 171.529L257.654 162.975C257.528 162.502 257.042 162.222 256.57 162.348ZM258.006 171.132L251.162 172.966L249.329 166.122L256.172 164.288L258.006 171.132Z" fill="#00003F"/>
<path d="M279.897 157.015C279.771 156.542 279.285 156.262 278.813 156.388L270.258 158.681C269.785 158.807 269.505 159.293 269.632 159.765L271.924 168.32C272.05 168.793 272.536 169.073 273.009 168.946L281.563 166.654C282.036 166.528 282.316 166.042 282.19 165.569L279.897 157.015ZM280.249 165.172L273.406 167.006L271.572 160.162L278.416 158.328L280.249 165.172Z" fill="#00003F"/>
<path d="M288.149 187.812L285.856 179.257C285.73 178.785 285.244 178.504 284.772 178.631L276.217 180.923C275.744 181.05 275.464 181.535 275.591 182.008L277.883 190.563C278.009 191.035 278.495 191.316 278.968 191.189L287.522 188.897C287.995 188.77 288.275 188.285 288.149 187.812ZM286.208 187.415L279.365 189.249L277.531 182.405L284.375 180.571L286.208 187.415Z" fill="#00003F"/>
<path d="M260.025 188.93L258.314 189.388C257.842 189.515 257.562 190 257.688 190.473L258.147 192.184C258.273 192.656 258.759 192.937 259.231 192.81L260.942 192.352C261.415 192.225 261.695 191.74 261.569 191.267L261.11 189.556C260.984 189.083 260.498 188.803 260.025 188.93Z" fill="#00003F"/>
<path d="M253.27 170.567L254.981 170.109C255.454 169.982 255.734 169.497 255.608 169.024L255.149 167.313C255.023 166.841 254.537 166.56 254.065 166.687L252.354 167.146C251.881 167.272 251.601 167.758 251.727 168.23L252.186 169.941C252.312 170.414 252.798 170.694 253.27 170.567Z" fill="#00003F"/>
<path d="M275.514 164.608L277.225 164.149C277.697 164.023 277.977 163.537 277.851 163.064L277.392 161.353C277.266 160.881 276.78 160.601 276.308 160.727L274.597 161.186C274.124 161.312 273.844 161.798 273.97 162.27L274.429 163.981C274.556 164.454 275.041 164.734 275.514 164.608Z" fill="#00003F"/>
<path d="M281.474 186.85L283.185 186.392C283.657 186.265 283.937 185.78 283.811 185.307L283.352 183.596C283.226 183.124 282.74 182.843 282.268 182.97L280.557 183.428C280.084 183.555 279.804 184.04 279.93 184.513L280.389 186.224C280.515 186.696 281.001 186.977 281.474 186.85Z" fill="#00003F"/>
<path d="M255.395 181.918C255.522 182.391 256.007 182.671 256.48 182.544L267.601 179.564L268.747 183.842C268.874 184.314 269.36 184.595 269.832 184.468C270.305 184.341 270.585 183.856 270.458 183.383L269.083 178.25C268.956 177.778 268.471 177.497 267.998 177.624L256.022 180.833C255.549 180.96 255.269 181.445 255.395 181.918Z" fill="#00003F"/>
<path d="M260.697 177.747C261.169 177.62 261.45 177.135 261.323 176.662C261.197 176.19 260.711 175.909 260.238 176.036L251.684 178.328C251.211 178.455 250.931 178.94 251.057 179.413C251.184 179.886 251.67 180.166 252.142 180.039L260.697 177.747Z" fill="#00003F"/>
<path d="M264.119 176.83L267.541 175.913C268.013 175.786 268.293 175.301 268.167 174.828C268.04 174.356 267.555 174.076 267.082 174.202L263.66 175.119C263.188 175.246 262.907 175.731 263.034 176.204C263.161 176.676 263.646 176.957 264.119 176.83Z" fill="#00003F"/>
<path d="M259.991 161.431C259.519 161.558 259.238 162.043 259.365 162.516L261.657 171.071C261.784 171.543 262.269 171.824 262.742 171.697L268.73 170.093L269.876 174.37C270.003 174.842 270.489 175.123 270.961 174.996L274.383 174.079C274.856 173.953 275.136 173.467 275.009 172.995C274.883 172.522 274.397 172.242 273.925 172.368L271.358 173.056L270.212 168.779C270.085 168.306 269.6 168.026 269.127 168.152L263.139 169.757L261.076 162.058C260.949 161.585 260.464 161.305 259.991 161.431Z" fill="#00003F"/>
<path d="M282.481 170.076L277.348 171.451C276.875 171.578 276.595 172.064 276.721 172.536C276.848 173.009 277.334 173.289 277.806 173.162L282.939 171.787C283.412 171.66 283.692 171.175 283.565 170.702C283.439 170.23 282.953 169.949 282.481 170.076Z" fill="#00003F"/>
<path d="M283.397 173.498L274.842 175.79C274.369 175.917 274.089 176.402 274.216 176.875C274.342 177.348 274.828 177.628 275.3 177.501L283.855 175.209C284.328 175.082 284.608 174.597 284.481 174.124C284.355 173.652 283.869 173.371 283.397 173.498Z" fill="#00003F"/>
<path d="M270.291 186.179L266.869 187.096C266.397 187.222 266.116 187.708 266.243 188.181L267.618 193.313C267.745 193.786 268.23 194.066 268.703 193.94C269.175 193.813 269.456 193.328 269.329 192.855L268.183 188.578L270.75 187.89C271.222 187.763 271.502 187.278 271.376 186.805C271.249 186.333 270.764 186.052 270.291 186.179Z" fill="#00003F"/>
<path d="M274.233 190.624L271.667 191.312C271.194 191.438 270.914 191.924 271.04 192.397C271.167 192.869 271.653 193.149 272.125 193.023L275.547 192.106C276.02 191.979 276.3 191.494 276.173 191.021L273.423 180.755C273.296 180.283 272.81 180.003 272.338 180.129C271.865 180.256 271.585 180.741 271.712 181.214L274.233 190.624Z" fill="#00003F"/>
<path d="M268.67 166.441C269.142 166.315 269.423 165.829 269.296 165.357L267.921 160.224C267.794 159.751 267.309 159.471 266.836 159.598C266.364 159.724 266.083 160.21 266.21 160.682L267.356 164.96L264.789 165.647C264.317 165.774 264.037 166.26 264.163 166.732C264.29 167.205 264.775 167.485 265.248 167.358L268.67 166.441Z" fill="#00003F"/>
</g>
</svg>
