<svg width="451" height="389" fill="none" xmlns="http://www.w3.org/2000/svg"><path d="M53.51 364.01c.87-3.44-1.41-6.88-3.95-9.36-2.54-2.48-5.57-4.7-6.91-7.99-2.16-5.33.66-12.26-3-16.7-2.15-2.61-5.99-3.47-7.9-6.26-1-1.46-1.34-3.27-1.74-5-2.04-8.82-6.51-17.06-12.78-23.59a44.13 44.13 0 0 0 5.09 22.78c1.49 2.79 3.31 5.52 3.82 8.64.82 5.07-1.98 10.32-.71 15.3 1.46 5.69 7.89 9.48 8.22 15.34.28 4.96-4.02 9.34-3.67 14.3.15 2.11 1.14 4.07 2.24 5.87 3.87 6.36 9.54 10.72 18.08 10.53l10.47.31-7.26-24.17Z" fill="#F5F5F5"/><path d="M62.91 388.45s1 .23 2.88-.08c.94-.14 2.09-.4 3.4-.88 1.3-.48 2.78-1.17 4.19-2.32.68-.6 1.35-1.34 1.71-2.31.36-.97.41-2.04.48-3.13.05-1.09.04-2.23.22-3.39.17-1.15.62-2.29 1.26-3.37 1.22-2.17 3.26-4.24 3.9-7.19.7-2.9.17-6.03-.34-9.17-.5-3.14-.99-6.56.19-9.83 1.1-3.28 3.38-6.25 4.51-9.94 1.12-3.73.57-7.74.79-11.69.1-1.99.47-3.97 1.33-5.82.84-1.86 2-3.61 2.91-5.57 1.84-3.95 2.14-8.42 2.62-12.81.24-2.21.47-4.44.71-6.69.24-2.26.42-4.52 1.12-6.7.63-2.2 1.55-4.32 2.47-6.49.45-1.09.92-2.18 1.2-3.39.2-1.23.25-2.39.32-3.6.1-2.4-.01-4.83-.32-7.24-.3-2.41-.75-4.81-1.02-7.22-.02-.14-.03-.29-.05-.42l-.06-.48-.43.22c-2.23 1.13-4.14 2.82-5.61 4.79-1.49 1.96-2.57 4.16-3.43 6.4-1.72 4.51-2.33 9.22-3.18 13.72-.83 4.5-1.94 8.93-4.23 12.68-1.14 1.87-2.51 3.58-3.72 5.4-1.2 1.81-2.26 3.8-2.56 5.98-.59 4.43 1.87 8.31 1.38 12.23-.17 1.95-.93 3.77-1.88 5.44-.94 1.68-2.05 3.23-3.1 4.8-1.05 1.56-2.05 3.15-2.78 4.84-.75 1.69-1.15 3.49-1.26 5.25-.24 3.53.28 6.88.04 10.04-.19 3.17-1.29 6.04-2.53 8.62-1.25 2.58-2.65 4.92-3.81 7.18-.59 1.13-1.13 2.24-1.57 3.34-.47 1.11-.69 2.24-.9 3.31-.33 2.17-.29 4.19-.04 5.97.48 3.58 1.83 6.16 3.04 7.6.28.39.6.66.85.91.25.26.49.44.69.58.4.3.61.43.61.43.05-.05-.86-.53-2.04-1.99-1.16-1.45-2.45-4.01-2.88-7.55-.22-1.76-.24-3.76.1-5.89.21-1.05.44-2.16.91-3.24.44-1.08.99-2.18 1.58-3.3 1.18-2.24 2.59-4.57 3.86-7.17 1.27-2.59 2.41-5.52 2.62-8.77.26-3.23-.25-6.59 0-10.03a15 15 0 0 1 1.23-5.08c.72-1.64 1.7-3.2 2.75-4.75 1.05-1.55 2.17-3.12 3.14-4.83.97-1.7 1.78-3.6 1.97-5.67.48-4.18-1.96-8.08-1.36-12.2.29-2.04 1.29-3.94 2.48-5.72 1.18-1.79 2.57-3.5 3.74-5.42 2.36-3.86 3.48-8.37 4.33-12.89.86-4.53 1.47-9.2 3.16-13.61.84-2.19 1.9-4.34 3.34-6.23 1.41-1.9 3.24-3.51 5.37-4.59l-.48-.26c.02.13.03.28.05.42.28 2.45.73 4.84 1.02 7.23.31 2.38.42 4.77.32 7.13-.06 1.17-.13 2.39-.3 3.49-.25 1.1-.71 2.19-1.16 3.27-.91 2.16-1.84 4.32-2.49 6.56-.71 2.23-.91 4.57-1.14 6.81-.24 2.25-.47 4.49-.7 6.7-.48 4.4-.78 8.8-2.55 12.62-.87 1.9-2.04 3.66-2.9 5.58-.89 1.91-1.28 4.01-1.37 6.03-.21 4.04.34 7.99-.73 11.57-1.06 3.57-3.33 6.55-4.47 9.93-1.22 3.42-.68 6.95-.17 10.08.52 3.15 1.05 6.21.39 9-.59 2.81-2.57 4.86-3.81 7.1-.65 1.11-1.11 2.31-1.28 3.51-.18 1.19-.16 2.34-.2 3.43-.05 1.08-.1 2.14-.43 3.04-.32.91-.96 1.62-1.61 2.21-1.36 1.14-2.81 1.84-4.09 2.34-1.28.49-2.42.77-3.35.93-.93.17-1.65.2-2.13.22-.47-.02-.72-.01-.72-.01Z" fill="#E0E0E0"/><path d="M95.271 264.97c-.01 0-.04.11-.1.32-.06.25-.13.56-.23.94-.2.83-.44 2.07-.83 3.63-.4 1.55-1.34 3.31-2.14 5.48-.83 2.15-1.67 4.64-2.45 7.44-.78 2.79-1.47 5.9-2.19 9.22-.74 3.32-1.48 6.88-3.29 10.24-.85 1.7-1.8 3.43-2.56 5.32-.78 1.89-1.19 3.95-1.47 6.01-.48 4.15-1.22 8.36-2.18 12.67-2.05 8.59-4 16.77-5.78 24.22-1.82 7.42-3.46 14.11-4.85 19.75-1.35 5.59-2.44 10.13-3.21 13.33-.36 1.54-.64 2.75-.84 3.63-.08.38-.15.7-.2.95-.04.21-.06.33-.05.33.01 0 .05-.1.11-.31.07-.25.16-.55.27-.93.23-.88.56-2.08.96-3.6.82-3.19 1.99-7.71 3.42-13.28 1.42-5.63 3.11-12.31 4.99-19.72 1.8-7.45 3.77-15.63 5.84-24.22.97-4.31 1.71-8.6 2.18-12.73.28-2.05.67-4.04 1.42-5.87.73-1.84 1.67-3.56 2.52-5.28 1.82-3.43 2.57-7.09 3.28-10.4.7-3.33 1.36-6.43 2.11-9.22.74-2.79 1.54-5.28 2.34-7.43.76-2.16 1.67-3.94 2.04-5.54.35-1.59.55-2.83.71-3.67.06-.39.12-.7.16-.96.02-.21.04-.32.02-.32Z" fill="#E0E0E0"/><path d="M64.75 388.47c6.81-4.1 8.7-16.45 5.81-23.85-2.89-7.41-7.92-14.16-8.74-22.07-.63-6.08 1.33-12.34-.12-18.28-1.96-8.01-9.83-14.19-9.79-22.44.02-4.63 2.63-9 2.4-13.62-.29-5.67-4.67-10.15-7.39-15.13-4.17-7.62-4.49-16.67-5.95-25.23-1.46-8.57-4.78-17.73-12.4-21.9-1.08 7.29-2.97 12.28-2.31 22.14.24 3.54 4.39 10.3 4.99 18.06.36 4.64.62 9.28.93 13.93.3 4.52.62 9.12 2.26 13.33 1.26 3.23 3.27 6.16 4.21 9.5 1.77 6.28-.47 13.11.97 19.48 1.22 5.39 4.98 10.02 5.78 15.49 1.12 7.69-3.82 15.71-1.23 23.04 1.29 3.64 4.3 6.54 5.17 10.3.68 2.91-.03 6.01.59 8.94.99 4.72 10.02 8.33 14.83 8.01" fill="#E0E0E0"/><path d="M30.49 233.16c-.01 0 0 .14.03.41.04.31.09.7.16 1.2.16 1.05.35 2.59.71 4.59.39 2.01 1.44 4.26 2.28 6.98.89 2.71 1.77 5.84 2.56 9.35.8 3.5 1.47 7.38 2.18 11.56.73 4.14 1.48 8.72 3.58 13.06.97 2.18 2.06 4.36 2.88 6.69.84 2.32 1.24 4.81 1.48 7.38.38 5.16 1.1 10.51 2.1 15.91 2.16 10.78 4.21 21.04 6.08 30.38 1.97 9.3 3.74 17.69 5.23 24.74 1.51 7.01 2.73 12.69 3.58 16.67l1.01 4.53c.12.49.21.87.28 1.17.07.26.11.4.12.4.01 0-.01-.14-.05-.41-.05-.3-.12-.69-.21-1.19-.21-1.08-.51-2.61-.88-4.55-.81-3.99-1.96-9.69-3.37-16.71-1.45-7.07-3.17-15.46-5.09-24.77-1.85-9.34-3.89-19.6-6.02-30.37-1-5.4-1.71-10.69-2.1-15.86-.25-2.58-.66-5.15-1.53-7.53-.85-2.38-1.95-4.56-2.92-6.73-2.08-4.27-2.83-8.74-3.59-12.9-.73-4.17-1.44-8.06-2.27-11.57-.82-3.51-1.74-6.65-2.67-9.36-.88-2.73-1.96-4.96-2.38-6.92-.4-1.96-.63-3.52-.84-4.55-.09-.49-.17-.88-.23-1.18-.06-.29-.1-.42-.11-.42Z" fill="#EBEBEB"/><path d="m16.42 39.1 77.13-1.74s-7.1-12.26-26.91-10c-18.92 2.15-20.06-5.66-29.72-6.4-9.67-.75-17.54 6.82-20.5 18.14Zm360.59 41.71h72.66s-6.43-11.69-25.13-9.99c-17.86 1.63-18.77-5.75-27.85-6.66-9.08-.91-16.65 6.05-19.68 16.65Zm.07 36.66h36.26s-3.21-5.83-12.54-4.99c-8.91.81-9.37-2.87-13.9-3.32-4.53-.45-8.31 3.02-9.82 8.31Z" fill="#F5F5F5"/><path d="M358.95 17.11h36.26s-3.21-5.83-12.54-4.99c-8.91.81-9.37-2.87-13.9-3.32-4.53-.45-8.31 3.02-9.82 8.31Z" fill="#FAFAFA"/><path d="M450.87 388.53c0 .14-100.94.26-225.42.26-124.53 0-225.45-.11-225.45-.26 0-.15 100.92-.26 225.45-.26 124.48 0 225.42.12 225.42.26Z" fill="#263238"/><path d="m280.16 351.86-3.57 20.58s-22.12 3.28-23.15 7.02l39.66 8.36 6.88-31.84-19.82-4.12Z" fill="#ECB000"/><path opacity=".6" d="M289.211 373.31c.72.37 1.07 1.35.73 2.08-.34.74-1.33 1.1-2.06.74-.73-.36-1.18-1.52-.76-2.21.42-.7 1.61-1.06 2.23-.53m3.749 14.43.69-3.18-38.36-6.86s-1.93.4-1.99 1.68l39.66 8.36Z" fill="#fff"/><path d="M275.99 372.11c-.03.2.92.49 1.74 1.31.84.8 1.16 1.74 1.35 1.71.19 0 .14-1.22-.87-2.2-1.01-.99-2.23-1.01-2.22-.82Zm-4.519.84c-.08.18.69.68 1.17 1.64.51.94.49 1.86.69 1.9.18.07.55-1.04-.08-2.22-.62-1.18-1.74-1.5-1.78-1.32Zm-3.421 4.48c.17.08.64-.83.37-2s-1.09-1.78-1.21-1.63c-.14.14.33.83.54 1.79.23.96.12 1.78.3 1.84Zm9.271-9.92c.04.19.99.11 2.07.42 1.09.28 1.86.83 2 .69.14-.12-.54-1.01-1.81-1.35-1.28-.36-2.32.07-2.26.24Z" fill="#263238"/><path opacity=".3" d="m279.461 355.94-.65 3.67 19.53 3.93.72-3.28-19.6-4.32Z" fill="#000"/><path d="M278.121 363.37c-.02.08.72.36 1.99.41.63.02 1.39-.03 2.21-.2.41-.09.84-.21 1.27-.36.21-.08.45-.15.7-.34.26-.16.49-.64.31-1.01-.14-.35-.47-.55-.76-.62-.29-.07-.54-.06-.77-.05-.46.01-.91.07-1.32.16-.83.18-1.54.49-2.08.82-1.1.66-1.57 1.32-1.51 1.37.07.08.65-.43 1.73-.94a7.83 7.83 0 0 1 1.98-.62c.38-.07.79-.11 1.21-.11.44-.02.8.05.87.26.02.08.02.11-.09.21-.11.09-.31.17-.51.25-.4.15-.79.28-1.18.38-.76.2-1.48.29-2.08.33-1.19.06-1.95-.05-1.97.06Z" fill="#263238"/><path d="M278.31 363.7c.06.04.59-.57.93-1.81.16-.62.26-1.38.19-2.23-.04-.42-.12-.87-.25-1.31-.15-.44-.32-1.03-1.06-1.27-.39-.1-.78.14-.95.38-.19.24-.26.47-.36.69-.17.45-.26.9-.28 1.34-.05.87.14 1.65.42 2.23.56 1.19 1.32 1.59 1.35 1.53.09-.08-.51-.6-.9-1.71-.19-.55-.31-1.25-.24-2 .04-.38.13-.76.28-1.14.15-.41.38-.72.53-.64.2.04.47.43.56.8.13.4.21.8.27 1.18.1.77.06 1.48-.03 2.06-.2 1.17-.56 1.85-.46 1.9Z" fill="#263238"/><path d="m410.481 353.12-8.58-11.2-.45-.58-14.61 10.87 13.53 14.86-.49 15.04c-7.54 1.95-8.67 5.71-8.67 5.71l15.66-.02 14.23-27.41-10.62-7.27Z" fill="#ECB000"/><path opacity=".6" d="m421.101 360.4-14.22 27.41-15.67.01 1.76-2.35 12.74-.72 13.13-25.9 2.26 1.55Z" fill="#fff"/><path d="M399.981 375.22c.12.16 1.02-.35 2.23-.32 1.21 0 2.1.54 2.22.38.15-.12-.74-1.06-2.21-1.07-1.48-.03-2.39.88-2.24 1.01Zm.25-3.73c.16.11.85-.81 2.1-1.06 1.25-.26 2.25.33 2.35.16.05-.07-.13-.33-.57-.57-.43-.24-1.14-.42-1.92-.27-.77.16-1.36.6-1.67.99-.31.39-.37.7-.29.75Zm-.11-4.8c.17.09.7-.82 1.8-1.2 1.09-.39 2.07-.02 2.15-.2.04-.08-.16-.3-.59-.46-.43-.16-1.1-.23-1.79.01-.69.24-1.17.72-1.4 1.12-.23.4-.25.7-.17.73Zm-4.191-3.71c.19.07.63-.83 1.6-1.46.95-.66 1.95-.72 1.96-.92.05-.18-1.16-.45-2.34.35-1.19.79-1.41 2.01-1.22 2.03Zm-2.049-3.21c.08.05.6-.58 1.37-1.64.44-.62.87-1.24 1.32-1.88.23-.37.54-.69.73-1.27.08-.29.08-.64-.1-.95-.16-.33-.6-.54-.95-.49-.68.1-1.06.45-1.46.76-.38.33-.7.7-.95 1.09-.5.77-.74 1.58-.82 2.26-.15 1.39.3 2.17.36 2.14.12-.03-.14-.83.12-2.06.13-.61.39-1.32.86-1.98a5 5 0 0 1 .86-.93c.33-.27.76-.56 1.08-.59.15-.01.23.03.3.14.07.12.09.28.04.44-.08.33-.39.72-.6 1.09-.41.67-.81 1.32-1.2 1.97-.67 1.12-1.04 1.84-.96 1.9Z" fill="#263238"/><path d="M393.321 360.23c.07-.01.01-.83-.84-1.77-.83-.89-2.64-1.84-4.64-.84-.14.12-.26.35-.24.56.01.22.1.38.19.5.19.24.39.36.56.49.36.25.74.46 1.11.63.74.34 1.46.51 2.06.57 1.22.13 1.95-.11 1.94-.18-.01-.11-.74-.06-1.86-.3a7.674 7.674 0 0 1-2.85-1.28c-.16-.13-.33-.24-.41-.35-.08-.14-.06-.1-.03-.14.05-.06.26-.12.45-.17.19-.05.39-.08.58-.09.39-.03.76 0 1.11.08.7.15 1.27.49 1.69.86.84.75 1.08 1.48 1.18 1.43Z" fill="#263238"/><path opacity=".6" d="M408.61 359.93c0 1.03.83 1.86 1.86 1.86 1.03 0 1.86-.83 1.86-1.86 0-1.03-.83-1.86-1.86-1.86a1.87 1.87 0 0 0-1.86 1.86Z" fill="#fff"/><path opacity=".3" d="m388.201 353.7 3.01 3.3 12.65-12.53-1.76-2.29-13.9 11.52Z" fill="#000"/><path d="M371.91 180.3s3.85 2.27 5.23 4.73c4.23 7.55 5.94 25.64-10.02 41.79-20.63 20.87-44.77 55-44.77 55l-18.96 80.16-28.64-6.2 14.76-83.32 40.47-75.07 41.93-17.09Z" fill="#080014"/><path d="m406.81 337.37-44.12-67.52-13.39-58.29-34.07 16.75 17.09 59.16 54.52 67.92 19.97-18.02Z" fill="#080014"/><path d="M303.4 361.97c-.01 0 .01-.14.07-.4.06-.28.14-.66.25-1.15.23-1.04.57-2.51.99-4.41.89-3.85 2.17-9.37 3.74-16.18 3.22-13.68 7.65-32.53 12.54-53.35.38-1.62.77-3.23 1.12-4.74l.01-.06.03-.04c12.51-15.99 23.89-30.14 32.28-40.19 4.2-5.02 7.62-9.03 10.06-11.74 1.2-1.37 2.17-2.39 2.82-3.1.31-.33.56-.59.75-.79.17-.18.26-.26.27-.26.01.01-.07.1-.23.29-.18.2-.41.48-.71.82-.62.73-1.57 1.77-2.75 3.16-2.38 2.75-5.77 6.79-9.93 11.84-8.31 10.11-19.64 24.29-32.14 40.29l.05-.1c-.36 1.5-.74 3.11-1.12 4.74-4.95 20.81-9.44 39.64-12.69 53.31-1.64 6.8-2.98 12.31-3.9 16.15-.47 1.88-.83 3.35-1.09 4.38-.12.48-.22.86-.3 1.14l-.12.39Zm51.73-158.43c.01.03-.23.18-.69.38-.46.21-1.16.45-2.05.66-1.77.42-4.37.58-7.08-.2-2.7-.79-4.82-2.32-6.08-3.63-.64-.65-1.09-1.24-1.37-1.66-.28-.42-.41-.68-.38-.69.07-.05.7.88 2.01 2.09 1.3 1.21 3.37 2.64 5.97 3.39 2.6.76 5.12.66 6.86.34 1.75-.32 2.78-.77 2.81-.68Z" fill="#8F9296"/><path d="M131.74 35.21c-2.6-6.28-2.73-17.21 1.24-22.96 3.97-5.75 11.41-9.54 18.24-11.01 1.14-.25 2.37-.41 3.45.04 1.08.45 1.88 1.74 1.42 2.81 1.37-.86 2.78-1.73 4.35-2.09 1.58-.36 3.39-.13 4.54 1 1.16 1.13 1.34 3.26.11 4.31 1.91-.7 4.2-.15 5.59 1.32 1.4 1.47 1.81 3.79 1.01 5.66-.76 1.79-2.38 3.78-3.82 5.09-1.43 1.31-1.67 2.67-1.43 4.6" fill="#263238"/><path d="m133.38 23.68-1.81 38.48c-.31 6.54 4.92 12.01 11.47 12 6.11-.01 11.14-4.83 11.42-10.94.13-2.9.25-5.31.28-5.61 0 0 9.84-.46 11-10.12.56-4.67.94-14.38 1.17-23.17.25-9.44-6.79-17.49-16.18-18.5l-.93-.1c-10.12-.5-16.2 7.83-16.42 17.96Z" fill="#FFBE9D"/><path d="M154.78 57.47s-6.17-.16-12.23-4.94c0 0 1.93 6.05 11.68 6.22l.55-1.28Z" fill="#EB996E"/><path d="M163.4 30.5c-.05.73-.72 1.29-1.48 1.25-.76-.04-1.34-.67-1.29-1.4.05-.73.72-1.29 1.48-1.25.77.04 1.35.66 1.29 1.4Zm.93-1.66c-.19.16-1.15-.73-2.64-.88-1.48-.18-2.66.47-2.8.27-.07-.09.14-.4.65-.69.5-.29 1.34-.54 2.26-.44.93.1 1.67.53 2.08.93.42.4.54.74.45.81Zm-15.56.59c-.05.73-.72 1.29-1.48 1.25-.76-.04-1.34-.67-1.29-1.4.05-.73.72-1.29 1.48-1.25.76.04 1.34.67 1.29 1.4Zm.92-1.89c-.19.16-1.16-.73-2.64-.88-1.48-.18-2.66.47-2.8.27-.07-.09.14-.4.65-.69.5-.29 1.34-.54 2.26-.44.93.11 1.67.53 2.08.93.42.4.54.74.45.81Zm4.201 11.61c0-.09.94-.15 2.46-.18.38 0 .75-.03.84-.29.12-.26 0-.69-.13-1.15-.26-.96-.53-1.96-.81-3.01-1.12-4.28-1.88-7.79-1.71-7.83.17-.04 1.22 3.39 2.33 7.68.27 1.06.52 2.06.76 3.02.1.45.29.96.04 1.51-.13.27-.43.45-.68.49-.25.05-.47.03-.65.02-1.52-.08-2.45-.17-2.45-.26Zm-4.48.56c.24.01.07 1.63 1.33 2.92 1.25 1.3 2.99 1.3 2.98 1.53.01.1-.42.27-1.15.21-.71-.05-1.73-.39-2.5-1.18-.77-.79-1.03-1.77-1.01-2.44.01-.68.24-1.06.35-1.04Zm1.289-17.95c-.19.39-1.65.04-3.42.06-1.77-.01-3.23.35-3.42-.04-.08-.18.2-.54.81-.87.61-.33 1.55-.6 2.6-.61 1.06 0 2 .27 2.61.6.61.32.9.67.82.86Zm13.55 2.72c-.3.31-1.28-.15-2.51-.3-1.22-.19-2.3-.02-2.5-.4-.09-.18.11-.5.6-.77.48-.27 1.26-.45 2.11-.33.84.12 1.54.5 1.93.9.39.39.5.75.37.9Z" fill="#263238"/><path d="M133.4 30.93c-.16-.09-6.43-2.68-6.94 3.95-.5 6.64 6.26 5.77 6.29 5.58.03-.18.65-9.53.65-9.53Z" fill="#FFBE9D"/><path d="M130.91 37.8c-.03-.02-.12.07-.32.15-.2.07-.53.11-.87-.05-.68-.31-1.19-1.47-1.13-2.67.03-.61.2-1.17.45-1.63.24-.47.58-.79.94-.82.36-.05.59.18.66.37.07.19.02.32.06.34.02.02.15-.1.12-.38a.756.756 0 0 0-.23-.44.88.88 0 0 0-.63-.22c-.51 0-1.01.43-1.29.94-.3.51-.51 1.14-.54 1.82-.06 1.34.53 2.64 1.47 2.99.46.16.86.05 1.07-.1.22-.14.26-.29.24-.3Z" fill="#EB996E"/><path d="M172.11 12.12c.12 8.66-10.75 11.44-15.04 6.28-1.98-2.39-3.64-5.31-6.5-6.54-1.92-.83-4.17-.63-6.1.17-.02.01-.04.02-.06.02-2.84 1.21-4.7 4.25-5.36 7.27-.92 4.21-.52 8.01-1.92 11.83-.2.55-.44 1.14-.93 1.44-.85.52-1.97-.08-2.57-.87-.97-1.26-1.22-2.92-1.33-4.51-.25-3.61.05-7.29 1.22-10.72 1.17-3.43 3.23-6.59 6.1-8.8 3.59-2.76 8.32-3.88 12.81-3.32 4.49.55 8.72 2.72 12.02 5.82 1.53 1.44 2.9 3.12 3.56 5.12" fill="#263238"/><path d="M165.45 6.85c0-.02.34-.05.91.11.57.16 1.38.58 2.1 1.39.71.8 1.33 2.02 1.39 3.47.06 1.45-.54 3.02-1.6 4.28a8.386 8.386 0 0 1-3.81 2.53c-1.35.44-2.63.54-3.68.53-1.06-.02-1.9-.15-2.48-.27-.58-.12-.89-.22-.88-.25.01-.09 1.29.19 3.36.16 1.03-.03 2.26-.17 3.53-.61a8.196 8.196 0 0 0 3.57-2.41c.99-1.17 1.56-2.61 1.52-3.93a5.454 5.454 0 0 0-1.2-3.25c-.64-.78-1.36-1.23-1.89-1.43-.53-.24-.85-.27-.84-.32Zm-4.21-3.38c0-.03.25-.06.62.16.36.21.81.72.93 1.5s-.19 1.68-.7 2.5c-.51.82-1.18 1.66-2.01 2.4-1.66 1.5-3.57 2.32-4.98 2.64-1.42.35-2.33.26-2.32.21-.01-.09.88-.14 2.23-.56 1.34-.4 3.14-1.24 4.73-2.68.8-.71 1.44-1.51 1.96-2.27.51-.76.8-1.55.74-2.21-.06-.66-.4-1.14-.68-1.37-.31-.23-.53-.28-.52-.32Z" fill="#8F9296"/><path d="m133.11 97.96 3.12-22.74-44.7 8.97L50.86 70.1 39.88 81.38l43.28 22.29c3.86 1.84 8.21 2.4 12.41 1.58l37.54-7.29Z" fill="#FFBE9D"/><path d="M50.86 70.1s-15.55-7.44-16.55-7.69c-.77-.19-12.51-.82-17.86-1.09-2.12-.11-2.44 3.04-.33 3.33.07.01.13.02.2.02 2.99.25 9.56 1.74 9.56 1.74L22.9 73.4c-.31.72-.08 1.55.55 2.01l9.05 6.69a7.43 7.43 0 0 0 7.38-.72l3.99.82 6.99-12.1Z" fill="#FFBE9D"/><path d="M22.85 73.81c.29 1.31 3.4 3.98 5.77 3.98.52 0 1.05-.15 1.43-.51.37-.36.55-.95.33-1.42-.14-.31-.42-.53-.69-.74-1.77-1.37-3.53-2.74-5.3-4.11" fill="#FFBE9D"/><path d="M24.4 71.01c.04-.06.89.51 2.21 1.48.71.53 1.48 1.1 2.31 1.72.44.34.88.63 1.36 1.07.24.22.45.59.45.97.01.37-.12.74-.35 1.03-.48.59-1.22.77-1.85.75-.64-.02-1.22-.19-1.74-.41a8.937 8.937 0 0 1-2.47-1.6c-.62-.56-1.04-1.1-1.27-1.52-.23-.42-.24-.7-.21-.7.04-.01.12.23.38.59s.71.84 1.34 1.35c.62.51 1.44 1.04 2.41 1.43.48.19 1.02.34 1.57.35.53.02 1.11-.15 1.43-.56.32-.42.33-.98-.05-1.32-.38-.36-.89-.72-1.29-1.05-.81-.65-1.56-1.26-2.24-1.81-1.27-1.04-2.03-1.71-1.99-1.77Zm11.02 6.84c-.05.04-.35-.18-.68-.68-.33-.49-.64-1.29-.68-2.21-.04-.92.2-1.74.48-2.26.28-.53.56-.77.61-.74.13.08-.67 1.29-.57 2.97.06 1.7.96 2.83.84 2.92Z" fill="#EB996E"/><path d="M29.2 74.26c.47.73 1.45 1.1 2.29.85.84-.24 1.46-1.08 1.47-1.95 0-1.14-.91-2.05-1.76-2.81-1.3-1.17-2.6-2.34-3.89-3.51" fill="#FFBE9D"/><path d="M27.3 66.83c.05-.05.67.42 1.63 1.22.53.45 1.09.93 1.67 1.44.61.56 1.35 1.11 1.96 1.92.3.41.54.88.61 1.38.08.5-.03 1.01-.26 1.41-.45.82-1.32 1.22-2 1.16-.69-.04-1.17-.36-1.42-.63-.26-.27-.32-.47-.29-.49.04-.02.15.14.42.33s.72.42 1.3.41c.57 0 1.23-.35 1.58-1.02.37-.66.21-1.54-.35-2.26-.54-.72-1.27-1.3-1.86-1.87-.56-.53-1.09-1.04-1.6-1.52-.9-.85-1.44-1.42-1.39-1.48Z" fill="#EB996E"/><path d="M35.86 66.24c-3.13.74-6.14 2-8.87 3.71-.16.1-.34.22-.39.41-.07.26.13.51.34.68.8.64 1.91.75 2.93.67 1.02-.09 2.04-.34 3.06-.31 1.78.04 3.42.89 5.14 1.36 1.71.47 3.8.46 4.98-.87" fill="#FFBE9D"/><path d="M43.05 71.88c.01.01-.04.09-.16.24-.13.14-.33.34-.65.52-.62.39-1.69.66-2.98.53-1.31-.1-2.72-.72-4.29-1.18-.79-.23-1.62-.39-2.5-.34-.88.04-1.79.26-2.78.33-.98.06-2.04-.07-2.85-.68-.2-.15-.41-.34-.5-.67a.708.708 0 0 1 .08-.51c.09-.14.2-.23.31-.3.39-.25.75-.46 1.12-.67 1.46-.83 2.86-1.43 4.04-1.87 1.19-.44 2.18-.71 2.87-.87.69-.16 1.08-.21 1.09-.18.02.09-1.5.44-3.82 1.39a32.9 32.9 0 0 0-3.94 1.94c-.35.21-.73.43-1.07.66-.16.12-.21.19-.18.29.03.11.15.26.31.37.66.5 1.59.63 2.51.57.93-.06 1.85-.27 2.79-.32.95-.05 1.85.14 2.66.39 1.61.51 2.97 1.14 4.2 1.28 1.22.17 2.23-.03 2.84-.34.62-.29.87-.62.9-.58Zm49.18 20.18c-.13.03-.66-1.74-.72-4-.07-2.27.36-4.07.49-4.04.15.02-.04 1.82.03 4.03.05 2.2.35 3.98.2 4.01Z" fill="#EB996E"/><path d="m131.34 64.67-12.68 14.29s-6.77 49.36-7.26 53.23c-.48 3.87-1.77 16.27-1.77 19.66 0 3.39-2.81 27.62-2.81 27.62s53.82 11.17 62.82 0l-2.8-20.75 2.44-51.48s4.04-35.73-14.81-44.02c-.01 0-11.92 7.18-23.13 1.45Z" fill="#ECB000"/><path d="m131.34 64.67-10.97 3.02-24.66 15.1 7.02 22.3 14.48-1.59 14.13-38.83Z" fill="#ECB000"/><path d="M117.07 80.15c.14.01-.48 7.99-1.39 17.8-.91 9.82-1.77 17.77-1.91 17.76-.14-.01.48-7.98 1.39-17.81.91-9.81 1.77-17.76 1.91-17.75Z" fill="#263238"/><path opacity=".3" d="m116.57 85.51-9.76 19.13 8.06-.88 1.7-18.25Zm-4.48 50.79a91.362 91.362 0 0 0 25.05 19.23c3.94 2.06 8.28 3.87 12.68 3.3 4.84-.62 8.98-4.13 11.27-8.43 2.29-4.31 1.96-6.39 2.5-11.23.6-5.34.6-12.47.88-17.33.05-.86.07-1.86.07-2.81 0-2.11 1.38-3.98 3.41-4.59 0 0-2.95-1.39-4.93-1.11-1.98.28-3.47 1.93-4.51 3.64-5.49 9.05-3.1 22.31-13.57 27.95-3.42 1.84-7.4 2.27-11.23 1.65-8.57-1.4-15.13-7.03-21.45-12.52" fill="#000"/><path d="M123.93 117.57c2.623 0 4.75-6.393 4.75-14.28s-2.127-14.28-4.75-14.28c-2.624 0-4.75 6.393-4.75 14.28s2.126 14.28 4.75 14.28Z" fill="#FAFAFA"/><path d="m126.47 351.65 1.09 23.51s-23.53 9-23.75 13.37l45.66-.47-.19-36.7-22.81.29Z" fill="#ECB000"/><path opacity=".6" d="M141.66 373.04c.89.23 1.51 1.22 1.31 2.11-.2.89-1.19 1.54-2.08 1.32-.89-.22-1.67-1.38-1.38-2.25.29-.87 1.51-1.56 2.32-1.13m7.64 14.97-.02-3.66-43.86 1.8s-2.02.91-1.78 2.33l45.66-.47Z" fill="#fff"/><path d="M126.82 374.94c.01.22 1.13.31 2.23 1.02 1.12.68 1.7 1.64 1.9 1.55.21-.05-.14-1.37-1.49-2.21-1.35-.84-2.69-.56-2.64-.36Zm-4.77 2.03c-.05.22.92.59 1.69 1.52.79.91 1 1.93 1.22 1.92.21.03.35-1.27-.63-2.42-.96-1.15-2.28-1.23-2.28-1.02Zm-2.661 5.76c.2.05.5-1.07-.08-2.29s-1.63-1.69-1.73-1.5c-.12.18.56.83 1.02 1.84.49.99.57 1.93.79 1.95Zm7.781-13.18c.1.2 1.12-.12 2.38-.04 1.26.05 2.25.46 2.36.27.13-.16-.84-.98-2.33-1.04-1.49-.08-2.53.64-2.41.81Z" fill="#263238"/><path opacity=".3" d="m126.689 356.31.19 4.19 22.44-.44-.01-3.77-22.62.02Z" fill="#000"/><path d="M127.03 364.81c0 .09.88.22 2.29-.04.7-.13 1.52-.37 2.38-.76.43-.2.87-.43 1.31-.71.21-.14.46-.28.68-.54.24-.24.38-.83.09-1.19-.24-.35-.65-.5-.98-.5-.34-.01-.61.06-.86.13-.51.13-.98.3-1.42.5-.87.41-1.57.92-2.09 1.41-1.05.99-1.4 1.83-1.33 1.87.1.07.61-.63 1.68-1.45.53-.41 1.22-.83 2.03-1.17.41-.17.85-.31 1.31-.42.48-.13.89-.14 1.02.07.05.08.05.11-.05.26-.1.13-.3.26-.5.4-.4.27-.81.5-1.2.7-.79.4-1.55.68-2.2.87-1.3.38-2.16.45-2.16.57Z" fill="#263238"/><path d="M127.329 365.12c.08.03.51-.77.58-2.22a7.33 7.33 0 0 0-.94-3.88c-.27-.45-.6-1.05-1.47-1.14-.45-.01-.82.34-.95.65-.15.31-.17.58-.23.84-.08.53-.06 1.06.01 1.54.15.97.56 1.77 1 2.35.9 1.17 1.84 1.43 1.86 1.36.07-.11-.71-.54-1.4-1.67-.34-.56-.65-1.29-.75-2.14-.05-.42-.05-.87.03-1.32.07-.49.24-.88.43-.83.23-.01.62.36.81.74.24.41.43.82.58 1.23.29.82.43 1.61.47 2.28.07 1.34-.15 2.18-.03 2.21Z" fill="#263238"/><path d="m170.71 337.38 18.46 14.6s-8.64 23.67-5.49 26.7l29.59-34.78-27.83-23.92-14.73 17.4Z" fill="#ECB000"/><path opacity=".6" d="M196.82 339.94c.76-.52 1.91-.34 2.46.4.55.73.38 1.91-.37 2.44s-2.14.36-2.6-.43c-.46-.79-.18-2.16.67-2.49m16.3 4.03-2.78-2.39-27.41 34.29s-.64 2.12.6 2.87l29.59-34.77Z" fill="#fff"/><path d="M188.52 352.39c.17.14.97-.64 2.23-1.02 1.25-.4 2.35-.21 2.42-.42.1-.18-1.13-.8-2.64-.32-1.53.46-2.2 1.66-2.01 1.76Zm-1.59 4.93c.13.18 1.05-.31 2.26-.28 1.21 0 2.11.51 2.25.34.16-.14-.73-1.1-2.24-1.11-1.51-.03-2.43.91-2.27 1.05Zm2.6 5.79c.17-.12-.48-1.08-1.78-1.44-1.3-.36-2.35.12-2.27.32.06.21 1 .12 2.06.43 1.07.28 1.83.84 1.99.69Zm-4.85-14.51c.22.06.64-.92 1.53-1.82.86-.92 1.82-1.4 1.75-1.61-.04-.2-1.29-.01-2.31 1.07-1.04 1.07-1.17 2.33-.97 2.36Z" fill="#263238"/><path opacity=".3" d="m174.37 340.27 3.29 2.6 14.39-17.23-2.86-2.46-14.82 17.09Z" fill="#000"/><path d="M181.01 345.58c.07.06.74-.52 1.47-1.75.36-.61.72-1.39.99-2.3.13-.45.24-.94.32-1.45.03-.25.09-.53.04-.87-.02-.34-.38-.83-.84-.85-.42-.05-.8.17-1.02.41-.23.25-.35.5-.47.73a8.082 8.082 0 0 0-.86 3.9c.06 1.44.46 2.26.54 2.23.12-.03-.08-.87.01-2.22.04-.67.17-1.46.45-2.3.14-.42.32-.84.54-1.26.22-.45.48-.77.73-.72.09.02.12.04.16.2.03.16 0 .4-.03.64-.06.48-.15.94-.26 1.37-.21.86-.5 1.62-.79 2.23-.56 1.24-1.07 1.94-.98 2.01Z" fill="#263238"/><path d="M181.44 345.57c.08-.04-.24-.89-1.29-1.89-.52-.49-1.23-1-2.11-1.38-.44-.19-.92-.35-1.43-.46-.52-.09-1.19-.23-1.82.36-.31.33-.28.85-.13 1.14.14.32.32.51.49.72.35.41.76.74 1.17 1 .83.52 1.71.74 2.43.79 1.48.09 2.29-.45 2.24-.51-.04-.13-.87.18-2.18-.03-.64-.11-1.4-.36-2.11-.84-.35-.24-.69-.54-.98-.89-.32-.37-.5-.76-.35-.87.14-.18.67-.23 1.09-.12.46.09.9.22 1.31.37.81.32 1.5.73 2.03 1.14 1.06.82 1.54 1.54 1.64 1.47Z" fill="#263238"/><path d="M119.52 252.19s1.22-56.15 0-56.15-9.88-4.94-9.88-4.94l-10.82 83.45s-.97 9.37 10.62 15.97c11.59 6.6 63.43 52.69 63.43 52.69l17.54-21.36s-34.11-35.55-48.04-47.3c-10.9-9.2-22.85-22.36-22.85-22.36Z" fill="#080014"/><path d="m151.3 239.11 1.18-8.89s8.54-17.97 9.77-25.67c1.22-7.7.41-24.25.41-24.25h-53.95s.23 60.91 6.74 77.99c0 0 3.31 32.7 3.79 35.44 1.03 5.82 4.63 65.36 4.63 65.36l27.2-.99s2.36-54.74.47-70.28c-.93-7.69-1.38-15.89-1.58-22.68-.25-8.7.19-17.4 1.34-26.03Z" fill="#080014"/><path d="M110.19 198.06c.01 0 .02.09.03.27.01.21.03.47.05.79.03.73.08 1.75.14 3.03.1 2.63.3 6.44.57 11.14.54 9.4 1.55 22.37 3.03 36.66 1.48 14.29 3.08 27.21 4.23 36.55.57 4.64 1.03 8.42 1.35 11.07.15 1.28.26 2.28.35 3.01.03.32.06.58.08.79.01.18.02.27.01.27s-.03-.09-.06-.26c-.03-.21-.08-.46-.13-.78-.11-.73-.26-1.73-.44-3-.36-2.65-.88-6.41-1.52-11.05-1.25-9.34-2.9-22.25-4.38-36.55-1.49-14.3-2.44-27.28-2.88-36.69-.22-4.71-.36-8.52-.4-11.15-.02-1.29-.03-2.3-.05-3.03v-.79c0-.19.01-.28.02-.28Zm39.72 72.09c.02 0 .07.3.16.88.09.63.2 1.47.35 2.54.27 2.21.61 5.42.92 9.4.64 7.95 1.13 18.96 1.31 31.12.14 12.17-.05 23.19-.48 31.15-.2 3.98-.46 7.2-.67 9.42-.12 1.07-.22 1.92-.29 2.55-.07.58-.12.89-.13.89-.02 0-.01-.31.03-.9.05-.63.11-1.48.19-2.56.15-2.22.35-5.44.51-9.42.34-7.96.47-18.97.33-31.13-.18-12.15-.61-23.15-1.15-31.1-.26-3.97-.54-7.19-.75-9.4-.11-1.07-.19-1.92-.25-2.55-.08-.58-.09-.89-.08-.89Z" fill="#8F9296"/><path d="m100.37 110.01-45.59-.89.53 2.21 44.83.66.23-1.98Z" fill="#263238"/><path d="M155.631 71.16c-1.7-.45-3.5-.23-5.11.45-3.7 1.56-10.45 6.03-10.93 18.64l-.78 20.37 29.15 3.81c0 .01 2.47-39.33-12.33-43.27Z" fill="#ECB000"/><path d="m101.99 114.33 36.96 11.11.55-14.88 22.13 3.22-1.23 24.2c-.26 7.1-5.23 13.15-12.15 14.77-3.87.91-7.94.32-11.39-1.64l-39.28-22.33 4.41-14.45Z" fill="#FFBE9D"/><path d="M167.96 114.44c-.01-.01-.01-.12-.03-.35-.01-.25-.02-.57-.04-.98-.03-.89-.08-2.14-.13-3.73-.1-3.25-.25-7.89-.43-13.62-.08-2.87-.17-6-.27-9.36-.02-.84-.05-1.7-.07-2.57-.04-.43-.09-.86-.13-1.29-.09-.43-.16-.86-.27-1.29-.44-1.72-1.26-3.38-2.41-4.86-2.3-2.91-6-5.13-10.09-5.2-2.03-.05-4.07.57-5.85 1.67-1.79 1.09-3.31 2.67-4.52 4.46-1.77 2.58-2.76 5.55-3.33 8.5-.58 2.96-.76 5.91-.9 8.78-.16 5.74-.32 11.14-.46 16.05l-.19-.22c8.72 1.19 15.97 2.18 21.07 2.88 2.53.35 4.52.64 5.92.83.66.1 1.19.17 1.57.23.36.03.55.06.56.07.01.01-.17-.01-.51-.04-.38-.04-.89-.1-1.53-.18-1.39-.17-3.37-.41-5.89-.71-5.15-.64-12.46-1.56-21.25-2.66l-.2-.02v-.2c.12-4.91.21-10.31.4-16.06.14-2.87.32-5.85.9-8.85.58-2.99 1.59-6.04 3.41-8.69 1.25-1.84 2.81-3.47 4.68-4.61 1.85-1.15 4-1.8 6.13-1.74 4.27.09 8.08 2.4 10.46 5.42 1.18 1.53 2.03 3.26 2.48 5.04.11.44.18.9.27 1.34.04.45.09.9.13 1.34l.06 2.6c.07 3.4.13 6.57.19 9.46.1 5.73.18 10.39.24 13.64.02 1.57.04 2.8.05 3.68 0 .39 0 .71.01.95l-.03.29Z" fill="#263238"/><path d="m102.73 114.76-8.88-6.57c-1.62-1.2-4.14-.95-6.15-1.13-3.98-.36-10.54 2.05-10.79 2.46l2.68 2.14-17.26-.53s1.48 3.6 6.31 3.97c0 0 .56 3.9 5.57 4.64 0 0 1.3 3.15 4.08 4.08 0 0 .56 3.53 5.01 3.34l15.11 1.71 4.32-14.11Z" fill="#FFBE9D"/><path d="M79.45 115.75c-.01.14-2.46.12-5.46-.06-3.01-.18-5.44-.44-5.43-.58.01-.14 2.45-.12 5.47.06 3 .17 5.43.43 5.42.58Zm4.36 4.15c0 .14-2.14.26-4.78.26s-4.78-.12-4.78-.26 2.14-.26 4.78-.26 4.78.11 4.78.26Zm4.7 3.92c0 .14-2.14.26-4.78.26s-4.78-.12-4.78-.26 2.14-.26 4.78-.26 4.78.12 4.78.26Zm52.88 9.17c-.13.05-.92-1.55-1.64-3.63-.72-2.08-1.09-3.83-.96-3.86.14-.04.73 1.63 1.45 3.69.71 2.06 1.28 3.74 1.15 3.8Zm2.67-1.44c-.12.09-1.31-1.36-2.79-3.13-1.47-1.77-2.68-3.21-2.57-3.31.1-.1 1.49 1.19 2.97 2.98 1.49 1.79 2.51 3.38 2.39 3.46Z" fill="#EB996E"/><path d="M240.3 122.6c1.65-.93 8.34 6.14 8 3.97-.34-2.17-9.44-7.9-7.67-8.81 2.31-1.19 9.15 6.31 9.79 6.91.62.58 1.74-.1 1.13-.62-.88-.75-9.87-8.76-7.62-9.94 1.25-.66 2.56 1.26 2.56 1.26s7.73 7.98 8.77 7.39c1.06-.6-3.29-5.4-4.89-6.94-1.59-1.52-1.33-2.73.09-2.72.97.01 6.03 4.63 7.57 6.18 1.54 1.55 5.69 5.86 5.79 2.44.11-3.42 1.81-6 2.89-6.44 1.08-.44 2.25.61 1.66 1.55-.48.77-.77 2.24-.93 3.36-.12.81-.08 1.63.11 2.43 3.86 3.19 31.56 25.92 34.78 24.96 3.46-1.04 16.74-44.33 16.74-44.33l13.58 39.44s-9.52 28.48-27.15 28.78c-21.16.36-51.22-37.73-51.23-37.73-3.99-2.42-8.26-5.13-10.41-6.83-4.57-3.63-4.17-3.96-3.56-4.31Z" fill="#FFBE9D"/><path d="m325.19 144.46-18.87-12.27s10.14-38.37 25.64-39.6l.69 14.02-7.46 37.85Z" fill="#263238"/><path d="M359.26 87.62s24.15-2.61 17.69 31.92c0 0 2.25 47.43 5.46 67.15 2.61 16.05-63.98 11.7-63.98 11.7s.92-71.1-.56-77.87c-2.88-13.25 2.42-19.58 2.42-19.58 2.61-4.43 6.62-7.06 11.67-8.36l27.3-4.96Z" fill="#171751"/><path d="M325.52 109.15c-.13.01.73 1.96-.03 5.08-.35 1.54-1.1 3.28-2.12 5.14-.99 1.86-2.26 3.87-3.08 6.23-1.69 4.75-1.17 9.48-.16 12.53.5 1.55 1.09 2.73 1.55 3.51.47.78.78 1.17.81 1.15.12-.06-1.04-1.73-1.92-4.79-.88-3.02-1.3-7.6.33-12.18.79-2.28 2.03-4.27 3-6.17 1-1.89 1.73-3.71 2.04-5.32.32-1.61.25-2.96.05-3.85-.19-.9-.44-1.34-.47-1.33Z" fill="#8F9296"/><path d="M332.39 38.97a13.956 13.956 0 0 0-1.46 7.83c.19 1.76.68 3.7-.3 5.17-1.19 1.79-3.97 1.94-5.14 3.74-1.68 2.6 1.28 6.26-.07 9.05-.89 1.84-3.23 2.39-4.81 3.69-2.22 1.81-2.79 5.25-1.48 7.79 1.15 2.23 3.4 3.64 5.55 4.93l4.92 2.97c.88.53 1.85 1.08 2.86.94 1.81-.25 2.65-2.46 4.29-3.27 2.02-1.01 4.38.4 6.63.54 1.67.11 3.38-.54 4.56-1.72 1.18-1.18 1.82-2.89 1.72-4.56" fill="#080014"/><path d="M337.93 90.64c.54-5.67 1.01-11.65 1.01-11.65s-7.18-1.93-7.76-11.61c-.55-9.23 3.01-30.06 3.01-30.06 10.93-3.25 23.1.83 29.77 9.98l-5.15 45.98c-.6 5.34-5.66 9.07-11.37 8.39-5.77-.69-10.03-5.63-9.51-11.03Z" fill="#FFBE9D"/><path d="M333.43 53.76c-.09.64.39 1.25 1.06 1.35.67.1 1.28-.33 1.37-.98.09-.64-.39-1.25-1.06-1.35-.67-.1-1.28.33-1.37.98Zm0-1.35c.14.17 1.13-.42 2.44-.29 1.31.11 2.21.89 2.37.74.08-.06-.05-.37-.44-.71-.38-.35-1.06-.71-1.88-.79-.82-.08-1.54.16-1.96.43-.43.27-.59.54-.53.62Zm13.67 3.12c-.09.64.39 1.25 1.06 1.35.67.1 1.28-.33 1.37-.98.09-.64-.39-1.25-1.06-1.35-.67-.1-1.28.34-1.37.98Zm.01-1.29c.14.17 1.13-.42 2.44-.29 1.31.11 2.21.89 2.37.74.08-.06-.05-.37-.44-.71-.38-.35-1.06-.71-1.88-.79-.82-.08-1.54.16-1.96.43-.44.27-.6.54-.53.62Zm-5.74 9.28c.01-.07-.79-.3-2.1-.6-.33-.07-.64-.17-.68-.4-.06-.25.12-.6.32-.97.4-.78.81-1.6 1.24-2.46 1.74-3.5 3.03-6.4 2.89-6.47-.14-.07-1.66 2.72-3.4 6.22-.42.86-.82 1.69-1.2 2.48-.16.37-.43.78-.3 1.3.07.26.29.47.5.55.21.09.4.11.56.14 1.34.2 2.16.29 2.17.21Z" fill="#263238"/><path d="M338.93 78.99s6.37 1.04 13.09-2.15c0 0-3.74 6.24-13.19 4.41l.1-2.26Z" fill="#EB996E"/><path d="M341.62 66.74c.53-.58 1.4-.84 2.21-.67.56.12 1.11.45 1.41.95.3.5.31 1.17-.05 1.58-.4.46-1.16.51-1.77.27-.61-.24-1.11-.71-1.58-1.17-.13-.13-.26-.26-.34-.43-.07-.16-.07-.37.05-.49" fill="#ECB000"/><path d="M345.15 64.81c-.21-.03-.36 1.39-1.68 2.29-1.32.9-2.83.59-2.86.78-.03.09.31.31.95.39.63.08 1.57-.03 2.38-.57.81-.55 1.21-1.35 1.31-1.93.13-.59 0-.96-.1-.96Z" fill="#263238"/><path d="M336.68 34.97c-1.12 2.78-.11 6.26 2.33 8.01 2.45 1.76 5.7 1.68 8.67 2.2 2.97.52 6.28 2.29 6.48 5.3.12 1.82-.97 3.71-.31 5.41.77 1.99 3.49 2.58 4.45 4.49 1.54 3.07-2.49 6.43-1.91 9.81.34 2.01 2.23 3.46 2.65 5.46.59 2.84-1.88 6.19-.05 8.44 1.41 1.72 4.17 1.15 6.14.11 1.97-1.04 4.07-2.43 6.22-1.85 1.29.35 2.29 1.35 3.47 1.97 2.14 1.12 4.95.83 6.81-.72 1.86-1.55 2.67-4.25 1.96-6.57-.53-1.71-1.75-3.1-2.78-4.57-1.03-1.47-1.91-3.22-1.58-4.98.25-1.35 1.17-2.46 1.86-3.65.69-1.19 1.17-2.7.51-3.9-1.17-2.11-4.67-1.53-6.18-3.41-2.07-2.59 1.61-6.58.22-9.58-1.57-3.4-7.77-2.08-9.36-5.47-.58-1.24-.28-2.7-.57-4.04-.65-3.05-4.11-4.67-7.22-4.86-3.11-.19-6.26.56-9.34.1-1.69-.25-3.31-.86-4.98-1.21-1.67-.35-3.49-.43-5.02.34-1.53.77-2.62 2.58-2.12 4.21" fill="#080014"/><path d="M338.791 41.4c-1.41 3.26-4.41 5.79-7.86 6.62-.2-2.35-.34-4.73.04-7.06.38-2.33 1.33-4.63 3.03-6.27 1.7-1.64 4.22-2.52 6.5-1.91" fill="#080014"/><path opacity=".3" d="M377.43 83.95c-.02-.02.26-.12.48-.57.22-.43.29-1.23-.17-2.04-.22-.41-.63-.75-1.12-1.03-.49-.29-1.08-.5-1.71-.71-.63-.21-1.33-.43-2-.82-.66-.38-1.32-1-1.52-1.87-.22-.87.09-1.8.51-2.61.41-.83.97-1.63 1.33-2.53.74-1.8.52-4.11-.65-5.96a6.207 6.207 0 0 0-2.43-2.25c-1.03-.51-2.2-.78-3.33-1.28-.56-.25-1.12-.57-1.56-1.04-.46-.46-.75-1.08-.86-1.72-.21-1.3.19-2.57.34-3.82.17-1.26-.01-2.53-.49-3.67-.47-1.14-1.18-2.16-2.01-3.02-1.68-1.73-3.86-2.73-5.97-3.4-2.12-.66-4.22-1.01-6.17-1.37-1.95-.35-3.77-.74-5.38-1.27-1.61-.53-3-1.22-4.11-1.99-1.11-.77-1.93-1.61-2.51-2.36-.58-.75-.91-1.42-1.09-1.88-.19-.46-.25-.72-.25-.72.01-.01.1.24.3.7.2.45.54 1.1 1.13 1.84 1.14 1.48 3.36 3.24 6.59 4.24 1.6.52 3.41.88 5.37 1.23 1.95.35 4.06.69 6.2 1.35 2.13.66 4.36 1.68 6.09 3.45.86.88 1.59 1.92 2.07 3.11.49 1.18.68 2.51.51 3.81-.16 1.28-.55 2.53-.35 3.74.1.59.36 1.15.78 1.57.41.43.93.74 1.48.98 1.09.49 2.27.76 3.34 1.29a6.45 6.45 0 0 1 2.53 2.35c1.21 1.92 1.43 4.31.65 6.18-.38.94-.94 1.73-1.35 2.54-.41.8-.7 1.67-.51 2.47.18.8.79 1.39 1.43 1.76.64.39 1.32.61 1.96.83.63.22 1.23.44 1.73.74s.91.66 1.14 1.09c.47.85.38 1.69.13 2.12-.27.45-.56.54-.55.54Z" fill="#fff"/><path opacity=".3" d="M375.17 54.47s-.04.02-.12.03c-.1.02-.21.04-.35.07-.31.06-.77.14-1.36.19-.59.05-1.34.09-2.18-.08-.84-.17-1.77-.64-2.47-1.48-.71-.83-1.21-1.93-1.56-3.14-.36-1.21-.6-2.53-1.14-3.82-.53-1.29-1.45-2.47-2.61-3.43-1.17-.96-2.58-1.71-4.1-2.25-3.06-1.07-6.19-1.2-8.99-1.46-1.4-.12-2.74-.26-3.98-.47-1.24-.21-2.38-.5-3.39-.85-2.04-.68-3.51-1.66-4.41-2.45-.89-.8-1.25-1.36-1.25-1.36s.03.03.09.08c.07.07.15.16.24.26.21.23.54.56.99.94.9.76 2.38 1.7 4.4 2.35 1.01.33 2.14.61 3.37.81 1.23.2 2.56.33 3.96.44 2.79.25 5.94.37 9.06 1.45 1.54.55 2.98 1.31 4.18 2.3 1.19.99 2.14 2.21 2.68 3.54.54 1.32.77 2.66 1.12 3.85.34 1.19.81 2.27 1.49 3.08a4.2 4.2 0 0 0 2.35 1.46c.82.18 1.55.16 2.14.13.59-.04 1.05-.1 1.36-.14.32-.04.48-.06.48-.05Zm-50.239 25.46c0 .01-.07-.01-.19-.07-.12-.05-.29-.13-.51-.26-.42-.26-1-.71-1.52-1.44a5.59 5.59 0 0 1-1.03-2.93c-.07-1.19.34-2.52 1.2-3.59.86-1.07 2.06-1.77 3.23-1.98 1.17-.19 2.22-.12 3.03-.43.8-.3 1.27-.89 1.42-1.33.15-.46.04-.73.07-.74.01 0 .03.06.06.19.02.13.03.33-.03.58-.13.49-.6 1.14-1.45 1.48-.85.35-1.94.29-3.05.5-1.11.22-2.24.89-3.06 1.91-.82 1.02-1.22 2.27-1.17 3.4.04 1.14.47 2.11.94 2.83.48.72 1.02 1.18 1.42 1.46.4.29.65.39.64.42Z" fill="#fff"/><path d="M362.66 37.48c-.83-3.93 1.65-8.28 5.46-9.57 1.45-.49 3.15-.54 4.44.29 1.02.66 1.67 1.79 1.99 2.96.67 2.51-.12 5.36-1.98 7.17-1.87 1.81-4.74 2.51-7.23 1.75-1.36-.41-2.69-1.36-3.01-2.74" fill="#080014"/><path d="M362.24 34.72c-.17-.03-.28 1.56.8 3.07 1.07 1.53 2.6 1.96 2.63 1.78.08-.18-1.16-.81-2.09-2.16-.96-1.33-1.15-2.71-1.34-2.69Z" fill="#8F9296"/><path d="m323.57 106.872-132.512 34.844 27.858 105.946 132.512-34.845-27.858-105.945Z" fill="#F5F5F5"/><path d="M191.06 141.71s.22-.05.64-.15c.43-.11 1.05-.27 1.86-.47 1.65-.42 4.06-1.05 7.2-1.86 6.3-1.64 15.49-4.03 27.14-7.06 23.28-6.09 56.39-14.74 95.74-25.02l-.36-.21c8.28 31.53 17.78 67.69 27.82 105.94v.01l.23-.4c-49.06 12.92-94.64 24.93-132.5 34.9l.33.19c-8.45-31.9-15.45-58.34-20.35-76.82l-5.71-21.45c-.66-2.47-1.17-4.36-1.52-5.65-.32-1.28-.52-1.95-.52-1.95s.15.64.47 1.91c.33 1.29.81 3.17 1.45 5.62 1.29 4.95 3.17 12.19 5.56 21.43 4.84 18.54 11.76 45.06 20.12 77.06l.07.26.26-.07c37.87-9.94 83.47-21.91 132.53-34.79l.32-.08-.08-.32v-.01c-10.07-38.25-19.59-74.39-27.89-105.92l-.07-.28-.28.08c-39.4 10.42-72.54 19.19-95.85 25.36-11.61 3.09-20.77 5.52-27.04 7.19-3.11.83-5.5 1.47-7.13 1.91-.79.22-1.4.38-1.82.5-.42.09-.62.15-.62.15Z" fill="#263238"/><path opacity=".2" d="m320.76 114.737-123.208 32.398 24.349 92.6 123.209-32.398-24.35-92.6Z" fill="#ECB000"/><path d="M377.67 152.6c-11.95 12.27-29.48 19.83-35.8 22.3-.97-.13-2.1-.31-3.42-.59-1.14-.24-2.22-.68-3.21-1.28-1.2-.73-2.76-1.77-3.43-2.61-.84-1.03-2.49-.51-2.43.69.06 1.2 2.29 4.1 6.13 6 3.83 1.89-2.73 3.39-5.11 3.98-2.38.59-9.66 2.76-10.06 3.63-.58 1.28.68 2.15 3.05 1.5 2.39-.65 9.59-2.07 9.84-.8.25 1.25-11.91 4.08-11.91 4.08s-2.7.18-2.46 1.66c.43 2.67 13.14-1.29 14.34-1.7.83-.28 1.16 1.09.24 1.35-.94.26-12.2 2.54-11.78 5.26.32 2.09 10.48-3.16 13.08-2.34 2.6.82-8.11 3.2-7.73 5.18.14.74.35 1.27 6.31-.98 2.89-1.09 7.89-3.67 12.35-6.09l.02.06s62.83-18.56 55.87-46.54c-7.39-29.68-8.86-32.4-8.86-32.4l-23.26 5.3c0 .01 10.39 32.13 8.23 34.34Z" fill="#FFBE9D"/><path d="M396.13 120.63s-9.96-32.25-35.67-32.59v3.93l10.56 36.58 25.11-7.92Z" fill="#171751"/><path d="M365.779 112.98c-.04.01.021.45.191 1.23.17.79.459 1.93.869 3.34.82 2.82 2.14 6.73 3.87 11.12l.111.28.289-.1c1.47-.49 3.01-1.01 4.6-1.54 5.57-1.88 10.611-3.61 14.241-4.89 1.72-.62 3.159-1.14 4.289-1.55 1.01-.38 1.561-.61 1.551-.66-.01-.04-.59.11-1.63.41-1.15.36-2.611.81-4.361 1.36-3.67 1.17-8.73 2.83-14.299 4.71-1.59.54-3.13 1.06-4.59 1.55l.399.19c-1.76-4.37-3.15-8.23-4.07-11.01-.42-1.3-.769-2.39-1.049-3.27-.24-.76-.371-1.18-.411-1.17Zm-2.319-7.5c.1-.01-.01-1.12-.06-2.89-.03-1.75.01-4.25 1.06-6.69 1.06-2.42 3.08-4.01 4.68-4.59 1.63-.61 2.77-.35 2.77-.49.01-.04-.26-.13-.77-.19s-1.27-.03-2.15.24c-1.77.5-3.99 2.15-5.14 4.77-1.11 2.61-1.07 5.21-.92 6.98.17 1.8.45 2.87.53 2.86Z" fill="#8F9296"/><g opacity=".3" fill="#00003F"><path d="M271.878 178.418a.886.886 0 1 0-.458-1.712.886.886 0 0 0 .458 1.712Zm-18.82 5.043a.885.885 0 1 0-.457-1.71.885.885 0 0 0 .457 1.71Zm-9.314-12.175a.885.885 0 0 0 .626-1.084l-2.201-8.213 8.213-2.2a.885.885 0 0 0-.458-1.711l-9.069 2.429a.887.887 0 0 0-.626 1.085l2.43 9.068a.885.885 0 0 0 1.085.626Zm18.543 29.508a.886.886 0 0 0-1.085-.627l-8.213 2.201-2.2-8.213a.886.886 0 0 0-1.711.459l2.43 9.068a.885.885 0 0 0 1.084.626l9.069-2.43a.886.886 0 0 0 .626-1.084Zm29.507-18.543a.886.886 0 0 0-.627 1.085l2.201 8.212-8.213 2.201a.887.887 0 0 0 .459 1.711l9.068-2.43a.885.885 0 0 0 .626-1.085l-2.43-9.068a.885.885 0 0 0-1.084-.626Zm-8.848-33.022-9.068 2.43a.885.885 0 1 0 .458 1.711l8.213-2.201 2.201 8.213a.885.885 0 0 0 1.711-.458l-2.43-9.068a.886.886 0 0 0-1.085-.627Z"/><path d="M255.642 196.523a.885.885 0 0 0 1.084.626l8.555-2.292a.885.885 0 0 0 .626-1.085l-2.292-8.555a.885.885 0 0 0-1.085-.626l-8.554 2.292a.886.886 0 0 0-.627 1.085l2.293 8.555Zm-.352-8.158 6.843-1.834 1.834 6.844-6.844 1.834-1.833-6.844Zm1.28-26.017-8.555 2.293a.885.885 0 0 0-.627 1.084l2.293 8.555a.884.884 0 0 0 1.084.626l8.555-2.292a.886.886 0 0 0 .627-1.085l-2.293-8.554a.885.885 0 0 0-1.084-.627Zm1.436 8.784-6.844 1.834-1.833-6.844 6.843-1.834 1.834 6.844Zm21.891-14.117a.885.885 0 0 0-1.084-.627l-8.555 2.293a.884.884 0 0 0-.626 1.084l2.292 8.555a.885.885 0 0 0 1.085.626l8.554-2.292a.886.886 0 0 0 .627-1.085l-2.293-8.554Zm.352 8.157-6.843 1.834-1.834-6.844 6.844-1.834 1.833 6.844Zm7.9 22.64-2.293-8.555a.885.885 0 0 0-1.084-.626l-8.555 2.292a.885.885 0 0 0-.626 1.085l2.292 8.555a.885.885 0 0 0 1.085.626l8.554-2.292a.886.886 0 0 0 .627-1.085Zm-1.941-.397-6.843 1.834-1.834-6.844 6.844-1.834 1.833 6.844Z"/><path d="m260.025 188.93-1.711.458a.887.887 0 0 0-.626 1.085l.459 1.711a.885.885 0 0 0 1.084.626l1.711-.458a.886.886 0 0 0 .627-1.085l-.459-1.711a.885.885 0 0 0-1.085-.626Zm-6.755-18.363 1.711-.458a.886.886 0 0 0 .627-1.085l-.459-1.711a.885.885 0 0 0-1.084-.626l-1.711.459a.885.885 0 0 0-.627 1.084l.459 1.711a.884.884 0 0 0 1.084.626Zm22.244-5.959 1.711-.459a.886.886 0 0 0 .626-1.085l-.459-1.711a.886.886 0 0 0-1.084-.626l-1.711.459a.885.885 0 0 0-.627 1.084l.459 1.711a.886.886 0 0 0 1.085.627Zm5.96 22.242 1.711-.458a.887.887 0 0 0 .626-1.085l-.459-1.711a.885.885 0 0 0-1.084-.626l-1.711.458a.886.886 0 0 0-.627 1.085l.459 1.711a.885.885 0 0 0 1.085.626Zm-26.079-4.932a.885.885 0 0 0 1.085.626l11.121-2.98 1.146 4.278a.886.886 0 0 0 1.711-.459l-1.375-5.133a.886.886 0 0 0-1.085-.626l-11.976 3.209a.886.886 0 0 0-.627 1.085Zm5.302-4.171a.886.886 0 0 0-.459-1.711l-8.554 2.292a.886.886 0 0 0 .458 1.711l8.555-2.292Zm3.422-.917 3.422-.917a.887.887 0 0 0-.459-1.711l-3.422.917a.886.886 0 0 0 .459 1.711Zm-4.128-15.399a.886.886 0 0 0-.626 1.085l2.292 8.555a.886.886 0 0 0 1.085.626l5.988-1.604 1.146 4.277a.886.886 0 0 0 1.085.626l3.422-.917a.885.885 0 0 0-.458-1.711l-2.567.688-1.146-4.277a.886.886 0 0 0-1.085-.627l-5.988 1.605-2.063-7.699a.886.886 0 0 0-1.085-.627Zm22.49 8.645-5.133 1.375a.887.887 0 0 0 .458 1.711l5.133-1.375a.885.885 0 1 0-.458-1.711Zm.916 3.422-8.555 2.292a.885.885 0 1 0 .458 1.711l8.555-2.292a.885.885 0 1 0-.458-1.711Zm-13.106 12.681-3.422.917a.885.885 0 0 0-.626 1.085l1.375 5.132a.886.886 0 0 0 1.711-.458l-1.146-4.277 2.567-.688a.887.887 0 0 0-.459-1.711Z"/><path d="m274.233 190.624-2.566.688a.886.886 0 1 0 .458 1.711l3.422-.917a.885.885 0 0 0 .626-1.085l-2.75-10.266a.885.885 0 1 0-1.711.459l2.521 9.41Zm-5.563-24.183a.885.885 0 0 0 .626-1.084l-1.375-5.133a.885.885 0 1 0-1.711.458l1.146 4.278-2.567.687a.885.885 0 1 0 .459 1.711l3.422-.917Z"/></g></svg>