<svg xmlns="http://www.w3.org/2000/svg" width="110" height="40" fill="#fff" fill-rule="evenodd" xmlns:v="https://vecta.io/nano"><path d="M54.796 0c-.426 0-.638.213-.638.638v24.287c0 .426.212.638.638.638s.638-.212.638-.638V13.16h7.856c.425 0 .638-.212.638-.638s-.213-.638-.638-.638h-7.856V1.276h12.163c.425 0 .638-.212.638-.638S68.023 0 67.598 0H54.796zM8.455.159c-.426 0-.638.213-.638.638h-.001v23.568c0 1.011-.179 1.947-.538 2.812s-.858 1.615-1.496 2.253-1.396 1.143-2.273 1.516-1.834.558-2.871.558c-.425 0-.638.212-.638.638a.59.59 0 0 0 .199.458.64.64 0 0 0 .439.18 8.2 8.2 0 0 0 3.31-.678c1.037-.452 1.934-1.057 2.692-1.814s1.356-1.648 1.795-2.672a8.16 8.16 0 0 0 .658-3.25V.797c0-.425-.213-.638-.638-.638zm3.51 11.985a9.48 9.48 0 0 0-.758 3.768c0 1.329.252 2.579.758 3.749s1.196 2.193 2.074 3.071 1.901 1.569 3.071 2.074 2.419.758 3.749.758a9.49 9.49 0 0 0 3.768-.758 9.72 9.72 0 0 0 3.091-2.074c.877-.877 1.568-1.901 2.074-3.071s.758-2.419.758-3.749-.259-2.585-.777-3.768-1.217-2.214-2.094-3.091-1.901-1.568-3.071-2.074a9.36 9.36 0 0 0-3.749-.758c-1.33 0-2.579.253-3.749.758s-2.193 1.196-3.071 2.074a9.72 9.72 0 0 0-2.074 3.091zm1.177 7.018c-.439-1.023-.658-2.106-.658-3.25a8.16 8.16 0 0 1 .658-3.251 8.44 8.44 0 0 1 1.795-2.672c.758-.758 1.648-1.363 2.672-1.815s2.106-.678 3.25-.678 2.226.226 3.25.678 1.914 1.057 2.672 1.815 1.362 1.649 1.814 2.672a7.97 7.97 0 0 1 .678 3.251c0 1.143-.226 2.226-.678 3.25a8.71 8.71 0 0 1-1.814 2.672c-.758.758-1.648 1.356-2.672 1.795a8.17 8.17 0 0 1-3.25.658c-1.143 0-2.227-.22-3.25-.658a8.43 8.43 0 0 1-2.672-1.795c-.758-.758-1.356-1.648-1.795-2.672zM32.025.797c0-.425.212-.638.638-.638s.638.213.638.638v10.449c.85-1.462 2.007-2.665 3.47-3.609s3.097-1.416 4.905-1.416a9.5 9.5 0 0 1 3.768.758 9.73 9.73 0 0 1 3.091 2.074c.877.877 1.568 1.901 2.074 3.071s.758 2.42.758 3.749-.259 2.586-.777 3.768-1.217 2.214-2.094 3.091a9.78 9.78 0 0 1-3.071 2.074 9.35 9.35 0 0 1-3.749.758c-1.808 0-3.45-.445-4.925-1.336a9.54 9.54 0 0 1-3.449-3.529v4.227c0 .426-.213.638-.638.638s-.638-.212-.638-.638V.797zm1.276 15.394a7.57 7.57 0 0 0 .737 3.131 9.06 9.06 0 0 0 1.834 2.572 8.44 8.44 0 0 0 2.632 1.755c.997.425 2.054.638 3.171.638 1.143 0 2.227-.226 3.25-.678s1.914-1.057 2.672-1.815a8.73 8.73 0 0 0 1.815-2.672c.453-1.024.678-2.107.678-3.251a7.95 7.95 0 0 0-.678-3.25c-.452-1.023-1.056-1.914-1.815-2.672a8.46 8.46 0 0 0-2.672-1.795 8.16 8.16 0 0 0-3.25-.658c-1.142 0-2.227.22-3.251.658a8.43 8.43 0 0 0-2.672 1.795c-.758.758-1.356 1.649-1.795 2.672a8.16 8.16 0 0 0-.658 3.25v.32zm33.259-.279a9.48 9.48 0 0 1 .758-3.768 9.72 9.72 0 0 1 2.074-3.091c.877-.877 1.901-1.568 3.071-2.074s2.419-.758 3.749-.758a9.4 9.4 0 0 1 3.728.758c1.183.506 2.214 1.19 3.091 2.054s1.576 1.881 2.094 3.05.778 2.42.778 3.749v9.093c0 .426-.213.638-.638.638s-.638-.212-.638-.638v-4.387c-.851 1.463-2.014 2.666-3.49 3.609s-3.117 1.416-4.925 1.416c-1.33 0-2.579-.252-3.749-.758s-2.193-1.196-3.071-2.074-1.569-1.901-2.074-3.071a9.36 9.36 0 0 1-.758-3.749zm1.276 0a8.17 8.17 0 0 0 .658 3.25c.439 1.024 1.037 1.914 1.795 2.672s1.648 1.356 2.672 1.795a8.16 8.16 0 0 0 3.251.658 8.17 8.17 0 0 0 3.25-.658 8.43 8.43 0 0 0 2.672-1.795 8.73 8.73 0 0 0 1.815-2.672c.453-1.024.678-2.107.678-3.25a7.97 7.97 0 0 0-.678-3.251c-.452-1.023-1.056-1.914-1.815-2.672s-1.648-1.362-2.672-1.815-2.108-.678-3.25-.678-2.227.226-3.251.678-1.914 1.057-2.672 1.815a8.44 8.44 0 0 0-1.795 2.672c-.439 1.024-.658 2.108-.658 3.251zM99.182 6.44a.72.72 0 0 0-.16.419h-.001v18.065c0 .426.212.638.638.638a.68.68 0 0 0 .438-.16.53.53 0 0 0 .2-.439v-9.412c.026-1.063.259-2.08.698-3.05s1.016-1.827 1.734-2.572a8.11 8.11 0 0 1 2.533-1.774c.971-.438 2.014-.658 3.131-.658.212 0 .372-.073.478-.22s.16-.285.16-.418-.053-.272-.16-.419-.266-.22-.478-.22c-1.835 0-3.39.418-4.666 1.256s-2.42 2.081-3.43 3.729V6.859c0-.186-.067-.339-.199-.459s-.279-.179-.439-.179c-.213 0-.372.074-.479.22zm-5.228 1.095a.78.78 0 0 1-.19-.025c-.759-.194-1.531-.194-2.297-.001-.369.093-.679-.088-.788-.461l-.346-1.173h0l-.098-.331-.248-.836-.105-.363h0l-.041-.142-.131-.456.133-.201c.545-.824 1.112-1.38 1.783-1.752.499-.276 1.29-.475 2.224.146.593.394 1.095.922 1.537 1.612l.128.2-.227.771-.14.476-.248.845-.012.04-.335 1.16c-.089.311-.314.49-.599.49zm-3.107-3.609l.141.486.139.471v.001l.108.363.347 1.17a5.63 5.63 0 0 1 2.065 0l.24-.825.012-.04.194-.661.001-.003.194-.658.091-.309c-.328-.471-.691-.836-1.106-1.111s-.767-.308-1.141-.102c-.467.258-.879.649-1.284 1.219zm1.771 31.814c-.288 0-.449-.202-.545-.322l-.789-.996-.123-.157-.491-.622-1.2-1.514h0l-.427-.539-.131-.165-.441-.551c-.202-.248-.171-.515-.161-.603l.421-3.647.175-1.563h0v-.003l.046-.416.178-1.58.207-1.761.001-.005.196-1.67.19-1.697h0v-.002l.142-1.27.23-1.999.196-1.701.02-.172.199-1.725.233-2.089c.034-.314.228-.537.53-.613a5.23 5.23 0 0 1 1.372-.166c.404-.007.832.047 1.306.163.306.075.501.303.537.625l.204 1.775h0l.005.046.166 1.439.163 1.459.006.055v.001l.165 1.479.156 1.348.04.338.043.369v.001l.146 1.257.201 1.785.049.443h0l.105.939.101.88v.003l.054.466.041.353.077.672.106.937.013.11.126 1.113.265 2.274.061.517.152 1.279c.036.288-.114.476-.171.548l-.001.001-.007.009-1.923 2.427-1.287 1.633v.001l-.232.295-.133.169h0c-.113.143-.266.339-.555.339h-.004zm-3.262-5.43l.286.358.087.11.131.164 1.628 2.053.316.399.177.224.063.079.574.726.073-.093 1.321-1.676 1.866-2.355-.103-.871-.031-.268-.061-.517-.001-.008v-.001l-.264-2.268-.139-1.225-.096-.844-.011-.093-.079-.683-.039-.34v-.002-.002l-.155-1.347-.155-1.384-.01-.089h0l-.19-1.693-.188-1.623-.042-.362h0l-.153-1.327-.172-1.539-.163-1.455-.166-1.436-.185-1.604a3.78 3.78 0 0 0-.822-.082h-.01-.01a3.99 3.99 0 0 0-.879.083l-.207 1.859-.199 1.728-.02.171-.196 1.701-.046.399-.183 1.599-.141 1.268-.191 1.703-.197 1.679-.031.263v.001l-.175 1.493-.179 1.594h0l-.044.397-.044.392-.132 1.176-.412 3.568zm-5.797 7.516c2.705.962 6.126 1.534 9.165 1.534h.061c5.197-.013 11.092-1.701 13.139-3.762.546-.55.821-1.119.819-1.692-.005-1.02-1.128-2.066-3.434-3.199l-.02-.01c-.84-.413-1.9-.753-2.624-.973a30.14 30.14 0 0 0-1.35-.376.521.521 0 0 0-.256 1.011c.434.111.873.233 1.304.363l.003.001c.4.122 1.605.488 2.463.91l.022.01c2.709 1.33 2.849 2.122 2.85 2.267.002.356-.279.715-.516.952-1.847 1.86-7.526 3.442-12.402 3.454h-.058c-2.926 0-6.216-.55-8.815-1.474-2.484-.883-4.032-2.01-4.041-2.94-.006-.577.647-1.795 5.076-3.459.409-.109.824-.209 1.235-.299a.522.522 0 0 0-.223-1.02 29.62 29.62 0 0 0-1.306.317l-.049.015c-3.957 1.484-5.792 2.9-5.777 4.456.018 1.947 2.974 3.287 4.735 3.913z"/></svg>