<svg width="135" height="44" fill="none" xmlns="http://www.w3.org/2000/svg"><path d="M9.63.981c0-.516.258-.791.793-.791.518 0 .794.258.794.791v29.024c0 1.412-.276 2.737-.81 3.994a10.313 10.313 0 0 1-2.21 3.288c-.932.93-2.036 1.67-3.33 2.238-1.278.55-2.64.843-4.09.843a.746.746 0 0 1-.535-.224.78.78 0 0 1-.242-.568c0-.516.259-.792.794-.792 1.277 0 2.468-.224 3.538-.688a9.095 9.095 0 0 0 2.812-1.86 8.485 8.485 0 0 0 1.847-2.77c.449-1.068.673-2.222.673-3.461V.981h-.035zM13.823 19.59c0-1.636.31-3.185.932-4.648a12.103 12.103 0 0 1 2.554-3.805 11.963 11.963 0 0 1 3.796-2.547c1.45-.62 2.986-.93 4.625-.93 1.64 0 3.175.31 4.625.93 1.45.62 2.71 1.48 3.797 2.547a12.197 12.197 0 0 1 2.588 3.805c.639 1.463.967 2.995.967 4.648 0 1.635-.311 3.167-.932 4.613a12.222 12.222 0 0 1-2.554 3.787 11.85 11.85 0 0 1-3.814 2.548c-1.467.62-3.003.93-4.66.93-1.639 0-3.175-.31-4.625-.93-1.45-.62-2.709-1.48-3.796-2.548a11.93 11.93 0 0 1-2.554-3.787c-.639-1.429-.95-2.978-.95-4.613zm1.57 0c0 1.411.276 2.737.811 3.993a10.313 10.313 0 0 0 2.21 3.288 10.34 10.34 0 0 0 3.295 2.204c1.26.533 2.606.809 4.004.809 1.415 0 2.744-.276 4.004-.81a10.342 10.342 0 0 0 3.296-2.203c.932-.93 1.674-2.031 2.243-3.288.552-1.256.828-2.599.828-3.993a9.797 9.797 0 0 0-.828-3.994 10.697 10.697 0 0 0-2.243-3.288c-.932-.93-2.037-1.67-3.296-2.238a9.923 9.923 0 0 0-4.004-.826 9.863 9.863 0 0 0-4.004.826 10.725 10.725 0 0 0-3.296 2.238 10.313 10.313 0 0 0-2.209 3.288 10.077 10.077 0 0 0-.81 3.994zM39.519.981c0-.516.259-.791.794-.791.517 0 .793.258.793.791v12.86c1.053-1.808 2.485-3.288 4.28-4.442 1.812-1.153 3.831-1.738 6.057-1.738 1.64 0 3.193.31 4.66.93 1.467.619 2.727 1.48 3.814 2.547a11.929 11.929 0 0 1 2.554 3.787c.621 1.446.932 2.978.932 4.614 0 1.635-.328 3.184-.967 4.647a12.194 12.194 0 0 1-2.588 3.805 11.962 11.962 0 0 1-3.797 2.548c-1.45.62-2.985.93-4.625.93-2.226 0-4.262-.552-6.074-1.653-1.83-1.102-3.245-2.548-4.263-4.338v5.198c0 .517-.259.792-.794.792-.517 0-.794-.258-.794-.792V.981h.018zm1.57 18.953c.035 1.378.328 2.669.915 3.857a11.178 11.178 0 0 0 2.26 3.167c.932.912 2.02 1.635 3.245 2.152 1.225.516 2.537.792 3.917.792a9.864 9.864 0 0 0 4.004-.827 10.727 10.727 0 0 0 3.296-2.238c.932-.93 1.674-2.03 2.243-3.287.553-1.257.829-2.6.829-3.994a9.798 9.798 0 0 0-.829-3.994 10.7 10.7 0 0 0-2.243-3.288 10.34 10.34 0 0 0-3.296-2.203 10.206 10.206 0 0 0-4.004-.81c-1.415 0-2.744.276-4.004.81a10.34 10.34 0 0 0-3.296 2.203 10.311 10.311 0 0 0-2.209 3.288 10.137 10.137 0 0 0-.81 3.994v.378h-.018zM66.837.792c0-.517.26-.792.794-.792H83.44c.518 0 .794.258.794.792 0 .516-.26.792-.794.792H68.425v13.048h9.699c.517 0 .793.258.793.792 0 .517-.258.792-.793.792h-9.699v14.477c0 .517-.259.792-.794.792-.517 0-.794-.258-.794-.792V.792zM82.145 19.59c0-1.636.31-3.185.932-4.648a12.102 12.102 0 0 1 2.554-3.805 11.963 11.963 0 0 1 3.796-2.547c1.45-.62 2.986-.93 4.625-.93 1.605 0 3.141.31 4.608.93a12.086 12.086 0 0 1 3.814 2.53 12.157 12.157 0 0 1 2.588 3.753c.639 1.446.967 2.978.967 4.613v11.19c0 .516-.259.792-.794.792-.518 0-.794-.259-.794-.792V25.27c-1.052 1.808-2.485 3.288-4.314 4.442-1.83 1.17-3.848 1.738-6.075 1.738-1.639 0-3.175-.31-4.625-.93-1.45-.619-2.709-1.48-3.796-2.547a11.93 11.93 0 0 1-2.554-3.787c-.621-1.412-.932-2.961-.932-4.596zm1.57 0c0 1.411.276 2.737.811 3.993a10.312 10.312 0 0 0 2.21 3.288c.931.93 2.036 1.67 3.295 2.204 1.26.533 2.606.809 4.004.809 1.415 0 2.744-.276 4.004-.81a10.343 10.343 0 0 0 3.296-2.203c.932-.93 1.674-2.031 2.243-3.288.553-1.256.829-2.599.829-3.993a9.786 9.786 0 0 0-.829-3.994 10.69 10.69 0 0 0-2.243-3.288c-.932-.93-2.036-1.67-3.296-2.238a9.923 9.923 0 0 0-4.004-.826 9.864 9.864 0 0 0-4.004.826 10.728 10.728 0 0 0-3.296 2.238 10.313 10.313 0 0 0-2.209 3.288 10.076 10.076 0 0 0-.81 3.994zM122.216 8.452c0-.155.069-.327.19-.517a.714.714 0 0 1 .587-.275c.189 0 .379.069.535.224a.78.78 0 0 1 .241.568v5.354c1.243-2.032 2.658-3.564 4.228-4.597 1.571-1.033 3.503-1.549 5.764-1.549.259 0 .466.086.587.275a.8.8 0 0 1 .19.517c0 .172-.069.344-.19.516a.714.714 0 0 1-.587.276 9.37 9.37 0 0 0-3.866.809 10.018 10.018 0 0 0-3.123 2.186 11.15 11.15 0 0 0-2.14 3.167 9.707 9.707 0 0 0-.863 3.753v11.586a.655.655 0 0 1-.241.533.818.818 0 0 1-.535.19c-.518 0-.794-.259-.794-.792V8.452h.017zM119.627 37.338c-.069-.517-.121-1.05-.19-1.567l-.069-.637c-.103-.93-.224-1.859-.328-2.806-.051-.499-.12-.998-.172-1.514-.052-.38-.087-.775-.138-1.154a29.775 29.775 0 0 1-.138-1.256c-.069-.551-.121-1.102-.19-1.653-.069-.568-.121-1.136-.19-1.704-.086-.74-.173-1.463-.242-2.204a81.316 81.316 0 0 0-.241-2.014c-.086-.688-.156-1.377-.242-2.066l-.207-1.893-.207-1.808-.207-1.773-.259-2.238c-.052-.396-.293-.67-.656-.774a6.951 6.951 0 0 0-1.605-.207 5.835 5.835 0 0 0-1.691.207c-.379.086-.604.361-.656.757-.103.964-.207 1.79-.293 2.565-.086.775-.173 1.55-.276 2.341l-.242 2.118c-.086.809-.19 1.618-.276 2.427-.052.516-.121 1.033-.172 1.55-.087.705-.156 1.394-.242 2.1-.086.688-.155 1.377-.242 2.065l-.258 2.17c-.087.825-.19 1.634-.277 2.46-.069.638-.138 1.275-.207 1.929-.172 1.55-.345 3.064-.517 4.493a.95.95 0 0 0 .189.74c.19.224.363.465.553.689l.103.137c.691.861 1.381 1.722 2.054 2.6l.604.757c.38.482.759.947 1.139 1.429.121.155.31.396.673.396.362 0 .552-.241.69-.413l.224-.276c.604-.774 1.209-1.532 1.83-2.306l2.381-2.996v-.017a.931.931 0 0 0 .19-.654zM117.73 4.372c-.553-.843-1.174-1.497-1.899-1.98-1.156-.757-2.122-.516-2.743-.172-.829.465-1.536 1.137-2.209 2.152l-.173.241.155.568c.052.207.121.413.173.62l.311 1.033c.189.62.362 1.24.552 1.842.138.465.518.688.966.568a5.629 5.629 0 0 1 2.83 0c.087.017.156.034.242.034.345 0 .638-.223.742-.602.138-.482.276-.964.414-1.429l.017-.034c.156-.551.328-1.102.484-1.653l.276-.93-.138-.258z" fill="#fff"/></svg>