<svg xmlns="http://www.w3.org/2000/svg" width="110" height="40" fill="none" fill-rule="evenodd" xmlns:v="https://vecta.io/nano"><path d="M54.796 0c-.426 0-.638.213-.638.638v24.287c0 .426.212.638.638.638s.638-.212.638-.638V13.16h7.856c.425 0 .638-.212.638-.638s-.213-.638-.638-.638h-7.856V1.276h12.163c.425 0 .638-.212.638-.638S68.023 0 67.598 0H54.796zM8.455.159c-.426 0-.638.213-.638.638h-.001v23.568c0 1.011-.179 1.947-.538 2.812s-.858 1.615-1.496 2.253-1.396 1.143-2.273 1.516-1.834.558-2.871.558c-.425 0-.638.212-.638.638a.59.59 0 0 0 .199.458c.133.12.279.18.439.18a8.2 8.2 0 0 0 3.31-.678c1.037-.452 1.934-1.057 2.692-1.814s1.356-1.648 1.795-2.672a8.16 8.16 0 0 0 .658-3.25V.797c0-.425-.213-.638-.638-.638zm3.51 11.985c-.506 1.183-.758 2.439-.758 3.768s.252 2.579.758 3.749 1.196 2.193 2.074 3.071 1.901 1.569 3.071 2.074 2.419.758 3.749.758a9.49 9.49 0 0 0 3.768-.758 9.72 9.72 0 0 0 3.091-2.074c.877-.877 1.568-1.901 2.074-3.071s.758-2.419.758-3.749-.259-2.585-.777-3.768-1.217-2.214-2.094-3.091-1.901-1.568-3.071-2.074a9.36 9.36 0 0 0-3.749-.758c-1.33 0-2.579.253-3.749.758s-2.193 1.196-3.071 2.074a9.72 9.72 0 0 0-2.074 3.091zm1.177 7.018c-.439-1.023-.658-2.106-.658-3.25s.219-2.227.658-3.251a8.44 8.44 0 0 1 1.795-2.672c.758-.758 1.648-1.363 2.672-1.815s2.106-.678 3.25-.678 2.226.226 3.25.678 1.914 1.057 2.672 1.815 1.362 1.649 1.814 2.672a7.97 7.97 0 0 1 .678 3.251c0 1.143-.226 2.226-.678 3.25s-1.056 1.914-1.814 2.672-1.648 1.356-2.672 1.795a8.17 8.17 0 0 1-3.25.658c-1.143 0-2.227-.22-3.25-.658s-1.914-1.037-2.672-1.795-1.356-1.648-1.795-2.672zM32.025.797c0-.425.212-.638.638-.638s.638.213.638.638v10.449c.85-1.462 2.007-2.665 3.47-3.609s3.097-1.416 4.905-1.416a9.5 9.5 0 0 1 3.768.758 9.73 9.73 0 0 1 3.091 2.074c.877.877 1.568 1.901 2.074 3.071s.758 2.42.758 3.749-.259 2.586-.777 3.768-1.217 2.214-2.094 3.091-1.901 1.569-3.071 2.074a9.35 9.35 0 0 1-3.749.758c-1.808 0-3.45-.445-4.925-1.336s-2.626-2.067-3.449-3.529v4.227c0 .426-.213.638-.638.638s-.638-.212-.638-.638V.797zm1.276 15.394c.026 1.117.272 2.16.737 3.131a9.06 9.06 0 0 0 1.834 2.572c.758.745 1.635 1.33 2.632 1.755s2.054.638 3.171.638c1.143 0 2.227-.226 3.25-.678s1.914-1.057 2.672-1.815 1.362-1.648 1.815-2.672.678-2.107.678-3.251-.226-2.227-.678-3.25-1.056-1.914-1.815-2.672-1.649-1.356-2.672-1.795-2.108-.658-3.25-.658-2.227.22-3.251.658a8.43 8.43 0 0 0-2.672 1.795c-.758.758-1.356 1.649-1.795 2.672s-.658 2.108-.658 3.25v.32zm33.259-.279c0-1.329.252-2.585.758-3.768a9.72 9.72 0 0 1 2.074-3.091c.877-.877 1.901-1.568 3.071-2.074s2.419-.758 3.749-.758a9.4 9.4 0 0 1 3.728.758c1.183.506 2.214 1.19 3.091 2.054s1.576 1.881 2.094 3.05a9.15 9.15 0 0 1 .778 3.749v9.093c0 .426-.213.638-.638.638s-.638-.212-.638-.638v-4.387a10.52 10.52 0 0 1-3.49 3.609c-1.476.944-3.117 1.416-4.925 1.416-1.33 0-2.579-.252-3.749-.758s-2.193-1.196-3.071-2.074-1.569-1.901-2.074-3.071-.758-2.42-.758-3.749zm1.276 0a8.17 8.17 0 0 0 .658 3.25c.439 1.024 1.037 1.914 1.795 2.672s1.648 1.356 2.672 1.795 2.107.658 3.251.658 2.227-.22 3.25-.658 1.914-1.037 2.672-1.795 1.362-1.648 1.815-2.672.678-2.107.678-3.25a7.97 7.97 0 0 0-.678-3.251c-.452-1.023-1.056-1.914-1.815-2.672s-1.648-1.362-2.672-1.815-2.108-.678-3.25-.678-2.227.226-3.251.678-1.914 1.057-2.672 1.815a8.44 8.44 0 0 0-1.795 2.672c-.439 1.024-.658 2.108-.658 3.251zM99.182 6.44a.72.72 0 0 0-.16.419h-.001v18.065c0 .426.212.638.638.638.16 0 .306-.053.438-.16a.53.53 0 0 0 .2-.439v-9.412c.026-1.063.259-2.08.698-3.05s1.016-1.827 1.734-2.572 1.562-1.336 2.533-1.774 2.014-.658 3.131-.658c.212 0 .372-.073.478-.22s.16-.285.16-.418-.053-.272-.16-.419-.266-.22-.478-.22c-1.835 0-3.39.418-4.666 1.256s-2.42 2.081-3.43 3.729V6.859c0-.186-.067-.339-.199-.459s-.279-.179-.439-.179c-.213 0-.372.074-.479.22z" fill="#fff"/><path d="M93.954 7.535c-.061 0-.125-.008-.19-.025-.759-.194-1.531-.194-2.297-.001-.369.093-.679-.088-.788-.461l-.346-1.173h0l-.098-.331-.248-.836-.105-.363h0l-.041-.142-.131-.456.133-.201c.545-.824 1.112-1.38 1.784-1.752.499-.276 1.29-.475 2.224.146.593.394 1.095.922 1.537 1.612l.128.2-.227.771-.14.477-.248.844-.012.04-.335 1.16c-.089.311-.314.49-.599.49zm-3.107-3.609l.14.486.139.471v.001l.108.363.347 1.17a5.63 5.63 0 0 1 2.065 0l.24-.825.012-.04.195-.662.194-.661.091-.309c-.328-.471-.691-.836-1.106-1.111s-.768-.308-1.141-.102c-.467.258-.879.649-1.284 1.219zm1.771 31.814c-.288 0-.449-.202-.545-.322l-.788-.995-.124-.157-.491-.622-1.2-1.514h0l-.427-.539-.131-.165-.441-.551c-.202-.248-.171-.515-.161-.603l.421-3.647.175-1.563h0v-.003l.046-.416.178-1.58.207-1.761v-.005h0l.196-1.669.19-1.697v-.002l.142-1.27.23-1.999.196-1.701.02-.173v-.004l.198-1.72.233-2.089c.034-.314.228-.537.53-.613.482-.12.931-.174 1.372-.166.404-.007.832.047 1.306.163.306.075.501.303.538.625l.204 1.774h0l.005.047.166 1.439.163 1.459.006.055.165 1.48.156 1.347.04.339.043.369v.001l.146 1.256.201 1.785.049.441.105.941.101.88v.003l.054.466.041.353.077.672.106.937.013.112v.001l.126 1.109.265 2.274.061.517.152 1.279c.035.288-.114.476-.171.548v.001l-.007.009-1.923 2.427-1.289 1.635-.231.293-.133.169h0c-.113.143-.266.339-.555.339h-.004zm-3.262-5.43l.286.358.087.11.131.164 1.628 2.053.316.399.177.224.063.08.574.725.07-.089.002-.003 1.322-1.677 1.866-2.355-.103-.871-.032-.268-.061-.517-.001-.008v-.001l-.264-2.268-.139-1.225-.096-.844-.01-.093-.079-.683-.039-.34v-.002l-.155-1.349-.155-1.384-.01-.09v-.002l-.19-1.691-.188-1.623-.042-.362-.153-1.327-.172-1.539-.163-1.455-.166-1.436-.185-1.604c-.298-.06-.569-.087-.822-.082h-.01-.01c-.282-.006-.571.021-.879.083l-.207 1.859-.198 1.725v.004l-.019.17-.196 1.701-.046.399-.183 1.599-.141 1.268-.191 1.703-.197 1.679-.031.263h0l-.175 1.494-.18 1.594h0l-.044.397-.044.392-.132 1.176-.412 3.568zm-5.797 7.516c2.705.962 6.126 1.534 9.165 1.534h.061c5.197-.013 11.092-1.701 13.14-3.762.545-.55.821-1.119.818-1.692-.005-1.02-1.127-2.066-3.433-3.199l-.021-.01c-.84-.413-1.899-.753-2.623-.973a30.16 30.16 0 0 0-1.351-.376.52.52 0 0 0-.256 1.011c.434.111.873.233 1.304.363l.002.001c.401.122 1.605.488 2.464.91l.021.01c2.709 1.33 2.85 2.122 2.85 2.267.002.356-.279.715-.515.952-1.847 1.86-7.527 3.442-12.402 3.454h-.058c-2.926 0-6.216-.55-8.815-1.474-2.484-.883-4.032-2.01-4.041-2.94-.006-.577.647-1.795 5.076-3.459.409-.109.824-.209 1.235-.299a.52.52 0 0 0-.223-1.02 29.62 29.62 0 0 0-1.306.317l-.049.015c-3.957 1.484-5.792 2.9-5.777 4.456.018 1.947 2.974 3.287 4.735 3.913z" fill="#edb200"/></svg>