<svg width="110" height="40" viewBox="0 0 110 40" fill="none" xmlns="http://www.w3.org/2000/svg">
<path fill-rule="evenodd" clip-rule="evenodd" d="M54.7963 0C54.3705 0 54.1582 0.212897 54.1582 0.638078V24.9249C54.1582 25.3507 54.3705 25.563 54.7963 25.563C55.2215 25.563 55.4344 25.3507 55.4344 24.9249V13.1604H63.2907C63.7159 13.1604 63.9288 12.9481 63.9288 12.5223C63.9288 12.0971 63.7159 11.8842 63.2907 11.8842H55.4344V1.27616H67.5977C68.0229 1.27616 68.2358 1.06387 68.2358 0.638078C68.2358 0.212897 68.0229 0 67.5977 0H54.7963ZM8.45515 0.15918C8.02936 0.15918 7.81708 0.372078 7.81708 0.797259H7.81646V24.3657C7.81646 25.3768 7.63731 26.313 7.27839 27.1775C6.91886 28.0408 6.42066 28.7923 5.78259 29.4304C5.14451 30.0685 4.38679 30.5734 3.50943 30.9459C2.63207 31.3177 1.67496 31.5042 0.638078 31.5042C0.212897 31.5042 0 31.7165 0 32.1423C0 32.3275 0.0668755 32.4809 0.1994 32.6006C0.332537 32.7202 0.478559 32.7803 0.638078 32.7803C1.80809 32.7803 2.91123 32.5539 3.94811 32.1024C4.98499 31.6502 5.88259 31.0459 6.64031 30.2881C7.39803 29.5304 7.99623 28.6396 8.43491 27.6162C8.87359 26.5928 9.09323 25.5099 9.09323 24.3663V0.797259C9.09323 0.372078 8.88033 0.15918 8.45515 0.15918ZM11.9648 12.1437C11.4592 13.3266 11.207 14.5831 11.207 15.912C11.207 17.2415 11.4592 18.4907 11.9648 19.6607C12.4697 20.8307 13.1611 21.8541 14.0385 22.7315C14.9159 23.6088 15.9392 24.3003 17.1093 24.8052C18.2787 25.3108 19.5284 25.5629 20.858 25.5629C22.1869 25.5629 23.4428 25.3108 24.6263 24.8052C25.8092 24.3003 26.84 23.6088 27.7173 22.7315C28.5947 21.8541 29.2855 20.8307 29.7911 19.6607C30.296 18.4913 30.5488 17.2415 30.5488 15.912C30.5488 14.5831 30.2899 13.3272 29.7714 12.1437C29.2524 10.9608 28.5548 9.93002 27.6774 9.05266C26.8001 8.17531 25.7761 7.48446 24.6067 6.97891C23.4367 6.47397 22.1869 6.22119 20.858 6.22119C19.5284 6.22119 18.2787 6.47397 17.1093 6.97891C15.9392 7.48446 14.9159 8.17531 14.0385 9.05266C13.1611 9.93002 12.4697 10.9608 11.9648 12.1437ZM13.1415 19.1619C12.7028 18.1391 12.4832 17.0556 12.4832 15.912C12.4832 14.769 12.7022 13.6855 13.1415 12.6615C13.5802 11.6381 14.1784 10.7473 14.9361 9.98953C15.6938 9.23182 16.5841 8.62687 17.6081 8.17469C18.6308 7.72313 19.7143 7.49673 20.858 7.49673C22.001 7.49673 23.0845 7.72313 24.1085 8.17469C25.1319 8.62748 26.0227 9.23182 26.7804 9.98953C27.5375 10.7473 28.1425 11.6381 28.5947 12.6615C29.0462 13.6855 29.2726 14.769 29.2726 15.912C29.2726 17.055 29.0462 18.1385 28.5947 19.1619C28.1425 20.1859 27.5382 21.0761 26.7804 21.8339C26.0227 22.5916 25.1319 23.1898 24.1085 23.6285C23.0845 24.0671 22.001 24.2868 20.858 24.2868C19.7149 24.2868 18.6314 24.0671 17.6081 23.6285C16.5841 23.1898 15.6938 22.5916 14.9361 21.8339C14.1784 21.0761 13.5802 20.1859 13.1415 19.1619ZM32.0249 0.797259C32.0249 0.372078 32.2372 0.15918 32.663 0.15918C33.0882 0.15918 33.3011 0.372078 33.3011 0.797259V11.2458C34.1514 9.78374 35.3079 8.58059 36.7706 7.63636C38.2327 6.69274 39.8677 6.22031 41.6758 6.22031C43.0048 6.22031 44.2613 6.47309 45.4442 6.97803C46.6271 7.48359 47.6578 8.17443 48.5352 9.05179C49.4125 9.92914 50.1034 10.9531 50.6089 12.1225C51.1139 13.2926 51.3667 14.5423 51.3667 15.8713C51.3667 17.2008 51.1077 18.4573 50.5893 19.6396C50.0709 20.8231 49.3727 21.8532 48.4953 22.7306C47.6179 23.608 46.5939 24.2994 45.4245 24.8044C44.2545 25.3099 43.0048 25.5621 41.6758 25.5621C39.8677 25.5621 38.2259 25.1173 36.7504 24.2258C35.2748 23.3355 34.1244 22.1588 33.3011 20.6967V24.924C33.3011 25.3498 33.0882 25.5621 32.663 25.5621C32.2372 25.5621 32.0249 25.3498 32.0249 24.924V0.797259ZM33.3011 16.1909C33.3274 17.3075 33.5735 18.3512 34.0385 19.3218C34.5036 20.2924 35.1153 21.1501 35.873 21.8937C36.6307 22.6386 37.5081 23.2233 38.5051 23.6484C39.5021 24.0742 40.5592 24.2865 41.6758 24.2865C42.8189 24.2865 43.9024 24.0607 44.9257 23.6086C45.9491 23.157 46.84 22.5514 47.5977 21.7937C48.3554 21.036 48.9597 20.1458 49.4125 19.1218C49.8641 18.0984 50.0905 17.0149 50.0905 15.8713C50.0905 14.7282 49.8641 13.6447 49.4125 12.6213C48.9604 11.598 48.356 10.7071 47.5977 9.94939C46.84 9.19167 45.9491 8.59347 44.9257 8.15479C43.9017 7.71612 42.8182 7.49647 41.6758 7.49647C40.5322 7.49647 39.4487 7.71612 38.4253 8.15479C37.4013 8.59347 36.5111 9.19167 35.7534 9.94939C34.9956 10.7071 34.3974 11.598 33.9588 12.6213C33.5201 13.6453 33.3011 14.7288 33.3011 15.8713V16.1909ZM66.5605 15.912C66.5605 14.5831 66.8127 13.3266 67.3183 12.1437C67.8232 10.9608 68.5147 9.93002 69.392 9.05266C70.2694 8.17531 71.2928 7.48446 72.4628 6.97891C73.6322 6.47397 74.882 6.22119 76.2115 6.22119C77.514 6.22119 78.7571 6.47397 79.94 6.97891C81.1229 7.48446 82.1536 8.16917 83.0309 9.03303C83.9083 9.8975 84.6065 10.9141 85.1249 12.0835C85.6434 13.2536 85.9029 14.5033 85.9029 15.8322V24.9249C85.9029 25.3507 85.69 25.5629 85.2648 25.5629C84.839 25.5629 84.6268 25.3507 84.6268 24.9249V20.5381C83.7758 22.0007 82.6131 23.2039 81.137 24.1475C79.6614 25.0918 78.0196 25.5636 76.2121 25.5636C74.8826 25.5636 73.6328 25.3114 72.4634 24.8058C71.2934 24.3009 70.27 23.6094 69.3926 22.7321C68.5153 21.8547 67.8238 20.8314 67.3189 19.6613C66.8127 18.4907 66.5605 17.2415 66.5605 15.912ZM67.8367 15.912C67.8367 17.0556 68.0564 18.1391 68.4944 19.1619C68.9331 20.1859 69.5313 21.0761 70.289 21.8339C71.0467 22.5916 71.937 23.1898 72.961 23.6285C73.9844 24.0671 75.0679 24.2868 76.2115 24.2868C77.3545 24.2868 78.438 24.0671 79.4614 23.6285C80.4848 23.1898 81.3756 22.5916 82.1333 21.8339C82.8911 21.0761 83.4954 20.1859 83.9482 19.1619C84.3997 18.1385 84.6261 17.055 84.6261 15.912C84.6261 14.769 84.3997 13.6855 83.9482 12.6615C83.496 11.6381 82.8917 10.7473 82.1333 9.98954C81.3756 9.23182 80.4848 8.62748 79.4614 8.17469C78.4374 7.72313 77.3539 7.49673 76.2115 7.49673C75.0679 7.49673 73.9844 7.72313 72.961 8.17469C71.937 8.62687 71.0467 9.23182 70.289 9.98954C69.5313 10.7473 68.9331 11.6381 68.4944 12.6615C68.0557 13.6855 67.8367 14.769 67.8367 15.912ZM99.1816 6.44035C99.0749 6.58698 99.0221 6.72687 99.0221 6.8594H99.0215V24.9244C99.0215 25.3502 99.2338 25.5625 99.6596 25.5625C99.8191 25.5625 99.9651 25.5097 100.098 25.4029C100.231 25.2968 100.298 25.1508 100.298 24.9643V15.5526C100.324 14.49 100.557 13.4727 100.996 12.5021C101.434 11.5321 102.012 10.675 102.73 9.93015C103.449 9.18654 104.292 8.59448 105.263 8.1558C106.234 7.71712 107.277 7.49747 108.394 7.49747C108.606 7.49747 108.766 7.42446 108.872 7.27783C108.979 7.13242 109.032 6.99253 109.032 6.8594C109.032 6.72626 108.979 6.58698 108.872 6.44035C108.766 6.29433 108.606 6.2207 108.394 6.2207C106.559 6.2207 105.004 6.63914 103.728 7.47661C102.452 8.31409 101.308 9.55773 100.298 11.2057V6.85878C100.298 6.67288 100.231 6.51949 100.099 6.39985C99.9657 6.28022 99.8197 6.2207 99.6602 6.2207C99.4473 6.2207 99.2878 6.29433 99.1816 6.44035Z" fill="white"/>
<path fill-rule="evenodd" clip-rule="evenodd" d="M93.9538 7.53515C93.8931 7.53515 93.8292 7.52718 93.7636 7.51061C93.0047 7.31673 92.2322 7.31673 91.4665 7.50938C91.0972 7.60203 90.7879 7.42103 90.6787 7.048C90.5644 6.65664 90.4485 6.26603 90.3327 5.87529L90.3326 5.8749L90.2345 5.54423C90.1517 5.26568 90.0689 4.98713 89.9867 4.70859C89.951 4.58787 89.9162 4.46684 89.8815 4.34594L89.8815 4.34569L89.8406 4.20365L89.71 3.74717L89.8431 3.54655C90.3885 2.72257 90.9554 2.16609 91.6266 1.7949C92.1255 1.51881 92.9163 1.32002 93.8501 1.94092C94.4428 2.33481 94.9453 2.86245 95.387 3.5533L95.5152 3.75331L95.2882 4.52391L95.1481 5.00004C95.0652 5.28161 94.9823 5.56311 94.8999 5.84486L94.8882 5.88535C94.7765 6.26574 94.6618 6.65841 94.5532 7.04555C94.4643 7.35661 94.2391 7.53515 93.9538 7.53515ZM90.8468 3.92633C90.8929 4.0883 90.9395 4.25089 90.9873 4.41225C91.0337 4.56924 91.0802 4.72604 91.1267 4.88276L91.1269 4.88353L91.2346 5.24666C91.3506 5.63626 91.4659 6.02647 91.5812 6.41668C92.269 6.28967 92.9611 6.28906 93.6458 6.41668C93.7256 6.13874 93.8065 5.86204 93.8857 5.59208L93.8974 5.55159C93.9621 5.33101 94.027 5.11059 94.0919 4.89017L94.0928 4.88701C94.1573 4.66766 94.2219 4.4483 94.2863 4.2288L94.3771 3.92019C94.0489 3.449 93.6857 3.08455 93.2715 2.80908C92.8556 2.53237 92.504 2.50108 92.131 2.70723C91.6641 2.96553 91.2524 3.35574 90.8468 3.92633ZM92.6182 35.7402C92.3298 35.7402 92.169 35.5384 92.0733 35.4181C91.8092 35.0872 91.547 34.7549 91.2845 34.4224L91.161 34.2659L90.6696 33.6438C90.2701 33.1389 89.87 32.6344 89.47 32.13L89.47 32.13L89.0425 31.5909L88.9118 31.4258C88.7676 31.2436 88.6185 31.0559 88.4706 30.8743C88.2682 30.6258 88.2995 30.3589 88.3099 30.2718C88.4467 29.1097 88.5878 27.8833 88.7308 26.6249C88.7896 26.104 88.8477 25.583 88.9059 25.0621L88.9059 25.0615L88.9063 25.0585L88.9526 24.6429C89.0113 24.1162 89.07 23.5894 89.1302 23.0633C89.1977 22.4762 89.267 21.889 89.337 21.3025L89.3375 21.298C89.4036 20.7411 89.4697 20.1843 89.5339 19.6275C89.5989 19.0624 89.6614 18.4966 89.7239 17.9308L89.724 17.9307L89.7241 17.9292C89.7707 17.5059 89.818 17.0826 89.8658 16.6592C89.9413 15.9923 90.018 15.326 90.0953 14.6597L90.2916 12.959L90.3115 12.7867C90.3779 12.2117 90.4442 11.6371 90.51 11.0619C90.5824 10.4269 90.6585 9.74343 90.7426 8.97283C90.7769 8.6587 90.9702 8.43537 91.2727 8.35991C91.7543 8.23965 92.2034 8.18566 92.6445 8.19364C93.0489 8.18689 93.4765 8.24027 93.9502 8.35684C94.2557 8.43231 94.4514 8.65993 94.4876 8.98204C94.554 9.57402 94.6227 10.1654 94.6914 10.7574L94.6915 10.7579L94.6968 10.8036C94.7527 11.2828 94.8079 11.7626 94.8625 12.2424C94.9177 12.7283 94.9717 13.2148 95.0251 13.7014L95.0311 13.7562L95.0312 13.757C95.0856 14.2502 95.1401 14.7439 95.1962 15.2364C95.2472 15.6856 95.2998 16.1348 95.3524 16.584L95.392 16.9224L95.435 17.291L95.4352 17.2921C95.4841 17.7109 95.5331 18.1299 95.5809 18.5489C95.649 19.144 95.7153 19.7392 95.7816 20.3343L95.8309 20.7769L95.831 20.7772C95.8659 21.0901 95.9007 21.4029 95.9362 21.716C95.9694 22.0094 96.0031 22.3025 96.0369 22.5957L96.0372 22.5986L96.0908 23.0645L96.1315 23.4175C96.1574 23.6413 96.1832 23.8651 96.2086 24.0892C96.2442 24.4014 96.2797 24.7144 96.3147 25.0266L96.3272 25.1367C96.369 25.5075 96.4109 25.8787 96.4534 26.2494C96.5405 27.0078 96.6295 27.7661 96.7184 28.5238L96.7792 29.0404C96.8289 29.4668 96.8792 29.8932 96.9313 30.319C96.9668 30.607 96.8176 30.795 96.7607 30.8668L96.7601 30.8675L96.7534 30.8761C96.111 31.6854 95.4699 32.4934 94.83 33.3033C94.4002 33.8468 93.9713 34.3917 93.5426 34.9364L93.5421 34.937L93.3102 35.2316L93.1771 35.4009L93.1771 35.401C93.0642 35.5445 92.9108 35.7396 92.6218 35.7402H92.6182ZM89.356 30.3104C89.4525 30.4298 89.5482 30.5503 89.6424 30.6689L89.7296 30.7786L89.8603 30.943C90.4033 31.6271 90.9457 32.3118 91.488 32.9965C91.5934 33.1293 91.6984 33.2624 91.8036 33.3956L91.9807 33.6198L92.0434 33.6992C92.2347 33.9414 92.4256 34.1831 92.6175 34.4248L92.6905 34.332C93.1306 33.7728 93.5702 33.2141 94.0115 32.656C94.633 31.87 95.2551 31.0853 95.8779 30.3006C95.8427 30.0101 95.8086 29.7199 95.7744 29.4295L95.7429 29.1619L95.6822 28.6453L95.6813 28.6377L95.6812 28.6371C95.5926 27.8809 95.5039 27.1247 95.4171 26.3691C95.3699 25.9604 95.3239 25.5524 95.2778 25.1438C95.2463 24.8624 95.2143 24.5815 95.1823 24.3002L95.1717 24.2076C95.1459 23.9798 95.1195 23.752 95.0932 23.5242L95.0539 23.1842L95.0537 23.1823L95.0535 23.1805C95.0015 22.7314 94.9495 22.2823 94.8987 21.8332C94.8465 21.3724 94.795 20.911 94.7441 20.4497L94.7341 20.3604L94.7341 20.3604C94.6712 19.7962 94.6082 19.2315 94.5441 18.6673C94.4821 18.1262 94.4189 17.585 94.3557 17.0439L94.3135 16.682L94.3134 16.6817C94.2618 16.2394 94.2101 15.7973 94.16 15.3548C94.1017 14.8419 94.0446 14.329 93.9882 13.8161C93.9348 13.3308 93.8808 12.8455 93.8256 12.3608C93.771 11.8822 93.7158 11.4031 93.66 10.9245C93.598 10.3901 93.536 9.8551 93.4753 9.32009C93.1777 9.25997 92.9065 9.23297 92.6537 9.23788H92.6433H92.6329C92.3513 9.23236 92.0617 9.25935 91.7537 9.32132C91.6794 9.99867 91.6113 10.6091 91.5463 11.1803C91.4804 11.7566 91.414 12.3324 91.3476 12.9087L91.3279 13.0792L91.1316 14.78L91.0856 15.1785C91.0241 15.7114 90.9626 16.2442 90.9027 16.777C90.8549 17.1991 90.8082 17.6219 90.7616 18.0446C90.699 18.6121 90.6358 19.1802 90.5708 19.7472C90.5064 20.3067 90.4401 20.8662 90.3738 21.4258L90.3426 21.6889L90.3425 21.6899C90.2835 22.1874 90.2245 22.6852 90.1677 23.183C90.1068 23.7142 90.0475 24.2455 89.9882 24.7768L89.9882 24.777L89.9438 25.1745L89.9001 25.5667C89.8565 25.9587 89.8129 26.3507 89.7683 26.7427C89.6278 27.9722 89.4897 29.1717 89.356 30.3104ZM83.5585 37.8266C86.2636 38.7886 89.6847 39.361 92.7235 39.361H92.7849C97.9821 39.3481 103.877 37.6603 105.924 35.5988C106.47 35.0491 106.745 34.4797 106.743 33.9067C106.738 32.8864 105.615 31.8403 103.309 30.7077L103.289 30.6973C102.449 30.2844 101.389 29.9445 100.665 29.7248C100.219 29.5892 99.7645 29.4628 99.3147 29.3487C99.0356 29.2775 98.7515 29.4469 98.681 29.726C98.6098 30.0052 98.7791 30.2893 99.0583 30.3598C99.4927 30.4703 99.9313 30.5923 100.362 30.723L100.365 30.7239C100.765 30.8456 101.97 31.2117 102.828 31.6335L102.85 31.644C105.559 32.9741 105.699 33.7656 105.7 33.911C105.702 34.2674 105.421 34.6257 105.184 34.8632C103.337 36.7234 97.6576 38.3051 92.7824 38.3174H92.7241C89.7982 38.3174 86.5078 37.7677 83.9088 36.8437C81.4246 35.9602 79.8767 34.8337 79.8675 33.9036C79.8619 33.3263 80.5147 32.109 84.9432 30.4445C85.3519 30.3359 85.7672 30.2353 86.1783 30.1451C86.4599 30.0831 86.6378 29.8052 86.5765 29.5236C86.5145 29.242 86.2366 29.064 85.955 29.1254C85.5206 29.2205 85.0813 29.3272 84.6494 29.4426L84.6009 29.4579C80.6442 30.9421 78.8085 32.3575 78.8238 33.9134C78.8422 35.8602 81.7983 37.2008 83.5585 37.8266Z" fill="#EDB200"/>
<path d="M19.3779 37.5976V31.0218L16.4565 36.1088H15.9941L13.0728 31.0218V37.5976H12.2832V29.5894H13.0953L16.2197 35.0711L19.3666 29.5894H20.1674V37.5976H19.3779Z" fill="#ECB000"/>
<path d="M26.1693 37.7104C25.7407 37.7104 25.3459 37.6315 24.985 37.4736C24.6316 37.3081 24.3233 37.0863 24.0601 36.8081C23.7969 36.5223 23.5901 36.1952 23.4397 35.8268C23.2968 35.4583 23.2254 35.0636 23.2254 34.6425C23.2254 34.2289 23.2968 33.8416 23.4397 33.4807C23.5901 33.1122 23.7931 32.7927 24.0488 32.522C24.312 32.2437 24.624 32.0257 24.985 31.8678C25.3459 31.7023 25.7369 31.6196 26.158 31.6196C26.5866 31.6196 26.9776 31.7023 27.3311 31.8678C27.692 32.0257 28.0003 32.2437 28.256 32.522C28.5116 32.8002 28.7109 33.1198 28.8538 33.4807C28.9966 33.8416 29.0681 34.2251 29.0681 34.6312C29.0681 34.6913 29.0681 34.7515 29.0681 34.8117C29.0681 34.8718 29.0643 34.9132 29.0568 34.9357H24.0262C24.0488 35.2515 24.1202 35.5448 24.2405 35.8155C24.3684 36.0787 24.53 36.308 24.7255 36.5035C24.9211 36.699 25.1429 36.8532 25.391 36.966C25.6467 37.0713 25.9174 37.1239 26.2031 37.1239C26.3911 37.1239 26.5791 37.0976 26.7671 37.0449C26.9551 36.9923 27.128 36.9209 27.2859 36.8306C27.4438 36.7404 27.5867 36.6314 27.7145 36.5035C27.8424 36.3682 27.9401 36.2216 28.0078 36.0636L28.6733 36.2441C28.583 36.4622 28.4552 36.6614 28.2898 36.8419C28.1244 37.0149 27.9326 37.169 27.7145 37.3044C27.4965 37.4322 27.2559 37.53 26.9927 37.5976C26.7295 37.6728 26.455 37.7104 26.1693 37.7104ZM28.3349 34.3492C28.3123 34.0334 28.2372 33.7476 28.1093 33.492C27.989 33.2288 27.8311 33.0032 27.6356 32.8152C27.4476 32.6272 27.2258 32.4806 26.9701 32.3753C26.722 32.2701 26.455 32.2174 26.1693 32.2174C25.8835 32.2174 25.6128 32.2701 25.3572 32.3753C25.1015 32.4806 24.8759 32.6272 24.6804 32.8152C24.4924 33.0032 24.3383 33.2288 24.218 33.492C24.1052 33.7552 24.0375 34.0409 24.015 34.3492H28.3349Z" fill="#ECB000"/>
<path d="M34.4811 37.7104C34.0525 37.7104 33.6577 37.6315 33.2968 37.4736C32.9434 37.3081 32.6351 37.0863 32.3719 36.8081C32.1087 36.5223 31.9019 36.1952 31.7516 35.8268C31.6087 35.4583 31.5372 35.0636 31.5372 34.6425C31.5372 34.2289 31.6087 33.8416 31.7516 33.4807C31.9019 33.1122 32.105 32.7927 32.3606 32.522C32.6238 32.2437 32.9359 32.0257 33.2968 31.8678C33.6577 31.7023 34.0488 31.6196 34.4699 31.6196C34.8985 31.6196 35.2895 31.7023 35.6429 31.8678C36.0038 32.0257 36.3121 32.2437 36.5678 32.522C36.8235 32.8002 37.0227 33.1198 37.1656 33.4807C37.3085 33.8416 37.3799 34.2251 37.3799 34.6312C37.3799 34.6913 37.3799 34.7515 37.3799 34.8117C37.3799 34.8718 37.3761 34.9132 37.3686 34.9357H32.3381C32.3606 35.2515 32.4321 35.5448 32.5524 35.8155C32.6802 36.0787 32.8419 36.308 33.0374 36.5035C33.2329 36.699 33.4547 36.8532 33.7029 36.966C33.9585 37.0713 34.2292 37.1239 34.515 37.1239C34.703 37.1239 34.8909 37.0976 35.0789 37.0449C35.2669 36.9923 35.4399 36.9209 35.5978 36.8306C35.7557 36.7404 35.8986 36.6314 36.0264 36.5035C36.1542 36.3682 36.252 36.2216 36.3197 36.0636L36.9851 36.2441C36.8949 36.4622 36.7671 36.6614 36.6016 36.8419C36.4362 37.0149 36.2445 37.169 36.0264 37.3044C35.8083 37.4322 35.5677 37.53 35.3045 37.5976C35.0413 37.6728 34.7669 37.7104 34.4811 37.7104ZM36.6467 34.3492C36.6242 34.0334 36.549 33.7476 36.4212 33.492C36.3008 33.2288 36.1429 33.0032 35.9474 32.8152C35.7594 32.6272 35.5376 32.4806 35.282 32.3753C35.0338 32.2701 34.7669 32.2174 34.4811 32.2174C34.1954 32.2174 33.9247 32.2701 33.669 32.3753C33.4134 32.4806 33.1878 32.6272 32.9923 32.8152C32.8043 33.0032 32.6501 33.2288 32.5298 33.492C32.417 33.7552 32.3494 34.0409 32.3268 34.3492H36.6467Z" fill="#ECB000"/>
<path d="M43.0309 37.3156C42.9858 37.3382 42.9181 37.3683 42.8279 37.4059C42.7452 37.4435 42.6474 37.4811 42.5346 37.5187C42.4218 37.5563 42.294 37.5901 42.1511 37.6202C42.0082 37.6503 41.8579 37.6653 41.6999 37.6653C41.5345 37.6653 41.3766 37.6427 41.2262 37.5976C41.0758 37.5525 40.9442 37.4848 40.8314 37.3946C40.7186 37.2968 40.6284 37.1765 40.5607 37.0337C40.4931 36.8908 40.4592 36.7254 40.4592 36.5374V32.3302H39.6471V31.7211H40.4592V29.736H41.2262V31.7211H42.5797V32.3302H41.2262V36.3231C41.2413 36.5411 41.3164 36.7028 41.4518 36.8081C41.5947 36.9058 41.7563 36.9547 41.9368 36.9547C42.1549 36.9547 42.3466 36.9209 42.5121 36.8532C42.6775 36.778 42.7828 36.7254 42.8279 36.6953L43.0309 37.3156Z" fill="#ECB000"/>
<path d="M47.5196 37.7104C46.8804 37.7104 46.403 37.4999 46.0871 37.0788C45.7788 36.6502 45.6247 36.0148 45.6247 35.1726V31.7211H46.3917V35.0372C46.3917 36.3682 46.8466 37.0337 47.7565 37.0337C47.9821 37.0337 48.2039 36.9961 48.4219 36.9209C48.64 36.8457 48.8393 36.7366 49.0197 36.5938C49.2077 36.4509 49.3732 36.2817 49.516 36.0862C49.6664 35.8907 49.7867 35.6689 49.877 35.4207V31.7211H50.644V36.6051C50.644 36.8156 50.7342 36.9209 50.9147 36.9209V37.5976C50.8244 37.6127 50.7492 37.6202 50.6891 37.6202C50.6364 37.6202 50.5988 37.6202 50.5763 37.6202C50.3958 37.6127 50.2492 37.5488 50.1364 37.4284C50.0236 37.3081 49.9672 37.1465 49.9672 36.9434V36.2667C49.7115 36.7254 49.3619 37.0825 48.9182 37.3382C48.4821 37.5863 48.0159 37.7104 47.5196 37.7104Z" fill="#ECB000"/>
<path d="M57.0703 37.7104C56.574 37.7104 56.1341 37.5863 55.7506 37.3382C55.3747 37.0825 55.0701 36.763 54.837 36.3795V40.0001H54.07V31.7211H54.7581V32.8603C54.9987 32.4919 55.3107 32.1949 55.6942 31.9693C56.0777 31.7362 56.4951 31.6196 56.9462 31.6196C57.3523 31.6196 57.7245 31.7061 58.0629 31.879C58.4013 32.0445 58.6945 32.2701 58.9427 32.5558C59.1908 32.834 59.3826 33.1574 59.5179 33.5258C59.6608 33.8943 59.7322 34.274 59.7322 34.665C59.7322 35.0786 59.6683 35.4696 59.5405 35.8381C59.4126 36.2065 59.2284 36.5299 58.9878 36.8081C58.7547 37.0863 58.4727 37.3081 58.1418 37.4736C57.8185 37.6315 57.4613 37.7104 57.0703 37.7104ZM56.856 37.0337C57.1718 37.0337 57.4576 36.966 57.7132 36.8306C57.9764 36.6953 58.1982 36.5186 58.3787 36.3005C58.5667 36.0749 58.7096 35.823 58.8073 35.5448C58.9051 35.2591 58.9539 34.9658 58.9539 34.665C58.9539 34.3492 58.8975 34.0484 58.7848 33.7627C58.672 33.4769 58.5178 33.225 58.3223 33.007C58.1268 32.7889 57.8937 32.616 57.623 32.4881C57.3598 32.3603 57.0741 32.2964 56.7658 32.2964C56.5703 32.2964 56.3635 32.3377 56.1454 32.4204C55.9349 32.4956 55.7356 32.6009 55.5476 32.7363C55.3671 32.8641 55.2092 33.0182 55.0739 33.1987C54.946 33.3717 54.8671 33.5559 54.837 33.7514V35.5561C54.9272 35.7666 55.04 35.9621 55.1754 36.1426C55.3183 36.3231 55.4762 36.481 55.6491 36.6163C55.8296 36.7442 56.0213 36.8457 56.2244 36.9209C56.4274 36.9961 56.6379 37.0337 56.856 37.0337Z" fill="#ECB000"/>
</svg>
