<svg width="344" height="113" fill="none" xmlns="http://www.w3.org/2000/svg"><path d="M24.657 2.52c0-1.326.661-2.034 2.029-2.034 1.323 0 2.029.663 2.029 2.034v74.538a25.97 25.97 0 0 1-2.074 10.256c-1.367 3.228-3.264 6.057-5.645 8.444-2.382 2.388-5.205 4.289-8.513 5.747a26.03 26.03 0 0 1-10.454 2.167c-.485 0-.97-.177-1.367-.575-.397-.398-.618-.884-.618-1.459 0-1.326.662-2.034 2.03-2.034 3.263 0 6.307-.574 9.041-1.768 2.78-1.194 5.161-2.785 7.19-4.775 2.029-2.033 3.573-4.376 4.72-7.117 1.146-2.741 1.72-5.703 1.72-8.886V2.52h-.088zm10.718 47.79c0-4.2.794-8.178 2.382-11.936a31.085 31.085 0 0 1 6.528-9.77c2.778-2.785 5.998-4.952 9.703-6.543 3.706-1.592 7.631-2.388 11.821-2.388 4.19 0 8.116.796 11.821 2.388a31.314 31.314 0 0 1 9.704 6.543c2.78 2.785 4.984 6.012 6.617 9.77 1.632 3.758 2.47 7.692 2.47 11.937 0 4.2-.794 8.134-2.382 11.848a31.396 31.396 0 0 1-6.528 9.726c-2.78 2.785-5.999 4.951-9.748 6.543-3.75 1.592-7.675 2.387-11.91 2.387-4.19 0-8.115-.795-11.82-2.387a31.314 31.314 0 0 1-9.704-6.543c-2.78-2.785-4.94-6.013-6.528-9.726-1.632-3.67-2.426-7.648-2.426-11.848zm4.014 0c0 3.626.705 7.03 2.073 10.257 1.367 3.228 3.264 6.057 5.645 8.444 2.382 2.388 5.205 4.289 8.425 5.66a25.98 25.98 0 0 0 10.233 2.077c3.617 0 7.013-.707 10.233-2.078 3.22-1.37 6.043-3.271 8.425-5.659 2.382-2.387 4.279-5.216 5.734-8.444 1.412-3.227 2.117-6.675 2.117-10.256 0-3.626-.705-7.03-2.117-10.257a27.48 27.48 0 0 0-5.734-8.444c-2.382-2.387-5.205-4.288-8.425-5.747-3.22-1.415-6.66-2.122-10.233-2.122-3.617 0-7.013.707-10.233 2.122a27.41 27.41 0 0 0-8.424 5.747c-2.382 2.387-4.279 5.217-5.646 8.444a25.984 25.984 0 0 0-2.073 10.257zm61.663-47.79c0-1.326.662-2.034 2.029-2.034 1.323 0 2.029.663 2.029 2.034v33.025c2.69-4.642 6.351-8.444 10.939-11.407 4.631-2.962 9.792-4.465 15.482-4.465 4.19 0 8.16.796 11.909 2.388a31.009 31.009 0 0 1 9.748 6.543c2.779 2.785 4.94 6.012 6.528 9.726 1.588 3.713 2.382 7.648 2.382 11.848 0 4.2-.838 8.179-2.47 11.937-1.632 3.758-3.838 6.985-6.617 9.77-2.778 2.785-5.998 4.951-9.703 6.543-3.705 1.592-7.631 2.387-11.821 2.387-5.69 0-10.895-1.414-15.527-4.244-4.675-2.83-8.292-6.543-10.894-11.14v13.35c0 1.327-.662 2.034-2.029 2.034-1.323 0-2.029-.663-2.029-2.033V2.52h.044zm4.014 48.675c.088 3.537.838 6.852 2.338 9.903a28.694 28.694 0 0 0 5.778 8.134 26.462 26.462 0 0 0 8.292 5.527 25.495 25.495 0 0 0 10.013 2.033c3.616 0 7.013-.707 10.233-2.122a27.396 27.396 0 0 0 8.424-5.747c2.382-2.387 4.279-5.217 5.734-8.444 1.412-3.227 2.118-6.676 2.118-10.257 0-3.625-.706-7.03-2.118-10.256a27.47 27.47 0 0 0-5.734-8.445c-2.381-2.387-5.204-4.288-8.424-5.658a25.983 25.983 0 0 0-10.233-2.078c-3.617 0-7.014.707-10.234 2.078-3.219 1.37-6.042 3.271-8.424 5.659-2.382 2.387-4.279 5.216-5.646 8.444a26.15 26.15 0 0 0-2.073 10.256v.973h-.044zm65.809-49.161c0-1.327.662-2.034 2.029-2.034h40.403c1.324 0 2.029.663 2.029 2.034 0 1.326-.661 2.033-2.029 2.033h-38.374v33.511h24.789c1.323 0 2.029.663 2.029 2.034 0 1.326-.662 2.033-2.029 2.033h-24.789v37.18c0 1.327-.661 2.034-2.029 2.034-1.323 0-2.029-.663-2.029-2.033V2.034zm39.124 48.276c0-4.2.794-8.178 2.382-11.936a31.082 31.082 0 0 1 6.528-9.77c2.779-2.785 5.999-4.952 9.704-6.543 3.705-1.592 7.631-2.388 11.821-2.388 4.102 0 8.028.796 11.777 2.388 3.749 1.591 6.969 3.758 9.748 6.498 2.779 2.741 4.984 5.969 6.616 9.638 1.632 3.714 2.47 7.648 2.47 11.848v28.737c0 1.326-.662 2.033-2.029 2.033-1.323 0-2.029-.663-2.029-2.033V64.9c-2.691 4.642-6.352 8.444-11.027 11.406-4.675 3.006-9.836 4.465-15.526 4.465-4.19 0-8.116-.796-11.821-2.387a31.318 31.318 0 0 1-9.704-6.543c-2.779-2.785-4.94-6.013-6.528-9.726-1.588-3.626-2.382-7.604-2.382-11.804zm4.014 0c0 3.626.706 7.03 2.073 10.257 1.368 3.228 3.264 6.057 5.646 8.444 2.382 2.388 5.205 4.289 8.425 5.66a25.98 25.98 0 0 0 10.233 2.077c3.617 0 7.013-.707 10.233-2.078 3.22-1.37 6.043-3.271 8.425-5.659 2.381-2.387 4.278-5.216 5.734-8.444 1.411-3.227 2.117-6.675 2.117-10.256 0-3.626-.706-7.03-2.117-10.257a27.503 27.503 0 0 0-5.734-8.444c-2.382-2.387-5.205-4.288-8.425-5.747-3.22-1.415-6.66-2.122-10.233-2.122-3.617 0-7.013.707-10.233 2.122a27.412 27.412 0 0 0-8.425 5.747c-2.382 2.387-4.278 5.217-5.646 8.444a25.99 25.99 0 0 0-2.073 10.257zm98.406-28.603c0-.398.176-.84.485-1.326.353-.442.838-.708 1.499-.708.486 0 .971.177 1.368.575.397.398.617.884.617 1.459v13.75c3.176-5.218 6.793-9.152 10.807-11.805 4.014-2.652 8.954-3.979 14.732-3.979.662 0 1.191.221 1.5.708.353.442.485.884.485 1.326 0 .442-.177.884-.485 1.326-.353.442-.838.708-1.5.708-3.529 0-6.837.707-9.88 2.078a25.592 25.592 0 0 0-7.984 5.614 28.637 28.637 0 0 0-5.469 8.135 25.01 25.01 0 0 0-2.206 9.637V78.96c0 .574-.22 1.06-.617 1.37a2.08 2.08 0 0 1-1.368.486c-1.323 0-2.028-.663-2.028-2.033V21.707h.044z" fill="#E9E9E7"/><path d="M305.802 95.89c-.176-1.326-.309-2.696-.485-4.022l-.176-1.636c-.265-2.387-.574-4.775-.839-7.206-.132-1.282-.308-2.564-.441-3.89-.132-.973-.22-1.99-.352-2.963a78.53 78.53 0 0 1-.353-3.227c-.177-1.415-.309-2.83-.486-4.244-.176-1.46-.308-2.918-.485-4.377-.22-1.901-.441-3.758-.617-5.659a206.995 206.995 0 0 0-.618-5.172c-.22-1.769-.397-3.537-.617-5.306-.177-1.635-.353-3.227-.53-4.863l-.529-4.642c-.176-1.503-.353-3.05-.529-4.553-.221-1.901-.441-3.846-.662-5.748-.132-1.016-.75-1.724-1.676-1.989-1.5-.354-2.823-.53-4.102-.53-1.411-.045-2.823.132-4.323.53-.97.221-1.543.928-1.676 1.945-.264 2.476-.529 4.598-.75 6.588-.22 1.989-.441 3.978-.705 6.012l-.618 5.438c-.22 2.078-.485 4.156-.705 6.233-.133 1.327-.309 2.653-.442 3.98-.22 1.812-.397 3.58-.617 5.393-.221 1.768-.397 3.537-.618 5.305l-.661 5.57c-.221 2.123-.485 4.2-.706 6.323-.176 1.635-.353 3.271-.529 4.951-.441 3.979-.882 7.87-1.323 11.539a2.45 2.45 0 0 0 .485 1.9c.485.575.926 1.194 1.411 1.77l.265.353c1.764 2.21 3.528 4.421 5.249 6.675.529.664 1.014 1.283 1.543 1.946.971 1.238 1.941 2.431 2.912 3.669.308.398.794 1.017 1.72 1.017.926 0 1.411-.619 1.764-1.061l.574-.707a537.464 537.464 0 0 1 4.675-5.925l6.087-7.692v-.044c.132-.177.573-.796.485-1.68zm-4.852-84.661c-1.411-2.166-2.999-3.846-4.852-5.084-2.955-1.945-5.425-1.326-7.013-.442-2.117 1.193-3.925 2.918-5.646 5.526l-.441.619.397 1.459c.133.53.309 1.06.441 1.591l.794 2.653c.485 1.592.927 3.183 1.412 4.73.353 1.194 1.323 1.769 2.47 1.46 2.426-.62 4.852-.62 7.234 0 .22.044.397.088.617.088.882 0 1.632-.575 1.897-1.547.353-1.238.705-2.476 1.058-3.67l.044-.088c.397-1.415.838-2.83 1.235-4.245l.706-2.387-.353-.663z" fill="#EAB020"/></svg>