<svg width="22" height="22" fill="none" xmlns="http://www.w3.org/2000/svg"><path fill-rule="evenodd" clip-rule="evenodd" d="M21.995 12.647a695.44 695.44 0 0 1-.004-2.143c0-.713.002-1.427.005-2.14.005-1.632.01-3.264-.012-4.895-.03-2.255-1.253-3.432-3.613-3.445-4.915-.027-9.83-.027-14.744 0C1.267.037.034 1.217.02 3.472a1201.39 1201.39 0 0 0 0 14.073c.013 2.252 1.25 3.43 3.61 3.44 4.914.025 9.829.025 14.744 0 2.36-.01 3.582-1.194 3.61-3.446.02-1.63.016-3.26.01-4.892Zm-16.75-2.28c.075-3.01 2.76-5.475 5.903-5.423 3.15.053 5.736 2.613 5.678 5.622-.055 3-2.772 5.51-5.884 5.435-3.15-.075-5.773-2.671-5.698-5.635ZM17.44 2.543c1.069-.02 1.862.692 1.9 1.702.037.977-.739 1.82-1.735 1.888-1.034.072-2.026-.82-2.026-1.813 0-.954.841-1.757 1.861-1.777Zm-6.323 12.21c2.46-.035 4.4-1.947 4.386-4.317-.01-2.38-1.957-4.229-4.454-4.229-2.48-.003-4.472 1.862-4.5 4.21-.027 2.39 2.065 4.376 4.568 4.337Z" fill="#fff"/></svg>