<svg width="23" height="21" fill="none" xmlns="http://www.w3.org/2000/svg"><path d="M17.657 13.483c.216-1.16.426-2.271.663-3.546h-3.76V7.433h3.66V3.677c-2.008.144-4.075-.475-5.956.691-2.07 1.285-1.652 3.412-1.806 5.418-.78.056-1.497.105-2.328.16v3.52c.728.053 1.442.102 2.4.171v7.313c-2.397 0-4.67.098-6.928-.033-1.56-.088-2.696-1.353-2.713-2.913a629.163 629.163 0 0 1 .007-15.06C.916 1.27 2.228.062 4 .043A750.753 750.753 0 0 1 19.607.038c1.93.02 3.19 1.278 3.207 3.15.044 4.857.044 9.714.003 14.571-.017 1.963-1.287 3.153-3.327 3.215-1.596.05-3.192.01-4.933.01v-7.361c.982-.043 1.977-.088 3.1-.141Z" fill="#fff"/></svg>