<svg width="30" height="22" fill="none" xmlns="http://www.w3.org/2000/svg"><path d="M16.035 21.358c-3.522-.076-6.005-.1-8.484-.192a37.956 37.956 0 0 1-3.963-.34c-1.506-.214-2.475-1.12-2.957-2.56-.338-1.012-.479-2.058-.514-3.108-.073-2.226-.14-4.454-.11-6.68.02-1.572.093-3.153.507-4.692C.9 2.35 1.708 1.282 3.2.877 3.805.714 4.448.651 5.078.616 9.596.359 14.119.315 18.643.39c2.08.035 4.16.123 6.237.228.706.035 1.43.117 2.101.319 1.386.416 2.168 1.45 2.485 2.805.204.871.373 1.767.408 2.658.09 2.262.14 4.53.122 6.794-.011 1.506-.082 3.02-.458 4.495-.229.9-.57 1.744-1.324 2.367-.746.617-1.617.9-2.56.939-3.552.147-7.105.27-9.62.362Zm-4.12-15.015v8.349l8.097-4.16-8.097-4.189Z" fill="#fff"/></svg>