<svg width="388" height="411" viewBox="0 0 388 411" fill="none" xmlns="http://www.w3.org/2000/svg">
<path d="M336.59 340.771L339.04 335.337C343.337 325.45 338.797 313.9 328.909 309.603C319.022 305.306 307.473 309.846 303.185 319.714L300.687 325.246C295.534 323.855 290.012 326.402 287.815 331.438L273.786 363.686C271.375 369.227 273.913 375.673 279.454 378.084L312.927 392.647C318.468 395.058 324.914 392.521 327.325 386.979L341.353 354.732C343.638 349.492 341.499 343.464 336.59 340.771ZM308.639 369.295L299.88 365.484L303.992 359.758C302.884 358.154 302.602 356.044 303.438 354.129C304.721 351.183 308.153 349.832 311.099 351.115C314.045 352.399 315.396 355.831 314.113 358.776C313.306 360.623 311.663 361.839 309.825 362.179C309.378 364.891 308.639 369.295 308.639 369.295ZM332.75 339.041L304.614 326.801L307.045 321.415C310.418 313.657 319.479 310.089 327.237 313.463C334.995 316.836 338.563 325.897 335.199 333.626L332.75 339.041Z" fill="#EBEBEB"/>
<path d="M136.884 122.204L131.274 112.433L122.486 113.726L115.233 104.607L118.976 95.5269L109.177 89.023L101.866 96.4019L92.2314 94.7103L88.3232 83.3843L76.6084 84.619L75.9473 94.5256L67.2268 98.9587L57.991 92.4256L48.6288 99.2504L53.4995 109.74L47.9288 118.14L37.7986 117.605L35.1543 130.098L44.7887 133.802L45.615 144.302L35.6209 150.037L40.3944 160.868L50.7385 159.264L57.5924 167.167L54.005 177.025L63.4741 183.714L70.8627 175.713L81.1193 178.484L84.3081 189.071L95.7021 188.303L97.1701 178.795L106.941 173.185L114.932 179.563L125.043 172.028L119.929 163.123L124.907 154.198L135.153 154.957L138.294 143.329L129.495 138.566L128.329 127.979L136.884 122.204ZM97.1799 156.405C86.1455 162.744 72.0683 158.933 65.7296 147.899C59.3909 136.864 63.2019 122.787 74.2362 116.448C85.2706 110.11 99.3478 113.921 105.686 124.955C112.025 135.989 108.214 150.067 97.1799 156.405Z" fill="#E0E0E0"/>
<path d="M64.2523 25.9086C64.2523 17.5672 55.4832 12.2785 46.5391 16.4589C44.5169 17.4019 42.8448 19.006 41.8337 20.9699C39.5879 25.3253 40.5796 30.3029 42.6212 34.4347L49.582 52.0701C50.5834 54.6076 54.1902 54.5978 55.1721 52.0507L61.9969 34.3277C64.3496 28.9224 64.2523 25.9086 64.2523 25.9086ZM55.8526 33.1708C49.8445 36.661 43.7489 30.2056 47.0446 23.8281C47.4821 22.9823 48.1529 22.2726 48.9501 21.8059C54.9582 18.3061 61.0538 24.7711 57.7581 31.1487C57.3206 31.9945 56.6498 32.7042 55.8526 33.1708Z" fill="#EBEBEB"/>
<path d="M57.931 375.031C57.8629 374.992 58.699 373.991 59.5351 371.862C59.9726 370.802 60.3128 369.432 60.4489 367.818C60.5753 366.204 60.4489 364.337 59.8462 362.393C59.2337 360.458 58.1837 358.436 56.5116 356.725C54.8491 355.033 52.6617 353.556 50.0563 352.865C48.773 352.486 47.3925 352.311 45.9925 352.34C44.5926 352.35 43.1634 352.574 41.7829 353.04C39.0025 353.906 36.4456 355.763 34.6179 358.251C32.8388 360.779 31.8861 363.783 31.9444 366.7C31.9444 368.158 32.1777 369.587 32.6152 370.919C33.0332 372.251 33.636 373.505 34.404 374.604C35.8818 376.849 37.9817 378.453 40.1108 379.503C42.269 380.544 44.5245 380.903 46.5467 380.874C48.5785 380.835 50.3965 380.359 51.884 379.727C53.3714 379.085 54.5672 378.327 55.4324 377.578C57.1824 376.091 57.8629 374.983 57.931 375.031C57.9407 375.041 57.8921 375.099 57.8046 375.226C57.6976 375.372 57.5615 375.556 57.3963 375.78C57.2213 376.023 56.9879 376.324 56.6671 376.635C56.3657 376.956 56.0158 377.345 55.5588 377.705C54.7033 378.483 53.5075 379.28 52.0006 379.96C50.4937 380.631 48.6466 381.137 46.5564 381.205C44.4856 381.263 42.1524 380.913 39.9261 379.863C37.7192 378.803 35.5512 377.16 34.0152 374.847C33.218 373.719 32.586 372.426 32.1486 371.045C31.6916 369.675 31.4389 368.197 31.4389 366.69C31.3708 363.676 32.3527 360.546 34.1999 357.94C36.0956 355.364 38.74 353.439 41.6274 352.554C43.0565 352.078 44.5342 351.845 45.9828 351.845C47.4313 351.825 48.8507 352.01 50.1729 352.409C52.8561 353.138 55.1019 354.674 56.8032 356.433C58.5143 358.212 59.574 360.303 60.1767 362.296C60.7795 364.298 60.8864 366.214 60.7211 367.847C60.5559 369.49 60.1767 370.88 59.7101 371.94C59.5156 372.484 59.2531 372.931 59.049 373.33C58.8545 373.729 58.6407 374.049 58.4657 374.292C58.3101 374.516 58.174 374.71 58.0671 374.856C57.9796 374.973 57.931 375.041 57.931 375.031Z" fill="#E0E0E0"/>
<path d="M59.5849 406.044C59.4585 406.093 57.2225 400.415 54.6073 393.357C51.9921 386.299 49.97 380.544 50.1061 380.495C50.2325 380.446 52.4685 386.124 55.0837 393.182C57.6989 400.24 59.721 405.995 59.5849 406.044Z" fill="#E0E0E0"/>
<path d="M342.376 40.0157C342.386 44.0211 339.139 47.2779 335.124 47.2877C331.118 47.2974 327.861 44.0503 327.852 40.0351C327.842 36.0297 331.089 32.7729 335.104 32.7632C339.11 32.7632 342.366 36.0103 342.376 40.0157Z" fill="#EBEBEB"/>
<path d="M362.687 25.4718C362.696 29.4772 359.449 32.734 355.434 32.7437C351.429 32.7534 348.172 29.5063 348.162 25.4912C348.152 21.4858 351.4 18.229 355.415 18.2192C359.43 18.2192 362.687 21.4663 362.687 25.4718Z" fill="#EBEBEB"/>
<path d="M362.734 56.2419C362.743 60.607 359.496 64.1458 355.491 64.1458C351.485 64.1555 348.228 60.6167 348.219 56.2613C348.209 51.8962 351.456 48.3574 355.462 48.3574C359.467 48.3477 362.724 51.8768 362.734 56.2419Z" fill="#EBEBEB"/>
<path d="M353.334 55.3178C353.023 55.7747 348.191 53.0331 342.552 49.193C336.904 45.3528 332.578 41.8724 332.889 41.4155C333.2 40.9585 338.022 43.7001 343.67 47.5403C349.319 51.3804 353.645 54.8608 353.334 55.3178Z" fill="#EBEBEB"/>
<path d="M353.908 24.9759C354.248 25.4134 350.515 28.8647 345.586 32.6853C340.647 36.506 336.37 39.2573 336.039 38.8199C335.699 38.3824 339.432 34.9311 344.361 31.1007C349.3 27.2897 353.577 24.5384 353.908 24.9759Z" fill="#EBEBEB"/>
<path d="M340.167 98.0574L260.178 105.643L265.29 159.559L345.28 151.974L340.167 98.0574Z" fill="white"/>
<path d="M345.292 151.962C345.292 151.962 345.234 151.612 345.165 150.961C345.097 150.281 344.991 149.328 344.864 148.103C344.602 145.575 344.232 141.91 343.756 137.244C342.832 127.862 341.5 114.436 339.886 98.0741L340.207 98.3463C318.129 100.466 290.344 103.12 260.235 106.007C260.157 106.095 260.867 105.239 260.566 105.609V105.618V105.647L260.575 105.706L260.585 105.822L260.605 106.046L260.644 106.493L260.731 107.388L260.906 109.176C261.023 110.372 261.13 111.558 261.246 112.744C261.47 115.117 261.693 117.469 261.917 119.803C262.355 124.479 262.792 129.077 263.22 133.588C264.066 142.61 264.882 151.292 265.65 159.507L265.281 159.196C288.798 157.037 308.747 155.2 322.864 153.907C329.912 153.275 335.492 152.779 339.352 152.439C341.248 152.274 342.725 152.147 343.756 152.06C344.242 152.021 344.611 151.992 344.903 151.972C345.146 151.962 345.282 151.962 345.292 151.962C345.302 151.972 345.175 151.992 344.932 152.021C344.66 152.05 344.291 152.089 343.834 152.147C342.823 152.254 341.374 152.4 339.507 152.594C335.667 152.983 330.116 153.537 323.107 154.237C308.952 155.618 288.924 157.582 265.339 159.886L264.999 159.915L264.97 159.575C264.182 151.36 263.356 142.688 262.491 133.666C262.063 129.155 261.625 124.556 261.178 119.88C260.955 117.547 260.731 115.185 260.507 112.822C260.391 111.636 260.284 110.45 260.167 109.254L259.992 107.465L259.905 106.571L259.866 106.124L259.846 105.9L259.837 105.784L259.827 105.725V105.696V105.686C259.526 106.046 260.235 105.181 260.167 105.268C290.276 102.439 318.071 99.8338 340.159 97.7533L340.46 97.7241L340.489 98.0255C341.986 114.475 343.211 127.979 344.067 137.409C344.475 142.056 344.796 145.702 345.02 148.22C345.117 149.425 345.195 150.358 345.253 151.029C345.282 151.651 345.292 151.962 345.292 151.962Z" fill="#8F9296"/>
<path d="M340.179 98.0548C340.199 98.0742 339.985 98.3464 339.557 98.852C339.081 99.4061 338.458 100.135 337.671 101.049C335.96 102.994 333.559 105.716 330.613 109.06C324.547 115.846 316.225 125.15 306.95 135.523L306.736 135.756L306.474 135.581C305.803 135.153 305.074 134.687 304.344 134.22C292.143 126.394 281.109 119.317 273.03 114.135C269.093 111.568 265.885 109.478 263.59 107.981C262.531 107.271 261.685 106.707 261.043 106.27C260.47 105.871 260.168 105.657 260.178 105.628C260.188 105.609 260.518 105.784 261.121 106.143C261.782 106.542 262.657 107.077 263.746 107.728C266.079 109.177 269.326 111.199 273.312 113.688C281.411 118.821 292.493 125.83 304.743 133.588C305.472 134.055 306.201 134.512 306.872 134.949L306.396 135.017C315.738 124.702 324.119 115.457 330.234 108.71C333.248 105.434 335.697 102.77 337.457 100.855C338.283 99.9797 338.945 99.2797 339.44 98.7548C339.907 98.2784 340.16 98.0353 340.179 98.0548Z" fill="#8F9296"/>
<path d="M28.7848 208.631C28.7848 208.631 35.629 203.926 44.369 220.346C53.1089 236.766 56.4727 246.265 56.4727 246.265C56.4727 246.265 58.7671 249.697 61.1101 247.383C63.453 245.069 66.6126 238.575 70.6861 239.664C74.9151 240.791 76.3831 245.458 75.7026 252.37C75.0221 259.282 74.0887 274.468 74.011 275.848C73.9332 277.2 74.7401 279.173 76.5873 277.851C78.4344 276.529 88.9924 264.347 94.4755 269.704C99.9587 275.061 94.9033 293.999 94.388 296.08C93.8728 298.16 94.2908 299.035 95.2922 299.531C96.2838 300.027 99.4531 295.594 102.593 292.249C105.743 288.905 109.972 285.58 112.879 288.934C115.786 292.288 116.943 306.414 103.896 329.61L97.149 339.964L84.7439 339.498C58.2518 336.873 47.3536 327.822 46.2745 323.524C45.1953 319.218 50.3479 317.662 54.8881 317.001C59.4282 316.34 64.8724 316.291 65.0377 315.193C65.203 314.094 64.7266 313.248 62.7239 312.471C60.7212 311.693 42.3177 304.975 41.0733 297.412C39.8289 289.848 55.87 288.185 58.0088 287.427C60.1476 286.669 59.0004 284.88 57.8532 284.17C56.6866 283.451 43.6982 275.498 37.6512 272.086C31.6042 268.683 28.6195 264.804 30.1167 260.692C31.5653 256.735 38.6914 257.873 41.9288 257.28C45.1662 256.687 43.669 252.837 43.669 252.837C43.669 252.837 37.8164 244.631 29.3779 228.046C20.9393 211.47 28.9306 208.524 28.9306 208.524" fill="#ECB000"/>
<path d="M36.6301 223.331C36.6399 223.331 36.6982 223.428 36.8051 223.622C36.9218 223.846 37.0773 224.128 37.2815 224.497C37.6995 225.294 38.2926 226.432 39.0606 227.89C40.6064 230.865 42.8132 235.133 45.5451 240.392C51.0768 250.95 58.6891 265.485 67.0985 281.545C75.5468 297.606 83.1299 312.179 88.5352 322.776C91.2087 328.064 93.3767 332.352 94.8836 335.346C95.6127 336.814 96.1766 337.971 96.5752 338.778C96.7599 339.157 96.896 339.449 97.003 339.672C97.1002 339.876 97.1391 339.983 97.1391 339.983C97.1294 339.983 97.071 339.886 96.9641 339.692C96.8474 339.468 96.6919 339.186 96.4877 338.817C96.0697 338.02 95.4766 336.882 94.7086 335.424C93.1628 332.449 90.956 328.181 88.2241 322.921C82.7507 312.363 75.119 297.82 66.661 281.759C58.2127 265.708 50.6296 251.135 45.2243 240.538C42.5508 235.25 40.3828 230.962 38.8759 227.968C38.1468 226.5 37.5829 225.343 37.1746 224.536C36.9898 224.157 36.8537 223.865 36.7468 223.642C36.669 223.437 36.6204 223.331 36.6301 223.331Z" fill="#080014"/>
<path d="M66.6409 248.938C66.709 248.958 66.4368 250.192 65.9895 252.195C65.5229 254.324 64.9299 257.027 64.2688 260.021C63.598 263.084 62.9758 265.845 62.4605 267.838C62.198 268.829 61.9744 269.636 61.7994 270.181C61.6244 270.725 61.5078 271.026 61.4786 271.017C61.4106 270.997 61.7022 269.762 62.13 267.76C62.5869 265.631 63.1605 262.918 63.7924 259.914C64.4632 256.852 65.1243 254.091 65.6493 252.108C65.9215 251.116 66.1451 250.319 66.3201 249.765C66.4951 249.23 66.6118 248.928 66.6409 248.938Z" fill="#080014"/>
<path d="M60.3532 271.269C60.3143 271.396 54.6367 269.986 47.6564 268.11C40.6761 266.233 35.0569 264.62 35.0861 264.483C35.1249 264.357 40.8025 265.767 47.7828 267.643C54.7534 269.519 60.3824 271.133 60.3532 271.269Z" fill="#080014"/>
<path d="M76.5875 298.89C76.5875 298.919 76.2667 298.967 75.6834 299.035C75.1001 299.094 74.2543 299.162 73.2043 299.23C71.1141 299.346 68.2073 299.444 65.0088 299.376C61.8006 299.317 58.9132 299.113 56.823 298.899C55.7827 298.802 54.9369 298.695 54.3536 298.608C53.7703 298.52 53.4495 298.462 53.4592 298.433C53.4689 298.365 54.7619 298.442 56.8521 298.559C58.9423 298.676 61.8297 298.831 65.0185 298.89C68.2073 298.958 71.1044 298.919 73.1946 298.89C75.2848 298.851 76.5875 298.821 76.5875 298.89Z" fill="#080014"/>
<path d="M86.7274 279.951C86.7858 279.98 86.2608 281.059 85.3664 282.78C84.4719 284.501 83.1984 286.853 81.7693 289.439C80.3402 292.025 79.0277 294.359 78.0555 296.031C77.0833 297.703 76.4514 298.724 76.3931 298.695C76.3347 298.665 76.8597 297.586 77.7541 295.866C78.6486 294.145 79.9221 291.792 81.3512 289.206C82.7803 286.62 84.0928 284.287 85.065 282.615C86.0372 280.942 86.6691 279.922 86.7274 279.951Z" fill="#080014"/>
<path d="M104.159 302.525C104.189 302.545 104.023 302.895 103.712 303.507C103.343 304.207 102.876 305.082 102.332 306.103C101.146 308.281 99.4929 311.285 97.6263 314.58C95.7694 317.876 94.0584 320.851 92.7945 322.99C92.2015 323.981 91.696 324.827 91.2877 325.508C90.9182 326.101 90.7043 326.412 90.6752 326.402C90.646 326.383 90.8113 326.033 91.1224 325.42C91.4918 324.72 91.9585 323.845 92.5029 322.825C93.689 320.647 95.3417 317.643 97.2083 314.347C99.0652 311.051 100.776 308.076 102.03 305.938C102.623 304.936 103.129 304.1 103.537 303.42C103.916 302.827 104.13 302.506 104.159 302.525Z" fill="#080014"/>
<path d="M90.8407 325.742C90.8407 325.771 90.4323 325.81 89.6838 325.849C88.9449 325.887 87.8658 325.917 86.5339 325.936C83.8701 325.975 80.1952 325.946 76.1412 325.751C72.0872 325.567 68.422 325.246 65.7777 324.954C64.4555 324.808 63.3861 324.672 62.6472 324.565C61.9084 324.458 61.5098 324.381 61.5098 324.351C61.5098 324.322 61.9278 324.332 62.6667 324.381C63.5027 324.439 64.5527 324.517 65.8068 324.614C68.4512 324.818 72.1163 325.081 76.1606 325.265C80.2049 325.46 83.8798 325.537 86.5339 325.586C87.788 325.615 88.838 325.635 89.6838 325.644C90.4323 325.683 90.8407 325.712 90.8407 325.742Z" fill="#080014"/>
<path d="M297.227 288.924C289.722 288.924 283.111 287.281 276.694 283.918L276.597 283.85C262.889 271.338 258.077 250.611 262.666 223.924C262.782 223.243 262.88 222.553 262.977 221.863C263.385 219.014 263.803 216.069 265.563 213.706C267.731 210.78 272.232 209.04 275.47 211.12C277.569 212.472 278.464 214.854 279.329 217.148C279.533 217.692 279.737 218.237 279.961 218.762C281.41 222.232 283.908 225.334 286.99 227.482C288.419 228.484 291.19 230.02 293.688 229.067C296.712 227.92 297.587 223.973 298.024 220.657L300.552 201.291C300.999 197.831 301.466 194.243 303.06 191.006C304.868 187.331 307.931 184.862 311.256 184.424C313.258 184.152 315.426 184.793 317.05 186.116C318.44 187.243 319.257 188.75 319.373 190.354C319.442 191.288 319.276 192.192 319.121 193.067C319.014 193.64 318.917 194.195 318.887 194.749C318.81 195.925 319.121 197.481 320.287 197.996C321.201 198.404 322.407 198.064 323.875 196.985C327.909 194.039 330.884 190.004 333.84 185.775L334.52 184.803C337.184 180.982 339.935 177.035 343.484 173.895C347.907 169.987 352.943 168.052 357.668 168.432C363.268 168.888 368.109 173.137 368.702 178.105C369.218 182.363 366.991 186.786 361.926 191.638C356.424 196.897 350.202 201.33 343.416 204.811C342.239 205.414 341.034 206.036 340.509 207.115C339.974 208.213 340.363 209.302 340.781 210.012C341.335 210.965 342.278 211.83 343.318 212.336C344.903 213.104 346.624 213.415 348.452 213.745C349.385 213.91 350.357 214.085 351.29 214.329C352.953 214.756 356.919 216.137 357.814 219.666C358.98 224.235 353.974 227.891 351.767 229.252C345.117 233.354 337.865 236.261 330.223 237.894L329.241 238.099C326.908 238.585 324.497 239.08 322.533 240.354C320.492 241.676 318.78 244.398 319.646 246.838C320.521 249.327 323.554 250.329 325.975 250.231C327.744 250.154 329.426 249.668 331.205 249.143C332.109 248.88 333.042 248.608 333.976 248.394C338.944 247.286 345.545 248.316 348.277 253.216C349.89 256.113 349.842 259.953 348.15 263.511C346.585 266.797 343.941 269.384 341.549 271.493C332.09 279.835 321.114 285.405 309.797 287.622C305.286 288.477 301.135 288.924 297.227 288.924Z" fill="#ECB000"/>
<path d="M278.232 291.938C280.128 283.791 279.652 281.273 284.221 271.201C288.771 261.11 294.692 250.465 301.264 239.537C302.916 236.815 304.55 234.122 306.163 231.468C307.777 228.824 309.372 226.199 311.102 223.729C314.534 218.771 318.209 214.27 321.845 210.099C325.471 205.929 329.078 202.098 332.461 198.54C335.864 194.992 339.091 191.745 342.163 188.906C348.298 183.209 353.781 179.194 357.66 176.598C359.595 175.285 361.141 174.323 362.191 173.681C362.706 173.37 363.095 173.137 363.386 172.962C363.659 172.806 363.804 172.729 363.804 172.729C363.804 172.729 363.678 172.826 363.415 173.001C363.134 173.185 362.745 173.438 362.249 173.769C361.218 174.44 359.702 175.431 357.787 176.763C353.946 179.417 348.512 183.461 342.426 189.178C339.373 192.026 336.165 195.283 332.782 198.841C329.408 202.409 325.821 206.24 322.214 210.42C318.598 214.591 314.942 219.092 311.53 224.021C309.819 226.481 308.234 229.086 306.611 231.74C304.997 234.394 303.363 237.087 301.711 239.809C295.139 250.727 289.228 261.353 284.659 271.406C280.08 281.448 280.537 283.918 278.592 292.035" fill="#080014"/>
<path d="M311.226 223.681C311.187 223.681 311.148 223.137 311.11 222.155C311.061 221.173 311.041 219.753 311.032 217.994C311.022 214.484 311.158 209.623 311.323 204.276C311.489 198.919 311.547 194.078 311.46 190.578C311.421 188.828 311.372 187.409 311.323 186.427C311.285 185.445 311.275 184.9 311.314 184.9C311.353 184.9 311.421 185.435 311.528 186.417C311.644 187.389 311.741 188.818 311.829 190.568C312.014 194.078 312.014 198.939 311.848 204.296C311.673 209.604 311.518 214.397 311.401 218.003C311.362 219.685 311.333 221.075 311.304 222.155C311.294 223.137 311.265 223.681 311.226 223.681Z" fill="#080014"/>
<path d="M357.446 221.561C357.446 221.581 357.281 221.581 356.97 221.571C356.6 221.552 356.153 221.532 355.619 221.503C354.452 221.435 352.751 221.338 350.66 221.289C346.47 221.153 340.676 221.163 334.289 221.474C327.902 221.785 322.127 222.32 317.966 222.835C315.885 223.078 314.203 223.321 313.047 223.477C312.512 223.545 312.074 223.613 311.705 223.661C311.394 223.7 311.238 223.71 311.229 223.691C311.229 223.671 311.384 223.632 311.685 223.554C312.045 223.477 312.483 223.389 313.008 223.272C314.165 223.049 315.837 222.748 317.917 222.456C322.078 221.853 327.853 221.25 334.26 220.939C340.666 220.638 346.48 220.677 350.67 220.91C352.77 221.007 354.462 221.163 355.628 221.299C356.163 221.367 356.6 221.416 356.97 221.464C357.291 221.513 357.456 221.542 357.446 221.561Z" fill="#080014"/>
<path d="M284.83 270.433C284.811 270.443 284.733 270.239 284.607 269.85C284.471 269.403 284.286 268.829 284.062 268.129C283.596 266.632 282.983 264.454 282.244 261.761C280.776 256.366 278.978 248.841 277.101 240.529C275.225 232.207 273.485 224.682 272.114 219.267C271.433 216.613 270.87 214.435 270.461 212.86C270.277 212.151 270.131 211.567 270.014 211.12C269.917 210.721 269.878 210.508 269.897 210.498C269.917 210.488 269.995 210.692 270.121 211.091C270.257 211.538 270.442 212.102 270.665 212.812C271.132 214.309 271.745 216.487 272.483 219.18C273.951 224.575 275.75 232.1 277.626 240.422C279.503 248.744 281.243 256.259 282.614 261.684C283.294 264.338 283.858 266.515 284.266 268.09C284.451 268.8 284.597 269.383 284.714 269.83C284.801 270.21 284.85 270.424 284.83 270.433Z" fill="#080014"/>
<path d="M347.344 259.603C347.344 259.622 347.13 259.671 346.712 259.749C346.245 259.836 345.633 259.943 344.894 260.07C343.241 260.351 340.976 260.74 338.195 261.217C332.537 262.199 324.75 263.647 316.136 265.261C307.523 266.885 299.716 268.275 294.039 269.159C291.2 269.607 288.905 269.937 287.311 270.141C286.563 270.239 285.95 270.307 285.474 270.365C285.056 270.414 284.832 270.423 284.832 270.404C284.832 270.384 285.046 270.336 285.464 270.258C285.931 270.171 286.533 270.064 287.282 269.937C288.925 269.655 291.2 269.266 293.98 268.79C299.638 267.808 307.426 266.36 316.039 264.746C324.643 263.122 332.459 261.732 338.127 260.847C340.966 260.4 343.26 260.069 344.855 259.865C345.603 259.768 346.216 259.7 346.692 259.642C347.12 259.603 347.334 259.583 347.344 259.603Z" fill="#080014"/>
<path d="M253.45 410.175L117.004 409.543C100.593 409.466 87.3521 396.108 87.4202 379.697L88.859 37.6137C88.9271 21.1935 102.295 7.94259 118.715 8.02036L255.161 8.65228C271.572 8.73006 284.813 22.0879 284.745 38.4984L283.297 380.582C283.238 397.002 269.871 410.253 253.45 410.175Z" fill="#080014"/>
<path d="M254.976 20.4549L228.523 20.3285C224.975 20.309 222.087 23.3034 222.068 27.0171L222.048 31.8197C222.039 35.5335 219.141 38.5181 215.593 38.5084L164.028 38.2653C160.48 38.2459 157.621 35.2321 157.631 31.5184L157.651 26.7158C157.67 23.0117 154.802 19.9882 151.254 19.9688L141.95 19.9299L118.792 19.8229C107.291 19.7743 97.9292 29.049 97.8806 40.55L96.4709 374.448C96.4223 385.939 105.697 395.301 117.188 395.35L253.362 395.982C264.863 396.03 274.226 386.756 274.274 375.255L275.684 41.3569C275.742 29.8656 266.468 20.5035 254.976 20.4549Z" fill="#EBEBEB"/>
<path d="M180.186 369.236C180.176 370.831 178.912 372.114 177.366 372.114C175.811 372.104 174.566 370.811 174.566 369.207C174.576 367.613 175.84 366.32 177.386 366.33C178.941 366.339 180.195 367.642 180.186 369.236Z" fill="#8F9296"/>
<path d="M188.897 369.276C188.887 370.87 187.623 372.153 186.077 372.153C184.522 372.143 183.277 370.851 183.277 369.256C183.287 367.662 184.551 366.378 186.097 366.378C187.652 366.378 188.906 367.681 188.897 369.276Z" fill="#8F9296"/>
<path d="M197.598 369.315C197.588 370.909 196.324 372.202 194.778 372.192C193.223 372.183 191.979 370.89 191.979 369.295C191.988 367.701 193.252 366.417 194.798 366.417C196.353 366.417 197.607 367.72 197.598 369.315Z" fill="#8F9296"/>
<path d="M266.195 184.559C265.66 184.54 265.233 184.044 265.242 183.441C265.252 182.839 265.69 182.343 266.224 182.343C266.759 182.343 267.187 182.839 267.177 183.461C267.158 184.083 266.72 184.579 266.195 184.559Z" fill="#E0E0E0"/>
<path d="M265.662 191.929C265.137 191.861 264.758 191.326 264.816 190.723C264.875 190.12 265.361 189.673 265.896 189.722C266.43 189.77 266.809 190.305 266.741 190.927C266.673 191.54 266.187 191.987 265.662 191.929Z" fill="#E0E0E0"/>
<path d="M264.464 199.211C263.939 199.104 263.618 198.53 263.735 197.937C263.852 197.344 264.367 196.946 264.892 197.033C265.417 197.13 265.747 197.694 265.621 198.307C265.504 198.919 264.979 199.327 264.464 199.211Z" fill="#E0E0E0"/>
<path d="M262.61 206.357C262.104 206.201 261.822 205.598 261.997 205.025C262.172 204.441 262.727 204.091 263.232 204.237C263.747 204.383 264.02 204.976 263.845 205.569C263.67 206.162 263.115 206.522 262.61 206.357Z" fill="#E0E0E0"/>
<path d="M260.1 213.307C259.604 213.103 259.39 212.481 259.614 211.917C259.837 211.353 260.421 211.052 260.917 211.246C261.412 211.431 261.636 212.053 261.403 212.636C261.179 213.21 260.596 213.511 260.1 213.307Z" fill="#E0E0E0"/>
<path d="M256.97 219.996C256.503 219.743 256.338 219.111 256.61 218.567C256.882 218.032 257.495 217.78 257.971 218.013C258.447 218.246 258.613 218.888 258.331 219.442C258.049 219.996 257.446 220.239 256.97 219.996Z" fill="#E0E0E0"/>
<path d="M253.246 226.364C252.799 226.072 252.702 225.421 253.023 224.915C253.344 224.4 253.975 224.215 254.432 224.487C254.889 224.76 254.986 225.411 254.656 225.936C254.325 226.471 253.693 226.655 253.246 226.364Z" fill="#E0E0E0"/>
<path d="M248.96 232.372C248.542 232.041 248.503 231.39 248.862 230.904C249.232 230.427 249.874 230.291 250.301 230.612C250.729 230.933 250.768 231.584 250.399 232.08C250.019 232.576 249.378 232.702 248.96 232.372Z" fill="#E0E0E0"/>
<path d="M244.137 237.972C243.748 237.602 243.768 236.951 244.176 236.504C244.585 236.056 245.236 235.988 245.634 236.338C246.033 236.688 246.014 237.349 245.596 237.806C245.178 238.263 244.526 238.331 244.137 237.972Z" fill="#E0E0E0"/>
<path d="M238.839 243.105C238.489 242.706 238.567 242.055 239.004 241.646C239.451 241.238 240.112 241.228 240.472 241.617C240.842 242.006 240.764 242.657 240.297 243.075C239.85 243.493 239.189 243.503 238.839 243.105Z" fill="#E0E0E0"/>
<path d="M233.103 247.742C232.792 247.314 232.928 246.672 233.404 246.303C233.88 245.943 234.541 245.982 234.872 246.4C235.203 246.818 235.066 247.46 234.571 247.839C234.065 248.208 233.414 248.169 233.103 247.742Z" fill="#E0E0E0"/>
<path d="M226.959 251.835C226.687 251.378 226.881 250.746 227.387 250.435C227.902 250.115 228.544 250.221 228.836 250.669C229.127 251.116 228.933 251.748 228.408 252.069C227.883 252.399 227.231 252.292 226.959 251.835Z" fill="#E0E0E0"/>
<path d="M220.474 255.354C220.24 254.878 220.493 254.266 221.028 253.993C221.563 253.721 222.204 253.886 222.447 254.363C222.69 254.839 222.447 255.442 221.893 255.724C221.349 255.996 220.707 255.831 220.474 255.354Z" fill="#E0E0E0"/>
<path d="M213.697 258.271C213.512 257.776 213.814 257.192 214.377 256.969C214.941 256.745 215.554 256.969 215.758 257.464C215.962 257.96 215.661 258.544 215.077 258.767C214.504 258.991 213.882 258.767 213.697 258.271Z" fill="#E0E0E0"/>
<path d="M206.678 260.546C206.542 260.031 206.892 259.477 207.475 259.311C208.058 259.146 208.651 259.418 208.807 259.934C208.962 260.439 208.612 260.993 208.01 261.168C207.417 261.343 206.814 261.061 206.678 260.546Z" fill="#E0E0E0"/>
<path d="M199.475 262.179C199.378 261.654 199.786 261.139 200.379 261.022C200.972 260.906 201.536 261.236 201.653 261.761C201.76 262.286 201.361 262.802 200.749 262.918C200.136 263.035 199.572 262.704 199.475 262.179Z" fill="#E0E0E0"/>
<path d="M192.166 263.141C192.117 262.607 192.574 262.13 193.177 262.072C193.779 262.014 194.314 262.393 194.373 262.918C194.431 263.443 193.984 263.929 193.361 263.987C192.739 264.055 192.205 263.676 192.166 263.141Z" fill="#E0E0E0"/>
<path d="M184.783 263.443C184.783 262.908 185.279 262.481 185.882 262.471C186.485 262.461 186.98 262.889 187 263.424C187.01 263.958 186.524 264.396 185.901 264.406C185.279 264.406 184.774 263.978 184.783 263.443Z" fill="#E0E0E0"/>
<path d="M177.406 263.083C177.454 262.548 177.989 262.16 178.592 262.208C179.195 262.257 179.652 262.723 179.622 263.258C179.584 263.793 179.059 264.182 178.436 264.133C177.814 264.085 177.357 263.608 177.406 263.083Z" fill="#E0E0E0"/>
<path d="M170.094 262.053C170.192 261.528 170.755 261.188 171.348 261.295C171.942 261.401 172.36 261.907 172.272 262.432C172.194 262.957 171.63 263.297 171.018 263.19C170.405 263.083 169.997 262.578 170.094 262.053Z" fill="#E0E0E0"/>
<path d="M162.901 260.362C163.047 259.846 163.64 259.564 164.223 259.72C164.806 259.876 165.176 260.42 165.04 260.935C164.913 261.45 164.32 261.742 163.718 261.577C163.125 261.421 162.755 260.877 162.901 260.362Z" fill="#E0E0E0"/>
<path d="M155.903 258.018C156.097 257.522 156.71 257.289 157.273 257.503C157.837 257.717 158.158 258.29 157.973 258.796C157.798 259.301 157.186 259.535 156.603 259.311C156.029 259.097 155.708 258.514 155.903 258.018Z" fill="#E0E0E0"/>
<path d="M149.143 255.043C149.377 254.567 150.018 254.392 150.563 254.654C151.107 254.917 151.37 255.52 151.146 256.006C150.922 256.492 150.29 256.667 149.727 256.395C149.163 256.122 148.91 255.52 149.143 255.043Z" fill="#E0E0E0"/>
<path d="M142.689 251.465C142.971 251.009 143.613 250.892 144.138 251.203C144.653 251.514 144.857 252.136 144.595 252.603C144.332 253.07 143.681 253.186 143.146 252.865C142.611 252.545 142.407 251.922 142.689 251.465Z" fill="#E0E0E0"/>
<path d="M136.584 247.314C136.904 246.886 137.556 246.828 138.052 247.188C138.538 247.538 138.684 248.179 138.382 248.617C138.071 249.054 137.42 249.113 136.924 248.743C136.409 248.384 136.263 247.742 136.584 247.314Z" fill="#E0E0E0"/>
<path d="M130.879 242.638C131.239 242.239 131.89 242.249 132.347 242.638C132.804 243.037 132.891 243.688 132.541 244.096C132.201 244.505 131.54 244.505 131.073 244.096C130.616 243.678 130.519 243.027 130.879 242.638Z" fill="#E0E0E0"/>
<path d="M125.626 237.457C126.015 237.097 126.676 237.155 127.085 237.593C127.503 238.03 127.532 238.691 127.153 239.061C126.773 239.43 126.122 239.372 125.694 238.925C125.257 238.468 125.228 237.816 125.626 237.457Z" fill="#E0E0E0"/>
<path d="M120.854 231.818C121.281 231.497 121.923 231.614 122.302 232.09C122.681 232.566 122.642 233.218 122.234 233.558C121.826 233.898 121.174 233.772 120.786 233.286C120.406 232.8 120.436 232.139 120.854 231.818Z" fill="#E0E0E0"/>
<path d="M116.626 225.78C117.073 225.499 117.705 225.673 118.036 226.179C118.366 226.685 118.279 227.336 117.831 227.637C117.394 227.939 116.762 227.754 116.422 227.239C116.081 226.714 116.169 226.062 116.626 225.78Z" fill="#E0E0E0"/>
<path d="M112.951 219.373C113.427 219.13 114.04 219.364 114.322 219.898C114.604 220.433 114.458 221.075 113.991 221.328C113.525 221.58 112.912 221.347 112.62 220.803C112.329 220.258 112.484 219.617 112.951 219.373Z" fill="#E0E0E0"/>
<path d="M109.878 212.665C110.374 212.471 110.967 212.753 111.2 213.317C111.433 213.871 111.229 214.493 110.743 214.707C110.257 214.921 109.664 214.629 109.421 214.056C109.178 213.492 109.392 212.86 109.878 212.665Z" fill="#E0E0E0"/>
<path d="M107.437 205.705C107.953 205.549 108.507 205.899 108.692 206.473C108.876 207.047 108.614 207.649 108.108 207.815C107.603 207.98 107.039 207.64 106.854 207.047C106.669 206.454 106.932 205.851 107.437 205.705Z" fill="#E0E0E0"/>
<path d="M105.638 198.539C106.163 198.432 106.688 198.831 106.814 199.414C106.94 200.007 106.629 200.581 106.104 200.698C105.589 200.824 105.054 200.425 104.928 199.823C104.802 199.22 105.122 198.646 105.638 198.539Z" fill="#E0E0E0"/>
<path d="M104.512 191.248C105.047 191.19 105.533 191.628 105.601 192.23C105.679 192.833 105.31 193.377 104.775 193.446C104.25 193.523 103.754 193.076 103.686 192.464C103.608 191.851 103.978 191.307 104.512 191.248Z" fill="#E0E0E0"/>
<path d="M104.035 183.879C104.57 183.869 105.017 184.355 105.036 184.958C105.056 185.561 104.638 186.066 104.103 186.096C103.568 186.125 103.121 185.639 103.102 185.017C103.092 184.394 103.51 183.889 104.035 183.879Z" fill="#E0E0E0"/>
<path d="M104.229 176.5C104.764 176.539 105.163 177.064 105.133 177.657C105.095 178.259 104.638 178.726 104.103 178.707C103.568 178.687 103.17 178.162 103.199 177.55C103.238 176.928 103.704 176.461 104.229 176.5Z" fill="#E0E0E0"/>
<path d="M105.095 169.16C105.62 169.248 105.98 169.802 105.882 170.395C105.795 170.988 105.289 171.416 104.764 171.348C104.239 171.28 103.88 170.725 103.977 170.113C104.064 169.501 104.57 169.073 105.095 169.16Z" fill="#E0E0E0"/>
<path d="M106.611 161.937C107.127 162.073 107.428 162.656 107.282 163.24C107.136 163.823 106.602 164.202 106.086 164.085C105.571 163.969 105.27 163.385 105.416 162.783C105.561 162.18 106.096 161.801 106.611 161.937Z" fill="#E0E0E0"/>
<path d="M108.788 154.879C109.293 155.064 109.536 155.667 109.342 156.24C109.148 156.814 108.574 157.135 108.068 156.969C107.563 156.804 107.31 156.192 107.514 155.608C107.718 155.025 108.292 154.704 108.788 154.879Z" fill="#E0E0E0"/>
<path d="M111.609 148.054C112.095 148.278 112.28 148.91 112.037 149.464C111.794 150.018 111.191 150.29 110.705 150.076C110.219 149.862 110.024 149.24 110.277 148.667C110.53 148.103 111.123 147.831 111.609 148.054Z" fill="#E0E0E0"/>
<path d="M115.04 141.521C115.497 141.793 115.633 142.435 115.332 142.96C115.031 143.485 114.418 143.708 113.951 143.446C113.485 143.193 113.349 142.551 113.66 142.007C113.961 141.462 114.574 141.249 115.04 141.521Z" fill="#E0E0E0"/>
<path d="M119.044 135.318C119.482 135.63 119.55 136.281 119.21 136.777C118.869 137.273 118.228 137.438 117.79 137.136C117.343 136.845 117.275 136.184 117.625 135.678C117.975 135.163 118.607 135.007 119.044 135.318Z" fill="#E0E0E0"/>
<path d="M123.606 129.505C124.004 129.855 124.024 130.516 123.635 130.973C123.246 131.439 122.595 131.536 122.186 131.206C121.768 130.875 121.758 130.214 122.157 129.738C122.546 129.262 123.197 129.155 123.606 129.505Z" fill="#E0E0E0"/>
<path d="M128.66 124.128C129.029 124.508 128.981 125.169 128.553 125.596C128.125 126.024 127.474 126.063 127.085 125.694C126.706 125.324 126.745 124.663 127.192 124.226C127.639 123.788 128.291 123.749 128.66 124.128Z" fill="#E0E0E0"/>
<path d="M134.183 119.239C134.514 119.657 134.416 120.308 133.95 120.687C133.483 121.076 132.832 121.057 132.482 120.648C132.132 120.24 132.239 119.598 132.715 119.2C133.191 118.801 133.852 118.821 134.183 119.239Z" fill="#E0E0E0"/>
<path d="M140.133 114.864C140.425 115.311 140.269 115.943 139.764 116.283C139.268 116.623 138.617 116.545 138.306 116.118C137.994 115.68 138.16 115.048 138.675 114.698C139.18 114.348 139.832 114.416 140.133 114.864Z" fill="#E0E0E0"/>
<path d="M146.441 111.043C146.694 111.509 146.47 112.132 145.945 112.423C145.42 112.715 144.779 112.589 144.507 112.122C144.234 111.665 144.458 111.043 145.002 110.741C145.547 110.44 146.189 110.576 146.441 111.043Z" fill="#E0E0E0"/>
<path d="M153.083 107.825C153.297 108.311 153.015 108.914 152.47 109.157C151.916 109.4 151.294 109.215 151.07 108.729C150.847 108.243 151.119 107.65 151.683 107.397C152.247 107.144 152.879 107.329 153.083 107.825Z" fill="#E0E0E0"/>
<path d="M159.983 105.22C160.148 105.725 159.818 106.299 159.244 106.493C158.671 106.688 158.068 106.435 157.883 105.939C157.699 105.434 158.029 104.87 158.622 104.666C159.215 104.461 159.818 104.714 159.983 105.22Z" fill="#E0E0E0"/>
<path d="M167.102 103.256C167.219 103.781 166.839 104.315 166.256 104.451C165.673 104.597 165.09 104.286 164.953 103.771C164.817 103.256 165.197 102.721 165.799 102.575C166.402 102.429 166.985 102.74 167.102 103.256Z" fill="#E0E0E0"/>
<path d="M174.373 101.953C174.441 102.478 174.013 102.983 173.42 103.071C172.827 103.158 172.273 102.799 172.185 102.274C172.098 101.749 172.525 101.253 173.138 101.156C173.75 101.068 174.305 101.428 174.373 101.953Z" fill="#E0E0E0"/>
<path d="M181.723 101.321C181.742 101.855 181.276 102.312 180.673 102.342C180.07 102.371 179.555 101.972 179.516 101.437C179.477 100.903 179.953 100.446 180.566 100.417C181.188 100.378 181.703 100.786 181.723 101.321Z" fill="#E0E0E0"/>
<path d="M189.111 101.34C189.082 101.875 188.577 102.283 187.974 102.264C187.371 102.245 186.895 101.797 186.904 101.263C186.914 100.728 187.429 100.32 188.042 100.339C188.654 100.358 189.131 100.815 189.111 101.34Z" fill="#E0E0E0"/>
<path d="M196.46 102.031C196.382 102.556 195.838 102.925 195.245 102.847C194.642 102.77 194.205 102.284 194.263 101.749C194.321 101.224 194.866 100.854 195.478 100.932C196.1 101.02 196.538 101.506 196.46 102.031Z" fill="#E0E0E0"/>
<path d="M203.723 103.392C203.596 103.907 203.023 104.228 202.43 104.092C201.837 103.965 201.448 103.431 201.555 102.916C201.662 102.391 202.235 102.079 202.848 102.216C203.451 102.342 203.839 102.867 203.723 103.392Z" fill="#E0E0E0"/>
<path d="M210.821 105.404C210.656 105.91 210.043 106.172 209.47 105.987C208.896 105.803 208.556 105.239 208.712 104.733C208.867 104.228 209.47 103.965 210.063 104.15C210.656 104.335 210.996 104.899 210.821 105.404Z" fill="#E0E0E0"/>
<path d="M217.712 108.058C217.498 108.544 216.876 108.748 216.322 108.515C215.768 108.282 215.476 107.688 215.68 107.193C215.885 106.697 216.507 106.493 217.071 106.736C217.635 106.979 217.926 107.572 217.712 108.058Z" fill="#E0E0E0"/>
<path d="M224.324 111.334C224.061 111.801 223.42 111.947 222.895 111.665C222.36 111.383 222.127 110.761 222.37 110.294C222.613 109.818 223.254 109.672 223.799 109.964C224.353 110.255 224.586 110.868 224.324 111.334Z" fill="#E0E0E0"/>
<path d="M230.615 115.204C230.314 115.642 229.663 115.729 229.157 115.398C228.651 115.068 228.476 114.436 228.768 113.979C229.05 113.532 229.701 113.444 230.226 113.785C230.742 114.125 230.917 114.757 230.615 115.204Z" fill="#E0E0E0"/>
<path d="M236.523 119.617C236.183 120.026 235.532 120.055 235.055 119.685C234.589 119.306 234.462 118.665 234.793 118.237C235.114 117.819 235.775 117.79 236.261 118.169C236.747 118.558 236.863 119.209 236.523 119.617Z" fill="#E0E0E0"/>
<path d="M242.017 124.556C241.638 124.936 240.987 124.906 240.549 124.488C240.112 124.07 240.053 123.419 240.413 123.03C240.773 122.641 241.434 122.67 241.881 123.098C242.328 123.516 242.387 124.177 242.017 124.556Z" fill="#E0E0E0"/>
<path d="M247.033 129.961C246.624 130.302 245.973 130.214 245.574 129.757C245.176 129.3 245.176 128.649 245.574 128.289C245.973 127.93 246.624 128.027 247.033 128.493C247.441 128.96 247.441 129.621 247.033 129.961Z" fill="#E0E0E0"/>
<path d="M251.546 135.805C251.108 136.106 250.467 135.96 250.117 135.474C249.767 134.988 249.825 134.327 250.253 134.016C250.681 133.695 251.322 133.841 251.682 134.346C252.042 134.842 251.983 135.493 251.546 135.805Z" fill="#E0E0E0"/>
<path d="M255.503 142.027C255.037 142.289 254.414 142.085 254.113 141.57C253.802 141.055 253.928 140.403 254.375 140.121C254.832 139.84 255.455 140.053 255.766 140.578C256.087 141.113 255.97 141.764 255.503 142.027Z" fill="#E0E0E0"/>
<path d="M258.883 148.589C258.397 148.813 257.794 148.55 257.532 148.006C257.269 147.461 257.454 146.829 257.931 146.596C258.407 146.363 259.01 146.625 259.282 147.179C259.544 147.733 259.369 148.365 258.883 148.589Z" fill="#E0E0E0"/>
<path d="M261.646 155.433C261.141 155.608 260.567 155.297 260.363 154.723C260.159 154.159 260.392 153.547 260.888 153.352C261.384 153.158 261.957 153.479 262.171 154.062C262.385 154.636 262.152 155.258 261.646 155.433Z" fill="#E0E0E0"/>
<path d="M263.775 162.501C263.259 162.627 262.715 162.258 262.559 161.674C262.404 161.091 262.696 160.498 263.211 160.352C263.726 160.206 264.27 160.576 264.426 161.178C264.582 161.781 264.29 162.365 263.775 162.501Z" fill="#E0E0E0"/>
<path d="M265.244 169.734C264.719 169.811 264.204 169.393 264.106 168.8C264.009 168.207 264.349 167.643 264.874 167.546C265.399 167.449 265.905 167.867 266.012 168.48C266.119 169.092 265.769 169.646 265.244 169.734Z" fill="#E0E0E0"/>
<path d="M266.05 177.074C265.515 177.103 265.049 176.646 265 176.044C264.951 175.441 265.35 174.916 265.875 174.867C266.41 174.819 266.876 175.276 266.925 175.898C266.974 176.51 266.585 177.035 266.05 177.074Z" fill="#E0E0E0"/>
<path d="M264.395 52.9455C264.395 53.6358 263.831 54.1997 263.141 54.1997C262.451 54.1997 261.887 53.6358 261.887 52.9455C261.887 52.2553 262.451 51.6914 263.141 51.6914C263.831 51.6914 264.395 52.2553 264.395 52.9455Z" fill="#080014"/>
<path d="M264.395 57.4367C264.395 58.127 263.831 58.6909 263.141 58.6909C262.451 58.6909 261.887 58.127 261.887 57.4367C261.887 56.7465 262.451 56.1826 263.141 56.1826C263.831 56.1923 264.395 56.7465 264.395 57.4367Z" fill="#080014"/>
<path d="M264.395 61.9382C264.395 62.6285 263.831 63.1923 263.141 63.1923C262.451 63.1923 261.887 62.6285 261.887 61.9382C261.887 61.248 262.451 60.6841 263.141 60.6841C263.831 60.6841 264.395 61.248 264.395 61.9382Z" fill="#080014"/>
<path d="M115.738 50.709C115.738 50.6895 115.893 50.8159 116.185 51.059C116.525 51.3506 116.953 51.7201 117.478 52.1673C118.664 53.2075 120.287 54.6463 122.271 56.3963L122.329 56.4449V56.5324C122.339 58.6809 122.358 61.1794 122.378 63.921V64.1446H122.144C120.667 64.1446 119.111 64.1543 117.488 64.1641H117.245V63.921C117.245 62.5016 117.244 61.0142 117.235 59.4976L117.488 59.7503C116.933 59.7503 116.331 59.7503 115.728 59.7503C115.252 59.7503 114.775 59.7503 114.308 59.7503L114.561 59.4976C114.561 61.0142 114.561 62.4919 114.552 63.921V64.1641H114.308C112.568 64.1543 110.906 64.1543 109.311 64.1446H109.078V63.921C109.098 61.1794 109.107 58.7004 109.127 56.5324V56.4449L109.185 56.3963C111.168 54.6463 112.792 53.2172 113.978 52.1673C114.503 51.7103 114.931 51.3409 115.271 51.059C115.582 50.8159 115.738 50.6993 115.738 50.709C115.738 50.7284 115.582 50.884 115.29 51.1659C114.96 51.477 114.542 51.8853 114.027 52.3714C112.889 53.4311 111.334 54.8894 109.438 56.6685L109.496 56.5324C109.506 58.6906 109.525 61.1794 109.545 63.921L109.321 63.6974C110.906 63.6974 112.578 63.6877 114.318 63.678L114.075 63.921C114.075 62.4919 114.075 61.0045 114.065 59.4976V59.2448H114.318C114.785 59.2448 115.261 59.2448 115.738 59.2448C116.34 59.2448 116.933 59.2448 117.497 59.2448H117.75V59.4976C117.75 61.0142 117.75 62.5016 117.74 63.921L117.497 63.678C119.111 63.6877 120.676 63.6877 122.154 63.6877L121.93 63.9113C121.95 61.1697 121.96 58.6712 121.979 56.5227L122.037 56.6588C120.142 54.8797 118.586 53.4214 117.449 52.3617C116.933 51.8659 116.515 51.4673 116.185 51.1562C115.883 50.884 115.738 50.7284 115.738 50.709Z" fill="#080014"/>
<path d="M252.339 325.994C252.339 326.11 221.414 326.198 183.275 326.198C145.126 326.198 114.201 326.11 114.201 325.994C114.201 325.877 145.117 325.79 183.275 325.79C221.414 325.79 252.339 325.887 252.339 325.994Z" fill="#080014"/>
<path d="M252.339 339.799C252.339 339.915 221.414 340.003 183.275 340.003C145.126 340.003 114.201 339.915 114.201 339.799C114.201 339.682 145.117 339.594 183.275 339.594C221.414 339.585 252.339 339.682 252.339 339.799Z" fill="#080014"/>
<path d="M213.267 353.594C213.267 353.711 199.841 353.798 183.275 353.798C166.709 353.798 153.283 353.711 153.283 353.594C153.283 353.478 166.709 353.39 183.275 353.39C199.832 353.39 213.267 353.478 213.267 353.594Z" fill="#080014"/>
<path d="M175.782 303.312C175.782 303.973 175.646 304.537 175.374 305.014C175.101 305.49 174.722 305.879 174.236 306.18C173.76 306.482 173.196 306.705 172.554 306.851C171.913 306.997 171.242 307.065 170.522 307.065H163.338V292.434H171.825C172.331 292.434 172.797 292.541 173.206 292.764C173.614 292.988 173.964 293.27 174.256 293.62C174.547 293.97 174.771 294.368 174.926 294.815C175.082 295.263 175.16 295.72 175.16 296.186C175.16 296.877 174.985 297.528 174.635 298.15C174.285 298.772 173.76 299.249 173.06 299.56C173.896 299.813 174.557 300.24 175.043 300.843C175.529 301.456 175.782 302.282 175.782 303.312ZM167.353 295.856V298.101H170.095C170.367 298.101 170.62 298.024 170.843 297.878C171.067 297.722 171.183 297.421 171.183 296.974C171.183 296.575 171.086 296.293 170.892 296.118C170.697 295.943 170.474 295.856 170.211 295.856H167.353ZM171.699 302.486C171.699 302.126 171.601 301.835 171.407 301.592C171.213 301.349 170.97 301.232 170.668 301.232H167.353V303.682H170.522C170.853 303.682 171.135 303.575 171.358 303.371C171.582 303.167 171.699 302.875 171.699 302.486Z" fill="#ECB000"/>
<path d="M182.616 307.259C181.644 307.259 180.788 307.104 180.049 306.793C179.31 306.482 178.698 306.073 178.192 305.558C177.687 305.043 177.308 304.45 177.055 303.769C176.802 303.089 176.676 302.379 176.676 301.64C176.676 300.901 176.802 300.192 177.055 299.511C177.308 298.831 177.687 298.238 178.192 297.722C178.698 297.207 179.31 296.799 180.049 296.488C180.788 296.177 181.634 296.021 182.616 296.021C183.578 296.021 184.434 296.177 185.173 296.488C185.912 296.799 186.534 297.207 187.039 297.722C187.545 298.238 187.914 298.831 188.177 299.511C188.43 300.192 188.556 300.901 188.556 301.64C188.556 302.379 188.43 303.089 188.177 303.769C187.924 304.45 187.545 305.043 187.039 305.558C186.534 306.073 185.912 306.482 185.173 306.793C184.434 307.114 183.578 307.259 182.616 307.259ZM180.701 301.64C180.701 302.369 180.876 302.933 181.235 303.351C181.595 303.76 182.052 303.974 182.616 303.974C183.18 303.974 183.637 303.769 183.996 303.351C184.356 302.943 184.531 302.369 184.531 301.64C184.531 300.911 184.356 300.347 183.996 299.929C183.637 299.521 183.18 299.317 182.616 299.317C182.052 299.317 181.595 299.521 181.235 299.929C180.876 300.347 180.701 300.911 180.701 301.64Z" fill="#ECB000"/>
<path d="M197.081 307.055L194.631 303.099L193.853 303.964V307.055H189.936V292.016H193.853V300.231L196.741 296.215H200.863L197.139 300.95L201.242 307.046H197.081V307.055Z" fill="#ECB000"/>
<path d="M202.703 300.882V292.288H206.611V300.882H202.703ZM202.703 307.055V303.264H206.611V307.055H202.703Z" fill="#ECB000"/>
<path d="M236.725 235.07C265.89 205.904 265.89 158.618 236.725 129.453C207.559 100.287 160.273 100.287 131.107 129.453C101.942 158.618 101.942 205.904 131.107 235.07C160.273 264.235 207.559 264.235 236.725 235.07Z" fill="white"/>
<path d="M230.088 160.421C229.894 154.918 233.277 149.279 231.284 144.156C229.806 140.345 225.733 138.051 224.09 134.308C222.505 130.691 223.487 126.54 224.158 122.651C224.819 118.762 224.955 114.251 222.194 111.422C219.929 109.099 216.312 108.584 213.921 106.377C211.753 104.374 210.955 101.292 210.771 98.3464C210.586 95.4007 210.917 92.4355 210.547 89.5092C209.779 83.5108 205.871 78.0082 200.465 75.3153C195.06 72.6223 188.313 72.807 183.248 78.0179L201.409 147.004C211.597 148.822 221.066 153.693 230.088 160.421Z" fill="#080014"/>
<path d="M230.488 132.208C230.488 132.208 230.712 132.246 231.052 132.499C231.383 132.752 231.811 133.267 231.976 134.064C232.131 134.832 232.054 135.96 231.208 136.796C230.382 137.632 228.923 137.963 227.533 137.545C226.104 137.166 224.908 135.844 224.393 134.239C223.839 132.626 223.965 130.74 224.471 128.941C224.957 127.123 225.803 125.344 226.415 123.438C227.037 121.543 227.251 119.443 226.843 117.362C226.104 113.182 223.304 109.701 219.969 108.185C218.317 107.388 216.615 106.863 215.118 106.124C213.611 105.414 212.328 104.422 211.472 103.275C210.598 102.148 210.082 100.932 209.791 99.8435C209.499 98.7546 209.441 97.7727 209.48 96.9755C209.509 96.1783 209.645 95.5756 209.752 95.177C209.878 94.7784 209.946 94.5742 209.956 94.5742C210.014 94.5839 209.655 95.4103 209.635 96.9755C209.625 97.7533 209.703 98.7157 210.004 99.7754C210.306 100.835 210.831 102.002 211.696 103.091C212.542 104.189 213.767 105.122 215.254 105.813C216.732 106.522 218.424 107.038 220.125 107.845C223.567 109.4 226.473 112.987 227.232 117.294C227.65 119.433 227.426 121.63 226.775 123.565C226.153 125.509 225.307 127.269 224.821 129.048C224.315 130.808 224.189 132.606 224.704 134.142C225.18 135.678 226.289 136.903 227.611 137.273C228.914 137.681 230.265 137.38 231.043 136.631C231.83 135.882 231.937 134.823 231.811 134.094C231.684 133.335 231.295 132.83 230.994 132.567C230.683 132.295 230.469 132.237 230.488 132.208Z" fill="#080014"/>
<path d="M166.099 84.376C163.494 91.4535 162.327 97.2088 159.77 102.838C158.331 106.027 156.406 109.225 156.591 112.725C156.718 115.126 157.836 117.411 157.767 119.812C157.661 124.041 154.063 127.23 150.884 130.01C147.696 132.791 144.371 136.456 145.032 140.636C145.314 142.454 146.354 144.107 146.51 145.935C146.704 148.171 145.557 150.31 144.167 152.089C142.786 153.858 141.124 155.433 140.015 157.387L139.52 160.761L179.331 148.171" fill="#080014"/>
<path d="M263.512 145.935C262.511 139.266 263.464 132.519 263.201 129.039C262.715 122.564 262.122 122.583 261.374 122.749C259.361 123.196 261.801 134.162 259.906 132.072C258.01 129.982 258.486 118.354 256.406 118.908C253.693 119.628 256.464 131.07 256.62 132.052C256.775 133.005 255.356 133.268 255.258 132.373C255.113 131.09 253.285 117.615 250.611 118.296C249.134 118.675 250.125 121.271 250.125 121.271C250.125 121.271 252.77 133.773 251.496 134.055C250.203 134.337 248.405 127.046 247.967 124.547C247.539 122.078 246.188 121.251 245.245 122.321C244.603 123.05 245.75 130.73 246.237 133.19C246.723 135.649 248.181 142.387 244.749 139.577C241.327 136.767 237.652 135.863 236.505 136.301C235.358 136.738 235.591 138.498 236.913 138.858C237.983 139.149 239.626 140.18 240.831 140.996C241.823 141.677 242.61 142.591 243.417 143.466C244.282 144.409 247.442 148.259 248.2 152.128L263.512 145.935Z" fill="#FFBE9D"/>
<path d="M259.266 142.523C259.286 142.581 258.848 142.688 258.245 143.096C257.652 143.495 256.875 144.263 256.573 145.4L256.427 145.935L256.145 145.449C255.776 144.817 255.251 144.204 254.6 143.67C253.209 142.523 251.566 142.056 250.39 141.978C249.204 141.871 248.465 142.085 248.446 141.988C248.426 141.949 249.146 141.599 250.4 141.618C251.634 141.609 253.414 142.046 254.901 143.271C255.601 143.835 256.155 144.516 256.534 145.206L256.107 145.264C256.486 143.971 257.4 143.184 258.08 142.834C258.79 142.484 259.256 142.484 259.266 142.523Z" fill="#EB996E"/>
<path d="M264.027 144.642L247.092 151.321L252.021 189.295L248.453 183.85L241.745 175.13C223.798 144.224 200.806 149.114 200.806 149.114L170.542 146.752C170.542 146.752 151.38 147.092 140.336 159.624C137.497 162.841 121.067 195.701 114.271 209.39C118.462 220.142 125.082 229.689 133.443 237.35L150.709 201.671L153.635 214.183C155.599 220.978 155.628 228.182 153.713 234.987L149.066 248.355C159.459 253.838 171.3 256.949 183.87 256.949C197.403 256.949 210.1 253.352 221.047 247.052L216.594 236.475C213.629 229.388 212.851 221.571 214.358 214.037L217.596 197.869L235.678 215.067C237.788 217.43 239.859 219.355 241.822 220.91C250.193 227.56 256.726 227.735 256.726 227.735C285.396 226.588 264.027 144.642 264.027 144.642Z" fill="#171751"/>
<path d="M160.83 178.299C160.83 178.911 160.334 179.407 159.722 179.407C159.109 179.407 158.613 178.911 158.613 178.299C158.613 177.686 159.109 177.19 159.722 177.19C160.334 177.19 160.83 177.686 160.83 178.299Z" fill="#FAFAFA"/>
<path d="M152.83 189.877C152.83 190.49 152.334 190.986 151.722 190.986C151.109 190.986 150.613 190.49 150.613 189.877C150.613 189.265 151.109 188.769 151.722 188.769C152.334 188.759 152.83 189.255 152.83 189.877Z" fill="#FAFAFA"/>
<path d="M178.094 178.299C178.094 178.911 177.598 179.407 176.985 179.407C176.373 179.407 175.877 178.911 175.877 178.299C175.877 177.686 176.373 177.19 176.985 177.19C177.598 177.19 178.094 177.686 178.094 178.299Z" fill="#FAFAFA"/>
<path d="M152.517 155.112C152.517 155.725 152.022 156.22 151.409 156.22C150.797 156.22 150.301 155.725 150.301 155.112C150.301 154.5 150.797 154.004 151.409 154.004C152.022 154.004 152.517 154.5 152.517 155.112Z" fill="#FAFAFA"/>
<path d="M186.086 191.511C186.086 192.123 185.59 192.619 184.977 192.619C184.365 192.619 183.869 192.123 183.869 191.511C183.869 190.898 184.365 190.402 184.977 190.402C185.59 190.402 186.086 190.898 186.086 191.511Z" fill="#FAFAFA"/>
<path d="M199.775 186.835C199.775 187.447 199.279 187.943 198.667 187.943C198.054 187.943 197.559 187.447 197.559 186.835C197.559 186.222 198.054 185.727 198.667 185.727C199.279 185.727 199.775 186.222 199.775 186.835Z" fill="#FAFAFA"/>
<path d="M221.863 175.771C221.863 176.384 221.367 176.88 220.755 176.88C220.142 176.88 219.646 176.384 219.646 175.771C219.646 175.159 220.142 174.663 220.755 174.663C221.367 174.663 221.863 175.159 221.863 175.771Z" fill="#FAFAFA"/>
<path d="M242.336 193.99C242.336 194.603 241.84 195.098 241.227 195.098C240.615 195.098 240.119 194.603 240.119 193.99C240.119 193.378 240.615 192.882 241.227 192.882C241.84 192.882 242.336 193.378 242.336 193.99Z" fill="#FAFAFA"/>
<path d="M253.138 200.193C253.138 200.805 252.643 201.301 252.03 201.301C251.418 201.301 250.922 200.805 250.922 200.193C250.922 199.58 251.418 199.085 252.03 199.085C252.643 199.075 253.138 199.571 253.138 200.193Z" fill="#FAFAFA"/>
<path d="M256.22 215.855C256.22 216.467 255.725 216.963 255.112 216.963C254.5 216.963 254.004 216.467 254.004 215.855C254.004 215.242 254.5 214.746 255.112 214.746C255.725 214.737 256.22 215.232 256.22 215.855Z" fill="#FAFAFA"/>
<path d="M266.76 204.713C266.76 205.326 266.264 205.822 265.651 205.822C265.039 205.822 264.543 205.326 264.543 204.713C264.543 204.101 265.039 203.605 265.651 203.605C266.264 203.605 266.76 204.101 266.76 204.713Z" fill="#FAFAFA"/>
<path d="M259.652 189.877C259.652 190.49 259.156 190.986 258.544 190.986C257.931 190.986 257.436 190.49 257.436 189.877C257.436 189.265 257.931 188.769 258.544 188.769C259.156 188.759 259.652 189.255 259.652 189.877Z" fill="#FAFAFA"/>
<path d="M266.76 177.19C266.76 177.803 266.264 178.299 265.651 178.299C265.039 178.299 264.543 177.803 264.543 177.19C264.543 176.578 265.039 176.082 265.651 176.082C266.264 176.082 266.76 176.578 266.76 177.19Z" fill="#FAFAFA"/>
<path d="M257.904 166.099C257.904 166.711 257.408 167.207 256.796 167.207C256.183 167.207 255.688 166.711 255.688 166.099C255.688 165.486 256.183 164.99 256.796 164.99C257.408 164.99 257.904 165.486 257.904 166.099Z" fill="#FAFAFA"/>
<path d="M264.135 154.004C264.135 154.617 263.639 155.113 263.026 155.113C262.414 155.113 261.918 154.617 261.918 154.004C261.918 153.392 262.414 152.896 263.026 152.896C263.639 152.896 264.135 153.392 264.135 154.004Z" fill="#FAFAFA"/>
<path d="M239.808 210.206C239.808 210.818 239.313 211.314 238.7 211.314C238.088 211.314 237.592 210.818 237.592 210.206C237.592 209.593 238.088 209.098 238.7 209.098C239.313 209.098 239.808 209.593 239.808 210.206Z" fill="#FAFAFA"/>
<path d="M227.445 192.619C227.445 193.232 226.949 193.727 226.337 193.727C225.724 193.727 225.229 193.232 225.229 192.619C225.229 192.007 225.724 191.511 226.337 191.511C226.949 191.511 227.445 192.007 227.445 192.619Z" fill="#FAFAFA"/>
<path d="M242.336 180.895C242.336 181.507 241.84 182.003 241.227 182.003C240.615 182.003 240.119 181.507 240.119 180.895C240.119 180.282 240.615 179.787 241.227 179.787C241.84 179.787 242.336 180.282 242.336 180.895Z" fill="#FAFAFA"/>
<path d="M165.727 164.98C166.34 164.98 166.836 164.484 166.836 163.872C166.836 163.26 166.34 162.764 165.727 162.764C165.115 162.764 164.619 163.26 164.619 163.872C164.619 164.484 165.115 164.98 165.727 164.98Z" fill="#FAFAFA"/>
<path d="M136.924 188.76C136.924 189.372 136.428 189.868 135.815 189.868C135.203 189.868 134.707 189.372 134.707 188.76C134.707 188.147 135.203 187.651 135.815 187.651C136.428 187.651 136.924 188.147 136.924 188.76Z" fill="#FAFAFA"/>
<path d="M135.816 218.052C135.816 218.664 135.32 219.16 134.708 219.16C134.095 219.16 133.6 218.664 133.6 218.052C133.6 217.439 134.095 216.943 134.708 216.943C135.32 216.943 135.816 217.429 135.816 218.052Z" fill="#FAFAFA"/>
<path d="M125.181 225.479C125.793 225.479 126.289 224.983 126.289 224.371C126.289 223.759 125.793 223.263 125.181 223.263C124.568 223.263 124.072 223.759 124.072 224.371C124.072 224.983 124.568 225.479 125.181 225.479Z" fill="#FAFAFA"/>
<path d="M163.056 193.99C163.056 194.603 162.561 195.098 161.948 195.098C161.336 195.098 160.84 194.603 160.84 193.99C160.84 193.378 161.336 192.882 161.948 192.882C162.561 192.882 163.056 193.378 163.056 193.99Z" fill="#FAFAFA"/>
<path d="M178.484 201.301C178.484 201.914 177.988 202.409 177.376 202.409C176.763 202.409 176.268 201.914 176.268 201.301C176.268 200.689 176.763 200.193 177.376 200.193C177.979 200.193 178.484 200.689 178.484 201.301Z" fill="#FAFAFA"/>
<path d="M206.103 202.409C206.103 203.022 205.607 203.517 204.995 203.517C204.383 203.517 203.887 203.022 203.887 202.409C203.887 201.797 204.383 201.301 204.995 201.301C205.607 201.301 206.103 201.797 206.103 202.409Z" fill="#FAFAFA"/>
<path d="M213.26 187.651C213.26 188.264 212.764 188.76 212.151 188.76C211.539 188.76 211.043 188.264 211.043 187.651C211.043 187.039 211.539 186.543 212.151 186.543C212.764 186.543 213.26 187.039 213.26 187.651Z" fill="#FAFAFA"/>
<path d="M207.885 239.518C207.885 240.13 207.389 240.626 206.776 240.626C206.164 240.626 205.668 240.13 205.668 239.518C205.668 238.905 206.164 238.41 206.776 238.41C207.389 238.41 207.885 238.905 207.885 239.518Z" fill="#FAFAFA"/>
<path d="M207.885 251.067C207.885 251.68 207.389 252.176 206.776 252.176C206.164 252.176 205.668 251.68 205.668 251.067C205.668 250.455 206.164 249.959 206.776 249.959C207.389 249.959 207.885 250.455 207.885 251.067Z" fill="#FAFAFA"/>
<path d="M212.15 220.268C212.15 220.88 211.654 221.376 211.042 221.376C210.429 221.376 209.934 220.88 209.934 220.268C209.934 219.655 210.429 219.16 211.042 219.16C211.654 219.16 212.15 219.655 212.15 220.268Z" fill="#FAFAFA"/>
<path d="M193.125 211.314C193.125 211.927 192.629 212.423 192.016 212.423C191.404 212.423 190.908 211.927 190.908 211.314C190.908 210.702 191.404 210.206 192.016 210.206C192.629 210.206 193.125 210.702 193.125 211.314Z" fill="#FAFAFA"/>
<path d="M197.56 225.489C197.56 226.102 197.065 226.597 196.452 226.597C195.84 226.597 195.344 226.102 195.344 225.489C195.344 224.877 195.84 224.381 196.452 224.381C197.065 224.381 197.56 224.877 197.56 225.489Z" fill="#FAFAFA"/>
<path d="M176.26 219.16C176.26 219.772 175.764 220.268 175.151 220.268C174.539 220.268 174.043 219.772 174.043 219.16C174.043 218.547 174.539 218.051 175.151 218.051C175.764 218.051 176.26 218.547 176.26 219.16Z" fill="#FAFAFA"/>
<path d="M171.582 245.292C171.582 245.905 171.086 246.401 170.474 246.401C169.861 246.401 169.365 245.905 169.365 245.292C169.365 244.68 169.861 244.184 170.474 244.184C171.086 244.184 171.582 244.68 171.582 245.292Z" fill="#FAFAFA"/>
<path d="M182.023 234.841C182.023 235.454 181.527 235.949 180.915 235.949C180.302 235.949 179.807 235.454 179.807 234.841C179.807 234.229 180.302 233.733 180.915 233.733C181.527 233.733 182.023 234.229 182.023 234.841Z" fill="#FAFAFA"/>
<path d="M159.877 248.87C159.877 249.483 159.381 249.978 158.768 249.978C158.156 249.978 157.66 249.483 157.66 248.87C157.66 248.258 158.156 247.762 158.768 247.762C159.381 247.752 159.877 248.258 159.877 248.87Z" fill="#FAFAFA"/>
<path d="M182.022 256.298C182.634 256.298 183.131 255.801 183.131 255.189C183.131 254.577 182.634 254.081 182.022 254.081C181.41 254.081 180.914 254.577 180.914 255.189C180.914 255.801 181.41 256.298 182.022 256.298Z" fill="#FAFAFA"/>
<path d="M194.127 246.401C194.127 247.013 193.631 247.509 193.018 247.509C192.406 247.509 191.91 247.013 191.91 246.401C191.91 245.788 192.406 245.292 193.018 245.292C193.631 245.292 194.127 245.788 194.127 246.401Z" fill="#FAFAFA"/>
<path d="M161.947 211.314C161.947 211.927 161.451 212.423 160.839 212.423C160.226 212.423 159.73 211.927 159.73 211.314C159.73 210.702 160.226 210.206 160.839 210.206C161.451 210.206 161.947 210.702 161.947 211.314Z" fill="#FAFAFA"/>
<path d="M161.384 233.743C161.996 233.743 162.492 233.247 162.492 232.635C162.492 232.023 161.996 231.526 161.384 231.526C160.772 231.526 160.275 232.023 160.275 232.635C160.275 233.247 160.772 233.743 161.384 233.743Z" fill="#FAFAFA"/>
<path d="M124.295 205.831C124.295 206.444 123.799 206.939 123.186 206.939C122.574 206.939 122.078 206.444 122.078 205.831C122.078 205.219 122.574 204.723 123.186 204.723C123.789 204.713 124.295 205.219 124.295 205.831Z" fill="#FAFAFA"/>
<path d="M140.627 204.713C140.627 205.326 140.131 205.822 139.518 205.822C138.906 205.822 138.41 205.326 138.41 204.713C138.41 204.101 138.906 203.605 139.518 203.605C140.131 203.605 140.627 204.101 140.627 204.713Z" fill="#FAFAFA"/>
<path d="M146.004 170.191C146.004 170.804 145.508 171.3 144.895 171.3C144.283 171.3 143.787 170.804 143.787 170.191C143.787 169.579 144.283 169.083 144.895 169.083C145.508 169.083 146.004 169.579 146.004 170.191Z" fill="#FAFAFA"/>
<g opacity="0.2">
<path opacity="0.2" d="M150.711 201.67C150.711 201.67 153.647 195.001 153.501 195.098C153.355 195.195 156.291 220.501 154.998 227.744C155.008 227.744 153.871 212.967 150.711 201.67Z" fill="black"/>
</g>
<g opacity="0.2">
<g opacity="0.2">
<path opacity="0.2" d="M197.315 163.006L190.082 170.842C189.839 174.498 192.134 179.825 194.263 182.81C195.225 184.161 196.508 185.503 198.161 185.629C199.036 185.697 199.882 185.406 200.708 185.124C207.144 182.897 213.58 180.671 220.006 178.445C219.471 177.579 218.946 176.714 218.412 175.849C220.823 177.443 223.963 177.891 226.724 177.045C229.485 176.199 231.838 174.07 232.946 171.396C226.306 168.431 221.737 162.112 221.737 154.84L218.159 152.818L197.315 163.006Z" fill="black"/>
</g>
</g>
<g opacity="0.2">
<g opacity="0.2">
<path opacity="0.2" d="M209.37 215.582C209.574 216.127 200.902 219.782 190.247 224.293C179.573 228.794 170.92 232.46 170.667 231.935C170.424 231.439 178.727 226.928 189.45 222.397C200.154 217.867 209.176 215.057 209.37 215.582Z" fill="black"/>
</g>
</g>
<path d="M254.568 204.597C254.461 204.616 253.713 201.145 252.896 196.848C252.089 192.541 251.516 189.041 251.632 189.022C251.739 189.003 252.488 192.473 253.304 196.77C254.111 201.067 254.675 204.567 254.568 204.597Z" fill="#080014"/>
<path d="M258.36 203.012C258.321 203.041 257.796 202.37 257.067 201.203C256.338 200.047 255.404 198.384 254.539 196.469C253.674 194.554 253.052 192.755 252.663 191.433C252.274 190.111 252.118 189.275 252.167 189.265C252.225 189.246 252.488 190.052 252.935 191.345C253.382 192.638 254.053 194.398 254.908 196.294C255.764 198.19 256.649 199.862 257.31 201.048C257.981 202.253 258.418 202.983 258.36 203.012Z" fill="#080014"/>
<path d="M153.85 189.897C153.84 189.897 153.831 189.761 153.84 189.518C153.85 189.227 153.87 188.867 153.889 188.439C153.947 187.438 154.025 186.096 154.113 184.463C154.258 181.119 154.433 176.442 153.364 171.436C152.285 166.439 149.835 162.346 147.463 160.003C145.11 157.611 143.107 156.824 143.176 156.736C143.185 156.726 143.302 156.775 143.526 156.872C143.749 156.989 144.089 157.115 144.488 157.368C145.314 157.825 146.452 158.612 147.667 159.798C150.127 162.132 152.664 166.283 153.763 171.348C154.851 176.413 154.618 181.128 154.404 184.473C154.288 186.154 154.152 187.506 154.054 188.439C154.006 188.867 153.957 189.217 153.928 189.518C153.889 189.771 153.87 189.897 153.85 189.897Z" fill="#080014"/>
<path d="M216.847 176.326C216.896 176.316 217.08 177.269 217.275 178.815C217.469 180.36 217.644 182.509 217.702 184.881C217.761 187.263 217.673 189.411 217.557 190.967C217.44 192.522 217.304 193.475 217.246 193.465C217.187 193.456 217.226 192.503 217.265 190.947C217.304 189.392 217.343 187.253 217.284 184.891C217.226 182.528 217.09 180.39 216.973 178.834C216.876 177.298 216.789 176.335 216.847 176.326Z" fill="#080014"/>
<path d="M174.041 145.935C174.653 138.216 183.559 142.912 182.567 135.241C180.331 117.956 179.495 100.486 180.069 83.064" fill="#080014"/>
<path d="M201.048 146.139L204.49 93.3982C195.692 81.3236 183.831 78.7668 169.404 83.0638C169.404 83.0638 163.279 108.555 163.998 120.736C164.757 133.511 174.235 136.058 174.235 136.058C174.235 136.058 173.905 140.355 173.438 145.624C170.988 146.023 168.412 146.548 165.719 147.218C164.688 147.471 184.813 176.54 184.813 176.54L209.915 149.348C209.934 149.348 206.901 147.539 201.048 146.139Z" fill="#FFBE9D"/>
<path d="M169.424 103.032C169.307 103.878 169.939 104.675 170.814 104.811C171.699 104.947 172.506 104.374 172.623 103.518C172.739 102.672 172.107 101.875 171.232 101.739C170.348 101.603 169.531 102.186 169.424 103.032Z" fill="#080014"/>
<path d="M167.489 101.642C167.664 101.875 168.976 101.088 170.716 101.263C172.457 101.409 173.643 102.43 173.847 102.235C173.944 102.148 173.779 101.749 173.264 101.292C172.758 100.835 171.864 100.349 170.785 100.252C169.705 100.155 168.753 100.456 168.189 100.816C167.615 101.175 167.392 101.545 167.489 101.642Z" fill="#080014"/>
<path d="M187.156 105.093C187.04 105.939 187.672 106.736 188.547 106.872C189.431 107.008 190.238 106.435 190.355 105.579C190.472 104.734 189.84 103.936 188.965 103.8C188.08 103.664 187.273 104.238 187.156 105.093Z" fill="#080014"/>
<path d="M185.251 103.674C185.426 103.907 186.738 103.12 188.478 103.295C190.218 103.44 191.404 104.461 191.609 104.267C191.706 104.179 191.55 103.781 191.025 103.324C190.52 102.867 189.625 102.381 188.546 102.284C187.467 102.186 186.514 102.488 185.95 102.847C185.377 103.207 185.153 103.567 185.251 103.674Z" fill="#080014"/>
<path d="M177.463 115.632C177.483 115.534 176.423 115.243 174.692 114.844C174.255 114.757 173.847 114.621 173.798 114.319C173.73 113.989 173.954 113.532 174.226 113.036C174.751 112.005 175.295 110.926 175.869 109.789C178.163 105.161 179.865 101.34 179.68 101.253C179.495 101.165 177.483 104.84 175.188 109.468C174.634 110.605 174.099 111.694 173.594 112.735C173.38 113.221 173.03 113.765 173.195 114.455C173.283 114.796 173.584 115.068 173.856 115.175C174.129 115.291 174.381 115.321 174.595 115.35C176.355 115.622 177.444 115.729 177.463 115.632Z" fill="#080014"/>
<path d="M174.246 136.058C174.246 136.058 182.655 137.438 191.531 133.219C191.531 133.219 186.592 141.453 174.119 139.042L174.246 136.058Z" fill="#EB996E"/>
<path d="M177.784 119.889C178.494 119.121 179.631 118.781 180.701 119.005C181.449 119.16 182.169 119.598 182.567 120.259C182.966 120.92 182.976 121.795 182.499 122.339C181.965 122.952 180.973 123.01 180.166 122.689C179.359 122.368 178.698 121.756 178.076 121.143C177.901 120.978 177.726 120.803 177.629 120.58C177.531 120.366 177.531 120.093 177.697 119.938" fill="#EB996E"/>
<path d="M182.45 117.343C182.168 117.294 181.983 119.18 180.233 120.357C178.493 121.543 176.5 121.134 176.461 121.397C176.422 121.513 176.87 121.805 177.715 121.912C178.542 122.019 179.786 121.873 180.856 121.154C181.915 120.434 182.45 119.375 182.586 118.607C182.751 117.829 182.586 117.343 182.45 117.343Z" fill="#080014"/>
<path d="M173.429 99.1046C173.322 99.3671 172.126 99.124 170.668 99.124C169.21 99.1046 168.014 99.3379 167.907 99.0657C167.8 98.8226 168.996 98.1129 170.668 98.1227C172.34 98.1324 173.536 98.8615 173.429 99.1046Z" fill="#080014"/>
<path d="M190.899 99.8529C190.84 99.814 190.84 99.7168 190.879 99.5515L190.918 99.8043C190.442 99.6876 189.45 99.2307 188.196 99.1335C186.553 98.9585 185.25 99.4932 185.114 99.2404C185.046 99.1238 185.308 98.8224 185.882 98.5405C186.446 98.2585 187.321 98.0446 188.293 98.1321C189.79 98.2488 190.879 99.0654 191.142 99.4932L191.268 99.6974L191.19 99.7557C191.044 99.8529 190.947 99.8918 190.899 99.8529Z" fill="#080014"/>
<path d="M191.336 111.159C191.2 111.179 191.064 110.984 191.035 110.741C191.006 110.489 191.093 110.275 191.229 110.265C191.365 110.246 191.502 110.44 191.531 110.683C191.56 110.926 191.472 111.14 191.336 111.159Z" fill="#EB996E"/>
<path d="M187.361 110.984C187.225 110.975 187.128 110.751 187.235 110.508C187.332 110.265 187.566 110.178 187.663 110.275C187.77 110.362 187.76 110.547 187.692 110.703C187.624 110.868 187.498 110.994 187.361 110.984Z" fill="#EB996E"/>
<path d="M189.507 112.705C189.371 112.696 189.264 112.55 189.274 112.384C189.284 112.219 189.4 112.083 189.546 112.093C189.682 112.102 189.789 112.248 189.78 112.414C189.77 112.579 189.653 112.715 189.507 112.705Z" fill="#EB996E"/>
<path d="M166.798 110.206C166.662 110.187 166.574 109.973 166.603 109.72C166.632 109.467 166.769 109.283 166.905 109.302C167.041 109.322 167.128 109.536 167.099 109.788C167.07 110.041 166.934 110.226 166.798 110.206Z" fill="#EB996E"/>
<path d="M170.814 110.294C170.678 110.284 170.571 110.119 170.581 109.915C170.59 109.711 170.717 109.555 170.853 109.555C170.989 109.565 171.096 109.73 171.086 109.934C171.067 110.138 170.95 110.294 170.814 110.294Z" fill="#EB996E"/>
<path d="M168.85 111.558C168.714 111.558 168.598 111.354 168.598 111.111C168.598 110.858 168.705 110.664 168.841 110.654C168.977 110.654 169.093 110.858 169.093 111.101C169.103 111.354 168.996 111.558 168.85 111.558Z" fill="#EB996E"/>
<path d="M181.547 76.9971C181.031 83.0344 178.484 88.8773 174.411 93.3591C170.337 97.8408 165.729 101.759 159.77 102.838C161.393 97.7047 161.733 93.5632 163.056 89.2856C164.368 84.9982 166.205 80.6915 169.559 77.7166C173.74 74.0125 180.088 72.9723 185.231 75.1597" fill="#080014"/>
<path d="M161.045 97.9966C161.035 97.8897 162.562 98.1522 164.846 97.5105C165.974 97.1702 167.267 96.5772 168.56 95.6828C169.853 94.7981 171.156 93.6412 172.458 92.3774C175.025 89.8011 176.853 87.0206 178.146 85.0179C178.749 84.0554 179.244 83.2485 179.643 82.6166C179.993 82.043 180.197 81.7319 180.226 81.7513C180.246 81.7611 180.1 82.1013 179.789 82.6944C179.478 83.2874 179.011 84.1429 178.399 85.1735C177.164 87.2248 175.356 90.0538 172.75 92.669C171.428 93.9523 170.106 95.0995 168.774 95.9939C167.452 96.898 166.1 97.4813 164.934 97.7924C163.757 98.0841 162.766 98.1424 162.095 98.1133C161.414 98.0841 161.045 98.0161 161.045 97.9966Z" fill="#8F9296"/>
<path d="M164.913 98.6186C164.922 98.6283 164.796 98.7936 164.553 99.095C164.31 99.3964 163.96 99.8533 163.552 100.466C162.745 101.691 161.695 103.586 161.131 106.163C160.849 107.446 160.674 108.875 160.742 110.421C160.791 111.957 161.111 113.59 161.471 115.301C161.821 117.012 162.229 118.821 162.288 120.755C162.346 122.69 161.948 124.712 161.053 126.559C160.168 128.406 158.875 130.011 157.33 131.187C155.784 132.354 154.102 133.131 152.79 134.24C151.477 135.328 150.524 136.806 150.554 138.323C150.563 139.839 151.273 141.162 151.895 142.299C152.546 143.436 153.188 144.477 153.528 145.488C153.878 146.489 154.024 147.422 153.956 148.171C153.898 148.929 153.655 149.474 153.431 149.804C153.217 150.135 153.052 150.271 153.052 150.271C153.033 150.251 153.178 150.106 153.363 149.765C153.548 149.435 153.762 148.89 153.801 148.161C153.839 147.432 153.684 146.538 153.324 145.566C152.974 144.584 152.333 143.582 151.652 142.435C151.01 141.298 150.252 139.956 150.223 138.313C150.213 137.506 150.437 136.67 150.865 135.921C151.283 135.173 151.876 134.512 152.556 133.938C153.917 132.772 155.609 131.984 157.096 130.847C158.584 129.709 159.838 128.163 160.693 126.365C161.559 124.576 161.948 122.622 161.889 120.746C161.841 118.869 161.452 117.071 161.102 115.36C160.752 113.649 160.431 111.996 160.402 110.421C160.343 108.846 160.548 107.388 160.849 106.085C161.461 103.48 162.57 101.574 163.425 100.369C163.853 99.7658 164.232 99.3186 164.495 99.0367C164.757 98.7547 164.903 98.6089 164.913 98.6186Z" fill="#8F9296"/>
<path d="M150.602 125.315C150.631 125.305 150.699 125.538 150.942 125.908C151.175 126.277 151.632 126.793 152.39 127.181C153.139 127.561 154.199 127.804 155.375 127.609C156.561 127.434 157.767 126.608 158.554 125.325C159.332 124.041 159.701 122.34 159.468 120.58C159.235 118.821 158.418 117.042 157.29 115.379C156.192 113.687 154.675 112.171 153.47 110.265C152.876 109.313 152.4 108.234 152.196 107.077C151.992 105.92 152.05 104.704 152.381 103.548C153.032 101.205 154.772 99.3574 156.765 98.3172C157.757 97.7728 158.875 97.5394 159.905 97.3158C160.946 97.102 161.966 96.8881 162.939 96.6159C166.886 95.6048 169.715 93.0868 172.058 91.1522C174.372 89.1397 176.005 87.244 176.938 85.8149C177.881 84.376 178.105 83.433 178.153 83.4524C178.163 83.4524 178.095 83.6858 177.959 84.1135C177.803 84.5413 177.521 85.1538 177.074 85.8926C176.17 87.3704 174.566 89.3147 172.252 91.3661C171.095 92.3869 169.793 93.466 168.295 94.5062C166.818 95.5756 165.019 96.4214 163.046 96.9756C162.064 97.2575 161.033 97.4811 159.993 97.7047C158.953 97.9283 157.903 98.1519 156.95 98.6769C155.044 99.6685 153.392 101.448 152.779 103.664C152.468 104.763 152.41 105.92 152.604 107.009C152.789 108.107 153.236 109.128 153.82 110.051C154.976 111.899 156.503 113.444 157.611 115.165C158.748 116.867 159.585 118.694 159.808 120.532C160.042 122.369 159.633 124.129 158.807 125.47C157.971 126.812 156.668 127.668 155.424 127.833C154.179 128.027 153.09 127.745 152.322 127.327C151.554 126.9 151.097 126.355 150.883 125.956C150.65 125.558 150.602 125.315 150.602 125.315Z" fill="#080014"/>
<path d="M225.248 156.561C225.199 156.522 225.967 155.793 226.794 154.121C227.192 153.285 227.581 152.205 227.805 150.903C228.019 149.61 228.077 148.083 227.746 146.46C227.435 144.836 226.706 143.135 225.491 141.618C224.276 140.092 222.642 138.77 220.931 137.37C219.22 135.98 217.402 134.434 216.1 132.344C215.458 131.303 214.943 130.137 214.758 128.863C214.564 127.599 214.768 126.258 215.254 125.052C216.236 122.622 217.947 120.726 218.861 118.529C219.318 117.44 219.522 116.283 219.386 115.175C219.24 114.057 218.734 113.046 218.112 112.161C216.829 110.392 215.05 109.215 213.397 108.175C211.735 107.135 210.16 106.143 208.954 104.938C207.758 103.742 206.883 102.449 206.397 101.185C205.892 99.931 205.833 98.7254 205.969 97.7921C206.018 97.3158 206.164 96.9172 206.271 96.5769C206.417 96.2464 206.524 95.9547 206.64 95.7408C206.757 95.5464 206.854 95.3909 206.932 95.2547C207 95.1478 207.039 95.0895 207.039 95.0992C207.049 95.0992 207.019 95.1672 206.961 95.2742C206.893 95.4103 206.815 95.5756 206.708 95.77C206.601 95.9839 206.504 96.2755 206.378 96.6061C206.29 96.9561 206.164 97.3449 206.125 97.8116C206.008 98.7255 206.096 99.8824 206.601 101.098C207.087 102.313 207.962 103.577 209.149 104.724C210.335 105.881 211.89 106.843 213.562 107.883C215.225 108.914 217.052 110.1 218.404 111.937C219.065 112.851 219.6 113.921 219.765 115.117C219.911 116.312 219.697 117.547 219.22 118.684C218.268 120.959 216.557 122.865 215.623 125.198C215.147 126.355 214.962 127.599 215.147 128.795C215.322 129.991 215.808 131.119 216.43 132.12C217.684 134.152 219.454 135.669 221.155 137.069C222.856 138.468 224.509 139.82 225.744 141.395C226.988 142.96 227.727 144.729 228.019 146.392C228.339 148.054 228.262 149.61 228.019 150.932C227.776 152.254 227.358 153.343 226.93 154.179C226.483 155.015 226.065 155.608 225.753 155.987C225.608 156.162 225.481 156.298 225.384 156.415C225.306 156.522 225.258 156.571 225.248 156.561Z" fill="#8F9296"/>
<path d="M218.811 154.49C218.15 148.715 217.012 146.324 217.051 140.51C217.08 135.183 212.151 128.095 215.194 121.844C214.222 117.897 212.627 114.076 210.975 110.343C209.954 108.029 206.25 101.02 205.307 98.6671C205.919 94.3409 209.03 94.6617 208.437 90.3452C207.718 85.1635 205.278 79.9817 200.874 77.1526C198.113 75.3833 194.817 74.6638 191.56 74.3333C189.295 74.1 186.962 74.0514 184.765 74.6444C182.558 75.2374 180.477 76.5402 179.33 78.5137L180.468 77.4151C179.418 82.2372 181.09 87.4189 184.288 91.1716C187.487 94.9242 192.066 97.3353 196.849 98.5408C196.791 100.145 197.17 101.768 197.909 103.198L197.792 103.363C197.889 103.411 197.977 103.47 198.074 103.518C198.375 104.063 198.725 104.568 199.134 105.045C199.668 105.667 200.29 106.211 200.971 106.678C201.885 108.652 201.982 111.024 200.952 112.949C199.756 115.194 197.325 116.798 196.839 119.297C196.295 122.107 198.424 124.79 198.385 127.648C198.356 129.184 197.724 130.565 196.956 131.916C191.764 138.575 192.678 145.439 195.614 153.362C196.703 156.308 198.385 159.38 197.529 162.404C196.722 165.252 193.855 167.129 192.95 169.948C191.696 173.866 194.584 177.784 197.286 180.885C203.051 178.299 209.079 176.306 215.252 174.955C214.62 172.369 214.319 169.705 214.329 167.041C214.844 169.841 217.265 172.184 220.084 172.612C222.904 173.039 225.908 171.513 227.23 168.995C222.097 166.254 219.472 160.265 218.811 154.49Z" fill="#080014"/>
<path d="M210.537 92.7373C210.547 92.747 210.45 92.8442 210.255 93.0192C210.051 93.1845 209.779 93.4664 209.37 93.7483C208.583 94.3608 207.368 95.1483 205.734 95.8677C204.101 96.5969 202.03 97.1899 199.668 97.3843C197.315 97.5788 194.671 97.3163 192.085 96.4024C189.509 95.4594 187.311 93.9525 185.649 92.2706C183.967 90.5985 182.791 88.7902 182.003 87.1958C181.206 85.6014 180.759 84.2209 180.516 83.2584C180.38 82.7821 180.331 82.3932 180.273 82.1404C180.224 81.8877 180.205 81.7516 180.224 81.7418C180.263 81.7321 180.39 82.2668 180.671 83.2098C180.953 84.1528 181.449 85.5042 182.266 87.0597C183.082 88.6152 184.259 90.3748 185.921 91.9984C187.564 93.6317 189.723 95.09 192.231 96.0135C194.749 96.908 197.335 97.1802 199.649 97.0052C201.962 96.8399 204.004 96.276 205.627 95.5955C208.884 94.2442 210.479 92.64 210.537 92.7373Z" fill="#8F9296"/>
<path d="M209.645 86.311C209.655 86.3304 209.334 86.4471 208.731 86.6026C208.138 86.7582 207.263 86.9234 206.164 87.0207C203.977 87.2248 200.856 87.0401 197.697 85.8151C194.537 84.5999 192.097 82.6361 190.619 81.0125C189.871 80.2056 189.336 79.4862 188.996 78.9807C188.655 78.4654 188.5 78.164 188.519 78.1543C188.587 78.1057 189.307 79.2626 190.833 80.8084C192.34 82.3542 194.761 84.2305 197.852 85.4263C200.944 86.6221 203.996 86.8457 206.155 86.7193C208.313 86.6123 209.625 86.2332 209.645 86.311Z" fill="#8F9296"/>
<path d="M210.537 89.1689C210.625 89.2078 209.565 90.7924 207.524 91.8132C205.492 92.8535 203.586 92.766 203.606 92.6687C203.586 92.5424 205.404 92.4354 207.339 91.4438C209.293 90.4716 210.45 89.0716 210.537 89.1689Z" fill="#8F9296"/>
<path d="M209.11 176.53C209.091 176.53 209.032 176.219 208.857 175.635C208.692 175.062 208.323 174.187 207.428 173.458C206.991 173.088 206.427 172.758 205.882 172.281C205.338 171.815 204.852 171.163 204.521 170.395C204.366 170.007 204.21 169.598 204.103 169.161C203.977 168.733 203.899 168.266 203.87 167.79C203.802 166.837 204.035 165.778 204.638 164.883C205.231 163.979 206.125 163.26 207.156 162.744C208.167 162.278 209.042 161.451 209.528 160.372C209.761 159.828 209.888 159.235 209.868 158.632C209.839 158.029 209.674 157.426 209.431 156.833C208.945 155.647 208.177 154.549 207.457 153.363C205.96 151.01 205.192 148.025 205.396 145.002C205.581 141.978 206.796 138.877 208.935 136.476C209.927 135.27 210.889 133.948 210.87 132.441C210.879 130.944 210.111 129.573 209.256 128.377C208.391 127.172 207.35 126.112 206.563 124.878C205.766 123.672 205.144 122.262 205.251 120.804C205.357 119.336 206.213 118.15 207.02 117.139C207.837 116.118 208.653 115.156 209.1 114.038C210.043 111.831 209.966 109.361 208.935 107.602C208.439 106.707 207.7 106.046 206.962 105.482C206.223 104.919 205.474 104.452 204.794 103.956C204.123 103.47 203.501 102.974 203.083 102.381C202.655 101.798 202.363 101.205 202.169 100.651C201.77 99.5326 201.79 98.5799 201.945 97.9771C202.11 97.3744 202.344 97.1313 202.344 97.1313C202.373 97.1411 202.159 97.4036 202.023 97.9966C201.896 98.5799 201.906 99.5132 202.315 100.592C202.519 101.127 202.81 101.71 203.238 102.264C203.646 102.828 204.249 103.305 204.92 103.771C205.591 104.248 206.349 104.705 207.107 105.269C207.866 105.832 208.634 106.523 209.168 107.456C210.267 109.303 210.364 111.87 209.402 114.164C208.945 115.34 208.099 116.351 207.292 117.363C206.495 118.364 205.707 119.492 205.62 120.833C205.523 122.165 206.096 123.487 206.884 124.664C207.652 125.859 208.692 126.909 209.577 128.144C210.442 129.359 211.278 130.798 211.268 132.441C211.268 133.248 211.025 134.065 210.636 134.765C210.248 135.474 209.752 136.106 209.246 136.729C207.137 139.091 205.98 142.066 205.785 145.021C205.591 147.977 206.32 150.854 207.768 153.168C208.468 154.335 209.246 155.463 209.752 156.697C209.995 157.31 210.18 157.961 210.209 158.622C210.228 159.283 210.082 159.935 209.83 160.508C209.305 161.675 208.342 162.55 207.292 163.026C206.3 163.522 205.435 164.203 204.871 165.048C204.298 165.884 204.074 166.866 204.123 167.78C204.181 168.694 204.414 169.55 204.716 170.308C205.037 171.056 205.484 171.679 205.999 172.145C206.514 172.612 207.069 172.952 207.516 173.341C208.43 174.119 208.78 175.033 208.916 175.616C209.003 175.908 209.023 176.151 209.061 176.306C209.11 176.452 209.12 176.53 209.11 176.53Z" fill="#8F9296"/>
<path d="M210.664 91.2204C210.674 91.2301 210.596 91.3468 210.431 91.5607C210.276 91.7745 210.013 92.0759 209.653 92.4453C208.944 93.1745 207.796 94.137 206.163 94.973C204.53 95.7897 202.391 96.4508 199.951 96.4702C197.53 96.4508 194.837 95.9841 192.329 94.6911C191.085 94.03 189.967 93.2036 189.082 92.212C188.178 91.2301 187.536 90.1024 187.031 89.0135C186.029 86.8067 185.446 84.7262 184.775 83.0443C184.124 81.3624 183.404 80.0888 182.792 79.2819C182.189 78.475 181.761 78.1056 181.79 78.0764C181.8 78.0667 181.907 78.1542 182.111 78.3389C182.315 78.5139 182.588 78.7958 182.918 79.1944C183.579 79.9722 184.347 81.2555 185.047 82.9471C185.757 84.6192 186.379 86.7094 187.381 88.858C187.886 89.9274 188.518 91.0065 189.393 91.9495C190.248 92.9023 191.337 93.6995 192.533 94.3314C194.954 95.5758 197.608 96.0619 199.961 96.1008C202.333 96.1008 204.433 95.4883 206.047 94.7203C207.66 93.9328 208.817 93.0287 209.556 92.3384C210.285 91.6287 210.635 91.1912 210.664 91.2204Z" fill="#8F9296"/>
<path d="M109.003 264.687C109.003 264.823 105.649 264.94 101.507 264.94C97.3658 264.94 94.0117 264.823 94.0117 264.687C94.0117 264.551 97.3658 264.435 101.507 264.435C105.649 264.435 109.003 264.542 109.003 264.687Z" fill="#8F9296"/>
<path d="M116.964 240.859C117.1 240.859 117.216 244.835 117.216 249.745C117.216 254.654 117.1 258.63 116.964 258.63C116.828 258.63 116.711 254.654 116.711 249.745C116.711 244.835 116.828 240.859 116.964 240.859Z" fill="#8F9296"/>
<path d="M125.443 264.114C125.443 263.978 128.797 263.861 132.939 263.861C137.08 263.861 140.434 263.978 140.434 264.114C140.434 264.25 137.08 264.367 132.939 264.367C128.797 264.367 125.443 264.25 125.443 264.114Z" fill="#8F9296"/>
<path d="M117.481 287.943C117.345 287.943 117.229 283.967 117.229 279.057C117.229 274.148 117.345 270.171 117.481 270.171C117.617 270.171 117.734 274.148 117.734 279.057C117.734 283.967 117.627 287.943 117.481 287.943Z" fill="#8F9296"/>
<path d="M129.604 277.724C129.487 277.802 128.204 276.198 126.736 274.146C125.268 272.085 124.159 270.355 124.276 270.267C124.393 270.19 125.676 271.794 127.144 273.855C128.612 275.906 129.711 277.646 129.604 277.724Z" fill="#8F9296"/>
<path d="M128.904 250.697C129.011 250.785 127.854 252.321 126.328 254.119C124.801 255.918 123.479 257.308 123.372 257.221C123.265 257.133 124.422 255.597 125.948 253.799C127.465 251.99 128.797 250.61 128.904 250.697Z" fill="#8F9296"/>
<path d="M111.715 257.581C111.617 257.678 110.363 256.618 108.905 255.199C107.447 253.78 106.348 252.555 106.445 252.457C106.543 252.36 107.797 253.42 109.255 254.839C110.713 256.259 111.812 257.484 111.715 257.581Z" fill="#8F9296"/>
<path d="M111.044 269.489C111.151 269.577 110.12 271.084 108.73 272.863C107.34 274.642 106.124 276.013 106.017 275.925C105.91 275.838 106.941 274.331 108.331 272.552C109.721 270.782 110.937 269.412 111.044 269.489Z" fill="#8F9296"/>
<path d="M376.227 135.008C376.227 135.144 374.973 135.26 373.417 135.26C371.862 135.26 370.607 135.144 370.607 135.008C370.607 134.872 371.862 134.755 373.417 134.755C374.963 134.755 376.227 134.872 376.227 135.008Z" fill="#8F9296"/>
<path d="M379.202 126.083C379.338 126.083 379.455 127.57 379.455 129.418C379.455 131.255 379.338 132.752 379.202 132.752C379.066 132.752 378.949 131.265 378.949 129.418C378.949 127.57 379.066 126.083 379.202 126.083Z" fill="#8F9296"/>
<path d="M382.381 134.794C382.381 134.658 383.635 134.541 385.19 134.541C386.746 134.541 388 134.658 388 134.794C388 134.93 386.746 135.047 385.19 135.047C383.635 135.047 382.381 134.93 382.381 134.794Z" fill="#8F9296"/>
<path d="M379.395 143.719C379.259 143.719 379.143 142.231 379.143 140.384C379.143 138.546 379.259 137.049 379.395 137.049C379.531 137.049 379.648 138.537 379.648 140.384C379.648 142.231 379.541 143.719 379.395 143.719Z" fill="#8F9296"/>
<path d="M383.935 139.888C383.819 139.966 383.284 139.412 382.73 138.634C382.176 137.866 381.826 137.166 381.942 137.088C382.059 137.011 382.594 137.565 383.148 138.342C383.692 139.12 384.052 139.81 383.935 139.888Z" fill="#8F9296"/>
<path d="M383.673 129.768C383.78 129.855 383.401 130.477 382.827 131.158C382.253 131.829 381.699 132.305 381.602 132.218C381.495 132.13 381.874 131.508 382.448 130.827C383.021 130.157 383.566 129.68 383.673 129.768Z" fill="#8F9296"/>
<path d="M377.237 132.344C377.14 132.441 376.615 132.091 376.071 131.566C375.526 131.032 375.167 130.526 375.264 130.429C375.361 130.332 375.886 130.682 376.431 131.207C376.975 131.741 377.335 132.247 377.237 132.344Z" fill="#8F9296"/>
<path d="M376.984 136.807C377.091 136.894 376.761 137.507 376.245 138.168C375.73 138.839 375.215 139.305 375.108 139.218C375.001 139.13 375.332 138.518 375.847 137.857C376.362 137.196 376.877 136.729 376.984 136.807Z" fill="#8F9296"/>
<path d="M9.53526 308.718C9.53526 308.854 8.28114 308.97 6.72564 308.97C5.17014 308.97 3.91602 308.854 3.91602 308.718C3.91602 308.581 5.17014 308.465 6.72564 308.465C8.28114 308.465 9.53526 308.581 9.53526 308.718Z" fill="#8F9296"/>
<path d="M12.5203 299.793C12.6565 299.793 12.7731 301.28 12.7731 303.128C12.7731 304.965 12.6565 306.462 12.5203 306.462C12.3842 306.462 12.2676 304.975 12.2676 303.128C12.2676 301.28 12.3842 299.793 12.5203 299.793Z" fill="#8F9296"/>
<path d="M15.6992 308.504C15.6992 308.368 16.9533 308.251 18.5088 308.251C20.0643 308.251 21.3185 308.368 21.3185 308.504C21.3185 308.64 20.0643 308.757 18.5088 308.757C16.9533 308.757 15.6992 308.64 15.6992 308.504Z" fill="#8F9296"/>
<path d="M12.7137 317.428C12.5776 317.428 12.4609 315.941 12.4609 314.094C12.4609 312.256 12.5776 310.759 12.7137 310.759C12.8498 310.759 12.9665 312.247 12.9665 314.094C12.9665 315.941 12.8498 317.428 12.7137 317.428Z" fill="#8F9296"/>
<path d="M17.2537 313.598C17.137 313.676 16.6023 313.122 16.0482 312.344C15.494 311.576 15.144 310.876 15.2607 310.798C15.3774 310.721 15.9121 311.275 16.4662 312.052C17.0106 312.83 17.3606 313.52 17.2537 313.598Z" fill="#8F9296"/>
<path d="M16.9912 303.478C17.0981 303.565 16.7189 304.188 16.1454 304.868C15.5718 305.539 15.0176 306.015 14.9204 305.928C14.8135 305.84 15.1926 305.218 15.7662 304.538C16.3301 303.857 16.8842 303.39 16.9912 303.478Z" fill="#8F9296"/>
<path d="M10.5558 306.054C10.4586 306.151 9.9336 305.801 9.38918 305.276C8.84475 304.742 8.48505 304.236 8.58226 304.139C8.67948 304.042 9.20446 304.392 9.74889 304.917C10.2836 305.442 10.653 305.957 10.5558 306.054Z" fill="#8F9296"/>
<path d="M10.3027 310.516C10.4096 310.604 10.0791 311.216 9.5638 311.877C9.04854 312.548 8.53328 313.015 8.42634 312.927C8.3194 312.84 8.64995 312.227 9.16521 311.566C9.68047 310.905 10.186 310.429 10.3027 310.516Z" fill="#8F9296"/>
<path d="M296.749 79.7876L297.041 80.4973C297.556 81.732 298.548 82.7139 299.792 83.2194L300.56 83.5305L299.821 83.8319C298.557 84.3472 297.556 85.3485 297.05 86.6124L296.846 87.1276L296.535 86.4762C295.971 85.2902 294.96 84.386 293.725 83.9291L293.055 83.6861L293.93 83.2583C295.038 82.7236 295.903 81.8 296.38 80.6723L296.749 79.7876Z" fill="#8F9296"/>
<path d="M6.66967 171.357L6.9516 172.028C7.44742 173.205 8.39044 174.148 9.56678 174.624L10.3056 174.925L9.59595 175.207C8.39044 175.693 7.43769 176.646 6.9516 177.852L6.75716 178.347L6.45578 177.725C5.91136 176.598 4.95862 175.732 3.78227 175.305L3.14062 175.071L3.97671 174.663C5.02667 174.157 5.86275 173.273 6.30996 172.194L6.66967 171.357Z" fill="#8F9296"/>
<path d="M355.344 299.064L355.753 300.037C356.462 301.728 357.814 303.07 359.515 303.76L360.565 304.188L359.554 304.596C357.833 305.296 356.462 306.667 355.762 308.397L355.481 309.107L355.053 308.222C354.275 306.609 352.895 305.355 351.213 304.742L350.289 304.402L351.485 303.818C352.992 303.089 354.188 301.825 354.829 300.28L355.344 299.064Z" fill="#8F9296"/>
<path d="M301.905 15.1756C301.905 15.3117 299.406 15.4284 296.324 15.4284C293.243 15.4284 290.744 15.3117 290.744 15.1756C290.744 15.0395 293.243 14.9229 296.324 14.9229C299.416 14.9229 301.905 15.0395 301.905 15.1756Z" fill="#8F9296"/>
<path d="M307.837 0C307.973 0 308.09 2.53741 308.09 5.65813C308.09 8.78858 307.973 11.3163 307.837 11.3163C307.701 11.3163 307.584 8.77885 307.584 5.65813C307.584 2.53741 307.701 0 307.837 0Z" fill="#8F9296"/>
<path d="M314.146 14.8167C314.146 14.6806 316.645 14.564 319.727 14.564C322.809 14.564 325.307 14.6806 325.307 14.8167C325.307 14.9528 322.809 15.0695 319.727 15.0695C316.645 15.0695 314.146 14.9528 314.146 14.8167Z" fill="#8F9296"/>
<path d="M308.225 29.9925C308.089 29.9925 307.973 27.4551 307.973 24.3344C307.973 21.204 308.089 18.6763 308.225 18.6763C308.362 18.6763 308.478 21.2137 308.478 24.3344C308.478 27.4551 308.362 29.9925 308.225 29.9925Z" fill="#8F9296"/>
<path d="M317.236 23.4781C317.129 23.5656 316.157 22.574 315.058 21.2615C313.96 19.9491 313.162 18.8116 313.269 18.7241C313.376 18.6366 314.348 19.6283 315.447 20.9407C316.546 22.2532 317.343 23.3906 317.236 23.4781Z" fill="#8F9296"/>
<path d="M316.712 6.27079C316.809 6.36801 315.973 7.37909 314.836 8.52627C313.698 9.67345 312.697 10.5193 312.599 10.422C312.502 10.3248 313.338 9.31374 314.476 8.16656C315.613 7.01937 316.615 6.17357 316.712 6.27079Z" fill="#8F9296"/>
<path d="M303.926 10.6551C303.839 10.7621 302.886 10.1204 301.807 9.21631C300.728 8.31217 299.921 7.49554 300.008 7.38859C300.096 7.28165 301.049 7.9233 302.128 8.82743C303.207 9.73157 304.014 10.5482 303.926 10.6551Z" fill="#8F9296"/>
<path d="M303.423 18.2381C303.53 18.3353 302.772 19.3269 301.741 20.4644C300.71 21.6018 299.787 22.4379 299.68 22.3407C299.573 22.2435 300.331 21.2519 301.362 20.1144C302.402 18.9867 303.326 18.1409 303.423 18.2381Z" fill="#8F9296"/>
<path d="M11.1607 91.1229C11.1607 91.259 8.66219 91.3757 5.58036 91.3757C2.49852 91.3757 0 91.259 0 91.1229C0 90.9868 2.49852 90.8701 5.58036 90.8701C8.66219 90.8701 11.1607 90.9771 11.1607 91.1229Z" fill="#8F9296"/>
<path d="M17.0809 75.9473C17.217 75.9473 17.3337 78.4847 17.3337 81.6054C17.3337 84.7358 17.217 87.2635 17.0809 87.2635C16.9448 87.2635 16.8281 84.7261 16.8281 81.6054C16.8281 78.4847 16.9448 75.9473 17.0809 75.9473Z" fill="#8F9296"/>
<path d="M23.3926 90.7537C23.3926 90.6176 25.8911 90.501 28.9729 90.501C32.0548 90.501 34.5533 90.6176 34.5533 90.7537C34.5533 90.8899 32.0548 91.0065 28.9729 91.0065C25.8911 91.0162 23.3926 90.8996 23.3926 90.7537Z" fill="#8F9296"/>
<path d="M17.4715 105.94C17.3354 105.94 17.2188 103.402 17.2188 100.282C17.2188 97.1512 17.3354 94.6235 17.4715 94.6235C17.6076 94.6235 17.7243 97.1609 17.7243 100.282C17.7243 103.402 17.6076 105.94 17.4715 105.94Z" fill="#8F9296"/>
<path d="M26.484 99.4254C26.377 99.5129 25.4048 98.5213 24.3063 97.2088C23.2077 95.8963 22.4105 94.7589 22.5174 94.6714C22.6244 94.5839 23.5966 95.5755 24.6951 96.888C25.7937 98.2004 26.5909 99.3379 26.484 99.4254Z" fill="#8F9296"/>
<path d="M25.9677 82.2181C26.0649 82.3153 25.2288 83.3263 24.0914 84.4735C22.9539 85.6207 21.9526 86.4665 21.8553 86.3693C21.7581 86.2721 22.5942 85.261 23.7317 84.1138C24.8594 82.9666 25.8608 82.1208 25.9677 82.2181Z" fill="#8F9296"/>
<path d="M13.1744 86.6024C13.0869 86.7094 12.1342 86.0677 11.055 85.1636C9.97591 84.2594 9.169 83.4428 9.25649 83.3359C9.34399 83.2289 10.2967 83.8706 11.3759 84.7747C12.4647 85.6788 13.2619 86.4955 13.1744 86.6024Z" fill="#8F9296"/>
<path d="M12.6788 94.1853C12.7857 94.2826 12.0274 95.2742 10.9969 96.4117C9.96636 97.5491 9.04278 98.3852 8.93584 98.288C8.8289 98.1908 9.5872 97.1991 10.6177 96.0617C11.6482 94.9339 12.5718 94.0881 12.6788 94.1853Z" fill="#8F9296"/>
</svg>
