<svg width="388" height="411" fill="none" xmlns="http://www.w3.org/2000/svg"><path d="m336.59 340.771 2.45-5.434c4.297-9.887-.243-21.437-10.131-25.734-9.887-4.297-21.436.243-25.724 10.111l-2.498 5.532c-5.153-1.391-10.675 1.156-12.872 6.192l-14.029 32.248c-2.411 5.541.127 11.987 5.668 14.398l33.473 14.563c5.541 2.411 11.987-.126 14.398-5.668l14.028-32.247c2.285-5.24.146-11.268-4.763-13.961Zm-27.951 28.524-8.759-3.811 4.112-5.726a5.794 5.794 0 0 1-.554-5.629 5.824 5.824 0 0 1 7.661-3.014 5.824 5.824 0 0 1 3.014 7.661 5.824 5.824 0 0 1-4.288 3.403c-.447 2.712-1.186 7.116-1.186 7.116Zm24.111-30.254-28.136-12.24 2.431-5.386c3.373-7.758 12.434-11.326 20.192-7.952 7.758 3.373 11.326 12.434 7.962 20.163l-2.449 5.415Z" fill="#EBEBEB"/><path d="m136.884 122.204-5.61-9.771-8.788 1.293-7.253-9.119 3.743-9.08-9.799-6.504-7.311 7.379-9.635-1.692-3.908-11.326-11.715 1.235-.66 9.907-8.721 4.433-9.236-6.533-9.362 6.824 4.87 10.49-5.57 8.4-10.13-.535-2.645 12.493 9.635 3.704.826 10.5-9.994 5.735 4.773 10.831 10.345-1.604 6.853 7.903-3.587 9.858 9.47 6.689 7.388-8.001 10.256 2.771 3.19 10.587 11.393-.768 1.468-9.508 9.771-5.61 7.991 6.378 10.111-7.535-5.114-8.905 4.978-8.925 10.246.759 3.141-11.628-8.799-4.763-1.166-10.587 8.555-5.775ZM97.18 156.405c-11.035 6.339-25.112 2.528-31.45-8.506-6.34-11.035-2.528-25.112 8.506-31.451 11.035-6.338 25.112-2.527 31.45 8.507 6.339 11.034 2.528 25.112-8.506 31.45Z" fill="#E0E0E0"/><path d="M64.252 25.909c0-8.342-8.769-13.63-17.713-9.45a10.128 10.128 0 0 0-4.705 4.51c-2.246 4.356-1.254 9.334.787 13.466l6.961 17.635c1.001 2.538 4.608 2.528 5.59-.02l6.825-17.722c2.353-5.406 2.255-8.42 2.255-8.42Zm-8.4 7.262c-6.008 3.49-12.103-2.965-8.807-9.343a5.03 5.03 0 0 1 1.905-2.022c6.008-3.5 12.104 2.965 8.808 9.343a5.029 5.029 0 0 1-1.905 2.022Z" fill="#EBEBEB"/><path d="M57.931 375.031c-.068-.039.768-1.04 1.604-3.169.438-1.06.778-2.43.914-4.044.126-1.614 0-3.481-.603-5.425-.612-1.935-1.662-3.957-3.334-5.668-1.663-1.692-3.85-3.169-6.456-3.86a13.415 13.415 0 0 0-4.063-.525c-1.4.01-2.83.234-4.21.7-2.78.866-5.337 2.723-7.165 5.211-1.78 2.528-2.732 5.532-2.674 8.449 0 1.458.234 2.887.671 4.219a13.502 13.502 0 0 0 1.789 3.685c1.478 2.245 3.578 3.849 5.707 4.899 2.158 1.041 4.414 1.4 6.436 1.371a14.398 14.398 0 0 0 5.337-1.147c1.487-.642 2.683-1.4 3.548-2.149 1.75-1.487 2.43-2.595 2.499-2.547.01.01-.039.068-.126.195l-.409.554a6.253 6.253 0 0 1-.729.855c-.301.321-.651.71-1.108 1.07-.856.778-2.051 1.575-3.558 2.255a14.569 14.569 0 0 1-5.445 1.245c-2.07.058-4.404-.292-6.63-1.342-2.207-1.06-4.375-2.703-5.91-5.016a13.843 13.843 0 0 1-1.867-3.802 13.805 13.805 0 0 1-.71-4.355c-.068-3.014.914-6.144 2.76-8.75 1.897-2.576 4.541-4.501 7.428-5.386a13.811 13.811 0 0 1 4.356-.709c1.448-.02 2.868.165 4.19.564 2.683.729 4.929 2.265 6.63 4.024 1.711 1.779 2.771 3.87 3.374 5.863.602 2.002.71 3.918.544 5.551-.165 1.643-.544 3.033-1.01 4.093-.195.544-.458.991-.662 1.39a6.523 6.523 0 0 1-.583.962 30 30 0 0 1-.399.564c-.087.117-.136.185-.136.175Z" fill="#E0E0E0"/><path d="M59.585 406.044c-.127.049-2.363-5.629-4.978-12.687-2.615-7.058-4.637-12.813-4.5-12.862.126-.049 2.361 5.629 4.977 12.687 2.615 7.058 4.637 12.813 4.5 12.862Z" fill="#E0E0E0"/><path d="M342.376 40.016c.01 4.005-3.237 7.262-7.252 7.272-4.006.01-7.263-3.238-7.272-7.253-.01-4.005 3.237-7.262 7.252-7.272a7.275 7.275 0 0 1 7.272 7.253Zm20.311-14.544c.009 4.005-3.238 7.262-7.253 7.272-4.005.01-7.262-3.238-7.272-7.253-.01-4.005 3.238-7.262 7.253-7.272 4.015 0 7.272 3.247 7.272 7.253Zm.047 30.77c.009 4.365-3.238 7.904-7.243 7.904-4.006.01-7.263-3.53-7.272-7.885-.01-4.365 3.237-7.904 7.243-7.904 4.005-.01 7.262 3.52 7.272 7.885Z" fill="#EBEBEB"/><path d="M353.334 55.318c-.311.457-5.143-2.285-10.782-6.125-5.648-3.84-9.974-7.32-9.663-7.777.311-.457 5.133 2.284 10.781 6.124 5.649 3.84 9.975 7.32 9.664 7.778Zm.574-30.342c.34.437-3.393 3.889-8.322 7.71-4.939 3.82-9.216 6.571-9.547 6.134-.34-.438 3.393-3.889 8.322-7.72 4.939-3.81 9.216-6.562 9.547-6.124Z" fill="#EBEBEB"/><path d="m340.167 98.057-79.989 7.586 5.112 53.916 79.99-7.585-5.113-53.917Z" fill="#fff"/><path d="M345.292 151.962s-.058-.35-.127-1.001c-.068-.68-.174-1.633-.301-2.858-.262-2.528-.632-6.193-1.108-10.859-.924-9.382-2.256-22.808-3.87-39.17l.321.272c-22.078 2.12-49.863 4.774-79.972 7.661-.078.088.632-.768.331-.398v.038l.009.059.01.116.02.224.039.447.087.895.175 1.788c.117 1.196.224 2.382.34 3.568.224 2.373.447 4.725.671 7.059.438 4.676.875 9.274 1.303 13.785.846 9.022 1.662 17.704 2.43 25.919l-.369-.311c23.517-2.159 43.466-3.996 57.583-5.289 7.048-.632 12.628-1.128 16.488-1.468 1.896-.165 3.373-.292 4.404-.379.486-.039.855-.068 1.147-.088.243-.01.379-.01.389-.01.01.01-.117.03-.36.059-.272.029-.641.068-1.098.126-1.011.107-2.46.253-4.327.447-3.84.389-9.391.943-16.4 1.643-14.155 1.381-34.183 3.345-57.768 5.649l-.34.029-.029-.34c-.788-8.215-1.614-16.887-2.479-25.909-.428-4.511-.866-9.11-1.313-13.786a9087.38 9087.38 0 0 1-.671-7.058c-.116-1.186-.223-2.372-.34-3.568l-.175-1.789-.087-.894-.039-.447-.02-.224-.009-.116-.01-.059v-.039c-.301.36.408-.505.34-.418 30.109-2.829 57.904-5.434 79.992-7.515l.301-.029.029.301c1.497 16.45 2.722 29.954 3.578 39.384.408 4.647.729 8.293.953 10.811.097 1.205.175 2.138.233 2.809.029.622.039.933.039.933Z" fill="#8F9296"/><path d="M340.179 98.055c.02.02-.194.291-.622.797-.476.554-1.099 1.283-1.886 2.197-1.711 1.945-4.112 4.667-7.058 8.011-6.066 6.786-14.388 16.09-23.663 26.463l-.214.233-.262-.175-2.13-1.361-31.314-20.085-9.44-6.154c-1.059-.71-1.905-1.274-2.547-1.711-.573-.399-.875-.613-.865-.642.01-.019.34.156.943.515.661.399 1.536.934 2.625 1.585a4848.92 4848.92 0 0 1 9.566 5.96c8.099 5.133 19.181 12.142 31.431 19.9.729.467 1.458.924 2.129 1.361l-.476.068c9.342-10.315 17.723-19.56 23.838-26.307 3.014-3.276 5.463-5.94 7.223-7.855l1.983-2.1c.467-.477.72-.72.739-.7Z" fill="#8F9296"/><path d="M28.785 208.631s6.844-4.705 15.584 11.715c8.74 16.42 12.104 25.919 12.104 25.919s2.294 3.432 4.637 1.118c2.343-2.314 5.503-8.808 9.576-7.719 4.23 1.127 5.697 5.794 5.017 12.706-.68 6.912-1.614 22.098-1.692 23.478-.078 1.352.73 3.325 2.576 2.003 1.847-1.322 12.405-13.504 17.888-8.147 5.484 5.357.428 24.295-.087 26.376-.515 2.08-.097 2.955.904 3.451.992.496 4.161-3.937 7.301-7.282 3.15-3.344 7.379-6.669 10.286-3.315 2.907 3.354 4.064 17.48-8.983 40.676l-6.747 10.354-12.405-.466c-26.492-2.625-37.39-11.676-38.47-15.974-1.079-4.306 4.074-5.862 8.614-6.523 4.54-.661 9.984-.71 10.15-1.808.165-1.099-.311-1.945-2.314-2.722-2.003-.778-20.406-7.496-21.65-15.059-1.245-7.564 14.796-9.227 16.935-9.985 2.139-.758.991-2.547-.156-3.257-1.166-.719-14.155-8.672-20.202-12.084-6.047-3.403-9.032-7.282-7.534-11.394 1.448-3.957 8.574-2.819 11.812-3.412 3.237-.593 1.74-4.443 1.74-4.443s-5.853-8.206-14.291-24.791c-8.439-16.576-.447-19.522-.447-19.522" fill="#ECB000"/><path d="M36.63 223.331c.01 0 .068.097.175.291.117.224.272.506.477.875.418.797 1.01 1.935 1.779 3.393 1.545 2.975 3.752 7.243 6.484 12.502a205716.43 205716.43 0 0 1 21.553 41.153c8.449 16.061 16.032 30.634 21.437 41.231 2.674 5.288 4.842 9.576 6.349 12.57.729 1.468 1.293 2.625 1.691 3.432.185.379.321.671.428.894.097.204.136.311.136.311-.01 0-.068-.097-.175-.291a43.329 43.329 0 0 0-.476-.875c-.418-.797-1.011-1.935-1.78-3.393-1.545-2.975-3.752-7.243-6.484-12.503-5.473-10.558-13.105-25.101-21.563-41.162-8.448-16.051-16.031-30.624-21.437-41.221-2.673-5.288-4.841-9.576-6.348-12.57-.73-1.468-1.293-2.625-1.701-3.432-.185-.379-.321-.671-.428-.894-.078-.205-.127-.311-.117-.311Z" fill="#080014"/><path d="M66.64 248.938c.069.02-.203 1.254-.65 3.257a5758.11 5758.11 0 0 1-1.721 7.826c-.671 3.063-1.293 5.824-1.809 7.817a52.5 52.5 0 0 1-.66 2.343c-.176.544-.292.845-.321.836-.068-.02.223-1.255.651-3.257.457-2.129 1.03-4.842 1.662-7.846.671-3.062 1.332-5.823 1.857-7.806a71.65 71.65 0 0 1 .671-2.343c.175-.535.292-.837.32-.827Zm-6.287 22.331c-.039.127-5.716-1.283-12.697-3.159-6.98-1.877-12.6-3.49-12.57-3.627.039-.126 5.717 1.284 12.697 3.16 6.97 1.876 12.6 3.49 12.57 3.626Zm16.235 27.621c0 .029-.321.077-.905.145-.583.059-1.429.127-2.479.195-2.09.116-4.997.214-8.195.146a100.972 100.972 0 0 1-8.186-.477 46.436 46.436 0 0 1-2.47-.291c-.583-.088-.904-.146-.894-.175.01-.068 1.303.009 3.393.126s4.978.272 8.167.331c3.188.068 6.085.029 8.176 0 2.09-.039 3.393-.069 3.393 0Zm10.139-18.939c.059.029-.466 1.108-1.36 2.829a319.023 319.023 0 0 1-3.598 6.659 373.581 373.581 0 0 1-3.714 6.592c-.972 1.672-1.604 2.693-1.662 2.664-.058-.03.467-1.109 1.361-2.829a318.755 318.755 0 0 1 3.597-6.66 373.006 373.006 0 0 1 3.714-6.591c.972-1.673 1.604-2.693 1.662-2.664Zm17.432 22.574c.03.02-.136.37-.447.982-.369.7-.836 1.575-1.38 2.596a585.961 585.961 0 0 1-4.706 8.477 499.1 499.1 0 0 1-4.832 8.41l-1.506 2.518c-.37.593-.584.904-.613.894-.029-.019.136-.369.447-.982.37-.7.837-1.575 1.38-2.595a591.315 591.315 0 0 1 4.706-8.478 584.937 584.937 0 0 1 4.822-8.409c.593-1.002 1.099-1.838 1.507-2.518.379-.593.593-.914.622-.895ZM90.84 325.742c0 .029-.408.068-1.156.107-.74.038-1.818.068-3.15.087-2.664.039-6.339.01-10.393-.185a165.205 165.205 0 0 1-10.363-.797 97.919 97.919 0 0 1-3.13-.389c-.74-.107-1.138-.184-1.138-.214 0-.029.418-.019 1.157.03.836.058 1.886.136 3.14.233 2.644.204 6.31.467 10.354.651 4.044.195 7.719.272 10.373.321 1.254.029 2.304.049 3.15.058.748.039 1.157.068 1.157.098Z" fill="#080014"/><path d="M297.227 288.924c-7.505 0-14.116-1.643-20.533-5.006l-.097-.068c-13.708-12.512-18.52-33.239-13.931-59.926.116-.681.214-1.371.311-2.061.408-2.849.826-5.794 2.586-8.157 2.168-2.926 6.669-4.666 9.907-2.586 2.099 1.352 2.994 3.734 3.859 6.028.204.544.408 1.089.632 1.614a20.296 20.296 0 0 0 7.029 8.72c1.429 1.002 4.2 2.538 6.698 1.585 3.024-1.147 3.899-5.094 4.336-8.41l2.528-19.366c.447-3.46.914-7.048 2.508-10.285 1.808-3.675 4.871-6.144 8.196-6.582 2.002-.272 4.17.369 5.794 1.692 1.39 1.127 2.207 2.634 2.323 4.238.069.934-.097 1.838-.252 2.713-.107.573-.204 1.128-.234 1.682-.077 1.176.234 2.732 1.4 3.247.914.408 2.12.068 3.588-1.011 4.034-2.946 7.009-6.981 9.965-11.21l.68-.972c2.664-3.821 5.415-7.768 8.964-10.908 4.423-3.908 9.459-5.843 14.184-5.463 5.6.456 10.441 4.705 11.034 9.673.516 4.258-1.711 8.681-6.776 13.533a78.861 78.861 0 0 1-18.51 13.173c-1.177.603-2.382 1.225-2.907 2.304-.535 1.098-.146 2.187.272 2.897.554.953 1.497 1.818 2.537 2.324 1.585.768 3.306 1.079 5.134 1.409.933.165 1.905.34 2.838.584 1.663.427 5.629 1.808 6.524 5.337 1.166 4.569-3.84 8.225-6.047 9.586a68 68 0 0 1-21.544 8.642l-.982.205c-2.333.486-4.744.981-6.708 2.255-2.041 1.322-3.753 4.044-2.887 6.484.875 2.489 3.908 3.491 6.329 3.393 1.769-.077 3.451-.563 5.23-1.088.904-.263 1.837-.535 2.771-.749 4.968-1.108 11.569-.078 14.301 4.822 1.613 2.897 1.565 6.737-.127 10.295-1.565 3.286-4.209 5.873-6.601 7.982-9.459 8.342-20.435 13.912-31.752 16.129-4.511.855-8.662 1.302-12.57 1.302Z" fill="#ECB000"/><path d="M278.232 291.938c1.896-8.147 1.42-10.665 5.989-20.737 4.55-10.091 10.471-20.736 17.043-31.664 1.652-2.722 3.286-5.415 4.899-8.069 1.614-2.644 3.209-5.269 4.939-7.739 3.432-4.958 7.107-9.459 10.743-13.63 3.626-4.17 7.233-8.001 10.616-11.559 3.403-3.548 6.63-6.795 9.702-9.634 6.135-5.697 11.618-9.712 15.497-12.308a111.018 111.018 0 0 1 4.531-2.917l1.195-.719c.273-.156.418-.233.418-.233s-.126.097-.389.272c-.281.184-.67.437-1.166.768a166.824 166.824 0 0 0-4.462 2.994 131.493 131.493 0 0 0-15.361 12.415c-3.053 2.848-6.261 6.105-9.644 9.663-3.374 3.568-6.961 7.399-10.568 11.579-3.616 4.171-7.272 8.672-10.684 13.601-1.711 2.46-3.296 5.065-4.919 7.719-1.614 2.654-3.248 5.347-4.9 8.069-6.572 10.918-12.483 21.544-17.052 31.597-4.579 10.042-4.122 12.512-6.067 20.629" fill="#080014"/><path d="M311.226 223.681c-.039 0-.078-.544-.116-1.526-.049-.982-.069-2.402-.078-4.161-.01-3.51.126-8.371.291-13.718.166-5.357.224-10.198.137-13.698a159.64 159.64 0 0 0-.137-4.151c-.038-.982-.048-1.527-.009-1.527s.107.535.214 1.517c.116.972.213 2.401.301 4.151.185 3.51.185 8.371.019 13.728-.175 5.308-.33 10.101-.447 13.707-.039 1.682-.068 3.072-.097 4.152-.01.982-.039 1.526-.078 1.526Z" fill="#080014"/><path d="M357.446 221.561c0 .02-.165.02-.476.01-.37-.019-.817-.039-1.351-.068a136.922 136.922 0 0 0-4.959-.214c-4.19-.136-9.984-.126-16.371.185-6.387.311-12.162.846-16.323 1.361-2.081.243-3.763.486-4.919.642-.535.068-.973.136-1.342.184-.311.039-.467.049-.476.03 0-.02.155-.059.456-.137.36-.077.798-.165 1.323-.282a97.22 97.22 0 0 1 4.909-.816c4.161-.603 9.936-1.206 16.343-1.517 6.406-.301 12.22-.262 16.41-.029 2.1.097 3.792.253 4.958.389.535.068.972.117 1.342.165.321.049.486.078.476.097Zm-72.616 48.872c-.019.01-.097-.194-.223-.583-.136-.447-.321-1.021-.545-1.721-.466-1.497-1.079-3.675-1.818-6.368-1.468-5.395-3.266-12.92-5.143-21.232-1.876-8.322-3.616-15.847-4.987-21.262-.681-2.654-1.244-4.832-1.653-6.407-.184-.709-.33-1.293-.447-1.74-.097-.399-.136-.612-.117-.622.02-.01.098.194.224.593.136.447.321 1.011.544 1.721.467 1.497 1.08 3.675 1.818 6.368 1.468 5.395 3.267 12.92 5.143 21.242 1.877 8.322 3.617 15.837 4.988 21.262.68 2.654 1.244 4.831 1.652 6.406.185.71.331 1.293.448 1.74.087.38.136.594.116.603Z" fill="#080014"/><path d="M347.344 259.603c0 .019-.214.068-.632.146-.467.087-1.079.194-1.818.321-1.653.281-3.918.67-6.699 1.147-5.658.982-13.445 2.43-22.059 4.044-8.613 1.624-16.42 3.014-22.097 3.898-2.839.448-5.134.778-6.728.982-.748.098-1.361.166-1.837.224-.418.049-.642.058-.642.039 0-.02.214-.068.632-.146.467-.087 1.069-.194 1.818-.321l6.698-1.147c5.658-.982 13.446-2.43 22.059-4.044 8.604-1.624 16.42-3.014 22.088-3.899 2.839-.447 5.133-.778 6.728-.982.748-.097 1.361-.165 1.837-.223.428-.039.642-.059.652-.039ZM253.45 410.175l-136.446-.632c-16.411-.077-29.652-13.435-29.584-29.846l1.44-342.083c.068-16.42 13.436-29.671 29.856-29.594l136.446.632c16.411.078 29.652 13.436 29.584 29.846l-1.448 342.084c-.059 16.42-13.426 29.671-29.847 29.593Z" fill="#080014"/><path d="m254.976 20.455-26.453-.127c-3.548-.019-6.436 2.975-6.455 6.69l-.02 4.802c-.009 3.713-2.907 6.698-6.455 6.688l-51.565-.243c-3.548-.02-6.407-3.033-6.397-6.747l.02-4.802c.019-3.704-2.849-6.728-6.397-6.747l-9.304-.04-23.158-.106c-11.501-.049-20.863 9.226-20.911 20.727l-1.41 333.898c-.049 11.491 9.226 20.853 20.717 20.902l136.174.632c11.501.048 20.864-9.226 20.912-20.727l1.41-333.898c.058-11.491-9.216-20.854-20.708-20.902Z" fill="#EBEBEB"/><path d="M180.186 369.236c-.01 1.595-1.274 2.878-2.82 2.878-1.555-.01-2.8-1.303-2.8-2.907.01-1.594 1.274-2.887 2.82-2.877 1.555.009 2.809 1.312 2.8 2.906Zm8.711.04c-.01 1.594-1.274 2.877-2.82 2.877-1.555-.01-2.8-1.302-2.8-2.897.01-1.594 1.274-2.878 2.82-2.878 1.555 0 2.809 1.303 2.8 2.898Zm8.701.039c-.01 1.594-1.274 2.887-2.82 2.877-1.555-.009-2.799-1.302-2.799-2.897.009-1.594 1.273-2.878 2.819-2.878 1.555 0 2.809 1.303 2.8 2.898Z" fill="#8F9296"/><path d="M266.195 184.559c-.535-.019-.962-.515-.953-1.118.01-.602.448-1.098.982-1.098.535 0 .963.496.953 1.118-.019.622-.457 1.118-.982 1.098Zm-.533 7.37c-.525-.068-.904-.603-.846-1.206.059-.603.545-1.05 1.08-1.001.534.048.913.583.845 1.205-.068.613-.554 1.06-1.079 1.002Zm-1.198 7.282c-.525-.107-.846-.681-.729-1.274.117-.593.632-.991 1.157-.904.525.097.855.661.729 1.274-.117.612-.642 1.02-1.157.904Zm-1.854 7.146c-.506-.156-.788-.759-.613-1.332.175-.584.73-.934 1.235-.788.515.146.788.739.613 1.332-.175.593-.73.953-1.235.788Zm-2.51 6.95c-.496-.204-.71-.826-.486-1.39.223-.564.807-.865 1.303-.671.495.185.719.807.486 1.39-.224.574-.807.875-1.303.671Zm-3.13 6.689c-.467-.253-.632-.885-.36-1.429.272-.535.885-.787 1.361-.554.476.233.642.875.36 1.429-.282.554-.885.797-1.361.554Zm-3.724 6.368c-.447-.292-.544-.943-.223-1.449.321-.515.952-.7 1.409-.428.457.273.554.924.224 1.449-.331.535-.963.719-1.41.428Zm-4.286 6.008c-.418-.331-.457-.982-.098-1.468.37-.477 1.012-.613 1.439-.292.428.321.467.972.098 1.468-.38.496-1.021.622-1.439.292Zm-4.823 5.6c-.389-.37-.369-1.021.039-1.468.409-.448 1.06-.516 1.458-.166.399.35.38 1.011-.038 1.468-.418.457-1.07.525-1.459.166Zm-5.298 5.133c-.35-.399-.272-1.05.165-1.459.447-.408 1.108-.418 1.468-.029.37.389.292 1.04-.175 1.458-.447.418-1.108.428-1.458.03Zm-5.736 4.637c-.311-.428-.175-1.07.301-1.439.476-.36 1.137-.321 1.468.097.331.418.194 1.06-.301 1.439-.506.369-1.157.33-1.468-.097Zm-6.144 4.093c-.272-.457-.078-1.089.428-1.4.515-.32 1.157-.214 1.449.234.291.447.097 1.079-.428 1.4-.525.33-1.177.223-1.449-.234Zm-6.485 3.519c-.234-.476.019-1.088.554-1.361.535-.272 1.176-.107 1.419.37.243.476 0 1.079-.554 1.361-.544.272-1.186.107-1.419-.37Zm-6.777 2.917c-.185-.495.117-1.079.68-1.302.564-.224 1.177 0 1.381.495.204.496-.097 1.08-.681 1.303-.573.224-1.195 0-1.38-.496Zm-7.019 2.275c-.136-.515.214-1.069.797-1.235.583-.165 1.176.107 1.332.623.155.505-.195 1.059-.797 1.234-.593.175-1.196-.107-1.332-.622Zm-7.203 1.633c-.097-.525.311-1.04.904-1.157.593-.116 1.157.214 1.274.739.107.525-.292 1.041-.904 1.157-.613.117-1.177-.214-1.274-.739Zm-7.309.962c-.049-.534.408-1.011 1.011-1.069.602-.058 1.137.321 1.196.846.058.525-.389 1.011-1.012 1.069-.622.068-1.156-.311-1.195-.846Zm-7.383.302c0-.535.496-.962 1.099-.972.603-.01 1.098.418 1.118.953.01.534-.476.972-1.099.982-.622 0-1.127-.428-1.118-.963Zm-7.377-.36c.048-.535.583-.923 1.186-.875.603.049 1.06.515 1.03 1.05-.038.535-.563.924-1.186.875-.622-.048-1.079-.525-1.03-1.05Zm-7.312-1.03c.098-.525.661-.865 1.254-.758.594.106 1.012.612.924 1.137-.078.525-.642.865-1.254.758-.613-.107-1.021-.612-.924-1.137Zm-7.193-1.691c.146-.516.739-.798 1.322-.642.583.156.953.7.817 1.215-.127.515-.72.807-1.322.642-.593-.156-.963-.7-.817-1.215Zm-6.998-2.344c.194-.496.807-.729 1.37-.515.564.214.885.787.7 1.293-.175.505-.787.739-1.37.515-.574-.214-.895-.797-.7-1.293Zm-6.76-2.975c.234-.476.875-.651 1.42-.389.544.263.807.866.583 1.352-.224.486-.856.661-1.419.389-.564-.273-.817-.875-.584-1.352Zm-6.454-3.578c.282-.456.924-.573 1.449-.262.515.311.719.933.457 1.4-.263.467-.914.583-1.449.262-.535-.32-.739-.943-.457-1.4Zm-6.105-4.151c.32-.428.972-.486 1.468-.126.486.35.632.991.33 1.429-.311.437-.962.496-1.458.126-.515-.359-.661-1.001-.34-1.429Zm-5.705-4.676c.36-.399 1.011-.389 1.468 0 .457.399.544 1.05.194 1.458-.34.409-1.001.409-1.468 0-.457-.418-.554-1.069-.194-1.458Zm-5.253-5.181c.389-.36 1.05-.302 1.459.136.418.437.447 1.098.068 1.468-.38.369-1.031.311-1.459-.136-.437-.457-.466-1.109-.068-1.468Zm-4.772-5.639c.427-.321 1.069-.204 1.448.272s.34 1.128-.068 1.468c-.408.34-1.06.214-1.448-.272-.38-.486-.35-1.147.068-1.468Zm-4.228-6.038c.447-.281 1.079-.107 1.41.399.33.506.243 1.157-.205 1.458-.437.302-1.069.117-1.409-.398-.341-.525-.253-1.177.204-1.459Zm-3.675-6.407c.476-.243 1.089-.009 1.371.525.282.535.136 1.177-.331 1.43-.466.252-1.079.019-1.371-.525-.291-.545-.136-1.186.331-1.43Zm-3.073-6.708c.496-.194 1.089.088 1.322.652.233.554.029 1.176-.457 1.39-.486.214-1.079-.078-1.322-.651-.243-.564-.029-1.196.457-1.391Zm-2.441-6.96c.516-.156 1.07.194 1.255.768.184.574-.078 1.176-.584 1.342-.505.165-1.069-.175-1.254-.768-.185-.593.078-1.196.583-1.342Zm-1.799-7.166c.525-.107 1.05.292 1.176.875.126.593-.185 1.167-.71 1.284-.515.126-1.05-.273-1.176-.875-.126-.603.194-1.177.71-1.284Zm-1.126-7.291c.535-.058 1.021.38 1.089.982.078.603-.291 1.147-.826 1.216-.525.077-1.021-.37-1.089-.982-.078-.613.292-1.157.826-1.216Zm-.477-7.369c.535-.01.982.476 1.001 1.079.02.603-.398 1.108-.933 1.138-.535.029-.982-.457-1.001-1.079-.01-.623.408-1.128.933-1.138Zm.194-7.379c.535.039.934.564.904 1.157-.038.602-.495 1.069-1.03 1.05-.535-.02-.933-.545-.904-1.157.039-.622.505-1.089 1.03-1.05Zm.866-7.34c.525.088.885.642.787 1.235-.087.593-.593 1.021-1.118.953-.525-.068-.884-.623-.787-1.235.087-.612.593-1.04 1.118-.953Zm1.516-7.223c.516.136.817.719.671 1.303-.146.583-.68.962-1.196.845-.515-.116-.816-.7-.67-1.302.145-.603.68-.982 1.195-.846Zm2.177-7.058c.505.185.748.788.554 1.361-.194.574-.768.895-1.274.729-.505-.165-.758-.777-.554-1.361.204-.583.778-.904 1.274-.729Zm2.821-6.825c.486.224.671.856.428 1.41-.243.554-.846.826-1.332.612-.486-.214-.681-.836-.428-1.409.253-.564.846-.836 1.332-.613Zm3.431-6.533c.457.272.593.914.292 1.439s-.914.748-1.381.486c-.466-.253-.602-.895-.291-1.439.301-.545.914-.758 1.38-.486Zm4.004-6.203c.438.312.506.963.166 1.459-.341.496-.982.661-1.42.359-.447-.291-.515-.952-.165-1.458.35-.515.982-.671 1.419-.36Zm4.562-5.813c.398.35.418 1.011.029 1.468-.389.466-1.04.563-1.449.233-.418-.331-.428-.992-.029-1.468.389-.476 1.04-.583 1.449-.233Zm5.054-5.377c.369.38.321 1.041-.107 1.468-.428.428-1.079.467-1.468.098-.379-.37-.34-1.031.107-1.468.447-.438 1.099-.477 1.468-.098Zm5.523-4.889c.331.418.233 1.069-.233 1.448-.467.389-1.118.37-1.468-.039-.35-.408-.243-1.05.233-1.448.476-.399 1.137-.379 1.468.039Zm5.95-4.375c.292.447.136 1.079-.369 1.419-.496.34-1.147.262-1.458-.165-.312-.438-.146-1.07.369-1.42.505-.35 1.157-.282 1.458.166Zm6.308-3.821c.253.466.029 1.089-.496 1.38-.525.292-1.166.166-1.438-.301-.273-.457-.049-1.079.495-1.381.545-.301 1.187-.165 1.439.302Zm6.642-3.218c.214.486-.068 1.089-.613 1.332-.554.243-1.176.058-1.4-.428-.223-.486.049-1.079.613-1.332.564-.253 1.196-.068 1.4.428Zm6.9-2.605c.165.505-.165 1.079-.739 1.273-.573.195-1.176-.058-1.361-.554-.184-.505.146-1.069.739-1.273.593-.205 1.196.048 1.361.554Zm7.119-1.964c.117.525-.263 1.059-.846 1.195-.583.146-1.166-.165-1.303-.68-.136-.515.244-1.05.846-1.196.603-.146 1.186.165 1.303.681Zm7.271-1.303c.068.525-.36 1.03-.953 1.118-.593.087-1.147-.272-1.235-.797-.087-.525.34-1.021.953-1.118.612-.088 1.167.272 1.235.797Zm7.35-.632c.019.534-.447.991-1.05 1.021-.603.029-1.118-.37-1.157-.905-.039-.534.437-.991 1.05-1.02.622-.039 1.137.369 1.157.904Zm7.388.019c-.029.535-.534.943-1.137.924-.603-.019-1.079-.467-1.07-1.001.01-.535.525-.943 1.138-.924.612.019 1.089.476 1.069 1.001Zm7.349.691c-.078.525-.622.894-1.215.816-.603-.077-1.04-.563-.982-1.098.058-.525.603-.895 1.215-.817.622.088 1.06.574.982 1.099Zm7.263 1.361c-.127.515-.7.836-1.293.7-.593-.127-.982-.661-.875-1.176.107-.525.68-.837 1.293-.7.603.126.991.651.875 1.176Zm7.098 2.012c-.165.506-.778.768-1.351.583-.574-.184-.914-.748-.758-1.254.155-.505.758-.768 1.351-.583.593.185.933.749.758 1.254Zm6.891 2.654c-.214.486-.836.69-1.39.457-.554-.233-.846-.827-.642-1.322.205-.496.827-.7 1.391-.457.564.243.855.836.641 1.322Zm6.612 3.276c-.263.467-.904.613-1.429.331-.535-.282-.768-.904-.525-1.371.243-.476.884-.622 1.429-.33.554.291.787.904.525 1.37Zm6.291 3.87c-.301.438-.952.525-1.458.194-.506-.33-.681-.962-.389-1.419.282-.447.933-.535 1.458-.194.516.34.691.972.389 1.419Zm5.908 4.413c-.34.409-.991.438-1.468.068-.466-.379-.593-1.02-.262-1.448.321-.418.982-.447 1.468-.068.486.389.602 1.04.262 1.448Zm5.494 4.939c-.379.38-1.03.35-1.468-.068-.437-.418-.496-1.069-.136-1.458s1.021-.36 1.468.068c.447.418.506 1.079.136 1.458Zm5.016 5.405c-.409.341-1.06.253-1.459-.204-.398-.457-.398-1.108 0-1.468.399-.359 1.05-.262 1.459.204.408.467.408 1.128 0 1.468Zm4.513 5.844c-.438.301-1.079.155-1.429-.331-.35-.486-.292-1.147.136-1.458.428-.321 1.069-.175 1.429.33.36.496.301 1.147-.136 1.459Zm3.957 6.222c-.466.262-1.089.058-1.39-.457-.311-.515-.185-1.167.262-1.449.457-.281 1.08-.068 1.391.457.321.535.204 1.186-.263 1.449Zm3.38 6.562c-.486.224-1.089-.039-1.351-.583-.263-.545-.078-1.177.399-1.41.476-.233 1.079.029 1.351.583.262.554.087 1.186-.399 1.41Zm2.763 6.844c-.505.175-1.079-.136-1.283-.71-.204-.564.029-1.176.525-1.371.496-.194 1.069.127 1.283.71.214.574-.019 1.196-.525 1.371Zm2.129 7.068c-.516.126-1.06-.243-1.216-.827-.155-.583.137-1.176.652-1.322.515-.146 1.059.224 1.215.826.156.603-.136 1.187-.651 1.323Zm1.469 7.233c-.525.077-1.04-.341-1.138-.934-.097-.593.243-1.157.768-1.254.525-.097 1.031.321 1.138.934.107.612-.243 1.166-.768 1.254Zm.806 7.34c-.535.029-1.001-.428-1.05-1.03-.049-.603.35-1.128.875-1.177.535-.048 1.001.409 1.05 1.031.049.612-.34 1.137-.875 1.176Z" fill="#E0E0E0"/><path d="M264.395 52.946c0 .69-.564 1.254-1.254 1.254-.69 0-1.254-.564-1.254-1.255 0-.69.564-1.254 1.254-1.254.69 0 1.254.564 1.254 1.255Zm0 4.491c0 .69-.564 1.254-1.254 1.254-.69 0-1.254-.564-1.254-1.254 0-.69.564-1.254 1.254-1.254.69.01 1.254.563 1.254 1.254Zm0 4.501c0 .69-.564 1.254-1.254 1.254-.69 0-1.254-.563-1.254-1.254 0-.69.564-1.254 1.254-1.254.69 0 1.254.564 1.254 1.254ZM115.738 50.709c0-.02.155.107.447.35.34.292.768.661 1.293 1.108 1.186 1.04 2.809 2.48 4.793 4.23l.058.048v.087c.01 2.149.029 4.647.049 7.389v.224h-.234c-1.477 0-3.033.01-4.656.02h-.243v-.244c0-1.42-.001-2.907-.01-4.423l.253.252h-3.18l.253-.252c0 1.516 0 2.994-.009 4.423v.243h-.244c-1.74-.01-3.402-.01-4.997-.02h-.233v-.223c.02-2.742.029-5.22.049-7.389v-.087l.058-.049c1.983-1.75 3.607-3.179 4.793-4.229.525-.457.953-.826 1.293-1.108.311-.243.467-.36.467-.35 0 .02-.156.175-.448.457-.33.311-.748.72-1.263 1.205a1924.64 1924.64 0 0 0-4.589 4.297l.058-.136c.01 2.159.029 4.647.049 7.389l-.224-.224c1.585 0 3.257-.01 4.997-.019l-.243.243c0-1.43 0-2.916-.01-4.423v-.253h3.685v.253c0 1.516 0 3.004-.01 4.423l-.243-.243c1.614.01 3.179.01 4.657.01l-.224.223c.02-2.741.03-5.24.049-7.388l.058.136c-1.895-1.78-3.451-3.238-4.588-4.297-.516-.496-.934-.895-1.264-1.206-.302-.272-.447-.428-.447-.447Zm136.601 275.285c0 .116-30.925.204-69.064.204-38.149 0-69.074-.088-69.074-.204 0-.117 30.916-.204 69.074-.204 38.139 0 69.064.097 69.064.204Zm0 13.805c0 .116-30.925.204-69.064.204-38.149 0-69.074-.088-69.074-.204 0-.117 30.916-.205 69.074-.205 38.139-.009 69.064.088 69.064.205Zm-39.072 13.795c0 .117-13.426.204-29.992.204-16.566 0-29.992-.087-29.992-.204 0-.116 13.426-.204 29.992-.204 16.557 0 29.992.088 29.992.204Z" fill="#080014"/><path d="M175.782 303.312c0 .661-.136 1.225-.408 1.702a3.273 3.273 0 0 1-1.138 1.166c-.476.302-1.04.525-1.682.671a9.091 9.091 0 0 1-2.032.214h-7.184v-14.631h8.487c.506 0 .972.107 1.381.33a3.61 3.61 0 0 1 1.05.856c.291.35.515.748.67 1.195.156.448.234.905.234 1.371 0 .691-.175 1.342-.525 1.964a3.288 3.288 0 0 1-1.575 1.41c.836.253 1.497.68 1.983 1.283.486.613.739 1.439.739 2.469Zm-8.429-7.456v2.245h2.742c.272 0 .525-.077.748-.223.224-.156.34-.457.34-.904 0-.399-.097-.681-.291-.856a.98.98 0 0 0-.681-.262h-2.858Zm4.346 6.63c0-.36-.098-.651-.292-.894a.897.897 0 0 0-.739-.36h-3.315v2.45h3.169c.331 0 .613-.107.836-.311.224-.204.341-.496.341-.885Zm10.917 4.773c-.972 0-1.828-.155-2.567-.466a5.599 5.599 0 0 1-1.857-1.235 5.02 5.02 0 0 1-1.137-1.789 6.057 6.057 0 0 1-.379-2.129c0-.739.126-1.448.379-2.129a5.038 5.038 0 0 1 1.137-1.789 5.597 5.597 0 0 1 1.857-1.234c.739-.311 1.585-.467 2.567-.467.962 0 1.818.156 2.557.467.739.311 1.361.719 1.866 1.234a5.168 5.168 0 0 1 1.138 1.789c.253.681.379 1.39.379 2.129 0 .739-.126 1.449-.379 2.129a5.01 5.01 0 0 1-1.138 1.789c-.505.515-1.127.924-1.866 1.235-.739.321-1.595.466-2.557.466Zm-1.915-5.619c0 .729.175 1.293.534 1.711.36.409.817.623 1.381.623.564 0 1.021-.205 1.38-.623.36-.408.535-.982.535-1.711 0-.729-.175-1.293-.535-1.711-.359-.408-.816-.612-1.38-.612s-1.021.204-1.381.612c-.359.418-.534.982-.534 1.711Zm16.38 5.415-2.45-3.956-.778.865v3.091h-3.917v-15.039h3.917v8.215l2.888-4.016h4.122l-3.724 4.735 4.103 6.096h-4.161v.009Zm5.622-6.173v-8.594h3.908v8.594h-3.908Zm0 6.173v-3.791h3.908v3.791h-3.908Z" fill="#ECB000"/><path d="M236.725 235.07c29.165-29.166 29.165-76.452 0-105.617-29.166-29.166-76.452-29.166-105.618 0-29.165 29.165-29.165 76.451 0 105.617 29.166 29.165 76.452 29.165 105.618 0Z" fill="#fff"/><path d="M230.088 160.421c-.194-5.503 3.189-11.142 1.196-16.265-1.478-3.811-5.551-6.105-7.194-9.848-1.585-3.617-.603-7.768.068-11.657.661-3.889.797-8.4-1.964-11.229-2.265-2.323-5.882-2.838-8.273-5.045-2.168-2.003-2.966-5.085-3.15-8.03-.185-2.946.146-5.911-.224-8.838-.768-5.998-4.676-11.5-10.082-14.194-5.405-2.693-12.152-2.508-17.217 2.703l18.161 68.986c10.188 1.818 19.657 6.689 28.679 13.417Z" fill="#080014"/><path d="M230.488 132.208s.224.038.564.291c.331.253.759.768.924 1.565.155.768.078 1.896-.768 2.732-.826.836-2.285 1.167-3.675.749-1.429-.379-2.625-1.701-3.14-3.306-.554-1.613-.428-3.499.078-5.298.486-1.818 1.332-3.597 1.944-5.503.622-1.895.836-3.995.428-6.076-.739-4.18-3.539-7.661-6.874-9.177-1.652-.797-3.354-1.322-4.851-2.061-1.507-.71-2.79-1.702-3.646-2.849a9.671 9.671 0 0 1-1.681-3.431 9.31 9.31 0 0 1-.311-2.868c.029-.798.165-1.4.272-1.799.126-.399.194-.603.204-.603.058.01-.301.836-.321 2.401-.01.778.068 1.74.369 2.8a9.524 9.524 0 0 0 1.692 3.316c.846 1.098 2.071 2.031 3.558 2.722 1.478.709 3.17 1.225 4.871 2.032 3.442 1.555 6.348 5.142 7.107 9.449.418 2.139.194 4.336-.457 6.271-.622 1.944-1.468 3.704-1.954 5.483-.506 1.76-.632 3.558-.117 5.094.476 1.536 1.585 2.761 2.907 3.131 1.303.408 2.654.107 3.432-.642.787-.749.894-1.808.768-2.537-.127-.759-.516-1.264-.817-1.527-.311-.272-.525-.33-.506-.359Zm-64.389-47.832c-2.605 7.078-3.772 12.833-6.329 18.462-1.439 3.189-3.364 6.387-3.179 9.887.127 2.401 1.245 4.686 1.176 7.087-.106 4.229-3.704 7.418-6.883 10.198-3.188 2.781-6.513 6.446-5.852 10.626.282 1.818 1.322 3.471 1.478 5.299.194 2.236-.953 4.375-2.343 6.154-1.381 1.769-3.043 3.344-4.152 5.298l-.495 3.374 39.811-12.59" fill="#080014"/><path d="M263.512 145.935c-1.001-6.669-.048-13.416-.311-16.896-.486-6.475-1.079-6.456-1.827-6.29-2.013.447.427 11.413-1.468 9.323-1.896-2.09-1.42-13.718-3.5-13.164-2.713.72.058 12.162.214 13.144.155.953-1.264 1.216-1.362.321-.145-1.283-1.973-14.758-4.647-14.077-1.477.379-.486 2.975-.486 2.975s2.645 12.502 1.371 12.784c-1.293.282-3.091-7.009-3.529-9.508-.428-2.469-1.779-3.296-2.722-2.226-.642.729.505 8.409.992 10.869.486 2.459 1.944 9.197-1.488 6.387-3.422-2.81-7.097-3.714-8.244-3.276-1.147.437-.914 2.197.408 2.557 1.07.291 2.713 1.322 3.918 2.138.992.681 1.779 1.595 2.586 2.47.865.943 4.025 4.793 4.783 8.662l15.312-6.193Z" fill="#FFBE9D"/><path d="M259.266 142.523c.02.058-.418.165-1.021.573-.593.399-1.37 1.167-1.672 2.304l-.146.535-.282-.486a6.72 6.72 0 0 0-1.545-1.779c-1.391-1.147-3.034-1.614-4.21-1.692-1.186-.107-1.925.107-1.944.01-.02-.039.7-.389 1.954-.37 1.234-.009 3.014.428 4.501 1.653a6.598 6.598 0 0 1 1.633 1.935l-.427.058a4.038 4.038 0 0 1 1.973-2.43c.71-.35 1.176-.35 1.186-.311Z" fill="#EB996E"/><path d="m264.027 144.642-16.935 6.679 4.929 37.974-3.568-5.445-6.708-8.72c-17.947-30.906-40.939-26.016-40.939-26.016l-30.264-2.362s-19.162.34-30.206 12.872c-2.839 3.217-19.269 36.077-26.065 49.766 4.191 10.752 10.811 20.299 19.172 27.96l17.266-35.679 2.926 12.512a37.92 37.92 0 0 1 .078 20.804l-4.647 13.368c10.393 5.483 22.234 8.594 34.804 8.594 13.533 0 26.23-3.597 37.177-9.897l-4.453-10.577a38.555 38.555 0 0 1-2.236-22.438l3.238-16.168 18.082 17.198c2.11 2.363 4.181 4.288 6.144 5.843 8.371 6.65 14.904 6.825 14.904 6.825 28.67-1.147 7.301-83.093 7.301-83.093Z" fill="#171751"/><path d="M160.83 178.299a1.108 1.108 0 1 1-2.216 0 1.108 1.108 0 0 1 2.216 0Zm-8 11.578a1.108 1.108 0 1 1-1.108-1.108 1.095 1.095 0 0 1 1.108 1.108Zm25.264-11.578a1.108 1.108 0 1 1-2.216 0 1.108 1.108 0 0 1 2.216 0Zm-25.577-23.187a1.107 1.107 0 1 1-2.217.001 1.107 1.107 0 0 1 2.217-.001Zm33.569 36.399a1.108 1.108 0 1 1-2.216 0 1.108 1.108 0 0 1 2.216 0Zm13.689-4.676a1.108 1.108 0 1 1-2.216 0 1.108 1.108 0 0 1 2.216 0Zm22.088-11.064a1.108 1.108 0 1 1-2.216.002 1.108 1.108 0 0 1 2.216-.002Zm20.473 18.219a1.107 1.107 0 1 1-2.215.001 1.107 1.107 0 0 1 2.215-.001Zm10.802 6.203a1.107 1.107 0 1 1-1.108-1.108 1.095 1.095 0 0 1 1.108 1.108Zm3.082 15.662a1.107 1.107 0 1 1-2.216 0c0-.613.496-1.109 1.108-1.109a1.096 1.096 0 0 1 1.108 1.109Zm10.54-11.142a1.108 1.108 0 1 1-2.217.001 1.108 1.108 0 0 1 2.217-.001Zm-7.108-14.836a1.108 1.108 0 1 1-1.108-1.108 1.095 1.095 0 0 1 1.108 1.108Zm7.108-12.687a1.108 1.108 0 1 1-2.217.001 1.108 1.108 0 0 1 2.217-.001Zm-8.856-11.091a1.108 1.108 0 1 1-2.216 0 1.108 1.108 0 0 1 2.216 0Zm6.231-12.095a1.108 1.108 0 1 1-2.217.001 1.108 1.108 0 0 1 2.217-.001Zm-24.327 56.202a1.107 1.107 0 1 1-2.215.001 1.107 1.107 0 0 1 2.215-.001Zm-12.363-17.587a1.107 1.107 0 1 1-2.215.001 1.107 1.107 0 0 1 2.215-.001Zm14.891-11.724a1.108 1.108 0 1 1-2.216 0 1.108 1.108 0 0 1 2.216 0Zm-76.609-15.915a1.108 1.108 0 1 0 .002-2.216 1.108 1.108 0 0 0-.002 2.216Zm-28.803 23.78a1.108 1.108 0 1 1-2.216 0 1.108 1.108 0 0 1 2.216 0Zm-1.108 29.292a1.108 1.108 0 1 1-1.108-1.109c.612 0 1.108.486 1.108 1.109Zm-10.635 7.427a1.108 1.108 0 1 0 0-2.216 1.108 1.108 0 0 0 0 2.216Zm37.875-31.489a1.107 1.107 0 1 1-2.217.001 1.107 1.107 0 0 1 2.217-.001Zm15.428 7.311a1.107 1.107 0 1 1-2.215.001 1.107 1.107 0 0 1 2.215-.001Zm27.619 1.108a1.107 1.107 0 1 1-2.215.001 1.107 1.107 0 0 1 2.215-.001Zm7.157-14.758a1.108 1.108 0 1 1-2.217.001 1.108 1.108 0 0 1 2.217-.001Zm-5.375 51.867a1.108 1.108 0 1 1-2.216 0 1.108 1.108 0 0 1 2.216 0Zm0 11.549a1.108 1.108 0 1 1-2.217.001 1.108 1.108 0 0 1 2.217-.001Zm4.265-30.799a1.108 1.108 0 1 1-2.216 0 1.108 1.108 0 0 1 2.216 0Zm-19.025-8.954a1.108 1.108 0 1 1-2.217.001 1.108 1.108 0 0 1 2.217-.001Zm4.435 14.175a1.107 1.107 0 1 1-2.217.001 1.107 1.107 0 0 1 2.217-.001Zm-21.3-6.329a1.108 1.108 0 1 1-2.216 0 1.108 1.108 0 0 1 2.216 0Zm-4.678 26.132a1.108 1.108 0 1 1-2.216.002 1.108 1.108 0 0 1 2.216-.002Zm10.441-10.451a1.107 1.107 0 1 1-2.215.001 1.107 1.107 0 0 1 2.215-.001Zm-22.146 14.029a1.107 1.107 0 1 1-1.109-1.108 1.102 1.102 0 0 1 1.109 1.108Zm22.145 7.428a1.11 1.11 0 1 0-.001-2.22 1.11 1.11 0 0 0 .001 2.22Zm12.105-9.897a1.108 1.108 0 1 1-2.216 0 1.108 1.108 0 0 1 2.216 0Zm-32.18-35.087a1.108 1.108 0 1 1-2.216.002 1.108 1.108 0 0 1 2.216-.002Zm-.563 22.429a1.108 1.108 0 1 0 0-2.216 1.108 1.108 0 0 0 0 2.216Zm-37.089-27.912a1.107 1.107 0 1 1-1.109-1.108 1.108 1.108 0 0 1 1.109 1.108Zm16.332-1.118a1.108 1.108 0 1 1-2.217.001 1.108 1.108 0 0 1 2.217-.001Zm5.377-34.522a1.108 1.108 0 1 1-2.217.001 1.108 1.108 0 0 1 2.217-.001Z" fill="#FAFAFA"/><path opacity=".2" d="M150.711 201.67s2.936-6.669 2.79-6.572c-.146.097 2.79 25.403 1.497 32.646.01 0-1.127-14.777-4.287-26.074Zm46.604-38.664-7.233 7.836c-.243 3.656 2.052 8.983 4.181 11.968.962 1.351 2.245 2.693 3.898 2.819.875.068 1.721-.223 2.547-.505 6.436-2.227 12.872-4.453 19.298-6.679-.535-.866-1.06-1.731-1.594-2.596 2.411 1.594 5.551 2.042 8.312 1.196 2.761-.846 5.114-2.975 6.222-5.649-6.64-2.965-11.209-9.284-11.209-16.556l-3.578-2.022-20.844 10.188Zm12.055 52.576c.204.545-8.468 4.2-19.123 8.711-10.674 4.501-19.327 8.167-19.58 7.642-.243-.496 8.06-5.007 18.783-9.538 10.704-4.53 19.726-7.34 19.92-6.815Z" fill="#000"/><path d="M254.568 204.597c-.107.019-.855-3.452-1.672-7.749-.807-4.307-1.38-7.807-1.264-7.826.107-.019.856 3.451 1.672 7.748.807 4.297 1.371 7.797 1.264 7.827Zm3.792-1.585c-.039.029-.564-.642-1.293-1.809a40.033 40.033 0 0 1-2.528-4.734 39.909 39.909 0 0 1-1.876-5.036c-.389-1.322-.545-2.158-.496-2.168.058-.019.321.787.768 2.08a60.195 60.195 0 0 0 1.973 4.949 64.07 64.07 0 0 0 2.402 4.754c.671 1.205 1.108 1.935 1.05 1.964Zm-104.51-13.115c-.01 0-.019-.136-.01-.379.01-.291.03-.651.049-1.079.058-1.001.136-2.343.224-3.976.145-3.344.32-8.021-.749-13.027-1.079-4.997-3.529-9.09-5.901-11.433-2.353-2.392-4.356-3.179-4.287-3.267.009-.01.126.039.35.136.223.117.563.243.962.496.826.457 1.964 1.244 3.179 2.43 2.46 2.334 4.997 6.485 6.096 11.55 1.088 5.065.855 9.78.641 13.125a108.307 108.307 0 0 1-.35 3.966c-.048.428-.097.778-.126 1.079-.039.253-.058.379-.078.379Zm62.997-13.571c.049-.01.233.943.428 2.489.194 1.545.369 3.694.427 6.066a62.86 62.86 0 0 1-.145 6.086c-.117 1.555-.253 2.508-.311 2.498-.059-.009-.02-.962.019-2.518.039-1.555.078-3.694.019-6.056a121.056 121.056 0 0 0-.311-6.057c-.097-1.536-.184-2.499-.126-2.508Zm-42.806-30.391c.612-7.719 9.518-3.023 8.526-10.694a323.83 323.83 0 0 1-2.498-52.177" fill="#080014"/><path d="m201.048 146.139 3.442-52.74c-8.798-12.075-20.659-14.632-35.086-10.335 0 0-6.125 25.491-5.406 37.672.759 12.775 10.237 15.322 10.237 15.322s-.33 4.297-.797 9.566c-2.45.399-5.026.924-7.719 1.594-1.031.253 19.094 29.322 19.094 29.322l25.102-27.192c.019 0-3.014-1.809-8.867-3.209Z" fill="#FFBE9D"/><path d="M169.424 103.032c-.117.846.515 1.643 1.39 1.779.885.136 1.692-.437 1.809-1.293.116-.846-.516-1.643-1.391-1.779-.884-.136-1.701.447-1.808 1.293Z" fill="#080014"/><path d="M167.489 101.642c.175.233 1.487-.554 3.227-.379 1.741.146 2.927 1.167 3.131.972.097-.087-.068-.486-.583-.943-.506-.457-1.4-.943-2.479-1.04-1.08-.097-2.032.204-2.596.564-.574.359-.797.729-.7.826Zm19.667 3.451c-.116.846.516 1.643 1.391 1.779.884.136 1.691-.437 1.808-1.293.117-.845-.515-1.643-1.39-1.779-.885-.136-1.692.438-1.809 1.293Z" fill="#080014"/><path d="M185.251 103.674c.175.233 1.487-.554 3.227-.379 1.74.145 2.926 1.166 3.131.972.097-.088-.059-.486-.584-.943-.505-.457-1.4-.943-2.479-1.04-1.079-.098-2.032.204-2.596.563-.573.36-.797.72-.699.827Zm-7.788 11.958c.02-.098-1.04-.389-2.771-.788-.437-.087-.845-.223-.894-.525-.068-.33.156-.787.428-1.283.525-1.031 1.069-2.11 1.643-3.247 2.294-4.628 3.996-8.449 3.811-8.536-.185-.088-2.197 3.587-4.492 8.215-.554 1.137-1.089 2.226-1.594 3.267-.214.486-.564 1.03-.399 1.72.088.341.389.613.661.72.273.116.525.146.739.175 1.76.272 2.849.379 2.868.282Z" fill="#080014"/><path d="M174.246 136.058s8.409 1.38 17.285-2.839c0 0-4.939 8.234-17.412 5.823l.127-2.984Zm3.538-16.169c.71-.768 1.847-1.108 2.917-.884.748.155 1.468.593 1.866 1.254.399.661.409 1.536-.068 2.08-.534.613-1.526.671-2.333.35-.807-.321-1.468-.933-2.09-1.546-.175-.165-.35-.34-.447-.563-.098-.214-.098-.487.068-.642" fill="#EB996E"/><path d="M182.45 117.343c-.282-.049-.467 1.837-2.217 3.014-1.74 1.186-3.733.777-3.772 1.04-.039.116.409.408 1.254.515a4.762 4.762 0 0 0 3.141-.758c1.059-.72 1.594-1.779 1.73-2.547.165-.778 0-1.264-.136-1.264Zm-9.021-18.238c-.107.262-1.303.019-2.761.019-1.458-.02-2.654.214-2.761-.058-.107-.243 1.089-.953 2.761-.943 1.672.01 2.868.739 2.761.982Zm17.47.748c-.059-.039-.059-.136-.02-.301l.039.252c-.476-.116-1.468-.573-2.722-.67-1.643-.175-2.946.36-3.082.106-.068-.116.194-.418.768-.7.564-.282 1.439-.495 2.411-.408 1.497.117 2.586.933 2.849 1.361l.126.204-.078.059c-.146.097-.243.136-.291.097Z" fill="#080014"/><path d="M191.336 111.159c-.136.02-.272-.175-.301-.418-.029-.252.058-.466.194-.476.136-.019.273.175.302.418.029.243-.059.457-.195.476Zm-3.975-.175c-.136-.009-.233-.233-.126-.476.097-.243.331-.33.428-.233.107.087.097.272.029.428-.068.165-.194.291-.331.281Zm2.146 1.721c-.136-.009-.243-.155-.233-.321.01-.165.126-.301.272-.291.136.009.243.155.234.321-.01.165-.127.301-.273.291Zm-22.709-2.499c-.136-.019-.224-.233-.195-.486.029-.253.166-.437.302-.418.136.02.223.234.194.486-.029.253-.165.438-.301.418Zm4.016.088c-.136-.01-.243-.175-.233-.379.009-.204.136-.36.272-.36.136.01.243.175.233.379-.019.204-.136.36-.272.36Zm-1.964 1.264c-.136 0-.252-.204-.252-.447 0-.253.107-.447.243-.457.136 0 .252.204.252.447.01.253-.097.457-.243.457Z" fill="#EB996E"/><path d="M181.547 76.997c-.516 6.037-3.063 11.88-7.136 16.362-4.074 4.482-8.682 8.4-14.641 9.479 1.623-5.133 1.963-9.275 3.286-13.552 1.312-4.288 3.149-8.594 6.503-11.57 4.181-3.703 10.529-4.744 15.672-2.556" fill="#080014"/><path d="M161.045 97.997c-.01-.107 1.517.155 3.801-.487 1.128-.34 2.421-.933 3.714-1.827 1.293-.885 2.596-2.042 3.898-3.306 2.567-2.576 4.395-5.356 5.688-7.36.603-.962 1.098-1.768 1.497-2.4.35-.574.554-.885.583-.866.02.01-.126.35-.437.943a54.408 54.408 0 0 1-1.39 2.48c-1.235 2.05-3.043 4.88-5.649 7.495-1.322 1.283-2.644 2.43-3.976 3.325-1.322.904-2.674 1.487-3.84 1.798-1.177.292-2.168.35-2.839.321-.681-.029-1.05-.097-1.05-.116Zm3.868.622c.009.01-.117.175-.36.476a18.65 18.65 0 0 0-1.001 1.371 16.792 16.792 0 0 0-2.421 5.697 16.404 16.404 0 0 0-.389 4.258c.049 1.536.369 3.169.729 4.88.35 1.711.758 3.52.817 5.454a12.525 12.525 0 0 1-1.235 5.804c-.885 1.847-2.178 3.452-3.723 4.628-1.546 1.167-3.228 1.944-4.54 3.053-1.313 1.088-2.266 2.566-2.236 4.083.009 1.516.719 2.839 1.341 3.976.651 1.137 1.293 2.178 1.633 3.189.35 1.001.496 1.934.428 2.683-.058.758-.301 1.303-.525 1.633-.214.331-.379.467-.379.467-.019-.02.126-.165.311-.506.185-.33.399-.875.438-1.604.038-.729-.117-1.623-.477-2.595-.35-.982-.991-1.984-1.672-3.131-.642-1.137-1.4-2.479-1.429-4.122a4.748 4.748 0 0 1 .642-2.392c.418-.748 1.011-1.409 1.691-1.983 1.361-1.166 3.053-1.954 4.54-3.091 1.488-1.138 2.742-2.684 3.597-4.482a12.092 12.092 0 0 0 1.196-5.619c-.048-1.877-.437-3.675-.787-5.386-.35-1.711-.671-3.364-.7-4.939-.059-1.575.146-3.033.447-4.336a16.275 16.275 0 0 1 2.576-5.716c.428-.603.807-1.05 1.07-1.332.262-.282.408-.428.418-.418Z" fill="#8F9296"/><path d="M150.602 125.315c.029-.01.097.223.34.593.233.369.69.885 1.448 1.273.749.38 1.809.623 2.985.428 1.186-.175 2.392-1.001 3.179-2.284.778-1.284 1.147-2.985.914-4.745-.233-1.759-1.05-3.538-2.178-5.201-1.098-1.692-2.615-3.208-3.82-5.114-.594-.952-1.07-2.031-1.274-3.188a7.89 7.89 0 0 1 .185-3.529c.651-2.343 2.391-4.19 4.384-5.23.992-.545 2.11-.779 3.14-1.002 1.041-.214 2.061-.428 3.034-.7 3.947-1.011 6.776-3.53 9.119-5.464 2.314-2.012 3.947-3.908 4.88-5.337.943-1.439 1.167-2.382 1.215-2.363.01 0-.058.234-.194.662-.156.427-.438 1.04-.885 1.779-.904 1.477-2.508 3.422-4.822 5.473-1.157 1.02-2.459 2.1-3.957 3.14-1.477 1.07-3.276 1.915-5.249 2.47-.982.281-2.013.505-3.053.729-1.04.223-2.09.447-3.043.972-1.906.991-3.558 2.771-4.171 4.987a7.518 7.518 0 0 0-.175 3.345c.185 1.098.632 2.119 1.216 3.042 1.156 1.848 2.683 3.393 3.791 5.114 1.137 1.702 1.974 3.529 2.197 5.367.234 1.837-.175 3.597-1.001 4.938-.836 1.342-2.139 2.198-3.383 2.363-1.245.194-2.334-.088-3.102-.506-.768-.427-1.225-.972-1.439-1.371-.233-.398-.281-.641-.281-.641Z" fill="#080014"/><path d="M225.248 156.561c-.049-.039.719-.768 1.546-2.44a12.37 12.37 0 0 0 1.011-3.218c.214-1.293.272-2.82-.059-4.443a11.144 11.144 0 0 0-2.255-4.842c-1.215-1.526-2.849-2.848-4.56-4.248-1.711-1.39-3.529-2.936-4.831-5.026-.642-1.041-1.157-2.207-1.342-3.481-.194-1.264.01-2.605.496-3.811.982-2.43 2.693-4.326 3.607-6.523.457-1.089.661-2.246.525-3.354-.146-1.118-.652-2.129-1.274-3.014-1.283-1.769-3.062-2.946-4.715-3.986-1.662-1.04-3.237-2.032-4.443-3.237-1.196-1.196-2.071-2.489-2.557-3.753a6.606 6.606 0 0 1-.428-3.393c.049-.476.195-.875.302-1.215.146-.33.253-.622.369-.836.117-.195.214-.35.292-.486a.9.9 0 0 1 .107-.156c.01 0-.02.068-.078.175-.068.136-.146.302-.253.496-.107.214-.204.505-.33.836-.088.35-.214.739-.253 1.206-.117.913-.029 2.07.476 3.286.486 1.215 1.361 2.479 2.548 3.626 1.186 1.157 2.741 2.119 4.413 3.159 1.663 1.031 3.49 2.217 4.842 4.054.661.914 1.196 1.984 1.361 3.18.146 1.195-.068 2.43-.545 3.567-.952 2.275-2.663 4.181-3.597 6.514-.476 1.157-.661 2.401-.476 3.597.175 1.196.661 2.324 1.283 3.325 1.254 2.032 3.024 3.549 4.725 4.949 1.701 1.399 3.354 2.751 4.589 4.326 1.244 1.565 1.983 3.334 2.275 4.997.32 1.662.243 3.218 0 4.54a11.82 11.82 0 0 1-1.089 3.247c-.447.836-.865 1.429-1.177 1.808-.145.175-.272.311-.369.428-.078.107-.126.156-.136.146Z" fill="#8F9296"/><path d="M218.811 154.49c-.661-5.775-1.799-8.166-1.76-13.98.029-5.327-4.9-12.415-1.857-18.666-.972-3.947-2.567-7.768-4.219-11.501-1.021-2.314-4.725-9.323-5.668-11.676.612-4.326 3.723-4.005 3.13-8.322-.719-5.181-3.159-10.363-7.563-13.192-2.761-1.77-6.057-2.49-9.314-2.82-2.265-.233-4.598-.282-6.795.311-2.207.593-4.288 1.896-5.435 3.87l1.138-1.099c-1.05 4.822.622 10.004 3.82 13.757 3.199 3.752 7.778 6.163 12.561 7.369a9.474 9.474 0 0 0 1.06 4.657l-.117.165c.097.048.185.107.282.155.301.545.651 1.05 1.06 1.527a9.472 9.472 0 0 0 1.837 1.633c.914 1.974 1.011 4.346-.019 6.271-1.196 2.245-3.627 3.849-4.113 6.348-.544 2.81 1.585 5.493 1.546 8.351-.029 1.536-.661 2.917-1.429 4.268-5.192 6.659-4.278 13.523-1.342 21.446 1.089 2.946 2.771 6.018 1.915 9.042-.807 2.848-3.674 4.725-4.579 7.544-1.254 3.918 1.634 7.836 4.336 10.937a91.978 91.978 0 0 1 17.966-5.93 32.842 32.842 0 0 1-.923-7.914c.515 2.8 2.936 5.143 5.755 5.571 2.82.427 5.824-1.099 7.146-3.617-5.133-2.741-7.758-8.73-8.419-14.505Z" fill="#080014"/><path d="M210.537 92.737c.01.01-.087.107-.282.282-.204.165-.476.447-.885.73-.787.612-2.002 1.4-3.636 2.119-1.633.729-3.704 1.322-6.066 1.516a18.402 18.402 0 0 1-7.583-.982 17.665 17.665 0 0 1-6.436-4.131 19.155 19.155 0 0 1-3.646-5.075 19.679 19.679 0 0 1-1.487-3.938c-.136-.476-.185-.865-.243-1.118-.049-.252-.068-.388-.049-.398.039-.01.166.525.447 1.468a21.9 21.9 0 0 0 1.595 3.85 19.706 19.706 0 0 0 3.655 4.938 17.716 17.716 0 0 0 6.31 4.015 18.246 18.246 0 0 0 7.418.992 19.096 19.096 0 0 0 5.978-1.41c3.257-1.35 4.852-2.955 4.91-2.858Zm-.892-6.426c.01.02-.311.136-.914.292-.593.155-1.468.32-2.567.418-2.187.204-5.308.02-8.467-1.206-3.16-1.215-5.6-3.179-7.078-4.802a16.931 16.931 0 0 1-1.623-2.032c-.341-.516-.496-.817-.477-.827.068-.048.788 1.109 2.314 2.654a20.249 20.249 0 0 0 7.019 4.618c3.092 1.196 6.144 1.42 8.303 1.293 2.158-.107 3.47-.486 3.49-.408Z" fill="#8F9296"/><path d="M210.537 89.169c.088.039-.972 1.623-3.013 2.644-2.032 1.04-3.938.953-3.918.856-.02-.127 1.798-.234 3.733-1.225 1.954-.972 3.111-2.372 3.198-2.275Zm-1.427 87.361c-.019 0-.078-.311-.253-.895a4.31 4.31 0 0 0-1.429-2.177c-.437-.37-1.001-.7-1.546-1.177a5.218 5.218 0 0 1-1.361-1.886 9.257 9.257 0 0 1-.418-1.234 6.236 6.236 0 0 1-.233-1.371 4.662 4.662 0 0 1 .768-2.907c.593-.904 1.487-1.623 2.518-2.139a4.811 4.811 0 0 0 2.372-2.372c.233-.544.36-1.137.34-1.74-.029-.603-.194-1.206-.437-1.799-.486-1.186-1.254-2.284-1.974-3.47-1.497-2.353-2.265-5.338-2.061-8.361.185-3.024 1.4-6.125 3.539-8.526.992-1.206 1.954-2.528 1.935-4.035.009-1.497-.759-2.868-1.614-4.064-.865-1.205-1.906-2.265-2.693-3.499-.797-1.206-1.419-2.616-1.312-4.074.106-1.468.962-2.654 1.769-3.665.817-1.021 1.633-1.983 2.08-3.101.943-2.207.866-4.677-.165-6.436-.496-.895-1.235-1.556-1.973-2.12-.739-.563-1.488-1.03-2.168-1.526-.671-.486-1.293-.982-1.711-1.575a6.619 6.619 0 0 1-.914-1.73c-.399-1.118-.379-2.071-.224-2.674.165-.603.399-.846.399-.846.029.01-.185.273-.321.866-.127.583-.117 1.516.292 2.595.204.535.495 1.118.923 1.672.408.564 1.011 1.041 1.682 1.507.671.477 1.429.934 2.187 1.498.759.563 1.527 1.254 2.061 2.187 1.099 1.847 1.196 4.414.234 6.708-.457 1.176-1.303 2.187-2.11 3.199-.797 1.001-1.585 2.129-1.672 3.47-.097 1.332.476 2.654 1.264 3.831.768 1.195 1.808 2.245 2.693 3.48.865 1.215 1.701 2.654 1.691 4.297 0 .807-.243 1.624-.632 2.324-.388.709-.884 1.341-1.39 1.964-2.109 2.362-3.266 5.337-3.461 8.292-.194 2.956.535 5.833 1.983 8.147.7 1.167 1.478 2.295 1.984 3.529.243.613.428 1.264.457 1.925a4.41 4.41 0 0 1-.379 1.886c-.525 1.167-1.488 2.042-2.538 2.518-.992.496-1.857 1.177-2.421 2.022a4.424 4.424 0 0 0-.748 2.732c.058.914.291 1.77.593 2.528a5.273 5.273 0 0 0 1.283 1.837c.515.467 1.07.807 1.517 1.196a4.245 4.245 0 0 1 1.4 2.275c.087.292.107.535.145.69.049.146.059.224.049.224Z" fill="#8F9296"/><path d="M210.664 91.22c.01.01-.068.127-.233.34a8.817 8.817 0 0 1-.778.885c-.709.73-1.857 1.692-3.49 2.528a14.229 14.229 0 0 1-6.212 1.497c-2.421-.02-5.114-.486-7.622-1.779-1.244-.661-2.362-1.487-3.247-2.479-.904-.982-1.546-2.11-2.051-3.199-1.002-2.206-1.585-4.287-2.256-5.969-.651-1.682-1.371-2.955-1.983-3.762-.603-.807-1.031-1.176-1.002-1.206.01-.01.117.078.321.263.204.175.477.457.807.855.661.778 1.429 2.061 2.129 3.753.71 1.672 1.332 3.762 2.334 5.911.505 1.07 1.137 2.148 2.012 3.091.855.953 1.944 1.75 3.14 2.382 2.421 1.245 5.075 1.73 7.428 1.77a14.27 14.27 0 0 0 6.086-1.38c1.613-.788 2.77-1.692 3.509-2.383.729-.71 1.079-1.147 1.108-1.118ZM109.003 264.687c0 .136-3.354.253-7.496.253-4.141 0-7.495-.117-7.495-.253s3.354-.252 7.495-.252c4.142 0 7.496.107 7.496.252Zm7.961-23.828c.136 0 .252 3.976.252 8.886 0 4.909-.116 8.885-.252 8.885s-.253-3.976-.253-8.885c0-4.91.117-8.886.253-8.886Zm8.479 23.255c0-.136 3.354-.253 7.496-.253 4.141 0 7.495.117 7.495.253s-3.354.253-7.495.253c-4.142 0-7.496-.117-7.496-.253Zm-7.962 23.829c-.136 0-.252-3.976-.252-8.886 0-4.909.116-8.886.252-8.886s.253 3.977.253 8.886c0 4.91-.107 8.886-.253 8.886Zm12.123-10.219c-.117.078-1.4-1.526-2.868-3.578-1.468-2.061-2.577-3.791-2.46-3.879.117-.077 1.4 1.527 2.868 3.588 1.468 2.051 2.567 3.791 2.46 3.869Zm-.7-27.027c.107.088-1.05 1.624-2.576 3.422-1.527 1.799-2.849 3.189-2.956 3.102-.107-.088 1.05-1.624 2.576-3.422 1.517-1.809 2.849-3.189 2.956-3.102Zm-17.189 6.884c-.098.097-1.352-.963-2.81-2.382s-2.557-2.644-2.46-2.742c.098-.097 1.352.963 2.81 2.382 1.458 1.42 2.557 2.645 2.46 2.742Zm-.671 11.908c.107.088-.924 1.595-2.314 3.374-1.39 1.779-2.606 3.15-2.713 3.062-.107-.087.924-1.594 2.314-3.373 1.39-1.77 2.606-3.14 2.713-3.063Zm265.183-134.481c0 .136-1.254.252-2.81.252-1.555 0-2.81-.116-2.81-.252s1.255-.253 2.81-.253c1.546 0 2.81.117 2.81.253Zm2.975-8.925c.136 0 .253 1.487.253 3.335 0 1.837-.117 3.334-.253 3.334s-.253-1.487-.253-3.334c0-1.848.117-3.335.253-3.335Zm3.179 8.711c0-.136 1.254-.253 2.809-.253 1.556 0 2.81.117 2.81.253s-1.254.253-2.81.253c-1.555 0-2.809-.117-2.809-.253Zm-2.986 8.925c-.136 0-.252-1.488-.252-3.335 0-1.838.116-3.335.252-3.335s.253 1.488.253 3.335-.107 3.335-.253 3.335Zm4.54-3.831c-.116.078-.651-.476-1.205-1.254-.554-.768-.904-1.468-.788-1.546.117-.077.652.477 1.206 1.254.544.778.904 1.468.787 1.546Zm-.262-10.12c.107.087-.272.709-.846 1.39-.574.671-1.128 1.147-1.225 1.06-.107-.088.272-.71.846-1.391.573-.67 1.118-1.147 1.225-1.059Zm-6.436 2.576c-.097.097-.622-.253-1.166-.778-.545-.534-.904-1.04-.807-1.137.097-.097.622.253 1.167.778.544.534.904 1.04.806 1.137Zm-.253 4.463c.107.087-.223.7-.739 1.361-.515.671-1.03 1.137-1.137 1.05-.107-.088.224-.7.739-1.361s1.03-1.128 1.137-1.05ZM9.535 308.718c0 .136-1.254.252-2.81.252-1.555 0-2.809-.116-2.809-.252 0-.137 1.254-.253 2.81-.253 1.555 0 2.81.116 2.81.253Zm2.985-8.925c.136 0 .253 1.487.253 3.335 0 1.837-.117 3.334-.253 3.334s-.252-1.487-.252-3.334c0-1.848.116-3.335.252-3.335Zm3.18 8.711c0-.136 1.253-.253 2.809-.253 1.555 0 2.81.117 2.81.253s-1.255.253-2.81.253c-1.556 0-2.81-.117-2.81-.253Zm-2.986 8.924c-.136 0-.253-1.487-.253-3.334 0-1.838.117-3.335.253-3.335s.252 1.488.252 3.335-.116 3.334-.252 3.334Zm4.54-3.83c-.117.078-.652-.476-1.206-1.254-.554-.768-.904-1.468-.787-1.546.116-.077.651.477 1.205 1.254.545.778.895 1.468.788 1.546Zm-.263-10.12c.107.087-.272.71-.846 1.39-.573.671-1.127 1.147-1.225 1.06-.107-.088.273-.71.846-1.39.564-.681 1.118-1.148 1.225-1.06Zm-6.435 2.576c-.097.097-.622-.253-1.167-.778-.544-.534-.904-1.04-.807-1.137.097-.097.622.253 1.167.778.535.525.904 1.04.807 1.137Zm-.253 4.462c.107.088-.224.7-.74 1.361-.514.671-1.03 1.138-1.137 1.05-.107-.087.224-.7.74-1.361.514-.661 1.02-1.137 1.137-1.05ZM296.749 79.788l.292.71a5.035 5.035 0 0 0 2.751 2.721l.768.312-.739.3a5.021 5.021 0 0 0-2.771 2.781l-.204.516-.311-.652a5.025 5.025 0 0 0-2.81-2.547l-.67-.243.875-.428a5.047 5.047 0 0 0 2.45-2.586l.369-.884ZM6.67 171.357l.282.671a4.816 4.816 0 0 0 2.615 2.596l.739.301-.71.282a4.772 4.772 0 0 0-2.644 2.645l-.195.495-.301-.622a4.773 4.773 0 0 0-2.674-2.42l-.641-.234.836-.408a4.781 4.781 0 0 0 2.333-2.469l.36-.837Zm348.674 127.707.409.973a6.89 6.89 0 0 0 3.762 3.723l1.05.428-1.011.408a6.898 6.898 0 0 0-3.792 3.801l-.281.71-.428-.885a6.894 6.894 0 0 0-3.84-3.48l-.924-.34 1.196-.584a6.862 6.862 0 0 0 3.344-3.538l.515-1.216ZM301.905 15.176c0 .136-2.499.252-5.581.252-3.081 0-5.58-.116-5.58-.252s2.499-.253 5.58-.253c3.092 0 5.581.117 5.581.253ZM307.837 0c.136 0 .253 2.537.253 5.658 0 3.13-.117 5.658-.253 5.658s-.253-2.537-.253-5.658c0-3.12.117-5.658.253-5.658Zm6.309 14.817c0-.136 2.499-.253 5.581-.253 3.082 0 5.58.117 5.58.253s-2.498.252-5.58.252-5.581-.116-5.581-.252Zm-5.921 15.175c-.136 0-.252-2.537-.252-5.658 0-3.13.116-5.658.252-5.658.137 0 .253 2.538.253 5.658 0 3.121-.116 5.659-.253 5.659Zm9.011-6.514c-.107.088-1.079-.904-2.178-2.216-1.098-1.313-1.896-2.45-1.789-2.538.107-.087 1.079.904 2.178 2.217 1.099 1.312 1.896 2.45 1.789 2.537Zm-.524-17.208c.097.098-.739 1.11-1.876 2.256-1.138 1.147-2.139 1.993-2.237 1.896-.097-.097.739-1.108 1.877-2.255 1.137-1.148 2.139-1.993 2.236-1.896Zm-12.786 4.385c-.087.107-1.04-.535-2.119-1.439-1.079-.904-1.886-1.72-1.799-1.827.088-.107 1.041.534 2.12 1.438 1.079.905 1.886 1.721 1.798 1.828Zm-.503 7.583c.107.097-.651 1.089-1.682 2.226-1.031 1.138-1.954 1.974-2.061 1.877-.107-.098.651-1.09 1.682-2.227 1.04-1.127 1.964-1.973 2.061-1.876ZM11.16 91.123c0 .136-2.498.253-5.58.253-3.081 0-5.58-.117-5.58-.253s2.499-.253 5.58-.253c3.082 0 5.58.107 5.58.253Zm5.92-15.176c.137 0 .254 2.538.254 5.658 0 3.13-.117 5.658-.253 5.658s-.253-2.537-.253-5.658c0-3.12.117-5.658.253-5.658Zm6.313 14.807c0-.136 2.498-.253 5.58-.253s5.58.117 5.58.253-2.498.252-5.58.252c-3.082.01-5.58-.106-5.58-.252Zm-5.922 15.186c-.136 0-.252-2.538-.252-5.658 0-3.13.116-5.658.252-5.658.137 0 .253 2.537.253 5.658 0 3.12-.116 5.658-.253 5.658Zm9.013-6.515c-.107.088-1.08-.904-2.178-2.216-1.098-1.313-1.896-2.45-1.789-2.538.107-.087 1.08.904 2.178 2.217 1.099 1.312 1.896 2.45 1.789 2.537Zm-.516-17.207c.097.097-.74 1.108-1.877 2.255-1.137 1.148-2.138 1.993-2.236 1.896-.097-.097.74-1.108 1.877-2.255 1.127-1.147 2.129-1.993 2.236-1.896Zm-12.794 4.384c-.087.107-1.04-.534-2.119-1.438-1.08-.905-1.886-1.721-1.799-1.828.088-.107 1.04.535 2.12 1.439 1.089.904 1.886 1.72 1.798 1.827Zm-.495 7.583c.107.098-.652 1.09-1.682 2.227-1.03 1.137-1.954 1.973-2.061 1.876-.107-.097.651-1.089 1.682-2.226 1.03-1.128 1.954-1.974 2.06-1.877Z" fill="#8F9296"/></svg>