<svg width="24" height="19" viewBox="0 0 24 19" fill="none" xmlns="http://www.w3.org/2000/svg">
<path fill-rule="evenodd" clip-rule="evenodd" d="M0 1.5C0 0.671573 0.671573 0 1.5 0H22.5C23.3284 0 24 0.671573 24 1.5C24 2.32843 23.3284 3 22.5 3H1.5C0.671573 3 0 2.32843 0 1.5ZM0 9.5C0 8.67157 0.671573 8 1.5 8H22.5C23.3284 8 24 8.67157 24 9.5C24 10.3284 23.3284 11 22.5 11H1.5C0.671573 11 0 10.3284 0 9.5ZM9.5 16C8.67157 16 8 16.6716 8 17.5C8 18.3284 8.67157 19 9.5 19H22.5C23.3284 19 24 18.3284 24 17.5C24 16.6716 23.3284 16 22.5 16H9.5Z" fill="white"/>
</svg>
