<svg width="128" height="109" viewBox="0 0 128 109" fill="none" xmlns="http://www.w3.org/2000/svg">
<g opacity="0.3">
<path d="M63.3501 60.561C56.1293 60.561 50.2539 54.6856 50.2539 47.4648C50.2539 40.2441 56.1293 34.3687 63.3501 34.3687C70.5708 34.3687 76.4462 40.2441 76.4462 47.4648C76.4462 54.6856 70.5738 60.561 63.3501 60.561ZM63.3501 37.9939C58.1295 37.9939 53.8821 42.2412 53.8821 47.4618C53.8821 52.6824 58.1295 56.9298 63.3501 56.9298C68.5707 56.9298 72.821 52.6824 72.821 47.4618C72.821 42.2412 68.5707 37.9939 63.3501 37.9939Z" fill="#00003F"/>
<path d="M35.6632 104.454H1.8156C0.812557 104.454 0 103.642 0 102.642V95.9033C0 92.4893 1.33045 89.2778 3.74431 86.864L9.5215 81.0897C11.3431 79.2682 13.7658 78.2651 16.3434 78.2651H32.4189C34.9965 78.2651 37.4193 79.2682 39.2438 81.0897L41.3571 83.203C42.0655 83.9114 42.0655 85.0603 41.3571 85.7686C40.6487 86.477 39.4998 86.477 38.7914 85.7686L36.6782 83.6554C35.5412 82.5184 34.0292 81.8934 32.4189 81.8934H16.3434C14.7362 81.8934 13.2241 82.5184 12.0872 83.6554L6.31294 89.4296C4.58366 91.1589 3.63121 93.4597 3.63121 95.9033V100.829H35.6662C36.6663 100.829 37.4788 101.642 37.4788 102.642C37.4788 103.642 36.6663 104.454 35.6632 104.454Z" fill="#00003F"/>
<path d="M24.3784 76.247C17.1576 76.247 11.2822 70.3716 11.2822 63.1508C11.2822 55.9301 17.1576 50.0547 24.3784 50.0547C31.5991 50.0547 37.4745 55.9301 37.4745 63.1508C37.4745 70.3716 31.6021 76.247 24.3784 76.247ZM24.3784 53.6799C19.1578 53.6799 14.9105 57.9273 14.9105 63.1479C14.9105 68.3685 19.1578 72.6158 24.3784 72.6158C29.599 72.6158 33.8463 68.3685 33.8463 63.1479C33.8493 57.9273 29.602 53.6799 24.3784 53.6799Z" fill="#00003F"/>
<path d="M126.188 104.454H92.3374C91.3343 104.454 90.5218 103.642 90.5218 102.642C90.5218 101.639 91.3343 100.829 92.3374 100.829H124.372V95.9033C124.372 93.4567 123.42 91.1589 121.691 89.4296L115.916 83.6554C114.779 82.5184 113.267 81.8934 111.66 81.8934H95.5846C93.9774 81.8934 92.4653 82.5184 91.3284 83.6554L89.2151 85.7686C88.5067 86.477 87.3578 86.477 86.6495 85.7686C85.9411 85.0603 85.9411 83.9114 86.6495 83.203L88.7627 81.0897C90.5843 79.2682 93.01 78.2651 95.5846 78.2651H111.66C114.238 78.2651 116.66 79.2682 118.482 81.0897L124.256 86.864C126.67 89.2778 128.001 92.4893 128.001 95.9033V102.642C128.001 103.642 127.188 104.454 126.188 104.454Z" fill="#00003F"/>
<path d="M103.623 76.247C96.4018 76.247 90.5264 70.3716 90.5264 63.1508C90.5264 55.9301 96.4018 50.0547 103.623 50.0547C110.843 50.0547 116.719 55.9301 116.719 63.1508C116.719 70.3716 110.843 76.247 103.623 76.247ZM103.623 53.6799C98.4019 53.6799 94.1516 57.9273 94.1516 63.1479C94.1516 68.3685 98.3989 72.6158 103.623 72.6158C108.843 72.6158 113.093 68.3685 113.093 63.1479C113.09 57.9273 108.843 53.6799 103.623 53.6799Z" fill="#00003F"/>
<path d="M84.6996 72.5474L78.9254 66.7731C77.1038 64.9516 74.681 63.9456 72.1035 63.9456H56.0279C53.4504 63.9456 51.0276 64.9486 49.206 66.7731L43.4318 72.5474C41.018 74.9612 39.6875 78.1727 39.6875 81.5867V88.3252C39.6875 89.3283 40.5001 90.1379 41.5001 90.1379H42.0746C42.1907 89.6825 42.3157 89.2301 42.5091 88.7806C42.524 88.7092 42.5359 88.6407 42.5508 88.5693C42.7175 87.7181 42.9854 86.971 43.3157 86.3072V81.5807C43.3157 79.1341 44.2682 76.8363 45.9975 75.1071L51.7717 69.3328C52.9087 68.1959 54.4207 67.5678 56.0309 67.5678H72.1064C73.7137 67.5678 75.2257 68.1929 76.3627 69.3328L82.1399 75.1071C83.8692 76.8363 84.8216 79.1371 84.8216 81.5807V86.5067H84.6996C84.9377 86.9769 85.1401 87.4532 85.274 87.9324C85.4824 88.6913 85.5479 89.4206 85.5449 90.1349H86.6343C87.6373 90.1349 88.4499 89.3223 88.4499 88.3223V81.5837C88.4469 78.1727 87.1164 74.9612 84.6996 72.5474Z" fill="#00003F"/>
<path d="M41.4934 108.401C40.4903 108.401 39.6748 107.589 39.6748 106.583V82.3994C39.6748 81.3963 40.4874 80.5808 41.4934 80.5808C42.4994 80.5808 43.312 81.3934 43.312 82.3994V106.583C43.312 107.586 42.4964 108.401 41.4934 108.401Z" fill="#00003F"/>
<path d="M86.635 108.613C85.6319 108.613 84.8164 107.8 84.8164 106.794V81.5273C84.8164 80.5243 85.629 79.7087 86.635 79.7087C87.638 79.7087 88.4536 80.5213 88.4536 81.5273V106.794C88.4536 107.797 87.638 108.613 86.635 108.613Z" fill="#00003F"/>
<path d="M79.8365 51.9353C79.3275 51.9353 78.8543 51.6704 78.5894 51.2358C78.3245 50.8013 78.3037 50.2596 78.5358 49.8072C80.6371 45.7116 81.1074 43.3186 81.1759 42.134H79.6371C78.8305 42.134 78.1757 41.4792 78.1757 40.6726C78.1757 39.866 78.8305 39.2112 79.6371 39.2112H82.4915C83.0599 39.2112 83.5778 39.5415 83.8159 40.0565C84.0273 40.5119 84.8279 42.8721 82.3069 48.6761C88.0603 47.0689 90.7212 40.2321 90.751 40.1547C90.9653 39.5862 91.5099 39.2112 92.1171 39.2112H100.216V3.99143H44.2388C43.4321 3.99143 42.7773 3.33662 42.7773 2.53002C42.7773 1.72341 43.4321 1.0686 44.2388 1.0686H101.674C102.481 1.0686 103.136 1.72341 103.136 2.53002V40.6726C103.136 41.4792 102.481 42.134 101.674 42.134H93.0725C91.8314 44.7681 87.7269 51.9353 79.8365 51.9353Z" fill="#00003F"/>
<path d="M79.8333 52.1051C79.2708 52.1051 78.735 51.8075 78.4433 51.3253C78.1516 50.8431 78.1248 50.2329 78.3838 49.7299C80.4077 45.7862 80.8959 43.4349 80.9911 42.3038H79.6339C78.735 42.3038 78.0058 41.5746 78.0058 40.6757C78.0058 39.7769 78.735 39.0447 79.6339 39.0447H82.4883C83.1192 39.0447 83.6996 39.4167 83.9675 39.9882C84.2413 40.5745 84.9289 42.8961 82.6013 48.4114C88.0184 46.6613 90.5632 40.1638 90.59 40.0953C90.8281 39.4673 91.4383 39.0447 92.1139 39.0447H100.043V4.16126H44.2356C43.3367 4.16126 42.6045 3.43204 42.6045 2.53317C42.6045 1.63429 43.3367 0.9021 44.2356 0.9021H101.671C102.57 0.9021 103.302 1.63429 103.302 2.53317V40.6757C103.302 41.5746 102.57 42.3038 101.671 42.3038H93.1765C91.73 45.3308 87.6196 52.1051 79.8333 52.1051ZM79.6339 39.384C78.9225 39.384 78.3421 39.9614 78.3421 40.6757C78.3421 41.3871 78.9195 41.9675 79.6339 41.9675H81.3513L81.3394 42.1461C81.262 43.4646 80.7411 45.8785 78.6814 49.8877C78.4761 50.2865 78.4939 50.7687 78.7291 51.1497C78.9612 51.5307 79.3839 51.7688 79.8303 51.7688C87.5065 51.7688 91.5365 44.9826 92.9146 42.0657L92.9592 41.9675H101.668C102.38 41.9675 102.96 41.3901 102.96 40.6757V2.53317C102.96 1.82181 102.382 1.24141 101.668 1.24141H44.2356C43.5242 1.24141 42.9438 1.81883 42.9438 2.53317C42.9438 3.24453 43.5212 3.82492 44.2356 3.82492H100.379V39.3869H92.1139C91.5812 39.3869 91.096 39.7233 90.9055 40.2203C90.8787 40.2918 88.1642 47.2208 82.3484 48.8459L82.0061 48.9412L82.146 48.6138C84.6521 42.8455 83.8455 40.5388 83.658 40.134C83.4467 39.6786 82.9883 39.3869 82.4853 39.3869H79.6339V39.384Z" fill="#00003F"/>
<path d="M39.456 3.99143H37.0659C36.2593 3.99143 35.6045 3.33662 35.6045 2.53002C35.6045 1.72341 36.2593 1.0686 37.0659 1.0686H39.456C40.2626 1.0686 40.9174 1.72341 40.9174 2.53002C40.9174 3.33662 40.2626 3.99143 39.456 3.99143Z" fill="#00003F"/>
<path d="M39.4557 4.16126H37.0656C36.1668 4.16126 35.4346 3.43204 35.4346 2.53317C35.4346 1.63429 36.1697 0.9021 37.0656 0.9021H39.4557C40.3546 0.9021 41.0868 1.63429 41.0868 2.53317C41.0868 3.43204 40.3546 4.16126 39.4557 4.16126ZM37.0656 1.24141C36.3543 1.24141 35.7739 1.82181 35.7739 2.53317C35.7739 3.24453 36.3513 3.82492 37.0656 3.82492H39.4557C40.167 3.82492 40.7474 3.2475 40.7474 2.53317C40.7474 1.81883 40.17 1.24141 39.4557 1.24141H37.0656Z" fill="#00003F"/>
<path d="M46.3834 42.1337H25.0337C24.2271 42.1337 23.5723 41.4789 23.5723 40.6723V2.5327C23.5723 1.7261 24.2271 1.07129 25.0337 1.07129H31.9359C32.7426 1.07129 33.3974 1.7261 33.3974 2.5327C33.3974 3.33931 32.7426 3.99411 31.9359 3.99411H26.4921V39.2168H46.3834C47.19 39.2168 47.8448 39.8716 47.8448 40.6782C47.8418 41.4789 47.19 42.1337 46.3834 42.1337Z" fill="#00003F"/>
<path d="M46.3811 42.3046H25.0314C24.1325 42.3046 23.4033 41.5753 23.4033 40.6765V2.5339C23.4004 1.63503 24.1325 0.902832 25.0314 0.902832H31.9337C32.8326 0.902832 33.5648 1.63503 33.5648 2.5339C33.5648 3.43277 32.8326 4.16199 31.9337 4.16199H26.6595V39.0454H46.3811C47.28 39.0454 48.0092 39.7776 48.0092 40.6765C48.0092 41.5753 47.28 42.3046 46.3811 42.3046ZM25.0314 1.24214C24.3201 1.24214 23.7397 1.81956 23.7397 2.5339V40.6765C23.7397 41.3878 24.3171 41.9682 25.0314 41.9682H46.3811C47.0925 41.9682 47.6729 41.3908 47.6729 40.6765C47.6729 39.9651 47.0955 39.3847 46.3811 39.3847H26.3202V3.82268H31.9307C32.6421 3.82268 33.2225 3.24526 33.2225 2.53092C33.2225 1.81956 32.6451 1.23917 31.9307 1.23917H25.0314V1.24214Z" fill="#00003F"/>
<path d="M86.7702 108.592H41.4367C40.5021 108.592 39.7461 107.836 39.7461 106.901C39.7461 105.966 40.5021 105.21 41.4367 105.21H86.7702C87.7048 105.21 88.4608 105.966 88.4608 106.901C88.4608 107.833 87.7048 108.592 86.7702 108.592Z" fill="#00003F"/>
</g>
</svg>
