<svg width="146" height="143" fill="none" xmlns="http://www.w3.org/2000/svg"><g opacity=".7" stroke="#00003F" stroke-width="3.4" stroke-linecap="round"><path d="m12.347 3.214 14.548-.077m12.073-.064 7.543-.04m10.06-.053 77.467-.412m.258 66.627V3.117M13.087 69.626h121.017M12.347 3.214l.351 66.305m-.511 10.199h87.995m6.81.111h8.488m6.364.224h12.615m-95.083 31.724c3.99 0 7.223-3.229 7.223-7.212 0-3.983-3.234-7.212-7.223-7.212-3.988 0-7.222 3.229-7.222 7.212 0 3.983 3.234 7.212 7.222 7.212Zm-24.748.612c3.989 0 7.222-3.229 7.222-7.212 0-3.983-3.233-7.212-7.222-7.212-3.988 0-7.222 3.229-7.222 7.212 0 3.983 3.234 7.212 7.222 7.212Zm50.035 0c3.99 0 7.223-3.229 7.223-7.212 0-3.983-3.234-7.212-7.222-7.212-3.99 0-7.223 3.229-7.223 7.212 0 3.983 3.234 7.212 7.222 7.212Zm49.55 0c3.989 0 7.222-3.229 7.222-7.212 0-3.983-3.233-7.212-7.222-7.212-3.988 0-7.222 3.229-7.222 7.212 0 3.983 3.234 7.212 7.222 7.212Zm-23.619.803c3.989 0 7.222-3.229 7.222-7.212 0-3.983-3.233-7.212-7.222-7.212-3.988 0-7.222 3.229-7.222 7.212 0 3.983 3.234 7.212 7.222 7.212Zm-23.441 27.071H38.268v-4.308a7.022 7.022 0 0 1 2.056-4.958l3.685-3.679a5.027 5.027 0 0 1 3.547-1.475h10.288a5.028 5.028 0 0 1 3.544 1.465l3.684 3.679a7.022 7.022 0 0 1 2.057 4.958l.024 4.318Zm-14.442-18.026c3.989 0 7.222-3.229 7.222-7.212 0-3.983-3.233-7.212-7.222-7.212-3.988 0-7.222 3.229-7.222 7.212 0 3.983 3.234 7.212 7.222 7.212ZM33.99 140.263H12.327v-4.308a7.019 7.019 0 0 1 2.067-4.957l3.685-3.68a5.028 5.028 0 0 1 3.544-1.465h10.29a5.028 5.028 0 0 1 3.544 1.465l.335.335 1.005 1.003m-10.029-6.419c3.989 0 7.222-3.229 7.222-7.212 0-3.983-3.233-7.212-7.222-7.212-3.989 0-7.222 3.229-7.222 7.212 0 3.983 3.233 7.212 7.222 7.212Zm95 17.99h21.663v-4.309a7.024 7.024 0 0 0-2.057-4.957l-3.685-3.679a5.029 5.029 0 0 0-3.544-1.466h-10.297a5.029 5.029 0 0 0-3.544 1.466l-.335.334-1.005 1.004m10.026-6.42c3.988 0 7.222-3.229 7.222-7.212 0-3.983-3.234-7.212-7.222-7.212-3.989 0-7.222 3.229-7.222 7.212 0 3.983 3.233 7.212 7.222 7.212Zm-11.255 18.231H88.85v-4.295a7.022 7.022 0 0 1 2.056-4.958l3.685-3.679a5.014 5.014 0 0 1 3.547-1.489h10.288a5.028 5.028 0 0 1 3.544 1.465l3.684 3.68a7.012 7.012 0 0 1 2.081 4.981v4.295Z" stroke-linejoin="round"/><path d="M103.293 122.404c3.989 0 7.222-3.229 7.222-7.212 0-3.983-3.233-7.212-7.222-7.212-3.988 0-7.222 3.229-7.222 7.212 0 3.983 3.234 7.212 7.222 7.212Z" stroke-linejoin="round"/><path d="M71.206 140.143H84.96" stroke-miterlimit="10"/><path d="M78.073 122.368c3.988 0 7.222-3.229 7.222-7.212 0-3.983-3.234-7.212-7.222-7.212-3.989 0-7.222 3.229-7.222 7.212 0 3.983 3.233 7.212 7.222 7.212Zm-26.597-20.084c3.989 0 7.222-3.229 7.222-7.212 0-3.983-3.233-7.212-7.222-7.212-3.989 0-7.222 3.23-7.222 7.212 0 3.983 3.233 7.212 7.222 7.212Zm-25.02-1.877c3.99 0 7.223-3.229 7.223-7.212 0-3.983-3.234-7.212-7.223-7.212-3.988 0-7.222 3.23-7.222 7.212 0 3.983 3.234 7.212 7.222 7.212Zm50.036 1.877c3.988 0 7.222-3.229 7.222-7.212 0-3.983-3.234-7.212-7.222-7.212-3.989 0-7.223 3.23-7.223 7.212 0 3.983 3.234 7.212 7.223 7.212Zm50.75 2.285c3.988 0 7.222-3.229 7.222-7.212 0-3.983-3.234-7.212-7.222-7.212-3.989 0-7.222 3.229-7.222 7.212 0 3.983 3.233 7.212 7.222 7.212Zm-24.82-4.964c3.989 0 7.222-3.23 7.222-7.212 0-3.983-3.233-7.212-7.222-7.212-3.988 0-7.222 3.229-7.222 7.212 0 3.983 3.234 7.212 7.222 7.212Zm-33.53 29.633 2.01-2.007a4.127 4.127 0 0 1 2.92-1.208h8.475a4.142 4.142 0 0 1 2.921 1.208l2.01 2.007m-76.325 1.004H2.57v-4.308a8.117 8.117 0 0 1 1.601-4.958l2.881-3.679a3.527 3.527 0 0 1 2.764-1.465h8.012c.49 0 .973.115 1.41.334m15.09-.769a4.09 4.09 0 0 1 .81-.081h8.476a4.145 4.145 0 0 1 1.477.275m15.336.401h8.475c.371.001.74.051 1.098.151m15.553.759c.264-.052.532-.078.8-.077h8.475c.272 0 .544.027.81.08m15.296-1.248h7.516a4.14 4.14 0 0 1 2.921 1.208m-23.186-13.681h8.809m-34.739 2.479h8.465c.542 0 1.08.107 1.58.314m-35.695-.281c.21-.033.422-.05.634-.05h8.475c.378-.001.754.051 1.118.153m-34.613-1.9h8.475a4.16 4.16 0 0 1 1.115.154m105.521 18.034h4.553v-4.319a7.474 7.474 0 0 0-1.826-4.957l-3.283-3.68a4.22 4.22 0 0 0-3.148-1.465h-9.159c-.553 0-1.1.114-1.608.335" stroke-linejoin="round"/></g></svg>