<svg width="97" height="52" fill="none" xmlns="http://www.w3.org/2000/svg"><path d="M28.697 6.885H26.83c-.246 0-.246 0-.295-.246-.393-1.67-1.573-2.555-3.145-2.948a5.989 5.989 0 0 0-2.948 0c-1.622.442-2.752 1.474-3.44 2.997a5.512 5.512 0 0 0-.491 1.966c-.099 1.13-.099 2.26.196 3.341.442 1.818 1.523 3.145 3.293 3.784 1.424.491 2.85.442 4.275-.099.54-.245 1.032-.54 1.474-.982.393-.393.688-.934.884-1.475.05-.098.05-.196.05-.245.049-.098.098-.148.196-.148h3.882c.098 0 .147.05.147.148 0 .147-.049.344-.049.491-.344 1.917-1.327 3.44-2.85 4.57-1.277.934-2.752 1.425-4.324 1.622a10.891 10.891 0 0 1-3.096 0c-2.064-.246-3.833-1.032-5.356-2.408-1.474-1.327-2.31-2.998-2.653-4.914-.295-1.72-.295-3.44.049-5.11.54-2.654 2.014-4.62 4.373-5.995C18.672.25 20.54-.044 22.456.005c1.278.05 2.506.246 3.686.737 1.818.737 3.243 1.917 4.128 3.636.393.738.59 1.524.737 2.31.049.197 0 .246-.246.246-.786-.05-1.425-.05-2.064-.05zM15.037 44.77c.147 0 .196-.049.245-.049h3.588c.245 0 .294.05.245.295-.294 2.113-1.277 3.784-3.046 5.013a8.153 8.153 0 0 1-3.637 1.474c-2.014.294-3.98.294-5.896-.443-3.292-1.277-5.258-3.636-5.848-7.125-.245-1.523-.245-2.997.05-4.52.393-2.26 1.474-4.128 3.34-5.553 1.524-1.18 3.293-1.818 5.21-1.917 1.523-.098 3.046 0 4.52.541 1.671.59 3.047 1.523 4.079 2.948a6.364 6.364 0 0 1 1.228 3.047c0 .098.05.196.05.295 0 .049-.05.147-.148.147h-4.029c-.148 0-.197-.049-.246-.196-.05-.246-.098-.492-.197-.688-.344-.885-.982-1.524-1.818-1.917-1.965-.884-3.882-.835-5.7.393-1.18.787-1.818 1.966-2.162 3.293a9.514 9.514 0 0 0 0 4.078c.442 1.916 1.523 3.292 3.44 3.931 1.523.492 3.046.443 4.471-.295 1.278-.59 2.015-1.474 2.26-2.751zM75.969 13.42c-.05.197 0 .344.049.54.246.885.688 1.622 1.474 2.113.295.197.639.344.983.393.639.099 1.327.099 1.965-.049.787-.196 1.327-.59 1.622-1.376 0-.049.05-.049.05-.098.048-.147.147-.196.343-.196h3.194c.246 0 .295.049.246.294-.442 1.77-1.474 3.047-3.047 3.883a5.917 5.917 0 0 1-2.604.737c-1.327.098-2.605.049-3.833-.443-.983-.393-1.818-1.032-2.506-1.818-1.376-1.621-1.916-3.489-1.72-5.602.147-1.474.639-2.85 1.523-4.029 1.032-1.327 2.359-2.064 4.03-2.31.933-.147 1.867-.098 2.8 0 2.212.344 3.784 1.622 4.718 3.637.59 1.277.786 2.653.639 4.078-.05.246-.05.246-.295.295h-9.042c-.196-.098-.393-.147-.59-.049zm3.096-2.506h2.899c.098 0 .147-.098.147-.197-.147-1.228-.983-2.21-2.162-2.506-.491-.098-1.032-.098-1.523-.049-1.425.246-2.113 1.229-2.359 2.506-.05.148 0 .197.197.246h2.8zM70.66 13.37h-9.925c.147 1.77 1.425 2.998 2.9 3.146.54.049 1.031.049 1.522-.05.787-.196 1.425-.59 1.72-1.375.099-.197.197-.295.443-.295h3.292c.098 0 .147.049.147.147 0 .148-.049.246-.098.393-.393 1.376-1.229 2.457-2.408 3.293-1.032.688-2.211 1.031-3.44 1.13-1.228.098-2.407 0-3.538-.442-.933-.344-1.72-.934-2.407-1.671-1.376-1.573-2.015-3.39-1.917-5.504.05-1.376.443-2.604 1.18-3.783 1.08-1.77 2.653-2.703 4.717-2.9.884-.098 1.769-.049 2.653.099 2.31.393 3.784 1.769 4.718 3.882.54 1.277.639 2.555.491 3.93 0-.097-.05-.048-.05 0zm-6.83-2.456h2.85c.197 0 .246-.05.197-.246-.147-1.18-.933-2.162-2.162-2.457a4.95 4.95 0 0 0-1.474-.049c-.639.098-1.18.344-1.622.835-.442.492-.638 1.082-.786 1.671 0 .098.05.197.148.197h.294c.836.049 1.671.049 2.556.049zM34.397 45.36H24.962c-.49 0-.54-.049-.393.492.148.59.393 1.13.787 1.572.59.688 1.326.983 2.26 1.081.54.05 1.13 0 1.622-.197.688-.196 1.179-.638 1.425-1.277.098-.246.196-.295.442-.295H34.299c.196 0 .245.05.196.246-.245 1.13-.786 2.162-1.67 2.948-1.18 1.081-2.556 1.622-4.177 1.72-.934.049-1.867.049-2.801-.197-1.376-.344-2.506-1.08-3.39-2.162-1.377-1.67-1.868-3.587-1.671-5.749a7.616 7.616 0 0 1 1.523-3.882c.934-1.18 2.113-1.916 3.587-2.211 1.327-.246 2.654-.246 3.98.098 1.622.393 2.801 1.425 3.686 2.85.835 1.523 1.08 3.194.835 4.963zm-3.833-2.506c0-.983-.688-2.211-1.965-2.555a3.86 3.86 0 0 0-2.113 0c-1.18.344-1.72 1.228-1.966 2.358v.099c0 .049.05.098.099.098h5.601c.099.05.197.098.344 0zM87.024 46.834a5.377 5.377 0 0 1-.688 1.868 5.967 5.967 0 0 1-2.8 2.358 7.197 7.197 0 0 1-2.507.59c-.884 0-1.769 0-2.653-.197-1.327-.344-2.408-.982-3.292-2.014-.737-.885-1.278-1.867-1.573-2.949-.196-.835-.295-1.67-.245-2.506a8.458 8.458 0 0 1 1.08-3.587c1.081-1.769 2.654-2.8 4.718-2.997.933-.099 1.916-.099 2.85.098 1.965.393 3.341 1.474 4.275 3.194a7.165 7.165 0 0 1 .835 3.341c0 .394 0 .738-.049 1.13 0 .148-.098.197-.196.197H77.196c-.147 0-.196.05-.147.197.246 1.326.885 2.31 2.162 2.752.295.098.59.147.885.147.54.05 1.032 0 1.523-.148.737-.196 1.278-.638 1.573-1.375.098-.197.196-.295.393-.295h3.144c.099.098.197.098.295.196zm-9.975-3.98c.197.148.344.05.54.098h5.357c.098 0 .147-.098.147-.196-.147-.983-.59-1.818-1.523-2.26-.983-.492-2.015-.443-3.047 0-.344.147-.638.442-.884.737-.295.491-.54 1.032-.59 1.621zM35.921 10.373h-3.243c-.147 0-.197-.098-.147-.245.098-.738.294-1.475.688-2.113a5.426 5.426 0 0 1 2.604-2.212c1.621-.688 4.226-.688 5.798 0 .885.393 1.67.885 2.26 1.671.59.737.885 1.572.934 2.506v8.992c0 .541 0 .492-.491.492h-3.145c-.197 0-.246-.05-.246-.246v-1.032c0-.098.05-.196-.049-.295-.098 0-.147.05-.147.099-.59.933-1.524 1.376-2.556 1.572a6.085 6.085 0 0 1-2.309 0c-1.622-.344-2.8-1.277-3.243-2.9-.344-1.277-.197-2.554.59-3.635.59-.836 1.425-1.327 2.358-1.622.639-.196 1.327-.246 1.966-.246h2.506c.59-.049.933-.491.933-1.08-.049-.787-.442-1.327-1.13-1.622-.786-.344-1.621-.344-2.457-.098-.737.245-1.228.786-1.425 1.572.05.098 0 .246-.049.442zm3.538 3.194c-.491 0-.983 0-1.474.05-.59.048-1.081.294-1.425.786-.442.638-.393 1.523.147 2.014.246.197.492.344.836.442a2.2 2.2 0 0 0 1.13 0c.933-.147 1.572-.638 2.015-1.474.245-.491.343-1.032.343-1.572 0-.197-.049-.246-.196-.246h-1.376zM36.56 44.476v-6.781c0-.099.048-.148.147-.197h3.587c.098 0 .147.098.147.197v1.376c0 .049.05.049.05.098h.098c.049 0 .049-.05.049-.098.835-1.13 2.014-1.671 3.39-1.72.59-.05 1.229-.05 1.818.098 1.966.344 3.49 1.965 3.833 3.931.099.491.148.934.148 1.425v8.157c0 .491.049.491-.492.491h-3.292c-.098 0-.147-.049-.147-.147v-7.469c0-.393 0-.786-.148-1.13-.442-1.327-1.572-2.113-3.096-1.867-1.179.245-1.916.982-2.21 2.162-.1.344-.1.688-.1 1.031v6.93c0 .54.05.49-.49.49h-3.145c-.246 0-.246-.049-.246-.245v-.393c.098-2.113.098-4.226.098-6.34zM57.885 33.468c.05.148.05.344.05.541V37.4c0 .098.048.147.147.147h3.39c.148 0 .197.098.197.197v2.85c0 .098-.098.147-.197.147H58.082c-.099 0-.148.05-.148.147v5.405c0 .296.05.541.099.836.147.491.491.835 1.032.983.294.098.59.098.884.098h1.474c.148 0 .197.05.197.197v2.801c0 .196-.05.245-.246.245-.983 0-1.916.05-2.9-.049a4.732 4.732 0 0 1-3.046-1.278c-.737-.688-1.13-1.523-1.277-2.506a9.561 9.561 0 0 1-.099-1.228v-5.16c0-.491 0-.491-.491-.491h-1.916c-.246 0-.246-.05-.246-.246v-2.702c0-.197.05-.246.246-.246H53.905c.098 0 .197-.05.197-.147v-3.784c0-.098.049-.148.147-.197h3.341c.099 0 .197 0 .295.05zM47.468 12.486V5.853c0-.295.049-.295.344-.295h3.292c.295 0 .295.05.295.344v1.572c0 .05.049.05.098.05h.05c.048-.05.048-.099.098-.148.049-.098.147-.246.196-.344.54-.835 1.278-1.277 2.211-1.425.246-.049.492-.049.787-.049h1.375c.197 0 .246.05.246.246v2.752c0 .098-.049.147-.147.196h-2.31c-1.032.05-1.769.59-2.211 1.523-.344.737-.442 1.573-.442 2.359v6.093c0 .835.098.688-.688.737H47.615c-.098 0-.147-.049-.147-.147v-6.83zM91.89 19.415c-.099 0-.148.05-.197.05h-3.39c-.246 0-.295-.05-.295-.296V6.148c0-.688-.05-.64.638-.64H91.693c.147 0 .197.05.197.197v1.18c0 .196-.05.393.049.59.098 0 .147-.05.196-.099.099-.147.148-.246.246-.393.54-.835 1.278-1.278 2.211-1.425.246-.05.492-.05.786-.05h1.376c.197 0 .246.05.246.296v2.85c-.147.098-.295.098-.442.098h-2.015c-1.081.05-1.769.59-2.211 1.572-.295.738-.393 1.524-.393 2.31v6.142c0 .246-.05.442-.05.64zM63.733 44.574v-6.83c0-.099.05-.148.147-.197h3.587c.099 0 .148.05.148.197v1.13c0 .246-.098.491.098.688.197-.148.246-.344.344-.54.54-.836 1.327-1.328 2.26-1.377.738-.049 1.426-.049 2.163-.049.098 0 .196.05.196.148v2.751c0 .246-.049.246-.246.246h-1.965c-.197 0-.393 0-.59.05-.786.147-1.326.54-1.67 1.228-.246.442-.394.933-.492 1.474-.049.442-.098.835-.098 1.277v6.487c0 .196-.05.196-.246.196H64.028c-.246 0-.246-.049-.246-.245v-.393c-.05-2.064-.05-4.177-.05-6.241zM12.137.202l-.884 1.916c-2.064 4.57-4.079 9.14-6.143 13.66-.442.984-.884 1.966-1.326 2.998-.099.148-.148.344-.246.492-.05.147-.147.196-.295.196H.245c-.098 0-.196 0-.245-.098 0-.147.098-.295.147-.393 1.229-2.801 2.506-5.553 3.735-8.354 1.474-3.292 2.9-6.535 4.373-9.827.099-.246.148-.59.393-.688.197-.099.492-.05.787-.05h2.21c.148.099.296.05.492.148z" fill="#fff"/></svg>