<svg width="136" height="43" viewBox="0 0 136 43" fill="none" xmlns="http://www.w3.org/2000/svg">
<path d="M30.7361 11.2007C28.9974 4.8826 22.8966 0 15.6233 0C6.99536 0 0 6.85383 0 14.8449C0 25.156 14.8449 41.7042 15.6233 42.5787C16.3511 41.8003 29.2096 27.9814 31.0292 17.2458H22.6338C21.4561 19.7123 18.8733 21.4359 15.8609 21.4359C11.7465 21.4359 8.41059 18.2263 8.41059 14.2738C8.41059 10.3161 11.7465 7.11161 15.8609 7.11161C18.8329 7.11161 21.3854 8.78463 22.5833 11.2007H30.7361Z" fill="white"/>
<path d="M47.0571 42.442L41.3961 32.8436L46.6781 26.5155H42.8973L37.2818 33.4502V26.5155H34.1733V42.442H37.2818V37.6555L39.339 35.194L43.4331 42.442H47.0571ZM55.5334 26.4953L61.3511 42.4471H58.1061L57.166 39.6267H57.1458L54.3709 31.1959L52.3592 37.0136H54.3305L55.1998 39.6318H51.4848L50.5245 42.4521H47.2795L53.0719 26.5003H55.5334V26.4953ZM66.2034 42.442H63.0949V26.5155H69.3371C70.9192 26.5155 72.1879 26.9956 73.1381 27.9459C74.0479 28.8557 74.5028 30.003 74.5028 31.393C74.5028 32.4544 74.2096 33.3592 73.6284 34.1224C73.1078 34.7947 72.4254 35.2799 71.5914 35.5781L75.1497 42.4471H71.5459L69.0187 37.2562V33.5007H69.1299C69.8021 33.5007 70.343 33.3086 70.7625 32.9195C71.182 32.5303 71.3892 32.0248 71.3892 31.3981C71.3892 30.7713 71.177 30.2659 70.7625 29.8767C70.343 29.4875 69.8021 29.2954 69.1299 29.2954H66.1983V42.442H66.2034ZM80.7198 26.5155H77.6113V42.442H80.7198V26.5155ZM92.2439 26.5155H89.1354V37.0742C89.1354 38.8938 88.3014 39.8036 86.6284 39.8036C85.8702 39.8036 85.1879 39.5054 84.5915 38.909L82.5343 40.9459C83.6261 42.0326 84.9857 42.5785 86.6284 42.5785C88.1953 42.5785 89.4993 42.1236 90.5456 41.2138C91.6778 40.2282 92.2439 38.8938 92.2439 37.2107V26.5155ZM106.134 42.442V39.6671H98.754V35.7954H105.042V33.0205H98.754V29.2853H106.134V26.5104H95.6405V42.437H106.134V42.442ZM112.174 42.442H109.065V26.5155H115.307C116.889 26.5155 118.153 26.9956 119.108 27.9459C120.018 28.8557 120.473 30.003 120.473 31.393C120.473 32.4544 120.18 33.3592 119.599 34.1224C119.078 34.7947 118.396 35.2799 117.562 35.5781L121.12 42.4471H117.516L114.989 37.2562V33.5007H115.1C115.772 33.5007 116.318 33.3086 116.733 32.9195C117.152 32.5303 117.359 32.0248 117.359 31.3981C117.359 30.7713 117.147 30.2659 116.733 29.8767C116.313 29.4875 115.772 29.2954 115.1 29.2954H112.169V42.442H112.174ZM130.183 26.4953L136 42.4471H132.755L131.815 39.6267H131.795L129.02 31.1959L127.008 37.0136H128.98L129.854 39.6318H126.139L125.179 42.4521H121.934L127.726 26.5003H130.183V26.4953Z" fill="white"/>
<path d="M51.3834 17.0585C51.0093 18.5648 50.1147 19.3179 48.6995 19.3179C47.8352 19.3179 47.173 19.0449 46.708 18.489C46.1874 17.938 45.9246 16.4369 45.9246 13.9956C45.9246 11.5492 46.1874 10.0531 46.708 9.50215C47.168 8.95122 47.8352 8.67322 48.6995 8.67322C50.1147 8.67322 51.0093 9.42633 51.3834 10.9326H54.5373C54.2695 9.33535 53.6073 8.09196 52.5459 7.19732C51.5148 6.33301 50.2259 5.89833 48.6742 5.89833C46.9759 5.89833 45.5404 6.47959 44.3779 7.64211C43.6905 8.32952 43.2609 9.12812 43.0789 10.0329C42.902 10.9275 42.811 12.2467 42.811 13.9905C42.811 15.7343 42.902 17.0535 43.0789 17.9481C43.2558 18.8579 43.6905 19.6565 44.3779 20.3439C45.5404 21.5065 46.9708 22.0877 48.6742 22.0877C50.2259 22.0877 51.5148 21.653 52.5459 20.7887C53.6023 19.8941 54.2695 18.6507 54.5373 17.0535H51.3834V17.0585ZM68.0479 21.9563V19.1814H60.6684V15.3148H66.9561V12.5399H60.6684V8.80464H68.0479V6.02975H57.5548V21.9563H68.0479ZM83.6156 21.9563V6.02975H80.5071V15.7848L74.1991 6.02975H71.4243V21.9563H74.5327V12.181L80.8407 21.9563H83.6156ZM97.9096 8.80464V6.02975H86.4764V8.80464H90.6362V21.9563H93.7447V8.80464H97.9096ZM106.032 6.00953L111.85 21.9614H108.605L107.665 19.141H107.639L104.864 10.7102L102.853 16.5278H104.824L105.693 19.146H101.978L101.018 21.9664H97.7731L103.565 6.01458H106.032V6.00953ZM117.152 21.9563H114.043V6.02975H120.286C121.868 6.02975 123.136 6.50992 124.087 7.46015C124.996 8.36996 125.451 9.51731 125.451 10.9073C125.451 11.9687 125.163 12.8735 124.577 13.6367C124.056 14.3089 123.374 14.7942 122.54 15.0924L126.098 21.9614H122.494L119.967 16.7704V13.0099H120.078C120.751 13.0099 121.291 12.8179 121.711 12.4287C122.125 12.0395 122.338 11.534 122.338 10.9073C122.338 10.2805 122.13 9.77509 121.711 9.3859C121.291 8.99671 120.751 8.80464 120.078 8.80464H117.147V21.9563H117.152Z" fill="white"/>
</svg>
