<svg width="92" height="39" fill="none" xmlns="http://www.w3.org/2000/svg"><path fill-rule="evenodd" clip-rule="evenodd" d="M79.275 0H41.364c-.008 0-.011.005-.011.01v8.23c0 .007.003.01.01.01h37.853c1.947 0 3.523 1.524 3.463 3.477-.057 1.887-1.687 3.355-3.583 3.355h-8.74a.012.012 0 0 0-.011.01l-.006 8.226c0 .005.006.01.011.01h4.695c.005 0 .008.003.01.006l7.618 15.08c.003.002.006.005.009.005h9.307a.01.01 0 0 0 .008-.017L83.894 22.44c-.003-.005-.003-.01.003-.013 4.16-1.804 7.078-5.934 7.078-10.73 0-6.43-5.242-11.663-11.7-11.693V0Z" fill="#fff"/><path fill-rule="evenodd" clip-rule="evenodd" d="M62.051 23.326h-48.99a.012.012 0 0 1-.01-.01v-8.224a.01.01 0 0 1 .01-.01h48.99c.006 0 .011.005.011.01v8.22c0 .009-.005.014-.01.014Zm8.372 15.093H20.725c-.005 0-.01-.006-.01-.011v-8.22c0-.006.005-.011.01-.011h49.698a.01.01 0 0 1 .01.01v8.22c0 .006-.005.012-.01.012Z" fill="#fff"/><path fill-rule="evenodd" clip-rule="evenodd" d="M33.046 0H.014a.012.012 0 0 0-.011.01v5.487H0v32.91c0 .006.005.012.01.012h8.256c.006 0 .011-.006.011-.011V8.253c0-.006.003-.011.008-.011h24.761c.005 0 .01-.006.01-.011V.011c0-.006-.005-.011-.01-.011Z" fill="#fff"/></svg>