<svg width="146" height="43" fill="none" xmlns="http://www.w3.org/2000/svg"><path d="M72.806 42.654H7.28C3.139 42.654 0 39.63 0 35.643V6.983C0 3.036 3.15 0 7.25 0h131.106c4.101 0 7.251 3.03 7.251 6.983v28.705c0 3.913-3.161 6.96-7.228 6.96H72.806v.006Zm0-3.013h65.471c2.494 0 4.214-1.669 4.214-4.09V7.103c0-2.42-1.725-4.09-4.22-4.09H7.336c-2.495.001-4.22 1.67-4.22 4.09v28.45c0 2.42 1.725 4.09 4.22 4.09h65.47Z" fill="#fff"/><path d="M26.547 34.994V23.5h6.413c-3.736-4.522-7.387-8.93-11.084-13.407-3.73 4.494-7.427 8.953-11.191 13.493h7.022v11.42c-.05.033-.08.068-.108.068-2.193-.023-4.385.04-6.567-.097-2.335-.143-3.656-1.59-3.668-3.85a4669.65 4669.65 0 0 1-.034-19.975c0-2.221 1.418-3.61 3.714-3.719.153-.006.313-.006.467-.006h20.464c2.62 0 4.294 1.618 4.294 4.158v19.724c0 2.005-1.241 3.349-3.309 3.588-.296.034-.587.085-.883.085-1.81.017-3.64.012-5.53.012Zm53.396.376c-1.948 0-3.902-.017-5.85.005-2.472.023-4.5-1.89-4.943-4.004-.08-.376-.12-.769-.234-1.133-.74-2.33 1.002-4.255 2.802-4.836 2.381-.763 4.329-.005 6.01 1.607.415.398.79.86 1.087 1.344.273.444.587.717 1.128.729.552.017 1.11.085 1.663.05.66-.045 1.008-.415 1.025-1.053.023-.877-.188-1.697-.82-2.37-4.118-4.373-8.236-8.747-12.354-13.127-1.196-1.27-1.1-3.053.091-4.335 1.299-1.4 3.372-1.332 5.07-.649.512.21 1.03.53 1.4.923 4.603 4.835 9.199 9.677 13.732 14.569.564.604.826 1.498 1.128 2.29.672 1.788.986 3.633.524 5.53-.62 2.546-2.722 4.272-5.422 4.368-2.016.069-4.032.012-6.049.012v.08h.012Zm-34.43.256c-1.544-.023-2.654-.895-3.537-2.028-.564-.723-.501-1.635-.085-2.403.467-.872 1.048-1.698 1.674-2.472 5.48-6.755 10.987-13.493 16.483-20.237 1.014-1.241 2.626-1.754 4.038-1.184 1.567.632 2.66 1.862 2.558 3.554-.046.723-.314 1.367-.77 1.942-5.7 7.102-11.39 14.205-17.092 21.307-.814 1.002-1.913 1.458-3.269 1.52ZM93.931 7.08h7.404v24.912c0 1.794-.9 3.082-2.517 3.338-.889.142-1.845.09-2.734-.069-1.15-.205-1.942-1.287-2.073-2.557a14.439 14.439 0 0 1-.074-1.407c-.006-7.848-.006-15.697-.006-23.54V7.08Zm32.482 6.829h-8.304c-1.84-.006-3.344-1.225-3.526-2.865-.228-2.045.815-3.537 2.763-3.947.199-.04.415-.046.62-.046 5.639 0 11.278-.006 16.922 0 1.936 0 3.32 1.413 3.411 3.28.114 2.222-1.72 3.652-3.742 3.6-2.711-.074-5.427-.022-8.144-.022Zm-3.463 1.845h7.387v.553c0 5.091.023 10.189-.017 15.287a5.989 5.989 0 0 1-.473 2.244c-.535 1.241-1.862 1.782-3.605 1.634-.296-.023-.593-.045-.877-.097-1.641-.313-2.432-1.344-2.432-3.195-.006-5.33 0-10.662 0-15.993 0-.137.011-.268.017-.433ZM41.96 27.031c-.012-.25-.03-.41-.03-.57 0-5.273-.01-10.547.012-15.821 0-.53.085-1.083.268-1.572.404-1.094 1.287-1.635 2.46-1.709.917-.057 1.834-.046 2.717.285 1.327.495 2.09 1.52 2.09 2.887.006 2.432.012 4.87-.011 7.308 0 .245-.091.54-.25.729a1825.777 1825.777 0 0 1-6.864 8.042c-.097.125-.216.233-.393.421Zm13.042 2.7c.051-.097.074-.148.102-.188 1.675-2.016 3.344-4.032 5.07-6.111.165.17.319.319.46.473 1.59 1.714 3.23 3.389 4.74 5.165.882 1.037 1.264 2.319.945 3.68-.091.398-.353.814-.655 1.105-.632.61-1.287 1.23-2.215 1.446-1.367.314-2.655.063-3.651-.843-1.658-1.497-3.19-3.126-4.796-4.727ZM77.83 7.268c.068-.006.137-.017.205-.017 3.32-.006 6.64-.023 9.962-.017 1.788 0 3.155 1.013 3.445 2.625.177 1.008.165 2.05-.376 2.99-.478.838-1.213 1.339-2.22 1.367a94.3 94.3 0 0 1-4.016.006c-.228-.006-.496-.205-.672-.382-1.948-1.965-3.873-3.947-5.821-5.912-.188-.188-.445-.313-.667-.472.052-.063.109-.126.16-.188Zm25.687 6.555V7.068c.706 0 1.378-.011 2.056 0 1.594.023 3.201-.023 4.79.103 1.389.108 2.153 1.02 2.232 2.352.029.552.097 1.105.086 1.657-.029 1.316-.974 2.313-2.449 2.512-.838.114-1.692.114-2.546.12-1.373.022-2.74.011-4.169.011Zm.131 3.292c2.221 0 4.414-.091 6.595.029 1.55.085 2.136.706 2.381 2.198.131.78.137 1.612.029 2.398-.183 1.247-1.06 1.942-2.717 2.016-2.079.091-4.169.023-6.288.023v-6.664Zm-.006 17.805v-6.778c.689 0 1.361-.006 2.033 0 1.55.023 3.099.006 4.637.102 1.623.103 2.432.991 2.477 2.558.017.507.04 1.014-.034 1.509-.205 1.373-1.509 2.517-3.002 2.569-1.982.068-3.964.057-5.946.08-.04.005-.091-.023-.165-.04Z" fill="#fff"/></svg>