<svg width="102" height="102" fill="none" xmlns="http://www.w3.org/2000/svg"><path d="M42.335 67.795c0 1.83-.71 3.388-2.132 4.666-1.42 1.284-3.181 1.925-5.286 1.925-2.121 0-3.898-.641-5.314-1.925-1.42-1.283-2.126-2.837-2.126-4.666v-7.286h5.176v10.123c0 1.729.758 2.588 2.269 2.588 1.495 0 2.243-.86 2.243-2.588v-7.853c0-2.143-.514-4.025-1.548-5.648l-6.464-10.059c-1.114-1.745-1.67-3.68-1.67-5.806v-6.152c0-1.829.71-3.383 2.126-4.666 1.42-1.283 3.192-1.925 5.313-1.925 2.105 0 3.866.642 5.287 1.925 1.421 1.283 2.131 2.837 2.131 4.666V42.4h-5.17V32.278c0-1.724-.747-2.588-2.243-2.588-1.51 0-2.27.864-2.27 2.588v7.566c0 2.127.515 3.999 1.544 5.616l6.464 10.065c1.113 1.744 1.67 3.69 1.67 5.833v6.437Zm29.961-.001c0 1.83-.711 3.389-2.127 4.667-1.42 1.283-3.181 1.925-5.287 1.925-2.126 0-3.897-.642-5.313-1.925-1.421-1.284-2.126-2.837-2.126-4.667V60.51h5.17v10.12c0 1.73.758 2.588 2.27 2.588 1.49 0 2.237-.859 2.237-2.588v-7.853c0-2.142-.514-4.025-1.548-5.647l-6.47-10.06c-1.113-1.744-1.67-3.68-1.67-5.806v-6.151c0-1.83.71-3.383 2.127-4.666 1.42-1.284 3.192-1.925 5.313-1.925 2.1 0 3.865.641 5.287 1.925 1.415 1.283 2.126 2.836 2.126 4.666V42.4h-5.17V32.277c0-1.724-.748-2.588-2.238-2.588-1.511 0-2.27.864-2.27 2.588v7.567c0 2.126.515 3.998 1.544 5.615l6.464 10.065c1.113 1.745 1.67 3.69 1.67 5.833v6.437h.01Zm-52.28-11.787H18.83V46.54h5.8v1.04h-4.613v2.99h3.824v.955h-3.824v4.48Zm32.872-1.04v1.04h-6.125V46.54h5.998v1.04h-4.81v3.012h3.813v.96H47.95v3.414h4.937Zm29.387 1.04h-1.24l-1.745-4.1h-2.71v4.1h-1.108V46.54H79.2c1.013 0 1.766.276 2.254.828.488.551.731 1.156.731 1.813 0 .504-.138.986-.408 1.453-.276.461-.721.79-1.352.992l1.85 4.38Zm-5.7-5.06h2.477c.652 0 1.14-.169 1.458-.519.323-.344.482-.769.482-1.267 0-.499-.17-.891-.509-1.167-.34-.28-.769-.419-1.288-.419h-2.62v3.373Z" fill="#fff"/><path d="M59.813 92.725C82.6 87.602 96.923 64.975 91.8 42.187 86.677 19.4 64.051 5.077 41.262 10.2 18.474 15.323 4.152 37.949 9.275 60.737c5.123 22.79 27.75 37.11 50.538 31.988Z" stroke="#fff" stroke-width="1.061"/></svg>