<?xml version="1.0" encoding="utf-8"?>
<svg viewBox="187.0857 0.0002 125.8286 499.9998" xmlns="http://www.w3.org/2000/svg">
    <defs><style>.cls-1{fill:#EAB020}</style></defs>
    <path d="M 312.861 420.888 C 312.047 414.757 311.432 408.423 310.618 402.291 L 309.804 394.727 C 308.579 383.69 307.15 372.649 305.925 361.408 C 305.315 355.481 304.501 349.553 303.886 343.422 C 303.276 338.923 302.869 334.221 302.259 329.722 C 301.611 324.761 301.066 319.786 300.626 314.801 C 299.808 308.259 299.198 301.716 298.379 295.178 C 297.565 288.428 296.955 281.686 296.137 274.94 C 295.119 266.151 294.098 257.564 293.284 248.775 C 292.433 240.794 291.481 232.818 290.426 224.861 C 289.409 216.681 288.591 208.507 287.574 200.327 C 286.755 192.767 285.941 185.406 285.123 177.842 L 282.677 156.379 C 281.863 149.429 281.045 142.276 280.231 135.327 C 279.209 126.537 278.192 117.544 277.17 108.75 C 276.56 104.052 273.702 100.778 269.421 99.553 C 262.485 97.916 256.368 97.102 250.454 97.102 C 243.93 96.894 237.402 97.713 230.466 99.553 C 225.981 100.575 223.332 103.844 222.717 108.546 C 221.496 119.995 220.271 129.806 219.249 139.007 C 218.232 148.204 217.21 157.4 215.989 166.805 L 213.132 191.949 C 212.114 201.557 210.889 211.165 209.872 220.769 C 209.257 226.904 208.443 233.035 207.828 239.171 C 206.811 247.549 205.993 255.724 204.975 264.107 C 203.953 272.282 203.14 280.461 202.118 288.636 L 199.062 314.39 C 198.04 324.206 196.819 333.809 195.797 343.626 C 194.983 351.185 194.165 358.75 193.351 366.518 C 191.312 384.916 189.273 402.906 187.234 419.871 C 186.725 422.983 187.539 426.168 189.477 428.656 C 191.719 431.315 193.758 434.177 196.001 436.84 L 197.226 438.472 C 205.382 448.691 213.538 458.914 221.496 469.335 C 223.942 472.406 226.184 475.268 228.63 478.333 C 233.12 484.057 237.605 489.574 242.095 495.298 C 243.519 497.138 245.766 500 250.047 500 C 254.329 500 256.571 497.138 258.204 495.094 L 260.858 491.825 C 267.997 482.643 275.205 473.511 282.474 464.43 L 310.618 428.864 L 310.618 428.661 C 311.229 427.842 313.268 424.98 312.861 420.893 L 312.861 420.888 Z M 290.426 29.439 C 283.902 19.424 276.56 11.656 267.992 5.932 C 254.329 -3.061 242.908 -0.199 235.566 3.888 C 225.777 9.404 217.418 17.38 209.46 29.439 L 207.421 32.301 L 209.257 39.047 C 209.872 41.498 210.686 43.948 211.296 46.403 L 214.967 58.67 C 217.21 66.031 219.253 73.387 221.496 80.54 C 223.128 86.061 227.613 88.72 232.917 87.291 C 244.134 84.424 255.351 84.424 266.365 87.291 C 267.382 87.494 268.2 87.698 269.217 87.698 C 273.296 87.698 276.763 85.039 277.989 80.545 C 279.621 74.821 281.248 69.097 282.88 63.576 L 283.084 63.169 C 284.92 56.626 286.959 50.084 288.794 43.541 L 292.059 32.504 L 290.426 29.439 Z" class="cls-1"/>
</svg>