<svg width="114" height="104" fill="none" xmlns="http://www.w3.org/2000/svg"><path d="M107.081 102.788h-7.224c-.952 0-1.666-.759-1.666-1.772s.714-1.772 1.666-1.772h7.224c1.826 0 3.413-1.266 3.413-2.785V6.414c0-1.52-1.587-2.785-3.413-2.785H6.827C5 3.629 3.413 4.895 3.413 6.414v89.96c0 1.52 1.588 2.785 3.414 2.785h6.905c.953 0 1.667.76 1.667 1.772 0 1.013-.714 1.773-1.667 1.773H6.827C3.096 102.704 0 99.834 0 96.29V6.414C0 2.869 3.016 0 6.827 0H107.16c3.731 0 6.827 2.87 6.827 6.414v89.96c-.08 3.545-3.096 6.414-6.906 6.414z" fill="#B3B3C5"/><path d="M38.5 66.585h-.318c-.873-.17-1.508-1.182-1.27-2.11.238-1.097.635-2.194 1.032-3.123a11.677 11.677 0 0 1 1.825-2.616l4.763-5.063c1.508-1.604 3.572-2.532 5.715-2.532h13.177c2.143 0 4.207.928 5.715 2.532l4.763 5.063c.714.76 1.35 1.604 1.826 2.616.476 1.013.873 2.026 1.11 3.123.16.928-.396 1.94-1.27 2.11-.872.168-1.825-.422-1.984-1.35a9.356 9.356 0 0 0-.714-2.11c-.318-.676-.794-1.266-1.27-1.773l-4.763-5.063c-.873-.928-2.064-1.52-3.334-1.52H50.247c-1.27 0-2.46.507-3.334 1.52l-4.762 5.063c-.477.507-.953 1.097-1.27 1.773-.318.59-.556 1.35-.715 2.11a1.735 1.735 0 0 1-1.667 1.35zM56.835 49.79c-6.033 0-10.954-5.231-10.954-11.645s4.921-11.646 10.954-11.646 10.954 5.232 10.954 11.646c0 6.413-4.921 11.646-10.954 11.646zm0-19.662c-4.207 0-7.62 3.628-7.62 8.101 0 4.473 3.413 8.102 7.62 8.102 4.207 0 7.62-3.63 7.62-8.102 0-4.473-3.413-8.101-7.62-8.101z" fill="#B3B3C5"/><path d="M79.853 103.126H33.972c-3.493 0-6.27-2.954-6.27-6.667V70.89c0-3.714 2.777-6.667 6.27-6.667h45.88c3.493 0 6.271 2.953 6.271 6.667v25.57c0 3.629-2.857 6.667-6.27 6.667zm-45.881-35.36c-1.587 0-2.937 1.35-2.937 3.123v25.57c0 1.688 1.27 3.123 2.937 3.123h45.88c1.588 0 2.938-1.35 2.938-3.123V70.89c0-1.688-1.27-3.123-2.938-3.123h-45.88zM96.578 18.8H82.422c-.812 0-1.422-.6-1.422-1.4 0-.8.61-1.4 1.422-1.4h14.156c.812 0 1.422.6 1.422 1.4 0 .8-.61 1.4-1.422 1.4zm0 9.2H82.422A1.42 1.42 0 0 1 81 26.6c0-.8.61-1.4 1.422-1.4h14.156c.812 0 1.422.6 1.422 1.4 0 .733-.61 1.4-1.422 1.4z" fill="#B3B3C5"/></svg>