<svg xmlns="http://www.w3.org/2000/svg" viewBox="0 0 66 79.7"><defs><style>.cls-1{fill:#00003f}</style></defs><g id="Layer_2" data-name="Layer 2"><g id="Layer_1-2" data-name="Layer 1"><path d="M2.8 26.4a1.5 1.5 0 0 0-1.1-.4 1.61 1.61 0 0 0-1.1.5 1.23 1.23 0 0 0-.5 1 1.61 1.61 0 0 0 .5 1.1 1.61 1.61 0 0 0 1.1.5 1.61 1.61 0 0 0 1.1-.5 1.61 1.61 0 0 0 .5-1.1 3.7 3.7 0 0 0-.5-1.1ZM61.4 0H29.9a1.58 1.58 0 0 0-1.6 1.6 1.58 1.58 0 0 0 1.6 1.6h31.5A1.58 1.58 0 0 1 63 4.8V75a1.58 1.58 0 0 1-1.6 1.6H4.8A1.58 1.58 0 0 1 3.2 75V33.3a1.58 1.58 0 0 0-1.6-1.6A1.58 1.58 0 0 0 0 33.3V75a4.69 4.69 0 0 0 4.7 4.7h56.6A4.69 4.69 0 0 0 66 75V4.7A4.67 4.67 0 0 0 61.4 0Z" class="cls-1"/><path d="M33.1 6.2c-1.1 0-2.1.1-3.2.2a1.57 1.57 0 0 0 .5 3.1 24.52 24.52 0 0 1 2.7-.2 17.63 17.63 0 0 1 17.6 17.6 18 18 0 0 1-4.1 11.3 14.68 14.68 0 0 0-4.6-5 12.93 12.93 0 0 0-3.5-1.8 7.64 7.64 0 0 0 2.3-5.4v-1.5a7.6 7.6 0 1 0-15.2 0V26a7.47 7.47 0 0 0 2.3 5.4 23.13 23.13 0 0 0-3.5 1.8 14.68 14.68 0 0 0-4.6 5 17.64 17.64 0 0 1-3.9-8.4 1.57 1.57 0 1 0-3.1.5 20.69 20.69 0 0 0 41.1-3.4A20.89 20.89 0 0 0 33.1 6.2Zm-4.5 18.3a4.5 4.5 0 0 1 9 0V26a4.5 4.5 0 0 1-9 0Zm4.5 20a17.33 17.33 0 0 1-11.1-4 12.38 12.38 0 0 1 22.2 0 17.33 17.33 0 0 1-11.1 4ZM47.4 61.9H25.3a1.6 1.6 0 0 0 0 3.2h22.1a1.6 1.6 0 1 0 0-3.2ZM19.8 53.6a1.46 1.46 0 1 0 .5 1.1 1.61 1.61 0 0 0-.5-1.1ZM19.8 62.3a1.46 1.46 0 1 0 .5 1.1 1.61 1.61 0 0 0-.5-1.1ZM47.4 53.2H25.3a1.6 1.6 0 0 0 0 3.2h22.1a1.6 1.6 0 1 0 0-3.2ZM18.4 9a1.57 1.57 0 0 0-2.2 0l-5.1 5-1.7-1.7a1.56 1.56 0 0 0-2.2 2.2l2.8 2.8a1.61 1.61 0 0 0 1.1.5 1.61 1.61 0 0 0 1.1-.5l6.2-6.2a1.45 1.45 0 0 0 0-2.1Z" class="cls-1"/><path d="M12.9 0a12.8 12.8 0 1 0 12.8 12.8A12.89 12.89 0 0 0 12.9 0Zm0 22.4a9.6 9.6 0 1 1 9.6-9.6 9.6 9.6 0 0 1-9.6 9.6Z" class="cls-1"/></g></g></svg>