<?xml version="1.0" encoding="UTF-8"?>
<svg id="Layer_1" data-name="Layer 1" xmlns="http://www.w3.org/2000/svg" viewBox="0 0 1000 1000">
  <defs>
    <style>
      .cls-1 {
        fill: none;
        stroke: #12123c;
        stroke-linecap: round;
        stroke-linejoin: round;
        stroke-width: 20px;
      }
    </style>
  </defs>
  <g>
    <path class="cls-1" d="m146.67,686.79h-53.53c-10.92,0-19.76-8.75-19.76-19.55v-29.94c0-21.37,8.58-41.86,23.85-56.97l42.87-42.41c10.91-10.79,25.7-16.85,41.13-16.85h81.96"/>
    <path class="cls-1" d="m408.42,667.24c0,10.8-8.85,19.55-19.76,19.55h-211.49"/>
    <circle class="cls-1" cx="239.7" cy="396.37" r="83.16"/>
    <polygon class="cls-1" points="469.67 523.88 408.12 523.88 408.12 462.99 346.29 462.99 346.29 523.88 284.74 523.88 284.74 585.05 346.29 585.05 346.29 645.94 408.12 645.94 408.12 585.05 469.67 585.05 469.67 523.88"/>
  </g>
  <path class="cls-1" d="m853.33,686.79h53.53c10.92,0,19.76-8.75,19.76-19.55v-29.94c0-21.37-8.58-41.86-23.85-56.97l-42.87-42.41c-10.91-10.79-25.7-16.85-41.13-16.85h-81.96"/>
  <polyline class="cls-1" points="811.08 686.79 663.14 686.79 604.07 686.79"/>
  <circle class="cls-1" cx="748.54" cy="396.37" r="83.16"/>
  <polygon class="cls-1" points="641.95 585.32 703.5 585.32 703.5 524.15 641.95 524.15 580.12 524.15 518.57 524.15 518.57 585.32 580.12 585.32 641.95 585.32"/>
  <path class="cls-1" d="m652,686.79h-53.53c-10.92,0-19.76-8.75-19.76-19.55v-29.94c0-4.92.46-9.8,1.34-14.57"/>
</svg>
