<svg xmlns="http://www.w3.org/2000/svg" viewBox="0 0 801.6 735.6"><defs><style>.cls-1{fill:#fff;}.cls-2{fill:none;}</style></defs><g id="Layer_2" data-name="Layer 2"><g id="a"><path class="cls-1" d="M159.7,387.5A94.55,94.55,0,1,0,254.3,293a94.64,94.64,0,0,0-94.6,94.5m94.5-74.1a74.05,74.05,0,1,1-74,74,74.09,74.09,0,0,1,74-74"/><path class="cls-1" d="M195.3,138.2a60.45,60.45,0,0,1,.6-8.7,30.71,30.71,0,0,1,2.3-8,24.23,24.23,0,0,1,4.9-7.2,35.19,35.19,0,0,1,8.3-6.2c1.7-.9,4-2.1,6.9-3.7a71.92,71.92,0,0,0,8.3-5.2,32.75,32.75,0,0,0,7-6.9,13.85,13.85,0,0,0,3-8.6,12,12,0,0,0-4.8-10.2,17.72,17.72,0,0,0-10.9-3.7,15.66,15.66,0,0,0-7,1.5,29.72,29.72,0,0,0-5.6,3.6,24,24,0,0,0-4.3,4.7c-1.2,1.7-2.2,3.2-3.2,4.6L180.3,69.9A39.28,39.28,0,0,1,196.7,51,48.17,48.17,0,0,1,222,44.2a53.07,53.07,0,0,1,15.1,2.2,39.28,39.28,0,0,1,13.5,6.9,36.09,36.09,0,0,1,9.7,12.3c2.5,5,3.8,11.1,3.8,18.3,0,7.5-1.6,13.9-4.7,19a41.28,41.28,0,0,1-13.8,13.4,92.71,92.71,0,0,1-8.4,5,65.66,65.66,0,0,0-7.9,4.6,23.24,23.24,0,0,0-5.8,5.4,11.53,11.53,0,0,0-2.2,7.1l-26-.2Zm.6,18.9h26v29.7h-26Z"/><path class="cls-1" d="M801.6,43.4h-357V0H0V230.9H70.6a85.16,85.16,0,0,0,12.8,24.8c13.9,18.3,40.7,36.5,56.8,36.5a15.29,15.29,0,0,0,5.4-.9,13.56,13.56,0,0,0,9-13.6c-.3-6.6-.2-29.4-.1-46.9H318v55.7H633.5c.1,18.4.2,42.4-.2,49.4a14.2,14.2,0,0,0,9.8,14.3,18.71,18.71,0,0,0,5.9.9c17.6,0,46.6-19.2,61.8-38.5a91.18,91.18,0,0,0,13.9-26.1h76.8V43.4ZM132.2,208.7v22.2h.1c-.1,11.9-.1,26.3,0,36.6-8.8-4.2-22.1-13.3-31.2-25.2-11-14.4-12.7-33.3-12.7-33.5h-.1v-.1H22.2V22.2H422.4V43.4H318V208.7Zm645.2,54.5H705.6v.1h-.1c0,.2-1.9,20.1-13.8,35.2-9.9,12.5-24.4,22.1-33.9,26.6.1-10.8,0-26,0-38.5h.1V263.2H342.2V66.8H777.4V263.2Z"/><path class="cls-2" d="M539.1,504.3a74.05,74.05,0,1,0-74-74.1,74.11,74.11,0,0,0,74,74.1"/><path class="cls-1" d="M691.1,609.8,648,566.6a68.37,68.37,0,0,0-48.7-20.1h-120a68.55,68.55,0,0,0-48.6,20.1l-13.5,13.5a91,91,0,0,0-10.9-13.2l-43.2-43.1a68.31,68.31,0,0,0-48.6-20.1H194.3a68.55,68.55,0,0,0-48.6,20.1L102.6,567a91.68,91.68,0,0,0-27,65.2v50.4a10.18,10.18,0,0,0,10.2,10.2H360.5v32.6a10.18,10.18,0,0,0,10.2,10.2H707.9a10.18,10.18,0,0,0,10.2-10.2V675a90.69,90.69,0,0,0-27-65.2ZM96,632.1a71.25,71.25,0,0,1,21-50.7l43.1-43.1a48,48,0,0,1,34.1-14.2H314.3a47.56,47.56,0,0,1,34.1,14.2l43.1,43.1a68.57,68.57,0,0,1,10.6,13.5l-14.6,14.9a91.14,91.14,0,0,0-26.9,62.5H96V632.1Zm601.7,83H381V675a71.25,71.25,0,0,1,21-50.7l8.8-8.8h0l16.3-16.3h0l18-18A48,48,0,0,1,479.3,567H599.4a48,48,0,0,1,34.2,14.2l43.2,43.1a71.42,71.42,0,0,1,21,50.7l-.1,40.1Z"/><path class="cls-1" d="M444.6,430.3a94.5,94.5,0,1,0,94.5-94.5,94.62,94.62,0,0,0-94.5,94.5m94.5-74.1a74.05,74.05,0,1,1-74,74,74.09,74.09,0,0,1,74-74"/><path class="cls-1" d="M524.9,144.3c-1.9,10.3-3.3,20.6,3.8,30.5-.4-16.4,4-30.4,14.7-42s24-17.7,39.9-17.8c.9,2.1-.4,2.9-1.2,4a49.55,49.55,0,0,0-6.6,12.2,19.87,19.87,0,0,0,.7,15.5c3.2,6.9,8.4,12.5,11.8,19.9,1.8-8.8,4.1-16.3,12.8-20.1.8,3.1-.5,5.4-.2,7.9a51.82,51.82,0,0,0,3.8,12.9c3.5,8.7,5.1,17.5,2.7,26.7-3.5,13.4-11.9,22.7-24.6,27.8a61.78,61.78,0,0,1-43.4,1.1c-15.6-5.1-24.6-16.2-27-32.4-2.3-15.5.9-30,9-43.4.8-1.2,1.2-2.8,3.8-2.8m27.4,48.9c.3-5.3,2-9.5,3.8-13.7,2.7-6.3,4.9-12.5.3-18.9a1.09,1.09,0,0,1,0-1.5,1.28,1.28,0,0,1,1.8-.3,55.83,55.83,0,0,1,5.2,3.2c14.8,11.2,21.8,25.8,18.8,44.5-1,6.1-4.2,11.1-9.5,15.7,7.8-1.7,13.9-4.5,19.3-9a36.9,36.9,0,0,0,11-42.5c-2.5-6.2-5.1-12.4-4.9-19.8a20,20,0,0,0-6.2,10.3,42.6,42.6,0,0,0-1.6,10.7c0,1,.2,2.5-1.4,2.6-1.4.1-1.3-1.4-1.6-2.2a27.52,27.52,0,0,0-2.7-6.9c-2.8-4.6-5.7-9.2-8.6-13.7-5.3-8.4-5.5-16.9-1.1-25.7,1.4-2.8,3-5.4,4.6-8.3-8.8,0-19.8,4.2-28,10.9-16.1,13.2-22,30.7-20.4,51.3-8.8-6.6-10.4-15.9-10.3-26.5-7.5,13.2-8.9,33.4-3.4,46.5,5,12,18.1,21.6,30.1,22-11.7-10.6-14.3-23.4-7.9-39.6,2.5-6.5,2.9-6.9,5.4-6.8.3,6.5,3.1,12,7.3,17.7m-9.1-12.8c-4.2,9-5.7,17.4-3.3,26.1,2.6,9.7,11.2,17,19.6,17,9.7,0,17.5-6.1,20.1-16a35.85,35.85,0,0,0-.9-21,44.46,44.46,0,0,0-17.8-23.2c1.7,6.2.1,11.3-2,16.4-2.5,6-5.2,12-3.8,18.9a1.31,1.31,0,0,1-1,1.8c-.8.1-1.2-.3-1.5-1-2.8-6.2-7.7-11.3-9.4-19"/><path class="cls-1" d="M559.5,229a68.71,68.71,0,0,1-21.2-3.5c-16.3-5.4-26.3-17.3-28.8-34.6a66.66,66.66,0,0,1,9.4-45.2.76.76,0,0,0,.2-.4,6.16,6.16,0,0,1,5.8-3.7h3.3l-.6,3.2c-1.2,6.4-2.1,12.4-1,18.1A56.31,56.31,0,0,1,541.4,131c11.3-12.3,25.3-18.6,41.9-18.6h1.8l.7,1.6a5.42,5.42,0,0,1-1.1,6.3,1.38,1.38,0,0,0-.3.4,45.2,45.2,0,0,0-6.2,11.5,17.29,17.29,0,0,0,.6,13.4,67.72,67.72,0,0,0,5.5,9.2c1,1.5,2,2.9,2.9,4.5,2-6.4,5.3-12,12.7-15.2l2.9-1.3.8,3a14.76,14.76,0,0,1,.1,5.9,6.87,6.87,0,0,0-.2,2.4,53.21,53.21,0,0,0,3.6,12.3c4.2,10.6,5.1,19.6,2.8,28.4-3.7,14.2-12.5,24.1-26.2,29.6a68.74,68.74,0,0,1-24.2,4.6M543,188.2c-2,6.4-2.2,12-.6,17.6,2.3,8.4,9.7,15,17,15h0c8.5,0,15.2-5.3,17.5-13.9a33.07,33.07,0,0,0-.8-19.4,40,40,0,0,0-11.7-17.9,34.83,34.83,0,0,1-2.9,11.3l-.4.9c-2.3,5.5-4.5,10.7-3.3,16.4a4.28,4.28,0,0,1-.6,3.4,3.9,3.9,0,0,1-2.6,1.7,4,4,0,0,1-4.5-2.6,48.55,48.55,0,0,0-3.5-6.2c-1.3-2.1-2.5-4.1-3.6-6.3m-24.1-23c-3.1,11.2-3,24.5.9,33.9,3.5,8.5,11.5,15.7,20,18.8-7.5-10.1-8.4-22.1-2.8-36.4,2.2-5.6,3.2-8.1,6.6-8.5l.5-1,.2.9h3.2l.2,2.5a24.4,24.4,0,0,0,3.2,10.6,59,59,0,0,1,2.8-7.5c2.7-6.3,4.3-11.1.6-16.2a4,4,0,0,1,5.4-5.8c.5.3,1.1.6,1.6.9a30.3,30.3,0,0,1,3.8,2.4c16.2,12.3,22.9,28.2,19.8,47.1a25.67,25.67,0,0,1-3.8,9.8,42.31,42.31,0,0,0,9.2-5.5,34.06,34.06,0,0,0,10.1-39.4l-.3-.9a74.92,74.92,0,0,1-4.2-12.9,19.8,19.8,0,0,0-1.5,3.9,42.4,42.4,0,0,0-1.5,9.9v.3c.1,4.1-2.4,4.9-3.8,5.1s-3.7-.2-4.4-3.9a.37.37,0,0,0-.1-.3,27.52,27.52,0,0,0-2.4-6.3c-2.1-3.5-4.4-7-6.5-10.5l-2-3.2c-5.8-9.1-6.2-18.6-1.2-28.4l2.1-3.9a47.52,47.52,0,0,0-21.4,9.9c-14.7,12.1-21.1,28.1-19.5,49l.5,6-4.8-3.6c-6.4-4.4-9.3-10.4-10.5-16.8"/></g></g></svg>