<svg xmlns="http://www.w3.org/2000/svg" viewBox="0 0 129.37 118.71"><defs><style>.cls-1{fill:#00003f}</style></defs><g id="Layer_2" data-name="Layer 2"><g id="Layer_3" data-name="Layer 3"><g id="Layer_6" data-name="Layer 6"><path d="M51.37 33.68H21.34v3.58h30.05" class="cls-1"/><path d="M71.75 10.48V0H0v37.26h14.25v-3.58H3.58V3.58h64.59v6.53" class="cls-1"/><path d="M22.63 47.16a2.46 2.46 0 0 0 .88-.14A2.18 2.18 0 0 0 25 44.83c-.08-1.8 0-11 0-11.06h-3.58c0 .3-.06 6.15 0 9.43a15.18 15.18 0 0 1-5-4.08 11.7 11.7 0 0 1-2-5.4l-3.73.28a15.28 15.28 0 0 0 2.77 7.3c2.25 2.95 6.56 5.89 9.17 5.89M25.76 62.53A15.26 15.26 0 1 0 41 47.27a15.28 15.28 0 0 0-15.24 15.26M41 50.58a12 12 0 1 1-12 12 12 12 0 0 1 12-12M31.52 22.3a10.67 10.67 0 0 1 .09-1.41 5.36 5.36 0 0 1 .37-1.3 4.16 4.16 0 0 1 .79-1.17 5.36 5.36 0 0 1 1.34-1l1.11-.6a10.75 10.75 0 0 0 1.35-.82 5.66 5.66 0 0 0 1.13-1.11 2.24 2.24 0 0 0 .49-1.39 2 2 0 0 0-.77-1.65 2.83 2.83 0 0 0-1.77-.6 2.54 2.54 0 0 0-1.13.24 4.09 4.09 0 0 0-.9.58 3.75 3.75 0 0 0-.69.75l-.51.74-3.31-2.31a6.39 6.39 0 0 1 2.65-3 7.75 7.75 0 0 1 4.09-1.09 8.87 8.87 0 0 1 2.43.35 6.36 6.36 0 0 1 2.18 1.12 6 6 0 0 1 1.57 2 6.47 6.47 0 0 1 .61 2.95 5.78 5.78 0 0 1-.75 3.06 6.9 6.9 0 0 1-2.23 2.16 12.7 12.7 0 0 1-1.36.8 13.71 13.71 0 0 0-1.27.74 3.72 3.72 0 0 0-.93.87 1.91 1.91 0 0 0-.35 1.15Zm.09 3.05h4.2v4.8h-4.2ZM68.12 10.78H55.23v31.69h50.93v3.77H51.33V7.01h78.04v39.23h-15.5v-3.77h11.6V10.78H68.12" class="cls-1"/><path d="M104.76 56.67a2.93 2.93 0 0 1-1-.15 2.29 2.29 0 0 1-1.58-2.3c.09-1.9 0-11.56 0-11.65h3.9c0 .32.06 6.48 0 9.93a16.1 16.1 0 0 0 5.48-4.29 12.1 12.1 0 0 0 2.23-5.69l3.89.29a15.88 15.88 0 0 1-3 7.69c-2.45 3.11-7.14 6.21-10 6.21M104.58 91.45a11 11 0 0 0-7.85-3.26H77.35a11 11 0 0 0-7.85 3.26l-7 7a14.79 14.79 0 0 0-4.36 10.52v8.13a1.65 1.65 0 0 0 1.66 1.65h54.42a1.65 1.65 0 0 0 1.65-1.65v-8.13a14.78 14.78 0 0 0-4.35-10.52Zm8 24h-51.1v-6.47a11.51 11.51 0 0 1 3.39-8.18l7-7a7.75 7.75 0 0 1 5.51-2.28h19.35a7.75 7.75 0 0 1 5.51 2.28l7 7a11.51 11.51 0 0 1 3.39 8.18ZM71.75 69.44A15.26 15.26 0 1 0 87 54.18a15.28 15.28 0 0 0-15.25 15.26M87 57.49a11.95 11.95 0 1 1-12 11.95 12 12 0 0 1 12-11.95M84.72 23.28c-.32 1.67-.53 3.32.6 4.93a9.22 9.22 0 0 1 2.37-6.78 8.45 8.45 0 0 1 6.44-2.87c.15.34-.07.48-.19.64a8.08 8.08 0 0 0-1.06 2 3.28 3.28 0 0 0 .11 2.5c.51 1.11 1.36 2 1.91 3.21.3-1.41.67-2.63 2.07-3.25.14.5-.09.88 0 1.28a9 9 0 0 0 .57 2.06 6.73 6.73 0 0 1 .46 4.3 6.34 6.34 0 0 1-4 4.48 10 10 0 0 1-7 .22 6.09 6.09 0 0 1-4.36-5.23 10.36 10.36 0 0 1 1.46-7c.11-.18.18-.45.61-.45m4.42 7.9a6.26 6.26 0 0 1 .63-2.22c.43-1 .8-2 0-3a.18.18 0 0 1 0-.25.2.2 0 0 1 .29 0 8.79 8.79 0 0 1 .83.51 7.11 7.11 0 0 1 3 7.18 4.23 4.23 0 0 1-1.54 2.54 7.27 7.27 0 0 0 3.12-1.45 5.93 5.93 0 0 0 1.77-6.85 7.91 7.91 0 0 1-.8-3.19 3.23 3.23 0 0 0-1 1.65 6.28 6.28 0 0 0-.25 1.72c0 .17 0 .41-.22.43s-.22-.22-.26-.35a4.73 4.73 0 0 0-.43-1.12c-.46-.74-.93-1.48-1.4-2.22a4 4 0 0 1-.18-4.14c.23-.45.49-.88.74-1.33A7.69 7.69 0 0 0 89 20.77a9.13 9.13 0 0 0-3.3 8.28C84.28 28 84 26.48 84 24.77a9.46 9.46 0 0 0-.55 7.51 5.93 5.93 0 0 0 4.87 3.55c-1.9-1.7-2.31-3.77-1.28-6.4.41-1 .46-1.1.87-1.1a5.28 5.28 0 0 0 1.2 2.85m-1.48-2.07a5.94 5.94 0 0 0-.54 4.21 3.58 3.58 0 0 0 3.16 2.74 3.29 3.29 0 0 0 3.24-2.57 5.85 5.85 0 0 0-.14-3.39 7.13 7.13 0 0 0-2.87-3.75 3.84 3.84 0 0 1-.29 2.65 5.11 5.11 0 0 0-.62 3c0 .14 0 .27-.16.3s-.2-.05-.25-.17a14.78 14.78 0 0 1-1.5-3.06" class="cls-1"/><path d="M90.3 37a11.19 11.19 0 0 1-3.43-.56 6.56 6.56 0 0 1-4.65-5.59 10.72 10.72 0 0 1 1.51-7.29v-.07a1 1 0 0 1 .94-.6h.54l-.1.52a7.89 7.89 0 0 0-.11 2.88 9.16 9.16 0 0 1 2.39-5.16 8.89 8.89 0 0 1 6.76-3h.28l.12.26a.89.89 0 0 1-.18 1v.06a7.08 7.08 0 0 0-1 1.85 2.79 2.79 0 0 0 .09 2.16 11.49 11.49 0 0 0 .82 1.54c.16.23.31.47.47.72a3.58 3.58 0 0 1 2-2.46l.47-.21.13.49a2.08 2.08 0 0 1 0 1 1.8 1.8 0 0 0 0 .38 8.28 8.28 0 0 0 .58 2 7.07 7.07 0 0 1 .45 4.59 6.73 6.73 0 0 1-4.22 4.78 10.35 10.35 0 0 1-3.86.71m-2.66-6.59a4.89 4.89 0 0 0-.1 2.85 3.16 3.16 0 0 0 2.74 2.41 2.84 2.84 0 0 0 2.81-2.25 5.33 5.33 0 0 0-.09-3.18 6.46 6.46 0 0 0-1.89-2.89 5.25 5.25 0 0 1-.48 1.81l-.06.15A4.47 4.47 0 0 0 90 32a.73.73 0 0 1-.09.55.65.65 0 0 1-1.15-.15 8.37 8.37 0 0 0-.56-1c-.19-.32-.39-.64-.56-1m-3.9-3.72a9 9 0 0 0 .15 5.47 5.7 5.7 0 0 0 3.22 3c-1.21-1.63-1.36-3.56-.45-5.87.36-.9.51-1.3 1.07-1.37h.63v.4A4.06 4.06 0 0 0 88.9 30a10.55 10.55 0 0 1 .46-1.21c.43-1 .69-1.8.09-2.62a.62.62 0 0 1 0-.78.63.63 0 0 1 .86-.15l.26.15a6.92 6.92 0 0 1 .61.39 7.54 7.54 0 0 1 3.2 7.6A4.13 4.13 0 0 1 93.8 35a5.77 5.77 0 0 0 1.47-.89 5.49 5.49 0 0 0 1.64-6.35v-.14a10.68 10.68 0 0 1-.68-2.07 4.15 4.15 0 0 0-.24.63 6.34 6.34 0 0 0-.24 1.61c0 .67-.38.8-.62.82s-.6 0-.7-.62a4.16 4.16 0 0 0-.39-1c-.34-.57-.71-1.14-1.06-1.69l-.33-.52a4.39 4.39 0 0 1-.2-4.58c.11-.21.22-.42.34-.63a7.61 7.61 0 0 0-3.45 1.6 8.66 8.66 0 0 0-3.2 7.83l.07 1-.77-.57a4.36 4.36 0 0 1-1.7-2.77M20.83 94.05l7-7a7.76 7.76 0 0 1 5.47-2.25h19.39a7.76 7.76 0 0 1 5.51 2.29l7 7a11.32 11.32 0 0 1 2.06 2.84 4.44 4.44 0 0 1 2.62-2.11 15 15 0 0 0-2.34-3.07l-7-7a11 11 0 0 0-7.85-3.25H33.3a11 11 0 0 0-7.85 3.25l-7 7a14.8 14.8 0 0 0-4.36 10.53v8.12a1.65 1.65 0 0 0 1.69 1.6h45.39a5.53 5.53 0 0 1-.74-3.31h-43v-6.47a11.49 11.49 0 0 1 3.4-8.17Z" class="cls-1"/></g></g></g></svg>