<?xml version="1.0" encoding="utf-8"?>
<!-- Generator: Adobe Illustrator 27.0.0, SVG Export Plug-In . SVG Version: 6.00 Build 0)  -->
<svg version="1.1" id="Layer_1" xmlns="http://www.w3.org/2000/svg" xmlns:xlink="http://www.w3.org/1999/xlink" x="0px" y="0px"
	 viewBox="0 0 801.6 735.6" style="enable-background:new 0 0 801.6 735.6;" xml:space="preserve">
<style type="text/css">
	.st0{opacity:0.3;}
	.st1{fill:#0F053F;}
</style>
<g id="Layer_2_00000173861179682911865710000018286310767841219215_" class="st0">
	<g id="a">
		<path class="st1" d="M159.7,387.5c0,52.2,42.3,94.6,94.5,94.6s94.6-42.3,94.6-94.5c0-52.2-42.3-94.6-94.5-94.6
			C202.1,293,159.8,335.3,159.7,387.5 M254.2,313.4c40.9,0,74.1,33.1,74.1,74c0,40.9-33.1,74.1-74,74.1c-40.9,0-74.1-33.1-74.1-74
			c0,0,0-0.1,0-0.1C180.2,346.6,213.4,313.4,254.2,313.4"/>
		<path class="st1" d="M195.3,138.2c0-2.9,0.2-5.8,0.6-8.7c0.4-2.8,1.2-5.5,2.3-8c1.2-2.7,2.8-5.1,4.9-7.2c2.4-2.5,5.2-4.6,8.3-6.2
			c1.7-0.9,4-2.1,6.9-3.7c2.9-1.5,5.7-3.3,8.3-5.2c2.7-1.9,5-4.3,7-6.9c1.9-2.4,3-5.5,3-8.6c0.2-4-1.6-7.8-4.8-10.2
			c-3.1-2.4-7-3.7-10.9-3.7c-2.4,0-4.8,0.5-7,1.5c-2,1-3.9,2.2-5.6,3.6c-1.6,1.4-3.1,2.9-4.3,4.7c-1.2,1.7-2.2,3.2-3.2,4.6
			l-20.5-14.3c3.3-7.9,9-14.6,16.4-18.9c7.6-4.6,16.4-6.9,25.3-6.8c5.1,0,10.2,0.7,15.1,2.2c4.9,1.4,9.5,3.7,13.5,6.9
			c4.1,3.3,7.4,7.5,9.7,12.3c2.5,5,3.8,11.1,3.8,18.3c0,7.5-1.6,13.9-4.7,19c-3.5,5.5-8.2,10.1-13.8,13.4c-2.7,1.8-5.5,3.5-8.4,5
			c-2.7,1.3-5.4,2.9-7.9,4.6c-2.2,1.5-4.2,3.3-5.8,5.4c-1.5,2.1-2.3,4.6-2.2,7.1L195.3,138.2L195.3,138.2z M195.9,157.1h26v29.7h-26
			V157.1z"/>
		<path class="st1" d="M801.6,43.4h-357V0H0v230.9h70.6c2.9,8.9,7.2,17.3,12.8,24.8c13.9,18.3,40.7,36.5,56.8,36.5
			c1.8,0,3.7-0.3,5.4-0.9c5.7-2,9.4-7.6,9-13.6c-0.3-6.6-0.2-29.4-0.1-46.9H318v55.7h315.5c0.1,18.4,0.2,42.4-0.2,49.4
			c-0.4,6.4,3.7,12.3,9.8,14.3c1.9,0.6,3.9,0.9,5.9,0.9c17.6,0,46.6-19.2,61.8-38.5c6-7.9,10.7-16.7,13.9-26.1h76.8L801.6,43.4
			L801.6,43.4z M132.2,208.7v22.2h0.1c-0.1,11.9-0.1,26.3,0,36.6c-8.8-4.2-22.1-13.3-31.2-25.2c-11-14.4-12.7-33.3-12.7-33.5h-0.1
			v-0.1H22.2V22.2h400.2v21.2H318v165.3H132.2z M777.4,263.2h-71.8v0.1h-0.1c0,0.2-1.9,20.1-13.8,35.2
			c-9.9,12.5-24.4,22.1-33.9,26.6c0.1-10.8,0-26,0-38.5h0.1v-23.4H342.2V66.8h435.2V263.2z"/>
		<path class="st1" d="M539.1,504.3c40.9,0,74.1-33.1,74.1-74s-33.1-74.1-74-74.1c-40.9,0-74.1,33.1-74.1,74
			C465.1,471.1,498.2,504.2,539.1,504.3"/>
		<path class="st1" d="M691.1,609.8L648,566.6c-12.9-12.9-30.4-20.2-48.7-20.1h-120c-18.2,0-35.7,7.2-48.6,20.1l-13.5,13.5
			c-3.2-4.7-6.9-9.2-10.9-13.2l-43.2-43.1c-12.9-12.9-30.4-20.2-48.6-20.1H194.3c-18.2,0-35.7,7.2-48.6,20.1L102.6,567
			c-17.3,17.3-27.1,40.7-27,65.2v50.4c0,5.6,4.5,10.2,10.2,10.2c0,0,0,0,0,0h274.7v32.6c0,5.6,4.5,10.2,10.2,10.2c0,0,0,0,0,0h337.2
			c5.6,0,10.2-4.5,10.2-10.2c0,0,0,0,0,0V675C718.3,650.5,708.5,627,691.1,609.8L691.1,609.8z M96,632.1c-0.1-19,7.5-37.3,21-50.7
			l43.1-43.1c9-9.1,21.3-14.2,34.1-14.2h120.1c12.8-0.1,25.1,5.1,34.1,14.2l43.1,43.1c4.1,4,7.6,8.6,10.6,13.5l-14.6,14.9
			c-16.7,16.6-26.3,39-26.9,62.5H96V632.1z M697.7,715.1H381V675c-0.1-19,7.5-37.3,21-50.7l8.8-8.8l0,0l16.3-16.3l0,0l18-18
			c9-9.1,21.4-14.2,34.2-14.2h120.1c12.8,0,25.2,5.1,34.2,14.2l43.2,43.1c13.5,13.4,21,31.7,21,50.7L697.7,715.1L697.7,715.1z"/>
		<path class="st1" d="M444.6,430.3c0,52.2,42.3,94.5,94.5,94.5s94.5-42.3,94.5-94.5s-42.3-94.5-94.5-94.5l0,0
			C486.9,335.9,444.7,378.1,444.6,430.3 M539.1,356.2c40.9,0,74.1,33.1,74.1,74s-33.1,74.1-74,74.1c-40.9,0-74.1-33.1-74.1-74
			c0,0,0-0.1,0-0.1C465.1,389.4,498.3,356.2,539.1,356.2"/>
		<path class="st1" d="M524.9,144.3c-1.9,10.3-3.3,20.6,3.8,30.5c-0.4-16.4,4-30.4,14.7-42s24-17.7,39.9-17.8c0.9,2.1-0.4,2.9-1.2,4
			c-2.8,3.7-5,7.8-6.6,12.2c-1.9,5-1.6,10.6,0.7,15.5c3.2,6.9,8.4,12.5,11.8,19.9c1.8-8.8,4.1-16.3,12.8-20.1
			c0.8,3.1-0.5,5.4-0.2,7.9c0.7,4.4,2,8.8,3.8,12.9c3.5,8.7,5.1,17.5,2.7,26.7c-3.5,13.4-11.9,22.7-24.6,27.8
			c-13.9,5.6-29.3,6-43.4,1.1c-15.6-5.1-24.6-16.2-27-32.4c-2.3-15.5,0.9-30,9-43.4C521.9,145.9,522.3,144.3,524.9,144.3
			 M552.3,193.2c0.3-5.3,2-9.5,3.8-13.7c2.7-6.3,4.9-12.5,0.3-18.9c-0.4-0.4-0.4-1.1,0-1.5c0.4-0.6,1.2-0.7,1.8-0.3c0,0,0,0,0,0
			c1.8,1,3.5,2,5.2,3.2c14.8,11.2,21.8,25.8,18.8,44.5c-1,6.1-4.2,11.1-9.5,15.7c7.8-1.7,13.9-4.5,19.3-9
			c12.6-10.2,17.1-27.5,11-42.5c-2.5-6.2-5.1-12.4-4.9-19.8c-3.1,2.7-5.2,6.3-6.2,10.3c-1,3.5-1.5,7.1-1.6,10.7c0,1,0.2,2.5-1.4,2.6
			c-1.4,0.1-1.3-1.4-1.6-2.2c-0.6-2.4-1.5-4.7-2.7-6.9c-2.8-4.6-5.7-9.2-8.6-13.7c-5.3-8.4-5.5-16.9-1.1-25.7c1.4-2.8,3-5.4,4.6-8.3
			c-8.8,0-19.8,4.2-28,10.9c-16.1,13.2-22,30.7-20.4,51.3c-8.8-6.6-10.4-15.9-10.3-26.5c-7.5,13.2-8.9,33.4-3.4,46.5
			c5,12,18.1,21.6,30.1,22c-11.7-10.6-14.3-23.4-7.9-39.6c2.5-6.5,2.9-6.9,5.4-6.8C545.3,182,548.1,187.5,552.3,193.2 M543.2,180.4
			c-4.2,9-5.7,17.4-3.3,26.1c2.6,9.7,11.2,17,19.6,17c9.7,0,17.5-6.1,20.1-16c1.8-6.9,1.5-14.2-0.9-21c-3.1-9.5-9.4-17.7-17.8-23.2
			c1.7,6.2,0.1,11.3-2,16.4c-2.5,6-5.2,12-3.8,18.9c0.3,0.7,0,1.4-0.7,1.7c-0.1,0-0.2,0.1-0.3,0.1c-0.8,0.1-1.2-0.3-1.5-1
			C549.8,193.2,544.9,188.1,543.2,180.4"/>
		<path class="st1" d="M559.5,229c-7.2,0-14.4-1.2-21.2-3.5c-16.3-5.4-26.3-17.3-28.8-34.6c-2.4-15.7,1-31.7,9.4-45.2
			c0.1-0.1,0.2-0.2,0.2-0.4c1-2.3,3.3-3.8,5.8-3.7h3.3l-0.6,3.2c-1.2,6.4-2.1,12.4-1,18.1c1.4-11.9,6.6-23.1,14.8-31.9
			c11.3-12.3,25.3-18.6,41.9-18.6h1.8l0.7,1.6c1,2.1,0.6,4.7-1.1,6.3c-0.1,0.1-0.2,0.2-0.3,0.4c-2.6,3.5-4.7,7.4-6.2,11.5
			c-1.6,4.4-1.4,9.2,0.6,13.4c1.6,3.2,3.4,6.3,5.5,9.2c1,1.5,2,2.9,2.9,4.5c2-6.4,5.3-12,12.7-15.2l2.9-1.3l0.8,3
			c0.4,1.9,0.5,3.9,0.1,5.9c-0.2,0.8-0.3,1.6-0.2,2.4c0.7,4.2,1.9,8.4,3.6,12.3c4.2,10.6,5.1,19.6,2.8,28.4
			c-3.7,14.2-12.5,24.1-26.2,29.6C576,227.4,567.8,228.9,559.5,229 M543,188.2c-2,6.4-2.2,12-0.6,17.6c2.3,8.4,9.7,15,17,15l0,0
			c8.5,0,15.2-5.3,17.5-13.9c1.7-6.4,1.4-13.2-0.8-19.4c-2.2-6.9-6.2-13.1-11.7-17.9c-0.3,3.9-1.3,7.7-2.9,11.3l-0.4,0.9
			c-2.3,5.5-4.5,10.7-3.3,16.4c0.3,1.2,0.1,2.4-0.6,3.4c-0.6,0.9-1.5,1.5-2.6,1.7c-1.9,0.4-3.8-0.7-4.5-2.6c-1-2.1-2.2-4.2-3.5-6.2
			C545.3,192.4,544.1,190.4,543,188.2 M518.9,165.2c-3.1,11.2-3,24.5,0.9,33.9c3.5,8.5,11.5,15.7,20,18.8
			c-7.5-10.1-8.4-22.1-2.8-36.4c2.2-5.6,3.2-8.1,6.6-8.5l0.5-1l0.2,0.9h3.2l0.2,2.5c0.2,3.7,1.3,7.4,3.2,10.6
			c0.8-2.6,1.7-5.1,2.8-7.5c2.7-6.3,4.3-11.1,0.6-16.2c-1.4-1.7-1.1-4.2,0.6-5.6c1.4-1.1,3.4-1.2,4.8-0.2c0.5,0.3,1.1,0.6,1.6,0.9
			c1.3,0.7,2.6,1.5,3.8,2.4c16.2,12.3,22.9,28.2,19.8,47.1c-0.6,3.5-1.9,6.8-3.8,9.8c3.3-1.4,6.4-3.3,9.2-5.5
			c11.7-9.5,15.8-25.5,10.1-39.4l-0.3-0.9c-1.8-4.2-3.2-8.5-4.2-12.9c-0.6,1.2-1.1,2.6-1.5,3.9c-0.9,3.2-1.4,6.6-1.5,9.9v0.3
			c0.1,4.1-2.4,4.9-3.8,5.1s-3.7-0.2-4.4-3.9c0-0.1,0-0.2-0.1-0.3c-0.5-2.2-1.3-4.3-2.4-6.3c-2.1-3.5-4.4-7-6.5-10.5l-2-3.2
			c-5.8-9.1-6.2-18.6-1.2-28.4l2.1-3.9c-7.9,1.4-15.2,4.9-21.4,9.9c-14.7,12.1-21.1,28.1-19.5,49l0.5,6l-4.8-3.6
			C523,177.6,520.1,171.6,518.9,165.2"/>
	</g>
</g>
</svg>
