<svg id="a" xmlns="http://www.w3.org/2000/svg" viewBox="0 0 1000 1000"><defs><style>.b{fill:#fff}</style></defs><path class="b" d="M258.85 519.65c0 52.14 42.41 94.55 94.55 94.55s94.55-42.42 94.55-94.55-42.41-94.54-94.55-94.54-94.55 42.41-94.55 94.54m94.55-74.05c40.84 0 74.05 33.22 74.05 74.05s-33.21 74.06-74.05 74.06-74.05-33.21-74.05-74.06 33.21-74.05 74.05-74.05m-58.89-175.2c0-3.04.19-5.96.59-8.74a30.9 30.9 0 0 1 2.28-8.04c1.13-2.58 2.75-5 4.87-7.25s4.9-4.31 8.34-6.16c1.72-.93 4-2.15 6.85-3.68 2.85-1.51 5.63-3.27 8.34-5.25 2.72-1.99 5.06-4.27 7.05-6.85 1.98-2.58 2.98-5.46 2.98-8.64 0-4.37-1.59-7.78-4.77-10.23-3.18-2.44-6.83-3.67-10.92-3.67-2.65 0-5 .5-7.05 1.49s-3.9 2.18-5.56 3.58a24.161 24.161 0 0 0-4.27 4.67c-1.19 1.72-2.24 3.24-3.18 4.56l-20.46-14.3c3.44-8.07 8.91-14.36 16.39-18.86s15.91-6.75 25.32-6.75c5.04 0 10.05.73 15.1 2.19 5.03 1.45 9.53 3.77 13.49 6.95 3.98 3.18 7.22 7.29 9.73 12.31 2.52 5.04 3.78 11.12 3.78 18.27 0 7.54-1.56 13.87-4.66 18.97-3.12 5.1-7.71 9.57-13.81 13.41-2.78 1.85-5.59 3.5-8.43 4.96a78.835 78.835 0 0 0-7.85 4.56c-2.38 1.59-4.31 3.38-5.76 5.37-1.46 1.98-2.18 4.36-2.18 7.14h-26.21Zm.59 18.87h26.01v29.78H295.1v-29.78Z"/><path class="b" d="M900.78 175.65H543.81v-43.41H99.22V363.1h70.65c2.56 7.76 6.55 16.68 12.75 24.81 13.94 18.29 40.66 36.54 56.81 36.54 1.99 0 3.82-.28 5.45-.87 5.74-2.09 9.26-7.41 8.98-13.56-.3-6.65-.24-29.43-.14-46.92h163.51v55.66h315.51c.11 18.42.17 42.4-.16 49.41-.3 6.48 3.53 12.08 9.77 14.28 1.77.63 3.76.91 5.93.91 17.56 0 46.63-19.22 61.79-38.47 6.74-8.57 11.08-17.96 13.87-26.13h76.84V175.65ZM231.44 340.89v22.21h.07c-.07 11.92-.11 26.29-.04 36.58-8.79-4.25-22.12-13.33-31.19-25.23-10.96-14.39-12.7-33.29-12.71-33.48h-.09v-.08h-66.05V154.44H521.6v21.2H417.24v165.25h-185.8Zm645.18 54.48h-71.85v.09h-.09c-.02.19-1.9 20.09-13.83 35.25-9.86 12.53-24.36 22.09-33.91 26.56.08-10.84.03-25.96-.04-38.52h.08v-23.39H441.39V199.03h435.23v196.34ZM638.35 636.53c40.84 0 74.05-33.22 74.05-74.06s-33.21-74.05-74.05-74.05-74.05 33.22-74.05 74.05 33.21 74.06 74.05 74.06m152 105.44-43.14-43.15c-13-12.99-30.27-20.14-48.65-20.14h-120.1c-18.38 0-35.64 7.15-48.63 20.14l-13.52 13.52c-3.2-4.67-6.82-9.09-10.91-13.18l-43.14-43.15c-12.99-12.99-30.27-20.14-48.64-20.14h-120.1c-18.38 0-35.65 7.15-48.63 20.14l-43.15 43.15c-17.42 17.41-27.01 40.57-27.01 65.2v50.36c0 5.66 4.59 10.24 10.25 10.24h274.69v32.57c0 5.66 4.59 10.24 10.25 10.24h337.2c5.66 0 10.24-4.59 10.24-10.24v-50.36c0-24.63-9.59-47.78-27-65.2ZM195.2 764.35c0-19.16 7.46-37.17 21.01-50.71l43.14-43.14c9.13-9.12 21.25-14.15 34.15-14.15h120.1c12.9 0 25.02 5.03 34.15 14.15l43.14 43.14a71.96 71.96 0 0 1 10.61 13.49l-14.84 14.84c-16.78 16.77-26.26 38.87-26.94 62.48H195.2v-40.1Zm601.66 82.92h-316.7v-40.1c0-19.16 7.46-37.17 21-50.71l8.79-8.79 16.35-16.35 18.01-18.01c9.12-9.12 21.25-14.15 34.15-14.15h120.1c12.9 0 25.02 5.03 34.15 14.15l43.15 43.14c13.54 13.54 21 31.56 21 50.71v40.1Z"/><path class="b" d="M543.81 562.47c0 52.14 42.41 94.55 94.54 94.55s94.55-42.42 94.55-94.55-42.41-94.54-94.55-94.54-94.54 42.41-94.54 94.54m94.54-74.05c40.84 0 74.05 33.22 74.05 74.05s-33.21 74.06-74.05 74.06-74.05-33.22-74.05-74.06 33.21-74.05 74.05-74.05M624.11 276.5c-1.94 10.31-3.29 20.56 3.75 30.52-.43-16.35 4.01-30.36 14.67-42.01 10.73-11.73 24.05-17.69 39.9-17.76.93 2.06-.43 2.94-1.15 3.96-2.7 3.78-5.03 7.74-6.56 12.15-1.82 5.26-1.65 10.41.68 15.45 3.17 6.87 8.38 12.46 11.84 19.92 1.84-8.76 4.13-16.33 12.79-20.15.85 3.07-.55 5.43-.21 7.91.61 4.52 2.09 8.75 3.76 12.94 3.46 8.66 5.14 17.48 2.72 26.74-3.51 13.41-11.87 22.69-24.58 27.77-14.23 5.7-28.9 5.91-43.39 1.15-15.57-5.12-24.63-16.24-27-32.41-2.27-15.48.93-30.01 9.03-43.41.7-1.15 1.15-2.78 3.76-2.78m27.42 48.94c.27-5.32 2.05-9.53 3.84-13.73 2.68-6.27 4.94-12.51.3-18.88-.37-.5-.42-1.03 0-1.54.51-.63 1.11-.69 1.78-.28 1.73 1.05 3.58 1.96 5.17 3.17 14.76 11.23 21.81 25.78 18.81 44.48-.98 6.1-4.21 11.12-9.54 15.74 7.75-1.73 13.93-4.55 19.34-8.95 10.71-8.68 17.91-25.14 10.96-42.47-2.48-6.21-5.13-12.41-4.93-19.77-3.47 2.97-5.13 6.47-6.23 10.26-.99 3.47-1.53 7.03-1.56 10.67-.01 1 .22 2.52-1.36 2.65-1.44.13-1.34-1.35-1.59-2.21-.7-2.39-1.4-4.79-2.68-6.91-2.8-4.62-5.73-9.17-8.62-13.74-5.29-8.35-5.55-16.93-1.13-25.69 1.4-2.77 3.01-5.44 4.59-8.25-8.75-.01-19.8 4.17-28.03 10.92-16.12 13.25-22.03 30.68-20.44 51.32-8.82-6.58-10.37-15.94-10.32-26.55-7.54 13.2-8.86 33.39-3.41 46.55 4.97 12 18.1 21.59 30.12 22.01-11.74-10.56-14.31-23.41-7.91-39.65 2.55-6.45 2.87-6.87 5.42-6.83.42 6.47 3.2 11.98 7.43 17.66m-9.2-12.85c-4.15 9.03-5.71 17.36-3.34 26.1 2.63 9.67 11.18 16.98 19.57 16.99 9.67 0 17.5-6.14 20.09-15.97 1.86-7.05 1.42-14.08-.86-20.97-3.15-9.53-8.88-17.12-17.76-23.22 1.73 6.24.07 11.31-2.02 16.37-2.49 6.02-5.22 12.04-3.82 18.87.17.84 0 1.63-.99 1.83-.77.14-1.22-.32-1.52-1.02-2.75-6.14-7.6-11.2-9.34-18.98"/><path class="b" d="M658.72 361.19c-7.01 0-14.11-1.17-21.24-3.51-16.34-5.37-26.32-17.33-28.84-34.6-2.32-15.83.84-31.05 9.39-45.21.08-.12.15-.26.22-.4.65-1.2 2.01-3.69 5.85-3.69h3.3l-.61 3.23c-1.21 6.38-2.07 12.36-1.05 18.11 1.64-12.37 6.53-22.9 14.79-31.94 11.26-12.3 25.35-18.57 41.89-18.64h1.76l.73 1.6c1.48 3.25-.34 5.38-1.11 6.29-.1.12-.22.24-.3.37-2.97 4.15-4.93 7.79-6.21 11.46-1.62 4.67-1.43 9.05.57 13.42 1.47 3.18 3.43 6.11 5.5 9.21.97 1.45 1.96 2.93 2.91 4.46 1.99-6.41 5.28-11.99 12.66-15.24l2.88-1.27.84 3.04c.64 2.34.32 4.32.06 5.91-.16.92-.28 1.71-.2 2.36.59 4.38 2.07 8.5 3.59 12.29 4.23 10.61 5.13 19.64 2.83 28.44-3.71 14.18-12.53 24.14-26.2 29.61-7.86 3.14-15.88 4.72-24.01 4.72m-16.48-40.85c-1.98 6.36-2.15 11.98-.61 17.64 2.27 8.4 9.72 14.98 16.95 14.98 8.5 0 15.18-5.34 17.45-13.94 1.65-6.26 1.38-12.79-.81-19.42-2.34-7.06-6.21-12.98-11.74-17.94-.18 4.15-1.51 7.82-2.94 11.28l-.38.9c-2.29 5.51-4.46 10.71-3.3 16.39.33 1.61-.12 2.73-.56 3.38-.58.86-1.5 1.46-2.6 1.67-.72.14-3.2.36-4.51-2.57-.94-2.1-2.16-4.09-3.46-6.21-1.2-1.97-2.43-3.96-3.5-6.14m-24.16-23.03c-3.13 11.23-2.97 24.51.92 33.9 3.5 8.46 11.5 15.7 19.98 18.77-7.53-10.13-8.43-22.1-2.81-36.37 2.2-5.59 3.18-8.07 6.61-8.49l.45-1 .21.94c.23 0 .47-.01.72 0l2.5.05.17 2.5c.23 3.56 1.23 6.92 3.22 10.57.8-2.75 1.85-5.22 2.83-7.52 2.68-6.3 4.3-11.14.6-16.22-1.12-1.53-1.09-3.4.07-4.85 1.36-1.68 3.45-2.04 5.32-.9.53.32 1.07.64 1.61.94 1.26.72 2.56 1.45 3.8 2.4 16.2 12.33 22.88 28.16 19.84 47.08-.56 3.47-1.8 6.71-3.75 9.78 3.38-1.45 6.38-3.28 9.16-5.52 9.74-7.89 16.65-23.13 10.14-39.35l-.34-.86c-1.64-4.08-3.32-8.26-4.19-12.85-.57 1.15-1.06 2.45-1.49 3.93a37.05 37.05 0 0 0-1.46 9.93v.29c.07 4.1-2.38 4.93-3.85 5.06-1.34.11-3.71-.23-4.37-3.85-.02-.11-.04-.21-.06-.31-.68-2.31-1.31-4.46-2.4-6.26-2.13-3.51-4.37-7.05-6.55-10.46l-2.05-3.23c-5.75-9.09-6.17-18.63-1.25-28.37.66-1.31 1.38-2.61 2.09-3.88-7.24 1.18-15.19 4.8-21.38 9.89-14.7 12.08-21.06 28.11-19.45 49.01l.46 5.97-4.79-3.58c-6.36-4.74-9.25-10.73-10.51-17.12"/></svg>