<?xml version="1.0" encoding="UTF-8" standalone="no"?>
<svg
   xmlns:dc="http://purl.org/dc/elements/1.1/"
   xmlns:cc="http://creativecommons.org/ns#"
   xmlns:rdf="http://www.w3.org/1999/02/22-rdf-syntax-ns#"
   xmlns:svg="http://www.w3.org/2000/svg"
   xmlns="http://www.w3.org/2000/svg"
   xmlns:sodipodi="http://sodipodi.sourceforge.net/DTD/sodipodi-0.dtd"
   xmlns:inkscape="http://www.inkscape.org/namespaces/inkscape"
   width="124"
   height="113"
   viewBox="0 0 124 113"
   fill="none"
   version="1.1"
   id="svg27"
   sodipodi:docname="Frame.svg"
   inkscape:version="1.0.1 (3bc2e813f5, 2020-09-07, custom)">
  <metadata
     id="metadata31">
    <rdf:RDF>
      <cc:Work
         rdf:about="">
        <dc:format>image/svg+xml</dc:format>
        <dc:type
           rdf:resource="http://purl.org/dc/dcmitype/StillImage" />
      </cc:Work>
    </rdf:RDF>
  </metadata>
  <sodipodi:namedview
     pagecolor="#ffffff"
     bordercolor="#666666"
     borderopacity="1"
     objecttolerance="10"
     gridtolerance="10"
     guidetolerance="10"
     inkscape:pageopacity="0"
     inkscape:pageshadow="2"
     inkscape:window-width="1920"
     inkscape:window-height="1056"
     id="namedview29"
     showgrid="false"
     inkscape:zoom="3.9070796"
     inkscape:cx="59.167361"
     inkscape:cy="62.142804"
     inkscape:window-x="1920"
     inkscape:window-y="0"
     inkscape:window-maximized="1"
     inkscape:current-layer="g20" />
  <g
     clip-path="url(#clip0)"
     id="g20">
    <path
       opacity="0.3"
       d="m 106.757,93.5514 -6.607,-6.663 C 98.159,84.9075 95.4889,83.737 92.6831,83.737 H 74.1283 c -2.8511,0 -5.5212,1.1255 -7.5124,3.1514 l -2.0817,2.1159 C 64.0363,88.284 63.4933,87.6087 62.8597,86.9784 L 56.2071,80.4506 C 54.2159,78.4697 51.5458,77.4792 48.6947,77.4792 H 30.14 c -2.8511,0 -5.5212,0.9905 -7.5124,3.0164 l -6.6526,6.5729 c -2.67,2.6562 -4.1635,6.1677 -4.1635,9.9494 v 7.7431 c 0,0.856 0.7241,1.531 1.584,1.531 h 42.2686 v 5.042 c 0,0.856 0.8146,1.711 1.6744,1.711 h 52.0435 c 0.86,0 1.448,-0.855 1.448,-1.711 v -7.788 c 0.046,-3.7819 -1.357,-7.3385 -4.073,-9.9946 z m -43.2185,0.8553 c 0.1811,0.8104 0.2716,1.7108 0.2716,2.5662 v 6.1231 H 14.9342 v -6.1231 c 0,-2.9263 1.1766,-5.7176 3.2583,-7.7885 l 6.6526,-6.5279 c 1.4029,-1.3956 3.3036,-2.0709 5.2949,-2.0709 h 18.5547 c 1.9913,0 3.8468,0.6753 5.2497,2.0709 2.665357,2.865729 6.167143,5.559982 8.2817,8.6439 M 107.708,109.849 H 58.832 v -3.602 h 6.6073 c 0.8598,0 1.5386,-0.675 1.5386,-1.531 v -7.7431 c 0,-1.7558 -0.3167,-3.4666 -0.9503,-5.0873 l 2.8058,-2.7912 c 1.4029,-1.3956 3.3037,-2.206 5.2949,-2.206 h 18.5548 c 1.9912,0 3.8467,0.8104 5.2496,2.206 l 6.6073,6.6629 c 2.082,2.071 3.168,4.8617 3.168,7.7887 z"
       fill="#00003f"
       id="path2"
       sodipodi:nodetypes="ccssccccssccssscsssscccsccsccsscccccssscsssccsc" />
    <path
       opacity="0.3"
       d="m 68.7432,65.9542 c 0,8.0135 6.562,14.5414 14.5722,14.5414 8.0555,0 14.6176,-6.5279 14.6176,-14.5414 0,-8.0136 -6.5621,-14.4964 -14.6176,-14.4964 -8.0102,0 -14.5722,6.4828 -14.5722,14.4964 z m 14.6175,-11.345 c 6.2905,0 11.4496,5.0872 11.4496,11.39 0,6.2578 -5.1138,11.39 -11.4496,11.39 -6.2905,0 -11.4497,-5.0872 -11.4497,-11.39 0,-6.3028 5.1592,-11.39 11.4497,-11.39 z"
       fill="#00003f"
       id="path4" />
    <path
       opacity="0.3"
       d="m 34.3943,23.8606 h -4.073 v 4.502 h 4.073 z"
       fill="#00003f"
       id="path8" />
    <path
       opacity="0.3"
       d="M 38.8288,8.05846 C 38.1952,7.56324 37.5163,7.20308 36.747,6.97798 35.9777,6.75288 35.2083,6.66284 34.439,6.66284 c -1.4482,0 -2.7606,0.36016 -3.892,1.03546 -1.1314,0.6753 -1.9912,1.66574 -2.5343,2.8813 l 3.1679,2.206 c 0.1357,-0.2251 0.3168,-0.4502 0.4978,-0.7204 0.181,-0.2701 0.4073,-0.4952 0.6788,-0.7203 0.2716,-0.2251 0.5431,-0.4052 0.8599,-0.5402 0.3168,-0.1351 0.6788,-0.2251 1.0861,-0.2251 0.6336,0 1.1766,0.1801 1.6745,0.5852 0.4978,0.3602 0.724,0.9004 0.724,1.5757 0,0.4953 -0.1357,0.9455 -0.4525,1.3056 -0.3168,0.4052 -0.6788,0.7653 -1.0861,1.0355 -0.4073,0.3151 -0.8599,0.5852 -1.2672,0.8103 -0.4525,0.2251 -0.8146,0.4052 -1.0409,0.5853 -0.543,0.2701 -0.9503,0.5852 -1.3124,0.9454 -0.3168,0.3602 -0.5883,0.7203 -0.7241,1.1255 -0.1357,0.4052 -0.362,0.8104 -0.4525,1.2606 -0.0453,0.4502 -0.0905,0.9004 -0.0905,1.3506 h 4.0277 c 0,-0.4502 0.1358,-0.8104 0.362,-1.1255 0.2263,-0.3152 0.4979,-0.5853 0.9052,-0.8554 0.362,-0.2251 0.7693,-0.4952 1.2219,-0.7203 0.4525,-0.2251 0.8598,-0.4953 1.3124,-0.7654 0.9503,-0.5852 1.6292,-1.2605 2.127,-2.0709 0.4525,-0.7653 0.7241,-1.7558 0.7241,-2.9263 0,-1.0805 -0.1811,-2.0259 -0.5884,-2.79122 -0.4073,-0.72032 -0.9051,-1.3506 -1.5386,-1.84582 z"
       fill="#00003f"
       id="path10" />
    <path
       opacity="0.3"
       d="M 124,6.75299 H 68.7883 V 0 H 0 v 35.5657 h 11.0423 c 0.4073,0.9004 0.9957,2.4311 1.946,3.6917 2.1723,2.7912 6.2905,5.5374 8.7796,5.5374 0.3168,0 0.5883,-0.09 0.8598,-0.1801 0.9051,-0.3151 1.4482,-1.0354 1.403,-1.9808 -0.0906,-0.9905 -0.0453,-4.8172 -0.0453,-7.0682 h 25.3431 v 8.5538 h 48.6043 c 0,2.7012 0.0453,6.3928 -0.0452,7.4733 -0.0453,0.9905 0.5431,1.8008 1.4934,2.116 0.2716,0.09 0.5883,0.135 0.905,0.135 2.715,0 7.196,-2.8362 9.549,-5.8075 1.041,-1.3056 1.72,-3.0164 2.127,-3.9168 H 124 Z M 20.365,31.9641 v 3.6016 h 0.181 v 5.4925 c -1.3577,-0.6303 -3.3942,-2.116 -4.7971,-3.9168 -1.7197,-2.2059 -2.0817,-5.1322 -2.0817,-5.1773 H 13.5766 3.62044 V 3.15139 H 65.1679 v 3.6016 H 49.3285 V 31.9641 Z M 65.1679,10.3546 49.3285,6.75299 52.9489,31.9641 V 10.3546 Z m 54.7591,30.1633 h -10.861 v -0.1801 c 0,0.0451 -0.317,3.1064 -2.127,5.4024 -1.539,1.9359 -3.757,3.5116 -5.25,4.1869 v -5.8076 h 0.181 V 40.5179 H 52.9489 V 35.5657 10.3546 h 15.8394 51.1387 z"
       fill="#00003f"
       id="path12"
       sodipodi:nodetypes="cccccccsccccccccsccccccccccccccccccccccccccccccccccccc" />
    <path
       opacity="0.3"
       d="m 78.7896,29.218 c 0.4073,2.6562 1.946,4.502 4.4351,5.3123 1.0861,0.3602 2.2175,0.5403 3.2584,0.5403 1.2671,0 2.489,-0.2251 3.7109,-0.7204 2.127,-0.8553 3.4847,-2.386 4.0277,-4.547 0.3621,-1.3506 0.2263,-2.7462 -0.4525,-4.3669 -0.2263,-0.5853 -0.4526,-1.2155 -0.5431,-1.8908 0,-0.0901 0,-0.2251 0.0453,-0.3602 0.0452,-0.2251 0.0905,-0.5402 0,-0.9004 l -0.1358,-0.4502 -0.4526,0.1801 c -1.1313,0.4952 -1.6292,1.3506 -1.9459,2.341 -0.1358,-0.2251 -0.3168,-0.4502 -0.4526,-0.6753 -0.3168,-0.4952 -0.6336,-0.9454 -0.8598,-1.3956 -0.3168,-0.6753 -0.3168,-1.3506 -0.0906,-2.0709 0.1811,-0.5853 0.4979,-1.1255 0.9504,-1.7558 l 0.0453,-0.045 c 0.1357,-0.1351 0.4073,-0.4502 0.181,-0.9454 l -0.0905,-0.2251 h -0.2716 c -2.5343,0 -4.7518,0.9904 -6.4715,2.8813 -1.2671,1.3956 -2.0365,3.0163 -2.2628,4.9071 -0.1357,-0.9004 -0.0452,-1.8008 0.1811,-2.7912 l 0.0905,-0.4952 h -0.4978 c -0.5884,0 -0.8146,0.4051 -0.9051,0.5852 0,0 0,0.045 -0.0453,0.045 -1.3577,2.071 -1.8102,4.412 -1.4482,6.8431 z m 3.711,-1.7108 c -0.2716,-3.1964 0.7241,-5.6725 2.9868,-7.5183 0.9504,-0.7653 2.1723,-1.3506 3.3037,-1.5307 -0.0905,0.1801 -0.2263,0.4052 -0.3168,0.5853 -0.7694,1.4856 -0.6788,2.9713 0.181,4.3669 l 0.3168,0.4952 c 0.3168,0.5403 0.6788,1.0805 0.9956,1.6207 0.181,0.2702 0.2716,0.5853 0.3621,0.9455 v 0.045 c 0.0905,0.5402 0.5883,0.6303 0.7693,0.5852 0.2263,0 0.6788,-0.135 0.6788,-0.7653 v -0.045 c 0,-0.4952 0,-1.0355 0.1358,-1.5307 0.0453,-0.2251 0.0905,-0.4052 0.181,-0.5853 0.1358,0.7204 0.3621,1.3506 0.6336,1.9809 l 0.0453,0.1351 c 0.9956,2.4761 -0.0906,4.8171 -1.584,6.0327 -0.4073,0.3601 -0.9051,0.6302 -1.4029,0.8553 0.3168,-0.4502 0.4978,-0.9454 0.5883,-1.4856 0.4526,-2.9263 -0.5431,-5.3574 -3.0774,-7.2482 -0.181,-0.1351 -0.4072,-0.2702 -0.5883,-0.3602 -0.0905,-0.045 -0.181,-0.09 -0.2715,-0.1351 -0.2715,-0.18 -0.6336,-0.135 -0.8146,0.1351 -0.181,0.2251 -0.181,0.4952 0,0.7653 0.5883,0.7654 0.3168,1.5307 -0.0905,2.4761 -0.1358,0.3602 -0.3168,0.7204 -0.4526,1.1706 -0.3168,-0.5403 -0.4525,-1.0805 -0.4978,-1.6208 l -0.0452,-0.4051 h -0.4073 c -0.0453,0 -0.0905,0 -0.0905,0 l -0.0453,-0.1351 -0.0905,0.1351 c -0.5431,0.045 -0.6788,0.4502 -1.0409,1.3055 -0.8598,2.206 -0.7241,4.0518 0.4526,5.5825 -1.3124,-0.4502 -2.5343,-1.5757 -3.0774,-2.8813 -0.5883,-1.4406 -0.6336,-3.4665 -0.1358,-5.2223 0.1811,0.9905 0.6336,1.8909 1.6292,2.6112 l 0.7241,0.5402 z m 1.3576,3.9618 c -0.2262,-0.8554 -0.2262,-1.7108 0.0905,-2.7012 0.1811,0.3151 0.3621,0.6303 0.5431,0.9454 0.181,0.3151 0.4073,0.6303 0.5431,0.9454 0.181,0.4502 0.5883,0.4052 0.6788,0.4052 0.181,-0.045 0.3168,-0.1351 0.4073,-0.2701 0.0453,-0.0901 0.1358,-0.2701 0.0905,-0.5403 -0.181,-0.8553 0.1358,-1.6657 0.4978,-2.5211 l 0.0453,-0.135 c 0.2263,-0.5403 0.4073,-1.0805 0.4525,-1.7108 0.8599,0.7653 1.4482,1.6657 1.8103,2.7462 0.3167,1.0355 0.362,2.0259 0.1357,2.9713 -0.362,1.3056 -1.4029,2.116 -2.7153,2.116 -1.0861,0.045 -2.2175,-0.9455 -2.5796,-2.251 z"
       fill="#00003f"
       id="path14" />
    <path
       opacity="0.3"
       d="m 39.3724,44.8848 c -8.0555,0 -14.6175,6.5279 -14.6175,14.4964 0,8.0135 6.562,14.5414 14.6175,14.5414 8.0555,0 14.6175,-6.5279 14.6175,-14.5414 -0.0452,-8.0136 -6.562,-14.4964 -14.6175,-14.4964 z m 0,25.8864 c -6.2905,0 -11.4496,-5.0872 -11.4496,-11.39 0,-6.2578 5.1138,-11.3901 11.4496,-11.3901 6.2905,0 11.4496,5.0873 11.4496,11.3901 -0.0452,6.3028 -5.1591,11.39 -11.4496,11.39 z"
       fill="#00003f"
       id="path16" />
  </g>
  <defs
     id="defs25">
    <clipPath
       id="clip0">
      <rect
         width="124"
         height="113"
         fill="white"
         id="rect22" />
    </clipPath>
  </defs>
</svg>
