<svg width="123" height="113" viewBox="0 0 123 113" fill="none" xmlns="http://www.w3.org/2000/svg">
<g clip-path="url(#clip0_2230_54)">
<path d="M0 35.5088H13.4977V32.0817H3.42195V3.42713H64.8269V32.0817H20.2465V35.5088H68.2488V0H0V35.5088Z" fill="#B3B3C5"/>
<path d="M21.4814 44.9335C21.7665 44.9335 22.0517 44.9335 22.3368 44.8383C23.1923 44.5527 23.7627 43.6959 23.6676 42.744C23.5725 41.0304 23.6676 32.2722 23.6676 32.177H20.2457C20.2457 32.4626 20.1506 37.9841 20.2457 41.1256C18.9149 40.4592 16.8237 39.0312 15.493 37.2225C13.782 35.0329 13.5919 32.0818 13.4968 32.0818L10.1699 32.3674C10.1699 32.5578 10.4551 36.2705 12.8314 39.3168C14.9226 42.0776 19.01 44.9335 21.4814 44.9335Z" fill="#B3B3C5"/>
<path d="M55.7008 80.4423C53.7047 78.4432 51.0432 77.3008 48.1915 77.3008H29.8461C26.9945 77.3008 24.333 78.4432 22.4319 80.4423L15.7781 87.1062C13.1166 89.7717 11.5957 93.294 11.5957 97.102V104.813C11.5957 105.67 12.2611 106.431 13.2116 106.431H64.9211C65.7765 106.431 66.537 105.765 66.537 104.813V97.102C66.537 93.294 65.1112 89.7717 62.3546 87.1062L55.7008 80.4423ZM63.3051 103.29H14.7325V97.102C14.7325 94.1508 15.8731 91.3901 17.9643 89.2957L24.6181 82.6319C26.0439 81.2039 27.85 80.4423 29.8461 80.4423H48.2866C50.2827 80.4423 52.0888 81.2039 53.5146 82.6319L60.1684 89.2957C62.2595 91.3901 63.4002 94.1508 63.4002 97.102V103.29H63.3051Z" fill="#B3B3C5"/>
<path d="M24.5234 59.4986C24.5234 67.4953 30.9871 74.0639 39.0667 74.0639C47.0513 74.0639 53.61 67.5905 53.61 59.4986C53.61 51.502 47.1463 44.9333 39.0667 44.9333C30.9871 45.0285 24.5234 51.502 24.5234 59.4986ZM38.9717 48.1701C45.2452 48.1701 50.3782 53.3108 50.3782 59.5938C50.3782 65.8769 45.2452 71.0176 38.9717 71.0176C32.6981 71.0176 27.5652 65.8769 27.5652 59.5938C27.6602 53.2156 32.6981 48.1701 38.9717 48.1701Z" fill="#B3B3C5"/>
<path d="M29.9428 21.2291C29.9428 20.7531 29.9428 20.2771 30.0378 19.8964C30.1329 19.5156 30.2279 19.0396 30.418 18.6588C30.6081 18.278 30.7982 17.8972 31.1785 17.5164C31.4636 17.1356 31.9389 16.85 32.4142 16.5644C32.6993 16.4692 32.9845 16.2788 33.4598 15.9932C33.935 15.8028 34.3152 15.5172 34.6955 15.2317C35.0757 14.9461 35.4559 14.5653 35.7411 14.1845C36.0262 13.8037 36.2163 13.3277 36.2163 12.8517C36.2163 12.1853 35.9312 11.6141 35.4559 11.2333C34.9806 10.8525 34.4103 10.6622 33.7449 10.6622C33.3647 10.6622 32.9845 10.7573 32.6993 10.8525C32.4142 11.0429 32.129 11.2333 31.8438 11.4237C31.5587 11.6141 31.3686 11.8997 31.1785 12.1853C30.9884 12.4709 30.7982 12.6613 30.7032 12.8517L27.5664 10.6622C28.1367 9.42458 28.8972 8.4726 30.0378 7.80621C31.1785 7.13983 32.5092 6.75903 33.935 6.75903C34.6955 6.75903 35.4559 6.85423 36.2163 7.13983C36.9768 7.33022 37.6421 7.71101 38.3075 8.187C38.8778 8.66299 39.4482 9.32938 39.8284 10.091C40.2086 10.8525 40.3987 11.8045 40.3987 12.8517C40.3987 13.9941 40.1135 14.9461 39.6383 15.8028C39.163 16.5644 38.4976 17.2308 37.5471 17.8972C37.1669 18.1828 36.6916 18.4684 36.2163 18.6588C35.7411 18.8492 35.3608 19.1348 34.9806 19.3252C34.6004 19.6108 34.3152 19.8012 34.1251 20.1819C33.935 20.4675 33.7449 20.8483 33.7449 21.3243H29.9428V21.2291ZM30.0378 24.0851H34.0301V28.6546H30.0378V24.0851Z" fill="#B3B3C5"/>
<path d="M119.199 10.2815H52.4707V40.4593H119.199V10.2815Z" fill="white"/>
<path d="M100.758 50.1694C102.279 49.4078 104.655 47.8846 106.176 45.8855C107.887 43.6959 108.362 40.84 108.362 40.2688H100.758C100.758 40.84 100.758 46.7423 100.758 50.1694Z" fill="white"/>
<path d="M123.001 43.9814H108.268V40.4591H119.294V10.2813H52.4708V40.4591H100.948V43.9814H48.7637V6.66382H123.001V43.9814Z" fill="#B3B3C5"/>
<path d="M99.6159 53.9773C99.3308 53.9773 98.9506 53.9773 98.6654 53.8821C97.7149 53.5014 97.1445 52.6446 97.1445 51.6926C97.2396 49.8838 97.1445 40.6496 97.1445 40.5544H100.852C100.852 40.84 100.947 46.7423 100.852 49.979C102.277 49.3126 104.559 47.7895 106.08 45.8855C107.886 43.6008 108.171 40.4592 108.171 40.4592L111.878 40.7448C111.878 40.9352 111.498 44.8383 109.026 48.0751C106.745 51.0262 102.277 53.9773 99.6159 53.9773Z" fill="#B3B3C5"/>
<path d="M97.1454 89.2958C95.7195 87.8678 93.9135 87.1062 91.9174 87.1062H73.4769C71.4808 87.1062 69.6747 87.8678 68.2489 89.2958L61.5951 95.9596C59.5039 98.054 58.3633 100.815 58.3633 103.766V109.954H106.936V103.766C106.936 100.815 105.795 98.054 103.704 95.9596L97.1454 89.2958Z" fill="white"/>
<path d="M99.4267 87.0109C97.4306 85.0118 94.7691 83.8694 91.9174 83.8694H73.477C70.6253 83.8694 67.9638 85.0118 66.0627 87.0109L59.4089 93.6748C56.7474 96.3403 55.2266 99.8627 55.2266 103.671V111.382C55.2266 112.238 55.8919 113 56.8425 113H108.552C109.407 113 110.168 112.334 110.168 111.382V103.671C110.168 99.8627 108.742 96.3403 105.985 93.6748L99.4267 87.0109ZM107.031 109.858H58.4584V103.671C58.4584 100.719 59.5991 97.9587 61.6902 95.8643L68.344 89.2005C69.7698 87.7725 71.5759 87.0109 73.572 87.0109H92.0125C94.0086 87.0109 95.8147 87.7725 97.2405 89.2005L103.894 95.8643C105.985 97.9587 107.126 100.719 107.126 103.671V109.858H107.031Z" fill="#B3B3C5"/>
<path d="M68.248 66.0675C68.248 74.0641 74.7117 80.6328 82.7913 80.6328C90.7759 80.6328 97.3346 74.1593 97.3346 66.0675C97.3346 58.0709 90.8709 51.5022 82.7913 51.5022C74.7117 51.5974 68.248 58.0709 68.248 66.0675ZM82.6963 54.7389C88.9698 54.7389 94.1028 59.8796 94.1028 66.1627C94.1028 72.4458 88.9698 77.5864 82.6963 77.5864C76.4227 77.5864 71.2898 72.4458 71.2898 66.1627C71.3848 59.7844 76.4227 54.7389 82.6963 54.7389Z" fill="#B3B3C5"/>
<path d="M80.5104 22.1811C80.2252 23.7994 80.0351 25.3226 81.0807 26.8458C80.9857 24.3706 81.651 22.1811 83.362 20.3723C84.9779 18.5636 87.0691 17.6116 89.4455 17.6116C89.6356 17.8972 89.3504 18.0876 89.2554 18.1828C88.8751 18.7539 88.4949 19.3251 88.2098 20.0867C87.9246 20.8483 87.9246 21.7051 88.3048 22.4667C88.7801 23.5138 89.6356 24.3706 90.1109 25.513C90.396 24.1802 90.7762 23.0379 92.107 22.3715C92.202 22.8475 92.0119 23.2283 92.107 23.609C92.202 24.2754 92.3921 24.9418 92.6773 25.6082C93.2476 26.941 93.4377 28.2737 93.0575 29.7017C92.4872 31.7961 91.2515 33.224 89.2554 33.9856C87.0691 34.8424 84.7878 34.9376 82.6016 34.176C80.2252 33.4144 78.7994 31.7009 78.4192 29.2257C78.039 26.8458 78.6093 24.6562 79.845 22.5619C80.0351 22.3715 80.1302 22.1811 80.5104 22.1811ZM84.6928 29.7017C84.6928 28.8449 84.9779 28.2737 85.2631 27.6074C85.6433 26.6554 86.0235 25.7034 85.2631 24.7514C85.168 24.6562 85.168 24.561 85.2631 24.561C85.3581 24.4658 85.4532 24.4658 85.5483 24.561C85.8334 24.7514 86.1186 24.8466 86.3087 25.037C88.59 26.7506 89.6356 29.0353 89.1603 31.8913C88.9702 32.8432 88.4949 33.6048 87.7345 34.2712C88.9702 33.9856 89.8257 33.6048 90.6812 32.9384C92.2971 31.6057 93.4377 29.0353 92.3921 26.3698C92.0119 25.4178 91.6317 24.4658 91.6317 23.3235C91.0614 23.7994 90.8713 24.2754 90.6812 24.9418C90.4911 25.513 90.4911 25.989 90.396 26.5602C90.396 26.7506 90.396 26.941 90.2059 26.941C90.0158 26.941 90.0158 26.7506 89.9207 26.5602C89.8257 26.1794 89.7306 25.7986 89.5405 25.513C89.0653 24.8466 88.685 24.085 88.2098 23.4186C87.3543 22.1811 87.3543 20.8483 88.0197 19.5155C88.2098 19.1347 88.4949 18.6588 88.685 18.278C87.3543 18.278 85.6433 18.9443 84.4076 19.9915C81.9362 21.9907 80.9857 24.7514 81.2708 27.893C80.1302 26.6554 79.845 25.2274 79.845 23.609C78.7044 25.6082 78.5142 28.7497 79.2747 30.7489C80.0351 32.5577 82.0313 34.0808 83.9323 34.176C82.1263 32.5577 81.7461 30.5585 82.6966 28.0833C83.0768 27.1314 83.1719 27.0362 83.5521 27.0362C83.6472 27.9882 84.1224 28.8449 84.6928 29.7017ZM83.362 27.7026C82.6966 29.1305 82.5065 30.3681 82.8867 31.7009C83.2669 33.224 84.5977 34.2712 85.9285 34.2712C87.4493 34.2712 88.59 33.3192 88.9702 31.7961C89.2554 30.7489 89.1603 29.6065 88.8751 28.5593C88.3999 27.1314 87.5444 25.8938 86.1186 25.037C86.4037 25.989 86.1186 26.7506 85.8334 27.5122C85.4532 28.4641 85.073 29.3209 85.2631 30.3681C85.2631 30.4633 85.2631 30.6537 85.073 30.6537C84.9779 30.6537 84.8829 30.5585 84.8829 30.4633C84.3126 29.7017 83.5521 28.9401 83.362 27.7026Z" fill="#B3B3C5"/>
<path d="M85.8339 35.2234C84.7883 35.2234 83.6477 35.033 82.6021 34.6522C80.1307 33.7954 78.6098 31.9866 78.1346 29.3211C77.7543 26.8459 78.2296 24.5612 79.5604 22.3716C79.5604 22.3716 79.5604 22.3716 79.5604 22.2764C79.6554 22.086 79.8455 21.7052 80.4158 21.7052H80.8911L80.7961 22.1812C80.606 23.1332 80.5109 24.0852 80.606 24.942C80.8911 23.038 81.6516 21.4197 82.8873 19.9917C84.5982 18.0877 86.7845 17.1357 89.3509 17.1357H89.6361L89.7311 17.4213C89.9213 17.8973 89.6361 18.2781 89.541 18.3733C89.541 18.3733 89.541 18.3733 89.541 18.4685C89.0658 19.1349 88.7806 19.7061 88.5905 20.1821C88.3053 20.9437 88.4004 21.61 88.6856 22.2764C88.8757 22.7524 89.2559 23.2284 89.541 23.7044C89.7311 23.8948 89.8262 24.1804 90.0163 24.3708C90.3015 23.4188 90.8718 22.562 91.9174 21.9908L92.3927 21.8004L92.4877 22.2764C92.5828 22.6572 92.5828 22.9428 92.4877 23.2284C92.4877 23.3236 92.4877 23.514 92.4877 23.6092C92.5828 24.2756 92.7729 24.942 93.058 25.5132C93.7234 27.1315 93.8185 28.5595 93.5333 29.8923C92.963 32.0818 91.6322 33.605 89.541 34.4618C88.3053 34.9378 87.0696 35.2234 85.8339 35.2234ZM83.2675 28.9403C82.9823 29.8923 82.9823 30.7491 83.1724 31.6058C83.5526 32.9386 84.6933 33.8906 85.7389 33.8906C87.0696 33.8906 88.1152 33.0338 88.4004 31.7962C88.6856 30.8443 88.5905 29.7971 88.3053 28.8451C87.9251 27.7979 87.3548 26.8459 86.4993 26.0844C86.4993 26.7507 86.3092 27.3219 86.024 27.7979L85.929 27.8931C85.7389 28.7499 85.3587 29.5115 85.5488 30.4635C85.6438 30.7491 85.5488 30.8443 85.4537 30.9395C85.3587 31.0346 85.2636 31.1298 85.0735 31.225C84.9784 31.225 84.5982 31.3202 84.4081 30.8443C84.218 30.5587 84.123 30.1779 83.8378 29.8923C83.6477 29.5115 83.4576 29.2259 83.2675 28.9403ZM79.5604 25.3228C79.0851 27.0363 79.0851 29.1307 79.6554 30.5587C80.2257 31.8914 81.4614 32.9386 82.6971 33.4146C81.5565 31.8914 81.3664 29.9875 82.2219 27.7979C82.6021 26.9411 82.6971 26.5603 83.2675 26.4651L83.3625 26.2748V26.4651H83.4576H83.8378V26.8459C83.8378 27.4171 84.0279 27.8931 84.3131 28.4643C84.4081 28.0835 84.5982 27.7027 84.7883 27.3219C85.1686 26.3699 85.4537 25.6084 84.8834 24.8468C84.6933 24.6564 84.6933 24.3708 84.8834 24.0852C85.0735 23.7996 85.4537 23.7996 85.7389 23.99C85.8339 24.0852 85.929 24.0852 86.024 24.1804C86.2141 24.2756 86.4043 24.3708 86.5944 24.5612C89.0658 26.4651 90.1114 28.8451 89.6361 31.7962C89.541 32.3674 89.3509 32.8434 89.0658 33.3194C89.541 33.129 90.0163 32.8434 90.4916 32.4626C92.0124 31.225 93.058 28.9403 92.0124 26.3699L91.9174 26.2748C91.6322 25.6084 91.4421 25.0372 91.252 24.2756C91.157 24.466 91.0619 24.6564 91.0619 24.8468C90.8718 25.3228 90.8718 25.894 90.8718 26.3699C90.8718 27.0363 90.4916 27.1315 90.3015 27.1315C90.1114 27.1315 89.7312 27.1315 89.6361 26.5603C89.541 26.1796 89.446 25.894 89.2559 25.6084C88.9707 25.0372 88.5905 24.5612 88.2103 23.99L87.9251 23.514C87.0696 22.086 86.9746 20.6581 87.735 19.1349C87.8301 18.9445 87.9251 18.7541 88.0202 18.5637C86.8795 18.7541 85.6438 19.3253 84.6933 20.0869C82.412 21.8956 81.4614 24.3708 81.7466 27.6075L81.8417 28.5595L81.0812 27.9883C80.2257 27.2267 79.7505 26.3699 79.5604 25.3228Z" fill="#B3B3C5"/>
</g>
<defs>
<clipPath id="clip0_2230_54">
<rect width="123" height="113" fill="white"/>
</clipPath>
</defs>
</svg>
