<svg xmlns="http://www.w3.org/2000/svg" viewBox="0 0 119 119"><defs><style>.cls-1{fill:#00003f}</style></defs><g id="Layer_2" data-name="Layer 2"><g id="Layer_1-2" data-name="Layer 1"><path d="M111.07 23.8a7.94 7.94 0 1 0 7.93 7.93 7.94 7.94 0 0 0-7.93-7.93Zm0 11.9a4 4 0 1 1 4-4 4 4 0 0 1-4 4ZM7.93 89.25a7.94 7.94 0 1 0 7.94 7.93 7.94 7.94 0 0 0-7.94-7.93Zm0 11.9a4 4 0 1 1 4-4 4 4 0 0 1-4 4Z" class="cls-1"/><path d="m107.22 26.31-17.11-8.26a2 2 0 1 0-1.72 3.57l17.11 8.26a2 2 0 0 0 .86.2 2 2 0 0 0 .86-3.77ZM89.25 103.13a7.94 7.94 0 1 0 7.93 7.94 7.94 7.94 0 0 0-7.93-7.94Zm0 11.9a4 4 0 1 1 4-4 4 4 0 0 1-4 3.97Z" class="cls-1"/><path d="m85.4 105.64-17.11-8.26a2 2 0 0 0-1.72 3.62l17.11 8.26a1.9 1.9 0 0 0 .86.2 2 2 0 0 0 .86-3.77ZM59.5 53.55a7.94 7.94 0 1 0 7.93 7.93 7.94 7.94 0 0 0-7.93-7.93Zm0 11.9a4 4 0 1 1 4-4 4 4 0 0 1-4 4Z" class="cls-1"/><path d="M56 56.28 42.87 46a2 2 0 0 0-2.79.35 2 2 0 0 0 .35 2.78l13.14 10.28a2 2 0 0 0 1.22.42A2 2 0 0 0 56 56.28ZM95.2 51.57A21.82 21.82 0 1 0 117 73.38a21.84 21.84 0 0 0-21.8-21.81Zm0 39.66a17.85 17.85 0 1 1 17.85-17.85A17.87 17.87 0 0 1 95.2 91.23Z" class="cls-1"/><path d="M95.2 59.5a7.94 7.94 0 1 0 7.93 7.93 7.94 7.94 0 0 0-7.93-7.93Zm0 11.9a4 4 0 1 1 4-4 4 4 0 0 1-4 4ZM101 79.33H89.45a6.08 6.08 0 0 0-6.15 6v5.23a2 2 0 0 0 1 1.72 21.71 21.71 0 0 0 21.82 0 2 2 0 0 0 1-1.72v-5.25a6.08 6.08 0 0 0-6.12-5.98Zm2.18 10a18 18 0 0 1-15.86 0v-4a2.1 2.1 0 0 1 2.18-2H101a2.1 2.1 0 0 1 2.18 2v4ZM47.6 75.37a21.82 21.82 0 1 0 21.82 21.81A21.84 21.84 0 0 0 47.6 75.37Zm0 39.66a17.85 17.85 0 1 1 17.85-17.85A17.87 17.87 0 0 1 47.6 115Z" class="cls-1"/><path d="M47.6 83.3a7.94 7.94 0 1 0 7.93 7.93 7.94 7.94 0 0 0-7.93-7.93Zm0 11.9a4 4 0 1 1 4-4 4 4 0 0 1-4 4ZM53.35 103.13h-11.5a6.08 6.08 0 0 0-6.15 6v5.23a2 2 0 0 0 1 1.72 21.71 21.71 0 0 0 21.82 0 2 2 0 0 0 1-1.72v-5.23a6.08 6.08 0 0 0-6.17-6Zm2.18 10a18 18 0 0 1-15.86 0v-4a2.1 2.1 0 0 1 2.18-2h11.5a2.1 2.1 0 0 1 2.18 2v4ZM21.82 25.78A21.82 21.82 0 1 0 43.63 47.6a21.85 21.85 0 0 0-21.81-21.82Zm0 39.67A17.85 17.85 0 1 1 39.67 47.6a17.87 17.87 0 0 1-17.85 17.85Z" class="cls-1"/><path d="M21.82 33.72a7.93 7.93 0 1 0 7.93 7.93 7.94 7.94 0 0 0-7.93-7.93Zm0 11.9a4 4 0 1 1 4-4 4 4 0 0 1-4 4ZM27.57 53.55H16.06a6.07 6.07 0 0 0-6.14 6v5.23a2 2 0 0 0 1 1.72 21.71 21.71 0 0 0 21.82 0 2 2 0 0 0 1-1.72v-5.25a6.07 6.07 0 0 0-6.17-5.98Zm2.18 10a18.05 18.05 0 0 1-15.87 0v-4a2.1 2.1 0 0 1 2.18-2h11.51a2.1 2.1 0 0 1 2.18 2v4ZM69.42 0a21.82 21.82 0 1 0 21.81 21.82A21.85 21.85 0 0 0 69.42 0Zm0 39.67a17.85 17.85 0 1 1 17.85-17.85 17.87 17.87 0 0 1-17.85 17.85Z" class="cls-1"/><path d="M69.42 7.93a7.94 7.94 0 1 0 7.93 7.94 7.95 7.95 0 0 0-7.93-7.94Zm0 11.9a4 4 0 1 1 4-4 4 4 0 0 1-4 4ZM75.17 27.77H63.66a6.06 6.06 0 0 0-6.14 6V39a2 2 0 0 0 1 1.72 21.71 21.71 0 0 0 21.82 0 2 2 0 0 0 1-1.71v-5.26a6.07 6.07 0 0 0-6.17-5.98Zm2.18 10a18 18 0 0 1-15.87 0v-4a2.11 2.11 0 0 1 2.18-2h11.51a2.11 2.11 0 0 1 2.18 2v4ZM51.09 20.53a2 2 0 0 0-2.79-.22L34.55 32.07a2 2 0 0 0 1.29 3.49 2 2 0 0 0 1.29-.48l13.74-11.76a2 2 0 0 0 .22-2.79Z" class="cls-1"/><path d="M94.8 52.36 82.9 36.5a2 2 0 1 0-3.17 2.37l11.9 15.87a2 2 0 0 0 1.59.79 2 2 0 0 0 1.19-.39 2 2 0 0 0 .39-2.78ZM78.53 79.94a2 2 0 0 0-2.78-.39l-11.08 8.3a2 2 0 0 0 1.19 3.57 2 2 0 0 0 1.19-.4l11.08-8.3a2 2 0 0 0 .4-2.78ZM27.77 95.2H13.88a2 2 0 0 0 0 4h13.89a2 2 0 0 0 0-4ZM21.82 0a7.94 7.94 0 1 0 7.93 7.93A7.94 7.94 0 0 0 21.82 0Zm0 11.9a4 4 0 1 1 4-4 4 4 0 0 1-4 4Z" class="cls-1"/><path d="M21.82 11.9a2 2 0 0 0-2 2v13.87a2 2 0 0 0 4 0V13.88a2 2 0 0 0-2-1.98Z" class="cls-1"/></g></g></svg>