<svg width="119" height="119" fill="none" xmlns="http://www.w3.org/2000/svg"><g opacity=".3" fill="#00003F"><path d="M111.067 23.8c-4.375 0-7.933 3.558-7.933 7.933s3.558 7.934 7.933 7.934S119 36.109 119 31.733c0-4.375-3.558-7.933-7.933-7.933Zm0 11.9a3.97 3.97 0 0 1-3.967-3.967 3.97 3.97 0 0 1 3.967-3.966 3.97 3.97 0 0 1 3.967 3.966 3.97 3.97 0 0 1-3.967 3.967ZM7.933 89.25C3.558 89.25 0 92.808 0 97.183s3.558 7.934 7.933 7.934c4.376 0 7.934-3.559 7.934-7.934s-3.558-7.933-7.934-7.933Zm0 11.9a3.97 3.97 0 0 1-3.966-3.967 3.97 3.97 0 0 1 3.966-3.967 3.97 3.97 0 0 1 3.967 3.967 3.97 3.97 0 0 1-3.967 3.967Z"/><path d="m107.221 26.307-17.11-8.26a1.984 1.984 0 0 0-1.723 3.572l17.11 8.26a1.98 1.98 0 0 0 2.647-.924 1.983 1.983 0 0 0-.924-2.648ZM89.25 103.133c-4.376 0-7.934 3.558-7.934 7.934 0 4.375 3.558 7.933 7.934 7.933 4.375 0 7.933-3.558 7.933-7.933s-3.558-7.934-7.933-7.934Zm0 11.9a3.97 3.97 0 0 1-3.967-3.966 3.97 3.97 0 0 1 3.967-3.967 3.97 3.97 0 0 1 3.966 3.967 3.97 3.97 0 0 1-3.966 3.966Z"/><path d="m85.404 105.64-17.11-8.26a1.984 1.984 0 0 0-1.723 3.572l17.11 8.26a1.98 1.98 0 0 0 2.648-.924 1.984 1.984 0 0 0-.925-2.648ZM59.5 53.55c-4.376 0-7.934 3.558-7.934 7.933 0 4.376 3.559 7.934 7.934 7.934s7.933-3.559 7.933-7.934-3.558-7.933-7.933-7.933Zm0 11.9a3.97 3.97 0 0 1-3.967-3.967 3.97 3.97 0 0 1 3.967-3.966 3.97 3.97 0 0 1 3.966 3.966A3.97 3.97 0 0 1 59.5 65.45Z"/><path d="M56.013 56.279 42.87 46.035a1.985 1.985 0 0 0-2.44 3.13l13.144 10.244a1.982 1.982 0 1 0 2.44-3.13ZM95.2 51.567c-12.029 0-21.816 9.787-21.816 21.816 0 12.03 9.787 21.817 21.817 21.817 12.029 0 21.816-9.788 21.816-21.817s-9.787-21.816-21.816-21.816Zm0 39.666c-9.843 0-17.85-8.007-17.85-17.85 0-9.843 8.007-17.85 17.85-17.85 9.844 0 17.851 8.007 17.851 17.85 0 9.844-8.007 17.85-17.85 17.85Z"/><path d="M95.199 59.5c-4.376 0-7.933 3.558-7.933 7.933 0 4.376 3.558 7.933 7.933 7.933s7.933-3.558 7.933-7.933-3.558-7.933-7.933-7.933Zm0 11.9a3.97 3.97 0 0 1-3.967-3.967 3.97 3.97 0 0 1 3.967-3.967 3.97 3.97 0 0 1 3.967 3.967 3.97 3.97 0 0 1-3.967 3.967Zm5.754 7.933H89.446c-3.39 0-6.146 2.684-6.146 5.98v5.228c0 .708.377 1.363.99 1.718A21.814 21.814 0 0 0 95.2 95.2a21.81 21.81 0 0 0 10.91-2.941c.613-.353.99-1.01.99-1.716v-5.228c0-3.298-2.757-5.982-6.147-5.982Zm2.18 10.026c-4.936 2.46-10.93 2.46-15.867 0v-4.044c0-1.11.978-2.015 2.18-2.015h11.507c1.202 0 2.18.904 2.18 2.015v4.044ZM47.6 75.367c-12.028 0-21.816 9.787-21.816 21.816 0 12.029 9.788 21.817 21.817 21.817s21.817-9.788 21.817-21.817S59.63 75.367 47.6 75.367Zm0 39.666c-9.842 0-17.85-8.006-17.85-17.85 0-9.843 8.008-17.85 17.85-17.85 9.844 0 17.85 8.007 17.85 17.85 0 9.844-8.006 17.85-17.85 17.85Z"/><path d="M47.601 83.3c-4.375 0-7.933 3.558-7.933 7.933 0 4.376 3.558 7.934 7.933 7.934s7.934-3.559 7.934-7.934S51.977 83.3 47.6 83.3Zm0 11.9a3.97 3.97 0 0 1-3.966-3.967 3.97 3.97 0 0 1 3.966-3.966 3.97 3.97 0 0 1 3.967 3.966 3.97 3.97 0 0 1-3.967 3.967Zm5.753 7.933H41.847c-3.39 0-6.147 2.684-6.147 5.98v5.228c0 .708.377 1.363.99 1.718A21.812 21.812 0 0 0 47.6 119a21.81 21.81 0 0 0 10.91-2.941c.613-.353.99-1.01.99-1.716v-5.228c0-3.298-2.757-5.982-6.146-5.982Zm2.18 10.026c-4.937 2.459-10.93 2.459-15.867 0v-4.044c0-1.111.977-2.015 2.18-2.015h11.507c1.201 0 2.18.904 2.18 2.015v4.044ZM21.817 25.783C9.787 25.783 0 35.571 0 47.6s9.788 21.817 21.817 21.817S43.633 59.629 43.633 47.6s-9.788-21.817-21.816-21.817Zm0 39.667c-9.844 0-17.85-8.007-17.85-17.85 0-9.843 8.006-17.85 17.85-17.85 9.843 0 17.85 8.007 17.85 17.85 0 9.843-8.007 17.85-17.85 17.85Z"/><path d="M21.817 33.717c-4.375 0-7.933 3.558-7.933 7.933s3.558 7.933 7.933 7.933 7.933-3.558 7.933-7.933-3.558-7.933-7.933-7.933Zm0 11.9a3.97 3.97 0 0 1-3.967-3.967 3.97 3.97 0 0 1 3.967-3.967 3.97 3.97 0 0 1 3.967 3.967 3.97 3.97 0 0 1-3.967 3.967Zm5.755 7.933H16.064c-3.389 0-6.146 2.684-6.146 5.98v5.228c0 .708.377 1.362.99 1.718a21.814 21.814 0 0 0 10.91 2.94 21.82 21.82 0 0 0 10.91-2.94c.613-.354.99-1.01.99-1.716v-5.228c0-3.298-2.757-5.982-6.146-5.982Zm2.18 10.026c-4.937 2.46-10.93 2.46-15.867 0v-4.044c0-1.11.977-2.015 2.18-2.015H27.57c1.202 0 2.18.904 2.18 2.015v4.044ZM69.416 0C57.387 0 47.6 9.788 47.6 21.817s9.787 21.816 21.816 21.816c12.03 0 21.817-9.787 21.817-21.816C91.233 9.787 81.445 0 69.416 0Zm0 39.667c-9.843 0-17.85-8.007-17.85-17.85 0-9.844 8.007-17.85 17.85-17.85 9.844 0 17.85 8.006 17.85 17.85 0 9.843-8.006 17.85-17.85 17.85Z"/><path d="M69.418 7.933c-4.376 0-7.934 3.559-7.934 7.934s3.559 7.933 7.934 7.933 7.933-3.558 7.933-7.933-3.558-7.934-7.933-7.934Zm0 11.9a3.97 3.97 0 0 1-3.967-3.966 3.97 3.97 0 0 1 3.967-3.967 3.97 3.97 0 0 1 3.966 3.967 3.971 3.971 0 0 1-3.966 3.966Zm5.752 7.934H63.661c-3.39 0-6.146 2.683-6.146 5.98v5.228c0 .708.376 1.362.99 1.717a21.815 21.815 0 0 0 10.91 2.942c3.814 0 7.586-1.018 10.91-2.942.613-.353.99-1.01.99-1.715v-5.228c0-3.299-2.757-5.982-6.147-5.982Zm2.179 10.026c-4.937 2.459-10.93 2.459-15.867 0v-4.044c0-1.111.978-2.015 2.18-2.015h11.507c1.202 0 2.18.904 2.18 2.015v4.044ZM51.093 20.526a1.986 1.986 0 0 0-2.797-.217L34.552 32.071a1.983 1.983 0 1 0 2.578 3.012l13.745-11.76c.833-.713.93-1.964.218-2.797Z"/><path d="m94.804 52.362-11.9-15.867a1.984 1.984 0 0 0-3.173 2.378l11.9 15.867a1.982 1.982 0 0 0 3.173-2.378Zm-16.277 27.58a1.984 1.984 0 0 0-2.777-.397l-11.079 8.309a1.981 1.981 0 1 0 2.38 3.17l11.079-8.307a1.98 1.98 0 0 0 .397-2.775ZM27.767 95.2H13.884a1.983 1.983 0 1 0 0 3.966h13.883a1.983 1.983 0 1 0 0-3.966ZM21.817 0c-4.375 0-7.933 3.558-7.933 7.933 0 4.376 3.558 7.934 7.933 7.934s7.933-3.559 7.933-7.934S26.192 0 21.817 0Zm0 11.9a3.97 3.97 0 0 1-3.966-3.967 3.97 3.97 0 0 1 3.966-3.966 3.97 3.97 0 0 1 3.967 3.966 3.97 3.97 0 0 1-3.967 3.967Z"/><path d="M21.817 11.9a1.983 1.983 0 0 0-1.983 1.983v13.883a1.983 1.983 0 1 0 3.966 0V13.883a1.983 1.983 0 0 0-1.983-1.983Z"/></g></svg>