<svg xmlns="http://www.w3.org/2000/svg" viewBox="0 0 349.39 248.96"><defs><style>.cls-1{fill:#00003f}</style></defs><g id="Layer_2" data-name="Layer 2"><g id="Layer_3" data-name="Layer 3"><path d="M194.09 84.89V76.9M239.32 88.39h63.88v7.66h-69.23M201.84 76.79v8.06M259.42 15.41h89.96v80.64h-30.75V88.3h23.02V23.16H259.3" class="cls-1"/><path d="M300.41 117.48a5.51 5.51 0 0 1-1.91-.3 4.72 4.72 0 0 1-3.13-4.74c.17-3.91 0-23.74 0-24l7.76-.07c0 .67.12 13.32.07 20.41a32.37 32.37 0 0 0 10.88-8.78 25.4 25.4 0 0 0 4.44-11.7l7.74.6a33 33 0 0 1-6 15.8c-4.87 6.39-14.2 12.76-19.84 12.76M147.54 84.73v8.15H46.19v7.76H155.3V84.73M107.05 20.26H0v80.38h30.73v-7.73h-23V28l99.32-.01" class="cls-1"/><path d="M49 122.07a5.74 5.74 0 0 0 1.9-.3A4.73 4.73 0 0 0 54 117c-.18-3.91 0-23.75 0-24h-7.74c0 .66-.12 13.31-.06 20.41a32.61 32.61 0 0 1-10.9-8.81 25.54 25.54 0 0 1-4.44-11.7l-7.73.6a33 33 0 0 0 6 15.8C34 115.7 43.34 122.07 49 122.07M107.2 27.56v49.19h110.23v8.17H98.76V0h168.91v84.92h-33.54v-8.17h25.1V8.17H107.2v11.44M107.2 19.92v7.64M107.2 19.61v.31" class="cls-1"/><path d="M229.72 88.51a26.81 26.81 0 0 0 4.38-11.72l8.41.62A34 34 0 0 1 236 94.05c-5.29 6.73-15.45 13.44-21.58 13.44" class="cls-1"/><path d="M214.4 107.49a6.16 6.16 0 0 1-2.07-.32 5 5 0 0 1-3.42-5c.2-4.11 0-25 0-25.21l8.44-.08c0 .7.13 14 .07 21.49a35.11 35.11 0 0 0 11.85-9.28l.45-.59M148.45 245.38v-3.27l-3.58 6.89a3.58 3.58 0 0 0 3.58-3.62Z" class="cls-1"/><path d="M143.25 242.14c-.39.09-.49.37-.95.37-.29 0-.76-.45-1-.49v-.22H30.66v-14A24.89 24.89 0 0 1 38 210.08L53.07 195A16.76 16.76 0 0 1 65 190.07h42a16.73 16.73 0 0 1 11.88 4.93l11.79 11.79-1.38-1.09a3.65 3.65 0 0 1 1.38-1 4.41 4.41 0 0 1 1.92-1.37c.09-.28-.31-1-.17-1.23.27-.66 1.69-.62 2.23-1.09l1.08.69-11.79-11.7a23.86 23.86 0 0 0-17-7H65a23.86 23.86 0 0 0-17 7l-15.06 15a32 32 0 0 0-9.44 22.77v17.59a3.58 3.58 0 0 0 3.58 3.64h117.79ZM85.92 175.34a33 33 0 1 1 33-33 33.05 33.05 0 0 1-33 33m0-58.89a25.87 25.87 0 1 0 25.87 25.87 25.89 25.89 0 0 0-25.87-25.87M316.82 205l-15.07-15a23.86 23.86 0 0 0-17-7h-41.94a23.86 23.86 0 0 0-17 7l-11.08 11a4.41 4.41 0 0 1 2.91 1.85 4.46 4.46 0 0 1 2.82 2.55l10.42-10.4a16.75 16.75 0 0 1 11.93-4.94h41.95a16.75 16.75 0 0 1 11.93 4.94l15.07 15.07a24.89 24.89 0 0 1 7.34 17.71v14H209.45a4.73 4.73 0 0 1-4.57 1.32 4.44 4.44 0 0 1-3.57 2.13v.13a3.58 3.58 0 0 0 3.58 3.58h117.79a3.58 3.58 0 0 0 3.58-3.58v-17.57a32 32 0 0 0-9.44-22.79ZM263.73 175.34a33 33 0 1 1 33-33 33.06 33.06 0 0 1-33 33m0-58.89a25.87 25.87 0 1 0 25.87 25.87 25.9 25.9 0 0 0-25.87-25.87" class="cls-1"/><path d="M213.35 190a23.84 23.84 0 0 0-17-7h-42a23.86 23.86 0 0 0-17 7l-15 15a32 32 0 0 0-9.43 22.77v17.59a3.58 3.58 0 0 0 3.58 3.64h117.78a3.58 3.58 0 0 0 3.58-3.58v-17.63a32 32 0 0 0-9.43-22.79Zm-72.14 51.8h-21.14v-14a24.89 24.89 0 0 1 7.34-17.71L142.48 195a16.76 16.76 0 0 1 11.93-4.94h42a16.72 16.72 0 0 1 11.88 4.94l15.08 15.07a24.88 24.88 0 0 1 7.33 17.71v14h-89.49M142.31 142.32a33 33 0 1 0 33-33 33.05 33.05 0 0 0-33 33m33-25.87a25.87 25.87 0 1 1-25.86 25.87 25.89 25.89 0 0 1 25.86-25.87M194.07 84.93h7.83v11.12h-7.83z" class="cls-1"/><path d="M209.07 88.33v7.72h-11.01v-7.72z" class="cls-1"/></g></g></svg>