<svg id="a" xmlns="http://www.w3.org/2000/svg" viewBox="0 0 1000 1000"><defs><style>.b{fill:#fff}</style></defs><path class="b" d="M964.69 214.96H747.31v-46.09H298v53.19H35.31v214.52h65.64c2.38 7.21 6.09 15.5 11.85 23.06 12.95 16.99 37.79 33.94 52.79 33.94 1.85 0 3.56-.26 5.07-.81 5.33-1.94 8.61-6.88 8.35-12.6-.28-6.18-.23-27.35-.14-43.6h269.54v-41.8h103.17v34.7h39.64c-.03 5-.09 9.01-.2 11.21-.29 6.02 3.28 11.23 9.08 13.27 1.64.58 3.49.85 5.51.85 13.11 0 33.11-11.52 47.77-25.33h167.74c.1 16.38.16 38.31-.13 44.62-.26 5.72 3.01 10.67 8.35 12.6 1.51.55 3.22.81 5.07.81 15 0 39.84-16.96 52.78-33.95 6.04-7.92 9.82-16.64 12.18-24.08h65.32V214.96ZM427.78 415.95H158.16v20.63h.06c-.06 11.08-.11 24.43-.04 33.99-8.16-3.95-20.55-12.39-28.97-23.44-10.19-13.37-11.8-30.94-11.82-31.11h-.08v-.07H55.94V242.71H298v152.08h129.77v21.17Zm144.44-21.17h18.96c.03 4.46.05 9.27.07 14.07h-19.02v-14.07Zm41.4 0h.07v-21.73H320.45V190.61h404.42v182.43h-66.76v.09h-.08c-.02.18-1.77 18.67-12.85 32.75-9.16 11.64-22.64 20.53-31.51 24.69.07-10.07.03-24.13-.04-35.8Zm330.44 14.07h-61.38v1.1h-.08c-.02.17-1.62 17.73-11.82 31.11-8.42 11.06-20.81 19.49-28.97 23.44.07-9.86.02-23.74-.04-35.01h.07v-20.63H669.76c2.65-4.83 4.66-9.64 6.17-14.07h71.4V235.6h196.74v173.25Z"/><path class="b" d="M263.86 635.3c-48.44 0-87.85-39.41-87.85-87.85s39.41-87.85 87.85-87.85 87.85 39.41 87.85 87.85-39.41 87.85-87.85 87.85m0-156.66c-37.94 0-68.8 30.87-68.8 68.81s30.86 68.81 68.8 68.81 68.81-30.86 68.81-68.81-30.86-68.81-68.81-68.81M736.84 635.3c-48.44 0-87.85-39.41-87.85-87.85s39.41-87.85 87.85-87.85 87.85 39.41 87.85 87.85-39.41 87.85-87.85 87.85m0-156.66c-37.94 0-68.8 30.87-68.8 68.81s30.86 68.81 68.8 68.81 68.81-30.86 68.81-68.81-30.86-68.81-68.81-68.81M501.71 616.26c37.94 0 68.8-30.86 68.8-68.81s-30.86-68.81-68.8-68.81-68.81 30.87-68.81 68.81 30.86 68.81 68.81 68.81m376.36 97.98-40.09-40.09c-12.08-12.08-28.12-18.73-45.2-18.73h-111.6c-17.07 0-33.12 6.65-45.19 18.73l-16.58 16.57-16.58-16.58c-12.07-12.07-28.12-18.72-45.19-18.72h-111.6c-17.07 0-33.12 6.65-45.19 18.72l-17.93 17.93L365 674.15c-12.08-12.08-28.12-18.73-45.2-18.73H208.2c-17.07 0-33.12 6.65-45.19 18.73l-40.1 40.09c-16.18 16.17-25.09 37.7-25.09 60.58v46.79c0 5.25 4.27 9.52 9.52 9.52h786.31c5.26 0 9.52-4.26 9.52-9.52v-46.79c0-22.88-8.91-44.4-25.1-60.58Zm-463.75-26.63c8.48-8.48 19.74-13.15 31.73-13.15h111.6c11.98 0 23.25 4.67 31.73 13.15l40.09 40.09c12.59 12.59 19.52 29.32 19.52 47.12v37.26h-218.8v-1.23h-19.04v1.23h-56.44v-37.26c0-17.8 6.93-34.53 19.52-47.12l40.09-40.09Zm-297.45 87.21c0-17.8 6.93-34.53 19.52-47.12l40.09-40.09c8.48-8.48 19.75-13.15 31.73-13.15h111.6c11.98 0 23.26 4.67 31.74 13.15l17.92 17.92-8.7 8.7c-16.19 16.17-25.1 37.7-25.1 60.58v37.26h-218.8v-37.26Zm767.26 37.26h-216.1v-37.26c0-22.88-8.92-44.4-25.1-60.58l-10.05-10.05 16.58-16.58c8.48-8.48 19.75-13.15 31.73-13.15h111.6c11.98 0 23.26 4.67 31.74 13.15l40.09 40.09c12.58 12.59 19.52 29.32 19.52 47.12v37.26Z"/><path class="b" d="M413.86 547.45c0 48.44 39.41 87.85 87.85 87.85s87.85-39.41 87.85-87.85-39.41-87.85-87.85-87.85-87.85 39.41-87.85 87.85m87.85-68.81c37.94 0 68.8 30.87 68.8 68.81s-30.86 68.81-68.8 68.81-68.81-30.86-68.81-68.81 30.86-68.81 68.81-68.81"/></svg>