<svg xmlns="http://www.w3.org/2000/svg" viewBox="0 0 929.4 662.2"><defs><style>.cls-1{fill:#fff;}.cls-2{fill:none;}</style></defs><g id="Layer_2" data-name="Layer 2"><g id="a"><path class="cls-1" d="M929.4,46.1H712V0H262.7V53.2H0V267.7H65.6a81.64,81.64,0,0,0,11.8,23.1c12.9,17,37.8,33.9,52.8,33.9a16,16,0,0,0,5.1-.8,12.69,12.69,0,0,0,8.4-12.6c-.3-6.2-.2-27.4-.1-43.6H413.1V225.9H516.3v34.7h39.6c0,5-.1,9-.2,11.2a13.32,13.32,0,0,0,9.1,13.3,15.86,15.86,0,0,0,5.5.9c13.1,0,33.1-11.5,47.8-25.3H785.8c.1,16.4.2,38.3-.1,44.6a12.48,12.48,0,0,0,8.3,12.6,16,16,0,0,0,5.1.8c15,0,39.8-17,52.8-34a80.57,80.57,0,0,0,12.2-24.1h65.3V46.1Zm-536.9,201H122.9v20.6h.1c-.1,11.1-.1,24.4,0,34-8.2-4-20.6-12.4-29-23.4-10.2-13.4-11.8-30.9-11.8-31.1h-.1v-.1H20.6V73.8H262.7V225.9H392.5v21.2Zm144.4-21.2h19c0,4.5,0,9.3.1,14.1H537l-.1-14.1Zm41.4,0h0l.1-21.7H285.2V21.7H689.6V46.1h0V66.7h0V204.1H622.8v.1h-.1c0,.2-1.8,18.7-12.8,32.8-9.2,11.6-22.6,20.5-31.5,24.7,0-10.1,0-24.2-.1-35.8ZM908.8,240H847.4v1.1h-.1c0,.2-1.6,17.7-11.8,31.1-8.4,11.1-20.8,19.5-29,23.4.1-9.9,0-23.7,0-35h.1V240H634.5a81,81,0,0,0,6.2-14.1h71.4V66.7H908.8V240Z"/><path class="cls-1" d="M228.6,466.4a87.85,87.85,0,1,1,87.9-87.8,88,88,0,0,1-87.9,87.8m0-156.7a68.8,68.8,0,1,0,68.8,68.8,68.92,68.92,0,0,0-68.8-68.8"/><path class="cls-1" d="M701.5,466.4a87.85,87.85,0,1,1,87.8-87.8,87.92,87.92,0,0,1-87.8,87.8m0-156.7a68.8,68.8,0,1,0,68.8,68.8,68.92,68.92,0,0,0-68.8-68.8"/><path class="cls-2" d="M466.4,447.4a68.8,68.8,0,1,0-68.8-68.8,68.92,68.92,0,0,0,68.8,68.8"/><path class="cls-1" d="M842.8,545.3l-40.1-40.1a63.37,63.37,0,0,0-45.2-18.7H645.9a63.79,63.79,0,0,0-45.2,18.7l-16.6,16.6-16.6-16.6a63.37,63.37,0,0,0-45.2-18.7H410.7a63.79,63.79,0,0,0-45.2,18.7l-17.9,17.9-17.9-17.9a63.37,63.37,0,0,0-45.2-18.7H172.9a63.79,63.79,0,0,0-45.2,18.7L87.6,545.3a85.09,85.09,0,0,0-25.1,60.6v46.8a9.56,9.56,0,0,0,9.5,9.5H858.3a9.5,9.5,0,0,0,9.5-9.5V605.9a84.59,84.59,0,0,0-25-60.6ZM379,518.7a44.48,44.48,0,0,1,31.7-13.2H522.3A44.48,44.48,0,0,1,554,518.7l40.1,40.1a66.1,66.1,0,0,1,19.5,47.1v37.3H394.9V642h-19v1.2H319.5V605.9A66.1,66.1,0,0,1,339,558.8l40-40.1ZM81.6,605.9a66.1,66.1,0,0,1,19.5-47.1l40.1-40.1a44.65,44.65,0,0,1,31.7-13.2H284.5a44.31,44.31,0,0,1,31.7,13.2l17.9,17.9-8.7,8.7a85.09,85.09,0,0,0-25.1,60.6v37.3H81.6V605.9Zm767.2,37.3H632.7V605.9a85.09,85.09,0,0,0-25.1-60.6l-10-10,16.6-16.6a44.65,44.65,0,0,1,31.7-13.2H757.5a44.31,44.31,0,0,1,31.7,13.2l40.1,40.1a66.1,66.1,0,0,1,19.5,47.1v37.3Z"/><path class="cls-1" d="M378.6,378.6a87.9,87.9,0,1,0,87.9-87.9,87.94,87.94,0,0,0-87.9,87.9m87.8-68.9a68.8,68.8,0,1,1-68.8,68.8,68.92,68.92,0,0,1,68.8-68.8"/></g></g></svg>