<?xml version="1.0" encoding="utf-8"?>
<!-- Generator: Adobe Illustrator 27.0.0, SVG Export Plug-In . SVG Version: 6.00 Build 0)  -->
<svg version="1.1" id="Layer_1" xmlns="http://www.w3.org/2000/svg" xmlns:xlink="http://www.w3.org/1999/xlink" x="0px" y="0px"
	 viewBox="0 0 929.4 662.2" style="enable-background:new 0 0 929.4 662.2;" xml:space="preserve">
<style type="text/css">
	.st0{opacity:0.3;}
	.st1{fill:#0F053F;}
</style>
<g id="Layer_2_00000157994401815065814180000004882208868310216610_" class="st0">
	<g id="a">
		<path class="st1" d="M929.4,46.1H712V0H262.7v53.2H0v214.5h65.6c2.7,8.3,6.7,16.1,11.8,23.1c12.9,17,37.8,33.9,52.8,33.9
			c1.7,0,3.5-0.3,5.1-0.8c5.3-1.9,8.7-7,8.4-12.6c-0.3-6.2-0.2-27.4-0.1-43.6h269.5v-41.8h103.2v34.7h39.6c0,5-0.1,9-0.2,11.2
			c-0.3,6,3.4,11.4,9.1,13.3c1.8,0.6,3.6,0.9,5.5,0.9c13.1,0,33.1-11.5,47.8-25.3h167.7c0.1,16.4,0.2,38.3-0.1,44.6
			c-0.4,5.6,3,10.7,8.3,12.6c1.6,0.5,3.4,0.8,5.1,0.8c15,0,39.8-17,52.8-34c5.4-7.3,9.5-15.4,12.2-24.1h65.3L929.4,46.1L929.4,46.1z
			 M392.5,247.1H122.9v20.6h0.1c-0.1,11.1-0.1,24.4,0,34c-8.2-4-20.6-12.4-29-23.4c-10.2-13.4-11.8-30.9-11.8-31.1h-0.1v-0.1H20.6
			V73.8h242.1v152.1h129.8V247.1L392.5,247.1z M536.9,225.9h19c0,4.5,0,9.3,0.1,14.1h-19L536.9,225.9z M578.3,225.9L578.3,225.9
			l0.1-21.7H285.2V21.7h404.4v24.4l0,0v20.6l0,0v137.4h-66.8v0.1h-0.1c0,0.2-1.8,18.7-12.8,32.8c-9.2,11.6-22.6,20.5-31.5,24.7
			C578.4,251.6,578.4,237.5,578.3,225.9z M908.8,240h-61.4v1.1h-0.1c0,0.2-1.6,17.7-11.8,31.1c-8.4,11.1-20.8,19.5-29,23.4
			c0.1-9.9,0-23.7,0-35h0.1V240H634.5c2.5-4.5,4.6-9.2,6.2-14.1h71.4V66.7h196.7V240z"/>
		<path class="st1" d="M228.6,466.4c-48.5,0-87.8-39.4-87.8-87.9s39.4-87.8,87.9-87.8c48.5,0,87.8,39.4,87.8,87.9
			C316.4,427.1,277.1,466.3,228.6,466.4 M228.6,309.7c-38,0-68.8,30.8-68.8,68.8s30.8,68.8,68.8,68.8s68.8-30.8,68.8-68.8v0
			C297.3,340.5,266.6,309.8,228.6,309.7"/>
		<path class="st1" d="M701.5,466.4c-48.5,0-87.9-39.3-87.9-87.8c0-48.5,39.3-87.9,87.8-87.9c48.5,0,87.9,39.3,87.9,87.8
			c0,0,0,0.1,0,0.1C789.2,427.1,750,466.3,701.5,466.4 M701.5,309.7c-38,0-68.8,30.8-68.8,68.8s30.8,68.8,68.8,68.8
			s68.8-30.8,68.8-68.8c0,0,0,0,0,0C770.2,340.5,739.5,309.8,701.5,309.7"/>
		<path class="st1" d="M466.4,447.4c38,0,68.8-30.8,68.8-68.8c0-38-30.8-68.8-68.8-68.8s-68.8,30.8-68.8,68.8
			C397.7,416.6,428.4,447.3,466.4,447.4"/>
		<path class="st1" d="M842.8,545.3l-40.1-40.1c-12-12-28.2-18.8-45.2-18.7H645.9c-17,0-33.2,6.7-45.2,18.7l-16.6,16.6l-16.6-16.6
			c-12-12-28.2-18.8-45.2-18.7H410.7c-17,0-33.2,6.7-45.2,18.7l-17.9,17.9l-17.9-17.9c-12-12-28.2-18.8-45.2-18.7H172.9
			c-17,0-33.2,6.7-45.2,18.7l-40.1,40.1c-16.1,16-25.2,37.9-25.1,60.6v46.8c0,5.2,4.3,9.5,9.5,9.5h786.3c5.2,0,9.5-4.3,9.5-9.5
			v-46.8C868,583.2,858.9,561.3,842.8,545.3L842.8,545.3z M379,518.7c8.4-8.5,19.8-13.2,31.7-13.2h111.6c11.9,0,23.3,4.7,31.7,13.2
			l40.1,40.1c12.5,12.5,19.6,29.4,19.5,47.1v37.3H394.9V642h-19v1.2h-56.4v-37.3c-0.1-17.7,7-34.6,19.5-47.1L379,518.7z M81.6,605.9
			c-0.1-17.7,7-34.6,19.5-47.1l40.1-40.1c8.4-8.4,19.8-13.2,31.7-13.2h111.6c11.9,0,23.3,4.7,31.7,13.2l17.9,17.9l-8.7,8.7
			c-16.1,16-25.2,37.9-25.1,60.6v37.3H81.6V605.9z M848.8,643.2H632.7v-37.3c0.1-22.7-9-44.6-25.1-60.6l-10-10l16.6-16.6
			c8.4-8.4,19.8-13.2,31.7-13.2h111.6c11.9,0,23.3,4.7,31.7,13.2l40.1,40.1c12.5,12.5,19.6,29.4,19.5,47.1V643.2z"/>
		<path class="st1" d="M378.6,378.6c0,48.5,39.4,87.9,87.9,87.9s87.9-39.4,87.9-87.9s-39.4-87.9-87.9-87.9l0,0
			C418,290.7,378.6,330.1,378.6,378.6 M466.4,309.7c38,0,68.8,30.8,68.8,68.8s-30.8,68.8-68.8,68.8s-68.8-30.8-68.8-68.8
			c0,0,0,0,0,0C397.7,340.5,428.4,309.8,466.4,309.7"/>
	</g>
</g>
</svg>
