<svg width="151" height="108" viewBox="0 0 151 108" fill="none" xmlns="http://www.w3.org/2000/svg">
<g clip-path="url(#clip0_2230_71)">
<path d="M151 41.6494H137.705V38.3139H147.676V10.0067H87.2221V38.3139H131.058V41.6494H83.8984V6.67114H151V41.6494Z" fill="#B3B3C5"/>
<path d="M129.8 50.9349C129.531 50.9349 129.261 50.9349 128.992 50.8448C128.094 50.4842 127.555 49.763 127.644 48.7713C127.734 47.0585 127.644 38.4942 127.644 38.4041H130.968C130.968 38.6745 131.058 44.1737 130.968 47.2388C132.316 46.6077 134.292 45.2555 135.639 43.4525C137.256 41.2889 137.526 38.4041 137.526 38.4041L140.849 38.6745C140.849 38.8548 140.49 42.551 138.244 45.5259C136.268 48.2304 132.226 50.9349 129.8 50.9349Z" fill="#B3B3C5"/>
<path d="M0 43.6328H13.2945V40.2973H3.32362V12.0802H63.7775V40.2973H19.9417V43.6328H67.1011V8.65454H0V43.6328Z" fill="#B3B3C5"/>
<path d="M21.1991 52.9181C21.4686 52.9181 21.7381 52.9181 22.0076 52.8279C22.9059 52.4673 23.4448 51.7461 23.355 50.7545C23.2652 49.0416 23.355 40.4774 23.355 40.3872H20.0314C20.0314 40.6577 19.9416 46.1568 20.0314 49.2219C18.684 48.5909 16.7078 47.2386 15.3604 45.4356C13.7435 43.272 13.474 40.3872 13.474 40.3872L9.9707 40.5675C9.9707 40.7478 10.33 44.444 12.5757 47.4189C14.7316 50.2136 18.684 52.9181 21.1991 52.9181Z" fill="#B3B3C5"/>
<path d="M112.015 3.51587H46.3516V33.2655H112.015V3.51587Z" fill="white"/>
<path d="M93.7793 42.9115C95.3064 42.1903 97.5521 40.6578 99.1689 38.6745C100.876 36.5109 101.325 33.626 101.325 33.1753H93.7793C93.7793 33.626 93.8691 39.576 93.7793 42.9115Z" fill="white"/>
<path d="M115.698 36.8715H101.146V33.2654H112.015V3.51586H46.3509V33.2654H93.9595V36.8715H42.668V0H115.698V36.8715Z" fill="#B3B3C5"/>
<path d="M92.6116 46.6076C92.2523 46.6076 91.9828 46.6076 91.7134 46.4273C90.8151 46.0667 90.1863 45.2554 90.2761 44.2637C90.3659 42.4607 90.2761 33.4457 90.2761 33.3555H93.959C93.959 33.626 94.0489 39.3956 93.959 42.641C95.3963 41.9198 97.5521 40.4774 99.0792 38.5842C100.876 36.3305 101.145 33.2654 101.145 33.2654L104.738 33.5358C104.738 33.7161 104.379 37.5926 101.954 40.7479C99.708 43.7228 95.3064 46.6076 92.6116 46.6076Z" fill="#B3B3C5"/>
<path d="M62.6096 108H11.6775C10.7792 108 10.1504 107.279 10.1504 106.468V98.8048C10.1504 95.1086 11.5876 91.5928 14.1926 88.8883L20.75 82.3073C22.7262 80.324 25.3312 79.2422 28.1159 79.2422H46.261C49.0457 79.2422 51.6507 80.324 53.6269 82.3073L60.1843 88.8883C62.7893 91.5026 64.2265 95.0185 64.2265 98.8048V106.468C64.1367 107.279 63.4181 108 62.6096 108ZM13.2944 104.845H61.0826V98.8048C61.0826 95.92 59.9148 93.2155 57.9386 91.142L51.3812 84.5611C50.0338 83.2088 48.1474 82.3974 46.261 82.3974H28.1159C26.1397 82.3974 24.3431 83.1186 22.9957 84.5611L16.4383 91.142C14.3723 93.2155 13.2944 95.92 13.2944 98.8048V104.845Z" fill="#B3B3C5"/>
<path d="M37.099 76.0867C29.1942 76.0867 22.8164 69.6861 22.8164 61.7528C22.8164 53.8196 29.1942 47.4189 37.099 47.4189C45.0038 47.4189 51.3815 53.8196 51.3815 61.7528C51.3815 69.5959 45.0038 76.0867 37.099 76.0867ZM37.099 50.4841C30.9009 50.4841 25.9604 55.5325 25.9604 61.6627C25.9604 67.8831 30.9907 72.8413 37.099 72.8413C43.2971 72.8413 48.2376 67.7929 48.2376 61.6627C48.3274 55.5325 43.2971 50.4841 37.099 50.4841Z" fill="#B3B3C5"/>
<path d="M139.412 108H88.57C87.6718 108 87.043 107.279 87.043 106.468V98.8048C87.043 95.1086 88.4802 91.5928 91.0852 88.8883L97.6426 82.3073C99.6188 80.324 102.224 79.2422 105.008 79.2422H123.064C125.848 79.2422 128.453 80.324 130.43 82.3073L136.987 88.8883C139.592 91.5026 141.029 95.0185 141.029 98.8048V106.468C141.029 107.279 140.311 108 139.412 108ZM90.0971 104.845H137.885V98.8048C137.885 95.92 136.718 93.2155 134.741 91.142L128.184 84.5611C126.837 83.2088 124.95 82.3974 123.064 82.3974H104.919C102.942 82.3974 101.146 83.1186 99.7985 84.5611L93.2411 91.142C91.175 93.2155 90.0971 95.92 90.0971 98.8048V104.845Z" fill="#B3B3C5"/>
<path d="M113.992 76.0867C106.087 76.0867 99.709 69.6861 99.709 61.7528C99.709 53.8196 106.087 47.4189 113.992 47.4189C121.896 47.4189 128.274 53.8196 128.274 61.7528C128.274 69.5959 121.807 76.0867 113.992 76.0867ZM113.992 50.4841C107.793 50.4841 102.853 55.5325 102.853 61.6627C102.853 67.8831 107.883 72.8413 113.992 72.8413C120.19 72.8413 125.13 67.7929 125.13 61.6627C125.13 55.5325 120.1 50.4841 113.992 50.4841Z" fill="#B3B3C5"/>
<path d="M90.0068 84.5608C88.6594 83.2086 86.773 82.3972 84.8866 82.3972H66.7415C64.7653 82.3972 62.9687 83.1184 61.6213 84.5608L55.0639 91.1418C52.9979 93.2152 51.9199 95.9198 51.9199 98.8046V104.845H99.7081V98.8046C99.7081 95.9198 98.5404 93.2152 96.5642 91.1418L90.0068 84.5608Z" fill="white"/>
<path d="M92.1621 82.3974C90.1859 80.4141 87.5809 79.3323 84.7962 79.3323H66.7409C63.9562 79.3323 61.3512 80.4141 59.375 82.3974L52.8176 88.9784C50.2126 91.5927 48.7754 95.1086 48.7754 98.8949V106.558C48.7754 107.459 49.494 108.09 50.3025 108.09H101.235C102.133 108.09 102.762 107.369 102.762 106.558V98.8949C102.762 95.1987 101.324 91.6829 98.7195 88.9784L92.1621 82.3974ZM99.7076 104.845H51.9194V98.8047C51.9194 95.9199 53.0871 93.2154 55.0633 91.142L61.6207 84.561C62.9681 83.2087 64.8545 82.3974 66.7409 82.3974H84.886C86.8622 82.3974 88.6588 83.1186 90.0062 84.561L96.5636 91.142C98.6296 93.2154 99.7076 95.9199 99.7076 98.8047V104.845Z" fill="#B3B3C5"/>
<path d="M61.5312 61.7528C61.5312 69.6861 67.909 76.0867 75.8138 76.0867C83.7186 76.0867 90.0964 69.6861 90.0964 61.7528C90.0964 53.8196 83.7186 47.4189 75.8138 47.4189C67.909 47.4189 61.5312 53.8196 61.5312 61.7528ZM75.8138 50.4841C82.0119 50.4841 86.9524 55.5325 86.9524 61.6627C86.9524 67.8831 81.9221 72.8413 75.8138 72.8413C69.6157 72.8413 64.6752 67.7929 64.6752 61.6627C64.5854 55.5325 69.6157 50.4841 75.8138 50.4841Z" fill="#B3B3C5"/>
</g>
<defs>
<clipPath id="clip0_2230_71">
<rect width="151" height="108" fill="white"/>
</clipPath>
</defs>
</svg>
