<svg xmlns="http://www.w3.org/2000/svg" viewBox="0 0 97.83 121.92"><defs><style>.cls-1{fill:#00003f}</style></defs><g id="Layer_2" data-name="Layer 2"><g id="Layer_1-2" data-name="Layer 1"><path d="M48.91 80.89a5 5 0 0 1-4-2L1 20.39a5 5 0 0 1 4-8.08h87.77a5 5 0 0 1 4 8.08L53 78.87a5 5 0 0 1-4.09 2.02ZM5.06 15.9a1.41 1.41 0 0 0-1.31.81 1.43 1.43 0 0 0 .14 1.53l43.85 58.48a1.48 1.48 0 0 0 2.35 0l43.85-58.48a1.46 1.46 0 0 0-1.17-2.34Z" class="cls-1"/><path d="M46.36 121.27a1.8 1.8 0 0 1-1.79-1.8V78.55a1.8 1.8 0 0 1 3.59 0v40.92a1.81 1.81 0 0 1-1.8 1.8ZM51.47 121.27a1.8 1.8 0 0 1-1.79-1.8V78.55a1.79 1.79 0 0 1 3.58 0v40.92a1.8 1.8 0 0 1-1.79 1.8Z" class="cls-1"/><path d="M66.77 121.92H31.06a1.8 1.8 0 0 1 0-3.59h35.71a1.8 1.8 0 0 1 0 3.59ZM61.79 33.39H19.73a1.79 1.79 0 0 1 0-3.58h42.06a1.79 1.79 0 1 1 0 3.58ZM78.31 33.39h-3.69a1.79 1.79 0 0 1 0-3.58h3.69a1.79 1.79 0 1 1 0 3.58ZM85.06 11.28a1.8 1.8 0 0 1-1.43-2.86l5.71-7.7a1.79 1.79 0 1 1 2.88 2.14l-5.71 7.69a1.8 1.8 0 0 1-1.45.73ZM56.68 49.26a1.8 1.8 0 0 1-1.43-2.87L76.5 18.16a1.79 1.79 0 0 1 2.87 2.15L58.12 48.54a1.79 1.79 0 0 1-1.44.72ZM43.86 66.44a1.8 1.8 0 0 1-1.43-2.87l2.5-3.35a1.79 1.79 0 0 1 2.87 2.15l-2.5 3.34a1.81 1.81 0 0 1-1.44.73Z" class="cls-1"/><path d="M49.63 63.57a6.91 6.91 0 0 1-4.08-1.28 7.4 7.4 0 0 1-3-5.94 11.82 11.82 0 0 1 8-11.22 7.11 7.11 0 0 1 9.6 6.87 11.81 11.81 0 0 1-8 11.22 8.62 8.62 0 0 1-2.52.35Zm3.45-15.24a5 5 0 0 0-1.45.22 8.28 8.28 0 0 0-5.48 7.67 3.57 3.57 0 0 0 5 3.53 8.28 8.28 0 0 0 5.47-7.67 3.9 3.9 0 0 0-1.48-3.15 3.45 3.45 0 0 0-2.06-.6Z" class="cls-1"/></g></g></svg>