<?xml version="1.0" encoding="utf-8"?>
<!-- Generator: Adobe Illustrator 27.0.0, SVG Export Plug-In . SVG Version: 6.00 Build 0)  -->
<svg version="1.1" id="a" xmlns="http://www.w3.org/2000/svg" xmlns:xlink="http://www.w3.org/1999/xlink" x="0px" y="0px"
	 viewBox="0 0 1000 1000" style="enable-background:new 0 0 1000 1000;" xml:space="preserve">
<style type="text/css">
	.st0{opacity:0.3;fill:#0F053F;}
</style>
<path class="st0" d="M833,142c-5.9-11.9-17.8-19.2-31.1-19.2H198.1c-13.3,0-25.2,7.4-31.1,19.2s-4.7,25.8,3.3,36.4l299.8,399.8
	c0,0.2-0.1,0.4-0.1,0.5v273.8h-93c-6.8,0-12.3,5.5-12.3,12.3s5.5,12.3,12.3,12.3h245.8c6.8,0,12.3-5.5,12.3-12.3
	s-5.5-12.3-12.3-12.3h-93V578.7c0-0.2,0-0.4-0.1-0.5l299.8-399.8C837.7,167.8,838.9,153.9,833,142L833,142z M494.8,852.5V594.4
	c1.7,0.3,3.5,0.4,5.2,0.4s3.5-0.2,5.2-0.4v258.2L494.8,852.5L494.8,852.5z M809.9,163.6L508.1,566.1c-1.9,2.6-4.9,4-8.1,4
	s-6.2-1.5-8.1-4L190.1,163.6c-3.4-4.5-1.8-8.9-0.9-10.6s3.4-5.6,9-5.6h603.7c5.6,0,8.2,3.9,9,5.6
	C811.7,154.7,813.3,159.1,809.9,163.6L809.9,163.6z"/>
<path class="st0" d="M588.7,267.9H299.1c-6.8,0-12.4-5.5-12.4-12.4s5.5-12.3,12.4-12.3h289.5c6.8,0,12.3,5.5,12.3,12.3
	S595.5,267.9,588.7,267.9"/>
<path class="st0" d="M702.4,267.9h-25.4c-6.8,0-12.3-5.5-12.3-12.4s5.5-12.3,12.3-12.3h25.4c6.8,0,12.3,5.5,12.3,12.3
	S709.2,267.9,702.4,267.9"/>
<path class="st0" d="M707.2,160.6c-5.4-4.1-13.2-3-17.3,2.4l-141,187.3c-24.6-11-57.6,0.3-77.5,28.1c-19.1,26.8-19.8,60.1-3.4,80.1
	l-12.8,17c-4.1,5.5-3,13.2,2.5,17.3c2.2,1.7,4.8,2.5,7.4,2.5c3.8,0,7.5-1.7,9.9-5l13.2-17.7c5.3,1.8,10.8,2.8,16.5,2.8
	c20.5,0,42.6-11.6,57.4-32.3c18.1-25.4,19.7-56.8,5.7-77l141.7-188.3C713.7,172.4,712.6,164.7,707.2,160.6L707.2,160.6z
	 M542.1,428.8c-13.9,19.5-37.2,27.7-50.9,17.9s-13.5-34.5,0.4-54c9.9-13.9,24.6-22,37.2-22c5.1,0,9.8,1.3,13.7,4.1
	C556.2,384.6,556,409.3,542.1,428.8L542.1,428.8z"/>
</svg>
