<svg width="99" height="122" fill="none" xmlns="http://www.w3.org/2000/svg"><g opacity=".3" fill="#00003F"><path d="M49.912 80.892a5.011 5.011 0 0 1-4.043-2.022L2.014 20.395a5.017 5.017 0 0 1-.476-5.292 5.03 5.03 0 0 1 4.52-2.794h87.71a5.02 5.02 0 0 1 4.518 2.794 5.03 5.03 0 0 1-.476 5.292L53.955 78.867a5 5 0 0 1-4.043 2.025ZM6.057 15.899c-.818 0-1.19.567-1.31.811-.121.245-.353.88.137 1.536l43.855 58.472c.28.372.707.587 1.173.587a1.46 1.46 0 0 0 1.174-.587l43.855-58.472c.492-.655.26-1.291.137-1.536a1.425 1.425 0 0 0-1.31-.812H6.057Z"/><path d="M47.359 121.268a1.792 1.792 0 0 1-1.794-1.794v-40.92a1.792 1.792 0 1 1 3.587 0v40.92c0 .992-.802 1.794-1.793 1.794Zm5.108 0a1.792 1.792 0 0 1-1.793-1.794v-40.92a1.792 1.792 0 1 1 3.587 0v40.92c0 .992-.806 1.794-1.794 1.794Z"/><path d="M67.763 121.92H32.06a1.792 1.792 0 1 1 0-3.587h35.703a1.792 1.792 0 1 1 0 3.587Zm-4.972-88.525H20.73a1.792 1.792 0 1 1 0-3.587h42.062a1.792 1.792 0 1 1 0 3.587Zm16.522 0h-3.695a1.792 1.792 0 1 1 0-3.587h3.695a1.792 1.792 0 1 1 0 3.587Zm6.75-22.117a1.792 1.792 0 0 1-1.438-2.86l5.712-7.69a1.792 1.792 0 1 1 2.88 2.136l-5.713 7.691a1.794 1.794 0 0 1-1.441.724Zm-28.38 37.986a1.794 1.794 0 0 1-1.431-2.873L77.5 18.162a1.794 1.794 0 0 1 2.867 2.155l-21.25 28.23a1.79 1.79 0 0 1-1.434.718ZM44.858 66.438a1.795 1.795 0 0 1-1.435-2.87l2.502-3.342a1.795 1.795 0 0 1 2.872 2.149l-2.5 3.342a1.8 1.8 0 0 1-1.439.72Z"/><path d="M50.626 63.572c-1.494 0-2.89-.43-4.076-1.279-1.836-1.307-2.896-3.42-2.984-5.94-.081-2.345.698-4.797 2.201-6.9 1.5-2.103 3.564-3.639 5.81-4.323 2.413-.737 4.755-.421 6.59.886 1.836 1.308 2.896 3.42 2.984 5.941.081 2.345-.698 4.797-2.198 6.9-1.5 2.103-3.564 3.639-5.81 4.323a8.653 8.653 0 0 1-2.517.392Zm3.45-15.244c-.464 0-.95.075-1.452.228-1.493.457-2.892 1.513-3.935 2.977-1.044 1.464-1.591 3.13-1.536 4.692.049 1.383.574 2.501 1.484 3.15.906.646 2.135.783 3.46.378 1.492-.456 2.891-1.513 3.935-2.977 1.043-1.464 1.59-3.13 1.535-4.692-.049-1.382-.574-2.5-1.48-3.15-.567-.4-1.255-.606-2.012-.606Z"/></g></svg>