<?xml version="1.0" encoding="UTF-8"?><svg id="a" xmlns="http://www.w3.org/2000/svg" viewBox="0 0 1000 1000"><defs><style>.b{fill:#fff;}</style></defs><path class="b" d="M832.98,141.99c-5.93-11.86-17.85-19.23-31.11-19.23H198.14c-13.26,0-25.19,7.37-31.12,19.23-5.93,11.86-4.67,25.82,3.29,36.43l299.82,399.77c0,.19-.06,.36-.06,.55v273.81h-92.95c-6.81,0-12.34,5.53-12.34,12.34s5.53,12.35,12.34,12.35h245.76c6.82,0,12.34-5.53,12.34-12.35s-5.52-12.34-12.34-12.34h-92.95v-273.81c0-.19-.05-.37-.06-.55L829.69,178.42c7.96-10.61,9.21-24.57,3.28-36.43ZM494.76,852.55v-258.16c1.72,.26,3.46,.43,5.24,.43s3.52-.18,5.24-.43v258.16h-10.47ZM809.94,163.61l-301.86,402.49c-1.93,2.56-4.87,4.04-8.08,4.04s-6.16-1.48-8.08-4.04L190.06,163.61c-3.38-4.5-1.79-8.89-.95-10.57,.84-1.68,3.4-5.58,9.03-5.58H801.86c5.64,0,8.19,3.9,9.03,5.58,.84,1.68,2.43,6.07-.95,10.57Z"/><path class="b" d="M588.65,267.9H299.13c-6.82,0-12.35-5.53-12.35-12.35s5.53-12.34,12.35-12.34h289.52c6.81,0,12.34,5.53,12.34,12.34s-5.53,12.35-12.34,12.35"/><path class="b" d="M702.37,267.9h-25.44c-6.81,0-12.34-5.53-12.34-12.35s5.53-12.34,12.34-12.34h25.44c6.82,0,12.34,5.53,12.34,12.34s-5.52,12.35-12.34,12.35"/><path class="b" d="M707.17,160.59c-5.44-4.1-13.18-3.01-17.29,2.44l-140.97,187.3c-24.64-11.02-57.61,.28-77.45,28.08-19.1,26.77-19.8,60.09-3.39,80.13l-12.75,17.04c-4.09,5.46-2.97,13.19,2.49,17.28,2.22,1.66,4.81,2.46,7.38,2.46,3.76,0,7.47-1.71,9.89-4.95l13.21-17.67c5.26,1.84,10.82,2.77,16.51,2.77,20.5,0,42.59-11.6,57.38-32.32,18.14-25.43,19.67-56.76,5.71-77.02l141.69-188.26c4.1-5.45,3-13.19-2.44-17.29Zm-165.06,268.23c-13.9,19.48-37.21,27.68-50.91,17.9-13.7-9.78-13.53-34.48,.37-53.96,9.9-13.88,24.59-22.04,37.17-22.04,5.07,0,9.8,1.33,13.74,4.14,13.7,9.78,13.54,34.48-.36,53.96Z"/></svg>