<svg width="85" height="94" fill="none" xmlns="http://www.w3.org/2000/svg"><g clip-path="url(#a)" fill="#B3B3C5"><path d="M49.1 52.094c.9 0 1.7-.769 1.7-1.868 0-.99-.7-1.868-1.7-1.868s-1.7.769-1.7 1.868c0 1.099.7 1.868 1.7 1.868Zm-36.5 0c.9 0 1.7-.769 1.7-1.868 0-.99-.7-1.868-1.7-1.868-.9 0-1.7.769-1.7 1.868 0 1.099.8 1.868 1.7 1.868ZM1.7 22.97c.9 0 1.7-.77 1.7-1.868V3.627h15.9c.9 0 1.7-.77 1.7-1.869C21 .77 20.3-.11 19.3-.11H1.7C.7 0 0 .77 0 1.868v19.343c0 .88.7 1.759 1.7 1.759Zm19.2 68.47c0-.99-.7-1.869-1.7-1.869H3.3V72.097c0-.99-.7-1.869-1.7-1.869-.9.11-1.6.88-1.6 1.869V91.44c0 .989.7 1.868 1.7 1.868h17.6c.8 0 1.6-.88 1.6-1.868Zm62.3-21.102c-.9 0-1.7.77-1.7 1.869V89.68H65.6c-.9 0-1.7.77-1.7 1.869 0 .989.7 1.868 1.7 1.868h17.6c.9 0 1.7-.77 1.7-1.868V72.097c0-.99-.8-1.759-1.7-1.759ZM83.2 0H65.6c-.9 0-1.6.77-1.6 1.868 0 .99.7 1.869 1.7 1.869h15.9V21.21c0 .99.7 1.869 1.7 1.869.9 0 1.7-.77 1.7-1.869V1.868C84.9.77 84.1 0 83.2 0Z"/><path d="M10.9 79.46c0 .99.7 1.869 1.7 1.869h16.6c.9 0 1.7-.77 1.7-1.869V61.216c0-.989-.7-1.868-1.7-1.868H12.6c-.9 0-1.7.77-1.7 1.868V79.46Zm3.4-16.485h13.3v14.617H14.3V62.975ZM29.2 11.98H12.6c-.9 0-1.7.769-1.7 1.868v18.244c0 .989.7 1.868 1.7 1.868h16.6c.9 0 1.7-.77 1.7-1.868V13.848c-.1-.99-.8-1.869-1.7-1.869Zm-1.7 18.243H14.3V15.717h13.3v14.508h-.1Zm46.4-16.375c0-.99-.7-1.869-1.7-1.869H55.7c-.9 0-1.7.77-1.7 1.869v18.244c0 .989.7 1.868 1.7 1.868h16.6c.9 0 1.7-.77 1.7-1.868V13.848h-.1Zm-3.3 16.376H57.3V15.716h13.3v14.508Zm3.3 49.236V61.216c0-.989-.7-1.868-1.7-1.868H55.7c-.9 0-1.7.77-1.7 1.868V79.46c0 .99.7 1.869 1.7 1.869h16.6c.9-.11 1.6-.88 1.6-1.869Zm-3.3-1.868H57.3V62.975h13.3v14.617Z"/><path d="M22.5 66.711h-3.3c-.9 0-1.7.77-1.7 1.869v3.627c0 .989.7 1.868 1.7 1.868h3.3c.9 0 1.7-.77 1.7-1.868V68.58c0-1.1-.7-1.869-1.7-1.869Zm-3.3-40.114h3.3c.9 0 1.7-.77 1.7-1.869v-3.627c0-.989-.7-1.868-1.7-1.868h-3.3c-.9 0-1.7.77-1.7 1.869v3.626c.1 1.1.8 1.869 1.7 1.869Zm43.1 0h3.3c.9 0 1.7-.77 1.7-1.869v-3.627c0-.989-.7-1.868-1.7-1.868h-3.3c-.9 0-1.7.77-1.7 1.869v3.626c.1 1.1.8 1.869 1.7 1.869Zm0 47.368h3.3c.9 0 1.7-.77 1.7-1.868V68.47c0-.99-.7-1.868-1.7-1.868h-3.3c-.9 0-1.7.769-1.7 1.868v3.627c.1.989.8 1.868 1.7 1.868ZM17.6 50.226c0 .989.7 1.868 1.7 1.868h21.5v9.122c0 .99.7 1.869 1.7 1.869s1.7-.77 1.7-1.869v-10.88c0-.99-.7-1.868-1.7-1.868H19.2c-.9 0-1.6.769-1.6 1.758Zm11.6-5.386c.9 0 1.7-.769 1.7-1.868 0-.989-.7-1.868-1.7-1.868H12.6c-.9 0-1.7.77-1.7 1.868 0 .99.7 1.869 1.7 1.869h16.6Zm6.6 0h6.6c.9 0 1.7-.769 1.7-1.868 0-.989-.7-1.868-1.7-1.868h-6.6c-.9 0-1.7.77-1.7 1.868 0 .99.8 1.869 1.7 1.869Zm0-32.86c-.9 0-1.7.769-1.7 1.868v18.244c0 .989.7 1.868 1.7 1.868h11.6v9.122c0 .99.7 1.868 1.7 1.868h6.6c.9 0 1.7-.769 1.7-1.868 0-.989-.7-1.868-1.7-1.868h-5v-9.122c0-.99-.7-1.868-1.7-1.868H37.5V13.848c0-.99-.8-1.869-1.7-1.869Zm36.5 29.234h-9.9c-.9 0-1.7.77-1.7 1.868 0 .99.7 1.868 1.7 1.868h9.9c.9 0 1.7-.769 1.7-1.868-.1-1.099-.8-1.868-1.7-1.868Zm0 7.254H55.7c-.9 0-1.7.769-1.7 1.868 0 .989.7 1.868 1.7 1.868h16.6c.9 0 1.7-.77 1.7-1.868-.1-1.1-.8-1.868-1.7-1.868ZM42.4 66.711h-6.6c-.9 0-1.7.77-1.7 1.869v10.88c0 .99.7 1.869 1.7 1.869.9 0 1.7-.77 1.7-1.869v-9.122h5c.9 0 1.7-.77 1.7-1.868 0-1.1-.9-1.759-1.8-1.759Z"/><path d="M47.4 77.592h-5c-.9 0-1.7.77-1.7 1.868 0 .99.7 1.869 1.7 1.869H49c.9 0 1.7-.77 1.7-1.869V57.59c0-.99-.7-1.869-1.7-1.869-.9 0-1.7.77-1.7 1.869v20.002h.1Zm1.7-50.995c.9 0 1.7-.77 1.7-1.869v-10.88c0-.99-.7-1.869-1.7-1.869-.9 0-1.7.77-1.7 1.869v9.122h-5c-.9 0-1.7.77-1.7 1.868 0 .99.7 1.868 1.7 1.868h6.7v-.11Z"/></g><defs><clipPath id="a"><path fill="#fff" d="M0 0h84.9v93.308H0z"/></clipPath></defs></svg>