<svg xmlns="http://www.w3.org/2000/svg" viewBox="0 0 85 93.53"><defs><style>.cls-1{fill:#00003f}</style></defs><g id="Layer_2" data-name="Layer 2"><g id="Layer_1-2" data-name="Layer 1"><path d="M49.1 52.2a1.87 1.87 0 0 0 0-3.73 1.87 1.87 0 0 0 0 3.73ZM12.6 52.2a1.87 1.87 0 0 0 0-3.73 1.87 1.87 0 0 0 0 3.73ZM1.7 23.08a1.77 1.77 0 0 0 1.7-1.87V3.74h15.9A1.77 1.77 0 0 0 21 1.87 1.78 1.78 0 0 0 19.3 0H1.7A1.88 1.88 0 0 0 0 2v19.32a1.75 1.75 0 0 0 1.7 1.76ZM20.9 91.55a1.78 1.78 0 0 0-1.7-1.87H3.3V72.21a1.78 1.78 0 0 0-1.7-1.87A1.84 1.84 0 0 0 0 72.21v19.34a1.78 1.78 0 0 0 1.7 1.87h17.6a1.84 1.84 0 0 0 1.6-1.87ZM83.2 70.45a1.77 1.77 0 0 0-1.7 1.87v17.47H65.6a1.88 1.88 0 0 0 0 3.74h17.6a1.77 1.77 0 0 0 1.7-1.87V72.21a1.74 1.74 0 0 0-1.7-1.76ZM83.2.11H65.6A1.7 1.7 0 0 0 64 2a1.78 1.78 0 0 0 1.7 1.87h15.9v17.45a1.71 1.71 0 1 0 3.4 0V2A1.92 1.92 0 0 0 83.2.11Z" class="cls-1"/><path d="M10.9 79.57a1.78 1.78 0 0 0 1.7 1.87h16.6a1.77 1.77 0 0 0 1.7-1.87V61.33a1.78 1.78 0 0 0-1.7-1.87H12.6a1.77 1.77 0 0 0-1.7 1.87Zm3.4-16.49h13.3V77.7H14.3ZM29.2 12.09H12.6A1.77 1.77 0 0 0 10.9 14v18.2a1.78 1.78 0 0 0 1.7 1.87h16.6a1.77 1.77 0 0 0 1.7-1.87V14a1.92 1.92 0 0 0-1.7-1.91Zm-1.7 18.24H14.3v-14.5h13.3v14.5ZM73.9 14a1.78 1.78 0 0 0-1.7-1.87H55.7A1.77 1.77 0 0 0 54 14v18.2a1.78 1.78 0 0 0 1.7 1.87h16.6A1.77 1.77 0 0 0 74 32.2V14Zm-3.3 16.33H57.3v-14.5h13.3ZM73.9 79.57V61.33a1.78 1.78 0 0 0-1.7-1.87H55.7a1.77 1.77 0 0 0-1.7 1.87v18.24a1.78 1.78 0 0 0 1.7 1.87h16.6a1.84 1.84 0 0 0 1.6-1.87Zm-3.3-1.87H57.3V63.08h13.3Z" class="cls-1"/><path d="M22.5 66.82h-3.3a1.77 1.77 0 0 0-1.7 1.87v3.63a1.77 1.77 0 0 0 1.7 1.86h3.3a1.76 1.76 0 0 0 1.7-1.86v-3.63a1.71 1.71 0 0 0-1.7-1.87ZM19.2 26.71h3.3a1.77 1.77 0 0 0 1.7-1.87v-3.63a1.78 1.78 0 0 0-1.7-1.87h-3.3a1.77 1.77 0 0 0-1.7 1.87v3.63a1.84 1.84 0 0 0 1.7 1.87ZM62.3 26.71h3.3a1.77 1.77 0 0 0 1.7-1.87v-3.63a1.78 1.78 0 0 0-1.7-1.87h-3.3a1.77 1.77 0 0 0-1.7 1.87v3.63a1.84 1.84 0 0 0 1.7 1.87ZM62.3 74.08h3.3a1.77 1.77 0 0 0 1.7-1.87v-3.63a1.78 1.78 0 0 0-1.7-1.87h-3.3a1.77 1.77 0 0 0-1.7 1.87v3.63a1.92 1.92 0 0 0 1.7 1.87ZM17.6 50.34a1.77 1.77 0 0 0 1.7 1.86h21.5v9.13a1.77 1.77 0 0 0 1.7 1.86 1.71 1.71 0 0 0 1.7-1.86V50.45a1.78 1.78 0 0 0-1.7-1.87H19.2a1.66 1.66 0 0 0-1.6 1.76ZM29.2 45a1.88 1.88 0 0 0 0-3.74H12.6a1.88 1.88 0 0 0 0 3.74ZM35.8 45h6.6a1.88 1.88 0 0 0 0-3.74h-6.6a1.77 1.77 0 0 0-1.7 1.87A1.85 1.85 0 0 0 35.8 45ZM35.8 12.09A1.77 1.77 0 0 0 34.1 14v18.2a1.78 1.78 0 0 0 1.7 1.87h11.6v9.12a1.78 1.78 0 0 0 1.7 1.87h6.6a1.88 1.88 0 0 0 0-3.74h-5V32.2a1.78 1.78 0 0 0-1.7-1.87H37.5V14a1.85 1.85 0 0 0-1.7-1.91ZM72.3 41.32h-9.9a1.88 1.88 0 0 0 0 3.74h9.9a1.77 1.77 0 0 0 1.7-1.87 1.84 1.84 0 0 0-1.7-1.87ZM72.3 48.58H55.7a1.87 1.87 0 0 0 0 3.73h16.6a1.77 1.77 0 0 0 1.7-1.86 1.84 1.84 0 0 0-1.7-1.87ZM42.4 66.82h-6.6a1.77 1.77 0 0 0-1.7 1.87v10.88a1.71 1.71 0 1 0 3.4 0v-9.12h5a1.77 1.77 0 0 0 1.7-1.87 1.76 1.76 0 0 0-1.8-1.76Z" class="cls-1"/><path d="M47.4 77.7h-5a1.88 1.88 0 0 0 0 3.74H49a1.77 1.77 0 0 0 1.7-1.87V57.7a1.71 1.71 0 1 0-3.4 0v20ZM49.1 26.71a1.77 1.77 0 0 0 1.7-1.87V14a1.71 1.71 0 1 0-3.4 0v9.12h-5a1.88 1.88 0 0 0 0 3.74h6.7Z" class="cls-1"/></g></g></svg>