<?xml version="1.0" encoding="utf-8"?>
<!-- Generator: Adobe Illustrator 27.0.0, SVG Export Plug-In . SVG Version: 6.00 Build 0)  -->
<svg version="1.1" id="a" xmlns="http://www.w3.org/2000/svg" xmlns:xlink="http://www.w3.org/1999/xlink" x="0px" y="0px"
	 viewBox="0 0 1000 1000" style="enable-background:new 0 0 1000 1000;" xml:space="preserve">
<style type="text/css">
	.st0{opacity:0.3;fill:#131384;}
</style>
<path class="st0" d="M690.8,797H314.1v-62.2c0-25.6,10-49.7,28.1-67.8l46-46c13.4-13.4,31.2-20.8,50.1-20.8h128.2
	c19,0,36.8,7.4,50.2,20.8l46,46c18.1,18.1,28.1,42.2,28.1,67.8L690.8,797L690.8,797z M331,780.1h342.9v-45.3
	c0-21.1-8.2-40.9-23.1-55.9l-46-46c-10.2-10.2-23.8-15.8-38.2-15.8H438.4c-14.4,0-28,5.6-38.2,15.8l-46,46
	c-14.9,14.9-23.1,34.8-23.1,55.9L331,780.1L331,780.1z M502.5,572.2c-54.3,0-98.4-44.1-98.4-98.4s44.1-98.4,98.4-98.4
	s98.4,44.1,98.4,98.4S556.7,572.2,502.5,572.2 M502.5,392.2c-44.9,0-81.5,36.6-81.5,81.5s36.6,81.5,81.5,81.5s81.5-36.6,81.5-81.5
	S547.4,392.2,502.5,392.2 M458.6,95.1l-18.5-2.5c1.2-8.7,4.9-15.6,10.8-20.1c5.9-4.4,13.6-6.2,22.2-5L470.7,86
	c-2.5-0.3-6.1-0.4-8.5,1.4C459.9,89.2,459,92.5,458.6,95.1 M541.8,98.1c-0.2-10.6-5.4-12.1-10.5-11.9l-0.3-18.7
	c17.5-0.3,29.1,11.6,29.4,30.3L541.8,98.1L541.8,98.1z M535.5,86.2L535.5,86.2L469.4,86c-5.1,0-9.3-4.2-9.3-9.3s4.2-9.3,9.3-9.3h0
	l66.1,0.2c5.2,0,9.3,4.2,9.3,9.3C544.8,82.1,540.6,86.2,535.5,86.2 M549.5,188.8c-0.1,0-0.1,0-0.2,0c-5.2-0.1-9.2-4.4-9.2-9.5
	l1.6-85.3c0.1-5.1,4.2-9.2,9.3-9.2c0.1,0,0.1,0,0.2,0c5.2,0.1,9.2,4.3,9.2,9.5l-1.7,85.3C558.7,184.8,554.5,188.8,549.5,188.8
	 M549.4,189.8h-0.1l-103.2-1.3c-5.2-0.1-9.3-4.3-9.2-9.4c0.1-5.1,4.4-9.3,9.5-9.2l103.2,1.3c5.2,0.1,9.3,4.3,9.2,9.4
	C558.7,185.7,554.5,189.8,549.4,189.8 M446.3,188.5c-0.1,0-0.2,0-0.3,0c-5.1-0.2-9.2-4.5-9-9.6l3-85.5c0.2-5.2,4.5-9.2,9.7-9
	c5.1,0.2,9.2,4.5,9,9.7l-3,85.5C455.4,184.6,451.3,188.5,446.3,188.5 M843.8,121.7l-15-11.1c10.6-14.3,26.7-16.7,41-6.2l-11.1,15
	C852.7,115,848.3,115.7,843.8,121.7 M932,172.8l-16.5-8.7c5-9.4,1-13.1-3.5-15.5l8.7-16.5C936.2,140.3,940.7,156.3,932,172.8
	 M920.1,151.8c-1.5,0-3.1-0.4-4.5-1.2l-58-31.8c-4.5-2.5-6.2-8.2-3.7-12.7c2.5-4.5,8.1-6.2,12.7-3.7l58,31.8
	c4.5,2.5,6.2,8.1,3.7,12.7C926.5,150.1,923.3,151.8,920.1,151.8 M883.2,248.6c-1.6,0-3.2-0.4-4.6-1.2c-4.5-2.6-6-8.2-3.5-12.7
	l42.3-74.1c2.5-4.5,8.2-6,12.7-3.5c4.5,2.6,6,8.2,3.5,12.7l-42.3,74.2C889.6,246.9,886.5,248.6,883.2,248.6 M882.7,249.5
	c-1.5,0-3.1-0.4-4.6-1.2l-90-50.5c-4.5-2.5-6.1-8.2-3.6-12.7c2.5-4.5,8.2-6.1,12.7-3.6l90,50.5c4.5,2.5,6.1,8.2,3.6,12.7
	C889.2,247.7,886,249.4,882.7,249.5 M792.8,199c-1.6,0-3.2-0.4-4.7-1.3c-4.4-2.6-5.9-8.3-3.3-12.8l43.6-73.7
	c2.6-4.4,8.3-5.9,12.8-3.3c4.4,2.6,5.9,8.3,3.3,12.8l-43.6,73.6C799.1,197.3,795.9,199,792.8,199 M65.7,156.4
	c-5.9-16.8,1.2-31.5,18-37.4l6.2,17.6c-7.1,2.5-9.1,6.6-6.6,13.6L65.7,156.4L65.7,156.4z M158.7,114.9c-2-3.8-4.4-6.2-6.8-7.1
	c-2.2-0.8-4.9-0.4-7.9,1.3l-8.8-16.5c7.8-4.1,15.7-4.9,22.9-2.4c6.9,2.4,12.9,8,17.1,15.9L158.7,114.9L158.7,114.9z M84.5,138.3
	c-3.4,0-6.7-1.9-8.3-5.1c-2.3-4.6-0.5-10.2,4.1-12.5l58.9-30c4.6-2.3,10.2-0.5,12.5,4.1c2.3,4.6,0.5,10.2-4.1,12.6l-58.9,30
	C87.4,138,85.9,138.3,84.5,138.3 M202.7,193.1c-3.4,0-6.8-1.9-8.4-5.2l-37.5-76.7c-2.3-4.6-0.4-10.2,4.3-12.5
	c4.6-2.3,10.2-0.3,12.5,4.3l37.5,76.7c2.3,4.6,0.3,10.2-4.3,12.5C205.4,192.8,204,193.1,202.7,193.1 M110.8,240
	c-3.4,0-6.7-1.9-8.4-5.2c-2.3-4.6-0.4-10.2,4.2-12.5l92.4-46c4.6-2.3,10.2-0.4,12.5,4.2c2.3,4.6,0.4,10.2-4.2,12.5l-92.4,46
	C113.6,239.7,112.2,240,110.8,240 M110.8,240c-3.5,0-6.9-2-8.4-5.4L66,157.2c-2.2-4.7-0.2-10.2,4.5-12.4c4.7-2.2,10.2-0.2,12.4,4.5
	l36.4,77.5c2.2,4.7,0.2,10.2-4.5,12.4C113.4,239.7,112.1,240,110.8,240 M737,792.4c-0.6,0-1.3-0.1-1.9-0.2c-5-1-8.3-6-7.2-11
	l114.9-556c1-5.1,6-8.3,11-7.2c5,1,8.3,6,7.2,11l-114.9,556C745.2,789.3,741.3,792.4,737,792.4 M262.2,848.2l19.8,75.4 M281.9,932.8
	c-4.1,0-7.9-2.8-9-7l-19.8-75.3c-1.3-5,1.7-10.1,6.7-11.4c5-1.3,10.1,1.7,11.4,6.7l19.8,75.3c1.3,5-1.7,10.1-6.7,11.4
	C283.5,932.8,282.7,932.8,281.9,932.8 M711.8,932.8c-0.8,0-1.7-0.1-2.5-0.3c-5-1.4-7.8-6.5-6.5-11.5l21.2-75.4
	c1.4-5,6.5-7.8,11.5-6.5c5,1.4,7.8,6.5,6.4,11.5L720.7,926C719.6,930.2,715.8,932.8,711.8,932.8 M258.5,792.4
	c-4.4,0-8.3-3.1-9.1-7.5L140.3,231c-1-5.1,2.3-10,7.4-10.9c5.1-1,10,2.3,10.9,7.4l109,553.8c1,5.1-2.3,10-7.4,11
	C259.7,792.3,259.1,792.4,258.5,792.4 M335.5,406.9c-2.6,0-5.3-1.1-7.1-3.3L170.9,217.7c-3.3-3.9-2.8-9.8,1.1-13.1
	c3.9-3.3,9.8-2.8,13.1,1.1l157.4,185.9c3.3,3.9,2.8,9.8-1.1,13.1C339.7,406.2,337.6,406.9,335.5,406.9 M448.5,325.6
	c-0.8,0-1.6-0.1-2.5-0.3c-5-1.4-7.9-6.5-6.5-11.4l36.8-135.4c1.4-5,6.5-7.9,11.5-6.6c5,1.4,7.9,6.5,6.6,11.4l-36.8,135.4
	C456.4,322.9,452.6,325.6,448.5,325.6 M560.8,330.4c-4,0-7.7-2.5-8.9-6.5l-42.6-135.8c-1.5-4.9,1.2-10.1,6.1-11.7
	c4.9-1.6,10.2,1.2,11.7,6.1l42.6,135.8c1.5,4.9-1.2,10.1-6.1,11.7C562.7,330.3,561.8,330.4,560.8,330.4 M661.2,407.4
	c-2.1,0-4.2-0.7-5.9-2.1c-4-3.3-4.5-9.2-1.3-13.1l155.6-188.6c3.3-4,9.2-4.5,13.1-1.3c4,3.3,4.5,9.2,1.3,13.1L668.4,404
	C666.5,406.3,663.8,407.4,661.2,407.4 M775.5,798.2H213.4c-5.1,0-9.3-4.2-9.3-9.3s4.2-9.3,9.3-9.3h562.1c5.2,0,9.3,4.2,9.3,9.3
	S780.6,798.2,775.5,798.2 M554.8,855.7H212.4c-5.1,0-9.3-4.2-9.3-9.3s4.2-9.3,9.3-9.3h342.4c5.2,0,9.3,4.2,9.3,9.3
	S559.9,855.7,554.8,855.7 M776,854.9H611.2c-5.2,0-9.3-4.2-9.3-9.3s4.2-9.3,9.3-9.3H776c5.2,0,9.3,4.2,9.3,9.3
	S781.1,854.9,776,854.9 M776.8,854.1c-2.6,0-4.9-1.1-6.3-2.4c-3.2-2.9-4.6-8.3-0.9-13c4.9-6.3,14.8-23,0-42.9
	c-3.1-4.1-2.2-10,1.9-13c4.1-3.1,10-2.2,13,1.9c17.8,24,12.1,48.6,0.6,64.2c-0.4,0.8-1,1.5-1.7,2.2
	C781.4,853.3,779,854.1,776.8,854.1 M211.4,854.9c-2.2,0-4.6-0.8-6.8-2.9c-0.7-0.7-1.2-1.4-1.7-2.2c-11.5-15.7-17.1-40.3,0.6-64.2
	c3.1-4.1,8.9-5,13.1-1.9c4.1,3.1,5,8.9,1.9,13c-14.7,19.8-4.9,36.6,0.1,42.9c3.7,4.7,2.3,10.1-0.9,13
	C216.2,853.8,214,854.9,211.4,854.9 M501.8,265.9c-5.1,0-9.3-4.2-9.3-9.3v-72.3c0-5.1,4.2-9.3,9.3-9.3s9.3,4.2,9.3,9.3v72.3
	C511.1,261.8,506.9,265.9,501.8,265.9 M192.7,286.9c-3.4,0-6.8-1.9-8.4-5.2l-31.8-64.9c-2.3-4.6-0.4-10.2,4.3-12.5
	c4.6-2.3,10.2-0.4,12.5,4.3l31.8,64.9c2.3,4.6,0.3,10.2-4.3,12.5C195.4,286.6,194,286.9,192.7,286.9 M770,342.5
	c-1.6,0-3.2-0.4-4.7-1.2c-4.5-2.6-6-8.3-3.4-12.8L828,214.1c2.6-4.5,8.3-6,12.7-3.4c4.5,2.6,6,8.3,3.4,12.8l-66.1,114.4
	C776.3,340.9,773.2,342.6,770,342.5"/>
</svg>
