<svg xmlns="http://www.w3.org/2000/svg" viewBox="0 0 111.35 110.82"><defs><style>.cls-1{fill:#00003f}</style></defs><g id="Layer_2" data-name="Layer 2"><g id="Layer_1-2" data-name="Layer 1"><path d="M19.67 98.18h4.08c.4 0 .84.14 1.22-.12h.54c.16 0 .35-.07.49.12h36.51a1.46 1.46 0 0 1 .59 0c.06 0 .11.08.16.09.2 0 .26.24.4.34s.1.09.14.12a.6.6 0 0 0 .09.39.5.5 0 0 1 0 .49 1.6 1.6 0 0 1-.1.23 1.81 1.81 0 0 1-.24.37c-.16.16-.43.15-.6.33s-.12 0-.19 0H27.33v.08c0 .02.19.23.14.42a.33.33 0 0 0 .1.36c.05.06 0 .22 0 .32a1.11 1.11 0 0 1 .13.62c.18.14.12.35.13.54s.13.21.14.35.18.24.13.42.06.24.14.34c-.07.31.2.58.13.89.28.16 0 .53.27.7v.06c0 .06-.06.28.05.38s.07.2.09.3.18.25.13.42.06.24.13.34c-.09.3.21.53.14.82a1.09 1.09 0 0 1 .14.62s.08.1.12.15v.53c0 .33 0 .32-.23.78-.08.17-.13.36-.37.37 0 0-.07.06-.1.09s-.13.19-.26.17-.39.23-.62.13-.37-.1-.53-.18-.32-.1-.43-.27a2.62 2.62 0 0 0-.39-.37c0-.17 0-.29-.08-.38s-.08-.07-.07-.1c.05-.23-.09-.41-.13-.61s-.22-.43-.14-.69c-.28-.16 0-.53-.27-.69v-.07c0-.02 0-.29-.09-.44s0-.25-.05-.37-.12-.19-.12-.28-.23-.39-.14-.62a1 1 0 0 1-.14-.62c-.18-.15-.12-.35-.13-.55-.19-.12-.13-.31-.14-.48s-.14-.19-.14-.34-.19-.39-.13-.62c-.18-.15-.12-.36-.13-.55-.18-.15-.13-.35-.13-.55-.18-.12-.12-.31-.14-.48s-.1-.18-.13-.28 0-.26-.05-.38a1.25 1.25 0 0 1-.15-.28h-4.9a.8.8 0 0 1-.44-.08 1.89 1.89 0 0 1-.77-.54c0-.25-.33-.29-.3-.55a1.12 1.12 0 0 1-.33-.47c-.06-.15-.13-.3-.2-.44a.73.73 0 0 1-.12-.36c0-.11-.17-.15-.13-.28s-.11-.23-.13-.35 0-.22-.08-.3-.05 0-.05 0v-.67c-.22-.16-.11-.41-.13-.61s0-.45 0-.68.18-.23.14-.41a.9.9 0 0 1 0-.4c0-.14.18-.25.12-.42s.17-.25.14-.41c.17-.12.08-.34.18-.46s.07-.3.22-.38c-.05-.18.2-.24.15-.41.21-.14.24-.41.43-.56s.1-.46.41-.44l.44-.4h.2c.12 0 .19-.17.35-.14a1.79 1.79 0 0 0 .33 0h9.31c.11-.11.06-.23.06-.34v-7.45c0-.13-.07-.28.05-.38s.07-.25.08-.37 0-.27 0-.4c.22-.14 0-.41.15-.54s0-.36.12-.49.07-.34.17-.46 0-.27.1-.37a.5.5 0 0 0 .12-.35c0-.13.19-.19.14-.35s.1-.18.13-.28c.14-.39.39-.73.53-1.12.07-.19.33-.25.29-.48.16-.13.16-.35.33-.48s.1-.27.24-.36.09-.28.24-.38a.87.87 0 0 0 .33-.33 3.51 3.51 0 0 1 .86-1c2.24-2.26 4.49-4.5 6.74-6.75a2.19 2.19 0 0 1 .49-.43c.21-.1.32-.29.5-.42.25 0 .3-.29.55-.3.1 0 .19-.17.3-.23.33-.18.68-.31 1-.52.2 0 .36-.11.54-.15.1-.23.39 0 .51-.23h.05c.05 0 .32.06.44-.06a.35.35 0 0 1 .37-.07c.25.07.39-.18.62-.15a5 5 0 0 0 .67 0c.38-.27.82-.13 1.22-.13h17.39c.37 0 .75-.11 1.09.12h.93c.15.24.5 0 .64.24h.4c.09.17.26.12.41.14.1.22.4 0 .51.24.17.06.33.15.5.23l.51.24.44.22c.13.08.23.22.37.26s.24.25.4.33a4.08 4.08 0 0 1 1.08 1Q75 72 78.57 75.55a1.58 1.58 0 0 1 .42.5 1.79 1.79 0 0 0 .39.44c0 .26.32.3.29.56.29.18.31.54.51.79a2.63 2.63 0 0 1 .43.83c.21.11 0 .4.24.5 0 .18.2.29.15.48s.07.11.09.16c0 .21.24.36.18.6a.18.18 0 0 0 .06.17c.15.11 0 .31.14.42s0 .36.1.49.07.29.09.43 0 .3.09.44 0 .34 0 .52v.47c.25.21.12.5.13.75v6.63c.1.11.22.06.33.06h8.12a2.44 2.44 0 0 0 .47 0c.16 0 .21.14.35.14h.2c.19.19.37.39.57.57a1.35 1.35 0 0 1 .43.63c0 .18.27.22.28.42a9.08 9.08 0 0 1 .41 1c.07.14.17.26.12.42s.19.23.14.41a1.87 1.87 0 0 0 0 .41c.26.21.1.49.13.75a5.34 5.34 0 0 1 0 .8c0 .14-.17.24-.14.42a1.08 1.08 0 0 1 0 .4c0 .05-.07.1-.1.15s0 .32-.14.42a.82.82 0 0 1-.15.47c-.08.13-.11.28-.19.39s-.11.27-.21.39-.08.29-.17.39a4.48 4.48 0 0 0-.33.47 1.79 1.79 0 0 1-.48.47 1 1 0 0 1-.53.19h-4.16c-.09.12-.1.25-.19.35s0 .24-.09.37 0 .26-.06.37a.92.92 0 0 0-.13.49c0 .17-.22.28-.13.48-.16.13-.12.31-.14.48s-.2.29-.13.48a.38.38 0 0 0-.13.41c0 .19-.2.28-.15.49s-.17.19-.12.34-.08.28-.13.42 0 .27-.13.35 0 0 0 .06.07.31-.08.44 0 .26-.06.38-.13.2-.12.28-.13.26-.14.41 0 .3-.1.44 0 .28-.14.41 0 .34-.11.49 0 .37-.19.46a.55.55 0 0 0 0 .13v.27c-.17.09 0 .28-.13.41a2.34 2.34 0 0 0-.25.5.32.32 0 0 1-.19.17.4.4 0 0 0-.23.12c-.06.06-.15.16-.19.15-.22-.06-.35.2-.56.15h-.13a.21.21 0 0 1-.12 0c-.09-.18-.3 0-.41-.15a.37.37 0 0 0-.23-.1s-.09-.08-.14-.13l-.24-.24-.22-.24c.06-.23-.18-.39-.13-.62s0-.38.11-.56-.07-.4.15-.54c-.08-.25.22-.42.14-.68s.2-.28.14-.48.17-.19.13-.35.08-.28.12-.42 0-.26.13-.35 0 0 0-.06-.07-.3.08-.43 0-.26 0-.38.14-.2.13-.28.13-.27.14-.42 0-.3.1-.43 0-.28.14-.41-.06-.35.1-.49 0-.37.19-.46v-.07c0-.07-.07-.28 0-.38s.07-.19.09-.3.18-.24.13-.41.07-.24.13-.35a.34.34 0 0 0 0-.2c-.06-.15.1-.22.11-.34s0 0-.06 0H69.77c-.13 0-.23.05-.32 0s-.25-.06-.32-.19a1.14 1.14 0 0 0-.19-.19.9.9 0 0 1-.29-.55c0-.18-.09-.4.11-.56v-.29a4.14 4.14 0 0 0 .38-.35c.09-.12.25-.06.33-.19s.17 0 .25 0h20.61a1.81 1.81 0 0 0 .19-.4c0-.13.2-.19.14-.34.17-.1.13-.26.14-.41.17-.1.14-.27.13-.42s.1-.28.12-.42a6.3 6.3 0 0 0 0-.87c-.17-.15-.12-.35-.13-.55-.22-.1-.08-.36-.21-.52a2.51 2.51 0 0 1-.25-.49l-.22-.38a1.24 1.24 0 0 0-.54 0H19.82c-.1.15-.27.22-.34.41s-.18.33-.25.49-.24.28-.15.48a.46.46 0 0 0-.12.48c.07.21-.18.3-.15.48s-.07.43.09.64 0 .39.05.58.09.24.14.35a5.51 5.51 0 0 0 .58.86Zm59.85-7.4v-7s-.13-.1-.13-.15a2.67 2.67 0 0 1 0-.4v-.47c0-.15-.16-.19-.14-.35a.68.68 0 0 0-.12-.56c-.06-.08 0-.29 0-.37s0-.26-.11-.36a.65.65 0 0 1-.13-.42.44.44 0 0 1-.13-.42c-.16-.09-.15-.3-.26-.43s-.08-.23-.15-.34-.18-.37-.27-.55a1.29 1.29 0 0 0-.36-.53c0-.27-.28-.38-.43-.56 0-.19-.15-.25-.24-.37s-.26-.22-.32-.41-.19-.23-.3-.34L69.69 70a1.37 1.37 0 0 0-.46-.35c-.17-.07-.28-.28-.43-.41s-.39-.16-.55-.29a1.82 1.82 0 0 0-.6-.35c-.09 0-.15-.17-.28-.13s-.22-.11-.34-.14-.3-.17-.48-.14c-.13-.19-.32-.1-.49-.12s-.16 0-.19 0-.32-.1-.49-.11-.36 0-.54 0c-.22-.22-.49-.14-.75-.14h-17a3 3 0 0 1-.67 0c-.27-.06-.45.16-.69.15s-.31 0-.47 0a.89.89 0 0 0-.48.13h-.33a.63.63 0 0 1-.35.13c-.14 0-.24.18-.42.14s-.1.07-.15.09a5.24 5.24 0 0 0-.68.31c-.17.07-.33.19-.5.25s-.25.32-.48.3l-.43.43c-2.47 2.46-4.93 4.94-7.41 7.39-.3.3-.46.7-.8.95 0 .19-.16.25-.23.37a3.52 3.52 0 0 0-.18.4c-.05.11-.12.22-.17.33s-.26.18-.23.38c-.16.1-.08.29-.15.4a1.49 1.49 0 0 0-.24.51c0 .21-.2.38-.18.6-.2.11 0 .4-.23.5 0 .19.07.41-.14.55v.4c0 .13 0 .25-.09.37s0 .25 0 .38v7.18c0 .11 0 .23.05.31Zm5.1-45.69V44c.17-.25.27-.52.41-.77s.38-.79.59-1.17.41-.81.61-1.22l.58-1.17c.16-.32.31-.64.49-.94s.3-.64.46-.95.33-.63.48-.94.21-.45.33-.68.24-.43.34-.66.22-.44.32-.67.24-.44.36-.66.19-.46.31-.68.21-.41.32-.6.2-.41.31-.62.19-.45.32-.67.19-.41.32-.61.2-.4.3-.61c.22-.49.48-1 .71-1.45a1.11 1.11 0 0 0 .1-.29 1.23 1.23 0 0 1 .13-.29c.47-.94 1-1.88 1.42-2.83l.39-.78c.12-.26.26-.52.38-.78l.36-.73.4-.77c.52-1 1-2.08 1.57-3.11 0-.05.06-.07 0-.1a.27.27 0 0 0-.12 0c-.08.05-.18.1-.2.17a1.18 1.18 0 0 1-.33.46c-.1.11-.23.18-.26.37s-.17.19-.27.29-.27.2-.32.33a2.55 2.55 0 0 1-.63.75c-.14.14-.15.35-.33.47a2.73 2.73 0 0 0-.38.38c-.1.11-.1.27-.23.37s-.32.24-.36.39a.9.9 0 0 1-.27.36c-.1.12-.22.22-.33.33s-.12.32-.28.43a4.4 4.4 0 0 0-.38.37c-.13.12-.11.33-.28.43a.7.7 0 0 0-.33.33 1 1 0 0 1-.3.41c-.1.12-.26.2-.32.34a2.37 2.37 0 0 1-.63.74c-.13.13-.12.32-.28.43a4.54 4.54 0 0 0-.38.38c0 .19-.14.26-.24.37s-.3.23-.37.38a2.82 2.82 0 0 1-.62.75c-.14.14-.16.35-.33.47a1 1 0 0 0-.37.38 1.33 1.33 0 0 1-.4.5c-.17.13-.19.34-.33.48a5.21 5.21 0 0 0-.47.47 2.49 2.49 0 0 1-.33.47 2.73 2.73 0 0 0-.38.38c-.08.09-.07.24-.19.33a3.71 3.71 0 0 0-.29.27c-.15.13-.15.36-.33.48a1 1 0 0 0-.37.38 2.81 2.81 0 0 1-.63.74c-.14.14-.15.35-.33.48a1.1 1.1 0 0 0-.41.42 1.44 1.44 0 0 1-.45.55c-.16.14-.14.36-.32.48a1.15 1.15 0 0 0-.42.43 2.85 2.85 0 0 1-.64.74c-.13.14-.15.35-.32.48a.65.65 0 0 0-.34.46s-.06.06-.09.09c-.18.22-.44.37-.57.64s-.38.42-.57.64-.12.31-.28.42-.25.26-.39.37-.1.33-.28.43a.73.73 0 0 0-.32.33A1.08 1.08 0 0 1 78 42c-.11.11-.26.2-.32.33-.16.33-.48.52-.66.81s-.43.44-.57.7a2.63 2.63 0 0 1-.59.69c-.15.14-.15.35-.32.48a1.15 1.15 0 0 0-.42.43c-.14.29-.44.44-.57.7a3 3 0 0 1-.59.69c-.13.15-.15.36-.32.48a1.15 1.15 0 0 0-.42.43 2 2 0 0 1-.54.64.88.88 0 0 1-.43.26 3.67 3.67 0 0 1-.66 0c0-.11-.19-.08-.27-.14s-.29-.29-.43-.43c.06-.17-.18-.23-.15-.41a4.5 4.5 0 0 0 0-.63l.42-.6c.13-.18.39-.25.39-.52l.09-.09c.18-.22.45-.37.57-.64a2.85 2.85 0 0 1 .57-.63c.13-.15.16-.35.33-.48s.32-.23.33-.46h.05l.57-.57c0-.28.29-.43.48-.6s.21-.37.37-.52a5.44 5.44 0 0 0 .48-.48c.08-.09.06-.24.19-.32a3.7 3.7 0 0 0 .28-.28c.15-.13.16-.35.33-.48a1 1 0 0 0 .38-.37 2.55 2.55 0 0 1 .63-.75c.12-.12.13-.31.28-.42a1 1 0 0 0 .36-.39.88.88 0 0 1 .26-.36c.12-.13.3-.23.36-.39a2.19 2.19 0 0 1 .59-.69c.15-.14.16-.35.32-.48a1.21 1.21 0 0 0 .42-.42c.14-.32.47-.47.6-.76s.43-.45.6-.7a1.85 1.85 0 0 1 .33-.46c.14-.12.31-.23.37-.39a2 2 0 0 1 .49-.6c.13-.14.15-.35.33-.47a1.12 1.12 0 0 0 .37-.38 2.68 2.68 0 0 1 .63-.75c.14-.14.16-.34.32-.47s.35-.22.35-.46c0 0 .06-.06.09-.1.18-.22.45-.36.57-.63a1.66 1.66 0 0 1 .53-.59c.15-.14.14-.35.32-.48a1.21 1.21 0 0 0 .42-.42c.13-.32.46-.47.6-.76s.45-.43.59-.7a4 4 0 0 1 .67-.79c.11-.13.12-.32.28-.43a2.05 2.05 0 0 0 .34-.32c0-.22.17-.29.29-.42s.26-.2.32-.34a2.37 2.37 0 0 1 .63-.74c.13-.14.14-.36.32-.48a1.15 1.15 0 0 0 .38-.38c.14-.28.42-.45.56-.71a2.59 2.59 0 0 1 .59-.68c.15-.14.14-.36.32-.48a1.08 1.08 0 0 0 .42-.43c.14-.32.47-.47.6-.76s.45-.43.59-.7a3.69 3.69 0 0 1 .68-.79.52.52 0 0 0 .1-.23c0-.07.15-.11.11-.21a.39.39 0 0 0-.27-.26c-.14 0-.26-.13-.39-.18s-.34-.16-.5-.25A2 2 0 0 0 93 17a2.13 2.13 0 0 1-.5-.25 3.86 3.86 0 0 1-.59-.56v-1.1a2.06 2.06 0 0 0 .21-.21c0-.06 0-.17.1-.22s.09-.28.22-.39a.57.57 0 0 0 .23-.36c0-.16.21-.24.17-.41.31-.22.33-.64.6-.89a.77.77 0 0 0 .2-.39c0-.19.23-.23.29-.42a.73.73 0 0 1 .23-.43c.16-.13.19-.33.29-.49a.79.79 0 0 0 .13-.28c0-.11.1-.14.15-.21l.09-.09c.11-.18.12-.41.29-.56a1 1 0 0 0 .27-.49c.05-.18.27-.21.29-.42a.56.56 0 0 1 .21-.37 1.19 1.19 0 0 0 .24-.46 2.79 2.79 0 0 1 .28-.42 2.28 2.28 0 0 0 .2-.45 1.57 1.57 0 0 1 .24-.37.77.77 0 0 0 .16-.29 5 5 0 0 1 .35-.47c.1-.15.15-.35.25-.49a4.37 4.37 0 0 1 .4-.44l.43-.42s.07-.07.11-.07c.21 0 .23-.27.42-.27s.19-.19.35-.13.19-.11.28-.13.36.07.49-.12h.53a.85.85 0 0 1 .49.12c.14.07.33 0 .48.13s.25 0 .37.1.24.06.32.19c.15-.06.21.11.34.14s.19.18.31.23.2.06.27.15.21.15.34.15.17.13.26.19l.38.21c.28.14.56.29.84.4s.22.21.36.27a3.65 3.65 0 0 1 .35.14 3.22 3.22 0 0 0 .56.27c.09 0 .15.16.24.22a2.29 2.29 0 0 0 .23.1 6.27 6.27 0 0 1 .88.48c.25-.05.29.32.55.28.37.27.83.39 1.2.66.26 0 .3.32.55.29 0 0 .07.06.1.09l.57.57v.05c0 .22.22.27.27.43s.08.15.11.22.23.37.17.6a2.55 2.55 0 0 1 .13 1.22.72.72 0 0 1 0 .39.43.43 0 0 0-.09.3.32.32 0 0 1-.14.34.4.4 0 0 1-.19.46c-.11.08 0 .26-.19.33 0 .14-.14.21-.15.34s-.16.2-.23.3v.05c0 .21-.22.38-.25.57s-.33.25-.29.49c-.19.22-.26.52-.45.75a2.32 2.32 0 0 0-.36.72c0 .12-.23.19-.25.3s-.11.18-.15.28a.94.94 0 0 1-.14.34c-.35.33-.39.84-.72 1.18a1.76 1.76 0 0 0-.21.38 2.19 2.19 0 0 1-.32.55 1.51 1.51 0 0 0-.22.37c-.06.13-.09.28-.16.4s-.27.18-.24.38c-.22.21-.21.56-.47.74-.1.25-.27.46-.35.73 0 .1-.15.16-.22.25s0 .16-.1.22a.31.31 0 0 1-.21.15c-.09 0-.18.12-.28.12h-.87c-.16-.19-.42-.18-.6-.34s-.26 0-.32-.19-.22-.12-.33-.18-.34-.16-.5-.25a1.84 1.84 0 0 0-.42-.29c-.07 0-.15-.13-.23-.08a.59.59 0 0 0-.2.24c0 .14.06.31-.08.44s-.08.31 0 .44-.21.24-.15.42a1.08 1.08 0 0 1 0 .4c-.22.17-.09.41-.13.62s-.17.19-.14.35a.47.47 0 0 1 0 .33c-.17.21-.09.45-.14.68s-.15.2-.12.35a.3.3 0 0 1-.13.35s0 0 0 .07c0 .18.07.39-.08.57s0 .34 0 .51-.17.19-.14.35a1.78 1.78 0 0 1 0 .4c-.2.12-.15.32-.12.48s-.16.26-.15.42a.83.83 0 0 1 0 .45.42.42 0 0 0-.09.36c.06.19-.19.24-.15.42a1.79 1.79 0 0 1 0 .4c-.21.15-.15.37-.13.55s-.2.23-.15.42a1.27 1.27 0 0 1 0 .39c-.19.13-.14.33-.11.49s-.17.25-.15.42 0 .34 0 .44A.4.4 0 0 0 99 34c0 .19-.2.24-.15.42a1.78 1.78 0 0 1 0 .4c-.23.16-.1.41-.13.62s-.18.19-.14.34 0 .26 0 .33a1.13 1.13 0 0 0-.13.69c-.2.2-.12.45-.13.68-.2.18-.14.41-.13.62s-.18.19-.15.35.06.27-.09.36v.54c-.2.12-.15.32-.12.48s-.18.29-.15.48.08.36-.11.49v.06c0 .19.07.4-.08.57s0 .35-.05.52-.18.18-.15.35.07.27-.08.36v.53c-.2.12-.15.33-.12.49s-.18.28-.15.48.08.36-.11.49v.06c0 .19.06.39-.08.57s0 .34 0 .51-.18.19-.15.35.06.27-.09.36v.54c-.19.12-.14.32-.11.48s-.4.48-.4.68.08.36-.11.48v.06c0 .19.07.4-.08.58s0 .34 0 .51-.18.19-.15.35a1.77 1.77 0 0 1 0 .4c-.28.14 0 .49-.24.64v.05c0 .2.07.4-.07.58s-.06.34-.06.51-.17.19-.14.35a2.67 2.67 0 0 1 0 .4c-.2.17-.12.4-.13.62s-.18.18-.14.34a1.78 1.78 0 0 1 0 .4c-.27.15 0 .48-.23.65v.25a1 1 0 0 1-.13.49 1.18 1.18 0 0 0 0 .46c-.19.18-.13.41-.13.62s-.18.19-.14.35a1.78 1.78 0 0 1 0 .4c-.23.16-.1.41-.13.62s-.17.19-.14.34 0 .27-.1.36a.07.07 0 0 0 0 .06c0 .19.07.4-.07.57s-.05.34-.06.51-.17.19-.14.35a2.67 2.67 0 0 1 0 .4c-.22.17-.11.41-.13.62s-.18.19-.14.35a2.67 2.67 0 0 1 0 .4c-.22.13 0 .4-.16.53s-.07.38-.11.57-.1.22-.12.34a1.88 1.88 0 0 0 0 .41c-.19.17-.13.4-.13.61s-.18.19-.14.35a2.67 2.67 0 0 1 0 .4c-.23.17-.1.41-.13.62s-.18.19-.14.35a.91.91 0 0 1 0 .33c0 .12-.16.19-.14.35a.29.29 0 0 1-.11.35s0 0 0 .06c0 .19.07.4-.07.58s0 .34-.05.51-.19.19-.15.35a1.78 1.78 0 0 1 0 .4c-.22.16-.07.42-.14.61a.83.83 0 0 0-.12.49c0 .16-.08.28-.13.41s.06.36-.13.49v.46c0 .15-.17.19-.14.35a1.78 1.78 0 0 1 0 .4c-.2.15-.14.37-.12.55s-.21.23-.15.42a1.28 1.28 0 0 1 0 .39c-.19.13-.12.32-.11.49s-.11.23-.14.35 0 .26 0 .39-.09.1-.1.16.06.39-.09.57 0 .34 0 .51-.18.19-.14.35a1.78 1.78 0 0 1 0 .4c-.22.14-.12.36-.12.55s-.21.28-.15.48a.35.35 0 0 1-.11.43s0 0 0 .05c0 .21.06.43-.11.63s.06.4-.15.54v.13c0 .04.08.41-.13.55v.39c-.15.15-.3.29-.43.44a.4.4 0 0 1-.4.17s-.08 0-.11.07-.16.05-.24.06-.15-.07-.22-.11a.33.33 0 0 0-.2 0c-.11 0-.14-.09-.21-.13s-.13 0-.18-.05a.51.51 0 0 1-.19-.32c0-.06-.11-.12-.1-.16s-.13-.27-.13-.42v-.25c0-.07.08-.06.08-.09v-.54c.19-.12.14-.32.11-.48s.19-.29.15-.49-.08-.36.11-.48v-.06c0-.21-.09-.45.13-.62 0-.19-.07-.41.14-.55v-.06c0-.19-.1-.41.09-.57v-.52c0-.17.17-.19.14-.35s0-.26 0-.33.12-.45.13-.69c.19-.17.13-.4.13-.61s.17-.19.15-.35-.07-.27.08-.37v-.54c.19-.12.15-.32.12-.48s.17-.29.15-.49-.08-.36.11-.49c0-.19-.07-.4.07-.58s0-.34.05-.51.19-.19.15-.35a1.77 1.77 0 0 1 0-.4c.28-.14 0-.48.24-.64v-.12c0-.04-.09-.41.11-.56v-.53c.2-.19.12-.45.13-.68.2-.17.13-.4.13-.62s.18-.18.15-.34a1.86 1.86 0 0 1 0-.41c.27-.16 0-.53.27-.69v-.4c0-.18.2-.28.14-.49a.34.34 0 0 1 .11-.42s0 0 0-.06c0-.19-.07-.39.08-.57s0-.34 0-.51.18-.19.14-.35a1.78 1.78 0 0 1 0-.4c.27-.14 0-.49.23-.64a.07.07 0 0 0 0-.06c0-.19-.06-.4.07-.57s0-.34.07-.51.19-.28.14-.49 0-.31.12-.41v-.07c0-.07-.07-.39.08-.57s0-.34 0-.51.17-.19.14-.35 0-.27.1-.36a.05.05 0 0 0 0-.05c0-.19-.06-.4.07-.58s0-.34.06-.51.2-.28.15-.48a.34.34 0 0 1 .12-.42s0 0 0-.06c0-.19-.07-.39.09-.57s0-.35 0-.52.17-.19.14-.35a1.7 1.7 0 0 1 0-.39c.25-.14 0-.42.19-.6s0-.38.07-.57c.19-.18.13-.41.13-.62s.18-.19.14-.35a2.67 2.67 0 0 1 0-.4c.21-.14.15-.36.12-.55s.21-.23.16-.41a1.34 1.34 0 0 1 0-.4c.22-.14 0-.4.15-.54s.09-.37.1-.56.17-.19.15-.35a1.79 1.79 0 0 1 0-.4c.2-.17.12-.41.13-.62s.18-.18.15-.35a1.75 1.75 0 0 1 0-.4c.22-.14.13-.36.12-.55s.17-.2.15-.34a.55.55 0 0 1 0-.32.64.64 0 0 0 .11-.3c0-.17-.08-.36.12-.48v-.65c.22-.17.11-.4.13-.61s.18-.19.14-.35a1.78 1.78 0 0 1 0-.4c.2-.12.15-.32.12-.48s.15-.26.15-.42a3.54 3.54 0 0 1 0-.46c.21-.14 0-.4.15-.54a.51.51 0 0 0 .08-.5c0-.19.21-.23.15-.42a1.78 1.78 0 0 1 0-.4c.23-.16.1-.41.13-.61s.17-.19.14-.35 0-.26 0-.33.1-.46.14-.69.15-.2.13-.35a.29.29 0 0 1 .12-.35s0 0 0-.06c0-.19-.07-.39.08-.57s0-.34 0-.52.18-.18.14-.35a1.71 1.71 0 0 1 0-.39c.19-.13.14-.33.11-.49s.16-.25.15-.41a3.46 3.46 0 0 1 0-.46c.25-.15 0-.5.24-.64v-.07c0-.19-.07-.39.09-.57s0-.34 0-.51.17-.19.14-.35a1.78 1.78 0 0 1 0-.4c.2-.12.14-.32.12-.48s.16-.26.14-.42a3.55 3.55 0 0 1 0-.46c.24-.15 0-.5.23-.64v-.06c0-.19-.07-.39.09-.57s0-.35 0-.52.18-.19.14-.35a2.54 2.54 0 0 1 0-.39c.19-.13.14-.33.11-.49s.19-.28.16-.48-.08-.36.11-.49v-.2c0-.07-.06-.3.08-.44s0-.29.06-.44.15-.32.12-.48.16-.3.15-.48-.09-.36.1-.5a.05.05 0 0 0 0-.05v-.53c.19-.13.1-.32.11-.49a.45.45 0 0 1 .12-.29s0-.13 0-.19 0-.14-.1-.14-.17 0-.16.06-.12.18-.14.28a5.68 5.68 0 0 1-.42.9c-.16.31-.32.63-.49.94s-.3.59-.44.89-.3.64-.47.95a6.21 6.21 0 0 1-.47.88 2 2 0 0 1-.3.67c-.11.2-.19.42-.31.62a7 7 0 0 0-.33.67l-.34.66c-.12.22-.23.45-.33.67a4.94 4.94 0 0 1-.3.61c-.15.21-.17.48-.37.66.07.18-.21.23-.14.41-.08.12-.17.24-.24.37s-.09.28-.16.4a2.57 2.57 0 0 1-.18.33c-.1.12-.08.3-.22.38 0 .17-.15.24-.17.41s-.2.24-.21.37-.2.24-.16.41c-.15.08-.12.26-.22.38a2.57 2.57 0 0 0-.18.33c-.07.12-.1.27-.17.4s-.2.24-.22.37-.16.21-.15.34-.08.24-.12.36a5.86 5.86 0 0 1-.32.67c-.12.22-.24.44-.35.66s-.2.46-.32.67-.19.42-.31.61-.22.45-.33.67-.22.45-.34.67-.28.56-.42.83-.3.59-.44.89-.28.56-.41.84-.28.55-.41.84-.29.59-.46.88-.29.55-.42.84-.32.58-.44.89c-.07.15-.13.25-.3.29a.67.67 0 0 0-.28.14c-.21.19-.45.11-.69.13-.11-.14-.31-.12-.43-.27a4.86 4.86 0 0 0 .07-.45Zm24.31-34a4.31 4.31 0 0 1-.37-.36 1.22 1.22 0 0 0-.47-.33 2.85 2.85 0 0 1-.37-.23 1.65 1.65 0 0 0-.44-.22c-.14 0-.25-.16-.39-.21s-.28-.16-.45-.21-.24-.21-.42-.29a2.85 2.85 0 0 1-.5-.24 1.71 1.71 0 0 1-.33-.17 1.77 1.77 0 0 0-.65-.38c-.13 0-.24-.21-.37-.22s-.24-.21-.41-.16a1.3 1.3 0 0 0-.57-.39 2.53 2.53 0 0 0-.63-.28c-.08-.14-.28-.1-.37-.23a1.34 1.34 0 0 0-.48-.3 2 2 0 0 1-.59-.36s-.12 0-.18 0h-.18a.31.31 0 0 0-.46 0h-.12l-.39.2c-.13.07-.1.24-.19.32s-.18.31-.29.41-.17.36-.32.48c0 .13-.12.19-.13.28s-.14.21-.2.32a1 1 0 0 0-.2.39c0 .2-.24.23-.29.42-.1.38-.46.64-.56 1a1 1 0 0 0-.32.47 4.38 4.38 0 0 1-.28.42c-.1.15-.16.34-.25.5s-.05.26-.19.32-.09.29-.24.37-.21.28-.27.43-.15.29-.21.45-.22.19-.24.37a.67.67 0 0 1-.23.37c-.13.1-.14.26-.23.38a3.85 3.85 0 0 0-.24.5c-.15.29-.12.42.18.55.09 0 .14.13.21.13a.54.54 0 0 1 .23.1c.11.07.25.08.32.2s.23.1.33.18a2.62 2.62 0 0 0 .55.29 3.07 3.07 0 0 1 .42.28c.16.09.34.16.5.25s.26.05.33.18.27.12.37.24.16.06.23 0a.15.15 0 0 1 .22-.05c.07 0 .12.13.23.11s.3.13.46.17.15.25.24.37a2.2 2.2 0 0 1 .15.26c.21 0 .25.23.42.27a5.83 5.83 0 0 1 .62.28 4.56 4.56 0 0 1 .59.38 3.81 3.81 0 0 0 .61.29 1.61 1.61 0 0 1 .58.39c.17 0 .24.16.4.17a.62.62 0 0 1 .37.23c.1.14.27.12.38.23s.18.06.27-.05.18-.38.3-.55.08-.28.22-.38a.62.62 0 0 0 .23-.37c0-.16.2-.24.16-.41v-.05a1.22 1.22 0 0 0 .36-.58c.11-.24.28-.43.4-.64s.25-.58.42-.84.32-.53.48-.8c.06-.09 0-.21.14-.29a.72.72 0 0 0 .19-.25 2.2 2.2 0 0 1 .52-.85c0-.26.25-.44.29-.69a1.17 1.17 0 0 0 .38-.65c.16-.09.11-.33.28-.42s.09-.24.19-.32 0-.35.18-.47 0-.16 0-.25.07-.3.07-.46Z" class="cls-1"/><path d="M23.45 87.57a6.13 6.13 0 0 0-.46-.44c-.13-.1-.11-.28-.23-.38a.28.28 0 0 1 0-.31c.07-.23-.16-.35-.15-.55a4.86 4.86 0 0 0 0-.54c-.22-.14-.12-.36-.12-.55s-.21-.27-.15-.48a.33.33 0 0 0-.11-.42s0 0 0-.06c0-.19.07-.4-.07-.57s0-.35-.06-.52-.18-.19-.14-.35a1.78 1.78 0 0 0 0-.4c-.23-.16-.1-.41-.13-.61s-.18-.19-.14-.35a.47.47 0 0 0 0-.33 1.12 1.12 0 0 1-.19-.71c-.2-.2-.12-.45-.13-.68-.2-.17-.13-.41-.13-.62s-.18-.19-.15-.35a1.75 1.75 0 0 0 0-.4c-.24-.16-.09-.41-.14-.61s-.17-.25-.14-.42a.58.58 0 0 0 0-.39 1.13 1.13 0 0 1-.12-.69c-.21-.2-.12-.45-.14-.69-.19-.17-.13-.4-.13-.61s-.18-.19-.14-.35a1.78 1.78 0 0 0 0-.4c-.23-.17-.1-.41-.13-.62S20 73 20 72.84s.05-.26 0-.32-.11-.42-.14-.63-.1-.23-.12-.35a2.67 2.67 0 0 1 0-.4c-.2-.17-.14-.4-.14-.61s-.18-.19-.14-.35a1.79 1.79 0 0 0 0-.4c-.22-.14-.14-.37-.13-.55s-.2-.23-.15-.42a1.84 1.84 0 0 0 0-.47c-.19-.2-.13-.44-.14-.68-.2-.2-.11-.45-.13-.68-.19-.18-.13-.41-.13-.62s-.18-.18-.14-.35a2.67 2.67 0 0 0 0-.4c-.22-.14-.12-.36-.13-.55s-.21-.27-.15-.48a.33.33 0 0 0-.1-.42.11.11 0 0 1 0-.06c0-.19.07-.4-.08-.57s0-.35-.05-.52-.18-.18-.15-.34a1.86 1.86 0 0 0 0-.41c-.21-.14-.15-.36-.13-.54s-.2-.23-.15-.42a1.34 1.34 0 0 0 0-.4c-.19-.12-.14-.32-.11-.48s-.21-.28-.15-.49a2.36 2.36 0 0 0 0-.46c-.21-.2-.11-.46-.13-.69-.2-.17-.13-.4-.13-.61s-.18-.19-.15-.35a1.34 1.34 0 0 0 0-.4c-.21-.14-.11-.36-.12-.55s-.21-.28-.15-.49a.35.35 0 0 0-.1-.42s0 0 0-.06c0-.19.07-.39-.08-.57s0-.34-.05-.51-.18-.19-.15-.35a1.79 1.79 0 0 0 0-.4c-.24-.17-.1-.41-.14-.62s-.17-.19-.14-.35a.62.62 0 0 0 0-.33c0-.1-.1-.18-.12-.28a1.29 1.29 0 0 1 0-.34c0-.16-.19-.23-.15-.41a1.84 1.84 0 0 0 0-.47c-.3-.21 0-.62-.27-.83v-.07c0-.07.08-.38-.09-.57s0-.34 0-.51-.18-.19-.14-.35 0-.26 0-.33-.1-.41-.13-.62-.1-.23-.12-.35a2.67 2.67 0 0 1 0-.4c-.2-.17-.14-.4-.14-.62s-.18-.18-.14-.35a1.75 1.75 0 0 0 0-.4c-.24-.16-.1-.41-.14-.61s-.17-.19-.14-.35a.47.47 0 0 0 0-.33.81.81 0 0 1-.12-.62c0-.16-.19-.23-.15-.42a1.84 1.84 0 0 0 0-.47c-.3-.2 0-.62-.27-.83v-.06c0-.19.08-.39-.09-.57s0-.34 0-.52-.18-.19-.14-.35 0-.25 0-.32a1.12 1.12 0 0 1-.12-.69c-.19-.18-.14-.41-.13-.62s-.18-.19-.15-.35a1.77 1.77 0 0 0 0-.4c-.21-.14-.15-.36-.13-.55s-.2-.23-.15-.41a1.34 1.34 0 0 0 0-.4c-.2-.15-.1-.37-.12-.55s-.2-.28-.15-.49a.34.34 0 0 0-.11-.42s0 0 0-.06c0-.19.06-.38-.08-.57a.78.78 0 0 1-.05-.58c0-.19-.2-.23-.15-.42a1 1 0 0 0 0-.39c-.21-.15-.11-.37-.12-.56s-.21-.27-.15-.48a.35.35 0 0 0-.1-.42s0 0 0-.06c0-.19.07-.4-.08-.57s0-.34-.05-.51-.18-.19-.15-.35a1.79 1.79 0 0 0 0-.4c-.21-.15-.15-.37-.13-.55s-.2-.23-.15-.42a1.27 1.27 0 0 0 0-.39c-.2-.13-.14-.33-.12-.49s-.19-.28-.15-.48.08-.37-.11-.49v-.06c0-.21.1-.45-.14-.62a3 3 0 0 0 0-.6c0-.16-.17-.29-.12-.48a.59.59 0 0 0-.13-.42 1.07 1.07 0 0 1 0-.4c0-.18-.2-.28-.14-.48a.33.33 0 0 0-.11-.42s0 0 0-.06c0-.19.06-.4-.08-.58s0-.34 0-.51-.19-.19-.15-.35a1.79 1.79 0 0 0 0-.4c-.24-.16-.1-.41-.14-.62s-.17-.19-.14-.34a1.71 1.71 0 0 0 0-.39c-.14-.11-.27 0-.4-.06s-.19.19-.35.14c-.17.2-.44.23-.65.36a5.5 5.5 0 0 1-.73.36c-.23.09-.43.26-.66.34a1 1 0 0 0-.26.17s-.11.1-.16.1a.45.45 0 0 0-.36.13.25.25 0 0 1-.25 0c-.12-.15-.3-.08-.41-.15s-.23-.11-.34-.18-.12-.21-.18-.32c-.31-.59-.6-1.19-.9-1.78a2.9 2.9 0 0 1-.3-.46c0-.14-.18-.25-.22-.38a1.33 1.33 0 0 0-.21-.45c-.07-.13-.13-.27-.19-.39s-.15-.3-.23-.44 0-.37-.18-.47c0-.17-.14-.3-.2-.45a2.57 2.57 0 0 0-.24-.5c-.08-.15-.15-.3-.24-.44a3 3 0 0 0-.23-.44c-.1-.13 0-.3-.13-.43s-.12-.26-.18-.39-.14-.25-.21-.38a1.53 1.53 0 0 1-.18-.39c0-.13-.2-.19-.15-.35a.3.3 0 0 1-.14-.27C.9 13 1 12.82.93 12.69s-.21-.25-.22-.38-.21-.23-.16-.41c-.15-.08-.11-.27-.23-.37a.29.29 0 0 1 0-.19c0-.17-.22-.27-.15-.48a.47.47 0 0 0-.17-.48c.07-.29-.13-.62.13-.89v-.06a1.49 1.49 0 0 1 .07-.52 5.37 5.37 0 0 1 .36-.72c.1-.16.27-.29.38-.45s0-.2.17-.22.17-.13.25-.19.16-.21.33-.21.15-.15.24-.22.22 0 .27-.14a3.48 3.48 0 0 0 1-.44c.38-.16.73-.39 1.12-.53a2.61 2.61 0 0 1 .81-.5L6 4.85l.84-.4A4.66 4.66 0 0 1 7.72 4c.09-.14.27-.12.39-.22a2.43 2.43 0 0 1 .32-.18c.12-.07.3-.07.4-.17s.23-.08.33-.17a1 1 0 0 1 .39-.19c.13 0 .19-.21.34-.15.09-.14.22-.13.36-.13h1.66c.03 0 .34 0 .47.18s.25.06.32.19.31.13.42.28a3.5 3.5 0 0 0 .38.39l.62.61a2.89 2.89 0 0 0 .33.74 6.4 6.4 0 0 0 .43.82c.09.14 0 .3.13.43s.12.26.18.39.14.25.21.38l.19.39 1.56 3.12c.27.53.53 1.08.82 1.6.07.14 0 .3.13.43s.12.26.18.39.14.25.2.38.14.26.2.39l.18.39a1.44 1.44 0 0 1 .21.38 2.08 2.08 0 0 1 0 .61.57.57 0 0 1-.13.27 1.86 1.86 0 0 1-.63.55l-.66.35c-.22.1-.46.2-.67.32l-.61.31c-.22.12-.45.22-.68.32s-.14.16-.06.25a2.66 2.66 0 0 1 .44.55c.11.21.38.33.49.54a4.39 4.39 0 0 0 .78.88c.14.14.15.35.32.48a1.06 1.06 0 0 1 .42.42 1.9 1.9 0 0 0 .59.69c.19.17.24.41.42.58s.38.28.46.47a2.64 2.64 0 0 0 .69.79c.15.16.19.39.37.53a1.3 1.3 0 0 1 .42.42 2.81 2.81 0 0 0 .73.84c.14.14.13.36.32.48a1.21 1.21 0 0 1 .42.42 3.12 3.12 0 0 0 .73.84c.14.14.15.36.32.48a1.21 1.21 0 0 1 .42.42 4.56 4.56 0 0 0 .72.85c.12.14.22.32.34.46s.33.26.41.44a3.43 3.43 0 0 0 .73.83c.16.18.23.41.42.57s.4.29.43.56c0 0 .06.06.1.09l.66.67c.08.32.39.46.57.7s.15.26.24.37a3.83 3.83 0 0 0 .28.29 1.52 1.52 0 0 1 .33.34c.15.33.48.51.66.8a5.93 5.93 0 0 0 .77.89c.09.11.15.25.24.36a2.57 2.57 0 0 0 .28.29 1.52 1.52 0 0 1 .33.34 4.26 4.26 0 0 0 .66.8 3 3 0 0 0 .34.46c.15.13.28.29.43.43s.15.35.33.47a1.15 1.15 0 0 1 .42.43 2.56 2.56 0 0 0 .68.78c.15.16.19.39.37.53a1.23 1.23 0 0 1 .42.43 2.89 2.89 0 0 0 .73.83c.14.14.13.36.32.48a1.23 1.23 0 0 1 .42.43 3.23 3.23 0 0 0 .73.83c.14.14.15.36.32.48a1.32 1.32 0 0 1 .42.43c.11.22.31.36.43.56s.21.27.18.46 0 .27 0 .4a1.14 1.14 0 0 1-.3.68 1.1 1.1 0 0 1-.68.3H37l-.93-.93c-.2-.18-.27-.44-.47-.62s-.4-.28-.44-.55c0 0-.06-.06-.09-.1l-.66-.66c-.08-.33-.39-.47-.57-.71s-.15-.25-.24-.36a2.65 2.65 0 0 0-.29-.29c-.11-.11-.26-.2-.32-.34-.15-.33-.49-.51-.66-.8a4.68 4.68 0 0 0-.78-.88c-.13-.15-.14-.36-.32-.48a1.08 1.08 0 0 1-.42-.43 2.14 2.14 0 0 0-.64-.73c-.16-.16-.2-.38-.37-.53a1.9 1.9 0 0 1-.46-.48 3.43 3.43 0 0 0-.73-.83c-.14-.15-.14-.36-.32-.48a1.08 1.08 0 0 1-.42-.43 3.9 3.9 0 0 0-.73-.84c-.16-.17-.21-.42-.42-.57a1.41 1.41 0 0 1-.47-.47 2.47 2.47 0 0 0-.58-.7c-.17-.17-.21-.42-.42-.57a1.32 1.32 0 0 1-.47-.47 2.81 2.81 0 0 0-.58-.7c-.17-.17-.22-.41-.42-.57a1.41 1.41 0 0 1-.47-.47 2.65 2.65 0 0 0-.59-.7c-.16-.17-.22-.41-.42-.56a1.61 1.61 0 0 1-.46-.48 2.85 2.85 0 0 0-.59-.7c-.17-.17-.23-.41-.42-.56a1.79 1.79 0 0 1-.47-.48 3.75 3.75 0 0 0-.62-.75c-.1-.11-.15-.25-.24-.37a3.83 3.83 0 0 0-.29-.28 1.46 1.46 0 0 1-.32-.34c-.16-.33-.49-.51-.66-.8a4.74 4.74 0 0 0-.78-.89c-.13-.14-.14-.35-.32-.47a1.15 1.15 0 0 1-.42-.43 2.29 2.29 0 0 0-.64-.74c-.16-.15-.2-.37-.37-.52a1.9 1.9 0 0 1-.46-.48 3.94 3.94 0 0 0-.73-.84c-.07-.08-.16-.14-.15-.28a.35.35 0 0 0-.16-.06.14.14 0 0 0-.08.21c.33.53.56 1.11.85 1.66.16.1 0 .29.14.42a1.52 1.52 0 0 1 .2.38 2 2 0 0 0 .19.39c.1.1.07.24.17.34s.12.26.18.39l.21.38c.07.13.13.26.19.39l1.43 2.84c.31.63.61 1.26.95 1.89 0 0 .05.08 0 .11-.06.2.17.3.14.48a1.13 1.13 0 0 0 0 .41c.06.2-.07.33-.15.47a.84.84 0 0 1-.35.37c-.15.06-.27.2-.48.16a3 3 0 0 0-.67 0 .36.36 0 0 1-.1-.07 3 3 0 0 1-.54-.59c-.11-.22-.21-.45-.32-.67q-1-2-2.05-4.05c-.05-.11 0-.22-.05-.32s-.17-.14-.13-.28a8.51 8.51 0 0 1-.53-1c-.18-.32-.31-.67-.51-1a1.31 1.31 0 0 1-.09-.26c-.09.35-.14.51 0 .65a.47.47 0 0 1 .09.37c0 .19.09.32.13.48a1.84 1.84 0 0 1 0 .47c.23.16.11.4.13.61s.18.19.15.35a1.34 1.34 0 0 0 0 .4c.19.12.14.32.11.48s.16.26.15.42a3.62 3.62 0 0 0 0 .46c.18.1.14.29.1.42s.17.3.15.48a4.86 4.86 0 0 0 0 .54c.22.16.11.4.13.61s.18.19.14.35a1.78 1.78 0 0 0 0 .4c.2.12.15.32.12.48s.16.26.15.42a1.43 1.43 0 0 0 0 .46c0 .07.1.12.1.22a.94.94 0 0 0 0 .45.51.51 0 0 1 .09.37c0 .16 0 .31.14.42s0 0 0 .06c0 .19-.1.41.09.57v.52c0 .18.17.19.14.35s-.05.25 0 .32a1.06 1.06 0 0 1 .13.69c.19.18.13.41.13.62s.18.19.14.35a2.67 2.67 0 0 0 0 .4c.24.19.12.45.12.68s.21.28.16.49-.08.31.09.42a.07.07 0 0 1 0 .06c0 .19-.06.39.07.57s.06.34.06.51.17.19.14.35a2.67 2.67 0 0 0 0 .4c.2.17.12.41.13.62s.18.18.14.35a2.54 2.54 0 0 0 0 .39c.22.15.12.37.13.56s.21.27.15.48a.34.34 0 0 0 .1.42s0 0 0 .06c0 .19-.07.4.08.57s0 .34.05.51.18.19.15.35a1.79 1.79 0 0 0 0 .4c.23.17.14.42.12.62s.17.3.16.48-.09.36.1.49a.14.14 0 0 1 0 .06c0 .19-.06.4.07.58s.06.34.06.51.18.19.15.34a1.86 1.86 0 0 0 0 .41c.22.16.12.4.13.61s.18.19.15.35a1.34 1.34 0 0 0 0 .4c.19.12.14.32.11.48s.16.26.15.42 0 .3 0 .46c.17.1.13.28.1.42s.19.34.15.55-.06.36.13.48v.07c0 .19-.07.38.09.57s.05.39 0 .58.2.23.15.42a1 1 0 0 0 .3.45c.18.13.13.33.11.49s.18.28.15.48-.08.37.11.49v.06c0 .19-.07.39.09.57s0 .35 0 .52.18.19.15.35a1.7 1.7 0 0 0 0 .39c.21.15.09.37.13.56s.1.22.12.34a1.86 1.86 0 0 1 0 .41c.21.19.11.45.13.68.2.17.13.4.14.62s.17.18.14.34a1.34 1.34 0 0 0 0 .4c.21.15.13.37.12.55s.2.23.15.42a1.84 1.84 0 0 0 0 .47c.2.2.12.45.14.68.19.17.13.4.13.62s.17.19.14.35a1.75 1.75 0 0 0 0 .4c.21.14.15.36.13.54s.2.23.15.42a1.78 1.78 0 0 0 0 .4c.2.12.15.32.12.48s.19.28.15.49-.08.36.11.48v.06c0 .19-.07.4.08.58s0 .34.05.51.18.19.14.35a1.78 1.78 0 0 0 0 .4c.21.14.12.36.12.55s.2.23.15.42a1.76 1.76 0 0 0 0 .46c.21.2.12.45.14.69.19.17.13.4.13.61s.18.19.14.35a1.78 1.78 0 0 0 0 .4c.23.17.1.41.13.62s.17.19.14.35a.47.47 0 0 0 0 .33 1.09 1.09 0 0 1 .13.68c.2.2.12.45.13.69.2.17.13.4.13.61s.18.19.15.35a1.79 1.79 0 0 0 0 .4c.24.17.1.41.13.62s.18.19.14.35 0 .26 0 .32a.88.88 0 0 1 .12.63c0 .16.19.23.15.41a1.85 1.85 0 0 0 0 .47c.3.21 0 .62.27.83v.07c0 .18-.08.38.09.57s0 .34 0 .51.17.19.14.35-.05.26 0 .33.11.41.14.62.1.23.12.35a2.67 2.67 0 0 1 0 .4c.2.17.13.41.14.62s.17.18.14.35a1.75 1.75 0 0 0 0 .4c.2.12.13.31.14.48a2.46 2.46 0 0 0 0 .47c.05.2-.07.33-.14.48a.79.79 0 0 1-.42.38c-.26.11-.25.13-.42.13ZM6.66 19.21c.15.05.19-.1.29-.12a2.91 2.91 0 0 0 .62-.29c.22-.11.45-.22.66-.34l.61-.31c.22-.13.46-.19.67-.32s.41-.2.61-.32.47-.18.67-.31.45-.23.67-.35a6.9 6.9 0 0 1 .67-.32l.66-.35.67-.32c.4-.21.8-.43 1.22-.62s.81-.42 1.22-.6.29-.27.16-.53-.13-.26-.2-.38-.14-.3-.22-.45-.11-.27-.18-.39-.12-.32-.25-.44c0-.16-.19-.23-.15-.4-.15-.11-.11-.33-.27-.43.05-.17-.2-.23-.15-.41-.2-.09-.08-.31-.18-.46a2.62 2.62 0 0 1-.29-.55c-.1-.2-.23-.4-.31-.6s-.31-.64-.46-.95l-.48-1c-.16-.31-.32-.62-.47-.94s-.31-.63-.47-1a.87.87 0 0 0-.39-.41c-.14-.07-.27-.22-.47-.15a.61.61 0 0 1-.27 0c-.21-.07-.38.07-.54.15s-.41.2-.61.31-.43.39-.7.44l-.62.29a3.24 3.24 0 0 0-.66.36c-.22 0-.3.22-.47.3l-.5.25c-.22.09-.41.2-.62.29s-.44.23-.67.34-.4.22-.6.31l-.62.29-.66.35-.58.31c-.34.19-.34.18-.45.56 0 .06-.09.1-.1.16s0 .24 0 .31a.33.33 0 0 1 .1.29c0 .17.08.29.14.42s.14.3.22.44.11.27.19.39a1.45 1.45 0 0 0 .24.44c0 .17.19.24.16.4.21.1.07.33.17.47s.14.3.23.44.15.3.24.44a2.1 2.1 0 0 1 .24.5c.05.16.21.27.19.46.22.09.06.33.19.45s.08.24.19.34a.53.53 0 0 1 .15.33c0 .14.2.19.14.34.13.08.1.24.19.32s.06.25.18.34 0 .23.09.36c.35.66.65 1.25.96 1.87Zm41.63-3.75-.6-.61v-3.52c0-.16-.06-.34.1-.49s0-.21 0-.32V8.3c0-.43-.13-.87.12-1.29V4c0-.22-.07-.44.07-.65s0-.38.06-.57c.24-.1 0-.39.23-.52s0-.25.09-.36a.66.66 0 0 0 .25-.36c0-.14.26-.19.24-.38.13-.11.21-.28.39-.34a.65.65 0 0 0 .16-.09c.15-.11.24-.32.47-.33.1-.22.4 0 .51-.24h.38c.08 0 .41-.12.63-.12H60c.14 0 .31-.07.43.08s.3 0 .42.13.36 0 .46.19c.17 0 .23.19.4.15a1.4 1.4 0 0 0 .42.3 1.11 1.11 0 0 1 .33.32c.14.17.2.38.37.52a3.35 3.35 0 0 0 .39.78s0 0 0 .06c0 .17-.07.36.13.48v4.68c0 .27.13.57-.12.82-.05.06 0 .22 0 .33v5.37c0 .17 0 .36-.14.48a.64.64 0 0 1-.12.42c-.08.17-.15.28-.35.32s-.28.2-.43.25a1.84 1.84 0 0 1-.47 0h-2.11c-.09 0-.17.15-.1.19s.05.44.26.57c-.06.23.19.39.14.61.15.14.1.32.14.48a3 3 0 0 0 .18.53 1.27 1.27 0 0 1 .09.3c0 .1.13.2.12.28s.16.27.14.42.22.33.14.55.19.28.13.48.18.19.13.35.11.19.13.28a.83.83 0 0 0 .13.42c.07.08 0 .24.11.35s0 .31.15.42 0 .12 0 .18a.45.45 0 0 0 .11.36c.06.06 0 .24.07.3s0 .27.1.36a.69.69 0 0 1 .13.36c0 .09.09.18.12.28s0 .17.06.25a.3.3 0 0 1 .08.16c0 .15 0 .3.11.43s0 .31.15.41c-.07.23.17.38.15.61s.09.18.13.28 0 .18.05.24a.24.24 0 0 1 .08.24v.25c0 .02 0 .35.19.47s0 .28.09.36.06.25.12.36a.71.71 0 0 1 .13.35c0 .09.09.18.12.28s0 .18.06.25a.25.25 0 0 1 .08.23v.26c0 .03 0 .35.18.46s0 .28.1.36.06.26.11.36a1.35 1.35 0 0 1 .14.35c0 .16.17.29.12.48s.23.28.13.48a.7.7 0 0 1 .16.48c.19.09.05.3.15.4a.44.44 0 0 1 .1.3v.86l-.64.63h-.37c-.1.09-.17.24-.33.08a.69.69 0 0 1-.56-.28c-.12-.17-.35-.27-.38-.52 0 0-.08-.1-.1-.16s0-.28-.05-.37a.73.73 0 0 1-.09-.31 2.28 2.28 0 0 0-.13-.28v-.24c0-.06-.06-.2-.09-.3s-.11-.19-.12-.29-.23-.43-.14-.68a.45.45 0 0 1-.14-.41c-.22-.09 0-.35-.18-.46s0-.32-.14-.41 0-.37-.19-.47v-.19a.45.45 0 0 0-.11-.36c-.06-.06 0-.24-.07-.3s0-.26-.1-.36a.63.63 0 0 1-.13-.35 1 1 0 0 0-.13-.28c0-.08 0-.18-.06-.25s0-.27-.1-.35a.37.37 0 0 1-.1-.36c0-.2-.2-.29-.15-.49s-.15-.23-.14-.41-.18-.29-.12-.48c-.17-.1-.11-.27-.15-.41s-.15-.11-.12-.22-.16-.43-.15-.68-.13-.2-.13-.35-.11-.18-.12-.28 0-.26-.14-.35c.09-.25-.2-.42-.14-.68s-.19-.33-.14-.54c-.21-.09 0-.34-.19-.46s0-.37-.19-.46c.09-.23-.18-.38-.15-.61s-.18-.24-.13-.41-.11-.24-.12-.35a1.48 1.48 0 0 0-.14-.42c0-.12 0-.26-.13-.35.07-.23-.15-.38-.16-.61s-.17-.29-.12-.48-.22-.28-.13-.48c-.17-.24-.15-.56-.37-.81a1.76 1.76 0 0 0 0 .6c0 .19-.09.41.12.56v.93c.26.21.1.5.13.75a.66.66 0 0 1 0 .39 1.72 1.72 0 0 1-.39.51c-.08.07-.19.06-.28.13s-.34 0-.46.18a.08.08 0 0 1-.07 0 .49.49 0 0 0-.41-.14c-.11-.14-.32-.12-.43-.26a1 1 0 0 1-.24-.38c0-.05-.08-.1-.09-.16-.06-.25.12-.54-.14-.75a5.93 5.93 0 0 1 0-.73c0-.19-.13-.27-.15-.42s.06-.27-.05-.38c-.16.08 0 .26-.1.35a.32.32 0 0 0-.11.29v.19c0 .02-.09.33-.16.48s-.08.06-.09.09.06.33-.06.45a.37.37 0 0 0-.08.37c0 .16-.16.2-.14.34s-.16.38-.15.62-.16.38-.13.62c0 .08-.15.14-.12.28a.2.2 0 0 1-.09.23s0 0 0 .05.06.32-.06.44a.37.37 0 0 0-.07.37c0 .16-.16.21-.15.35s-.16.38-.15.62-.16.38-.12.61-.16.15-.13.28a.2.2 0 0 1-.08.23s0 0 0 .05.07.33 0 .45a.37.37 0 0 0-.08.37c0 .16-.16.2-.14.34s-.22.39-.13.62a1.21 1.21 0 0 0-.15.62c0 .08-.16.14-.12.28a.2.2 0 0 1-.09.23.07.07 0 0 0 0 .05c0 .15.06.32-.06.44a.37.37 0 0 0-.07.37c0 .16-.17.21-.15.35s-.21.38-.13.62a1.15 1.15 0 0 0-.14.61c0 .09-.16.15-.13.28a.2.2 0 0 1-.08.23s0 0 0 .05.06.33-.05.45a.37.37 0 0 0-.08.37c0 .17-.2.23-.15.41a.38.38 0 0 1-.09.37c-.1.09-.1.27-.18.39a.58.58 0 0 1-.22.22c-.11.07-.26.07-.34.15s-.46.1-.69.13c-.1-.15-.31-.13-.43-.27a4.67 4.67 0 0 0-.46-.44v-.72c0-.23-.08-.36.1-.49l.05-.45c.21-.09 0-.34.19-.46a.2.2 0 0 0 .06-.11c0-.14-.06-.31.08-.44s0-.25.06-.37.19-.3.13-.48a.35.35 0 0 0 .13-.42c0-.16.15-.2.15-.35s0-.3.1-.43 0-.26.1-.36a.17.17 0 0 0 .06-.1c0-.15-.07-.31.08-.44s0-.25 0-.38.18-.19.14-.35a.49.49 0 0 1 .12-.42c.07-.08 0-.26.11-.35a.12.12 0 0 0 0-.12c-.06-.29.24-.52.14-.82a.49.49 0 0 0 .14-.41c.16-.13.13-.31.13-.48s.18-.19.14-.35a.47.47 0 0 1 .12-.42c.06-.09 0-.26.11-.36s0-.08 0-.12c-.07-.29.23-.52.14-.81a.5.5 0 0 0 .13-.42c.17-.12.14-.31.13-.48s.19-.19.14-.35a.52.52 0 0 1 .12-.42c.07-.09 0-.26.12-.35a.21.21 0 0 0 0-.12c-.07-.29.23-.52.13-.82.18-.11.11-.31.17-.46s.09-.07.09-.1a1.76 1.76 0 0 1 0-.4c0-.09.15-.15.13-.28s0-.24 0-.26c.21-.11 0-.35.19-.47s.07-.2.07-.3a.11.11 0 0 0-.07-.1s-.08 0-.13 0h-2.86a1.84 1.84 0 0 0-.47 0c-.18 0-.27-.13-.42-.14a1.21 1.21 0 0 0-.19-.04ZM60.38 2.57a2.65 2.65 0 0 1-.64 0 1.64 1.64 0 0 0-.41-.12h-7.85c-.2-.09-.33.09-.47.15a.69.69 0 0 0-.38.42c-.05.14-.17.27-.12.42s-.17.24-.14.42a4 4 0 0 1 0 .6v1.86a3 3 0 0 0 0 .6c.06.24-.18.38-.15.62a4 4 0 0 1 0 .6v2.48c0 .13 0 .3-.09.44s0 .25 0 .38v1.41c0 .1 0 .22.06.32h7.68c.11.17.28.1.43.11h2.5a.43.43 0 0 0 .05-.15V9.4a3.75 3.75 0 0 0 0-.67c0-.21.23-.33.14-.55V3.56c0-.11.05-.23-.06-.31s-.06-.25-.18-.33a2.93 2.93 0 0 1-.37-.35Zm-5.04 59.49h-1.41c-.19 0-.4 0-.55-.14h-.6c-.13 0-.19-.17-.35-.14a.32.32 0 0 1-.36-.1s-.12 0-.19 0a.45.45 0 0 1-.36-.12c-.06-.06-.24 0-.3-.06s-.27 0-.36-.1a.49.49 0 0 0-.36-.13h-.06c-.1-.23-.35-.09-.52-.23a6.87 6.87 0 0 0-.72-.35 3.88 3.88 0 0 1-.66-.36c-.19 0-.23-.22-.36-.23s-.25-.15-.4-.19-.22-.21-.35-.3-.32-.13-.41-.29a1.42 1.42 0 0 1-.61-.47c-.13-.13-.24-.31-.39-.37a.93.93 0 0 1-.36-.25c-.14-.14-.33-.24-.38-.44s-.23-.27-.34-.4-.29-.28-.42-.44-.1-.27-.24-.37-.2-.27-.29-.41a1.81 1.81 0 0 1-.24-.37c-.06-.13-.22-.19-.24-.37s-.22-.19-.26-.36-.23-.29-.24-.44-.22-.23-.16-.41c-.15-.07-.09-.28-.23-.37a1.37 1.37 0 0 0-.29-.69c.06-.25-.22-.42-.15-.67a.38.38 0 0 1-.13-.42c.06-.18-.2-.23-.14-.41a.29.29 0 0 0-.1-.36.11.11 0 0 1 0-.06c0-.16.08-.36-.11-.49v-.52c0-.15 0-.31-.11-.43s0-.17 0-.26V46.9c-.11-.2.16-.29.14-.48a4.68 4.68 0 0 1 0-.53c.22-.17.11-.41.13-.62s.17-.19.14-.35-.05-.27.09-.36a.13.13 0 0 0 0-.12c-.08-.25.18-.43.13-.68a1.27 1.27 0 0 0 .25-.43 2.44 2.44 0 0 1 .15-.48c.05-.14.18-.24.15-.41s.13-.2.15-.34.17-.24.22-.38 0-.21.15-.27.12-.22.19-.33.07-.2.15-.27.25-.46.47-.61c0-.3.35-.39.46-.61a4.53 4.53 0 0 1 .92-1c.32-.35.66-.67 1-1 .12-.13.31-.14.42-.28s.26-.25.38-.38c.2 0 .24-.2.37-.23s.28-.24.42-.29.3-.14.46-.2c.33-.13.56-.44.92-.52.09-.15.25-.06.36-.11a1.83 1.83 0 0 1 .28-.14 1.63 1.63 0 0 0 .38-.22c.12-.08.29 0 .42-.14s.3 0 .4-.15h.06c.14 0 .31.06.44-.08s.25 0 .38-.05.18-.18.34-.15a.32.32 0 0 0 .37-.09s.12 0 .18 0c.28 0 .57.09.82-.13h2.68c.17 0 .36-.08.5.11h.79c.17.19.4.12.62.13s.23.19.41.14a.31.31 0 0 1 .35.13c.19-.07.33.14.48.12s.29.21.48.15.11 0 .12 0 .25.08.33.19.28 0 .36.1.24.07.34.18.22.1.32.17.24.09.34.15a2.11 2.11 0 0 0 .34.16c.11 0 .15.23.3.24s.2.18.35.14a4.25 4.25 0 0 0 .7.57c.11.11.28.09.38.23s.24.21.32.34.3.17.42.28a3.64 3.64 0 0 1 .34.34 4.36 4.36 0 0 1 .6.68 3.5 3.5 0 0 0 .58.64c.11.11.11.27.24.37a.53.53 0 0 1 .25.37c0 .1.23.19.24.29s.22.23.26.37a2.31 2.31 0 0 0 .21.45c.08.12.07.3.22.38.09.34.33.62.44 1 .2.11 0 .42.23.51 0 .18.2.28.14.48s.1.18.12.28 0 .17.07.24a.26.26 0 0 1 .07.11c0 .16-.07.36.12.48v.47c0 .16.18.23.14.41a1.08 1.08 0 0 0 0 .4c0 .15.18.24.14.42a1.78 1.78 0 0 0 0 .4v.87a.51.51 0 0 0 .1.24c0 .08.07.25 0 .3a.45.45 0 0 0-.12.36 4 4 0 0 1 0 .6c0 .32.1.66-.13 1v.47c-.19.17-.12.4-.13.61s-.2.24-.14.42a.3.3 0 0 1-.13.34c.07.19-.14.33-.12.48s-.2.3-.15.49a.17.17 0 0 1 0 .12c-.08.13-.21.24-.22.37s-.19.22-.16.34-.09.28-.15.42a1.1 1.1 0 0 1-.28.49.45.45 0 0 0-.11.15c-.1.16-.11.38-.27.49s-.13.31-.28.43-.14.27-.25.35-.11.28-.23.39a1.43 1.43 0 0 0-.32.33 8.28 8.28 0 0 1-1.3 1.41c-.14.15-.24.39-.5.38l-.48.48c-.09.09-.26 0-.32.19s-.22.12-.33.19-.18.16-.3.23-.42.28-.65.39-.45.21-.67.33l-.66.34a.79.79 0 0 1-.28.13c-.14 0-.19.2-.35.14s-.19.12-.28.13a.9.9 0 0 0-.42.13c-.1.05-.25 0-.35.12a.29.29 0 0 1-.19 0c-.17 0-.28.1-.42.13a2.36 2.36 0 0 1-.46 0c-.22.23-.51.08-.75.14s-.29.16-.49.13a3.13 3.13 0 0 0-.53 0h-1Zm1.5-2.42a.89.89 0 0 1 .26-.13h.6a.31.31 0 0 1 .35-.13c.15 0 .25-.13.35-.12s.41-.14.61-.13.25-.21.42-.15c.09-.23.32-.09.46-.18a2.92 2.92 0 0 1 .5-.25c.14 0 .25-.2.38-.21s.24-.17.4-.18.18-.24.36-.26.19-.21.3-.23a.66.66 0 0 0 .37-.25c.1-.13.26-.15.37-.24s.42-.41.62-.61l.62-.62c.2-.22.49-.38.57-.7a3 3 0 0 0 .52-.66c.09-.11.13-.28.24-.36s.14-.26.22-.39.19-.41.32-.6.11-.37.26-.5c-.07-.21.13-.35.16-.54s.16-.15.12-.28.15-.2.14-.35a.74.74 0 0 1 .12-.49c.08-.13-.06-.35.13-.48v-.53c.17-.12.14-.31.14-.48v-2.42a1.23 1.23 0 0 0-.05-.52.86.86 0 0 1-.09-.43c0-.15 0-.3-.08-.44s0-.3-.06-.45c-.18-.11 0-.37-.19-.46 0-.2-.15-.36-.15-.54s-.16-.23-.14-.34-.09-.29-.15-.42-.16-.33-.25-.5a2.39 2.39 0 0 0-.3-.54A1.83 1.83 0 0 1 65 42c-.07-.15-.29-.24-.35-.39a.92.92 0 0 0-.3-.41c-.16-.11-.13-.32-.28-.43a4.26 4.26 0 0 1-.43-.42l-.43-.43c-.14-.14-.29-.28-.42-.43s-.37-.13-.47-.33-.34-.17-.47-.33a.46.46 0 0 0-.27-.15c-.09 0-.15-.17-.24-.22a1.83 1.83 0 0 0-.28-.14.54.54 0 0 1-.32-.2c-.1-.12-.29-.08-.38-.23-.19.08-.32-.08-.48-.13a1.41 1.41 0 0 1-.38-.21c-.14-.11-.37 0-.46-.19-.15 0-.31 0-.41-.14a.88.88 0 0 1-.56-.12c-.12-.09-.35.07-.48-.12h-.85a.41.41 0 0 0-.36-.11h-2.33c-.04 0-.24.09-.36.11s-.35-.06-.51.07-.39 0-.58.06a.07.07 0 0 0-.05 0c-.09.15-.28 0-.35.1a.54.54 0 0 1-.43.13s-.11 0-.12 0-.23.11-.34.18-.27.08-.4.15c-.37.19-.76.34-1.11.56-.09.06-.2 0-.28.15a.32.32 0 0 1-.27.16c-.09 0-.14.17-.28.13a1.77 1.77 0 0 1-.5.39c-.18.07-.28.29-.44.41a2.71 2.71 0 0 0-.51.38 2.9 2.9 0 0 1-.53.52c-.18.14-.2.38-.37.53a1.33 1.33 0 0 0-.44.55c0 .11-.19.18-.27.29a1.38 1.38 0 0 0-.18.39c0 .14-.2.19-.25.3-.17.45-.42.85-.62 1.29-.14.09 0 .29-.1.35s0 .35-.18.47 0 .37-.19.46c0 .18-.09.32-.14.48s.09.45-.14.61v.4a.66.66 0 0 1-.12.43c-.06.1 0 .26 0 .39v1.21a4 4 0 0 1 0 .6 1.65 1.65 0 0 0 .14.55c0 .25-.08.53.14.75a2.67 2.67 0 0 1 0 .4c0 .15.17.19.15.35a.36.36 0 0 0 .12.42c0 .15 0 .31.14.41-.07.17.2.23.14.41s.15.24.16.41.21.24.21.37.22.23.16.41a.56.56 0 0 1 .15.27c0 .09.1.18.14.28s.21.19.24.3a.46.46 0 0 0 .18.26c.11.07.06.2.14.28a3.28 3.28 0 0 1 .58.7 1.9 1.9 0 0 0 .42.43l.47.48.43.42c.26 0 .34.26.51.38h.06c.19 0 .23.22.36.24s.29.19.42.3c.18-.06.24.2.41.14a1.28 1.28 0 0 0 .46.34c.2.07.37.22.6.19.08.15.27.11.37.23s.32 0 .41.14.35 0 .47.17c.17-.05.28.09.42.13s.36-.06.48.13a4.69 4.69 0 0 0 .53 0c.2 0 .33.24.55.14Z" class="cls-1"/></g></g></svg>