<svg xmlns="http://www.w3.org/2000/svg" viewBox="0 0 101 100.5"><defs><style>.cls-1{fill:#00003f}</style></defs><g id="Layer_2" data-name="Layer 2"><g id="Layer_1-2" data-name="Layer 1"><path d="m45.71 3.24-2.14-.3A3.4 3.4 0 0 1 44.82.62 3.44 3.44 0 0 1 47.4 0l-.29 2.14a1.41 1.41 0 0 0-1 .16 1.33 1.33 0 0 0-.4.94ZM55.34 3.59c0-1.24-.62-1.39-1.21-1.38V.05h.06a3.24 3.24 0 0 1 3.31 3.51Z" class="cls-1"/><path d="M54.61 2.21 47 2.19a1.09 1.09 0 0 1-1.12-1.09A1.07 1.07 0 0 1 47 0h7.65a1.08 1.08 0 0 1 0 2.16ZM56.22 14.08A1.08 1.08 0 0 1 55.14 13l.19-9.87a1.08 1.08 0 0 1 1.08-1.06 1.08 1.08 0 0 1 1.06 1.1L57.3 13a1.08 1.08 0 0 1-1.08 1.08Z" class="cls-1"/><path d="m56.22 14.2-11.94-.15A1.09 1.09 0 0 1 43.2 13a1.07 1.07 0 0 1 1.1-1.07l11.94.07a1.08 1.08 0 0 1 0 2.16Z" class="cls-1"/><path d="M44.28 14.05a1.08 1.08 0 0 1-1-1.12L43.56 3a1.08 1.08 0 0 1 2.16.08L45.36 13a1.08 1.08 0 0 1-1.08 1.05ZM90.29 6.31 88.55 5a3.19 3.19 0 0 1 4.75-.72L92 6.05a1.07 1.07 0 0 0-1.71.26ZM100.49 12.23l-1.91-1c.57-1.09.11-1.52-.41-1.79l1-1.92a3.24 3.24 0 0 1 1.32 4.71Z" class="cls-1"/><path d="M99.11 9.8a1.11 1.11 0 0 1-.52-.13L91.88 6a1.08 1.08 0 0 1-.42-1.47 1.07 1.07 0 0 1 1.46-.42l6.71 3.67a1.08 1.08 0 0 1-.52 2ZM94.85 21a1.17 1.17 0 0 1-.54-.14 1.08 1.08 0 0 1-.4-1.48l4.89-8.58a1.08 1.08 0 0 1 1.88 1.07l-4.89 8.58a1.09 1.09 0 0 1-.94.55Z" class="cls-1"/><path d="M94.79 21.1a1.13 1.13 0 0 1-.53-.14l-10.41-5.84a1.08 1.08 0 0 1 1.06-1.88l10.41 5.84a1.08 1.08 0 0 1-.53 2Z" class="cls-1"/><path d="M84.38 15.26a1.08 1.08 0 0 1-.93-1.63l5-8.53A1.07 1.07 0 0 1 90 4.73a1.08 1.08 0 0 1 .38 1.48l-5 8.52a1.08 1.08 0 0 1-1 .53ZM.24 10.33A3.17 3.17 0 0 1 2.32 6L3 8a1.06 1.06 0 0 0-.76 1.58ZM11 5.53c-.58-1.09-1.19-1-1.7-.68l-1-1.91a3.25 3.25 0 0 1 4.63 1.57Z" class="cls-1"/><path d="M2.41 8.23a1.08 1.08 0 0 1-.49-2l6.82-3.52a1.08 1.08 0 0 1 1 1.93L2.91 8.11a1.11 1.11 0 0 1-.5.12ZM16.09 14.58a1.08 1.08 0 0 1-1-.6L10.77 5.1a1.08 1.08 0 0 1 1.94-.95L17.06 13a1.08 1.08 0 0 1-.5 1.44 1 1 0 0 1-.47.14Z" class="cls-1"/><path d="M5.45 20a1.07 1.07 0 0 1-1-.6A1.08 1.08 0 0 1 5 18l10.69-5.32a1.08 1.08 0 1 1 1 1.93L5.93 19.89a1 1 0 0 1-.48.11Z" class="cls-1"/><path d="M5.45 20a1.09 1.09 0 0 1-1-.63l-4.2-9a1.08 1.08 0 1 1 2-.92l4.21 9a1.09 1.09 0 0 1-1 1.54ZM77.93 83.93h-.22a1.09 1.09 0 0 1-.84-1.28l13.29-64.37a1.08 1.08 0 1 1 2.11.44L79 83.07a1.07 1.07 0 0 1-1.07.86ZM25.26 100.5a1.39 1.39 0 0 1-1.35-1l-2.29-8.72a1.4 1.4 0 0 1 2.71-.78l2.28 8.72a1.4 1.4 0 0 1-1 1.71 1.34 1.34 0 0 1-.35.07ZM75 100.5a1.58 1.58 0 0 1-.38 0 1.4 1.4 0 0 1-1-1.73l2.5-8.77a1.4 1.4 0 0 1 2.69.76l-2.46 8.72A1.4 1.4 0 0 1 75 100.5ZM22.55 83.93a1.09 1.09 0 0 1-1.06-.87L8.88 19a1.06 1.06 0 0 1 .85-1.26 1.08 1.08 0 0 1 1.27.85l12.61 64.05a1.08 1.08 0 0 1-.85 1.27ZM39.91 49.3a1.1 1.1 0 0 1-.83-.38l-26.67-31.5A1.08 1.08 0 0 1 14.06 16l26.67 31.52a1.08 1.08 0 0 1-.13 1.53 1 1 0 0 1-.69.25ZM39.4 39.93a1.33 1.33 0 0 1-.28 0 1.09 1.09 0 0 1-.76-1.33l9.4-25.69a1.08 1.08 0 1 1 2.08.57l-9.39 25.66a1.08 1.08 0 0 1-1.05.79ZM61.2 40.67a1.09 1.09 0 0 1-1-.76L51.58 14a1.08 1.08 0 1 1 2.06-.65l8.58 25.92a1.07 1.07 0 0 1-.7 1.35.93.93 0 0 1-.32.05ZM58.45 52.35a1 1 0 0 1-.68-.25 1.08 1.08 0 0 1-.15-1.52l28.7-34.8A1.08 1.08 0 0 1 88 17.16L59.29 52a1.13 1.13 0 0 1-.84.35ZM73.18 84.62h-46a1.4 1.4 0 0 1-1.4-1.4v-6.86a12.5 12.5 0 0 1 3.68-8.89l5.89-5.88A9.33 9.33 0 0 1 42 58.84h16.39A9.35 9.35 0 0 1 65 61.59l5.88 5.88a12.45 12.45 0 0 1 3.68 8.89v6.86a1.39 1.39 0 0 1-1.38 1.4Zm-44.57-2.79h43.18v-5.47a9.73 9.73 0 0 0-2.87-6.92L63 63.56a6.55 6.55 0 0 0-4.65-1.93H42a6.58 6.58 0 0 0-4.66 1.93l-5.88 5.88a9.72 9.72 0 0 0-2.86 6.92v5.47Z" class="cls-1"/><path d="M50.2 55.89A12.9 12.9 0 1 1 63.09 43 12.91 12.91 0 0 1 50.2 55.89Zm0-23A10.1 10.1 0 1 0 60.29 43 10.11 10.11 0 0 0 50.2 32.9ZM82.38 84.61h-65a1.08 1.08 0 1 1 0-2.16h65a1.08 1.08 0 0 1 0 2.16ZM56.84 91.25H17.22a1.08 1.08 0 0 1 0-2.16h39.62a1.08 1.08 0 0 1 0 2.16ZM82.44 91.17H63.37a1.08 1.08 0 1 1 0-2.16h19.07a1.08 1.08 0 0 1 0 2.16Z" class="cls-1"/><path d="M82.53 91.08a1.09 1.09 0 0 1-.83-1.78 3.88 3.88 0 0 0 0-5 1.08 1.08 0 0 1 1.73-1.29 6.06 6.06 0 0 1 .08 7.44 1.57 1.57 0 0 1-.2.25 1.15 1.15 0 0 1-.78.38ZM17.1 91.16a1.16 1.16 0 0 1-1-.59 6 6 0 0 1 .07-7.43 1.08 1.08 0 1 1 1.73 1.28 3.87 3.87 0 0 0 0 5 1.1 1.1 0 0 1-.1 1.51 1.2 1.2 0 0 1-.7.23Z" class="cls-1"/></g></g></svg>