<svg width="101" height="101" fill="none" xmlns="http://www.w3.org/2000/svg"><g opacity=".3" fill="#00003F"><path d="m45.71 3.472-2.138-.295c.137-1.003.571-1.806 1.255-2.321.68-.516 1.572-.714 2.575-.577l-.294 2.139c-.295-.04-.706-.046-.978.16-.275.208-.379.602-.42.894Zm9.633.351c-.018-1.232-.625-1.39-1.21-1.38L54.1.284h.064c1.999 0 3.304 1.372 3.337 3.508l-2.158.03Z"/><path d="M54.611 2.446h-.002l-7.651-.023a1.08 1.08 0 0 1 .002-2.16h.003l7.65.024a1.08 1.08 0 0 1-.002 2.159Zm1.613 11.874h-.02a1.08 1.08 0 0 1-1.06-1.1l.19-9.875a1.08 1.08 0 0 1 1.08-1.06h.02a1.08 1.08 0 0 1 1.06 1.1l-.19 9.876a1.081 1.081 0 0 1-1.08 1.06Z"/><path d="M56.224 14.435h-.013l-11.938-.15a1.08 1.08 0 0 1-1.067-1.092 1.07 1.07 0 0 1 1.095-1.067l11.938.15a1.08 1.08 0 0 1 1.067 1.092 1.085 1.085 0 0 1-1.082 1.067Z"/><path d="M44.285 14.285h-.038a1.08 1.08 0 0 1-1.041-1.117l.353-9.9a1.08 1.08 0 1 1 2.16.076l-.354 9.9a1.081 1.081 0 0 1-1.08 1.041Zm46.003-7.737-1.737-1.283c1.221-1.658 3.086-1.938 4.75-.713l-1.283 1.737c-.699-.513-1.217-.434-1.73.26Zm10.204 5.922-1.913-1.007c.574-1.09.117-1.516-.404-1.79l1.006-1.913c1.804.947 2.317 2.796 1.311 4.71Z"/><path d="M99.113 10.036c-.175 0-.353-.044-.518-.132l-6.709-3.678a1.079 1.079 0 1 1 1.04-1.893l6.708 3.678a1.078 1.078 0 0 1-.521 2.025Zm-4.265 11.199a1.08 1.08 0 0 1-.937-1.616l4.892-8.58a1.08 1.08 0 0 1 1.877 1.07l-4.892 8.58c-.2.35-.564.546-.94.546Z"/><path d="M94.792 21.336a1.1 1.1 0 0 1-.528-.137l-10.412-5.842a1.08 1.08 0 1 1 1.056-1.885l10.412 5.842a1.08 1.08 0 0 1-.528 2.022Z"/><path d="M84.38 15.494a1.08 1.08 0 0 1-.927-1.63l5.045-8.522a1.08 1.08 0 1 1 1.86 1.102l-5.045 8.522a1.09 1.09 0 0 1-.933.528ZM.24 10.569c-.684-1.943.134-3.643 2.083-4.326l.716 2.037c-.818.287-1.047.76-.76 1.573l-2.04.716Zm10.765-4.806c-.58-1.087-1.19-.95-1.707-.676L8.282 3.18c1.795-.955 3.614-.34 4.628 1.567l-1.905 1.016Z"/><path d="M2.417 8.468a1.08 1.08 0 0 1-.49-2.042l6.815-3.475a1.079 1.079 0 0 1 1.453.473c.271.53.06 1.18-.473 1.453L2.907 8.35a1.095 1.095 0 0 1-.49.117Zm13.673 6.351c-.4 0-.783-.224-.97-.605L10.775 5.34a1.08 1.08 0 0 1 1.94-.95l4.344 8.873a1.08 1.08 0 0 1-.97 1.555Z"/><path d="M5.455 20.244a1.08 1.08 0 0 1-.483-2.047l10.689-5.322a1.08 1.08 0 1 1 .963 1.933L5.934 20.13a1.076 1.076 0 0 1-.48.114Z"/><path d="M5.455 20.244c-.407 0-.795-.229-.978-.622l-4.21-8.967a1.082 1.082 0 0 1 1.957-.92l4.209 8.967a1.082 1.082 0 0 1-.978 1.542Zm72.473 63.921a1.078 1.078 0 0 1-1.057-1.298L90.163 18.52a1.078 1.078 0 1 1 2.113.437L78.985 83.304a1.08 1.08 0 0 1-1.056.861Zm-52.666 16.574a1.4 1.4 0 0 1-1.351-1.044l-2.286-8.72a1.396 1.396 0 1 1 2.702-.706l2.286 8.72a1.395 1.395 0 0 1-1.351 1.75Zm49.745 0a1.397 1.397 0 0 1-1.344-1.778l2.457-8.72a1.395 1.395 0 1 1 2.687.757l-2.456 8.72a1.394 1.394 0 0 1-1.344 1.021ZM22.552 84.165a1.08 1.08 0 0 1-1.059-.871L8.88 19.2a1.08 1.08 0 0 1 2.119-.417l12.616 64.094a1.08 1.08 0 0 1-1.062 1.288ZM39.91 49.536a1.08 1.08 0 0 1-.825-.38l-26.67-31.498a1.08 1.08 0 1 1 1.648-1.394l26.67 31.497a1.08 1.08 0 0 1-.822 1.775Zm-.504-9.366a1.081 1.081 0 0 1-1.044-1.364l9.396-25.687a1.081 1.081 0 0 1 2.085.566l-9.396 25.688c-.13.483-.566.798-1.041.798Zm21.792.737a1.08 1.08 0 0 1-1.032-.756l-8.585-25.917a1.08 1.08 0 0 1 2.06-.647l8.586 25.916a1.08 1.08 0 0 1-1.03 1.404Zm-2.745 11.677a1.082 1.082 0 0 1-.833-1.768l28.703-34.799a1.083 1.083 0 0 1 1.669 1.377l-28.703 34.8a1.093 1.093 0 0 1-.836.39Zm14.733 32.275H27.211a1.396 1.396 0 0 1-1.397-1.397v-6.866a12.49 12.49 0 0 1 3.683-8.89l5.883-5.883a9.32 9.32 0 0 1 6.632-2.746h16.376c2.504 0 4.859.975 6.632 2.746l5.883 5.883a12.49 12.49 0 0 1 3.683 8.89v6.866a1.4 1.4 0 0 1-1.4 1.397Zm-44.578-2.794h43.181v-5.47a9.714 9.714 0 0 0-2.863-6.913l-5.883-5.883a6.54 6.54 0 0 0-4.655-1.928H42.011a6.551 6.551 0 0 0-4.656 1.928l-5.883 5.883a9.715 9.715 0 0 0-2.863 6.914v5.469h-.002Z"/><path d="M50.199 56.123c-7.108 0-12.891-5.784-12.891-12.891 0-7.108 5.783-12.891 12.89-12.891 7.108 0 12.892 5.783 12.892 12.89 0 7.108-5.784 12.892-12.891 12.892Zm0-22.988c-5.568 0-10.097 4.529-10.097 10.097s4.529 10.096 10.097 10.096c5.567 0 10.096-4.529 10.096-10.096 0-5.568-4.529-10.097-10.096-10.097Zm32.182 51.708H17.332a1.079 1.079 0 1 1 0-2.159h65.05a1.079 1.079 0 1 1 0 2.16ZM56.838 91.49H17.221a1.079 1.079 0 1 1 0-2.159h39.62a1.079 1.079 0 1 1-.003 2.16Zm25.602-.086H63.369a1.079 1.079 0 1 1 0-2.159h19.07a1.079 1.079 0 1 1 0 2.16Z"/><path d="M82.537 91.313c-.3 0-.564-.127-.73-.275-.373-.335-.528-.957-.104-1.5.57-.727 1.705-2.668.005-4.964a1.08 1.08 0 1 1 1.738-1.285c2.055 2.773 1.4 5.628.071 7.434-.05.09-.114.176-.193.25-.26.248-.534.34-.787.34Zm-65.438.084c-.254 0-.529-.092-.788-.34a1.07 1.07 0 0 1-.193-.252c-1.333-1.817-1.978-4.664.071-7.433a1.082 1.082 0 0 1 1.512-.226c.48.356.579 1.032.226 1.512-1.702 2.296-.564 4.236.005 4.963.424.544.27 1.166-.104 1.501a1.126 1.126 0 0 1-.73.275Z"/></g></svg>