<?xml version="1.0" encoding="UTF-8"?><svg id="a" xmlns="http://www.w3.org/2000/svg" viewBox="0 0 1000 1000"><defs><style>.b{fill:#fff;}</style></defs><path class="b" d="M690.82,797.04H314.1v-62.18c0-25.61,9.98-49.69,28.09-67.81l46.04-46.04c13.4-13.4,31.2-20.77,50.14-20.77h128.16c18.95,0,36.75,7.38,50.15,20.77l46.04,46.04c18.12,18.12,28.09,42.2,28.09,67.81v62.18Zm-359.82-16.9h342.92v-45.28c0-21.1-8.22-40.94-23.14-55.87l-46.05-46.04c-10.2-10.2-23.77-15.82-38.2-15.82h-128.16c-14.42,0-27.99,5.62-38.19,15.82l-46.05,46.04c-14.92,14.92-23.14,34.77-23.14,55.87v45.28Z"/><path class="b" d="M502.46,572.15c-54.26,0-98.41-44.14-98.41-98.4s44.14-98.41,98.41-98.41,98.4,44.15,98.4,98.41-44.14,98.4-98.4,98.4m0-179.91c-44.94,0-81.51,36.56-81.51,81.51s36.56,81.51,81.51,81.51,81.5-36.57,81.5-81.51-36.56-81.51-81.5-81.51"/><path class="b" d="M458.6,95.1l-18.48-2.54c1.19-8.66,4.93-15.59,10.84-20.06,5.89-4.45,13.58-6.18,22.25-4.98l-2.54,18.48c-2.55-.35-6.11-.4-8.45,1.38-2.35,1.78-3.25,5.17-3.6,7.71"/><path class="b" d="M541.84,98.11c-.16-10.64-5.42-12.08-10.47-11.93l-.27-18.65c17.5-.3,29.11,11.64,29.38,30.31l-18.65,.28Z"/><path class="b" d="M535.51,86.22h-.03l-66.11-.19c-5.15-.01-9.31-4.2-9.3-9.35,.01-5.15,4.18-9.31,9.33-9.31h.03l66.1,.2c5.15,.01,9.31,4.19,9.3,9.35-.01,5.14-4.19,9.3-9.33,9.3"/><path class="b" d="M549.45,188.83c-.06,0-.13,0-.18,0-5.16-.1-9.25-4.35-9.15-9.5l1.64-85.34c.11-5.08,4.25-9.15,9.33-9.15,.06,0,.13,0,.18,0,5.15,.1,9.25,4.35,9.15,9.51l-1.65,85.34c-.09,5.09-4.25,9.15-9.32,9.15"/><path class="b" d="M549.44,189.83h-.12l-103.16-1.3c-5.16-.07-9.28-4.29-9.21-9.45,.07-5.15,4.39-9.28,9.45-9.21l103.16,1.3c5.15,.06,9.27,4.29,9.21,9.44-.07,5.11-4.23,9.21-9.33,9.21"/><path class="b" d="M446.28,188.53c-.12,0-.23,0-.34,0-5.15-.18-9.17-4.5-8.98-9.65l3.04-85.53c.18-5.15,4.54-9.17,9.66-8.98,5.15,.18,9.17,4.51,8.98,9.65l-3.04,85.53c-.18,5.03-4.32,8.99-9.31,8.99"/><path class="b" d="M843.82,121.67l-15.02-11.07c10.58-14.32,26.69-16.74,41.04-6.15l-11.07,15.01c-6.05-4.46-10.51-3.79-14.94,2.22"/><path class="b" d="M931.98,172.83l-16.51-8.69c4.95-9.43,1.02-13.12-3.48-15.49l8.69-16.51c15.56,8.18,20,24.15,11.31,40.68"/><path class="b" d="M920.06,151.82c-1.51,0-3.06-.38-4.48-1.16l-57.96-31.79c-4.52-2.47-6.18-8.15-3.7-12.67,2.48-4.51,8.14-6.17,12.66-3.69l57.97,31.79c4.51,2.48,6.17,8.14,3.68,12.67-1.69,3.08-4.89,4.84-8.18,4.84"/><path class="b" d="M883.21,248.58c-1.56,0-3.16-.4-4.61-1.23-4.47-2.55-6.03-8.25-3.49-12.72l42.27-74.14c2.55-4.48,8.24-6.04,12.73-3.49,4.48,2.55,6.03,8.25,3.48,12.73l-42.26,74.15c-1.72,3.02-4.87,4.71-8.12,4.71"/><path class="b" d="M882.73,249.46c-1.54,0-3.12-.39-4.56-1.2l-89.97-50.49c-4.5-2.52-6.09-8.21-3.57-12.7,2.53-4.49,8.21-6.09,12.7-3.57l89.97,50.48c4.49,2.53,6.09,8.22,3.57,12.7-1.7,3.05-4.88,4.77-8.14,4.77"/><path class="b" d="M792.75,198.97c-1.61,0-3.25-.42-4.74-1.3-4.43-2.63-5.89-8.34-3.27-12.78l43.59-73.65c2.62-4.44,8.35-5.9,12.78-3.27,4.43,2.63,5.9,8.34,3.27,12.78l-43.59,73.65c-1.74,2.94-4.85,4.58-8.04,4.58"/><path class="b" d="M65.68,156.42c-5.9-16.8,1.16-31.47,17.99-37.39l6.18,17.6c-7.08,2.49-9.05,6.56-6.58,13.59l-17.6,6.19Z"/><path class="b" d="M158.71,114.89c-2.02-3.78-4.38-6.23-6.84-7.1-2.2-.79-4.87-.36-7.92,1.27l-8.77-16.47c7.75-4.13,15.67-4.95,22.91-2.39,6.94,2.45,12.85,7.96,17.09,15.93l-16.46,8.76Z"/><path class="b" d="M84.5,138.27c-3.4,0-6.67-1.86-8.32-5.1-2.34-4.58-.52-10.2,4.07-12.54l58.9-30.03c4.58-2.35,10.21-.52,12.54,4.07,2.34,4.59,.52,10.21-4.08,12.55l-58.89,30.04c-1.36,.69-2.8,1.02-4.23,1.02"/><path class="b" d="M202.66,193.13c-3.45,0-6.76-1.92-8.39-5.23l-37.51-76.66c-2.27-4.62-.35-10.21,4.27-12.48,4.62-2.26,10.21-.35,12.48,4.28l37.52,76.66c2.26,4.62,.34,10.21-4.28,12.48-1.32,.65-2.72,.95-4.09,.95"/><path class="b" d="M110.76,240.01c-3.43,0-6.73-1.89-8.36-5.17-2.29-4.62-.42-10.21,4.19-12.52l92.36-45.98c4.61-2.3,10.21-.42,12.51,4.19,2.3,4.61,.42,10.21-4.19,12.5l-92.36,45.99c-1.34,.65-2.75,.97-4.15,.97"/><path class="b" d="M110.76,240.01c-3.51,0-6.87-1.98-8.45-5.37l-36.36-77.47c-2.19-4.67-.19-10.21,4.48-12.4,4.66-2.19,10.22-.19,12.41,4.47l36.36,77.48c2.19,4.66,.19,10.22-4.48,12.41-1.28,.6-2.63,.89-3.96,.89"/><path class="b" d="M737.01,792.38c-.63,0-1.26-.07-1.9-.19-5.05-1.04-8.29-5.98-7.25-11.02l114.87-556.05c1.05-5.05,5.99-8.28,11.03-7.25,5.05,1.04,8.29,5.98,7.25,11.02l-114.87,556.05c-.91,4.41-4.8,7.44-9.13,7.44"/><line class="b" x1="262.16" y1="848.17" x2="281.91" y2="923.53"/><path class="b" d="M281.91,932.85c-4.13,0-7.91-2.77-9.01-6.97l-19.76-75.35c-1.3-4.98,1.67-10.09,6.66-11.39,4.98-1.3,10.09,1.67,11.39,6.66l19.75,75.35c1.3,4.98-1.67,10.09-6.66,11.39-.79,.21-1.59,.3-2.37,.3"/><path class="b" d="M711.76,932.85c-.84,0-1.69-.11-2.53-.35-4.96-1.4-7.85-6.55-6.45-11.5l21.22-75.36c1.4-4.96,6.54-7.85,11.5-6.45,4.96,1.4,7.85,6.55,6.44,11.5l-21.22,75.36c-1.15,4.11-4.9,6.8-8.97,6.8"/><path class="b" d="M258.5,792.38c-4.37,0-8.27-3.08-9.14-7.53L140.33,230.99c-1-5.05,2.3-9.96,7.35-10.95,5.05-.99,9.96,2.3,10.95,7.36l109.02,553.85c.99,5.06-2.29,9.96-7.36,10.96-.6,.11-1.21,.17-1.81,.17"/><path class="b" d="M335.45,406.87c-2.65,0-5.28-1.12-7.12-3.3L170.9,217.66c-3.33-3.93-2.84-9.82,1.09-13.14,3.94-3.33,9.82-2.84,13.14,1.08l157.43,185.92c3.33,3.93,2.84,9.82-1.09,13.14-1.75,1.49-3.89,2.21-6.02,2.21"/><path class="b" d="M448.49,325.64c-.81,0-1.63-.11-2.45-.33-4.97-1.35-7.9-6.47-6.55-11.44l36.82-135.41c1.35-4.97,6.48-7.9,11.45-6.55,4.97,1.35,7.91,6.47,6.56,11.44l-36.83,135.41c-1.13,4.15-4.89,6.88-9,6.88"/><path class="b" d="M560.84,330.43c-3.97,0-7.65-2.55-8.9-6.54l-42.6-135.81c-1.55-4.92,1.2-10.15,6.11-11.69,4.92-1.55,10.15,1.19,11.69,6.11l42.61,135.8c1.54,4.92-1.2,10.15-6.11,11.7-.93,.29-1.87,.43-2.79,.43"/><path class="b" d="M661.16,407.4c-2.09,0-4.19-.69-5.93-2.13-3.98-3.28-4.54-9.16-1.27-13.14l155.59-188.62c3.28-3.98,9.16-4.54,13.13-1.26,3.98,3.27,4.54,9.16,1.26,13.14l-155.58,188.63c-1.84,2.24-4.51,3.39-7.2,3.39"/><path class="b" d="M775.49,798.23H213.39c-5.15,0-9.33-4.17-9.33-9.33s4.17-9.33,9.33-9.33H775.49c5.15,0,9.33,4.18,9.33,9.33s-4.18,9.33-9.33,9.33"/><path class="b" d="M554.77,855.67H212.41c-5.15,0-9.33-4.17-9.33-9.33s4.17-9.33,9.33-9.33h342.36c5.15,0,9.33,4.17,9.33,9.33s-4.17,9.33-9.33,9.33"/><path class="b" d="M775.98,854.93h-164.81c-5.15,0-9.33-4.17-9.33-9.33s4.18-9.33,9.33-9.33h164.81c5.15,0,9.33,4.18,9.33,9.33s-4.18,9.33-9.33,9.33"/><path class="b" d="M776.83,854.14c-2.59,0-4.88-1.1-6.29-2.37-3.22-2.9-4.57-8.28-.91-12.97,4.91-6.29,14.75-23.05,.05-42.89-3.07-4.14-2.2-9.98,1.94-13.05,4.14-3.06,9.99-2.2,13.05,1.94,17.75,23.97,12.1,48.63,.6,64.23-.43,.78-.99,1.51-1.66,2.16-2.22,2.15-4.6,2.94-6.79,2.94"/><path class="b" d="M211.36,854.87c-2.18,0-4.56-.79-6.79-2.94-.68-.66-1.24-1.4-1.67-2.18-11.52-15.7-17.08-40.3,.62-64.21,3.07-4.14,8.91-5.01,13.05-1.94,4.14,3.06,5.01,8.9,1.94,13.05-14.69,19.85-4.86,36.61,.05,42.89,3.67,4.7,2.32,10.07-.91,12.97-1.41,1.27-3.7,2.37-6.29,2.37"/><path class="b" d="M501.78,265.93c-5.15,0-9.33-4.17-9.33-9.33v-72.29c0-5.15,4.17-9.33,9.33-9.33s9.33,4.17,9.33,9.33v72.29c0,5.15-4.18,9.33-9.33,9.33"/><path class="b" d="M192.67,286.9c-3.45,0-6.77-1.92-8.39-5.23l-31.78-64.93c-2.27-4.63-.35-10.21,4.27-12.48,4.62-2.26,10.21-.35,12.48,4.28l31.79,64.93c2.26,4.62,.34,10.21-4.28,12.47-1.32,.65-2.72,.96-4.09,.96"/><path class="b" d="M769.99,342.55c-1.58,0-3.18-.41-4.65-1.25-4.47-2.58-5.99-8.28-3.42-12.75l66.08-114.44c2.57-4.47,8.28-5.99,12.73-3.42,4.46,2.58,6,8.28,3.42,12.75l-66.07,114.44c-1.73,3-4.87,4.67-8.09,4.67"/></svg>