<svg width="119" height="113" fill="none" xmlns="http://www.w3.org/2000/svg"><g opacity=".3" fill="#00003F"><path d="M80.398 61.151c-.927 0-1.677-.75-1.677-1.677 0-10.669-8.647-19.349-19.276-19.349-10.63 0-19.276 8.68-19.276 19.349a1.677 1.677 0 1 1-3.354 0c0-12.52 10.153-22.704 22.63-22.704 12.477 0 22.63 10.184 22.63 22.704a1.68 1.68 0 0 1-1.677 1.677Z"/><path d="M117.27 61.151c-.927 0-1.678-.75-1.678-1.677v-6.091a1.36 1.36 0 0 0-1.357-1.357h-4.553a4.699 4.699 0 0 1-4.581-3.608A46.653 46.653 0 0 0 99.55 35.04a4.7 4.7 0 0 1 .686-5.792l3.227-3.227a1.36 1.36 0 0 0 0-1.918l-8.616-8.616a1.35 1.35 0 0 0-.96-.397c-.364 0-.706.14-.962.397l-3.22 3.223a4.698 4.698 0 0 1-5.792.69 46.626 46.626 0 0 0-13.383-5.55 4.7 4.7 0 0 1-3.615-4.581V4.712a1.36 1.36 0 0 0-1.357-1.357H53.377a1.36 1.36 0 0 0-1.357 1.357v4.554a4.702 4.702 0 0 1-3.639 4.587 46.544 46.544 0 0 0-13.337 5.532c-.006.003-.012.01-.019.013a4.699 4.699 0 0 1-5.791-.69l-3.215-3.223a1.35 1.35 0 0 0-.96-.397c-.364 0-.705.14-.962.397l-8.61 8.613a1.35 1.35 0 0 0-.396.96c0 .363.14.705.397.961l3.226 3.227a4.698 4.698 0 0 1 .69 5.786c-.006.009-.016.02-.019.03a46.662 46.662 0 0 0-5.532 13.337c-.003.01-.003.016-.006.022a4.7 4.7 0 0 1-4.581 3.605H4.712a1.36 1.36 0 0 0-1.357 1.357v6.09a1.677 1.677 0 1 1-3.355 0v-6.09a4.717 4.717 0 0 1 4.712-4.712h4.554a1.35 1.35 0 0 0 1.314-1.025l.003-.018a50.003 50.003 0 0 1 5.948-14.341l.018-.03a1.349 1.349 0 0 0-.214-1.641l-3.22-3.227a4.683 4.683 0 0 1-1.382-3.334 4.67 4.67 0 0 1 1.382-3.33l8.613-8.613a4.679 4.679 0 0 1 3.33-1.379c1.26 0 2.443.491 3.33 1.382l3.221 3.223a1.353 1.353 0 0 0 1.672.196 49.909 49.909 0 0 1 14.371-5.95 1.345 1.345 0 0 0 1.013-1.315V4.712A4.717 4.717 0 0 1 53.377 0h12.181a4.717 4.717 0 0 1 4.712 4.712v4.554c0 .628.427 1.17 1.04 1.32a49.983 49.983 0 0 1 14.347 5.948c.543.332 1.23.25 1.675-.195l3.227-3.224a4.682 4.682 0 0 1 3.33-1.382c1.26 0 2.443.491 3.334 1.382l8.616 8.616a4.72 4.72 0 0 1 0 6.664l-3.227 3.227a1.348 1.348 0 0 0-.198 1.665 50.075 50.075 0 0 1 5.95 14.344c.15.613.689 1.04 1.321 1.04h4.553a4.717 4.717 0 0 1 4.712 4.712v6.09a1.683 1.683 0 0 1-1.68 1.678Z"/><path d="M77.324 35.327c-.332 0-.668-.098-.96-.302a29.739 29.739 0 0 0-2.95-1.815 1.676 1.676 0 0 1-.683-2.272 1.676 1.676 0 0 1 2.272-.683 32.869 32.869 0 0 1 3.282 2.02 1.678 1.678 0 0 1-.96 3.052Zm13.452 25.824c-.927 0-1.677-.75-1.677-1.677a29.87 29.87 0 0 0-7.72-20.03 1.678 1.678 0 0 1 2.486-2.253 33.233 33.233 0 0 1 8.589 22.283c0 .924-.75 1.677-1.678 1.677ZM28.11 61.15c-.927 0-1.677-.75-1.677-1.676 0-18.263 14.807-33.12 33.009-33.12 2.568 0 5.124.296 7.6.882a1.677 1.677 0 1 1-.771 3.266 29.77 29.77 0 0 0-6.829-.793c-16.35 0-29.654 13.353-29.654 29.765 0 .924-.75 1.677-1.678 1.677Zm52.083 51.849H38.46c-.928 0-1.678-.75-1.678-1.677v-6.231a11.75 11.75 0 0 1 3.462-8.36l5.34-5.34a8.86 8.86 0 0 1 6.31-2.614H66.76a8.86 8.86 0 0 1 6.31 2.614l5.34 5.34a11.742 11.742 0 0 1 3.462 8.36v6.231a1.68 1.68 0 0 1-1.68 1.677Zm-40.055-3.355h38.377v-4.553c0-2.26-.881-4.389-2.48-5.987l-5.34-5.34a5.53 5.53 0 0 0-3.937-1.632H51.893a5.53 5.53 0 0 0-3.938 1.631l-5.34 5.34a8.411 8.411 0 0 0-2.48 5.988v4.553h.003Zm19.188-22.728c-6.68 0-12.111-5.431-12.111-12.11 0-6.68 5.432-12.112 12.111-12.112 6.68 0 12.111 5.432 12.111 12.111 0 6.68-5.435 12.111-12.11 12.111Zm0-20.867c-4.828 0-8.756 3.928-8.756 8.756s3.928 8.756 8.756 8.756 8.756-3.928 8.756-8.756-3.928-8.756-8.756-8.756Z"/><path d="M33.248 112.999H1.946c-.927 0-1.677-.75-1.677-1.677v-6.231c0-3.157 1.229-6.124 3.461-8.36l5.34-5.34a8.86 8.86 0 0 1 6.311-2.614h14.865c2.382 0 4.624.927 6.31 2.614l1.956 1.955a1.677 1.677 0 1 1-2.373 2.373l-1.955-1.956a5.53 5.53 0 0 0-3.938-1.631H15.381a5.53 5.53 0 0 0-3.938 1.631l-5.34 5.34a8.411 8.411 0 0 0-2.48 5.988v4.553h29.621a1.677 1.677 0 0 1 .004 3.355ZM22.811 86.916c-6.679 0-12.11-5.431-12.11-12.11 0-6.68 5.431-12.112 12.11-12.112 6.677 0 12.112 5.432 12.112 12.111 0 6.68-5.435 12.111-12.112 12.111Zm0-20.867c-4.828 0-8.756 3.928-8.756 8.756s3.928 8.756 8.756 8.756c4.829 0 8.757-3.928 8.757-8.756S27.64 66.05 22.81 66.05Zm94.136 46.95H85.649a1.676 1.676 0 1 1 0-3.354h29.621v-4.554c0-2.26-.882-4.389-2.48-5.987l-5.34-5.34a5.531 5.531 0 0 0-3.938-1.632H88.647a5.53 5.53 0 0 0-3.938 1.631l-1.955 1.956a1.677 1.677 0 1 1-2.373-2.373l1.956-1.955a8.86 8.86 0 0 1 6.31-2.614h14.865c2.382 0 4.624.927 6.31 2.614l5.341 5.34a11.744 11.744 0 0 1 3.462 8.36v6.231c0 .927-.751 1.677-1.678 1.677ZM96.084 86.916c-6.68 0-12.111-5.431-12.111-12.11 0-6.68 5.432-12.112 12.11-12.112 6.68 0 12.112 5.432 12.112 12.111 0 6.68-5.435 12.111-12.111 12.111Zm0-20.867c-4.828 0-8.756 3.928-8.756 8.756s3.928 8.756 8.756 8.756 8.756-3.928 8.756-8.756-3.928-8.756-8.756-8.756Z"/></g></svg>