<?xml version="1.0" encoding="utf-8"?>
<!-- Generator: Adobe Illustrator 27.0.0, SVG Export Plug-In . SVG Version: 6.00 Build 0)  -->
<svg version="1.1" id="Layer_1" xmlns="http://www.w3.org/2000/svg" xmlns:xlink="http://www.w3.org/1999/xlink" x="0px" y="0px"
	 viewBox="0 0 853.8 823.8" style="enable-background:new 0 0 853.8 823.8;" xml:space="preserve">
<style type="text/css">
	.st0{opacity:0.3;}
	.st1{fill:#0F053F;}
</style>
<g id="Layer_2_00000108997440684598546430000009556044225713455237_" class="st0">
	<g id="a">
		<path class="st1" d="M577.1,439.2c-6.6,0-12-5.4-12-12c0-76.6-62.1-139-138.5-139s-138.5,62.3-138.5,139c0,6.6-5.4,12-12,12
			s-12-5.4-12-12c0-89.9,72.9-163.1,162.6-163.1s162.5,73.2,162.5,163.1C589.2,433.9,583.8,439.2,577.1,439.2"/>
		<path class="st1" d="M842,439.2c-6.6,0-12-5.4-12-12v-43.7c0-5.4-4.3-9.7-9.7-9.8h-32.7c-15.6,0-29.2-10.7-32.9-25.9
			c-8.2-33.9-21.7-66.3-39.9-96.1c-8.2-13.3-6.2-30.6,4.9-41.6l23.2-23.2c3.8-3.8,3.8-10,0-13.8L681,111.2c-1.8-1.8-4.3-2.9-6.9-2.9
			c-2.6,0-5.1,1-6.9,2.9l-23.1,23.1c-11,11.1-28.3,13.1-41.6,4.9c-29.8-18.2-62.2-31.6-96.1-39.9c-15.2-3.6-26-17.2-26-32.9V33.8
			c0-5.4-4.3-9.7-9.7-9.7h-87.5c-5.4,0-9.7,4.3-9.8,9.7v32.7c0.1,15.7-10.7,29.3-25.9,32.9c-0.1,0-0.2,0-0.2,0.1
			c-33.8,8.2-66.1,21.5-95.8,39.7c-0.1,0-0.1,0-0.1,0.1v0c-13.3,8.2-30.6,6.2-41.6-4.9l-23.1-23.1c-1.8-1.8-4.3-2.9-6.9-2.9
			c-2.6,0-5.1,1-6.9,2.9L111,173.2c-1.8,1.8-2.9,4.3-2.9,6.9c0,2.6,1,5.1,2.9,6.9l23.2,23.2c11.1,11.1,13.1,28.2,5,41.6
			c0,0.1,0,0.1-0.1,0.2c-18.1,29.7-31.5,62-39.7,95.8v0.2c-3.7,15.2-17.3,25.9-32.9,25.9H33.8c-5.4,0-9.7,4.4-9.7,9.8c0,0,0,0,0,0
			v43.7c0,6.6-5.4,12-12,12c0,0-0.1,0-0.1,0c-6.6,0-12-5.4-12-12v-43.7c0-18.7,15.1-33.8,33.8-33.9h32.7c4.5,0,8.4-3,9.4-7.4v-0.1
			c8.8-36.3,23.2-71.1,42.7-103c0-0.1,0.1-0.1,0.1-0.2c2.2-3.8,1.6-8.7-1.5-11.8l-23.4-23.4c-13.2-13.2-13.2-34.6,0-47.8l61.9-61.9
			c13.2-13.2,34.6-13.2,47.8,0l23.1,23.1c3.1,3.2,8.1,3.8,11.9,1.5l0.1-0.1c31.9-19.5,66.7-33.9,103-42.7c0.1,0,0.2,0,0.2-0.1
			c4.3-1.1,7.3-5,7.3-9.4V33.8c0-18.7,15.1-33.8,33.8-33.8h87.5c18.7,0,33.8,15.1,33.8,33.8v32.7c0,4.5,3.1,8.4,7.5,9.5
			c36.4,8.8,71.2,23.2,103.1,42.7c3.8,2.4,8.8,1.8,12-1.4l23.1-23.1c13.2-13.2,34.6-13.2,47.8,0l61.9,61.9
			c13.2,13.2,13.2,34.7,0,47.9l-23.2,23.2c-3.2,3.2-3.8,8.2-1.4,12c19.5,31.9,34,66.7,42.8,103c1.1,4.4,5,7.5,9.5,7.5H820
			c18.7,0,33.8,15.2,33.8,33.9c0,0,0,0,0,0v43.7c0.2,6.4-4.9,11.7-11.3,11.9C842.3,439.2,842.2,439.2,842,439.2"/>
		<path class="st1" d="M555,253.8c-2.5,0-4.9-0.8-6.9-2.2c-6.8-4.7-13.9-9.1-21.2-13c-5.9-3.1-8-10.4-4.9-16.3
			c3.1-5.9,10.4-8,16.3-4.9c8.1,4.4,16,9.2,23.6,14.5c5.5,3.8,6.8,11.2,3.1,16.7c0,0-0.1,0.1-0.1,0.1
			C562.6,251.8,558.9,253.7,555,253.8"/>
		<path class="st1" d="M651.7,439.2c-6.6,0-12-5.4-12-12c0-49.7-17.3-97.9-48.9-136.3c-2.1-2.5-4.3-5.1-6.5-7.5
			c-4.5-4.9-4.1-12.5,0.8-17s12.5-4.1,17,0.8c2.5,2.7,4.9,5.6,7.2,8.4c35.2,42.7,54.4,96.4,54.4,151.7
			C663.6,433.9,658.3,439.2,651.7,439.2"/>
		<path class="st1" d="M201.5,439.2c-6.6,0-12-5.4-12-12c0-131.2,106.4-237.9,237.1-237.9c18.4,0,36.7,2.1,54.6,6.3
			c6.5,1.7,10.4,8.2,8.7,14.7c-1.6,6.3-7.9,10.2-14.2,8.8c-16.1-3.8-32.5-5.7-49-5.7c-117.5,0-213,95.9-213,213.8
			C213.6,433.9,208.2,439.2,201.5,439.2"/>
		<path class="st1" d="M425.8,474.4c-34.7,0-62.9,28.2-62.9,62.9s28.2,62.9,62.9,62.9s62.9-28.2,62.9-62.9l0,0
			C488.7,502.6,460.5,474.4,425.8,474.4 M425.8,624.3c-48,0-87-39-87-87s39-87,87-87s87,39,87,87l0,0
			C512.8,585.3,473.8,624.3,425.8,624.3"/>
		<path class="st1" d="M1.5,799.6v-44.8c-0.1-22.5,8.9-44.2,24.9-60l38.4-38.4c12-12.1,28.3-18.8,45.3-18.8h106.7
			c17,0,33.3,6.7,45.3,18.8l14,14c4.7,4.7,4.7,12.3,0,17s-12.3,4.7-17,0l-14-14c-7.5-7.5-17.7-11.7-28.3-11.7H110.1
			c-10.6,0-20.8,4.2-28.3,11.7l-38.4,38.4c-11.4,11.4-17.8,26.9-17.8,43v32.7"/>
		<path class="st1" d="M163.5,474.4c-34.7,0-62.9,28.2-62.9,62.9s28.2,62.9,62.9,62.9s62.9-28.2,62.9-62.9l0,0
			C226.4,502.6,198.2,474.4,163.5,474.4 M163.5,624.3c-48,0-87-39-87-87s39-87,87-87s87,39,87,87l0,0
			C250.5,585.3,211.5,624.3,163.5,624.3"/>
		<path class="st1" d="M827.6,787.6v-32.7c0-16.1-6.4-31.6-17.8-43l-38.4-38.4c-7.5-7.5-17.7-11.7-28.3-11.7H636.4
			c-10.6,0-20.8,4.2-28.3,11.7l-14,14c-4.7,4.7-12.3,4.7-17,0s-4.7-12.3,0-17l14-14c12-12.1,28.3-18.8,45.3-18.8h106.8
			c17,0,33.3,6.7,45.3,18.8l38.3,38.3c16,15.9,24.9,37.5,24.9,60v44.8"/>
		<path class="st1" d="M689.8,474.4c-34.7,0-62.9,28.2-62.9,62.9c0,34.7,28.2,62.9,62.9,62.9s62.9-28.2,62.9-62.9
			C752.7,502.6,724.5,474.4,689.8,474.4 M689.8,624.3c-48,0-87-39-87-87s39-87,87-87s87,39,87,87l0,0
			C776.8,585.3,737.8,624.3,689.8,624.3"/>
		<path class="st1" d="M264.7,823.7v-44.8c-0.1-22.5,8.9-44.2,24.9-60l38.4-38.4c12-12.1,28.3-18.8,45.3-18.8h106.8
			c17,0,33.3,6.7,45.3,18.8l14,14c4.7,4.7,4.7,12.3,0,17s-12.3,4.7-17,0l-14-14c-7.5-7.5-17.7-11.7-28.3-11.7H373.2
			c-10.6,0-20.8,4.2-28.3,11.7l-38.4,38.4c-11.4,11.4-17.8,26.9-17.8,43v32.7"/>
		<path class="st1" d="M563.6,811.7V779c0-16.1-6.4-31.6-17.8-43l-38.4-38.4c-7.5-7.5-17.7-11.7-28.3-11.7H372.4
			c-10.6,0-20.8,4.2-28.3,11.7l-14,14c-4.7,4.7-12.3,4.7-17,0s-4.7-12.3,0-17l14-14c12-12.1,28.3-18.8,45.3-18.8h106.8
			c17,0,33.3,6.7,45.3,18.8l38.4,38.4c16,15.9,24.9,37.5,24.9,60v44.8"/>
	</g>
</g>
</svg>
