<svg xmlns="http://www.w3.org/2000/svg" viewBox="0 0 118.95 113"><defs><style>.cls-1{fill:#00003f}</style></defs><g id="Layer_2" data-name="Layer 2"><g id="Layer_1-2" data-name="Layer 1"><path d="M80.4 61.15a1.68 1.68 0 0 1-1.68-1.68 19.28 19.28 0 1 0-38.55 0 1.68 1.68 0 1 1-3.36 0 22.64 22.64 0 1 1 45.27 0 1.68 1.68 0 0 1-1.68 1.68Z" class="cls-1"/><path d="M117.27 61.15a1.68 1.68 0 0 1-1.68-1.68v-6.09a1.36 1.36 0 0 0-1.35-1.38h-4.56a4.71 4.71 0 0 1-4.58-3.61A46.67 46.67 0 0 0 99.55 35a4.69 4.69 0 0 1 .69-5.79l3.22-3.21a1.36 1.36 0 0 0 0-1.92l-8.61-8.61a1.35 1.35 0 0 0-1-.4 1.31 1.31 0 0 0-1 .4l-3.15 3.24a4.69 4.69 0 0 1-5.79.69 46.44 46.44 0 0 0-13.38-5.55 4.7 4.7 0 0 1-3.61-4.58V4.71a1.36 1.36 0 0 0-1.36-1.36H53.38A1.36 1.36 0 0 0 52 4.71v4.56a4.7 4.7 0 0 1-3.61 4.58A46.65 46.65 0 0 0 35 19.39a4.72 4.72 0 0 1-5.8-.69L26 15.48a1.38 1.38 0 0 0-1-.39 1.36 1.36 0 0 0-1 .39l-8.51 8.62a1.33 1.33 0 0 0-.4 1 1.35 1.35 0 0 0 .4 1l3.22 3.23A4.68 4.68 0 0 1 19.4 35a46.62 46.62 0 0 0-5.55 13.4A4.72 4.72 0 0 1 9.27 52H4.71a1.36 1.36 0 0 0-1.36 1.35v6.09a1.68 1.68 0 1 1-3.35 0v-6.06a4.71 4.71 0 0 1 4.71-4.71h4.56a1.35 1.35 0 0 0 1.31-1 50.09 50.09 0 0 1 6-14.34 1.35 1.35 0 0 0-.21-1.64l-3.23-3.23a4.72 4.72 0 0 1 0-6.67l8.62-8.61a4.71 4.71 0 0 1 6.66 0l3.22 3.23a1.36 1.36 0 0 0 1.66.2 49.9 49.9 0 0 1 14.34-5.94 1.33 1.33 0 0 0 1-1.31V4.71A4.72 4.72 0 0 1 53.38 0h12.18a4.71 4.71 0 0 1 4.71 4.71v4.56a1.37 1.37 0 0 0 1 1.32 50 50 0 0 1 14.35 5.94 1.34 1.34 0 0 0 1.67-.19l3.23-3.23a4.71 4.71 0 0 1 6.66 0l8.62 8.62a4.71 4.71 0 0 1 0 6.66l-3.23 3.23a1.36 1.36 0 0 0-.2 1.67 49.76 49.76 0 0 1 6 14.34 1.36 1.36 0 0 0 1.32 1h4.56a4.71 4.71 0 0 1 4.75 4.75v6.09a1.68 1.68 0 0 1-1.73 1.68Z" class="cls-1"/><path d="M77.32 35.33a1.72 1.72 0 0 1-1-.3 29.56 29.56 0 0 0-3-1.82 1.68 1.68 0 0 1 1.59-3 34.35 34.35 0 0 1 3.28 2 1.68 1.68 0 0 1-1 3.06ZM90.77 61.15a1.68 1.68 0 0 1-1.67-1.68 29.88 29.88 0 0 0-6.81-19l-.91-1.05a1.67 1.67 0 0 1 2.48-2.25c.35.38.69.78 1 1.17a33.22 33.22 0 0 1 7.58 21.11 1.68 1.68 0 0 1-1.67 1.7ZM28.11 61.15a1.68 1.68 0 0 1-1.68-1.68A33 33 0 0 1 67 27.24a1.67 1.67 0 1 1-.77 3.26 29.68 29.68 0 0 0-36.48 29 1.68 1.68 0 0 1-1.64 1.65ZM80.19 113H38.46a1.68 1.68 0 0 1-1.68-1.68v-6.23a11.75 11.75 0 0 1 3.46-8.36l5.35-5.34a8.82 8.82 0 0 1 6.31-2.61h14.86a8.84 8.84 0 0 1 6.31 2.61l5.34 5.34a11.75 11.75 0 0 1 3.46 8.36v6.23a1.68 1.68 0 0 1-1.68 1.68Zm-40-3.36h38.33v-4.55a8.46 8.46 0 0 0-2.48-6l-5.34-5.33a5.55 5.55 0 0 0-3.94-1.63H51.89A5.51 5.51 0 0 0 48 93.76l-5.39 5.34a8.45 8.45 0 0 0-2.47 6v4.55ZM59.33 86.92a12.12 12.12 0 1 1 12.11-12.11 12.14 12.14 0 0 1-12.11 12.11Zm0-20.87a8.76 8.76 0 1 0 8.75 8.76 8.77 8.77 0 0 0-8.75-8.76Z" class="cls-1"/><path d="M33.25 113H2a1.68 1.68 0 0 1-1.68-1.68v-6.23a11.76 11.76 0 0 1 3.46-8.36l5.34-5.34a8.84 8.84 0 0 1 6.31-2.61h14.82a8.86 8.86 0 0 1 6.31 2.61l1.95 2a1.67 1.67 0 0 1 0 2.37 1.68 1.68 0 0 1-2.37 0l-2-2a5.53 5.53 0 0 0-3.93-1.63H15.38a5.54 5.54 0 0 0-3.94 1.63L6.1 99.1a8.42 8.42 0 0 0-2.48 6v4.55h29.62a1.68 1.68 0 0 1 0 3.36ZM22.81 86.92a12.12 12.12 0 1 1 12.11-12.11 12.13 12.13 0 0 1-12.11 12.11Zm0-20.87a8.76 8.76 0 1 0 8.76 8.76 8.77 8.77 0 0 0-8.76-8.76ZM117 113H85.65a1.68 1.68 0 0 1 0-3.36h29.62v-4.55a8.42 8.42 0 0 0-2.48-6l-5.34-5.34a5.54 5.54 0 0 0-3.94-1.63H88.65a5.54 5.54 0 0 0-3.94 1.63l-2 2a1.68 1.68 0 0 1-2.37 0 1.67 1.67 0 0 1 0-2.37l2-2a8.82 8.82 0 0 1 6.31-2.61h14.86a8.84 8.84 0 0 1 6.31 2.61l5.34 5.34a11.75 11.75 0 0 1 3.46 8.36v6.23A1.68 1.68 0 0 1 117 113ZM96.08 86.92a12.12 12.12 0 1 1 12.11-12.11 12.13 12.13 0 0 1-12.11 12.11Zm0-20.87a8.76 8.76 0 1 0 8.76 8.76 8.77 8.77 0 0 0-8.76-8.76Z" class="cls-1"/></g></g></svg>