<svg xmlns="http://www.w3.org/2000/svg" viewBox="0 0 853.81 823.8"><defs><style>.cls-1{fill:#fff;}</style></defs><g id="Layer_2" data-name="Layer 2"><g id="a"><path class="cls-1" d="M577.1,439.2a12,12,0,0,1-12-12c0-76.6-62.1-139-138.5-139s-138.5,62.3-138.5,139a12,12,0,0,1-24,0c0-89.9,72.9-163.1,162.6-163.1s162.5,73.2,162.5,163.1a12.06,12.06,0,0,1-12.1,12"/><path class="cls-1" d="M842,439.2a12,12,0,0,1-12-12V383.5a9.8,9.8,0,0,0-9.7-9.8H787.6a33.81,33.81,0,0,1-32.9-25.9,334.31,334.31,0,0,0-39.9-96.1,33.73,33.73,0,0,1,4.9-41.6l23.2-23.2a9.78,9.78,0,0,0,0-13.8L681,111.2a9.85,9.85,0,0,0-6.9-2.9,9.61,9.61,0,0,0-6.9,2.9l-23.1,23.1a33.73,33.73,0,0,1-41.6,4.9,338.82,338.82,0,0,0-96.1-39.9,33.79,33.79,0,0,1-26-32.9V33.8a9.71,9.71,0,0,0-9.7-9.7H383.2a9.8,9.8,0,0,0-9.8,9.7V66.5a33.7,33.7,0,0,1-25.9,32.9c-.1,0-.2,0-.2.1a333.21,333.21,0,0,0-95.8,39.7.1.1,0,0,0-.1.1,33.73,33.73,0,0,1-41.6-4.9l-23.1-23.1a9.85,9.85,0,0,0-6.9-2.9,9.44,9.44,0,0,0-6.9,2.9L111,173.2a9.85,9.85,0,0,0-2.9,6.9A9.61,9.61,0,0,0,111,187l23.2,23.2a33.89,33.89,0,0,1,5,41.6.35.35,0,0,1-.1.2,334.17,334.17,0,0,0-39.7,95.8v.2a33.81,33.81,0,0,1-32.9,25.9H33.8a9.73,9.73,0,0,0-9.7,9.8v43.7a12,12,0,0,1-12.1,12,12,12,0,0,1-12-12V383.7a33.91,33.91,0,0,1,33.8-33.9H66.5a9.54,9.54,0,0,0,9.4-7.4v-.1a360.37,360.37,0,0,1,42.7-103c0-.1.1-.1.1-.2a9.72,9.72,0,0,0-1.5-11.8L93.8,203.9a33.8,33.8,0,0,1,0-47.8l61.9-61.9a33.8,33.8,0,0,1,47.8,0l23.1,23.1a9.71,9.71,0,0,0,11.9,1.5l.1-.1A360.37,360.37,0,0,1,341.6,76c.1,0,.2,0,.2-.1a9.67,9.67,0,0,0,7.3-9.4V33.8A33.82,33.82,0,0,1,382.9,0h87.5a33.82,33.82,0,0,1,33.8,33.8V66.5a9.83,9.83,0,0,0,7.5,9.5,359.78,359.78,0,0,1,103.1,42.7,9.68,9.68,0,0,0,12-1.4l23.1-23.1a33.8,33.8,0,0,1,47.8,0l61.9,61.9a33.92,33.92,0,0,1,0,47.9l-23.2,23.2a9.68,9.68,0,0,0-1.4,12,360.13,360.13,0,0,1,42.8,103,9.83,9.83,0,0,0,9.5,7.5H820a33.84,33.84,0,0,1,33.8,33.9v43.7A11.6,11.6,0,0,1,842,439.2"/><path class="cls-1" d="M555,253.8a11.78,11.78,0,0,1-6.9-2.2,218.7,218.7,0,0,0-21.2-13,12,12,0,0,1,11.4-21.2,248.82,248.82,0,0,1,23.6,14.5,12,12,0,0,1,3,16.8,12.65,12.65,0,0,1-9.9,5.1"/><path class="cls-1" d="M651.7,439.2a12,12,0,0,1-12-12,214.73,214.73,0,0,0-48.9-136.3c-2.1-2.5-4.3-5.1-6.5-7.5a12,12,0,1,1,17.8-16.2c2.5,2.7,4.9,5.6,7.2,8.4a238.73,238.73,0,0,1,54.4,151.7,12,12,0,0,1-12,11.9"/><path class="cls-1" d="M201.5,439.2a12,12,0,0,1-12-12c0-131.2,106.4-237.9,237.1-237.9a238.22,238.22,0,0,1,54.6,6.3,12.07,12.07,0,0,1-5.5,23.5,212.38,212.38,0,0,0-49-5.7c-117.5,0-213,95.9-213,213.8a12.21,12.21,0,0,1-12.2,12"/><path class="cls-1" d="M425.8,474.4a62.9,62.9,0,1,0,62.9,62.9,62.95,62.95,0,0,0-62.9-62.9m0,149.9a87,87,0,1,1,87-87,87.06,87.06,0,0,1-87,87"/><path class="cls-1" d="M1.5,799.6V754.8a83.93,83.93,0,0,1,24.9-60l38.4-38.4a63.7,63.7,0,0,1,45.3-18.8H216.8a63.7,63.7,0,0,1,45.3,18.8l14,14a12,12,0,0,1-17,17l-14-14a40,40,0,0,0-28.3-11.7H110.1a40,40,0,0,0-28.3,11.7L43.4,711.8a60.44,60.44,0,0,0-17.8,43v32.7"/><path class="cls-1" d="M163.5,474.4a62.9,62.9,0,1,0,62.9,62.9,62.95,62.95,0,0,0-62.9-62.9m0,149.9a87,87,0,1,1,87-87,87.06,87.06,0,0,1-87,87"/><path class="cls-1" d="M827.6,787.6V754.9a60.44,60.44,0,0,0-17.8-43l-38.4-38.4a40,40,0,0,0-28.3-11.7H636.4a40,40,0,0,0-28.3,11.7l-14,14a12,12,0,0,1-17-17l14-14a63.7,63.7,0,0,1,45.3-18.8H743.2a63.7,63.7,0,0,1,45.3,18.8l38.3,38.3a84.52,84.52,0,0,1,24.9,60v44.8"/><path class="cls-1" d="M689.8,474.4a62.9,62.9,0,1,0,62.9,62.9,62.95,62.95,0,0,0-62.9-62.9m0,149.9a87,87,0,1,1,87-87,87.06,87.06,0,0,1-87,87"/><path class="cls-1" d="M264.7,823.7V778.9a83.93,83.93,0,0,1,24.9-60L328,680.5a63.7,63.7,0,0,1,45.3-18.8H480.1a63.7,63.7,0,0,1,45.3,18.8l14,14a12,12,0,0,1-17,17l-14-14a40,40,0,0,0-28.3-11.7H373.2a40,40,0,0,0-28.3,11.7l-38.4,38.4a60.44,60.44,0,0,0-17.8,43v32.7"/><path class="cls-1" d="M563.6,811.7V779a60.44,60.44,0,0,0-17.8-43l-38.4-38.4a40,40,0,0,0-28.3-11.7H372.4a40,40,0,0,0-28.3,11.7l-14,14a12,12,0,0,1-17-17l14-14a63.7,63.7,0,0,1,45.3-18.8H479.2a63.7,63.7,0,0,1,45.3,18.8L562.9,719a84.52,84.52,0,0,1,24.9,60v44.8"/></g></g></svg>