<svg id="a" xmlns="http://www.w3.org/2000/svg" viewBox="0 0 1000 1000"><defs><style>.b{fill:#fff}</style></defs><path class="b" d="M337.03 899.81v-44.02c0-22.99 9.13-45.05 25.39-61.31l37.31-37.31a65.872 65.872 0 0 1 46.59-19.3h106.03c17.12 0 33.22 6.67 45.31 18.77l37.85 37.85a86.688 86.688 0 0 1 25.39 61.3v44.01m-10.6-360.37c-6.65 0-12.05-5.39-12.05-12.05 0-76.63-62.11-138.98-138.45-138.98s-138.47 62.34-138.47 138.98c0 6.66-5.39 12.05-12.04 12.05s-12.05-5.39-12.05-12.05c0-89.92 72.93-163.07 162.57-163.07s162.55 73.16 162.55 163.07c0 6.66-5.4 12.05-12.05 12.05"/><path class="b" d="M915.15 539.43c-6.65 0-12.05-5.39-12.05-12.05v-43.74c0-5.37-4.37-9.75-9.74-9.75h-32.7c-15.71 0-29.23-10.66-32.9-25.93-8.2-33.87-21.61-66.2-39.87-96.09-8.2-13.43-6.15-30.52 4.93-41.61L816 287.09c3.8-3.8 3.8-9.99 0-13.79l-61.88-61.88c-1.84-1.84-4.29-2.86-6.89-2.86s-5.05 1.02-6.89 2.86l-23.14 23.15a33.757 33.757 0 0 1-41.6 4.95c-29.84-18.24-62.17-31.65-96.12-39.86-15.3-3.7-25.96-17.22-25.96-32.91v-32.71c0-5.37-4.37-9.74-9.74-9.74h-87.5c-5.38 0-9.75 4.37-9.75 9.74v32.72c0 15.69-10.64 29.21-25.88 32.9-.07.02-.17.04-.23.06-33.71 8.14-66 21.53-95.8 39.73-.06.04-.1.06-.14.09-13.4 8.19-30.51 6.16-41.61-4.95l-23.14-23.15c-1.84-1.84-4.29-2.85-6.89-2.85s-5.05 1.02-6.89 2.85l-61.88 61.87c-1.84 1.84-2.85 4.29-2.85 6.89s1.01 5.05 2.85 6.89l23.18 23.17a33.77 33.77 0 0 1 4.96 41.56l-.15.22a335.108 335.108 0 0 0-39.73 95.81c-.01.06-.02.12-.04.17a33.745 33.745 0 0 1-32.89 25.89h-32.72c-5.38 0-9.74 4.37-9.74 9.75v43.74c0 6.66-5.39 12.05-12.05 12.05s-12.04-5.39-12.04-12.05v-43.74c0-18.66 15.18-33.85 33.84-33.85h32.72c4.47 0 8.35-3.02 9.45-7.36 0-.05.02-.1.03-.14 8.81-36.38 23.17-71.04 42.73-103 .04-.06.1-.15.13-.21 2.25-3.68 1.66-8.6-1.53-11.79l-23.18-23.17c-6.39-6.39-9.91-14.89-9.91-23.93s3.52-17.54 9.91-23.93l61.88-61.86c6.4-6.39 14.89-9.91 23.93-9.91s17.55 3.53 23.93 9.92l23.14 23.15a9.717 9.717 0 0 0 11.9 1.47c.05-.03.08-.05.12-.08a359.2 359.2 0 0 1 103.01-42.71c.06-.01.16-.04.23-.05 4.2-1.02 7.27-4.92 7.27-9.43v-32.72c0-18.66 15.18-33.84 33.84-33.84h87.5c18.66 0 33.85 15.18 33.85 33.84v32.71c0 4.52 3.06 8.42 7.46 9.48 36.45 8.82 71.1 23.18 103.06 42.72 3.9 2.38 8.82 1.79 12.02-1.41l23.13-23.14c6.39-6.39 14.9-9.92 23.93-9.92 9.04 0 17.54 3.53 23.94 9.92l61.88 61.88c13.19 13.2 13.19 34.67 0 47.87l-23.18 23.17a9.73 9.73 0 0 0-1.43 11.97c19.6 32.06 33.96 66.72 42.75 103.03a9.742 9.742 0 0 0 9.49 7.48h32.7c18.66 0 33.84 15.18 33.84 33.85v43.74c0 6.66-5.4 12.05-12.05 12.05"/><path class="b" d="M628.23 353.95c-2.38 0-4.79-.7-6.89-2.17-6.77-4.74-13.9-9.12-21.17-13.03-5.86-3.15-8.06-10.45-4.91-16.31 3.15-5.87 10.45-8.06 16.32-4.92 8.1 4.36 16.03 9.24 23.57 14.5 5.45 3.81 6.78 11.33 2.98 16.78a12.05 12.05 0 0 1-9.89 5.15m96.62 185.48c-6.65 0-12.05-5.39-12.05-12.05 0-49.71-17.37-98.12-48.91-136.32-2.1-2.54-4.29-5.08-6.52-7.54-4.47-4.93-4.11-12.55.83-17.02 4.93-4.47 12.54-4.1 17.02.83 2.49 2.74 4.93 5.57 7.25 8.38 35.11 42.51 54.44 96.38 54.44 151.67 0 6.66-5.4 12.05-12.05 12.05m-450.14 0c-6.65 0-12.05-5.39-12.05-12.05 0-131.17 106.37-237.89 237.12-237.89 18.44 0 36.8 2.13 54.6 6.34 6.48 1.53 10.48 8.03 8.95 14.5-1.53 6.48-8.02 10.48-14.5 8.95-15.97-3.78-32.47-5.69-49.05-5.69-117.45 0-213.01 95.9-213.01 213.79 0 6.66-5.4 12.05-12.05 12.05m362.05 340.14v-30.59c0-15.18-6.33-29.45-17.81-40.19l-38.36-35.85c-7.55-7.07-17.6-10.96-28.28-10.96H445.57c-10.68 0-20.72 3.89-28.28 10.96l-38.36 35.85c-11.48 10.74-17.81 25.02-17.81 40.19v30.59m137.84-304.94c-34.68 0-62.89 28.21-62.89 62.89s28.2 62.89 62.89 62.89 62.89-28.21 62.89-62.89-28.21-62.89-62.89-62.89m0 149.88c-47.97 0-86.99-39.02-86.99-86.99s39.02-86.99 86.99-86.99 86.99 39.03 86.99 86.99-39.02 86.99-86.99 86.99M74.73 899.81v-44.75c0-22.68 8.83-44 24.87-60.05l38.36-38.36c12.11-12.1 28.2-18.77 45.32-18.77h106.76c17.13 0 33.22 6.67 45.32 18.77l14.04 14.04c4.71 4.7 4.71 12.33 0 17.04-4.7 4.7-12.34 4.7-17.04 0l-14.03-14.04c-7.56-7.55-17.61-11.71-28.29-11.71H183.28c-10.68 0-20.73 4.16-28.28 11.71l-38.36 38.36c-11.48 11.48-17.81 26.76-17.81 43v32.71m137.84-313.13c-34.68 0-62.89 28.21-62.89 62.89s28.2 62.89 62.89 62.89 62.89-28.21 62.89-62.89-28.21-62.89-62.89-62.89m0 149.88c-47.97 0-86.99-39.02-86.99-86.99s39.02-86.99 86.99-86.99 86.99 39.03 86.99 86.99-39.02 86.99-86.99 86.99m664.12 163.26v-32.71c0-16.25-6.33-31.52-17.81-43l-38.36-38.36c-7.56-7.55-17.6-11.71-28.28-11.71H709.57c-10.68 0-20.72 4.16-28.28 11.71l-14.04 14.04c-4.72 4.71-12.34 4.7-17.04 0-4.71-4.71-4.71-12.34 0-17.04l14.04-14.04c12.11-12.1 28.2-18.77 45.32-18.77h106.77c17.12 0 33.22 6.67 45.31 18.77l38.36 38.36c16.04 16.04 24.87 37.36 24.87 60.05v44.75M762.95 574.63c-34.68 0-62.89 28.21-62.89 62.89s28.21 62.89 62.89 62.89 62.89-28.21 62.89-62.89-28.21-62.89-62.89-62.89m0 149.88c-47.97 0-86.99-39.02-86.99-86.99s39.03-86.99 86.99-86.99 86.99 39.03 86.99 86.99-39.03 86.99-86.99 86.99"/></svg>